ISO-10303-21;
HEADER;
/* Generated by software containing ST-Developer
 * from STEP Tools, Inc. (www.steptools.com) 
 */

FILE_DESCRIPTION(
/* description */ (''),
/* implementation_level */ '2;1');

FILE_NAME(
/* name */ 
'/Users/joakimjohansson/Desktop/Sample parts/CAD guides 2.step',
/* time_stamp */ '2019-05-13T09:29:18+02:00',
/* author */ ('joakim.j.b.johansson@gmail.com'),
/* organization */ (''),
/* preprocessor_version */ 'ST-DEVELOPER v18',
/* originating_system */ 'Autodesk Translation Framework v8.2.0.1029',
/* authorisation */ '');

FILE_SCHEMA (('AUTOMOTIVE_DESIGN { 1 0 10303 214 3 1 1 }'));
ENDSEC;

DATA;
#10=MECHANICAL_DESIGN_GEOMETRIC_PRESENTATION_REPRESENTATION('',(#13),#949);
#11=SHAPE_REPRESENTATION_RELATIONSHIP('SRR','None',#956,#12);
#12=ADVANCED_BREP_SHAPE_REPRESENTATION('',(#14),#948);
#13=STYLED_ITEM('',(#966),#14);
#14=MANIFOLD_SOLID_BREP('Body1',#519);
#15=B_SPLINE_CURVE_WITH_KNOTS('',3,(#839,#840,#841,#842,#843,#844,#845,
#846,#847,#848),.UNSPECIFIED.,.F.,.F.,(4,2,2,2,4),(0.797668041558821,0.956847494804252,
1.11602694804968,1.35568151557815,1.46228811790545),.UNSPECIFIED.);
#16=B_SPLINE_CURVE_WITH_KNOTS('',3,(#851,#852,#853,#854,#855,#856,#857,
#858,#859,#860),.UNSPECIFIED.,.F.,.F.,(4,2,2,2,4),(0.133047965202243,0.239654567529472,
0.479309135057939,0.638488588303369,0.797668041548798),.UNSPECIFIED.);
#17=B_SPLINE_CURVE_WITH_KNOTS('',3,(#863,#864,#865,#866,#867,#868,#869,
#870,#871,#872),.UNSPECIFIED.,.F.,.F.,(4,2,2,2,4),(-0.797668041553218,-0.638488588306729,
-0.47930913506024,-0.239654567530171,-0.133047965198883),.UNSPECIFIED.);
#18=B_SPLINE_CURVE_WITH_KNOTS('',3,(#875,#876,#877,#878,#879,#880,#881,
#882,#883,#884),.UNSPECIFIED.,.F.,.F.,(4,2,2,2,4),(-1.46228811790776,-1.35568151557728,
-1.11602694804735,-0.956847494800955,-0.797668041554561),.UNSPECIFIED.);
#19=B_SPLINE_CURVE_WITH_KNOTS('',3,(#887,#888,#889,#890,#891,#892,#893,
#894,#895,#896),.UNSPECIFIED.,.F.,.F.,(4,2,2,2,4),(0.797668041554565,0.95684749480096,
1.11602694804736,1.35568151557729,1.46228811791001),.UNSPECIFIED.);
#20=B_SPLINE_CURVE_WITH_KNOTS('',3,(#899,#900,#901,#902,#903,#904,#905,
#906,#907,#908),.UNSPECIFIED.,.F.,.F.,(4,2,2,2,4),(-1.4622881179093,-1.35568151557727,
-1.1160269480472,-0.956847494800714,-0.797668041554225),.UNSPECIFIED.);
#21=CONICAL_SURFACE('',#562,19.0699999999829,0.785398163397);
#22=CONICAL_SURFACE('',#564,2.47499999999778,0.785398163397);
#23=CONICAL_SURFACE('',#566,2.47499999999778,0.785398163397);
#24=CYLINDRICAL_SURFACE('',#550,19.);
#25=CYLINDRICAL_SURFACE('',#552,19.);
#26=CYLINDRICAL_SURFACE('',#554,19.);
#27=CYLINDRICAL_SURFACE('',#556,3.);
#28=CYLINDRICAL_SURFACE('',#558,2.99999999999999);
#29=CYLINDRICAL_SURFACE('',#560,3.);
#30=CYLINDRICAL_SURFACE('',#568,5.);
#31=CYLINDRICAL_SURFACE('',#572,5.);
#32=CYLINDRICAL_SURFACE('',#574,5.);
#33=CYLINDRICAL_SURFACE('',#578,5.);
#34=CYLINDRICAL_SURFACE('',#580,5.);
#35=CYLINDRICAL_SURFACE('',#584,5.);
#36=FACE_BOUND('',#97,.T.);
#37=FACE_BOUND('',#120,.T.);
#38=CIRCLE('',#538,5.00000000002778);
#39=CIRCLE('',#539,19.0000000000286);
#40=CIRCLE('',#540,5.00000000002482);
#41=CIRCLE('',#541,3.00000000000001);
#42=CIRCLE('',#542,5.00000000002485);
#43=CIRCLE('',#543,19.000000000044);
#44=CIRCLE('',#544,5.00000000002797);
#45=CIRCLE('',#545,2.99999999997737);
#46=CIRCLE('',#546,5.00000000010357);
#47=CIRCLE('',#547,19.0000000012321);
#48=CIRCLE('',#548,5.00000000010348);
#49=CIRCLE('',#549,3.00000000002438);
#50=CIRCLE('',#551,19.);
#51=CIRCLE('',#553,19.);
#52=CIRCLE('',#555,18.9999999999996);
#53=CIRCLE('',#557,2.99999999999999);
#54=CIRCLE('',#559,3.);
#55=CIRCLE('',#561,3.);
#56=CIRCLE('',#563,22.4999999999837);
#57=CIRCLE('',#565,22.4999999999946);
#58=CIRCLE('',#567,22.5000000000002);
#59=CIRCLE('',#569,4.99999999999809);
#60=CIRCLE('',#573,4.99999999999786);
#61=CIRCLE('',#575,4.99999999999965);
#62=CIRCLE('',#579,5.00000000000208);
#63=CIRCLE('',#581,4.99999999999826);
#64=CIRCLE('',#585,4.99999999999722);
#65=FACE_OUTER_BOUND('',#92,.T.);
#66=FACE_OUTER_BOUND('',#93,.T.);
#67=FACE_OUTER_BOUND('',#94,.T.);
#68=FACE_OUTER_BOUND('',#95,.T.);
#69=FACE_OUTER_BOUND('',#96,.T.);
#70=FACE_OUTER_BOUND('',#98,.T.);
#71=FACE_OUTER_BOUND('',#99,.T.);
#72=FACE_OUTER_BOUND('',#100,.T.);
#73=FACE_OUTER_BOUND('',#101,.T.);
#74=FACE_OUTER_BOUND('',#102,.T.);
#75=FACE_OUTER_BOUND('',#103,.T.);
#76=FACE_OUTER_BOUND('',#104,.T.);
#77=FACE_OUTER_BOUND('',#105,.T.);
#78=FACE_OUTER_BOUND('',#106,.T.);
#79=FACE_OUTER_BOUND('',#107,.T.);
#80=FACE_OUTER_BOUND('',#108,.T.);
#81=FACE_OUTER_BOUND('',#109,.T.);
#82=FACE_OUTER_BOUND('',#110,.T.);
#83=FACE_OUTER_BOUND('',#111,.T.);
#84=FACE_OUTER_BOUND('',#112,.T.);
#85=FACE_OUTER_BOUND('',#113,.T.);
#86=FACE_OUTER_BOUND('',#114,.T.);
#87=FACE_OUTER_BOUND('',#115,.T.);
#88=FACE_OUTER_BOUND('',#116,.T.);
#89=FACE_OUTER_BOUND('',#117,.T.);
#90=FACE_OUTER_BOUND('',#118,.T.);
#91=FACE_OUTER_BOUND('',#119,.T.);
#92=EDGE_LOOP('',(#330,#331,#332,#333));
#93=EDGE_LOOP('',(#334,#335,#336,#337));
#94=EDGE_LOOP('',(#338,#339,#340,#341));
#95=EDGE_LOOP('',(#342,#343,#344,#345));
#96=EDGE_LOOP('',(#346,#347,#348,#349));
#97=EDGE_LOOP('',(#350,#351,#352,#353,#354,#355,#356,#357,#358,#359,#360,
#361,#362,#363,#364,#365,#366,#367));
#98=EDGE_LOOP('',(#368,#369,#370,#371));
#99=EDGE_LOOP('',(#372,#373,#374,#375));
#100=EDGE_LOOP('',(#376,#377,#378,#379));
#101=EDGE_LOOP('',(#380,#381,#382,#383));
#102=EDGE_LOOP('',(#384,#385,#386,#387));
#103=EDGE_LOOP('',(#388,#389,#390,#391));
#104=EDGE_LOOP('',(#392,#393,#394,#395));
#105=EDGE_LOOP('',(#396,#397,#398,#399));
#106=EDGE_LOOP('',(#400,#401,#402,#403));
#107=EDGE_LOOP('',(#404,#405,#406,#407,#408));
#108=EDGE_LOOP('',(#409,#410,#411,#412));
#109=EDGE_LOOP('',(#413,#414,#415,#416));
#110=EDGE_LOOP('',(#417,#418,#419,#420,#421));
#111=EDGE_LOOP('',(#422,#423,#424,#425,#426));
#112=EDGE_LOOP('',(#427,#428,#429,#430));
#113=EDGE_LOOP('',(#431,#432,#433,#434));
#114=EDGE_LOOP('',(#435,#436,#437,#438,#439));
#115=EDGE_LOOP('',(#440,#441,#442,#443,#444));
#116=EDGE_LOOP('',(#445,#446,#447,#448));
#117=EDGE_LOOP('',(#449,#450,#451,#452));
#118=EDGE_LOOP('',(#453,#454,#455,#456,#457));
#119=EDGE_LOOP('',(#458,#459,#460,#461));
#120=EDGE_LOOP('',(#462,#463,#464,#465,#466,#467,#468,#469,#470,#471,#472,
#473,#474,#475,#476,#477,#478,#479));
#121=LINE('',#743,#163);
#122=LINE('',#745,#164);
#123=LINE('',#747,#165);
#124=LINE('',#748,#166);
#125=LINE('',#751,#167);
#126=LINE('',#753,#168);
#127=LINE('',#754,#169);
#128=LINE('',#757,#170);
#129=LINE('',#759,#171);
#130=LINE('',#760,#172);
#131=LINE('',#762,#173);
#132=LINE('',#763,#174);
#133=LINE('',#773,#175);
#134=LINE('',#777,#176);
#135=LINE('',#785,#177);
#136=LINE('',#789,#178);
#137=LINE('',#797,#179);
#138=LINE('',#800,#180);
#139=LINE('',#803,#181);
#140=LINE('',#805,#182);
#141=LINE('',#809,#183);
#142=LINE('',#811,#184);
#143=LINE('',#815,#185);
#144=LINE('',#817,#186);
#145=LINE('',#823,#187);
#146=LINE('',#824,#188);
#147=LINE('',#829,#189);
#148=LINE('',#830,#190);
#149=LINE('',#835,#191);
#150=LINE('',#836,#192);
#151=LINE('',#911,#193);
#152=LINE('',#914,#194);
#153=LINE('',#917,#195);
#154=LINE('',#918,#196);
#155=LINE('',#923,#197);
#156=LINE('',#926,#198);
#157=LINE('',#929,#199);
#158=LINE('',#930,#200);
#159=LINE('',#935,#201);
#160=LINE('',#938,#202);
#161=LINE('',#941,#203);
#162=LINE('',#942,#204);
#163=VECTOR('',#591,74.7504374250898);
#164=VECTOR('',#592,5.);
#165=VECTOR('',#593,74.7504374250897);
#166=VECTOR('',#594,5.);
#167=VECTOR('',#597,80.376815488511);
#168=VECTOR('',#598,80.376815488511);
#169=VECTOR('',#599,5.);
#170=VECTOR('',#602,74.7504374250897);
#171=VECTOR('',#603,74.7504374250897);
#172=VECTOR('',#604,5.);
#173=VECTOR('',#607,80.376815488511);
#174=VECTOR('',#608,80.376815488511);
#175=VECTOR('',#617,2.13424604129999);
#176=VECTOR('',#620,2.13424604129999);
#177=VECTOR('',#627,2.13424604131176);
#178=VECTOR('',#630,2.13424604133175);
#179=VECTOR('',#637,2.13424604133176);
#180=VECTOR('',#640,2.13424604131176);
#181=VECTOR('',#643,1.5);
#182=VECTOR('',#644,1.5);
#183=VECTOR('',#649,1.5);
#184=VECTOR('',#650,1.5);
#185=VECTOR('',#655,1.5);
#186=VECTOR('',#656,1.5);
#187=VECTOR('',#663,5.);
#188=VECTOR('',#664,5.);
#189=VECTOR('',#669,5.);
#190=VECTOR('',#670,5.);
#191=VECTOR('',#675,5.);
#192=VECTOR('',#676,5.);
#193=VECTOR('',#691,5.);
#194=VECTOR('',#696,2.13424604131177);
#195=VECTOR('',#699,2.13424604133178);
#196=VECTOR('',#700,5.);
#197=VECTOR('',#707,5.);
#198=VECTOR('',#712,2.13424604133177);
#199=VECTOR('',#715,2.13424604131178);
#200=VECTOR('',#716,5.);
#201=VECTOR('',#723,5.);
#202=VECTOR('',#728,2.1342460413);
#203=VECTOR('',#731,2.13424604130001);
#204=VECTOR('',#732,5.);
#205=VERTEX_POINT('',#741);
#206=VERTEX_POINT('',#742);
#207=VERTEX_POINT('',#744);
#208=VERTEX_POINT('',#746);
#209=VERTEX_POINT('',#750);
#210=VERTEX_POINT('',#752);
#211=VERTEX_POINT('',#756);
#212=VERTEX_POINT('',#758);
#213=VERTEX_POINT('',#765);
#214=VERTEX_POINT('',#766);
#215=VERTEX_POINT('',#768);
#216=VERTEX_POINT('',#770);
#217=VERTEX_POINT('',#772);
#218=VERTEX_POINT('',#774);
#219=VERTEX_POINT('',#776);
#220=VERTEX_POINT('',#778);
#221=VERTEX_POINT('',#780);
#222=VERTEX_POINT('',#782);
#223=VERTEX_POINT('',#784);
#224=VERTEX_POINT('',#786);
#225=VERTEX_POINT('',#788);
#226=VERTEX_POINT('',#790);
#227=VERTEX_POINT('',#792);
#228=VERTEX_POINT('',#794);
#229=VERTEX_POINT('',#796);
#230=VERTEX_POINT('',#798);
#231=VERTEX_POINT('',#802);
#232=VERTEX_POINT('',#804);
#233=VERTEX_POINT('',#808);
#234=VERTEX_POINT('',#810);
#235=VERTEX_POINT('',#814);
#236=VERTEX_POINT('',#816);
#237=VERTEX_POINT('',#820);
#238=VERTEX_POINT('',#821);
#239=VERTEX_POINT('',#826);
#240=VERTEX_POINT('',#827);
#241=VERTEX_POINT('',#832);
#242=VERTEX_POINT('',#833);
#243=VERTEX_POINT('',#838);
#244=VERTEX_POINT('',#849);
#245=VERTEX_POINT('',#862);
#246=VERTEX_POINT('',#873);
#247=VERTEX_POINT('',#886);
#248=VERTEX_POINT('',#897);
#249=VERTEX_POINT('',#910);
#250=VERTEX_POINT('',#916);
#251=VERTEX_POINT('',#922);
#252=VERTEX_POINT('',#928);
#253=VERTEX_POINT('',#934);
#254=VERTEX_POINT('',#940);
#255=EDGE_CURVE('',#205,#206,#121,.T.);
#256=EDGE_CURVE('',#207,#205,#122,.T.);
#257=EDGE_CURVE('',#208,#207,#123,.T.);
#258=EDGE_CURVE('',#208,#206,#124,.T.);
#259=EDGE_CURVE('',#206,#209,#125,.T.);
#260=EDGE_CURVE('',#210,#208,#126,.T.);
#261=EDGE_CURVE('',#210,#209,#127,.T.);
#262=EDGE_CURVE('',#209,#211,#128,.T.);
#263=EDGE_CURVE('',#212,#210,#129,.T.);
#264=EDGE_CURVE('',#212,#211,#130,.T.);
#265=EDGE_CURVE('',#211,#205,#131,.T.);
#266=EDGE_CURVE('',#207,#212,#132,.T.);
#267=EDGE_CURVE('',#213,#214,#38,.T.);
#268=EDGE_CURVE('',#214,#215,#39,.T.);
#269=EDGE_CURVE('',#215,#216,#40,.T.);
#270=EDGE_CURVE('',#216,#217,#133,.T.);
#271=EDGE_CURVE('',#217,#218,#41,.T.);
#272=EDGE_CURVE('',#218,#219,#134,.T.);
#273=EDGE_CURVE('',#219,#220,#42,.T.);
#274=EDGE_CURVE('',#220,#221,#43,.T.);
#275=EDGE_CURVE('',#221,#222,#44,.T.);
#276=EDGE_CURVE('',#222,#223,#135,.T.);
#277=EDGE_CURVE('',#223,#224,#45,.T.);
#278=EDGE_CURVE('',#224,#225,#136,.T.);
#279=EDGE_CURVE('',#225,#226,#46,.T.);
#280=EDGE_CURVE('',#226,#227,#47,.T.);
#281=EDGE_CURVE('',#227,#228,#48,.T.);
#282=EDGE_CURVE('',#228,#229,#137,.T.);
#283=EDGE_CURVE('',#229,#230,#49,.T.);
#284=EDGE_CURVE('',#230,#213,#138,.T.);
#285=EDGE_CURVE('',#231,#227,#139,.T.);
#286=EDGE_CURVE('',#226,#232,#140,.T.);
#287=EDGE_CURVE('',#232,#231,#50,.T.);
#288=EDGE_CURVE('',#233,#221,#141,.T.);
#289=EDGE_CURVE('',#220,#234,#142,.T.);
#290=EDGE_CURVE('',#234,#233,#51,.T.);
#291=EDGE_CURVE('',#235,#215,#143,.T.);
#292=EDGE_CURVE('',#214,#236,#144,.T.);
#293=EDGE_CURVE('',#236,#235,#52,.T.);
#294=EDGE_CURVE('',#237,#238,#53,.T.);
#295=EDGE_CURVE('',#238,#218,#145,.T.);
#296=EDGE_CURVE('',#217,#237,#146,.T.);
#297=EDGE_CURVE('',#239,#240,#54,.T.);
#298=EDGE_CURVE('',#240,#224,#147,.T.);
#299=EDGE_CURVE('',#223,#239,#148,.T.);
#300=EDGE_CURVE('',#241,#242,#55,.T.);
#301=EDGE_CURVE('',#242,#230,#149,.T.);
#302=EDGE_CURVE('',#229,#241,#150,.T.);
#303=EDGE_CURVE('',#232,#243,#15,.T.);
#304=EDGE_CURVE('',#243,#244,#56,.T.);
#305=EDGE_CURVE('',#244,#231,#16,.T.);
#306=EDGE_CURVE('',#236,#245,#17,.T.);
#307=EDGE_CURVE('',#245,#246,#57,.T.);
#308=EDGE_CURVE('',#246,#235,#18,.T.);
#309=EDGE_CURVE('',#234,#247,#19,.T.);
#310=EDGE_CURVE('',#247,#248,#58,.T.);
#311=EDGE_CURVE('',#248,#233,#20,.T.);
#312=EDGE_CURVE('',#213,#249,#151,.T.);
#313=EDGE_CURVE('',#249,#245,#59,.T.);
#314=EDGE_CURVE('',#242,#249,#152,.T.);
#315=EDGE_CURVE('',#250,#241,#153,.T.);
#316=EDGE_CURVE('',#228,#250,#154,.T.);
#317=EDGE_CURVE('',#244,#250,#60,.T.);
#318=EDGE_CURVE('',#225,#251,#155,.T.);
#319=EDGE_CURVE('',#251,#243,#61,.T.);
#320=EDGE_CURVE('',#240,#251,#156,.T.);
#321=EDGE_CURVE('',#252,#239,#157,.T.);
#322=EDGE_CURVE('',#222,#252,#158,.T.);
#323=EDGE_CURVE('',#248,#252,#62,.T.);
#324=EDGE_CURVE('',#219,#253,#159,.T.);
#325=EDGE_CURVE('',#253,#247,#63,.T.);
#326=EDGE_CURVE('',#238,#253,#160,.T.);
#327=EDGE_CURVE('',#254,#237,#161,.T.);
#328=EDGE_CURVE('',#216,#254,#162,.T.);
#329=EDGE_CURVE('',#246,#254,#64,.T.);
#330=ORIENTED_EDGE('',*,*,#255,.F.);
#331=ORIENTED_EDGE('',*,*,#256,.F.);
#332=ORIENTED_EDGE('',*,*,#257,.F.);
#333=ORIENTED_EDGE('',*,*,#258,.T.);
#334=ORIENTED_EDGE('',*,*,#259,.F.);
#335=ORIENTED_EDGE('',*,*,#258,.F.);
#336=ORIENTED_EDGE('',*,*,#260,.F.);
#337=ORIENTED_EDGE('',*,*,#261,.T.);
#338=ORIENTED_EDGE('',*,*,#262,.F.);
#339=ORIENTED_EDGE('',*,*,#261,.F.);
#340=ORIENTED_EDGE('',*,*,#263,.F.);
#341=ORIENTED_EDGE('',*,*,#264,.T.);
#342=ORIENTED_EDGE('',*,*,#265,.F.);
#343=ORIENTED_EDGE('',*,*,#264,.F.);
#344=ORIENTED_EDGE('',*,*,#266,.F.);
#345=ORIENTED_EDGE('',*,*,#256,.T.);
#346=ORIENTED_EDGE('',*,*,#262,.T.);
#347=ORIENTED_EDGE('',*,*,#265,.T.);
#348=ORIENTED_EDGE('',*,*,#255,.T.);
#349=ORIENTED_EDGE('',*,*,#259,.T.);
#350=ORIENTED_EDGE('',*,*,#267,.T.);
#351=ORIENTED_EDGE('',*,*,#268,.T.);
#352=ORIENTED_EDGE('',*,*,#269,.T.);
#353=ORIENTED_EDGE('',*,*,#270,.T.);
#354=ORIENTED_EDGE('',*,*,#271,.T.);
#355=ORIENTED_EDGE('',*,*,#272,.T.);
#356=ORIENTED_EDGE('',*,*,#273,.T.);
#357=ORIENTED_EDGE('',*,*,#274,.T.);
#358=ORIENTED_EDGE('',*,*,#275,.T.);
#359=ORIENTED_EDGE('',*,*,#276,.T.);
#360=ORIENTED_EDGE('',*,*,#277,.T.);
#361=ORIENTED_EDGE('',*,*,#278,.T.);
#362=ORIENTED_EDGE('',*,*,#279,.T.);
#363=ORIENTED_EDGE('',*,*,#280,.T.);
#364=ORIENTED_EDGE('',*,*,#281,.T.);
#365=ORIENTED_EDGE('',*,*,#282,.T.);
#366=ORIENTED_EDGE('',*,*,#283,.T.);
#367=ORIENTED_EDGE('',*,*,#284,.T.);
#368=ORIENTED_EDGE('',*,*,#285,.T.);
#369=ORIENTED_EDGE('',*,*,#280,.F.);
#370=ORIENTED_EDGE('',*,*,#286,.T.);
#371=ORIENTED_EDGE('',*,*,#287,.T.);
#372=ORIENTED_EDGE('',*,*,#288,.T.);
#373=ORIENTED_EDGE('',*,*,#274,.F.);
#374=ORIENTED_EDGE('',*,*,#289,.T.);
#375=ORIENTED_EDGE('',*,*,#290,.T.);
#376=ORIENTED_EDGE('',*,*,#291,.T.);
#377=ORIENTED_EDGE('',*,*,#268,.F.);
#378=ORIENTED_EDGE('',*,*,#292,.T.);
#379=ORIENTED_EDGE('',*,*,#293,.T.);
#380=ORIENTED_EDGE('',*,*,#294,.T.);
#381=ORIENTED_EDGE('',*,*,#295,.T.);
#382=ORIENTED_EDGE('',*,*,#271,.F.);
#383=ORIENTED_EDGE('',*,*,#296,.T.);
#384=ORIENTED_EDGE('',*,*,#297,.T.);
#385=ORIENTED_EDGE('',*,*,#298,.T.);
#386=ORIENTED_EDGE('',*,*,#277,.F.);
#387=ORIENTED_EDGE('',*,*,#299,.T.);
#388=ORIENTED_EDGE('',*,*,#300,.T.);
#389=ORIENTED_EDGE('',*,*,#301,.T.);
#390=ORIENTED_EDGE('',*,*,#283,.F.);
#391=ORIENTED_EDGE('',*,*,#302,.T.);
#392=ORIENTED_EDGE('',*,*,#303,.T.);
#393=ORIENTED_EDGE('',*,*,#304,.T.);
#394=ORIENTED_EDGE('',*,*,#305,.T.);
#395=ORIENTED_EDGE('',*,*,#287,.F.);
#396=ORIENTED_EDGE('',*,*,#306,.T.);
#397=ORIENTED_EDGE('',*,*,#307,.T.);
#398=ORIENTED_EDGE('',*,*,#308,.T.);
#399=ORIENTED_EDGE('',*,*,#293,.F.);
#400=ORIENTED_EDGE('',*,*,#290,.F.);
#401=ORIENTED_EDGE('',*,*,#309,.T.);
#402=ORIENTED_EDGE('',*,*,#310,.T.);
#403=ORIENTED_EDGE('',*,*,#311,.T.);
#404=ORIENTED_EDGE('',*,*,#292,.F.);
#405=ORIENTED_EDGE('',*,*,#267,.F.);
#406=ORIENTED_EDGE('',*,*,#312,.T.);
#407=ORIENTED_EDGE('',*,*,#313,.T.);
#408=ORIENTED_EDGE('',*,*,#306,.F.);
#409=ORIENTED_EDGE('',*,*,#284,.F.);
#410=ORIENTED_EDGE('',*,*,#301,.F.);
#411=ORIENTED_EDGE('',*,*,#314,.T.);
#412=ORIENTED_EDGE('',*,*,#312,.F.);
#413=ORIENTED_EDGE('',*,*,#315,.T.);
#414=ORIENTED_EDGE('',*,*,#302,.F.);
#415=ORIENTED_EDGE('',*,*,#282,.F.);
#416=ORIENTED_EDGE('',*,*,#316,.T.);
#417=ORIENTED_EDGE('',*,*,#317,.T.);
#418=ORIENTED_EDGE('',*,*,#316,.F.);
#419=ORIENTED_EDGE('',*,*,#281,.F.);
#420=ORIENTED_EDGE('',*,*,#285,.F.);
#421=ORIENTED_EDGE('',*,*,#305,.F.);
#422=ORIENTED_EDGE('',*,*,#286,.F.);
#423=ORIENTED_EDGE('',*,*,#279,.F.);
#424=ORIENTED_EDGE('',*,*,#318,.T.);
#425=ORIENTED_EDGE('',*,*,#319,.T.);
#426=ORIENTED_EDGE('',*,*,#303,.F.);
#427=ORIENTED_EDGE('',*,*,#278,.F.);
#428=ORIENTED_EDGE('',*,*,#298,.F.);
#429=ORIENTED_EDGE('',*,*,#320,.T.);
#430=ORIENTED_EDGE('',*,*,#318,.F.);
#431=ORIENTED_EDGE('',*,*,#321,.T.);
#432=ORIENTED_EDGE('',*,*,#299,.F.);
#433=ORIENTED_EDGE('',*,*,#276,.F.);
#434=ORIENTED_EDGE('',*,*,#322,.T.);
#435=ORIENTED_EDGE('',*,*,#323,.T.);
#436=ORIENTED_EDGE('',*,*,#322,.F.);
#437=ORIENTED_EDGE('',*,*,#275,.F.);
#438=ORIENTED_EDGE('',*,*,#288,.F.);
#439=ORIENTED_EDGE('',*,*,#311,.F.);
#440=ORIENTED_EDGE('',*,*,#289,.F.);
#441=ORIENTED_EDGE('',*,*,#273,.F.);
#442=ORIENTED_EDGE('',*,*,#324,.T.);
#443=ORIENTED_EDGE('',*,*,#325,.T.);
#444=ORIENTED_EDGE('',*,*,#309,.F.);
#445=ORIENTED_EDGE('',*,*,#272,.F.);
#446=ORIENTED_EDGE('',*,*,#295,.F.);
#447=ORIENTED_EDGE('',*,*,#326,.T.);
#448=ORIENTED_EDGE('',*,*,#324,.F.);
#449=ORIENTED_EDGE('',*,*,#327,.T.);
#450=ORIENTED_EDGE('',*,*,#296,.F.);
#451=ORIENTED_EDGE('',*,*,#270,.F.);
#452=ORIENTED_EDGE('',*,*,#328,.T.);
#453=ORIENTED_EDGE('',*,*,#329,.T.);
#454=ORIENTED_EDGE('',*,*,#328,.F.);
#455=ORIENTED_EDGE('',*,*,#269,.F.);
#456=ORIENTED_EDGE('',*,*,#291,.F.);
#457=ORIENTED_EDGE('',*,*,#308,.F.);
#458=ORIENTED_EDGE('',*,*,#263,.T.);
#459=ORIENTED_EDGE('',*,*,#260,.T.);
#460=ORIENTED_EDGE('',*,*,#257,.T.);
#461=ORIENTED_EDGE('',*,*,#266,.T.);
#462=ORIENTED_EDGE('',*,*,#310,.F.);
#463=ORIENTED_EDGE('',*,*,#325,.F.);
#464=ORIENTED_EDGE('',*,*,#326,.F.);
#465=ORIENTED_EDGE('',*,*,#294,.F.);
#466=ORIENTED_EDGE('',*,*,#327,.F.);
#467=ORIENTED_EDGE('',*,*,#329,.F.);
#468=ORIENTED_EDGE('',*,*,#307,.F.);
#469=ORIENTED_EDGE('',*,*,#313,.F.);
#470=ORIENTED_EDGE('',*,*,#314,.F.);
#471=ORIENTED_EDGE('',*,*,#300,.F.);
#472=ORIENTED_EDGE('',*,*,#315,.F.);
#473=ORIENTED_EDGE('',*,*,#317,.F.);
#474=ORIENTED_EDGE('',*,*,#304,.F.);
#475=ORIENTED_EDGE('',*,*,#319,.F.);
#476=ORIENTED_EDGE('',*,*,#320,.F.);
#477=ORIENTED_EDGE('',*,*,#297,.F.);
#478=ORIENTED_EDGE('',*,*,#321,.F.);
#479=ORIENTED_EDGE('',*,*,#323,.F.);
#480=PLANE('',#533);
#481=PLANE('',#534);
#482=PLANE('',#535);
#483=PLANE('',#536);
#484=PLANE('',#537);
#485=PLANE('',#570);
#486=PLANE('',#571);
#487=PLANE('',#576);
#488=PLANE('',#577);
#489=PLANE('',#582);
#490=PLANE('',#583);
#491=PLANE('',#586);
#492=ADVANCED_FACE('',(#65),#480,.T.);
#493=ADVANCED_FACE('',(#66),#481,.T.);
#494=ADVANCED_FACE('',(#67),#482,.T.);
#495=ADVANCED_FACE('',(#68),#483,.T.);
#496=ADVANCED_FACE('',(#69,#36),#484,.T.);
#497=ADVANCED_FACE('',(#70),#24,.F.);
#498=ADVANCED_FACE('',(#71),#25,.F.);
#499=ADVANCED_FACE('',(#72),#26,.F.);
#500=ADVANCED_FACE('',(#73),#27,.F.);
#501=ADVANCED_FACE('',(#74),#28,.F.);
#502=ADVANCED_FACE('',(#75),#29,.F.);
#503=ADVANCED_FACE('',(#76),#21,.F.);
#504=ADVANCED_FACE('',(#77),#22,.F.);
#505=ADVANCED_FACE('',(#78),#23,.F.);
#506=ADVANCED_FACE('',(#79),#30,.T.);
#507=ADVANCED_FACE('',(#80),#485,.T.);
#508=ADVANCED_FACE('',(#81),#486,.T.);
#509=ADVANCED_FACE('',(#82),#31,.T.);
#510=ADVANCED_FACE('',(#83),#32,.T.);
#511=ADVANCED_FACE('',(#84),#487,.T.);
#512=ADVANCED_FACE('',(#85),#488,.T.);
#513=ADVANCED_FACE('',(#86),#33,.T.);
#514=ADVANCED_FACE('',(#87),#34,.T.);
#515=ADVANCED_FACE('',(#88),#489,.T.);
#516=ADVANCED_FACE('',(#89),#490,.T.);
#517=ADVANCED_FACE('',(#90),#35,.T.);
#518=ADVANCED_FACE('',(#91,#37),#491,.T.);
#519=CLOSED_SHELL('',(#492,#493,#494,#495,#496,#497,#498,#499,#500,#501,
#502,#503,#504,#505,#506,#507,#508,#509,#510,#511,#512,#513,#514,#515,#516,
#517,#518));
#520=DERIVED_UNIT_ELEMENT(#522,1.);
#521=DERIVED_UNIT_ELEMENT(#951,3.);
#522=(
MASS_UNIT()
NAMED_UNIT(*)
SI_UNIT(.KILO.,.GRAM.)
);
#523=DERIVED_UNIT((#520,#521));
#524=MEASURE_REPRESENTATION_ITEM('density measure',
POSITIVE_RATIO_MEASURE(7850.),#523);
#525=PROPERTY_DEFINITION_REPRESENTATION(#530,#527);
#526=PROPERTY_DEFINITION_REPRESENTATION(#531,#528);
#527=REPRESENTATION('material name',(#529),#948);
#528=REPRESENTATION('density',(#524),#948);
#529=DESCRIPTIVE_REPRESENTATION_ITEM('Steel','Steel');
#530=PROPERTY_DEFINITION('material property','material name',#958);
#531=PROPERTY_DEFINITION('material property','density of part',#958);
#532=AXIS2_PLACEMENT_3D('placement',#739,#587,#588);
#533=AXIS2_PLACEMENT_3D('',#740,#589,#590);
#534=AXIS2_PLACEMENT_3D('',#749,#595,#596);
#535=AXIS2_PLACEMENT_3D('',#755,#600,#601);
#536=AXIS2_PLACEMENT_3D('',#761,#605,#606);
#537=AXIS2_PLACEMENT_3D('',#764,#609,#610);
#538=AXIS2_PLACEMENT_3D('',#767,#611,#612);
#539=AXIS2_PLACEMENT_3D('',#769,#613,#614);
#540=AXIS2_PLACEMENT_3D('',#771,#615,#616);
#541=AXIS2_PLACEMENT_3D('',#775,#618,#619);
#542=AXIS2_PLACEMENT_3D('',#779,#621,#622);
#543=AXIS2_PLACEMENT_3D('',#781,#623,#624);
#544=AXIS2_PLACEMENT_3D('',#783,#625,#626);
#545=AXIS2_PLACEMENT_3D('',#787,#628,#629);
#546=AXIS2_PLACEMENT_3D('',#791,#631,#632);
#547=AXIS2_PLACEMENT_3D('',#793,#633,#634);
#548=AXIS2_PLACEMENT_3D('',#795,#635,#636);
#549=AXIS2_PLACEMENT_3D('',#799,#638,#639);
#550=AXIS2_PLACEMENT_3D('',#801,#641,#642);
#551=AXIS2_PLACEMENT_3D('',#806,#645,#646);
#552=AXIS2_PLACEMENT_3D('',#807,#647,#648);
#553=AXIS2_PLACEMENT_3D('',#812,#651,#652);
#554=AXIS2_PLACEMENT_3D('',#813,#653,#654);
#555=AXIS2_PLACEMENT_3D('',#818,#657,#658);
#556=AXIS2_PLACEMENT_3D('',#819,#659,#660);
#557=AXIS2_PLACEMENT_3D('',#822,#661,#662);
#558=AXIS2_PLACEMENT_3D('',#825,#665,#666);
#559=AXIS2_PLACEMENT_3D('',#828,#667,#668);
#560=AXIS2_PLACEMENT_3D('',#831,#671,#672);
#561=AXIS2_PLACEMENT_3D('',#834,#673,#674);
#562=AXIS2_PLACEMENT_3D('',#837,#677,#678);
#563=AXIS2_PLACEMENT_3D('',#850,#679,#680);
#564=AXIS2_PLACEMENT_3D('',#861,#681,#682);
#565=AXIS2_PLACEMENT_3D('',#874,#683,#684);
#566=AXIS2_PLACEMENT_3D('',#885,#685,#686);
#567=AXIS2_PLACEMENT_3D('',#898,#687,#688);
#568=AXIS2_PLACEMENT_3D('',#909,#689,#690);
#569=AXIS2_PLACEMENT_3D('',#912,#692,#693);
#570=AXIS2_PLACEMENT_3D('',#913,#694,#695);
#571=AXIS2_PLACEMENT_3D('',#915,#697,#698);
#572=AXIS2_PLACEMENT_3D('',#919,#701,#702);
#573=AXIS2_PLACEMENT_3D('',#920,#703,#704);
#574=AXIS2_PLACEMENT_3D('',#921,#705,#706);
#575=AXIS2_PLACEMENT_3D('',#924,#708,#709);
#576=AXIS2_PLACEMENT_3D('',#925,#710,#711);
#577=AXIS2_PLACEMENT_3D('',#927,#713,#714);
#578=AXIS2_PLACEMENT_3D('',#931,#717,#718);
#579=AXIS2_PLACEMENT_3D('',#932,#719,#720);
#580=AXIS2_PLACEMENT_3D('',#933,#721,#722);
#581=AXIS2_PLACEMENT_3D('',#936,#724,#725);
#582=AXIS2_PLACEMENT_3D('',#937,#726,#727);
#583=AXIS2_PLACEMENT_3D('',#939,#729,#730);
#584=AXIS2_PLACEMENT_3D('',#943,#733,#734);
#585=AXIS2_PLACEMENT_3D('',#944,#735,#736);
#586=AXIS2_PLACEMENT_3D('',#945,#737,#738);
#587=DIRECTION('axis',(0.,0.,1.));
#588=DIRECTION('refdir',(1.,0.,0.));
#589=DIRECTION('center_axis',(-1.,-4.03588273904067E-12,4.94253087810021E-28));
#590=DIRECTION('ref_axis',(-4.03588273904067E-12,1.,-1.22464679914735E-16));
#591=DIRECTION('',(-4.03588273904067E-12,1.,-1.22464679914735E-16));
#592=DIRECTION('',(0.,-1.22464679914735E-16,-1.));
#593=DIRECTION('',(4.03588273904067E-12,-1.,1.22464679914735E-16));
#594=DIRECTION('',(0.,-1.22464679914735E-16,-1.));
#595=DIRECTION('center_axis',(-4.03588273904067E-12,1.,-1.22464679914735E-16));
#596=DIRECTION('ref_axis',(1.,4.03588273904067E-12,-4.94253087810021E-28));
#597=DIRECTION('',(1.,4.03588273904067E-12,-4.94253087810021E-28));
#598=DIRECTION('',(-1.,-4.03588273904067E-12,4.94253087810021E-28));
#599=DIRECTION('',(0.,-1.22464679914735E-16,-1.));
#600=DIRECTION('center_axis',(1.,4.03588273904067E-12,-4.94253087810021E-28));
#601=DIRECTION('ref_axis',(4.03588273904067E-12,-1.,1.22464679914735E-16));
#602=DIRECTION('',(4.03588273904067E-12,-1.,1.22464679914735E-16));
#603=DIRECTION('',(-4.03588273904067E-12,1.,-1.22464679914735E-16));
#604=DIRECTION('',(0.,-1.22464679914735E-16,-1.));
#605=DIRECTION('center_axis',(4.03588273904067E-12,-1.,1.22464679914735E-16));
#606=DIRECTION('ref_axis',(-1.,-4.03588273904067E-12,4.94253087810021E-28));
#607=DIRECTION('',(-1.,-4.03588273904067E-12,4.94253087810021E-28));
#608=DIRECTION('',(1.,4.03588273904067E-12,-4.94253087810021E-28));
#609=DIRECTION('center_axis',(0.,-1.22464679914735E-16,-1.));
#610=DIRECTION('ref_axis',(1.,0.,0.));
#611=DIRECTION('center_axis',(0.,-1.22464679914735E-16,-1.));
#612=DIRECTION('ref_axis',(-0.182729386189754,-0.983163247595594,1.20402772420726E-16));
#613=DIRECTION('center_axis',(0.,1.22464679914735E-16,1.));
#614=DIRECTION('ref_axis',(-0.877582561890093,0.479425538604716,-5.87126951281761E-17));
#615=DIRECTION('center_axis',(0.,-1.22464679914735E-16,-1.));
#616=DIRECTION('ref_axis',(4.58300064562989E-13,-1.,1.22464679914735E-16));
#617=DIRECTION('',(-1.,0.,0.));
#618=DIRECTION('center_axis',(0.,1.22464679914735E-16,1.));
#619=DIRECTION('ref_axis',(-1.,5.73615229389662E-15,-7.02476054614224E-31));
#620=DIRECTION('',(1.,0.,0.));
#621=DIRECTION('center_axis',(0.,-1.22464679914735E-16,-1.));
#622=DIRECTION('ref_axis',(0.942809041580112,0.333333333338852,-4.08215599722543E-17));
#623=DIRECTION('center_axis',(0.,1.22464679914735E-16,1.));
#624=DIRECTION('ref_axis',(0.182729386194919,-0.983163247594634,1.20402772420609E-16));
#625=DIRECTION('center_axis',(0.,-1.22464679914735E-16,-1.));
#626=DIRECTION('ref_axis',(0.866025403784197,0.500000000000419,-6.12323399574189E-17));
#627=DIRECTION('',(0.499999999993926,-0.866025403787945,1.0605752387292E-16));
#628=DIRECTION('center_axis',(0.,1.22464679914735E-16,1.));
#629=DIRECTION('ref_axis',(0.500000000008817,-0.866025403779348,1.06057523871867E-16));
#630=DIRECTION('',(-0.499999999994105,0.866025403787842,-1.06057523872907E-16));
#631=DIRECTION('center_axis',(0.,-1.22464679914735E-16,-1.));
#632=DIRECTION('ref_axis',(-0.760079655398428,0.649829914246341,-7.9581212447198E-17));
#633=DIRECTION('center_axis',(0.,1.22464679914735E-16,1.));
#634=DIRECTION('ref_axis',(0.87758256189015,-0.47942553860461,5.87126951281632E-17));
#635=DIRECTION('center_axis',(0.,-1.22464679914735E-16,-1.));
#636=DIRECTION('ref_axis',(-0.866025403794043,0.499999999983365,-6.12323399553305E-17));
#637=DIRECTION('',(0.499999999994101,0.866025403787844,-1.06057523872908E-16));
#638=DIRECTION('center_axis',(0.,1.22464679914735E-16,1.));
#639=DIRECTION('ref_axis',(0.500000000008904,0.866025403779298,-1.06057523871861E-16));
#640=DIRECTION('',(-0.499999999993926,-0.866025403787945,1.0605752387292E-16));
#641=DIRECTION('center_axis',(0.,-1.22464679914735E-16,-1.));
#642=DIRECTION('ref_axis',(1.,1.22464679914735E-16,-1.49975978266186E-32));
#643=DIRECTION('',(0.,-1.22464679914735E-16,-1.));
#644=DIRECTION('',(0.,1.22464679914735E-16,1.));
#645=DIRECTION('center_axis',(-1.64487632434333E-16,1.05349177088293E-16,
1.));
#646=DIRECTION('ref_axis',(0.760079655384119,0.649829914263078,5.65646562606663E-17));
#647=DIRECTION('center_axis',(0.,-1.22464679914735E-16,-1.));
#648=DIRECTION('ref_axis',(1.,0.,0.));
#649=DIRECTION('',(0.,-1.22464679914735E-16,-1.));
#650=DIRECTION('',(0.,1.22464679914735E-16,1.));
#651=DIRECTION('center_axis',(-5.12662049411736E-17,7.86290735543423E-17,
1.));
#652=DIRECTION('ref_axis',(0.182729386196251,-0.983163247594387,8.6673057472537E-17));
#653=DIRECTION('center_axis',(0.,-1.22464679914735E-16,-1.));
#654=DIRECTION('ref_axis',(1.,0.,0.));
#655=DIRECTION('',(0.,-1.22464679914735E-16,-1.));
#656=DIRECTION('',(0.,1.22464679914735E-16,1.));
#657=DIRECTION('center_axis',(-8.32485326718698E-15,3.83930139657169E-15,
1.));
#658=DIRECTION('ref_axis',(-0.942809041582357,0.333333333332502,-9.12851406233768E-15));
#659=DIRECTION('center_axis',(0.,1.22464679914735E-16,1.));
#660=DIRECTION('ref_axis',(-1.,6.45828832809326E-16,-7.90912212897013E-32));
#661=DIRECTION('center_axis',(-5.23364152894591E-16,6.45828832809326E-16,
1.));
#662=DIRECTION('ref_axis',(-1.,-1.29526019539602E-15,-5.2336415289459E-16));
#663=DIRECTION('',(0.,-1.22464679914735E-16,-1.));
#664=DIRECTION('',(0.,1.22464679914735E-16,1.));
#665=DIRECTION('center_axis',(0.,1.22464679914735E-16,1.));
#666=DIRECTION('ref_axis',(0.499999999999759,-0.866025403784577,1.06057523872508E-16));
#667=DIRECTION('center_axis',(5.48959118311147E-17,-2.54836845525912E-16,
1.));
#668=DIRECTION('ref_axis',(0.500000000007695,-0.866025403779996,-2.48143137960578E-16));
#669=DIRECTION('',(0.,-1.22464679914735E-16,-1.));
#670=DIRECTION('',(0.,1.22464679914735E-16,1.));
#671=DIRECTION('center_axis',(0.,1.22464679914735E-16,1.));
#672=DIRECTION('ref_axis',(0.499999999999759,0.866025403784578,-1.06057523872508E-16));
#673=DIRECTION('center_axis',(-3.26333254722951E-16,-1.20969603025652E-16,
1.));
#674=DIRECTION('ref_axis',(0.500000000007696,0.866025403779996,2.67929376669383E-16));
#675=DIRECTION('',(0.,-1.22464679914735E-16,-1.));
#676=DIRECTION('',(0.,1.22464679914735E-16,1.));
#677=DIRECTION('center_axis',(-1.17328481597091E-16,1.75649811234715E-16,
1.));
#678=DIRECTION('ref_axis',(1.,-2.03764058006897E-16,1.17328481597091E-16));
#679=DIRECTION('center_axis',(2.14481456946743E-16,-9.94071716909707E-17,
1.));
#680=DIRECTION('ref_axis',(0.877582561890149,-0.479425538604612,-2.35883523294359E-16));
#681=DIRECTION('center_axis',(5.65548051205309E-17,4.28403352263831E-18,
1.));
#682=DIRECTION('ref_axis',(-0.992797832139334,-0.119801771687398,5.66607227267058E-17));
#683=DIRECTION('center_axis',(1.9946923984733E-16,1.74308869705633E-17,
1.));
#684=DIRECTION('ref_axis',(-0.877582561890372,0.479425538604204,1.66693914149334E-16));
#685=DIRECTION('center_axis',(0.,1.22464679914735E-16,1.));
#686=DIRECTION('ref_axis',(-0.992797832139334,-0.119801771687399,1.46714856229155E-17));
#687=DIRECTION('center_axis',(1.65804029897942E-16,2.30449820385802E-16,
1.));
#688=DIRECTION('ref_axis',(0.379613904071236,-0.925145006923668,1.50257985576079E-16));
#689=DIRECTION('center_axis',(0.,1.22464679914735E-16,1.));
#690=DIRECTION('ref_axis',(-1.,0.,0.));
#691=DIRECTION('',(0.,1.22464679914735E-16,1.));
#692=DIRECTION('center_axis',(-3.22288094869628E-18,-1.1924179896604E-16,
-1.));
#693=DIRECTION('ref_axis',(0.83116151457954,-0.556031057299721,6.36234089427798E-17));
#694=DIRECTION('center_axis',(0.866025403784329,-0.50000000000019,6.12323399573909E-17));
#695=DIRECTION('ref_axis',(0.,1.22464679914735E-16,1.));
#696=DIRECTION('',(-0.50000000000019,-0.866025403784329,1.06057523872477E-16));
#697=DIRECTION('center_axis',(-0.866025403784328,0.500000000000192,-6.12323399573912E-17));
#698=DIRECTION('ref_axis',(0.,-1.22464679914735E-16,-1.));
#699=DIRECTION('',(0.500000000000192,0.866025403784328,-1.06057523872477E-16));
#700=DIRECTION('',(0.,1.22464679914735E-16,1.));
#701=DIRECTION('center_axis',(0.,-1.22464679914735E-16,-1.));
#702=DIRECTION('ref_axis',(-1.,4.44089209850063E-16,-5.43852429378757E-32));
#703=DIRECTION('center_axis',(0.,-1.22464679914735E-16,-1.));
#704=DIRECTION('ref_axis',(-0.866025403788325,0.499999999993269,-6.12323399565433E-17));
#705=DIRECTION('center_axis',(0.,-1.22464679914735E-16,-1.));
#706=DIRECTION('ref_axis',(-1.,4.44089209850062E-16,-5.43852429378756E-32));
#707=DIRECTION('',(0.,1.22464679914735E-16,1.));
#708=DIRECTION('center_axis',(0.,-1.22464679914735E-16,-1.));
#709=DIRECTION('ref_axis',(-0.897117778209069,-0.44179145761459,5.41038494458351E-17));
#710=DIRECTION('center_axis',(-0.866025403784328,-0.500000000000192,6.12323399573912E-17));
#711=DIRECTION('ref_axis',(0.,-1.22464679914735E-16,-1.));
#712=DIRECTION('',(-0.500000000000192,0.866025403784328,-1.06057523872477E-16));
#713=DIRECTION('center_axis',(0.866025403784329,0.50000000000019,-6.12323399573909E-17));
#714=DIRECTION('ref_axis',(0.,1.22464679914735E-16,1.));
#715=DIRECTION('',(0.50000000000019,-0.866025403784329,1.06057523872477E-16));
#716=DIRECTION('',(0.,1.22464679914735E-16,1.));
#717=DIRECTION('center_axis',(0.,1.22464679914735E-16,1.));
#718=DIRECTION('ref_axis',(-1.,0.,0.));
#719=DIRECTION('center_axis',(-3.2228809486941E-18,-1.2568756086343E-16,
-1.));
#720=DIRECTION('ref_axis',(0.866025403784329,0.50000000000019,-6.56348772066803E-17));
#721=DIRECTION('center_axis',(0.,-1.22464679914735E-16,-1.));
#722=DIRECTION('ref_axis',(1.,-6.66133814775094E-16,8.15778644068135E-32));
#723=DIRECTION('',(0.,1.22464679914735E-16,1.));
#724=DIRECTION('center_axis',(0.,-1.22464679914735E-16,-1.));
#725=DIRECTION('ref_axis',(0.0659562636200438,0.997822514924014,-1.22198014901886E-16));
#726=DIRECTION('center_axis',(-2.16747702924343E-16,1.,-1.22464679914735E-16));
#727=DIRECTION('ref_axis',(0.,1.22464679914735E-16,1.));
#728=DIRECTION('',(1.,2.60097243509212E-16,-3.18527256730606E-32));
#729=DIRECTION('center_axis',(2.16747702924343E-16,-1.,1.22464679914735E-16));
#730=DIRECTION('ref_axis',(0.,-1.22464679914735E-16,-1.));
#731=DIRECTION('',(-1.,-2.60097243509212E-16,3.18527256730606E-32));
#732=DIRECTION('',(0.,1.22464679914735E-16,1.));
#733=DIRECTION('center_axis',(0.,1.22464679914735E-16,1.));
#734=DIRECTION('ref_axis',(-1.,-6.66133814775094E-16,8.15778644068135E-32));
#735=DIRECTION('center_axis',(-3.22288094869493E-18,-1.1924179896604E-16,
-1.));
#736=DIRECTION('ref_axis',(1.77635683940124E-14,-1.,1.1924179896604E-16));
#737=DIRECTION('center_axis',(0.,1.22464679914735E-16,1.));
#738=DIRECTION('ref_axis',(-1.,0.,0.));
#739=CARTESIAN_POINT('',(0.,0.,0.));
#740=CARTESIAN_POINT('Origin',(-40.3893497828308,-90.5010884840892,10.));
#741=CARTESIAN_POINT('',(-40.3893497828308,-90.5010884840892,5.00000000000001));
#742=CARTESIAN_POINT('',(-40.3893497831325,-15.7506510589994,5.));
#743=CARTESIAN_POINT('',(-40.3893497831766,-4.81247616388444,5.));
#744=CARTESIAN_POINT('',(-40.3893497828308,-90.5010884840892,10.));
#745=CARTESIAN_POINT('',(-40.3893497828308,-90.5010884840892,10.));
#746=CARTESIAN_POINT('',(-40.3893497831325,-15.7506510589994,10.));
#747=CARTESIAN_POINT('',(-40.3893497829038,-72.4163052358926,10.));
#748=CARTESIAN_POINT('',(-40.3893497831325,-15.7506510589994,10.));
#749=CARTESIAN_POINT('Origin',(-40.3893497831325,-15.7506510589994,10.));
#750=CARTESIAN_POINT('',(39.9874657053785,-15.750651058675,5.));
#751=CARTESIAN_POINT('',(-8.98353603292127,-15.7506510588727,5.));
#752=CARTESIAN_POINT('',(39.9874657053785,-15.750651058675,10.));
#753=CARTESIAN_POINT('',(-67.5301694030541,-15.750651059109,10.));
#754=CARTESIAN_POINT('',(39.9874657053785,-15.750651058675,10.));
#755=CARTESIAN_POINT('Origin',(39.9874657053785,-15.750651058675,10.));
#756=CARTESIAN_POINT('',(39.9874657056802,-90.5010884837648,5.00000000000001));
#757=CARTESIAN_POINT('',(39.9874657051836,32.5627425489848,4.99999999999999));
#758=CARTESIAN_POINT('',(39.9874657056802,-90.5010884837648,10.));
#759=CARTESIAN_POINT('',(39.9874657054564,-35.0410865230233,10.));
#760=CARTESIAN_POINT('',(39.9874657056802,-90.5010884837648,10.));
#761=CARTESIAN_POINT('Origin',(39.9874657056802,-90.5010884837648,10.));
#762=CARTESIAN_POINT('',(31.2048717116359,-90.5010884838002,5.00000000000001));
#763=CARTESIAN_POINT('',(-27.3417616584969,-90.5010884840365,10.));
#764=CARTESIAN_POINT('Origin',(22.4222777169,80.876136156574,4.99999999999999));
#765=CARTESIAN_POINT('',(8.71563228763081,-33.2356040456155,5.));
#766=CARTESIAN_POINT('',(3.47185833773187,-35.6514202836049,5.));
#767=CARTESIAN_POINT('Origin',(4.38550526868572,-30.7356040455996,5.));
#768=CARTESIAN_POINT('',(-17.9133717900783,-47.9981886545927,5.));
#769=CARTESIAN_POINT('Origin',(2.37793118529339E-11,-54.3315219879312,5.));
#770=CARTESIAN_POINT('',(-22.627416998,-51.331521987915,5.));
#771=CARTESIAN_POINT('Origin',(-22.6274169980023,-46.3315219878902,5.));
#772=CARTESIAN_POINT('',(-24.7616630393,-51.331521987915,5.));
#773=CARTESIAN_POINT('',(-22.627416998,-51.331521987915,5.));
#774=CARTESIAN_POINT('',(-24.7616630393,-57.331521987915,5.));
#775=CARTESIAN_POINT('Origin',(-24.7616630393,-54.331521987915,5.));
#776=CARTESIAN_POINT('',(-22.627416998,-57.331521987915,5.));
#777=CARTESIAN_POINT('',(-24.7616630393,-57.331521987915,5.));
#778=CARTESIAN_POINT('',(-17.9133717900783,-60.6648553212374,5.));
#779=CARTESIAN_POINT('Origin',(-22.6274169980023,-62.3315219879399,5.00000000000001));
#780=CARTESIAN_POINT('',(3.47185833773187,-73.0116236922251,5.00000000000001));
#781=CARTESIAN_POINT('Origin',(2.03659311637239E-11,-54.3315219878839,5.));
#782=CARTESIAN_POINT('',(8.71563228763081,-75.4274399302145,5.00000000000001));
#783=CARTESIAN_POINT('Origin',(4.38550526868561,-77.9274399302306,5.00000000000001));
#784=CARTESIAN_POINT('',(9.78275530827373,-77.2757512199244,5.00000000000001));
#785=CARTESIAN_POINT('',(8.71563228763081,-75.4274399302145,5.00000000000001));
#786=CARTESIAN_POINT('',(14.9789077309825,-74.2757512199251,5.00000000000001));
#787=CARTESIAN_POINT('Origin',(12.3808315196079,-75.7757512199365,5.00000000000001));
#788=CARTESIAN_POINT('',(13.9117847103292,-72.4274399301982,5.00000000000001));
#789=CARTESIAN_POINT('',(14.9789077309825,-74.2757512199251,5.00000000000001));
#790=CARTESIAN_POINT('',(14.4415134523182,-66.6782903589306,5.00000000000001));
#791=CARTESIAN_POINT('Origin',(18.2419117293891,-69.9274399302296,5.00000000000001));
#792=CARTESIAN_POINT('',(14.4415134523183,-41.9847536168994,5.));
#793=CARTESIAN_POINT('Origin',(-1.08103082041566E-9,-54.3315219873239,5.));
#794=CARTESIAN_POINT('',(13.9117847103292,-36.2356040456318,5.));
#795=CARTESIAN_POINT('Origin',(18.241911729389,-38.7356040456004,5.));
#796=CARTESIAN_POINT('',(14.9789077309825,-34.3872927559049,5.));
#797=CARTESIAN_POINT('',(13.9117847103292,-36.2356040456318,5.));
#798=CARTESIAN_POINT('',(9.78275530827373,-31.3872927559056,5.));
#799=CARTESIAN_POINT('Origin',(12.3808315195842,-32.887292755934,5.));
#800=CARTESIAN_POINT('',(9.78275530827373,-31.3872927559056,5.));
#801=CARTESIAN_POINT('Origin',(2.22044604925031E-15,-54.331521987915,5.75));
#802=CARTESIAN_POINT('',(14.4415134522982,-41.9847536169165,6.5));
#803=CARTESIAN_POINT('',(14.4415134522982,-41.9847536169165,6.5));
#804=CARTESIAN_POINT('',(14.4415134522983,-66.6782903589135,6.50000000000001));
#805=CARTESIAN_POINT('',(14.4415134522983,-66.6782903589135,5.00000000000001));
#806=CARTESIAN_POINT('Origin',(-6.66133814775094E-15,-54.331521987915,6.5));
#807=CARTESIAN_POINT('Origin',(-2.22044604925031E-15,-54.331521987915,5.75));
#808=CARTESIAN_POINT('',(3.47185833772877,-73.0116236922083,6.50000000000001));
#809=CARTESIAN_POINT('',(3.47185833772877,-73.0116236922083,6.50000000000001));
#810=CARTESIAN_POINT('',(-17.9133717900648,-60.6648553212326,6.5));
#811=CARTESIAN_POINT('',(-17.9133717900648,-60.6648553212326,5.));
#812=CARTESIAN_POINT('Origin',(-4.44089209850063E-15,-54.331521987915,6.5));
#813=CARTESIAN_POINT('Origin',(-2.22044604925031E-15,-54.331521987915,5.75));
#814=CARTESIAN_POINT('',(-17.9133717900648,-47.9981886545975,6.5));
#815=CARTESIAN_POINT('',(-17.9133717900648,-47.9981886545975,6.5));
#816=CARTESIAN_POINT('',(3.47185833772876,-35.6514202836217,6.5));
#817=CARTESIAN_POINT('',(3.47185833772876,-35.6514202836217,5.));
#818=CARTESIAN_POINT('Origin',(-4.06341627012807E-13,-54.3315219879149,
6.50000000000017));
#819=CARTESIAN_POINT('Origin',(-24.7616630393,-54.331521987915,7.5));
#820=CARTESIAN_POINT('',(-24.7616630393,-51.331521987915,10.));
#821=CARTESIAN_POINT('',(-24.7616630393,-57.331521987915,10.));
#822=CARTESIAN_POINT('Origin',(-24.7616630393,-54.331521987915,10.));
#823=CARTESIAN_POINT('',(-24.7616630393,-57.331521987915,10.));
#824=CARTESIAN_POINT('',(-24.7616630393,-51.331521987915,5.));
#825=CARTESIAN_POINT('Origin',(12.3808315196,-75.775751219915,7.50000000000001));
#826=CARTESIAN_POINT('',(9.78275530825751,-77.2757512199338,10.));
#827=CARTESIAN_POINT('',(14.978907730965,-74.2757512199352,10.));
#828=CARTESIAN_POINT('Origin',(12.3808315196,-75.775751219915,10.));
#829=CARTESIAN_POINT('',(14.978907730965,-74.2757512199352,10.));
#830=CARTESIAN_POINT('',(9.78275530825751,-77.2757512199338,5.00000000000001));
#831=CARTESIAN_POINT('Origin',(12.3808315196,-32.887292755915,7.5));
#832=CARTESIAN_POINT('',(14.978907730965,-34.3872927558948,10.));
#833=CARTESIAN_POINT('',(9.78275530825751,-31.3872927558962,10.));
#834=CARTESIAN_POINT('Origin',(12.3808315196,-32.887292755915,10.));
#835=CARTESIAN_POINT('',(9.78275530825751,-31.3872927558962,10.));
#836=CARTESIAN_POINT('',(14.978907730965,-34.3872927558948,5.));
#837=CARTESIAN_POINT('Origin',(4.44089209850063E-15,-54.331521987915,6.57));
#838=CARTESIAN_POINT('',(13.7563228382051,-72.1363972183216,10.0000000000039));
#839=CARTESIAN_POINT('Ctrl Pts',(14.4415134523708,-66.6782903589097,6.5000000000697));
#840=CARTESIAN_POINT('Ctrl Pts',(14.0967148841903,-67.0815872388071,6.50000000007642));
#841=CARTESIAN_POINT('Ctrl Pts',(13.8089724588145,-67.5565399410163,6.61434821902648));
#842=CARTESIAN_POINT('Ctrl Pts',(13.4150530389537,-68.5226092981186,7.02229749607662));
#843=CARTESIAN_POINT('Ctrl Pts',(13.3065838748576,-69.0141404861025,7.31269393590116));
#844=CARTESIAN_POINT('Ctrl Pts',(13.2018284783095,-70.1057978666592,8.06418518270755));
#845=CARTESIAN_POINT('Ctrl Pts',(13.2722929187749,-70.7640774401861,8.62176645378188));
#846=CARTESIAN_POINT('Ctrl Pts',(13.5345139086487,-71.6359412711173,9.46850890289966));
#847=CARTESIAN_POINT('Ctrl Pts',(13.6368094340609,-71.8937089594084,9.73488448263763));
#848=CARTESIAN_POINT('Ctrl Pts',(13.7563228382557,-72.1363972182901,10.00000000001));
#849=CARTESIAN_POINT('',(13.7563228382048,-36.5266467575088,10.0000000000034));
#850=CARTESIAN_POINT('Origin',(1.15463194561016E-13,-54.331521987915,10.000000000004));
#851=CARTESIAN_POINT('Ctrl Pts',(13.7563228382555,-36.5266467575404,10.0000000000095));
#852=CARTESIAN_POINT('Ctrl Pts',(13.6368094340608,-36.769335016422,9.73488448263729));
#853=CARTESIAN_POINT('Ctrl Pts',(13.5345139086486,-37.027102704713,9.46850890289949));
#854=CARTESIAN_POINT('Ctrl Pts',(13.2722929187749,-37.898966535644,8.62176645378187));
#855=CARTESIAN_POINT('Ctrl Pts',(13.2018284783095,-38.5572461091709,8.06418518270755));
#856=CARTESIAN_POINT('Ctrl Pts',(13.3065838748576,-39.6489034897276,7.31269393590116));
#857=CARTESIAN_POINT('Ctrl Pts',(13.4150530389537,-40.1404346777115,7.02229749607663));
#858=CARTESIAN_POINT('Ctrl Pts',(13.8089724588145,-41.1065040348138,6.61434821902648));
#859=CARTESIAN_POINT('Ctrl Pts',(14.0967148841862,-41.5814567370264,6.5000000000697));
#860=CARTESIAN_POINT('Ctrl Pts',(14.4415134523708,-41.9847536169204,6.5000000000697));
#861=CARTESIAN_POINT('Origin',(-2.77555756156289E-15,-54.331521987915,-10.025));
#862=CARTESIAN_POINT('',(8.54131284160081,-33.5157593321374,10.0000000000148));
#863=CARTESIAN_POINT('Ctrl Pts',(3.47185833773005,-35.6514202835872,6.50000000005118));
#864=CARTESIAN_POINT('Ctrl Pts',(3.99352296507762,-35.7483761628759,6.50000000005185));
#865=CARTESIAN_POINT('Ctrl Pts',(4.54871528347548,-35.7600920618885,6.61434821900795));
#866=CARTESIAN_POINT('Ctrl Pts',(5.58231559847401,-35.6182016079806,7.02229749605806));
#867=CARTESIAN_POINT('Ctrl Pts',(6.0622286760684,-35.466373065623,7.31269393588257));
#868=CARTESIAN_POINT('Ctrl Pts',(7.06000939813309,-35.0112652099388,8.06418518268889));
#869=CARTESIAN_POINT('Ctrl Pts',(7.59486401136699,-34.6211014276688,8.62176645376317));
#870=CARTESIAN_POINT('Ctrl Pts',(8.21880974266306,-33.9580794735607,9.46850890288889));
#871=CARTESIAN_POINT('Ctrl Pts',(8.39089534629645,-33.7406051057076,9.73488448263522));
#872=CARTESIAN_POINT('Ctrl Pts',(8.54131284159413,-33.5157593321339,10.0000000000156));
#873=CARTESIAN_POINT('',(-22.2976356798424,-51.3206345625428,10.0000000000034));
#874=CARTESIAN_POINT('Origin',(7.7715611723761E-15,-54.331521987915,10.0000000000148));
#875=CARTESIAN_POINT('Ctrl Pts',(-22.297635679842,-51.3206345625313,10.0000000000046));
#876=CARTESIAN_POINT('Ctrl Pts',(-22.0277047803466,-51.3027920772164,9.73488448262602));
#877=CARTESIAN_POINT('Ctrl Pts',(-21.7533236512991,-51.2624987567707,9.46850890288161));
#878=CARTESIAN_POINT('Ctrl Pts',(-20.8671569301287,-51.0536568799394,8.62176645375772));
#879=CARTESIAN_POINT('Ctrl Pts',(-20.2618378764296,-50.7855410886821,8.06418518268346));
#880=CARTESIAN_POINT('Ctrl Pts',(-19.3688125509133,-50.1489915638092,7.31269393587716));
#881=CARTESIAN_POINT('Ctrl Pts',(-18.9973686374151,-49.8092889181826,7.02229749605266));
#882=CARTESIAN_POINT('Ctrl Pts',(-18.3576877422777,-48.9851100149879,6.61434821900255));
#883=CARTESIAN_POINT('Ctrl Pts',(-18.0902378492517,-48.4984414137631,6.50000000004579));
#884=CARTESIAN_POINT('Ctrl Pts',(-17.913371790089,-47.9981886545797,6.50000000004579));
#885=CARTESIAN_POINT('Origin',(-2.77555756156289E-16,-54.331521987915,-10.025));
#886=CARTESIAN_POINT('',(-22.2976356798593,-57.3424094132895,10.0000000000204));
#887=CARTESIAN_POINT('Ctrl Pts',(-17.913371790089,-60.6648553212504,6.50000000004579));
#888=CARTESIAN_POINT('Ctrl Pts',(-18.0902378492525,-60.1646025620673,6.50000000004695));
#889=CARTESIAN_POINT('Ctrl Pts',(-18.3576877422777,-59.6779339608422,6.61434821900255));
#890=CARTESIAN_POINT('Ctrl Pts',(-18.9973686374151,-58.8537550576474,7.02229749605266));
#891=CARTESIAN_POINT('Ctrl Pts',(-19.3688125509133,-58.5140524120209,7.31269393587715));
#892=CARTESIAN_POINT('Ctrl Pts',(-20.2618378764296,-57.877502887148,8.06418518268346));
#893=CARTESIAN_POINT('Ctrl Pts',(-20.8671569301287,-57.6093870958907,8.62176645375772));
#894=CARTESIAN_POINT('Ctrl Pts',(-21.7533236513049,-57.400545219058,9.46850890288708));
#895=CARTESIAN_POINT('Ctrl Pts',(-22.0277047803581,-57.360251898612,9.7348844826372));
#896=CARTESIAN_POINT('Ctrl Pts',(-22.297635679859,-57.3424094132977,10.0000000000213));
#897=CARTESIAN_POINT('',(8.54131284160292,-75.1472846436978,10.0000000000204));
#898=CARTESIAN_POINT('Origin',(1.77635683940025E-14,-54.331521987915,10.0000000000204));
#899=CARTESIAN_POINT('Ctrl Pts',(8.54131284159726,-75.1472846437008,10.0000000000211));
#900=CARTESIAN_POINT('Ctrl Pts',(8.39089534629884,-74.9224388701255,9.7348844826389));
#901=CARTESIAN_POINT('Ctrl Pts',(8.21880974266439,-74.7049645022708,9.46850890289069));
#902=CARTESIAN_POINT('Ctrl Pts',(7.59486401136699,-74.0419425481612,8.62176645376317));
#903=CARTESIAN_POINT('Ctrl Pts',(7.06000939813309,-73.6517787658913,8.0641851826889));
#904=CARTESIAN_POINT('Ctrl Pts',(6.0622286760684,-73.196670910207,7.31269393588258));
#905=CARTESIAN_POINT('Ctrl Pts',(5.58231559847402,-73.0448423678495,7.02229749605807));
#906=CARTESIAN_POINT('Ctrl Pts',(4.54871528347549,-72.9029519139416,6.61434821900795));
#907=CARTESIAN_POINT('Ctrl Pts',(3.99352296507753,-72.9146678129536,6.50000000005118));
#908=CARTESIAN_POINT('Ctrl Pts',(3.47185833773005,-73.0116236922429,6.50000000005118));
#909=CARTESIAN_POINT('Origin',(4.38550526871,-30.735604045615,10.5));
#910=CARTESIAN_POINT('',(8.71563228763165,-33.2356040456159,10.));
#911=CARTESIAN_POINT('',(8.71563228763165,-33.2356040456159,5.));
#912=CARTESIAN_POINT('Origin',(4.38550526871165,-30.7356040456159,10.));
#913=CARTESIAN_POINT('Origin',(9.24919379796013,-32.3114484007651,4.5));
#914=CARTESIAN_POINT('',(9.78275530828828,-31.387292755914,10.));
#915=CARTESIAN_POINT('Origin',(13.8050724082653,-36.4204351746054,7.5));
#916=CARTESIAN_POINT('',(13.911784710332,-36.2356040456335,10.));
#917=CARTESIAN_POINT('',(13.911784710332,-36.2356040456335,10.));
#918=CARTESIAN_POINT('',(13.911784710332,-36.2356040456335,5.));
#919=CARTESIAN_POINT('Origin',(18.2419117293,-38.735604045615,4.5));
#920=CARTESIAN_POINT('Origin',(18.2419117292981,-38.735604045614,10.));
#921=CARTESIAN_POINT('Origin',(18.2419117293,-69.927439930215,4.50000000000001));
#922=CARTESIAN_POINT('',(13.9117847103584,-72.4274399301814,10.));
#923=CARTESIAN_POINT('',(13.9117847103584,-72.4274399301814,5.00000000000001));
#924=CARTESIAN_POINT('Origin',(18.2419117292997,-69.9274399302153,10.));
#925=CARTESIAN_POINT('Origin',(14.4453462206651,-73.3515955750563,4.50000000000001));
#926=CARTESIAN_POINT('',(14.9789077309983,-74.275751219916,10.));
#927=CARTESIAN_POINT('Origin',(8.60891998556635,-75.2426088012436,7.50000000000001));
#928=CARTESIAN_POINT('',(8.71563228763198,-75.4274399302139,10.));
#929=CARTESIAN_POINT('',(8.71563228763198,-75.4274399302139,10.));
#930=CARTESIAN_POINT('',(8.71563228763198,-75.4274399302139,5.00000000000001));
#931=CARTESIAN_POINT('Origin',(4.38550526871,-77.927439930215,10.5));
#932=CARTESIAN_POINT('Origin',(4.3855052687082,-77.927439930216,10.));
#933=CARTESIAN_POINT('Origin',(-22.627416998,-62.331521987915,4.50000000000001));
#934=CARTESIAN_POINT('',(-22.627416998,-57.331521987915,10.));
#935=CARTESIAN_POINT('',(-22.627416998,-57.331521987915,5.));
#936=CARTESIAN_POINT('Origin',(-22.6274169980001,-62.3315219879133,10.));
#937=CARTESIAN_POINT('Origin',(-23.69454001865,-57.331521987915,4.5));
#938=CARTESIAN_POINT('',(-24.7616630393,-57.331521987915,10.));
#939=CARTESIAN_POINT('Origin',(-22.41399239387,-51.331521987915,7.5));
#940=CARTESIAN_POINT('',(-22.627416998,-51.331521987915,10.));
#941=CARTESIAN_POINT('',(-22.627416998,-51.331521987915,10.));
#942=CARTESIAN_POINT('',(-22.627416998,-51.331521987915,5.));
#943=CARTESIAN_POINT('Origin',(-22.627416998,-46.331521987915,10.5));
#944=CARTESIAN_POINT('Origin',(-22.6274169980001,-46.3315219879178,10.));
#945=CARTESIAN_POINT('Origin',(-94.67098902282,-54.331521987915,10.));
#946=UNCERTAINTY_MEASURE_WITH_UNIT(LENGTH_MEASURE(0.01),#950,
'DISTANCE_ACCURACY_VALUE',
'Maximum model space distance between geometric entities at asserted c
onnectivities');
#947=UNCERTAINTY_MEASURE_WITH_UNIT(LENGTH_MEASURE(0.01),#950,
'DISTANCE_ACCURACY_VALUE',
'Maximum model space distance between geometric entities at asserted c
onnectivities');
#948=(
GEOMETRIC_REPRESENTATION_CONTEXT(3)
GLOBAL_UNCERTAINTY_ASSIGNED_CONTEXT((#946))
GLOBAL_UNIT_ASSIGNED_CONTEXT((#950,#952,#953))
REPRESENTATION_CONTEXT('','3D')
);
#949=(
GEOMETRIC_REPRESENTATION_CONTEXT(3)
GLOBAL_UNCERTAINTY_ASSIGNED_CONTEXT((#947))
GLOBAL_UNIT_ASSIGNED_CONTEXT((#950,#952,#953))
REPRESENTATION_CONTEXT('','3D')
);
#950=(
LENGTH_UNIT()
NAMED_UNIT(*)
SI_UNIT(.MILLI.,.METRE.)
);
#951=(
LENGTH_UNIT()
NAMED_UNIT(*)
SI_UNIT($,.METRE.)
);
#952=(
NAMED_UNIT(*)
PLANE_ANGLE_UNIT()
SI_UNIT($,.RADIAN.)
);
#953=(
NAMED_UNIT(*)
SI_UNIT($,.STERADIAN.)
SOLID_ANGLE_UNIT()
);
#954=SHAPE_DEFINITION_REPRESENTATION(#955,#956);
#955=PRODUCT_DEFINITION_SHAPE('',$,#958);
#956=SHAPE_REPRESENTATION('',(#532),#948);
#957=PRODUCT_DEFINITION_CONTEXT('part definition',#962,'design');
#958=PRODUCT_DEFINITION('MODEL-10','MODEL-10 v1',#959,#957);
#959=PRODUCT_DEFINITION_FORMATION('',$,#964);
#960=PRODUCT_RELATED_PRODUCT_CATEGORY('MODEL-10 v1','MODEL-10 v1',(#964));
#961=APPLICATION_PROTOCOL_DEFINITION('international standard',
'automotive_design',2009,#962);
#962=APPLICATION_CONTEXT(
'Core Data for Automotive Mechanical Design Process');
#963=PRODUCT_CONTEXT('part definition',#962,'mechanical');
#964=PRODUCT('MODEL-10','MODEL-10 v1',$,(#963));
#965=PRESENTATION_STYLE_ASSIGNMENT((#967));
#966=PRESENTATION_STYLE_ASSIGNMENT((#968));
#967=SURFACE_STYLE_USAGE(.BOTH.,#969);
#968=SURFACE_STYLE_USAGE(.BOTH.,#970);
#969=SURFACE_SIDE_STYLE('',(#971));
#970=SURFACE_SIDE_STYLE('',(#972));
#971=SURFACE_STYLE_FILL_AREA(#973);
#972=SURFACE_STYLE_FILL_AREA(#974);
#973=FILL_AREA_STYLE('Steel - Satin',(#975));
#974=FILL_AREA_STYLE('Aluminum - Bead Blasted',(#976));
#975=FILL_AREA_STYLE_COLOUR('Steel - Satin',#977);
#976=FILL_AREA_STYLE_COLOUR('Aluminum - Bead Blasted',#978);
#977=COLOUR_RGB('Steel - Satin',0.627450980392157,0.627450980392157,0.627450980392157);
#978=COLOUR_RGB('Aluminum - Bead Blasted',0.96078431372549,0.96078431372549,
0.964705882352941);
ENDSEC;
END-ISO-10303-21;
