ISO-10303-21;
HEADER;
/* Generated by software containing ST-Developer
 * from STEP Tools, Inc. (www.steptools.com) 
 */

FILE_DESCRIPTION(
/* description */ (''),
/* implementation_level */ '2;1');

FILE_NAME(
/* name */ 
'/Users/joakimjohansson/Desktop/Sample parts/CAD guides.step',
/* time_stamp */ '2019-05-10T11:12:31+02:00',
/* author */ ('joakim.j.b.johansson@gmail.com'),
/* organization */ (''),
/* preprocessor_version */ 'ST-DEVELOPER v18',
/* originating_system */ 'Autodesk Translation Framework v8.2.0.1029',
/* authorisation */ '');

FILE_SCHEMA (('AUTOMOTIVE_DESIGN { 1 0 10303 214 3 1 1 }'));
ENDSEC;

DATA;
#10=MECHANICAL_DESIGN_GEOMETRIC_PRESENTATION_REPRESENTATION('',(#13),#497);
#11=SHAPE_REPRESENTATION_RELATIONSHIP('SRR','None',#504,#12);
#12=ADVANCED_BREP_SHAPE_REPRESENTATION('',(#14),#496);
#13=STYLED_ITEM('',(#514),#14);
#14=MANIFOLD_SOLID_BREP('Body1',#272);
#15=FACE_BOUND('',#51,.T.);
#16=PLANE('',#298);
#17=PLANE('',#299);
#18=PLANE('',#300);
#19=PLANE('',#301);
#20=PLANE('',#302);
#21=PLANE('',#303);
#22=PLANE('',#306);
#23=PLANE('',#308);
#24=PLANE('',#310);
#25=CIRCLE('',#293,10.1988805392854);
#26=CIRCLE('',#294,10.1988805392854);
#27=CIRCLE('',#295,10.1988805392854);
#28=CIRCLE('',#297,10.1988805392854);
#29=CIRCLE('',#304,93.5264138963131);
#30=CIRCLE('',#305,93.5264138963131);
#31=FACE_OUTER_BOUND('',#43,.T.);
#32=FACE_OUTER_BOUND('',#44,.T.);
#33=FACE_OUTER_BOUND('',#45,.T.);
#34=FACE_OUTER_BOUND('',#46,.T.);
#35=FACE_OUTER_BOUND('',#47,.T.);
#36=FACE_OUTER_BOUND('',#48,.T.);
#37=FACE_OUTER_BOUND('',#49,.T.);
#38=FACE_OUTER_BOUND('',#50,.T.);
#39=FACE_OUTER_BOUND('',#52,.T.);
#40=FACE_OUTER_BOUND('',#53,.T.);
#41=FACE_OUTER_BOUND('',#54,.T.);
#42=FACE_OUTER_BOUND('',#55,.T.);
#43=EDGE_LOOP('',(#179,#180,#181,#182,#183,#184,#185,#186));
#44=EDGE_LOOP('',(#187,#188,#189,#190,#191,#192,#193,#194));
#45=EDGE_LOOP('',(#195,#196,#197,#198));
#46=EDGE_LOOP('',(#199,#200,#201,#202));
#47=EDGE_LOOP('',(#203,#204,#205,#206));
#48=EDGE_LOOP('',(#207,#208,#209,#210,#211,#212,#213,#214));
#49=EDGE_LOOP('',(#215,#216,#217,#218,#219,#220,#221,#222,#223,#224));
#50=EDGE_LOOP('',(#225,#226,#227,#228,#229,#230,#231,#232,#233,#234));
#51=EDGE_LOOP('',(#235,#236));
#52=EDGE_LOOP('',(#237,#238,#239,#240,#241,#242,#243,#244));
#53=EDGE_LOOP('',(#245,#246,#247,#248));
#54=EDGE_LOOP('',(#249,#250,#251,#252));
#55=EDGE_LOOP('',(#253,#254,#255,#256));
#56=LINE('',#424,#81);
#57=LINE('',#437,#82);
#58=LINE('',#441,#83);
#59=LINE('',#448,#84);
#60=LINE('',#450,#85);
#61=LINE('',#452,#86);
#62=LINE('',#453,#87);
#63=LINE('',#456,#88);
#64=LINE('',#458,#89);
#65=LINE('',#459,#90);
#66=LINE('',#463,#91);
#67=LINE('',#465,#92);
#68=LINE('',#467,#93);
#69=LINE('',#468,#94);
#70=LINE('',#470,#95);
#71=LINE('',#472,#96);
#72=LINE('',#473,#97);
#73=LINE('',#474,#98);
#74=LINE('',#476,#99);
#75=LINE('',#478,#100);
#76=LINE('',#479,#101);
#77=LINE('',#483,#102);
#78=LINE('',#485,#103);
#79=LINE('',#488,#104);
#80=LINE('',#490,#105);
#81=VECTOR('',#317,12.7084539893758);
#82=VECTOR('',#332,10.1988805392854);
#83=VECTOR('',#335,1000.);
#84=VECTOR('',#342,1000.);
#85=VECTOR('',#343,1000.);
#86=VECTOR('',#344,1000.);
#87=VECTOR('',#345,1000.);
#88=VECTOR('',#348,1000.);
#89=VECTOR('',#349,1000.);
#90=VECTOR('',#350,1000.);
#91=VECTOR('',#353,1000.);
#92=VECTOR('',#354,1000.);
#93=VECTOR('',#355,1000.);
#94=VECTOR('',#356,1000.);
#95=VECTOR('',#359,1000.);
#96=VECTOR('',#360,1000.);
#97=VECTOR('',#361,1000.);
#98=VECTOR('',#362,1000.);
#99=VECTOR('',#365,1000.);
#100=VECTOR('',#366,1000.);
#101=VECTOR('',#367,1000.);
#102=VECTOR('',#372,1000.);
#103=VECTOR('',#373,1000.);
#104=VECTOR('',#378,1000.);
#105=VECTOR('',#381,1000.);
#106=ELLIPSE('',#287,15.545440303164,12.7084539893736);
#107=ELLIPSE('',#288,22.0886628308149,12.7084539893761);
#108=ELLIPSE('',#289,15.5454403031694,12.7084539893771);
#109=ELLIPSE('',#290,22.0886628308149,12.7084539893761);
#110=ELLIPSE('',#291,15.545440303164,12.7084539893736);
#111=ELLIPSE('',#296,22.8053901802408,10.198880539285);
#112=ELLIPSE('',#307,209.131419163943,93.5264138963144);
#113=B_SPLINE_CURVE_WITH_KNOTS('',3,(#392,#393,#394,#395,#396,#397,#398,
#399,#400,#401,#402,#403,#404,#405,#406,#407,#408,#409,#410,#411,#412,#413,
#414,#415,#416,#417,#418,#419,#420),.UNSPECIFIED.,.F.,.F.,(4,2,2,2,2,2,
2,2,2,2,2,2,3,4),(-5.86518981590356,-5.51540763346693,-4.63407020647161,
-3.75273277947628,-3.4919217774104,-3.23111077534451,-3.04100996334413,
-2.85090915134374,-2.59847788369898,-2.34604661605422,-1.8411840807647,
-0.92059204038235,0.,0.104993566672675),.UNSPECIFIED.);
#114=VERTEX_POINT('',#390);
#115=VERTEX_POINT('',#391);
#116=VERTEX_POINT('',#421);
#117=VERTEX_POINT('',#423);
#118=VERTEX_POINT('',#425);
#119=VERTEX_POINT('',#427);
#120=VERTEX_POINT('',#432);
#121=VERTEX_POINT('',#433);
#122=VERTEX_POINT('',#436);
#123=VERTEX_POINT('',#438);
#124=VERTEX_POINT('',#440);
#125=VERTEX_POINT('',#442);
#126=VERTEX_POINT('',#446);
#127=VERTEX_POINT('',#447);
#128=VERTEX_POINT('',#449);
#129=VERTEX_POINT('',#451);
#130=VERTEX_POINT('',#455);
#131=VERTEX_POINT('',#457);
#132=VERTEX_POINT('',#461);
#133=VERTEX_POINT('',#462);
#134=VERTEX_POINT('',#464);
#135=VERTEX_POINT('',#466);
#136=VERTEX_POINT('',#471);
#137=VERTEX_POINT('',#477);
#138=VERTEX_POINT('',#481);
#139=VERTEX_POINT('',#484);
#140=EDGE_CURVE('',#114,#115,#113,.T.);
#141=EDGE_CURVE('',#114,#116,#106,.T.);
#142=EDGE_CURVE('',#116,#117,#56,.T.);
#143=EDGE_CURVE('',#118,#117,#107,.T.);
#144=EDGE_CURVE('',#119,#118,#108,.T.);
#145=EDGE_CURVE('',#117,#119,#109,.T.);
#146=EDGE_CURVE('',#116,#115,#110,.T.);
#147=EDGE_CURVE('',#120,#121,#25,.T.);
#148=EDGE_CURVE('',#121,#120,#26,.T.);
#149=EDGE_CURVE('',#121,#122,#57,.T.);
#150=EDGE_CURVE('',#122,#123,#27,.T.);
#151=EDGE_CURVE('',#123,#124,#58,.T.);
#152=EDGE_CURVE('',#125,#124,#111,.T.);
#153=EDGE_CURVE('',#125,#122,#28,.T.);
#154=EDGE_CURVE('',#126,#127,#59,.T.);
#155=EDGE_CURVE('',#128,#126,#60,.T.);
#156=EDGE_CURVE('',#128,#129,#61,.T.);
#157=EDGE_CURVE('',#129,#127,#62,.T.);
#158=EDGE_CURVE('',#130,#129,#63,.T.);
#159=EDGE_CURVE('',#131,#128,#64,.T.);
#160=EDGE_CURVE('',#131,#130,#65,.T.);
#161=EDGE_CURVE('',#132,#133,#66,.T.);
#162=EDGE_CURVE('',#134,#132,#67,.T.);
#163=EDGE_CURVE('',#135,#134,#68,.T.);
#164=EDGE_CURVE('',#135,#133,#69,.T.);
#165=EDGE_CURVE('',#118,#131,#70,.T.);
#166=EDGE_CURVE('',#136,#119,#71,.T.);
#167=EDGE_CURVE('',#132,#136,#72,.T.);
#168=EDGE_CURVE('',#133,#130,#73,.T.);
#169=EDGE_CURVE('',#123,#126,#74,.T.);
#170=EDGE_CURVE('',#125,#137,#75,.T.);
#171=EDGE_CURVE('',#137,#136,#76,.T.);
#172=EDGE_CURVE('',#138,#114,#29,.T.);
#173=EDGE_CURVE('',#127,#138,#77,.T.);
#174=EDGE_CURVE('',#139,#135,#78,.T.);
#175=EDGE_CURVE('',#115,#139,#30,.T.);
#176=EDGE_CURVE('',#127,#124,#79,.T.);
#177=EDGE_CURVE('',#138,#139,#112,.T.);
#178=EDGE_CURVE('',#134,#137,#80,.T.);
#179=ORIENTED_EDGE('',*,*,#140,.F.);
#180=ORIENTED_EDGE('',*,*,#141,.T.);
#181=ORIENTED_EDGE('',*,*,#142,.T.);
#182=ORIENTED_EDGE('',*,*,#143,.F.);
#183=ORIENTED_EDGE('',*,*,#144,.F.);
#184=ORIENTED_EDGE('',*,*,#145,.F.);
#185=ORIENTED_EDGE('',*,*,#142,.F.);
#186=ORIENTED_EDGE('',*,*,#146,.T.);
#187=ORIENTED_EDGE('',*,*,#147,.F.);
#188=ORIENTED_EDGE('',*,*,#148,.F.);
#189=ORIENTED_EDGE('',*,*,#149,.T.);
#190=ORIENTED_EDGE('',*,*,#150,.T.);
#191=ORIENTED_EDGE('',*,*,#151,.T.);
#192=ORIENTED_EDGE('',*,*,#152,.F.);
#193=ORIENTED_EDGE('',*,*,#153,.T.);
#194=ORIENTED_EDGE('',*,*,#149,.F.);
#195=ORIENTED_EDGE('',*,*,#154,.F.);
#196=ORIENTED_EDGE('',*,*,#155,.F.);
#197=ORIENTED_EDGE('',*,*,#156,.T.);
#198=ORIENTED_EDGE('',*,*,#157,.T.);
#199=ORIENTED_EDGE('',*,*,#158,.T.);
#200=ORIENTED_EDGE('',*,*,#156,.F.);
#201=ORIENTED_EDGE('',*,*,#159,.F.);
#202=ORIENTED_EDGE('',*,*,#160,.T.);
#203=ORIENTED_EDGE('',*,*,#161,.F.);
#204=ORIENTED_EDGE('',*,*,#162,.F.);
#205=ORIENTED_EDGE('',*,*,#163,.F.);
#206=ORIENTED_EDGE('',*,*,#164,.T.);
#207=ORIENTED_EDGE('',*,*,#165,.F.);
#208=ORIENTED_EDGE('',*,*,#143,.T.);
#209=ORIENTED_EDGE('',*,*,#145,.T.);
#210=ORIENTED_EDGE('',*,*,#166,.F.);
#211=ORIENTED_EDGE('',*,*,#167,.F.);
#212=ORIENTED_EDGE('',*,*,#161,.T.);
#213=ORIENTED_EDGE('',*,*,#168,.T.);
#214=ORIENTED_EDGE('',*,*,#160,.F.);
#215=ORIENTED_EDGE('',*,*,#166,.T.);
#216=ORIENTED_EDGE('',*,*,#144,.T.);
#217=ORIENTED_EDGE('',*,*,#165,.T.);
#218=ORIENTED_EDGE('',*,*,#159,.T.);
#219=ORIENTED_EDGE('',*,*,#155,.T.);
#220=ORIENTED_EDGE('',*,*,#169,.F.);
#221=ORIENTED_EDGE('',*,*,#150,.F.);
#222=ORIENTED_EDGE('',*,*,#153,.F.);
#223=ORIENTED_EDGE('',*,*,#170,.T.);
#224=ORIENTED_EDGE('',*,*,#171,.T.);
#225=ORIENTED_EDGE('',*,*,#141,.F.);
#226=ORIENTED_EDGE('',*,*,#172,.F.);
#227=ORIENTED_EDGE('',*,*,#173,.F.);
#228=ORIENTED_EDGE('',*,*,#157,.F.);
#229=ORIENTED_EDGE('',*,*,#158,.F.);
#230=ORIENTED_EDGE('',*,*,#168,.F.);
#231=ORIENTED_EDGE('',*,*,#164,.F.);
#232=ORIENTED_EDGE('',*,*,#174,.F.);
#233=ORIENTED_EDGE('',*,*,#175,.F.);
#234=ORIENTED_EDGE('',*,*,#146,.F.);
#235=ORIENTED_EDGE('',*,*,#147,.T.);
#236=ORIENTED_EDGE('',*,*,#148,.T.);
#237=ORIENTED_EDGE('',*,*,#170,.F.);
#238=ORIENTED_EDGE('',*,*,#152,.T.);
#239=ORIENTED_EDGE('',*,*,#176,.F.);
#240=ORIENTED_EDGE('',*,*,#173,.T.);
#241=ORIENTED_EDGE('',*,*,#177,.T.);
#242=ORIENTED_EDGE('',*,*,#174,.T.);
#243=ORIENTED_EDGE('',*,*,#163,.T.);
#244=ORIENTED_EDGE('',*,*,#178,.T.);
#245=ORIENTED_EDGE('',*,*,#151,.F.);
#246=ORIENTED_EDGE('',*,*,#169,.T.);
#247=ORIENTED_EDGE('',*,*,#154,.T.);
#248=ORIENTED_EDGE('',*,*,#176,.T.);
#249=ORIENTED_EDGE('',*,*,#172,.T.);
#250=ORIENTED_EDGE('',*,*,#140,.T.);
#251=ORIENTED_EDGE('',*,*,#175,.T.);
#252=ORIENTED_EDGE('',*,*,#177,.F.);
#253=ORIENTED_EDGE('',*,*,#162,.T.);
#254=ORIENTED_EDGE('',*,*,#167,.T.);
#255=ORIENTED_EDGE('',*,*,#171,.F.);
#256=ORIENTED_EDGE('',*,*,#178,.F.);
#257=CYLINDRICAL_SURFACE('',#286,12.7084539893758);
#258=CYLINDRICAL_SURFACE('',#292,10.1988805392854);
#259=CYLINDRICAL_SURFACE('',#309,93.5264138963131);
#260=ADVANCED_FACE('',(#31),#257,.F.);
#261=ADVANCED_FACE('',(#32),#258,.F.);
#262=ADVANCED_FACE('',(#33),#16,.F.);
#263=ADVANCED_FACE('',(#34),#17,.F.);
#264=ADVANCED_FACE('',(#35),#18,.F.);
#265=ADVANCED_FACE('',(#36),#19,.F.);
#266=ADVANCED_FACE('',(#37),#20,.F.);
#267=ADVANCED_FACE('',(#38,#15),#21,.T.);
#268=ADVANCED_FACE('',(#39),#22,.F.);
#269=ADVANCED_FACE('',(#40),#23,.T.);
#270=ADVANCED_FACE('',(#41),#259,.F.);
#271=ADVANCED_FACE('',(#42),#24,.F.);
#272=CLOSED_SHELL('',(#260,#261,#262,#263,#264,#265,#266,#267,#268,#269,
#270,#271));
#273=DERIVED_UNIT_ELEMENT(#275,1.);
#274=DERIVED_UNIT_ELEMENT(#499,3.);
#275=(
MASS_UNIT()
NAMED_UNIT(*)
SI_UNIT(.KILO.,.GRAM.)
);
#276=DERIVED_UNIT((#273,#274));
#277=MEASURE_REPRESENTATION_ITEM('density measure',
POSITIVE_RATIO_MEASURE(7850.),#276);
#278=PROPERTY_DEFINITION_REPRESENTATION(#283,#280);
#279=PROPERTY_DEFINITION_REPRESENTATION(#284,#281);
#280=REPRESENTATION('material name',(#282),#496);
#281=REPRESENTATION('density',(#277),#496);
#282=DESCRIPTIVE_REPRESENTATION_ITEM('Steel','Steel');
#283=PROPERTY_DEFINITION('material property','material name',#506);
#284=PROPERTY_DEFINITION('material property','density of part',#506);
#285=AXIS2_PLACEMENT_3D('placement',#388,#311,#312);
#286=AXIS2_PLACEMENT_3D('',#389,#313,#314);
#287=AXIS2_PLACEMENT_3D('',#422,#315,#316);
#288=AXIS2_PLACEMENT_3D('',#426,#318,#319);
#289=AXIS2_PLACEMENT_3D('',#428,#320,#321);
#290=AXIS2_PLACEMENT_3D('',#429,#322,#323);
#291=AXIS2_PLACEMENT_3D('',#430,#324,#325);
#292=AXIS2_PLACEMENT_3D('',#431,#326,#327);
#293=AXIS2_PLACEMENT_3D('',#434,#328,#329);
#294=AXIS2_PLACEMENT_3D('',#435,#330,#331);
#295=AXIS2_PLACEMENT_3D('',#439,#333,#334);
#296=AXIS2_PLACEMENT_3D('',#443,#336,#337);
#297=AXIS2_PLACEMENT_3D('',#444,#338,#339);
#298=AXIS2_PLACEMENT_3D('',#445,#340,#341);
#299=AXIS2_PLACEMENT_3D('',#454,#346,#347);
#300=AXIS2_PLACEMENT_3D('',#460,#351,#352);
#301=AXIS2_PLACEMENT_3D('',#469,#357,#358);
#302=AXIS2_PLACEMENT_3D('',#475,#363,#364);
#303=AXIS2_PLACEMENT_3D('',#480,#368,#369);
#304=AXIS2_PLACEMENT_3D('',#482,#370,#371);
#305=AXIS2_PLACEMENT_3D('',#486,#374,#375);
#306=AXIS2_PLACEMENT_3D('',#487,#376,#377);
#307=AXIS2_PLACEMENT_3D('',#489,#379,#380);
#308=AXIS2_PLACEMENT_3D('',#491,#382,#383);
#309=AXIS2_PLACEMENT_3D('',#492,#384,#385);
#310=AXIS2_PLACEMENT_3D('',#493,#386,#387);
#311=DIRECTION('axis',(0.,0.,1.));
#312=DIRECTION('refdir',(1.,0.,0.));
#313=DIRECTION('center_axis',(0.575338312088642,0.0259543800433952,0.817503637178181));
#314=DIRECTION('ref_axis',(-0.817779123791561,-1.81583442458235E-16,0.575532192575452));
#315=DIRECTION('center_axis',(0.,0.,-1.));
#316=DIRECTION('ref_axis',(0.998984026234964,0.0450656779310083,0.));
#317=DIRECTION('',(0.575338312088642,0.0259543800433952,0.817503637178181));
#318=DIRECTION('center_axis',(-1.,1.35660742889044E-15,-8.59229648942884E-16));
#319=DIRECTION('ref_axis',(8.15748604511274E-16,-0.031732347473954,-0.999496402256552));
#320=DIRECTION('center_axis',(5.47489018225072E-16,-1.28851065048442E-15,
-1.));
#321=DIRECTION('ref_axis',(0.998984026234955,0.045065677931199,4.88865177760255E-16));
#322=DIRECTION('center_axis',(-1.,1.35660742889044E-15,-8.59229648942884E-16));
#323=DIRECTION('ref_axis',(8.15748604511274E-16,-0.031732347473954,-0.999496402256552));
#324=DIRECTION('center_axis',(0.,0.,-1.));
#325=DIRECTION('ref_axis',(0.998984026234964,0.0450656779310083,0.));
#326=DIRECTION('center_axis',(0.,0.,1.));
#327=DIRECTION('ref_axis',(2.22044604925031E-16,-1.,0.));
#328=DIRECTION('center_axis',(0.,0.,1.));
#329=DIRECTION('ref_axis',(2.22044604925031E-16,-1.,0.));
#330=DIRECTION('center_axis',(0.,0.,1.));
#331=DIRECTION('ref_axis',(2.22044604925031E-16,-1.,0.));
#332=DIRECTION('',(0.,0.,1.));
#333=DIRECTION('center_axis',(0.,0.,1.));
#334=DIRECTION('ref_axis',(2.22044604925031E-16,-1.,0.));
#335=DIRECTION('',(0.,0.,-1.));
#336=DIRECTION('center_axis',(0.894427190999916,1.35015598031186E-15,-0.447213595499958));
#337=DIRECTION('ref_axis',(0.447213595499958,-1.98566422810215E-14,0.894427190999916));
#338=DIRECTION('center_axis',(0.,0.,1.));
#339=DIRECTION('ref_axis',(2.22044604925031E-16,-1.,0.));
#340=DIRECTION('center_axis',(1.,2.22044604925031E-16,0.));
#341=DIRECTION('ref_axis',(0.,0.,1.));
#342=DIRECTION('',(0.,0.,-1.));
#343=DIRECTION('',(2.22044604925031E-16,-1.,0.));
#344=DIRECTION('',(0.,0.,-1.));
#345=DIRECTION('',(2.22044604925031E-16,-1.,0.));
#346=DIRECTION('center_axis',(2.22044604925031E-16,-1.,0.));
#347=DIRECTION('ref_axis',(0.,0.,-1.));
#348=DIRECTION('',(-1.,-2.22044604925031E-16,0.));
#349=DIRECTION('',(-1.,-2.22044604925031E-16,0.));
#350=DIRECTION('',(0.,0.,-1.));
#351=DIRECTION('center_axis',(-2.22044604925031E-16,1.,0.));
#352=DIRECTION('ref_axis',(0.,0.,1.));
#353=DIRECTION('',(0.,0.,-1.));
#354=DIRECTION('',(1.,2.22044604925031E-16,0.));
#355=DIRECTION('',(0.447213595499958,9.93013661298909E-17,0.894427190999916));
#356=DIRECTION('',(1.,2.22044604925031E-16,0.));
#357=DIRECTION('center_axis',(-1.,-2.22044604925031E-16,0.));
#358=DIRECTION('ref_axis',(0.,0.,-1.));
#359=DIRECTION('',(-2.22044604925031E-16,1.,0.));
#360=DIRECTION('',(-2.22044604925031E-16,1.,0.));
#361=DIRECTION('',(-9.65727141787749E-17,0.434924839589688,0.900466758913334));
#362=DIRECTION('',(-2.22044604925031E-16,1.,0.));
#363=DIRECTION('center_axis',(0.,0.,-1.));
#364=DIRECTION('ref_axis',(-2.22044604925031E-16,1.,0.));
#365=DIRECTION('',(-1.,-2.22044604925031E-16,0.));
#366=DIRECTION('',(2.22044604925031E-16,-1.,0.));
#367=DIRECTION('',(1.,2.22044604925031E-16,0.));
#368=DIRECTION('center_axis',(0.,0.,-1.));
#369=DIRECTION('ref_axis',(-2.22044604925031E-16,1.,0.));
#370=DIRECTION('center_axis',(0.,0.,-1.));
#371=DIRECTION('ref_axis',(-2.22044604925031E-16,1.,0.));
#372=DIRECTION('',(2.22044604925031E-16,-1.,0.));
#373=DIRECTION('',(2.22044604925031E-16,-1.,0.));
#374=DIRECTION('center_axis',(0.,0.,-1.));
#375=DIRECTION('ref_axis',(-2.22044604925031E-16,1.,0.));
#376=DIRECTION('center_axis',(0.894427190999916,1.98602732259782E-16,-0.447213595499958));
#377=DIRECTION('ref_axis',(0.447213595499958,9.93013661298909E-17,0.894427190999916));
#378=DIRECTION('',(0.447213595499958,9.93013661298909E-17,0.894427190999916));
#379=DIRECTION('center_axis',(0.894427190999916,1.98602732259782E-16,-0.447213595499958));
#380=DIRECTION('ref_axis',(0.447213595499958,9.93013661298909E-17,0.894427190999916));
#381=DIRECTION('',(0.410541638546333,0.39658267120294,0.821083277092667));
#382=DIRECTION('center_axis',(2.22044604925031E-16,-1.,0.));
#383=DIRECTION('ref_axis',(0.,0.,-1.));
#384=DIRECTION('center_axis',(0.,0.,-1.));
#385=DIRECTION('ref_axis',(-2.22044604925031E-16,1.,0.));
#386=DIRECTION('center_axis',(-1.99943785731035E-16,0.900466758913334,-0.434924839589688));
#387=DIRECTION('ref_axis',(-9.65727141787749E-17,0.434924839589688,0.900466758913334));
#388=CARTESIAN_POINT('',(0.,0.,0.));
#389=CARTESIAN_POINT('Origin',(29.8561349276021,-105.446259594378,-9.43927026877864));
#390=CARTESIAN_POINT('',(38.4889340360556,-92.508740141923,0.));
#391=CARTESIAN_POINT('',(37.8214074227412,-117.793464253512,0.));
#392=CARTESIAN_POINT('Ctrl Pts',(38.4889340360556,-92.5087401419231,6.93889390390723E-16));
#393=CARTESIAN_POINT('Ctrl Pts',(38.4758868986922,-92.3897829230268,1.2325088277231));
#394=CARTESIAN_POINT('Ctrl Pts',(38.4698593768054,-92.3363029011229,2.44788776418311));
#395=CARTESIAN_POINT('Ctrl Pts',(38.4698593768054,-92.3363029011229,6.55161979562297));
#396=CARTESIAN_POINT('Ctrl Pts',(38.5112272066037,-92.6835096223478,9.74808896489385));
#397=CARTESIAN_POINT('Ctrl Pts',(38.6658655379499,-94.2404909074629,15.8638251165318));
#398=CARTESIAN_POINT('Ctrl Pts',(38.7785305319353,-95.4277502294678,18.7888173989447));
#399=CARTESIAN_POINT('Ctrl Pts',(38.9105014376546,-97.6392592761488,21.8849907746013));
#400=CARTESIAN_POINT('Ctrl Pts',(38.9427489904361,-98.2492521326155,22.6188899400357));
#401=CARTESIAN_POINT('Ctrl Pts',(38.9981115598697,-99.6215353631525,23.9125685343518));
#402=CARTESIAN_POINT('Ctrl Pts',(39.0208802888526,-100.386074679937,24.469975104131));
#403=CARTESIAN_POINT('Ctrl Pts',(39.0429809686004,-101.722543712674,25.1573537937811));
#404=CARTESIAN_POINT('Ctrl Pts',(39.0482528159339,-102.371777771967,25.402600135864));
#405=CARTESIAN_POINT('Ctrl Pts',(39.0434359331909,-103.711667035858,25.6780899253879));
#406=CARTESIAN_POINT('Ctrl Pts',(39.0331759519646,-104.402600620639,25.7069746591422));
#407=CARTESIAN_POINT('Ctrl Pts',(38.9966461816175,-105.870042596317,25.5613035049078));
#408=CARTESIAN_POINT('Ctrl Pts',(38.965246148136,-106.676494172918,25.3222586430234));
#409=CARTESIAN_POINT('Ctrl Pts',(38.8876756489643,-108.206496361623,24.6048077632749));
#410=CARTESIAN_POINT('Ctrl Pts',(38.8415299384688,-108.929895261751,24.1260755803289));
#411=CARTESIAN_POINT('Ctrl Pts',(38.6923951454463,-110.946810490804,22.4470739565596));
#412=CARTESIAN_POINT('Ctrl Pts',(38.5793157330152,-112.084585972765,20.9996090484311));
#413=CARTESIAN_POINT('Ctrl Pts',(38.3007534945603,-114.605558273703,16.9816495004171));
#414=CARTESIAN_POINT('Ctrl Pts',(38.1262691107048,-115.817939280367,13.8886869856513));
#415=CARTESIAN_POINT('Ctrl Pts',(37.8843908245716,-117.425432877892,7.46443684965793));
#416=CARTESIAN_POINT('Ctrl Pts',(37.8189609487471,-117.808423064626,4.13004822280756));
#417=CARTESIAN_POINT('Ctrl Pts',(37.8189609487471,-117.808423064626,1.06140808819973));
#418=CARTESIAN_POINT('Ctrl Pts',(37.8189609487471,-117.808423064626,0.711429532624145));
#419=CARTESIAN_POINT('Ctrl Pts',(37.8197531729883,-117.803584207639,0.35732744752418));
#420=CARTESIAN_POINT('Ctrl Pts',(37.8214074227411,-117.793464253512,-2.77555756156289E-15));
#421=CARTESIAN_POINT('',(52.0394572645295,-104.914367193924,0.));
#422=CARTESIAN_POINT('Origin',(36.499253779692,-105.146578471569,0.));
#423=CARTESIAN_POINT('',(70.7643588066101,-104.069658609971,26.6063893101139));
#424=CARTESIAN_POINT('',(40.2488432957792,-105.446259594378,-16.7533946575284));
#425=CARTESIAN_POINT('',(70.7643588066101,-90.9015460845721,50.8));
#426=CARTESIAN_POINT('Origin',(70.7643588066101,-103.600827842055,48.6876110963481));
#427=CARTESIAN_POINT('',(70.7643588066101,-116.2104086834,50.8));
#428=CARTESIAN_POINT('Origin',(72.2510045058253,-103.533763009667,50.8));
#429=CARTESIAN_POINT('Origin',(70.7643588066101,-103.600827842055,48.6876110963481));
#430=CARTESIAN_POINT('Origin',(36.499253779692,-105.146578471569,0.));
#431=CARTESIAN_POINT('Origin',(45.3643588066101,-5.68780775070187,0.));
#432=CARTESIAN_POINT('',(45.3643588066101,-15.8866882899873,0.));
#433=CARTESIAN_POINT('',(45.3643588066101,4.51107278858356,0.));
#434=CARTESIAN_POINT('Origin',(45.3643588066101,-5.68780775070187,0.));
#435=CARTESIAN_POINT('Origin',(45.3643588066101,-5.68780775070187,0.));
#436=CARTESIAN_POINT('',(45.3643588066101,4.51107278858356,50.8));
#437=CARTESIAN_POINT('',(45.3643588066101,4.51107278858356,0.));
#438=CARTESIAN_POINT('',(35.1654782673247,-5.68780775070188,50.8));
#439=CARTESIAN_POINT('Origin',(45.3643588066101,-5.68780775070187,50.8));
#440=CARTESIAN_POINT('',(35.1654782673247,-5.68780775070188,30.4022389214292));
#441=CARTESIAN_POINT('',(35.1654782673247,-5.68780775070188,0.));
#442=CARTESIAN_POINT('',(45.3643588066101,-15.8866882899873,50.8));
#443=CARTESIAN_POINT('Origin',(45.3643588066096,-5.6878077507023,50.799999999999));
#444=CARTESIAN_POINT('Origin',(45.3643588066101,-5.68780775070187,50.8));
#445=CARTESIAN_POINT('Origin',(19.9643588066101,70.5121922492981,50.8));
#446=CARTESIAN_POINT('',(19.9643588066101,-5.68780775070188,50.8));
#447=CARTESIAN_POINT('',(19.9643588066101,-5.68780775070188,0.));
#448=CARTESIAN_POINT('',(19.9643588066101,-5.68780775070188,0.));
#449=CARTESIAN_POINT('',(19.9643588066101,70.5121922492981,50.8));
#450=CARTESIAN_POINT('',(19.9643588066101,70.5121922492981,50.8));
#451=CARTESIAN_POINT('',(19.9643588066101,70.5121922492981,0.));
#452=CARTESIAN_POINT('',(19.9643588066101,70.5121922492981,50.8));
#453=CARTESIAN_POINT('',(19.9643588066101,70.5121922492981,0.));
#454=CARTESIAN_POINT('Origin',(19.9643588066101,70.5121922492981,50.8));
#455=CARTESIAN_POINT('',(70.7643588066101,70.5121922492981,0.));
#456=CARTESIAN_POINT('',(19.9643588066101,70.5121922492981,0.));
#457=CARTESIAN_POINT('',(70.7643588066101,70.5121922492981,50.8));
#458=CARTESIAN_POINT('',(19.9643588066101,70.5121922492981,50.8));
#459=CARTESIAN_POINT('',(70.7643588066101,70.5121922492981,50.8));
#460=CARTESIAN_POINT('Origin',(19.9643588066102,-183.487807750702,50.8));
#461=CARTESIAN_POINT('',(70.7643588066101,-183.487807750702,15.588201946457));
#462=CARTESIAN_POINT('',(70.7643588066101,-183.487807750702,0.));
#463=CARTESIAN_POINT('',(70.7643588066101,-183.487807750702,50.8));
#464=CARTESIAN_POINT('',(27.7584597798387,-183.487807750702,15.588201946457));
#465=CARTESIAN_POINT('',(19.9643588066102,-183.487807750702,15.588201946457));
#466=CARTESIAN_POINT('',(19.9643588066102,-183.487807750702,0.));
#467=CARTESIAN_POINT('',(45.3643588066102,-183.487807750702,50.8));
#468=CARTESIAN_POINT('',(19.9643588066102,-183.487807750702,0.));
#469=CARTESIAN_POINT('Origin',(70.7643588066101,70.5121922492981,50.8));
#470=CARTESIAN_POINT('',(70.7643588066101,70.5121922492981,50.8));
#471=CARTESIAN_POINT('',(70.7643588066101,-166.480532947373,50.8));
#472=CARTESIAN_POINT('',(70.7643588066101,70.5121922492981,50.8));
#473=CARTESIAN_POINT('',(70.7643588066101,-166.480532947373,50.8));
#474=CARTESIAN_POINT('',(70.7643588066101,70.5121922492981,0.));
#475=CARTESIAN_POINT('Origin',(19.9643588066101,70.5121922492981,50.8));
#476=CARTESIAN_POINT('',(19.9643588066101,-5.68780775070188,50.8));
#477=CARTESIAN_POINT('',(45.3643588066102,-166.480532947373,50.8));
#478=CARTESIAN_POINT('',(45.3643588066101,-5.68780775070187,50.8));
#479=CARTESIAN_POINT('',(19.9643588066102,-166.480532947373,50.8));
#480=CARTESIAN_POINT('Origin',(19.9643588066101,70.5121922492981,0.));
#481=CARTESIAN_POINT('',(19.9643588066101,-46.0907235574797,0.));
#482=CARTESIAN_POINT('Origin',(-54.4799651631855,-102.705498351561,0.));
#483=CARTESIAN_POINT('',(19.9643588066101,-5.68780775070188,0.));
#484=CARTESIAN_POINT('',(19.9643588066102,-159.320273145643,0.));
#485=CARTESIAN_POINT('',(19.9643588066101,-5.68780775070188,0.));
#486=CARTESIAN_POINT('Origin',(-54.4799651631855,-102.705498351561,0.));
#487=CARTESIAN_POINT('Origin',(45.3643588066101,-5.68780775070187,50.8));
#488=CARTESIAN_POINT('',(45.3643588066101,-5.68780775070187,50.8));
#489=CARTESIAN_POINT('Origin',(-54.4799651631882,-102.705498351561,-148.888647939597));
#490=CARTESIAN_POINT('',(71.5436172734476,-141.191404444714,103.158516933675));
#491=CARTESIAN_POINT('Origin',(19.9643588066101,-5.68780775070188,0.));
#492=CARTESIAN_POINT('Origin',(-54.4799651631855,-102.705498351561,177.8));
#493=CARTESIAN_POINT('Origin',(19.9643588066102,-166.480532947373,50.8));
#494=UNCERTAINTY_MEASURE_WITH_UNIT(LENGTH_MEASURE(0.01),#498,
'DISTANCE_ACCURACY_VALUE',
'Maximum model space distance between geometric entities at asserted c
onnectivities');
#495=UNCERTAINTY_MEASURE_WITH_UNIT(LENGTH_MEASURE(0.01),#498,
'DISTANCE_ACCURACY_VALUE',
'Maximum model space distance between geometric entities at asserted c
onnectivities');
#496=(
GEOMETRIC_REPRESENTATION_CONTEXT(3)
GLOBAL_UNCERTAINTY_ASSIGNED_CONTEXT((#494))
GLOBAL_UNIT_ASSIGNED_CONTEXT((#498,#500,#501))
REPRESENTATION_CONTEXT('','3D')
);
#497=(
GEOMETRIC_REPRESENTATION_CONTEXT(3)
GLOBAL_UNCERTAINTY_ASSIGNED_CONTEXT((#495))
GLOBAL_UNIT_ASSIGNED_CONTEXT((#498,#500,#501))
REPRESENTATION_CONTEXT('','3D')
);
#498=(
LENGTH_UNIT()
NAMED_UNIT(*)
SI_UNIT(.MILLI.,.METRE.)
);
#499=(
LENGTH_UNIT()
NAMED_UNIT(*)
SI_UNIT($,.METRE.)
);
#500=(
NAMED_UNIT(*)
PLANE_ANGLE_UNIT()
SI_UNIT($,.RADIAN.)
);
#501=(
NAMED_UNIT(*)
SI_UNIT($,.STERADIAN.)
SOLID_ANGLE_UNIT()
);
#502=SHAPE_DEFINITION_REPRESENTATION(#503,#504);
#503=PRODUCT_DEFINITION_SHAPE('',$,#506);
#504=SHAPE_REPRESENTATION('',(#285),#496);
#505=PRODUCT_DEFINITION_CONTEXT('part definition',#510,'design');
#506=PRODUCT_DEFINITION('CAD guides','CAD guides v1',#507,#505);
#507=PRODUCT_DEFINITION_FORMATION('',$,#512);
#508=PRODUCT_RELATED_PRODUCT_CATEGORY('CAD guides v1','CAD guides v1',(#512));
#509=APPLICATION_PROTOCOL_DEFINITION('international standard',
'automotive_design',2009,#510);
#510=APPLICATION_CONTEXT(
'Core Data for Automotive Mechanical Design Process');
#511=PRODUCT_CONTEXT('part definition',#510,'mechanical');
#512=PRODUCT('CAD guides','CAD guides v1',$,(#511));
#513=PRESENTATION_STYLE_ASSIGNMENT((#515));
#514=PRESENTATION_STYLE_ASSIGNMENT((#516));
#515=SURFACE_STYLE_USAGE(.BOTH.,#517);
#516=SURFACE_STYLE_USAGE(.BOTH.,#518);
#517=SURFACE_SIDE_STYLE('',(#519));
#518=SURFACE_SIDE_STYLE('',(#520));
#519=SURFACE_STYLE_FILL_AREA(#521);
#520=SURFACE_STYLE_FILL_AREA(#522);
#521=FILL_AREA_STYLE('Steel - Satin',(#523));
#522=FILL_AREA_STYLE('Aluminum - Bead Blasted',(#524));
#523=FILL_AREA_STYLE_COLOUR('Steel - Satin',#525);
#524=FILL_AREA_STYLE_COLOUR('Aluminum - Bead Blasted',#526);
#525=COLOUR_RGB('Steel - Satin',0.627450980392157,0.627450980392157,0.627450980392157);
#526=COLOUR_RGB('Aluminum - Bead Blasted',0.96078431372549,0.96078431372549,
0.964705882352941);
ENDSEC;
END-ISO-10303-21;
