ISO-10303-21;
HEADER;
/* Generated by software containing ST-Developer
 * from STEP Tools, Inc. (www.steptools.com) 
 */

FILE_DESCRIPTION(
/* description */ (''),
/* implementation_level */ '2;1');

FILE_NAME(
/* name */ '/Users/joakimjohansson/Desktop/Sample parts/Curves.step',
/* time_stamp */ '2019-05-10T10:19:06+02:00',
/* author */ ('joakim.j.b.johansson@gmail.com'),
/* organization */ (''),
/* preprocessor_version */ 'ST-DEVELOPER v18',
/* originating_system */ 'Autodesk Translation Framework v8.2.0.1029',
/* authorisation */ '');

FILE_SCHEMA (('AUTOMOTIVE_DESIGN { 1 0 10303 214 3 1 1 }'));
ENDSEC;

DATA;
#10=MECHANICAL_DESIGN_GEOMETRIC_PRESENTATION_REPRESENTATION('',(#13),#1329);
#11=SHAPE_REPRESENTATION_RELATIONSHIP('SRR','None',#1336,#12);
#12=ADVANCED_BREP_SHAPE_REPRESENTATION('',(#14),#1328);
#13=STYLED_ITEM('',(#1346),#14);
#14=MANIFOLD_SOLID_BREP('Body1',#729);
#15=FACE_BOUND('',#118,.T.);
#16=FACE_BOUND('',#119,.T.);
#17=FACE_BOUND('',#131,.T.);
#18=FACE_BOUND('',#132,.T.);
#19=PLANE('',#829);
#20=PLANE('',#850);
#21=CONICAL_SURFACE('',#749,17.5,0.78539816339745);
#22=CONICAL_SURFACE('',#752,7.49999999999998,0.785398163397448);
#23=CONICAL_SURFACE('',#755,37.5,0.785398163397448);
#24=CONICAL_SURFACE('',#758,12.5,0.785398163397448);
#25=CONICAL_SURFACE('',#761,37.5,0.785398163397447);
#26=CONICAL_SURFACE('',#764,12.4999999999999,0.785398163397449);
#27=CONICAL_SURFACE('',#767,37.5,0.785398163397448);
#28=CONICAL_SURFACE('',#770,12.5000000000001,0.785398163397448);
#29=CONICAL_SURFACE('',#773,37.5,0.785398163397448);
#30=CONICAL_SURFACE('',#776,7.50000000000001,0.785398163397448);
#31=CONICAL_SURFACE('',#779,17.5,0.785398163397448);
#32=CONICAL_SURFACE('',#782,7.49999999999999,0.785398163397448);
#33=CONICAL_SURFACE('',#785,37.5,0.785398163397448);
#34=CONICAL_SURFACE('',#788,12.5000000000001,0.785398163397448);
#35=CONICAL_SURFACE('',#791,37.5,0.785398163397448);
#36=CONICAL_SURFACE('',#794,7.49999999999989,0.785398163397449);
#37=CONICAL_SURFACE('',#797,37.5,0.785398163397448);
#38=CONICAL_SURFACE('',#800,22.4999999999998,0.785398163397449);
#39=CONICAL_SURFACE('',#803,37.5,0.785398163397447);
#40=CONICAL_SURFACE('',#806,7.50000000000001,0.785398163397446);
#41=FACE_OUTER_BOUND('',#85,.T.);
#42=FACE_OUTER_BOUND('',#86,.T.);
#43=FACE_OUTER_BOUND('',#87,.T.);
#44=FACE_OUTER_BOUND('',#88,.T.);
#45=FACE_OUTER_BOUND('',#89,.T.);
#46=FACE_OUTER_BOUND('',#90,.T.);
#47=FACE_OUTER_BOUND('',#91,.T.);
#48=FACE_OUTER_BOUND('',#92,.T.);
#49=FACE_OUTER_BOUND('',#93,.T.);
#50=FACE_OUTER_BOUND('',#94,.T.);
#51=FACE_OUTER_BOUND('',#95,.T.);
#52=FACE_OUTER_BOUND('',#96,.T.);
#53=FACE_OUTER_BOUND('',#97,.T.);
#54=FACE_OUTER_BOUND('',#98,.T.);
#55=FACE_OUTER_BOUND('',#99,.T.);
#56=FACE_OUTER_BOUND('',#100,.T.);
#57=FACE_OUTER_BOUND('',#101,.T.);
#58=FACE_OUTER_BOUND('',#102,.T.);
#59=FACE_OUTER_BOUND('',#103,.T.);
#60=FACE_OUTER_BOUND('',#104,.T.);
#61=FACE_OUTER_BOUND('',#105,.T.);
#62=FACE_OUTER_BOUND('',#106,.T.);
#63=FACE_OUTER_BOUND('',#107,.T.);
#64=FACE_OUTER_BOUND('',#108,.T.);
#65=FACE_OUTER_BOUND('',#109,.T.);
#66=FACE_OUTER_BOUND('',#110,.T.);
#67=FACE_OUTER_BOUND('',#111,.T.);
#68=FACE_OUTER_BOUND('',#112,.T.);
#69=FACE_OUTER_BOUND('',#113,.T.);
#70=FACE_OUTER_BOUND('',#114,.T.);
#71=FACE_OUTER_BOUND('',#115,.T.);
#72=FACE_OUTER_BOUND('',#116,.T.);
#73=FACE_OUTER_BOUND('',#117,.T.);
#74=FACE_OUTER_BOUND('',#120,.T.);
#75=FACE_OUTER_BOUND('',#121,.T.);
#76=FACE_OUTER_BOUND('',#122,.T.);
#77=FACE_OUTER_BOUND('',#123,.T.);
#78=FACE_OUTER_BOUND('',#124,.T.);
#79=FACE_OUTER_BOUND('',#125,.T.);
#80=FACE_OUTER_BOUND('',#126,.T.);
#81=FACE_OUTER_BOUND('',#127,.T.);
#82=FACE_OUTER_BOUND('',#128,.T.);
#83=FACE_OUTER_BOUND('',#129,.T.);
#84=FACE_OUTER_BOUND('',#130,.T.);
#85=EDGE_LOOP('',(#451,#452,#453,#454));
#86=EDGE_LOOP('',(#455,#456,#457,#458));
#87=EDGE_LOOP('',(#459,#460,#461,#462));
#88=EDGE_LOOP('',(#463,#464,#465,#466));
#89=EDGE_LOOP('',(#467,#468,#469,#470));
#90=EDGE_LOOP('',(#471,#472,#473,#474));
#91=EDGE_LOOP('',(#475,#476,#477,#478));
#92=EDGE_LOOP('',(#479,#480,#481,#482));
#93=EDGE_LOOP('',(#483,#484,#485,#486));
#94=EDGE_LOOP('',(#487,#488,#489,#490));
#95=EDGE_LOOP('',(#491,#492,#493,#494));
#96=EDGE_LOOP('',(#495,#496,#497,#498));
#97=EDGE_LOOP('',(#499,#500,#501,#502));
#98=EDGE_LOOP('',(#503,#504,#505,#506));
#99=EDGE_LOOP('',(#507,#508,#509,#510));
#100=EDGE_LOOP('',(#511,#512,#513,#514));
#101=EDGE_LOOP('',(#515,#516,#517,#518));
#102=EDGE_LOOP('',(#519,#520,#521,#522));
#103=EDGE_LOOP('',(#523,#524,#525,#526));
#104=EDGE_LOOP('',(#527,#528,#529,#530));
#105=EDGE_LOOP('',(#531,#532,#533,#534));
#106=EDGE_LOOP('',(#535,#536,#537,#538));
#107=EDGE_LOOP('',(#539,#540,#541,#542));
#108=EDGE_LOOP('',(#543,#544,#545,#546));
#109=EDGE_LOOP('',(#547,#548,#549,#550));
#110=EDGE_LOOP('',(#551,#552,#553,#554));
#111=EDGE_LOOP('',(#555,#556,#557,#558));
#112=EDGE_LOOP('',(#559,#560,#561,#562));
#113=EDGE_LOOP('',(#563,#564,#565,#566));
#114=EDGE_LOOP('',(#567,#568,#569,#570));
#115=EDGE_LOOP('',(#571,#572,#573,#574));
#116=EDGE_LOOP('',(#575,#576,#577,#578));
#117=EDGE_LOOP('',(#579,#580,#581,#582,#583,#584,#585,#586,#587,#588,#589,
#590,#591,#592,#593,#594,#595,#596,#597,#598));
#118=EDGE_LOOP('',(#599));
#119=EDGE_LOOP('',(#600));
#120=EDGE_LOOP('',(#601,#602,#603,#604));
#121=EDGE_LOOP('',(#605,#606,#607,#608));
#122=EDGE_LOOP('',(#609,#610,#611,#612));
#123=EDGE_LOOP('',(#613,#614,#615,#616));
#124=EDGE_LOOP('',(#617,#618,#619,#620));
#125=EDGE_LOOP('',(#621,#622,#623,#624));
#126=EDGE_LOOP('',(#625,#626,#627,#628));
#127=EDGE_LOOP('',(#629,#630,#631,#632));
#128=EDGE_LOOP('',(#633,#634,#635,#636));
#129=EDGE_LOOP('',(#637,#638,#639,#640));
#130=EDGE_LOOP('',(#641,#642,#643,#644,#645,#646,#647,#648,#649,#650,#651,
#652,#653,#654,#655,#656,#657,#658,#659,#660));
#131=EDGE_LOOP('',(#661));
#132=EDGE_LOOP('',(#662));
#133=LINE('',#1116,#175);
#134=LINE('',#1122,#176);
#135=LINE('',#1127,#177);
#136=LINE('',#1131,#178);
#137=LINE('',#1136,#179);
#138=LINE('',#1142,#180);
#139=LINE('',#1148,#181);
#140=LINE('',#1154,#182);
#141=LINE('',#1160,#183);
#142=LINE('',#1166,#184);
#143=LINE('',#1172,#185);
#144=LINE('',#1178,#186);
#145=LINE('',#1184,#187);
#146=LINE('',#1190,#188);
#147=LINE('',#1196,#189);
#148=LINE('',#1202,#190);
#149=LINE('',#1208,#191);
#150=LINE('',#1214,#192);
#151=LINE('',#1220,#193);
#152=LINE('',#1226,#194);
#153=LINE('',#1232,#195);
#154=LINE('',#1238,#196);
#155=LINE('',#1246,#197);
#156=LINE('',#1249,#198);
#157=LINE('',#1252,#199);
#158=LINE('',#1256,#200);
#159=LINE('',#1260,#201);
#160=LINE('',#1264,#202);
#161=LINE('',#1268,#203);
#162=LINE('',#1272,#204);
#163=LINE('',#1276,#205);
#164=LINE('',#1280,#206);
#165=LINE('',#1284,#207);
#166=LINE('',#1289,#208);
#167=LINE('',#1292,#209);
#168=LINE('',#1295,#210);
#169=LINE('',#1299,#211);
#170=LINE('',#1303,#212);
#171=LINE('',#1307,#213);
#172=LINE('',#1311,#214);
#173=LINE('',#1315,#215);
#174=LINE('',#1321,#216);
#175=VECTOR('',#857,10.);
#176=VECTOR('',#864,10.);
#177=VECTOR('',#869,10.);
#178=VECTOR('',#872,10.);
#179=VECTOR('',#877,10.);
#180=VECTOR('',#884,10.);
#181=VECTOR('',#891,10.);
#182=VECTOR('',#898,10.);
#183=VECTOR('',#905,10.);
#184=VECTOR('',#912,10.);
#185=VECTOR('',#919,10.);
#186=VECTOR('',#926,10.);
#187=VECTOR('',#933,10.);
#188=VECTOR('',#940,10.);
#189=VECTOR('',#947,10.);
#190=VECTOR('',#954,10.);
#191=VECTOR('',#961,10.);
#192=VECTOR('',#968,10.);
#193=VECTOR('',#975,10.);
#194=VECTOR('',#982,10.);
#195=VECTOR('',#989,10.);
#196=VECTOR('',#996,10.);
#197=VECTOR('',#1009,10.);
#198=VECTOR('',#1012,10.);
#199=VECTOR('',#1015,10.);
#200=VECTOR('',#1020,10.);
#201=VECTOR('',#1025,10.);
#202=VECTOR('',#1030,10.);
#203=VECTOR('',#1035,10.);
#204=VECTOR('',#1040,10.);
#205=VECTOR('',#1045,10.);
#206=VECTOR('',#1050,10.);
#207=VECTOR('',#1055,10.);
#208=VECTOR('',#1062,10.);
#209=VECTOR('',#1065,10.);
#210=VECTOR('',#1068,10.);
#211=VECTOR('',#1073,10.);
#212=VECTOR('',#1078,10.);
#213=VECTOR('',#1083,10.);
#214=VECTOR('',#1088,10.);
#215=VECTOR('',#1093,10.);
#216=VECTOR('',#1102,10.);
#217=CIRCLE('',#744,10.);
#218=CIRCLE('',#745,10.);
#219=CIRCLE('',#747,10.);
#220=CIRCLE('',#748,10.);
#221=CIRCLE('',#750,20.);
#222=CIRCLE('',#751,15.);
#223=CIRCLE('',#753,4.99999999999998);
#224=CIRCLE('',#754,9.99999999999998);
#225=CIRCLE('',#756,35.);
#226=CIRCLE('',#757,40.);
#227=CIRCLE('',#759,15.);
#228=CIRCLE('',#760,10.);
#229=CIRCLE('',#762,35.);
#230=CIRCLE('',#763,40.);
#231=CIRCLE('',#765,14.9999999999999);
#232=CIRCLE('',#766,9.99999999999992);
#233=CIRCLE('',#768,35.);
#234=CIRCLE('',#769,40.);
#235=CIRCLE('',#771,15.0000000000001);
#236=CIRCLE('',#772,10.0000000000001);
#237=CIRCLE('',#774,35.);
#238=CIRCLE('',#775,40.);
#239=CIRCLE('',#777,5.00000000000001);
#240=CIRCLE('',#778,10.);
#241=CIRCLE('',#780,20.);
#242=CIRCLE('',#781,15.);
#243=CIRCLE('',#783,4.99999999999999);
#244=CIRCLE('',#784,9.99999999999999);
#245=CIRCLE('',#786,35.);
#246=CIRCLE('',#787,40.);
#247=CIRCLE('',#789,15.0000000000001);
#248=CIRCLE('',#790,10.0000000000001);
#249=CIRCLE('',#792,35.);
#250=CIRCLE('',#793,40.);
#251=CIRCLE('',#795,9.99999999999989);
#252=CIRCLE('',#796,4.99999999999989);
#253=CIRCLE('',#798,35.);
#254=CIRCLE('',#799,40.);
#255=CIRCLE('',#801,24.9999999999998);
#256=CIRCLE('',#802,19.9999999999998);
#257=CIRCLE('',#804,35.);
#258=CIRCLE('',#805,40.);
#259=CIRCLE('',#807,5.00000000000002);
#260=CIRCLE('',#808,9.99999999999999);
#261=CIRCLE('',#810,10.);
#262=CIRCLE('',#812,40.);
#263=CIRCLE('',#814,10.0000000000001);
#264=CIRCLE('',#816,40.);
#265=CIRCLE('',#818,9.99999999999992);
#266=CIRCLE('',#820,40.);
#267=CIRCLE('',#822,10.);
#268=CIRCLE('',#824,40.);
#269=CIRCLE('',#826,9.99999999999998);
#270=CIRCLE('',#828,15.);
#271=CIRCLE('',#831,19.9999999999998);
#272=CIRCLE('',#833,40.);
#273=CIRCLE('',#835,4.99999999999989);
#274=CIRCLE('',#837,40.);
#275=CIRCLE('',#839,10.0000000000001);
#276=CIRCLE('',#841,40.);
#277=CIRCLE('',#843,9.99999999999999);
#278=CIRCLE('',#845,15.);
#279=CIRCLE('',#847,9.99999999999999);
#280=CIRCLE('',#849,40.);
#281=VERTEX_POINT('',#1113);
#282=VERTEX_POINT('',#1115);
#283=VERTEX_POINT('',#1119);
#284=VERTEX_POINT('',#1121);
#285=VERTEX_POINT('',#1125);
#286=VERTEX_POINT('',#1126);
#287=VERTEX_POINT('',#1128);
#288=VERTEX_POINT('',#1130);
#289=VERTEX_POINT('',#1134);
#290=VERTEX_POINT('',#1135);
#291=VERTEX_POINT('',#1140);
#292=VERTEX_POINT('',#1141);
#293=VERTEX_POINT('',#1146);
#294=VERTEX_POINT('',#1147);
#295=VERTEX_POINT('',#1152);
#296=VERTEX_POINT('',#1153);
#297=VERTEX_POINT('',#1158);
#298=VERTEX_POINT('',#1159);
#299=VERTEX_POINT('',#1164);
#300=VERTEX_POINT('',#1165);
#301=VERTEX_POINT('',#1170);
#302=VERTEX_POINT('',#1171);
#303=VERTEX_POINT('',#1176);
#304=VERTEX_POINT('',#1177);
#305=VERTEX_POINT('',#1182);
#306=VERTEX_POINT('',#1183);
#307=VERTEX_POINT('',#1188);
#308=VERTEX_POINT('',#1189);
#309=VERTEX_POINT('',#1194);
#310=VERTEX_POINT('',#1195);
#311=VERTEX_POINT('',#1200);
#312=VERTEX_POINT('',#1201);
#313=VERTEX_POINT('',#1206);
#314=VERTEX_POINT('',#1207);
#315=VERTEX_POINT('',#1212);
#316=VERTEX_POINT('',#1213);
#317=VERTEX_POINT('',#1218);
#318=VERTEX_POINT('',#1219);
#319=VERTEX_POINT('',#1224);
#320=VERTEX_POINT('',#1225);
#321=VERTEX_POINT('',#1230);
#322=VERTEX_POINT('',#1231);
#323=VERTEX_POINT('',#1236);
#324=VERTEX_POINT('',#1237);
#325=VERTEX_POINT('',#1245);
#326=VERTEX_POINT('',#1247);
#327=VERTEX_POINT('',#1251);
#328=VERTEX_POINT('',#1255);
#329=VERTEX_POINT('',#1259);
#330=VERTEX_POINT('',#1263);
#331=VERTEX_POINT('',#1267);
#332=VERTEX_POINT('',#1271);
#333=VERTEX_POINT('',#1275);
#334=VERTEX_POINT('',#1279);
#335=VERTEX_POINT('',#1283);
#336=VERTEX_POINT('',#1288);
#337=VERTEX_POINT('',#1290);
#338=VERTEX_POINT('',#1294);
#339=VERTEX_POINT('',#1298);
#340=VERTEX_POINT('',#1302);
#341=VERTEX_POINT('',#1306);
#342=VERTEX_POINT('',#1310);
#343=VERTEX_POINT('',#1314);
#344=VERTEX_POINT('',#1320);
#345=EDGE_CURVE('',#281,#281,#217,.T.);
#346=EDGE_CURVE('',#281,#282,#133,.T.);
#347=EDGE_CURVE('',#282,#282,#218,.T.);
#348=EDGE_CURVE('',#283,#283,#219,.T.);
#349=EDGE_CURVE('',#283,#284,#134,.T.);
#350=EDGE_CURVE('',#284,#284,#220,.T.);
#351=EDGE_CURVE('',#285,#286,#135,.T.);
#352=EDGE_CURVE('',#286,#287,#221,.T.);
#353=EDGE_CURVE('',#287,#288,#136,.T.);
#354=EDGE_CURVE('',#288,#285,#222,.T.);
#355=EDGE_CURVE('',#289,#290,#137,.T.);
#356=EDGE_CURVE('',#290,#286,#223,.T.);
#357=EDGE_CURVE('',#285,#289,#224,.T.);
#358=EDGE_CURVE('',#291,#292,#138,.T.);
#359=EDGE_CURVE('',#292,#290,#225,.T.);
#360=EDGE_CURVE('',#289,#291,#226,.T.);
#361=EDGE_CURVE('',#293,#294,#139,.T.);
#362=EDGE_CURVE('',#294,#292,#227,.T.);
#363=EDGE_CURVE('',#291,#293,#228,.T.);
#364=EDGE_CURVE('',#295,#296,#140,.T.);
#365=EDGE_CURVE('',#296,#294,#229,.T.);
#366=EDGE_CURVE('',#293,#295,#230,.T.);
#367=EDGE_CURVE('',#297,#298,#141,.T.);
#368=EDGE_CURVE('',#298,#296,#231,.T.);
#369=EDGE_CURVE('',#295,#297,#232,.T.);
#370=EDGE_CURVE('',#299,#300,#142,.T.);
#371=EDGE_CURVE('',#300,#298,#233,.T.);
#372=EDGE_CURVE('',#297,#299,#234,.T.);
#373=EDGE_CURVE('',#301,#302,#143,.T.);
#374=EDGE_CURVE('',#302,#300,#235,.T.);
#375=EDGE_CURVE('',#299,#301,#236,.T.);
#376=EDGE_CURVE('',#303,#304,#144,.T.);
#377=EDGE_CURVE('',#304,#302,#237,.T.);
#378=EDGE_CURVE('',#301,#303,#238,.T.);
#379=EDGE_CURVE('',#305,#306,#145,.T.);
#380=EDGE_CURVE('',#306,#304,#239,.T.);
#381=EDGE_CURVE('',#303,#305,#240,.T.);
#382=EDGE_CURVE('',#307,#308,#146,.T.);
#383=EDGE_CURVE('',#308,#306,#241,.T.);
#384=EDGE_CURVE('',#305,#307,#242,.T.);
#385=EDGE_CURVE('',#309,#310,#147,.T.);
#386=EDGE_CURVE('',#310,#308,#243,.T.);
#387=EDGE_CURVE('',#307,#309,#244,.T.);
#388=EDGE_CURVE('',#311,#312,#148,.T.);
#389=EDGE_CURVE('',#312,#310,#245,.T.);
#390=EDGE_CURVE('',#309,#311,#246,.T.);
#391=EDGE_CURVE('',#313,#314,#149,.T.);
#392=EDGE_CURVE('',#314,#312,#247,.T.);
#393=EDGE_CURVE('',#311,#313,#248,.T.);
#394=EDGE_CURVE('',#315,#316,#150,.T.);
#395=EDGE_CURVE('',#316,#314,#249,.T.);
#396=EDGE_CURVE('',#313,#315,#250,.T.);
#397=EDGE_CURVE('',#317,#318,#151,.T.);
#398=EDGE_CURVE('',#318,#316,#251,.T.);
#399=EDGE_CURVE('',#315,#317,#252,.T.);
#400=EDGE_CURVE('',#319,#320,#152,.T.);
#401=EDGE_CURVE('',#320,#318,#253,.T.);
#402=EDGE_CURVE('',#317,#319,#254,.T.);
#403=EDGE_CURVE('',#321,#322,#153,.T.);
#404=EDGE_CURVE('',#322,#320,#255,.T.);
#405=EDGE_CURVE('',#319,#321,#256,.T.);
#406=EDGE_CURVE('',#323,#324,#154,.T.);
#407=EDGE_CURVE('',#324,#322,#257,.T.);
#408=EDGE_CURVE('',#321,#323,#258,.T.);
#409=EDGE_CURVE('',#287,#324,#259,.T.);
#410=EDGE_CURVE('',#323,#288,#260,.T.);
#411=EDGE_CURVE('',#325,#303,#155,.T.);
#412=EDGE_CURVE('',#325,#326,#261,.T.);
#413=EDGE_CURVE('',#326,#305,#156,.T.);
#414=EDGE_CURVE('',#327,#301,#157,.T.);
#415=EDGE_CURVE('',#327,#325,#262,.T.);
#416=EDGE_CURVE('',#328,#299,#158,.T.);
#417=EDGE_CURVE('',#327,#328,#263,.T.);
#418=EDGE_CURVE('',#329,#297,#159,.T.);
#419=EDGE_CURVE('',#329,#328,#264,.T.);
#420=EDGE_CURVE('',#330,#295,#160,.T.);
#421=EDGE_CURVE('',#329,#330,#265,.T.);
#422=EDGE_CURVE('',#331,#293,#161,.T.);
#423=EDGE_CURVE('',#331,#330,#266,.T.);
#424=EDGE_CURVE('',#332,#291,#162,.T.);
#425=EDGE_CURVE('',#331,#332,#267,.T.);
#426=EDGE_CURVE('',#333,#289,#163,.T.);
#427=EDGE_CURVE('',#333,#332,#268,.T.);
#428=EDGE_CURVE('',#334,#285,#164,.T.);
#429=EDGE_CURVE('',#334,#333,#269,.T.);
#430=EDGE_CURVE('',#335,#288,#165,.T.);
#431=EDGE_CURVE('',#334,#335,#270,.T.);
#432=EDGE_CURVE('',#336,#319,#166,.T.);
#433=EDGE_CURVE('',#337,#336,#271,.T.);
#434=EDGE_CURVE('',#337,#321,#167,.T.);
#435=EDGE_CURVE('',#338,#317,#168,.T.);
#436=EDGE_CURVE('',#338,#336,#272,.T.);
#437=EDGE_CURVE('',#339,#315,#169,.T.);
#438=EDGE_CURVE('',#338,#339,#273,.T.);
#439=EDGE_CURVE('',#340,#313,#170,.T.);
#440=EDGE_CURVE('',#340,#339,#274,.T.);
#441=EDGE_CURVE('',#341,#311,#171,.T.);
#442=EDGE_CURVE('',#340,#341,#275,.T.);
#443=EDGE_CURVE('',#342,#309,#172,.T.);
#444=EDGE_CURVE('',#342,#341,#276,.T.);
#445=EDGE_CURVE('',#343,#307,#173,.T.);
#446=EDGE_CURVE('',#343,#342,#277,.T.);
#447=EDGE_CURVE('',#343,#326,#278,.T.);
#448=EDGE_CURVE('',#344,#323,#174,.T.);
#449=EDGE_CURVE('',#344,#335,#279,.T.);
#450=EDGE_CURVE('',#337,#344,#280,.T.);
#451=ORIENTED_EDGE('',*,*,#345,.F.);
#452=ORIENTED_EDGE('',*,*,#346,.T.);
#453=ORIENTED_EDGE('',*,*,#347,.F.);
#454=ORIENTED_EDGE('',*,*,#346,.F.);
#455=ORIENTED_EDGE('',*,*,#348,.F.);
#456=ORIENTED_EDGE('',*,*,#349,.T.);
#457=ORIENTED_EDGE('',*,*,#350,.F.);
#458=ORIENTED_EDGE('',*,*,#349,.F.);
#459=ORIENTED_EDGE('',*,*,#351,.T.);
#460=ORIENTED_EDGE('',*,*,#352,.T.);
#461=ORIENTED_EDGE('',*,*,#353,.T.);
#462=ORIENTED_EDGE('',*,*,#354,.T.);
#463=ORIENTED_EDGE('',*,*,#355,.T.);
#464=ORIENTED_EDGE('',*,*,#356,.T.);
#465=ORIENTED_EDGE('',*,*,#351,.F.);
#466=ORIENTED_EDGE('',*,*,#357,.T.);
#467=ORIENTED_EDGE('',*,*,#358,.T.);
#468=ORIENTED_EDGE('',*,*,#359,.T.);
#469=ORIENTED_EDGE('',*,*,#355,.F.);
#470=ORIENTED_EDGE('',*,*,#360,.T.);
#471=ORIENTED_EDGE('',*,*,#361,.T.);
#472=ORIENTED_EDGE('',*,*,#362,.T.);
#473=ORIENTED_EDGE('',*,*,#358,.F.);
#474=ORIENTED_EDGE('',*,*,#363,.T.);
#475=ORIENTED_EDGE('',*,*,#364,.T.);
#476=ORIENTED_EDGE('',*,*,#365,.T.);
#477=ORIENTED_EDGE('',*,*,#361,.F.);
#478=ORIENTED_EDGE('',*,*,#366,.T.);
#479=ORIENTED_EDGE('',*,*,#367,.T.);
#480=ORIENTED_EDGE('',*,*,#368,.T.);
#481=ORIENTED_EDGE('',*,*,#364,.F.);
#482=ORIENTED_EDGE('',*,*,#369,.T.);
#483=ORIENTED_EDGE('',*,*,#370,.T.);
#484=ORIENTED_EDGE('',*,*,#371,.T.);
#485=ORIENTED_EDGE('',*,*,#367,.F.);
#486=ORIENTED_EDGE('',*,*,#372,.T.);
#487=ORIENTED_EDGE('',*,*,#373,.T.);
#488=ORIENTED_EDGE('',*,*,#374,.T.);
#489=ORIENTED_EDGE('',*,*,#370,.F.);
#490=ORIENTED_EDGE('',*,*,#375,.T.);
#491=ORIENTED_EDGE('',*,*,#376,.T.);
#492=ORIENTED_EDGE('',*,*,#377,.T.);
#493=ORIENTED_EDGE('',*,*,#373,.F.);
#494=ORIENTED_EDGE('',*,*,#378,.T.);
#495=ORIENTED_EDGE('',*,*,#379,.T.);
#496=ORIENTED_EDGE('',*,*,#380,.T.);
#497=ORIENTED_EDGE('',*,*,#376,.F.);
#498=ORIENTED_EDGE('',*,*,#381,.T.);
#499=ORIENTED_EDGE('',*,*,#382,.T.);
#500=ORIENTED_EDGE('',*,*,#383,.T.);
#501=ORIENTED_EDGE('',*,*,#379,.F.);
#502=ORIENTED_EDGE('',*,*,#384,.T.);
#503=ORIENTED_EDGE('',*,*,#385,.T.);
#504=ORIENTED_EDGE('',*,*,#386,.T.);
#505=ORIENTED_EDGE('',*,*,#382,.F.);
#506=ORIENTED_EDGE('',*,*,#387,.T.);
#507=ORIENTED_EDGE('',*,*,#388,.T.);
#508=ORIENTED_EDGE('',*,*,#389,.T.);
#509=ORIENTED_EDGE('',*,*,#385,.F.);
#510=ORIENTED_EDGE('',*,*,#390,.T.);
#511=ORIENTED_EDGE('',*,*,#391,.T.);
#512=ORIENTED_EDGE('',*,*,#392,.T.);
#513=ORIENTED_EDGE('',*,*,#388,.F.);
#514=ORIENTED_EDGE('',*,*,#393,.T.);
#515=ORIENTED_EDGE('',*,*,#394,.T.);
#516=ORIENTED_EDGE('',*,*,#395,.T.);
#517=ORIENTED_EDGE('',*,*,#391,.F.);
#518=ORIENTED_EDGE('',*,*,#396,.T.);
#519=ORIENTED_EDGE('',*,*,#397,.T.);
#520=ORIENTED_EDGE('',*,*,#398,.T.);
#521=ORIENTED_EDGE('',*,*,#394,.F.);
#522=ORIENTED_EDGE('',*,*,#399,.T.);
#523=ORIENTED_EDGE('',*,*,#400,.T.);
#524=ORIENTED_EDGE('',*,*,#401,.T.);
#525=ORIENTED_EDGE('',*,*,#397,.F.);
#526=ORIENTED_EDGE('',*,*,#402,.T.);
#527=ORIENTED_EDGE('',*,*,#403,.T.);
#528=ORIENTED_EDGE('',*,*,#404,.T.);
#529=ORIENTED_EDGE('',*,*,#400,.F.);
#530=ORIENTED_EDGE('',*,*,#405,.T.);
#531=ORIENTED_EDGE('',*,*,#406,.T.);
#532=ORIENTED_EDGE('',*,*,#407,.T.);
#533=ORIENTED_EDGE('',*,*,#403,.F.);
#534=ORIENTED_EDGE('',*,*,#408,.T.);
#535=ORIENTED_EDGE('',*,*,#353,.F.);
#536=ORIENTED_EDGE('',*,*,#409,.T.);
#537=ORIENTED_EDGE('',*,*,#406,.F.);
#538=ORIENTED_EDGE('',*,*,#410,.T.);
#539=ORIENTED_EDGE('',*,*,#381,.F.);
#540=ORIENTED_EDGE('',*,*,#411,.F.);
#541=ORIENTED_EDGE('',*,*,#412,.T.);
#542=ORIENTED_EDGE('',*,*,#413,.T.);
#543=ORIENTED_EDGE('',*,*,#378,.F.);
#544=ORIENTED_EDGE('',*,*,#414,.F.);
#545=ORIENTED_EDGE('',*,*,#415,.T.);
#546=ORIENTED_EDGE('',*,*,#411,.T.);
#547=ORIENTED_EDGE('',*,*,#375,.F.);
#548=ORIENTED_EDGE('',*,*,#416,.F.);
#549=ORIENTED_EDGE('',*,*,#417,.F.);
#550=ORIENTED_EDGE('',*,*,#414,.T.);
#551=ORIENTED_EDGE('',*,*,#372,.F.);
#552=ORIENTED_EDGE('',*,*,#418,.F.);
#553=ORIENTED_EDGE('',*,*,#419,.T.);
#554=ORIENTED_EDGE('',*,*,#416,.T.);
#555=ORIENTED_EDGE('',*,*,#369,.F.);
#556=ORIENTED_EDGE('',*,*,#420,.F.);
#557=ORIENTED_EDGE('',*,*,#421,.F.);
#558=ORIENTED_EDGE('',*,*,#418,.T.);
#559=ORIENTED_EDGE('',*,*,#366,.F.);
#560=ORIENTED_EDGE('',*,*,#422,.F.);
#561=ORIENTED_EDGE('',*,*,#423,.T.);
#562=ORIENTED_EDGE('',*,*,#420,.T.);
#563=ORIENTED_EDGE('',*,*,#363,.F.);
#564=ORIENTED_EDGE('',*,*,#424,.F.);
#565=ORIENTED_EDGE('',*,*,#425,.F.);
#566=ORIENTED_EDGE('',*,*,#422,.T.);
#567=ORIENTED_EDGE('',*,*,#360,.F.);
#568=ORIENTED_EDGE('',*,*,#426,.F.);
#569=ORIENTED_EDGE('',*,*,#427,.T.);
#570=ORIENTED_EDGE('',*,*,#424,.T.);
#571=ORIENTED_EDGE('',*,*,#357,.F.);
#572=ORIENTED_EDGE('',*,*,#428,.F.);
#573=ORIENTED_EDGE('',*,*,#429,.T.);
#574=ORIENTED_EDGE('',*,*,#426,.T.);
#575=ORIENTED_EDGE('',*,*,#354,.F.);
#576=ORIENTED_EDGE('',*,*,#430,.F.);
#577=ORIENTED_EDGE('',*,*,#431,.F.);
#578=ORIENTED_EDGE('',*,*,#428,.T.);
#579=ORIENTED_EDGE('',*,*,#352,.F.);
#580=ORIENTED_EDGE('',*,*,#356,.F.);
#581=ORIENTED_EDGE('',*,*,#359,.F.);
#582=ORIENTED_EDGE('',*,*,#362,.F.);
#583=ORIENTED_EDGE('',*,*,#365,.F.);
#584=ORIENTED_EDGE('',*,*,#368,.F.);
#585=ORIENTED_EDGE('',*,*,#371,.F.);
#586=ORIENTED_EDGE('',*,*,#374,.F.);
#587=ORIENTED_EDGE('',*,*,#377,.F.);
#588=ORIENTED_EDGE('',*,*,#380,.F.);
#589=ORIENTED_EDGE('',*,*,#383,.F.);
#590=ORIENTED_EDGE('',*,*,#386,.F.);
#591=ORIENTED_EDGE('',*,*,#389,.F.);
#592=ORIENTED_EDGE('',*,*,#392,.F.);
#593=ORIENTED_EDGE('',*,*,#395,.F.);
#594=ORIENTED_EDGE('',*,*,#398,.F.);
#595=ORIENTED_EDGE('',*,*,#401,.F.);
#596=ORIENTED_EDGE('',*,*,#404,.F.);
#597=ORIENTED_EDGE('',*,*,#407,.F.);
#598=ORIENTED_EDGE('',*,*,#409,.F.);
#599=ORIENTED_EDGE('',*,*,#347,.T.);
#600=ORIENTED_EDGE('',*,*,#350,.T.);
#601=ORIENTED_EDGE('',*,*,#405,.F.);
#602=ORIENTED_EDGE('',*,*,#432,.F.);
#603=ORIENTED_EDGE('',*,*,#433,.F.);
#604=ORIENTED_EDGE('',*,*,#434,.T.);
#605=ORIENTED_EDGE('',*,*,#402,.F.);
#606=ORIENTED_EDGE('',*,*,#435,.F.);
#607=ORIENTED_EDGE('',*,*,#436,.T.);
#608=ORIENTED_EDGE('',*,*,#432,.T.);
#609=ORIENTED_EDGE('',*,*,#399,.F.);
#610=ORIENTED_EDGE('',*,*,#437,.F.);
#611=ORIENTED_EDGE('',*,*,#438,.F.);
#612=ORIENTED_EDGE('',*,*,#435,.T.);
#613=ORIENTED_EDGE('',*,*,#396,.F.);
#614=ORIENTED_EDGE('',*,*,#439,.F.);
#615=ORIENTED_EDGE('',*,*,#440,.T.);
#616=ORIENTED_EDGE('',*,*,#437,.T.);
#617=ORIENTED_EDGE('',*,*,#393,.F.);
#618=ORIENTED_EDGE('',*,*,#441,.F.);
#619=ORIENTED_EDGE('',*,*,#442,.F.);
#620=ORIENTED_EDGE('',*,*,#439,.T.);
#621=ORIENTED_EDGE('',*,*,#390,.F.);
#622=ORIENTED_EDGE('',*,*,#443,.F.);
#623=ORIENTED_EDGE('',*,*,#444,.T.);
#624=ORIENTED_EDGE('',*,*,#441,.T.);
#625=ORIENTED_EDGE('',*,*,#387,.F.);
#626=ORIENTED_EDGE('',*,*,#445,.F.);
#627=ORIENTED_EDGE('',*,*,#446,.T.);
#628=ORIENTED_EDGE('',*,*,#443,.T.);
#629=ORIENTED_EDGE('',*,*,#384,.F.);
#630=ORIENTED_EDGE('',*,*,#413,.F.);
#631=ORIENTED_EDGE('',*,*,#447,.F.);
#632=ORIENTED_EDGE('',*,*,#445,.T.);
#633=ORIENTED_EDGE('',*,*,#410,.F.);
#634=ORIENTED_EDGE('',*,*,#448,.F.);
#635=ORIENTED_EDGE('',*,*,#449,.T.);
#636=ORIENTED_EDGE('',*,*,#430,.T.);
#637=ORIENTED_EDGE('',*,*,#408,.F.);
#638=ORIENTED_EDGE('',*,*,#434,.F.);
#639=ORIENTED_EDGE('',*,*,#450,.T.);
#640=ORIENTED_EDGE('',*,*,#448,.T.);
#641=ORIENTED_EDGE('',*,*,#450,.F.);
#642=ORIENTED_EDGE('',*,*,#433,.T.);
#643=ORIENTED_EDGE('',*,*,#436,.F.);
#644=ORIENTED_EDGE('',*,*,#438,.T.);
#645=ORIENTED_EDGE('',*,*,#440,.F.);
#646=ORIENTED_EDGE('',*,*,#442,.T.);
#647=ORIENTED_EDGE('',*,*,#444,.F.);
#648=ORIENTED_EDGE('',*,*,#446,.F.);
#649=ORIENTED_EDGE('',*,*,#447,.T.);
#650=ORIENTED_EDGE('',*,*,#412,.F.);
#651=ORIENTED_EDGE('',*,*,#415,.F.);
#652=ORIENTED_EDGE('',*,*,#417,.T.);
#653=ORIENTED_EDGE('',*,*,#419,.F.);
#654=ORIENTED_EDGE('',*,*,#421,.T.);
#655=ORIENTED_EDGE('',*,*,#423,.F.);
#656=ORIENTED_EDGE('',*,*,#425,.T.);
#657=ORIENTED_EDGE('',*,*,#427,.F.);
#658=ORIENTED_EDGE('',*,*,#429,.F.);
#659=ORIENTED_EDGE('',*,*,#431,.T.);
#660=ORIENTED_EDGE('',*,*,#449,.F.);
#661=ORIENTED_EDGE('',*,*,#345,.T.);
#662=ORIENTED_EDGE('',*,*,#348,.T.);
#663=CYLINDRICAL_SURFACE('',#743,10.);
#664=CYLINDRICAL_SURFACE('',#746,10.);
#665=CYLINDRICAL_SURFACE('',#809,10.);
#666=CYLINDRICAL_SURFACE('',#811,40.);
#667=CYLINDRICAL_SURFACE('',#813,10.0000000000001);
#668=CYLINDRICAL_SURFACE('',#815,40.);
#669=CYLINDRICAL_SURFACE('',#817,9.99999999999992);
#670=CYLINDRICAL_SURFACE('',#819,40.);
#671=CYLINDRICAL_SURFACE('',#821,10.);
#672=CYLINDRICAL_SURFACE('',#823,40.);
#673=CYLINDRICAL_SURFACE('',#825,9.99999999999998);
#674=CYLINDRICAL_SURFACE('',#827,15.);
#675=CYLINDRICAL_SURFACE('',#830,19.9999999999998);
#676=CYLINDRICAL_SURFACE('',#832,40.);
#677=CYLINDRICAL_SURFACE('',#834,4.99999999999989);
#678=CYLINDRICAL_SURFACE('',#836,40.);
#679=CYLINDRICAL_SURFACE('',#838,10.0000000000001);
#680=CYLINDRICAL_SURFACE('',#840,40.);
#681=CYLINDRICAL_SURFACE('',#842,9.99999999999999);
#682=CYLINDRICAL_SURFACE('',#844,15.);
#683=CYLINDRICAL_SURFACE('',#846,9.99999999999999);
#684=CYLINDRICAL_SURFACE('',#848,40.);
#685=ADVANCED_FACE('',(#41),#663,.F.);
#686=ADVANCED_FACE('',(#42),#664,.F.);
#687=ADVANCED_FACE('',(#43),#21,.F.);
#688=ADVANCED_FACE('',(#44),#22,.T.);
#689=ADVANCED_FACE('',(#45),#23,.T.);
#690=ADVANCED_FACE('',(#46),#24,.F.);
#691=ADVANCED_FACE('',(#47),#25,.T.);
#692=ADVANCED_FACE('',(#48),#26,.F.);
#693=ADVANCED_FACE('',(#49),#27,.T.);
#694=ADVANCED_FACE('',(#50),#28,.F.);
#695=ADVANCED_FACE('',(#51),#29,.T.);
#696=ADVANCED_FACE('',(#52),#30,.T.);
#697=ADVANCED_FACE('',(#53),#31,.F.);
#698=ADVANCED_FACE('',(#54),#32,.T.);
#699=ADVANCED_FACE('',(#55),#33,.T.);
#700=ADVANCED_FACE('',(#56),#34,.F.);
#701=ADVANCED_FACE('',(#57),#35,.T.);
#702=ADVANCED_FACE('',(#58),#36,.F.);
#703=ADVANCED_FACE('',(#59),#37,.T.);
#704=ADVANCED_FACE('',(#60),#38,.F.);
#705=ADVANCED_FACE('',(#61),#39,.T.);
#706=ADVANCED_FACE('',(#62),#40,.T.);
#707=ADVANCED_FACE('',(#63),#665,.T.);
#708=ADVANCED_FACE('',(#64),#666,.T.);
#709=ADVANCED_FACE('',(#65),#667,.F.);
#710=ADVANCED_FACE('',(#66),#668,.T.);
#711=ADVANCED_FACE('',(#67),#669,.F.);
#712=ADVANCED_FACE('',(#68),#670,.T.);
#713=ADVANCED_FACE('',(#69),#671,.F.);
#714=ADVANCED_FACE('',(#70),#672,.T.);
#715=ADVANCED_FACE('',(#71),#673,.T.);
#716=ADVANCED_FACE('',(#72),#674,.F.);
#717=ADVANCED_FACE('',(#73,#15,#16),#19,.T.);
#718=ADVANCED_FACE('',(#74),#675,.F.);
#719=ADVANCED_FACE('',(#75),#676,.T.);
#720=ADVANCED_FACE('',(#76),#677,.F.);
#721=ADVANCED_FACE('',(#77),#678,.T.);
#722=ADVANCED_FACE('',(#78),#679,.F.);
#723=ADVANCED_FACE('',(#79),#680,.T.);
#724=ADVANCED_FACE('',(#80),#681,.T.);
#725=ADVANCED_FACE('',(#81),#682,.F.);
#726=ADVANCED_FACE('',(#82),#683,.T.);
#727=ADVANCED_FACE('',(#83),#684,.T.);
#728=ADVANCED_FACE('',(#84,#17,#18),#20,.F.);
#729=CLOSED_SHELL('',(#685,#686,#687,#688,#689,#690,#691,#692,#693,#694,
#695,#696,#697,#698,#699,#700,#701,#702,#703,#704,#705,#706,#707,#708,#709,
#710,#711,#712,#713,#714,#715,#716,#717,#718,#719,#720,#721,#722,#723,#724,
#725,#726,#727,#728));
#730=DERIVED_UNIT_ELEMENT(#732,1.);
#731=DERIVED_UNIT_ELEMENT(#1331,3.);
#732=(
MASS_UNIT()
NAMED_UNIT(*)
SI_UNIT(.KILO.,.GRAM.)
);
#733=DERIVED_UNIT((#730,#731));
#734=MEASURE_REPRESENTATION_ITEM('density measure',
POSITIVE_RATIO_MEASURE(7850.),#733);
#735=PROPERTY_DEFINITION_REPRESENTATION(#740,#737);
#736=PROPERTY_DEFINITION_REPRESENTATION(#741,#738);
#737=REPRESENTATION('material name',(#739),#1328);
#738=REPRESENTATION('density',(#734),#1328);
#739=DESCRIPTIVE_REPRESENTATION_ITEM('Steel','Steel');
#740=PROPERTY_DEFINITION('material property','material name',#1338);
#741=PROPERTY_DEFINITION('material property','density of part',#1338);
#742=AXIS2_PLACEMENT_3D('placement',#1111,#851,#852);
#743=AXIS2_PLACEMENT_3D('',#1112,#853,#854);
#744=AXIS2_PLACEMENT_3D('',#1114,#855,#856);
#745=AXIS2_PLACEMENT_3D('',#1117,#858,#859);
#746=AXIS2_PLACEMENT_3D('',#1118,#860,#861);
#747=AXIS2_PLACEMENT_3D('',#1120,#862,#863);
#748=AXIS2_PLACEMENT_3D('',#1123,#865,#866);
#749=AXIS2_PLACEMENT_3D('',#1124,#867,#868);
#750=AXIS2_PLACEMENT_3D('',#1129,#870,#871);
#751=AXIS2_PLACEMENT_3D('',#1132,#873,#874);
#752=AXIS2_PLACEMENT_3D('',#1133,#875,#876);
#753=AXIS2_PLACEMENT_3D('',#1137,#878,#879);
#754=AXIS2_PLACEMENT_3D('',#1138,#880,#881);
#755=AXIS2_PLACEMENT_3D('',#1139,#882,#883);
#756=AXIS2_PLACEMENT_3D('',#1143,#885,#886);
#757=AXIS2_PLACEMENT_3D('',#1144,#887,#888);
#758=AXIS2_PLACEMENT_3D('',#1145,#889,#890);
#759=AXIS2_PLACEMENT_3D('',#1149,#892,#893);
#760=AXIS2_PLACEMENT_3D('',#1150,#894,#895);
#761=AXIS2_PLACEMENT_3D('',#1151,#896,#897);
#762=AXIS2_PLACEMENT_3D('',#1155,#899,#900);
#763=AXIS2_PLACEMENT_3D('',#1156,#901,#902);
#764=AXIS2_PLACEMENT_3D('',#1157,#903,#904);
#765=AXIS2_PLACEMENT_3D('',#1161,#906,#907);
#766=AXIS2_PLACEMENT_3D('',#1162,#908,#909);
#767=AXIS2_PLACEMENT_3D('',#1163,#910,#911);
#768=AXIS2_PLACEMENT_3D('',#1167,#913,#914);
#769=AXIS2_PLACEMENT_3D('',#1168,#915,#916);
#770=AXIS2_PLACEMENT_3D('',#1169,#917,#918);
#771=AXIS2_PLACEMENT_3D('',#1173,#920,#921);
#772=AXIS2_PLACEMENT_3D('',#1174,#922,#923);
#773=AXIS2_PLACEMENT_3D('',#1175,#924,#925);
#774=AXIS2_PLACEMENT_3D('',#1179,#927,#928);
#775=AXIS2_PLACEMENT_3D('',#1180,#929,#930);
#776=AXIS2_PLACEMENT_3D('',#1181,#931,#932);
#777=AXIS2_PLACEMENT_3D('',#1185,#934,#935);
#778=AXIS2_PLACEMENT_3D('',#1186,#936,#937);
#779=AXIS2_PLACEMENT_3D('',#1187,#938,#939);
#780=AXIS2_PLACEMENT_3D('',#1191,#941,#942);
#781=AXIS2_PLACEMENT_3D('',#1192,#943,#944);
#782=AXIS2_PLACEMENT_3D('',#1193,#945,#946);
#783=AXIS2_PLACEMENT_3D('',#1197,#948,#949);
#784=AXIS2_PLACEMENT_3D('',#1198,#950,#951);
#785=AXIS2_PLACEMENT_3D('',#1199,#952,#953);
#786=AXIS2_PLACEMENT_3D('',#1203,#955,#956);
#787=AXIS2_PLACEMENT_3D('',#1204,#957,#958);
#788=AXIS2_PLACEMENT_3D('',#1205,#959,#960);
#789=AXIS2_PLACEMENT_3D('',#1209,#962,#963);
#790=AXIS2_PLACEMENT_3D('',#1210,#964,#965);
#791=AXIS2_PLACEMENT_3D('',#1211,#966,#967);
#792=AXIS2_PLACEMENT_3D('',#1215,#969,#970);
#793=AXIS2_PLACEMENT_3D('',#1216,#971,#972);
#794=AXIS2_PLACEMENT_3D('',#1217,#973,#974);
#795=AXIS2_PLACEMENT_3D('',#1221,#976,#977);
#796=AXIS2_PLACEMENT_3D('',#1222,#978,#979);
#797=AXIS2_PLACEMENT_3D('',#1223,#980,#981);
#798=AXIS2_PLACEMENT_3D('',#1227,#983,#984);
#799=AXIS2_PLACEMENT_3D('',#1228,#985,#986);
#800=AXIS2_PLACEMENT_3D('',#1229,#987,#988);
#801=AXIS2_PLACEMENT_3D('',#1233,#990,#991);
#802=AXIS2_PLACEMENT_3D('',#1234,#992,#993);
#803=AXIS2_PLACEMENT_3D('',#1235,#994,#995);
#804=AXIS2_PLACEMENT_3D('',#1239,#997,#998);
#805=AXIS2_PLACEMENT_3D('',#1240,#999,#1000);
#806=AXIS2_PLACEMENT_3D('',#1241,#1001,#1002);
#807=AXIS2_PLACEMENT_3D('',#1242,#1003,#1004);
#808=AXIS2_PLACEMENT_3D('',#1243,#1005,#1006);
#809=AXIS2_PLACEMENT_3D('',#1244,#1007,#1008);
#810=AXIS2_PLACEMENT_3D('',#1248,#1010,#1011);
#811=AXIS2_PLACEMENT_3D('',#1250,#1013,#1014);
#812=AXIS2_PLACEMENT_3D('',#1253,#1016,#1017);
#813=AXIS2_PLACEMENT_3D('',#1254,#1018,#1019);
#814=AXIS2_PLACEMENT_3D('',#1257,#1021,#1022);
#815=AXIS2_PLACEMENT_3D('',#1258,#1023,#1024);
#816=AXIS2_PLACEMENT_3D('',#1261,#1026,#1027);
#817=AXIS2_PLACEMENT_3D('',#1262,#1028,#1029);
#818=AXIS2_PLACEMENT_3D('',#1265,#1031,#1032);
#819=AXIS2_PLACEMENT_3D('',#1266,#1033,#1034);
#820=AXIS2_PLACEMENT_3D('',#1269,#1036,#1037);
#821=AXIS2_PLACEMENT_3D('',#1270,#1038,#1039);
#822=AXIS2_PLACEMENT_3D('',#1273,#1041,#1042);
#823=AXIS2_PLACEMENT_3D('',#1274,#1043,#1044);
#824=AXIS2_PLACEMENT_3D('',#1277,#1046,#1047);
#825=AXIS2_PLACEMENT_3D('',#1278,#1048,#1049);
#826=AXIS2_PLACEMENT_3D('',#1281,#1051,#1052);
#827=AXIS2_PLACEMENT_3D('',#1282,#1053,#1054);
#828=AXIS2_PLACEMENT_3D('',#1285,#1056,#1057);
#829=AXIS2_PLACEMENT_3D('',#1286,#1058,#1059);
#830=AXIS2_PLACEMENT_3D('',#1287,#1060,#1061);
#831=AXIS2_PLACEMENT_3D('',#1291,#1063,#1064);
#832=AXIS2_PLACEMENT_3D('',#1293,#1066,#1067);
#833=AXIS2_PLACEMENT_3D('',#1296,#1069,#1070);
#834=AXIS2_PLACEMENT_3D('',#1297,#1071,#1072);
#835=AXIS2_PLACEMENT_3D('',#1300,#1074,#1075);
#836=AXIS2_PLACEMENT_3D('',#1301,#1076,#1077);
#837=AXIS2_PLACEMENT_3D('',#1304,#1079,#1080);
#838=AXIS2_PLACEMENT_3D('',#1305,#1081,#1082);
#839=AXIS2_PLACEMENT_3D('',#1308,#1084,#1085);
#840=AXIS2_PLACEMENT_3D('',#1309,#1086,#1087);
#841=AXIS2_PLACEMENT_3D('',#1312,#1089,#1090);
#842=AXIS2_PLACEMENT_3D('',#1313,#1091,#1092);
#843=AXIS2_PLACEMENT_3D('',#1316,#1094,#1095);
#844=AXIS2_PLACEMENT_3D('',#1317,#1096,#1097);
#845=AXIS2_PLACEMENT_3D('',#1318,#1098,#1099);
#846=AXIS2_PLACEMENT_3D('',#1319,#1100,#1101);
#847=AXIS2_PLACEMENT_3D('',#1322,#1103,#1104);
#848=AXIS2_PLACEMENT_3D('',#1323,#1105,#1106);
#849=AXIS2_PLACEMENT_3D('',#1324,#1107,#1108);
#850=AXIS2_PLACEMENT_3D('',#1325,#1109,#1110);
#851=DIRECTION('axis',(0.,0.,1.));
#852=DIRECTION('refdir',(1.,0.,0.));
#853=DIRECTION('center_axis',(0.,0.,1.));
#854=DIRECTION('ref_axis',(1.,0.,0.));
#855=DIRECTION('center_axis',(0.,0.,1.));
#856=DIRECTION('ref_axis',(1.,0.,0.));
#857=DIRECTION('',(0.,0.,1.));
#858=DIRECTION('center_axis',(0.,0.,-1.));
#859=DIRECTION('ref_axis',(1.,0.,0.));
#860=DIRECTION('center_axis',(0.,0.,1.));
#861=DIRECTION('ref_axis',(1.,0.,0.));
#862=DIRECTION('center_axis',(0.,0.,1.));
#863=DIRECTION('ref_axis',(1.,0.,0.));
#864=DIRECTION('',(0.,0.,1.));
#865=DIRECTION('center_axis',(0.,0.,-1.));
#866=DIRECTION('ref_axis',(1.,0.,0.));
#867=DIRECTION('center_axis',(0.,0.,1.));
#868=DIRECTION('ref_axis',(-0.6625,0.749061913328932,0.));
#869=DIRECTION('',(-0.468458242536088,0.529666758443459,0.707106781186546));
#870=DIRECTION('center_axis',(0.,0.,1.));
#871=DIRECTION('ref_axis',(-0.6625,0.749061913328932,0.));
#872=DIRECTION('',(0.468458242536088,0.529666758443459,-0.707106781186546));
#873=DIRECTION('center_axis',(0.,0.,-1.));
#874=DIRECTION('ref_axis',(-0.6625,0.749061913328932,0.));
#875=DIRECTION('center_axis',(0.,0.,-1.));
#876=DIRECTION('ref_axis',(0.662499999999999,-0.749061913328932,0.));
#877=DIRECTION('',(-0.552427172801988,-0.441388965369549,0.707106781186548));
#878=DIRECTION('center_axis',(0.,0.,-1.));
#879=DIRECTION('ref_axis',(0.662499999999999,-0.749061913328932,0.));
#880=DIRECTION('center_axis',(0.,0.,1.));
#881=DIRECTION('ref_axis',(0.662499999999999,-0.749061913328932,0.));
#882=DIRECTION('center_axis',(0.,0.,-1.));
#883=DIRECTION('ref_axis',(0.78125,0.624218261107443,0.));
#884=DIRECTION('',(0.176776695296638,-0.684653196881457,0.707106781186548));
#885=DIRECTION('center_axis',(0.,0.,-1.));
#886=DIRECTION('ref_axis',(0.78125,0.624218261107443,0.));
#887=DIRECTION('center_axis',(0.,0.,1.));
#888=DIRECTION('ref_axis',(0.78125,0.624218261107443,0.));
#889=DIRECTION('center_axis',(0.,0.,1.));
#890=DIRECTION('ref_axis',(-0.249999999999999,-0.968245836551854,0.));
#891=DIRECTION('',(-0.176776695296636,-0.684653196881458,0.707106781186548));
#892=DIRECTION('center_axis',(0.,0.,1.));
#893=DIRECTION('ref_axis',(-0.249999999999999,-0.968245836551855,0.));
#894=DIRECTION('center_axis',(0.,0.,-1.));
#895=DIRECTION('ref_axis',(-0.249999999999999,-0.968245836551854,0.));
#896=DIRECTION('center_axis',(0.,0.,-1.));
#897=DIRECTION('ref_axis',(0.25,0.968245836551854,0.));
#898=DIRECTION('',(0.176776695296638,-0.684653196881457,0.707106781186548));
#899=DIRECTION('center_axis',(0.,0.,-1.));
#900=DIRECTION('ref_axis',(0.25,0.968245836551854,0.));
#901=DIRECTION('center_axis',(0.,0.,1.));
#902=DIRECTION('ref_axis',(0.25,0.968245836551854,0.));
#903=DIRECTION('center_axis',(0.,0.,1.));
#904=DIRECTION('ref_axis',(-0.250000000000002,-0.968245836551854,0.));
#905=DIRECTION('',(-0.176776695296638,-0.684653196881457,0.707106781186547));
#906=DIRECTION('center_axis',(0.,0.,1.));
#907=DIRECTION('ref_axis',(-0.250000000000002,-0.968245836551854,0.));
#908=DIRECTION('center_axis',(0.,0.,-1.));
#909=DIRECTION('ref_axis',(-0.250000000000002,-0.968245836551854,0.));
#910=DIRECTION('center_axis',(0.,0.,-1.));
#911=DIRECTION('ref_axis',(0.249999999999999,0.968245836551854,0.));
#912=DIRECTION('',(0.176776695296636,-0.684653196881457,0.707106781186548));
#913=DIRECTION('center_axis',(0.,0.,-1.));
#914=DIRECTION('ref_axis',(0.249999999999999,0.968245836551854,0.));
#915=DIRECTION('center_axis',(0.,0.,1.));
#916=DIRECTION('ref_axis',(0.249999999999999,0.968245836551854,0.));
#917=DIRECTION('center_axis',(0.,0.,1.));
#918=DIRECTION('ref_axis',(-0.25,-0.968245836551854,0.));
#919=DIRECTION('',(-0.176776695296637,-0.684653196881458,0.707106781186548));
#920=DIRECTION('center_axis',(0.,0.,1.));
#921=DIRECTION('ref_axis',(-0.25,-0.968245836551854,0.));
#922=DIRECTION('center_axis',(0.,0.,-1.));
#923=DIRECTION('ref_axis',(-0.25,-0.968245836551854,0.));
#924=DIRECTION('center_axis',(0.,0.,-1.));
#925=DIRECTION('ref_axis',(0.25,0.968245836551854,0.));
#926=DIRECTION('',(0.55242717280199,-0.441388965369548,0.707106781186548));
#927=DIRECTION('center_axis',(0.,0.,-1.));
#928=DIRECTION('ref_axis',(0.25,0.968245836551854,0.));
#929=DIRECTION('center_axis',(0.,0.,1.));
#930=DIRECTION('ref_axis',(0.25,0.968245836551854,0.));
#931=DIRECTION('center_axis',(0.,0.,-1.));
#932=DIRECTION('ref_axis',(-0.781250000000002,0.624218261107441,0.));
#933=DIRECTION('',(0.468458242536089,0.529666758443457,0.707106781186547));
#934=DIRECTION('center_axis',(0.,0.,-1.));
#935=DIRECTION('ref_axis',(-0.781250000000002,0.624218261107441,0.));
#936=DIRECTION('center_axis',(0.,0.,1.));
#937=DIRECTION('ref_axis',(-0.781250000000002,0.624218261107441,0.));
#938=DIRECTION('center_axis',(0.,0.,1.));
#939=DIRECTION('ref_axis',(0.6625,-0.749061913328932,0.));
#940=DIRECTION('',(0.468458242536087,-0.529666758443458,0.707106781186547));
#941=DIRECTION('center_axis',(0.,0.,1.));
#942=DIRECTION('ref_axis',(0.6625,-0.749061913328932,0.));
#943=DIRECTION('center_axis',(0.,0.,-1.));
#944=DIRECTION('ref_axis',(0.6625,-0.749061913328932,0.));
#945=DIRECTION('center_axis',(0.,0.,-1.));
#946=DIRECTION('ref_axis',(-0.662499999999999,0.749061913328933,0.));
#947=DIRECTION('',(0.55242717280199,0.441388965369548,0.707106781186548));
#948=DIRECTION('center_axis',(0.,0.,-1.));
#949=DIRECTION('ref_axis',(-0.662499999999998,0.749061913328933,0.));
#950=DIRECTION('center_axis',(0.,0.,1.));
#951=DIRECTION('ref_axis',(-0.662499999999999,0.749061913328933,0.));
#952=DIRECTION('center_axis',(0.,0.,-1.));
#953=DIRECTION('ref_axis',(-0.781250000000001,-0.624218261107442,0.));
#954=DIRECTION('',(-0.176776695296637,0.684653196881458,0.707106781186548));
#955=DIRECTION('center_axis',(0.,0.,-1.));
#956=DIRECTION('ref_axis',(-0.781250000000001,-0.624218261107442,0.));
#957=DIRECTION('center_axis',(0.,0.,1.));
#958=DIRECTION('ref_axis',(-0.781250000000001,-0.624218261107442,0.));
#959=DIRECTION('center_axis',(0.,0.,1.));
#960=DIRECTION('ref_axis',(0.25,0.968245836551854,0.));
#961=DIRECTION('',(0.176776695296637,0.684653196881458,0.707106781186547));
#962=DIRECTION('center_axis',(0.,0.,1.));
#963=DIRECTION('ref_axis',(0.25,0.968245836551854,0.));
#964=DIRECTION('center_axis',(0.,0.,-1.));
#965=DIRECTION('ref_axis',(0.25,0.968245836551854,0.));
#966=DIRECTION('center_axis',(0.,0.,-1.));
#967=DIRECTION('ref_axis',(-0.249999999999999,-0.968245836551854,0.));
#968=DIRECTION('',(-0.196418550329596,0.679278847813194,0.707106781186548));
#969=DIRECTION('center_axis',(0.,0.,-1.));
#970=DIRECTION('ref_axis',(-0.249999999999999,-0.968245836551854,0.));
#971=DIRECTION('center_axis',(0.,0.,1.));
#972=DIRECTION('ref_axis',(-0.249999999999999,-0.968245836551854,0.));
#973=DIRECTION('center_axis',(0.,0.,1.));
#974=DIRECTION('ref_axis',(0.277777777777784,0.960645359210586,0.));
#975=DIRECTION('',(0.196418550329601,0.679278847813192,0.707106781186547));
#976=DIRECTION('center_axis',(0.,0.,1.));
#977=DIRECTION('ref_axis',(0.277777777777784,0.960645359210586,0.));
#978=DIRECTION('center_axis',(0.,0.,-1.));
#979=DIRECTION('ref_axis',(0.277777777777784,0.960645359210586,0.));
#980=DIRECTION('center_axis',(0.,0.,-1.));
#981=DIRECTION('ref_axis',(-0.277777777777778,-0.960645359210588,0.));
#982=DIRECTION('',(-0.147313912747198,0.691591361362409,0.707106781186548));
#983=DIRECTION('center_axis',(0.,0.,-1.));
#984=DIRECTION('ref_axis',(-0.277777777777778,-0.960645359210588,0.));
#985=DIRECTION('center_axis',(0.,0.,1.));
#986=DIRECTION('ref_axis',(-0.277777777777778,-0.960645359210588,0.));
#987=DIRECTION('center_axis',(0.,0.,1.));
#988=DIRECTION('ref_axis',(0.208333333333336,0.978057882858791,0.));
#989=DIRECTION('',(0.147313912747199,0.69159136136241,0.707106781186547));
#990=DIRECTION('center_axis',(0.,0.,1.));
#991=DIRECTION('ref_axis',(0.208333333333336,0.978057882858791,0.));
#992=DIRECTION('center_axis',(0.,0.,-1.));
#993=DIRECTION('ref_axis',(0.208333333333336,0.978057882858791,0.));
#994=DIRECTION('center_axis',(0.,0.,-1.));
#995=DIRECTION('ref_axis',(-0.208333333333334,-0.978057882858792,0.));
#996=DIRECTION('',(-0.55242717280199,0.441388965369547,0.707106781186548));
#997=DIRECTION('center_axis',(0.,0.,-1.));
#998=DIRECTION('ref_axis',(-0.208333333333334,-0.978057882858792,0.));
#999=DIRECTION('center_axis',(0.,0.,1.));
#1000=DIRECTION('ref_axis',(-0.208333333333334,-0.978057882858792,0.));
#1001=DIRECTION('center_axis',(0.,0.,-1.));
#1002=DIRECTION('ref_axis',(0.78125,-0.624218261107442,0.));
#1003=DIRECTION('center_axis',(0.,0.,-1.));
#1004=DIRECTION('ref_axis',(0.78125,-0.624218261107442,0.));
#1005=DIRECTION('center_axis',(0.,0.,1.));
#1006=DIRECTION('ref_axis',(0.78125,-0.624218261107443,0.));
#1007=DIRECTION('center_axis',(0.,0.,1.));
#1008=DIRECTION('ref_axis',(-0.781250000000002,0.624218261107441,0.));
#1009=DIRECTION('',(0.,0.,1.));
#1010=DIRECTION('center_axis',(0.,0.,1.));
#1011=DIRECTION('ref_axis',(-0.781250000000002,0.624218261107441,0.));
#1012=DIRECTION('',(0.,0.,1.));
#1013=DIRECTION('center_axis',(0.,0.,1.));
#1014=DIRECTION('ref_axis',(0.25,0.968245836551854,0.));
#1015=DIRECTION('',(0.,0.,1.));
#1016=DIRECTION('center_axis',(0.,0.,1.));
#1017=DIRECTION('ref_axis',(0.25,0.968245836551854,0.));
#1018=DIRECTION('center_axis',(0.,0.,1.));
#1019=DIRECTION('ref_axis',(-0.25,-0.968245836551854,0.));
#1020=DIRECTION('',(0.,0.,1.));
#1021=DIRECTION('center_axis',(0.,0.,1.));
#1022=DIRECTION('ref_axis',(-0.25,-0.968245836551854,0.));
#1023=DIRECTION('center_axis',(0.,0.,1.));
#1024=DIRECTION('ref_axis',(0.249999999999999,0.968245836551854,0.));
#1025=DIRECTION('',(0.,0.,1.));
#1026=DIRECTION('center_axis',(0.,0.,1.));
#1027=DIRECTION('ref_axis',(0.249999999999999,0.968245836551854,0.));
#1028=DIRECTION('center_axis',(0.,0.,1.));
#1029=DIRECTION('ref_axis',(-0.250000000000002,-0.968245836551854,0.));
#1030=DIRECTION('',(0.,0.,1.));
#1031=DIRECTION('center_axis',(0.,0.,1.));
#1032=DIRECTION('ref_axis',(-0.250000000000002,-0.968245836551854,0.));
#1033=DIRECTION('center_axis',(0.,0.,1.));
#1034=DIRECTION('ref_axis',(0.25,0.968245836551854,0.));
#1035=DIRECTION('',(0.,0.,1.));
#1036=DIRECTION('center_axis',(0.,0.,1.));
#1037=DIRECTION('ref_axis',(0.25,0.968245836551854,0.));
#1038=DIRECTION('center_axis',(0.,0.,1.));
#1039=DIRECTION('ref_axis',(-0.249999999999999,-0.968245836551855,0.));
#1040=DIRECTION('',(0.,0.,1.));
#1041=DIRECTION('center_axis',(0.,0.,1.));
#1042=DIRECTION('ref_axis',(-0.249999999999999,-0.968245836551855,0.));
#1043=DIRECTION('center_axis',(0.,0.,1.));
#1044=DIRECTION('ref_axis',(0.78125,0.624218261107443,0.));
#1045=DIRECTION('',(0.,0.,1.));
#1046=DIRECTION('center_axis',(0.,0.,1.));
#1047=DIRECTION('ref_axis',(0.78125,0.624218261107443,0.));
#1048=DIRECTION('center_axis',(0.,0.,1.));
#1049=DIRECTION('ref_axis',(0.662499999999999,-0.749061913328932,0.));
#1050=DIRECTION('',(0.,0.,1.));
#1051=DIRECTION('center_axis',(0.,0.,1.));
#1052=DIRECTION('ref_axis',(0.662499999999999,-0.749061913328932,0.));
#1053=DIRECTION('center_axis',(0.,0.,1.));
#1054=DIRECTION('ref_axis',(-0.6625,0.749061913328932,0.));
#1055=DIRECTION('',(0.,0.,1.));
#1056=DIRECTION('center_axis',(0.,0.,1.));
#1057=DIRECTION('ref_axis',(-0.6625,0.749061913328932,0.));
#1058=DIRECTION('center_axis',(0.,0.,1.));
#1059=DIRECTION('ref_axis',(1.,0.,0.));
#1060=DIRECTION('center_axis',(0.,0.,1.));
#1061=DIRECTION('ref_axis',(0.208333333333336,0.978057882858791,0.));
#1062=DIRECTION('',(0.,0.,1.));
#1063=DIRECTION('center_axis',(0.,0.,1.));
#1064=DIRECTION('ref_axis',(0.208333333333336,0.978057882858791,0.));
#1065=DIRECTION('',(0.,0.,1.));
#1066=DIRECTION('center_axis',(0.,0.,1.));
#1067=DIRECTION('ref_axis',(-0.277777777777778,-0.960645359210588,0.));
#1068=DIRECTION('',(0.,0.,1.));
#1069=DIRECTION('center_axis',(0.,0.,1.));
#1070=DIRECTION('ref_axis',(-0.277777777777778,-0.960645359210588,0.));
#1071=DIRECTION('center_axis',(0.,0.,1.));
#1072=DIRECTION('ref_axis',(0.277777777777784,0.960645359210586,0.));
#1073=DIRECTION('',(0.,0.,1.));
#1074=DIRECTION('center_axis',(0.,0.,1.));
#1075=DIRECTION('ref_axis',(0.277777777777784,0.960645359210586,0.));
#1076=DIRECTION('center_axis',(0.,0.,1.));
#1077=DIRECTION('ref_axis',(-0.249999999999999,-0.968245836551854,0.));
#1078=DIRECTION('',(0.,0.,1.));
#1079=DIRECTION('center_axis',(0.,0.,1.));
#1080=DIRECTION('ref_axis',(-0.249999999999999,-0.968245836551854,0.));
#1081=DIRECTION('center_axis',(0.,0.,1.));
#1082=DIRECTION('ref_axis',(0.25,0.968245836551854,0.));
#1083=DIRECTION('',(0.,0.,1.));
#1084=DIRECTION('center_axis',(0.,0.,1.));
#1085=DIRECTION('ref_axis',(0.25,0.968245836551854,0.));
#1086=DIRECTION('center_axis',(0.,0.,1.));
#1087=DIRECTION('ref_axis',(-0.781250000000001,-0.624218261107442,0.));
#1088=DIRECTION('',(0.,0.,1.));
#1089=DIRECTION('center_axis',(0.,0.,1.));
#1090=DIRECTION('ref_axis',(-0.781250000000001,-0.624218261107442,0.));
#1091=DIRECTION('center_axis',(0.,0.,1.));
#1092=DIRECTION('ref_axis',(-0.662499999999999,0.749061913328933,0.));
#1093=DIRECTION('',(0.,0.,1.));
#1094=DIRECTION('center_axis',(0.,0.,1.));
#1095=DIRECTION('ref_axis',(-0.662499999999999,0.749061913328933,0.));
#1096=DIRECTION('center_axis',(0.,0.,1.));
#1097=DIRECTION('ref_axis',(0.6625,-0.749061913328932,0.));
#1098=DIRECTION('center_axis',(0.,0.,1.));
#1099=DIRECTION('ref_axis',(0.6625,-0.749061913328932,0.));
#1100=DIRECTION('center_axis',(0.,0.,1.));
#1101=DIRECTION('ref_axis',(0.78125,-0.624218261107443,0.));
#1102=DIRECTION('',(0.,0.,1.));
#1103=DIRECTION('center_axis',(0.,0.,1.));
#1104=DIRECTION('ref_axis',(0.78125,-0.624218261107443,0.));
#1105=DIRECTION('center_axis',(0.,0.,1.));
#1106=DIRECTION('ref_axis',(-0.208333333333334,-0.978057882858792,0.));
#1107=DIRECTION('center_axis',(0.,0.,1.));
#1108=DIRECTION('ref_axis',(-0.208333333333334,-0.978057882858792,0.));
#1109=DIRECTION('center_axis',(0.,0.,1.));
#1110=DIRECTION('ref_axis',(1.,0.,0.));
#1111=CARTESIAN_POINT('',(0.,0.,0.));
#1112=CARTESIAN_POINT('Origin',(0.,0.,0.));
#1113=CARTESIAN_POINT('',(-10.,-1.22464679914735E-15,0.));
#1114=CARTESIAN_POINT('Origin',(0.,0.,0.));
#1115=CARTESIAN_POINT('',(-10.,1.22464679914735E-15,40.));
#1116=CARTESIAN_POINT('',(-10.,-1.22464679914735E-15,0.));
#1117=CARTESIAN_POINT('Origin',(0.,0.,40.));
#1118=CARTESIAN_POINT('Origin',(75.,0.,0.));
#1119=CARTESIAN_POINT('',(65.,-1.22464679914735E-15,0.));
#1120=CARTESIAN_POINT('Origin',(75.,0.,0.));
#1121=CARTESIAN_POINT('',(65.,1.22464679914735E-15,40.));
#1122=CARTESIAN_POINT('',(65.,-1.22464679914735E-15,0.));
#1123=CARTESIAN_POINT('Origin',(75.,0.,40.));
#1124=CARTESIAN_POINT('Origin',(115.,0.,37.5));
#1125=CARTESIAN_POINT('',(105.0625,11.235928699934,35.));
#1126=CARTESIAN_POINT('',(101.75,14.9812382665786,40.));
#1127=CARTESIAN_POINT('',(105.0625,11.235928699934,35.));
#1128=CARTESIAN_POINT('',(101.75,-14.9812382665786,40.));
#1129=CARTESIAN_POINT('Origin',(115.,0.,40.));
#1130=CARTESIAN_POINT('',(105.0625,-11.235928699934,35.));
#1131=CARTESIAN_POINT('',(101.75,-14.9812382665786,40.));
#1132=CARTESIAN_POINT('Origin',(115.,0.,35.));
#1133=CARTESIAN_POINT('Origin',(98.4375,18.7265478332233,37.5));
#1134=CARTESIAN_POINT('',(106.25,24.9687304442977,35.));
#1135=CARTESIAN_POINT('',(102.34375,21.8476391387605,40.));
#1136=CARTESIAN_POINT('',(106.25,24.9687304442977,35.));
#1137=CARTESIAN_POINT('Origin',(98.4375,18.7265478332233,40.));
#1138=CARTESIAN_POINT('Origin',(98.4375,18.7265478332233,35.));
#1139=CARTESIAN_POINT('Origin',(75.,0.,37.5));
#1140=CARTESIAN_POINT('',(65.,38.7298334620742,35.));
#1141=CARTESIAN_POINT('',(66.25,33.8886042793149,40.));
#1142=CARTESIAN_POINT('',(65.,38.7298334620742,35.));
#1143=CARTESIAN_POINT('Origin',(75.,0.,40.));
#1144=CARTESIAN_POINT('Origin',(75.,0.,35.));
#1145=CARTESIAN_POINT('Origin',(62.5,48.4122918275927,37.5));
#1146=CARTESIAN_POINT('',(60.,38.7298334620742,35.));
#1147=CARTESIAN_POINT('',(58.75,33.8886042793149,40.));
#1148=CARTESIAN_POINT('',(60.,38.7298334620742,35.));
#1149=CARTESIAN_POINT('Origin',(62.5,48.4122918275927,40.));
#1150=CARTESIAN_POINT('Origin',(62.5,48.4122918275927,35.));
#1151=CARTESIAN_POINT('Origin',(50.,0.,37.5));
#1152=CARTESIAN_POINT('',(40.,38.7298334620742,35.));
#1153=CARTESIAN_POINT('',(41.25,33.8886042793149,40.));
#1154=CARTESIAN_POINT('',(40.,38.7298334620742,35.));
#1155=CARTESIAN_POINT('Origin',(50.,0.,40.));
#1156=CARTESIAN_POINT('Origin',(50.,0.,35.));
#1157=CARTESIAN_POINT('Origin',(37.5,48.4122918275926,37.5));
#1158=CARTESIAN_POINT('',(35.,38.7298334620742,35.));
#1159=CARTESIAN_POINT('',(33.75,33.8886042793149,40.));
#1160=CARTESIAN_POINT('',(35.,38.7298334620742,35.));
#1161=CARTESIAN_POINT('Origin',(37.5,48.4122918275926,40.));
#1162=CARTESIAN_POINT('Origin',(37.5,48.4122918275926,35.));
#1163=CARTESIAN_POINT('Origin',(25.,0.,37.5));
#1164=CARTESIAN_POINT('',(15.,38.7298334620742,35.));
#1165=CARTESIAN_POINT('',(16.25,33.8886042793149,40.));
#1166=CARTESIAN_POINT('',(15.,38.7298334620742,35.));
#1167=CARTESIAN_POINT('Origin',(25.,0.,40.));
#1168=CARTESIAN_POINT('Origin',(25.,0.,35.));
#1169=CARTESIAN_POINT('Origin',(12.5,48.4122918275928,37.5));
#1170=CARTESIAN_POINT('',(10.,38.7298334620742,35.));
#1171=CARTESIAN_POINT('',(8.75000000000002,33.8886042793149,40.));
#1172=CARTESIAN_POINT('',(10.,38.7298334620742,35.));
#1173=CARTESIAN_POINT('Origin',(12.5,48.4122918275928,40.));
#1174=CARTESIAN_POINT('Origin',(12.5,48.4122918275928,35.));
#1175=CARTESIAN_POINT('Origin',(0.,0.,37.5));
#1176=CARTESIAN_POINT('',(-31.25,24.9687304442977,35.));
#1177=CARTESIAN_POINT('',(-27.34375,21.8476391387605,40.));
#1178=CARTESIAN_POINT('',(-31.25,24.9687304442977,35.));
#1179=CARTESIAN_POINT('Origin',(0.,0.,40.));
#1180=CARTESIAN_POINT('Origin',(0.,0.,35.));
#1181=CARTESIAN_POINT('Origin',(-23.4375,18.7265478332233,37.5));
#1182=CARTESIAN_POINT('',(-30.0625,11.235928699934,35.));
#1183=CARTESIAN_POINT('',(-26.75,14.9812382665786,40.));
#1184=CARTESIAN_POINT('',(-30.0625,11.235928699934,35.));
#1185=CARTESIAN_POINT('Origin',(-23.4375,18.7265478332233,40.));
#1186=CARTESIAN_POINT('Origin',(-23.4375,18.7265478332233,35.));
#1187=CARTESIAN_POINT('Origin',(-40.,1.4432899320127E-14,37.5));
#1188=CARTESIAN_POINT('',(-30.0625,-11.2359286999339,35.));
#1189=CARTESIAN_POINT('',(-26.75,-14.9812382665786,40.));
#1190=CARTESIAN_POINT('',(-30.0625,-11.2359286999339,35.));
#1191=CARTESIAN_POINT('Origin',(-40.,1.4432899320127E-14,40.));
#1192=CARTESIAN_POINT('Origin',(-40.,1.4432899320127E-14,35.));
#1193=CARTESIAN_POINT('Origin',(-23.4375,-18.7265478332233,37.5));
#1194=CARTESIAN_POINT('',(-31.25,-24.9687304442977,35.));
#1195=CARTESIAN_POINT('',(-27.34375,-21.8476391387605,40.));
#1196=CARTESIAN_POINT('',(-31.25,-24.9687304442977,35.));
#1197=CARTESIAN_POINT('Origin',(-23.4375,-18.7265478332233,40.));
#1198=CARTESIAN_POINT('Origin',(-23.4375,-18.7265478332233,35.));
#1199=CARTESIAN_POINT('Origin',(0.,0.,37.5));
#1200=CARTESIAN_POINT('',(10.,-38.7298334620742,35.));
#1201=CARTESIAN_POINT('',(8.75000000000003,-33.8886042793149,40.));
#1202=CARTESIAN_POINT('',(10.,-38.7298334620742,35.));
#1203=CARTESIAN_POINT('Origin',(0.,0.,40.));
#1204=CARTESIAN_POINT('Origin',(0.,0.,35.));
#1205=CARTESIAN_POINT('Origin',(12.5,-48.4122918275928,37.5));
#1206=CARTESIAN_POINT('',(15.,-38.7298334620742,35.));
#1207=CARTESIAN_POINT('',(16.25,-33.8886042793149,40.));
#1208=CARTESIAN_POINT('',(15.,-38.7298334620742,35.));
#1209=CARTESIAN_POINT('Origin',(12.5,-48.4122918275928,40.));
#1210=CARTESIAN_POINT('Origin',(12.5,-48.4122918275928,35.));
#1211=CARTESIAN_POINT('Origin',(25.,0.,37.5));
#1212=CARTESIAN_POINT('',(36.1111111111111,-38.4258143684235,35.));
#1213=CARTESIAN_POINT('',(34.7222222222222,-33.6225875723706,40.));
#1214=CARTESIAN_POINT('',(36.1111111111111,-38.4258143684235,35.));
#1215=CARTESIAN_POINT('Origin',(25.,0.,40.));
#1216=CARTESIAN_POINT('Origin',(25.,0.,35.));
#1217=CARTESIAN_POINT('Origin',(37.5,-43.2290411644763,37.5));
#1218=CARTESIAN_POINT('',(38.8888888888889,-38.4258143684235,35.));
#1219=CARTESIAN_POINT('',(40.2777777777778,-33.6225875723706,40.));
#1220=CARTESIAN_POINT('',(38.8888888888889,-38.4258143684235,35.));
#1221=CARTESIAN_POINT('Origin',(37.5,-43.2290411644763,40.));
#1222=CARTESIAN_POINT('Origin',(37.5,-43.2290411644763,35.));
#1223=CARTESIAN_POINT('Origin',(50.,0.,37.5));
#1224=CARTESIAN_POINT('',(58.3333333333333,-39.1223153143517,35.));
#1225=CARTESIAN_POINT('',(57.2916666666667,-34.2320259000577,40.));
#1226=CARTESIAN_POINT('',(58.3333333333333,-39.1223153143517,35.));
#1227=CARTESIAN_POINT('Origin',(50.,0.,40.));
#1228=CARTESIAN_POINT('Origin',(50.,0.,35.));
#1229=CARTESIAN_POINT('Origin',(62.5,-58.6834729715273,37.5));
#1230=CARTESIAN_POINT('',(66.6666666666667,-39.1223153143517,35.));
#1231=CARTESIAN_POINT('',(67.7083333333333,-34.2320259000577,40.));
#1232=CARTESIAN_POINT('',(66.6666666666667,-39.1223153143517,35.));
#1233=CARTESIAN_POINT('Origin',(62.5,-58.6834729715273,40.));
#1234=CARTESIAN_POINT('Origin',(62.5,-58.6834729715273,35.));
#1235=CARTESIAN_POINT('Origin',(75.,0.,37.5));
#1236=CARTESIAN_POINT('',(106.25,-24.9687304442977,35.));
#1237=CARTESIAN_POINT('',(102.34375,-21.8476391387605,40.));
#1238=CARTESIAN_POINT('',(106.25,-24.9687304442977,35.));
#1239=CARTESIAN_POINT('Origin',(75.,0.,40.));
#1240=CARTESIAN_POINT('Origin',(75.,0.,35.));
#1241=CARTESIAN_POINT('Origin',(98.4375,-18.7265478332233,37.5));
#1242=CARTESIAN_POINT('Origin',(98.4375,-18.7265478332233,40.));
#1243=CARTESIAN_POINT('Origin',(98.4375,-18.7265478332233,35.));
#1244=CARTESIAN_POINT('Origin',(-23.4375,18.7265478332233,0.));
#1245=CARTESIAN_POINT('',(-31.25,24.9687304442977,0.));
#1246=CARTESIAN_POINT('',(-31.25,24.9687304442977,0.));
#1247=CARTESIAN_POINT('',(-30.0625,11.235928699934,0.));
#1248=CARTESIAN_POINT('Origin',(-23.4375,18.7265478332233,0.));
#1249=CARTESIAN_POINT('',(-30.0625,11.235928699934,0.));
#1250=CARTESIAN_POINT('Origin',(0.,0.,0.));
#1251=CARTESIAN_POINT('',(10.,38.7298334620742,0.));
#1252=CARTESIAN_POINT('',(10.,38.7298334620742,0.));
#1253=CARTESIAN_POINT('Origin',(0.,0.,0.));
#1254=CARTESIAN_POINT('Origin',(12.5,48.4122918275928,0.));
#1255=CARTESIAN_POINT('',(15.,38.7298334620742,0.));
#1256=CARTESIAN_POINT('',(15.,38.7298334620742,0.));
#1257=CARTESIAN_POINT('Origin',(12.5,48.4122918275928,0.));
#1258=CARTESIAN_POINT('Origin',(25.,0.,0.));
#1259=CARTESIAN_POINT('',(35.,38.7298334620742,0.));
#1260=CARTESIAN_POINT('',(35.,38.7298334620742,0.));
#1261=CARTESIAN_POINT('Origin',(25.,0.,0.));
#1262=CARTESIAN_POINT('Origin',(37.5,48.4122918275926,0.));
#1263=CARTESIAN_POINT('',(40.,38.7298334620742,0.));
#1264=CARTESIAN_POINT('',(40.,38.7298334620742,0.));
#1265=CARTESIAN_POINT('Origin',(37.5,48.4122918275926,0.));
#1266=CARTESIAN_POINT('Origin',(50.,0.,0.));
#1267=CARTESIAN_POINT('',(60.,38.7298334620742,0.));
#1268=CARTESIAN_POINT('',(60.,38.7298334620742,0.));
#1269=CARTESIAN_POINT('Origin',(50.,0.,0.));
#1270=CARTESIAN_POINT('Origin',(62.5,48.4122918275927,0.));
#1271=CARTESIAN_POINT('',(65.,38.7298334620742,0.));
#1272=CARTESIAN_POINT('',(65.,38.7298334620742,0.));
#1273=CARTESIAN_POINT('Origin',(62.5,48.4122918275927,0.));
#1274=CARTESIAN_POINT('Origin',(75.,0.,0.));
#1275=CARTESIAN_POINT('',(106.25,24.9687304442977,0.));
#1276=CARTESIAN_POINT('',(106.25,24.9687304442977,0.));
#1277=CARTESIAN_POINT('Origin',(75.,0.,0.));
#1278=CARTESIAN_POINT('Origin',(98.4375,18.7265478332233,0.));
#1279=CARTESIAN_POINT('',(105.0625,11.235928699934,0.));
#1280=CARTESIAN_POINT('',(105.0625,11.235928699934,0.));
#1281=CARTESIAN_POINT('Origin',(98.4375,18.7265478332233,0.));
#1282=CARTESIAN_POINT('Origin',(115.,0.,0.));
#1283=CARTESIAN_POINT('',(105.0625,-11.235928699934,0.));
#1284=CARTESIAN_POINT('',(105.0625,-11.235928699934,0.));
#1285=CARTESIAN_POINT('Origin',(115.,0.,0.));
#1286=CARTESIAN_POINT('Origin',(37.5,0.,40.));
#1287=CARTESIAN_POINT('Origin',(62.5,-58.6834729715273,0.));
#1288=CARTESIAN_POINT('',(58.3333333333333,-39.1223153143517,0.));
#1289=CARTESIAN_POINT('',(58.3333333333333,-39.1223153143517,0.));
#1290=CARTESIAN_POINT('',(66.6666666666667,-39.1223153143517,0.));
#1291=CARTESIAN_POINT('Origin',(62.5,-58.6834729715273,0.));
#1292=CARTESIAN_POINT('',(66.6666666666667,-39.1223153143517,0.));
#1293=CARTESIAN_POINT('Origin',(50.,0.,0.));
#1294=CARTESIAN_POINT('',(38.8888888888889,-38.4258143684235,0.));
#1295=CARTESIAN_POINT('',(38.8888888888889,-38.4258143684235,0.));
#1296=CARTESIAN_POINT('Origin',(50.,0.,0.));
#1297=CARTESIAN_POINT('Origin',(37.5,-43.2290411644763,0.));
#1298=CARTESIAN_POINT('',(36.1111111111111,-38.4258143684235,0.));
#1299=CARTESIAN_POINT('',(36.1111111111111,-38.4258143684235,0.));
#1300=CARTESIAN_POINT('Origin',(37.5,-43.2290411644763,0.));
#1301=CARTESIAN_POINT('Origin',(25.,0.,0.));
#1302=CARTESIAN_POINT('',(15.,-38.7298334620742,0.));
#1303=CARTESIAN_POINT('',(15.,-38.7298334620742,0.));
#1304=CARTESIAN_POINT('Origin',(25.,0.,0.));
#1305=CARTESIAN_POINT('Origin',(12.5,-48.4122918275928,0.));
#1306=CARTESIAN_POINT('',(10.,-38.7298334620742,0.));
#1307=CARTESIAN_POINT('',(10.,-38.7298334620742,0.));
#1308=CARTESIAN_POINT('Origin',(12.5,-48.4122918275928,0.));
#1309=CARTESIAN_POINT('Origin',(0.,0.,0.));
#1310=CARTESIAN_POINT('',(-31.25,-24.9687304442977,0.));
#1311=CARTESIAN_POINT('',(-31.25,-24.9687304442977,0.));
#1312=CARTESIAN_POINT('Origin',(0.,0.,0.));
#1313=CARTESIAN_POINT('Origin',(-23.4375,-18.7265478332233,0.));
#1314=CARTESIAN_POINT('',(-30.0625,-11.2359286999339,0.));
#1315=CARTESIAN_POINT('',(-30.0625,-11.2359286999339,0.));
#1316=CARTESIAN_POINT('Origin',(-23.4375,-18.7265478332233,0.));
#1317=CARTESIAN_POINT('Origin',(-40.,1.4432899320127E-14,0.));
#1318=CARTESIAN_POINT('Origin',(-40.,1.4432899320127E-14,0.));
#1319=CARTESIAN_POINT('Origin',(98.4375,-18.7265478332233,0.));
#1320=CARTESIAN_POINT('',(106.25,-24.9687304442977,0.));
#1321=CARTESIAN_POINT('',(106.25,-24.9687304442977,0.));
#1322=CARTESIAN_POINT('Origin',(98.4375,-18.7265478332233,0.));
#1323=CARTESIAN_POINT('Origin',(75.,0.,0.));
#1324=CARTESIAN_POINT('Origin',(75.,0.,0.));
#1325=CARTESIAN_POINT('Origin',(37.5,0.,0.));
#1326=UNCERTAINTY_MEASURE_WITH_UNIT(LENGTH_MEASURE(0.01),#1330,
'DISTANCE_ACCURACY_VALUE',
'Maximum model space distance between geometric entities at asserted c
onnectivities');
#1327=UNCERTAINTY_MEASURE_WITH_UNIT(LENGTH_MEASURE(0.01),#1330,
'DISTANCE_ACCURACY_VALUE',
'Maximum model space distance between geometric entities at asserted c
onnectivities');
#1328=(
GEOMETRIC_REPRESENTATION_CONTEXT(3)
GLOBAL_UNCERTAINTY_ASSIGNED_CONTEXT((#1326))
GLOBAL_UNIT_ASSIGNED_CONTEXT((#1330,#1332,#1333))
REPRESENTATION_CONTEXT('','3D')
);
#1329=(
GEOMETRIC_REPRESENTATION_CONTEXT(3)
GLOBAL_UNCERTAINTY_ASSIGNED_CONTEXT((#1327))
GLOBAL_UNIT_ASSIGNED_CONTEXT((#1330,#1332,#1333))
REPRESENTATION_CONTEXT('','3D')
);
#1330=(
LENGTH_UNIT()
NAMED_UNIT(*)
SI_UNIT(.MILLI.,.METRE.)
);
#1331=(
LENGTH_UNIT()
NAMED_UNIT(*)
SI_UNIT($,.METRE.)
);
#1332=(
NAMED_UNIT(*)
PLANE_ANGLE_UNIT()
SI_UNIT($,.RADIAN.)
);
#1333=(
NAMED_UNIT(*)
SI_UNIT($,.STERADIAN.)
SOLID_ANGLE_UNIT()
);
#1334=SHAPE_DEFINITION_REPRESENTATION(#1335,#1336);
#1335=PRODUCT_DEFINITION_SHAPE('',$,#1338);
#1336=SHAPE_REPRESENTATION('',(#742),#1328);
#1337=PRODUCT_DEFINITION_CONTEXT('part definition',#1342,'design');
#1338=PRODUCT_DEFINITION('Curves','Curves v3',#1339,#1337);
#1339=PRODUCT_DEFINITION_FORMATION('',$,#1344);
#1340=PRODUCT_RELATED_PRODUCT_CATEGORY('Curves v3','Curves v3',(#1344));
#1341=APPLICATION_PROTOCOL_DEFINITION('international standard',
'automotive_design',2009,#1342);
#1342=APPLICATION_CONTEXT(
'Core Data for Automotive Mechanical Design Process');
#1343=PRODUCT_CONTEXT('part definition',#1342,'mechanical');
#1344=PRODUCT('Curves','Curves v3',$,(#1343));
#1345=PRESENTATION_STYLE_ASSIGNMENT((#1347));
#1346=PRESENTATION_STYLE_ASSIGNMENT((#1348));
#1347=SURFACE_STYLE_USAGE(.BOTH.,#1349);
#1348=SURFACE_STYLE_USAGE(.BOTH.,#1350);
#1349=SURFACE_SIDE_STYLE('',(#1351));
#1350=SURFACE_SIDE_STYLE('',(#1352));
#1351=SURFACE_STYLE_FILL_AREA(#1353);
#1352=SURFACE_STYLE_FILL_AREA(#1354);
#1353=FILL_AREA_STYLE('Steel - Satin',(#1355));
#1354=FILL_AREA_STYLE('Aluminum - Bead Blasted',(#1356));
#1355=FILL_AREA_STYLE_COLOUR('Steel - Satin',#1357);
#1356=FILL_AREA_STYLE_COLOUR('Aluminum - Bead Blasted',#1358);
#1357=COLOUR_RGB('Steel - Satin',0.627450980392157,0.627450980392157,0.627450980392157);
#1358=COLOUR_RGB('Aluminum - Bead Blasted',0.96078431372549,0.96078431372549,
0.964705882352941);
ENDSEC;
END-ISO-10303-21;
