ISO-10303-21;
HEADER;
/* Generated by software containing ST-Developer
 * from STEP Tools, Inc. (www.steptools.com) 
 */

FILE_DESCRIPTION(
/* description */ (''),
/* implementation_level */ '2;1');

FILE_NAME(
/* name */ 
'/Users/joakimjohansson/Desktop/Sample parts/Curves - Advanced.step',
/* time_stamp */ '2019-05-10T11:04:11+02:00',
/* author */ ('joakim.j.b.johansson@gmail.com'),
/* organization */ (''),
/* preprocessor_version */ 'ST-DEVELOPER v18',
/* originating_system */ 'Autodesk Translation Framework v8.2.0.1029',
/* authorisation */ '');

FILE_SCHEMA (('AUTOMOTIVE_DESIGN { 1 0 10303 214 3 1 1 }'));
ENDSEC;

DATA;
#10=MECHANICAL_DESIGN_GEOMETRIC_PRESENTATION_REPRESENTATION('',(#13),#548);
#11=SHAPE_REPRESENTATION_RELATIONSHIP('SRR','None',#555,#12);
#12=ADVANCED_BREP_SHAPE_REPRESENTATION('',(#14),#547);
#13=STYLED_ITEM('',(#565),#14);
#14=MANIFOLD_SOLID_BREP('Body1',#303);
#15=CONICAL_SURFACE('',#334,16.3407546392743,0.488692190558413);
#16=B_SPLINE_SURFACE_WITH_KNOTS('',1,3,((#493,#494,#495,#496,#497,#498,
#499,#500,#501,#502),(#503,#504,#505,#506,#507,#508,#509,#510,#511,#512)),
 .UNSPECIFIED.,.F.,.F.,.F.,(2,2),(4,2,2,2,4),(0.,1.),(2.38971323929481,
2.7656529464423,3.14159265358979,3.51753236073729,3.89347206788478),
 .UNSPECIFIED.);
#17=CIRCLE('',#327,53.4806584408287);
#18=CIRCLE('',#333,16.3407546392743);
#19=(
BOUNDED_CURVE()
B_SPLINE_CURVE(2,(#456,#457,#458),.UNSPECIFIED.,.F.,.F.)
B_SPLINE_CURVE_WITH_KNOTS((3,3),(-16.7273533350641,-14.016849329148),
 .UNSPECIFIED.)
CURVE()
GEOMETRIC_REPRESENTATION_ITEM()
RATIONAL_B_SPLINE_CURVE((1.00454159188958,1.13002974031854,1.21473038579073))
REPRESENTATION_ITEM('')
);
#20=(
BOUNDED_CURVE()
B_SPLINE_CURVE(2,(#463,#464,#465),.UNSPECIFIED.,.F.,.F.)
B_SPLINE_CURVE_WITH_KNOTS((3,3),(-2.75940907352408,-0.0489050676080654),
 .UNSPECIFIED.)
CURVE()
GEOMETRIC_REPRESENTATION_ITEM()
RATIONAL_B_SPLINE_CURVE((1.21473038579073,1.13002974031854,1.00454159188958))
REPRESENTATION_ITEM('')
);
#21=(
BOUNDED_CURVE()
B_SPLINE_CURVE(2,(#482,#483,#484),.UNSPECIFIED.,.F.,.F.)
B_SPLINE_CURVE_WITH_KNOTS((3,3),(-4.80282550412517,-0.201907596838518),
 .UNSPECIFIED.)
CURVE()
GEOMETRIC_REPRESENTATION_ITEM()
RATIONAL_B_SPLINE_CURVE((1.02599598509274,1.03026639429794,1.00249881540522))
REPRESENTATION_ITEM('')
);
#22=(
BOUNDED_CURVE()
B_SPLINE_CURVE(2,(#489,#490,#491),.UNSPECIFIED.,.F.,.F.)
B_SPLINE_CURVE_WITH_KNOTS((3,3),(-8.17721182499591,-3.57629391770935),
 .UNSPECIFIED.)
CURVE()
GEOMETRIC_REPRESENTATION_ITEM()
RATIONAL_B_SPLINE_CURVE((1.00249881540522,1.03026639429791,1.02599598509271))
REPRESENTATION_ITEM('')
);
#23=PLANE('',#322);
#24=PLANE('',#323);
#25=PLANE('',#324);
#26=PLANE('',#325);
#27=PLANE('',#326);
#28=PLANE('',#328);
#29=PLANE('',#329);
#30=PLANE('',#330);
#31=PLANE('',#331);
#32=PLANE('',#332);
#33=PLANE('',#335);
#34=PLANE('',#336);
#35=PLANE('',#337);
#36=B_SPLINE_CURVE_WITH_KNOTS('',3,(#427,#428,#429,#430,#431,#432,#433,
#434,#435,#436),.UNSPECIFIED.,.F.,.F.,(4,2,2,2,4),(0.,0.25,0.5,0.75,1.),
 .UNSPECIFIED.);
#37=B_SPLINE_CURVE_WITH_KNOTS('',3,(#515,#516,#517,#518,#519,#520,#521,
#522,#523,#524,#525,#526,#527),.UNSPECIFIED.,.F.,.F.,(4,3,3,3,4),(0.,0.0038306317168455,
0.007661263433691,0.0114918951505365,0.015322526867382),.UNSPECIFIED.);
#38=FACE_OUTER_BOUND('',#55,.T.);
#39=FACE_OUTER_BOUND('',#56,.T.);
#40=FACE_OUTER_BOUND('',#57,.T.);
#41=FACE_OUTER_BOUND('',#58,.T.);
#42=FACE_OUTER_BOUND('',#59,.T.);
#43=FACE_OUTER_BOUND('',#60,.T.);
#44=FACE_OUTER_BOUND('',#61,.T.);
#45=FACE_OUTER_BOUND('',#62,.T.);
#46=FACE_OUTER_BOUND('',#63,.T.);
#47=FACE_OUTER_BOUND('',#64,.T.);
#48=FACE_OUTER_BOUND('',#65,.T.);
#49=FACE_OUTER_BOUND('',#66,.T.);
#50=FACE_OUTER_BOUND('',#67,.T.);
#51=FACE_OUTER_BOUND('',#68,.T.);
#52=FACE_OUTER_BOUND('',#69,.T.);
#53=FACE_OUTER_BOUND('',#70,.T.);
#54=FACE_OUTER_BOUND('',#71,.T.);
#55=EDGE_LOOP('',(#202,#203,#204,#205));
#56=EDGE_LOOP('',(#206,#207,#208,#209));
#57=EDGE_LOOP('',(#210,#211,#212,#213,#214));
#58=EDGE_LOOP('',(#215,#216,#217,#218));
#59=EDGE_LOOP('',(#219,#220,#221,#222));
#60=EDGE_LOOP('',(#223,#224,#225,#226));
#61=EDGE_LOOP('',(#227,#228,#229,#230,#231,#232,#233,#234,#235));
#62=EDGE_LOOP('',(#236,#237,#238,#239));
#63=EDGE_LOOP('',(#240,#241,#242,#243));
#64=EDGE_LOOP('',(#244,#245,#246,#247));
#65=EDGE_LOOP('',(#248,#249,#250,#251));
#66=EDGE_LOOP('',(#252,#253,#254,#255));
#67=EDGE_LOOP('',(#256,#257,#258,#259,#260,#261,#262,#263,#264));
#68=EDGE_LOOP('',(#265,#266,#267,#268,#269,#270));
#69=EDGE_LOOP('',(#271,#272,#273,#274));
#70=EDGE_LOOP('',(#275,#276,#277,#278,#279));
#71=EDGE_LOOP('',(#280,#281,#282,#283));
#72=ELLIPSE('',#318,42.8993369349141,25.400000000001);
#73=ELLIPSE('',#319,30.4258251335266,25.4000000000002);
#74=ELLIPSE('',#321,27.1624889859313,25.3999999999995);
#75=LINE('',#416,#105);
#76=LINE('',#420,#106);
#77=LINE('',#425,#107);
#78=LINE('',#438,#108);
#79=LINE('',#442,#109);
#80=LINE('',#444,#110);
#81=LINE('',#446,#111);
#82=LINE('',#447,#112);
#83=LINE('',#451,#113);
#84=LINE('',#453,#114);
#85=LINE('',#455,#115);
#86=LINE('',#461,#116);
#87=LINE('',#466,#117);
#88=LINE('',#468,#118);
#89=LINE('',#469,#119);
#90=LINE('',#472,#120);
#91=LINE('',#474,#121);
#92=LINE('',#475,#122);
#93=LINE('',#480,#123);
#94=LINE('',#481,#124);
#95=LINE('',#488,#125);
#96=LINE('',#492,#126);
#97=LINE('',#514,#127);
#98=LINE('',#530,#128);
#99=LINE('',#531,#129);
#100=LINE('',#533,#130);
#101=LINE('',#536,#131);
#102=LINE('',#537,#132);
#103=LINE('',#541,#133);
#104=LINE('',#543,#134);
#105=VECTOR('',#342,1000.);
#106=VECTOR('',#345,1000.);
#107=VECTOR('',#350,1000.);
#108=VECTOR('',#351,1000.);
#109=VECTOR('',#356,1000.);
#110=VECTOR('',#357,1000.);
#111=VECTOR('',#358,1000.);
#112=VECTOR('',#359,1000.);
#113=VECTOR('',#362,1000.);
#114=VECTOR('',#363,1000.);
#115=VECTOR('',#364,1000.);
#116=VECTOR('',#367,1000.);
#117=VECTOR('',#368,1000.);
#118=VECTOR('',#371,1000.);
#119=VECTOR('',#372,1000.);
#120=VECTOR('',#375,1000.);
#121=VECTOR('',#376,1000.);
#122=VECTOR('',#377,1000.);
#123=VECTOR('',#382,1000.);
#124=VECTOR('',#383,1000.);
#125=VECTOR('',#386,1000.);
#126=VECTOR('',#387,1000.);
#127=VECTOR('',#388,1000.);
#128=VECTOR('',#391,1000.);
#129=VECTOR('',#392,1000.);
#130=VECTOR('',#395,1000.);
#131=VECTOR('',#398,1000.);
#132=VECTOR('',#399,1000.);
#133=VECTOR('',#406,1000.);
#134=VECTOR('',#409,1000.);
#135=VERTEX_POINT('',#414);
#136=VERTEX_POINT('',#415);
#137=VERTEX_POINT('',#417);
#138=VERTEX_POINT('',#419);
#139=VERTEX_POINT('',#423);
#140=VERTEX_POINT('',#424);
#141=VERTEX_POINT('',#426);
#142=VERTEX_POINT('',#437);
#143=VERTEX_POINT('',#441);
#144=VERTEX_POINT('',#443);
#145=VERTEX_POINT('',#445);
#146=VERTEX_POINT('',#449);
#147=VERTEX_POINT('',#450);
#148=VERTEX_POINT('',#452);
#149=VERTEX_POINT('',#454);
#150=VERTEX_POINT('',#460);
#151=VERTEX_POINT('',#462);
#152=VERTEX_POINT('',#471);
#153=VERTEX_POINT('',#473);
#154=VERTEX_POINT('',#478);
#155=VERTEX_POINT('',#479);
#156=VERTEX_POINT('',#486);
#157=VERTEX_POINT('',#487);
#158=VERTEX_POINT('',#513);
#159=VERTEX_POINT('',#529);
#160=VERTEX_POINT('',#535);
#161=EDGE_CURVE('',#135,#136,#75,.T.);
#162=EDGE_CURVE('',#137,#135,#72,.T.);
#163=EDGE_CURVE('',#138,#137,#76,.T.);
#164=EDGE_CURVE('',#136,#138,#73,.T.);
#165=EDGE_CURVE('',#139,#140,#77,.T.);
#166=EDGE_CURVE('',#141,#139,#36,.T.);
#167=EDGE_CURVE('',#142,#141,#78,.T.);
#168=EDGE_CURVE('',#140,#142,#74,.T.);
#169=EDGE_CURVE('',#143,#137,#79,.T.);
#170=EDGE_CURVE('',#144,#135,#80,.T.);
#171=EDGE_CURVE('',#144,#145,#81,.T.);
#172=EDGE_CURVE('',#145,#143,#82,.T.);
#173=EDGE_CURVE('',#146,#147,#83,.T.);
#174=EDGE_CURVE('',#146,#148,#84,.T.);
#175=EDGE_CURVE('',#148,#149,#85,.T.);
#176=EDGE_CURVE('',#149,#147,#19,.T.);
#177=EDGE_CURVE('',#150,#141,#86,.T.);
#178=EDGE_CURVE('',#150,#151,#20,.T.);
#179=EDGE_CURVE('',#151,#142,#87,.T.);
#180=EDGE_CURVE('',#139,#144,#88,.T.);
#181=EDGE_CURVE('',#140,#145,#89,.T.);
#182=EDGE_CURVE('',#152,#148,#90,.T.);
#183=EDGE_CURVE('',#153,#152,#91,.T.);
#184=EDGE_CURVE('',#143,#153,#92,.T.);
#185=EDGE_CURVE('',#151,#149,#17,.T.);
#186=EDGE_CURVE('',#154,#155,#93,.T.);
#187=EDGE_CURVE('',#154,#146,#94,.T.);
#188=EDGE_CURVE('',#147,#155,#21,.T.);
#189=EDGE_CURVE('',#156,#157,#95,.T.);
#190=EDGE_CURVE('',#156,#150,#22,.T.);
#191=EDGE_CURVE('',#157,#141,#96,.T.);
#192=EDGE_CURVE('',#158,#139,#97,.T.);
#193=EDGE_CURVE('',#157,#158,#37,.T.);
#194=EDGE_CURVE('',#159,#144,#98,.T.);
#195=EDGE_CURVE('',#158,#159,#99,.T.);
#196=EDGE_CURVE('',#159,#136,#100,.T.);
#197=EDGE_CURVE('',#160,#138,#101,.T.);
#198=EDGE_CURVE('',#154,#160,#102,.T.);
#199=EDGE_CURVE('',#156,#155,#18,.T.);
#200=EDGE_CURVE('',#152,#154,#103,.T.);
#201=EDGE_CURVE('',#153,#160,#104,.T.);
#202=ORIENTED_EDGE('',*,*,#161,.F.);
#203=ORIENTED_EDGE('',*,*,#162,.F.);
#204=ORIENTED_EDGE('',*,*,#163,.F.);
#205=ORIENTED_EDGE('',*,*,#164,.F.);
#206=ORIENTED_EDGE('',*,*,#165,.F.);
#207=ORIENTED_EDGE('',*,*,#166,.F.);
#208=ORIENTED_EDGE('',*,*,#167,.F.);
#209=ORIENTED_EDGE('',*,*,#168,.F.);
#210=ORIENTED_EDGE('',*,*,#169,.T.);
#211=ORIENTED_EDGE('',*,*,#162,.T.);
#212=ORIENTED_EDGE('',*,*,#170,.F.);
#213=ORIENTED_EDGE('',*,*,#171,.T.);
#214=ORIENTED_EDGE('',*,*,#172,.T.);
#215=ORIENTED_EDGE('',*,*,#173,.F.);
#216=ORIENTED_EDGE('',*,*,#174,.T.);
#217=ORIENTED_EDGE('',*,*,#175,.T.);
#218=ORIENTED_EDGE('',*,*,#176,.T.);
#219=ORIENTED_EDGE('',*,*,#177,.F.);
#220=ORIENTED_EDGE('',*,*,#178,.T.);
#221=ORIENTED_EDGE('',*,*,#179,.T.);
#222=ORIENTED_EDGE('',*,*,#167,.T.);
#223=ORIENTED_EDGE('',*,*,#180,.F.);
#224=ORIENTED_EDGE('',*,*,#165,.T.);
#225=ORIENTED_EDGE('',*,*,#181,.T.);
#226=ORIENTED_EDGE('',*,*,#171,.F.);
#227=ORIENTED_EDGE('',*,*,#182,.F.);
#228=ORIENTED_EDGE('',*,*,#183,.F.);
#229=ORIENTED_EDGE('',*,*,#184,.F.);
#230=ORIENTED_EDGE('',*,*,#172,.F.);
#231=ORIENTED_EDGE('',*,*,#181,.F.);
#232=ORIENTED_EDGE('',*,*,#168,.T.);
#233=ORIENTED_EDGE('',*,*,#179,.F.);
#234=ORIENTED_EDGE('',*,*,#185,.T.);
#235=ORIENTED_EDGE('',*,*,#175,.F.);
#236=ORIENTED_EDGE('',*,*,#186,.F.);
#237=ORIENTED_EDGE('',*,*,#187,.T.);
#238=ORIENTED_EDGE('',*,*,#173,.T.);
#239=ORIENTED_EDGE('',*,*,#188,.T.);
#240=ORIENTED_EDGE('',*,*,#189,.F.);
#241=ORIENTED_EDGE('',*,*,#190,.T.);
#242=ORIENTED_EDGE('',*,*,#177,.T.);
#243=ORIENTED_EDGE('',*,*,#191,.F.);
#244=ORIENTED_EDGE('',*,*,#166,.T.);
#245=ORIENTED_EDGE('',*,*,#192,.F.);
#246=ORIENTED_EDGE('',*,*,#193,.F.);
#247=ORIENTED_EDGE('',*,*,#191,.T.);
#248=ORIENTED_EDGE('',*,*,#180,.T.);
#249=ORIENTED_EDGE('',*,*,#194,.F.);
#250=ORIENTED_EDGE('',*,*,#195,.F.);
#251=ORIENTED_EDGE('',*,*,#192,.T.);
#252=ORIENTED_EDGE('',*,*,#170,.T.);
#253=ORIENTED_EDGE('',*,*,#161,.T.);
#254=ORIENTED_EDGE('',*,*,#196,.F.);
#255=ORIENTED_EDGE('',*,*,#194,.T.);
#256=ORIENTED_EDGE('',*,*,#196,.T.);
#257=ORIENTED_EDGE('',*,*,#164,.T.);
#258=ORIENTED_EDGE('',*,*,#197,.F.);
#259=ORIENTED_EDGE('',*,*,#198,.F.);
#260=ORIENTED_EDGE('',*,*,#186,.T.);
#261=ORIENTED_EDGE('',*,*,#199,.F.);
#262=ORIENTED_EDGE('',*,*,#189,.T.);
#263=ORIENTED_EDGE('',*,*,#193,.T.);
#264=ORIENTED_EDGE('',*,*,#195,.T.);
#265=ORIENTED_EDGE('',*,*,#185,.F.);
#266=ORIENTED_EDGE('',*,*,#178,.F.);
#267=ORIENTED_EDGE('',*,*,#190,.F.);
#268=ORIENTED_EDGE('',*,*,#199,.T.);
#269=ORIENTED_EDGE('',*,*,#188,.F.);
#270=ORIENTED_EDGE('',*,*,#176,.F.);
#271=ORIENTED_EDGE('',*,*,#182,.T.);
#272=ORIENTED_EDGE('',*,*,#174,.F.);
#273=ORIENTED_EDGE('',*,*,#187,.F.);
#274=ORIENTED_EDGE('',*,*,#200,.F.);
#275=ORIENTED_EDGE('',*,*,#197,.T.);
#276=ORIENTED_EDGE('',*,*,#163,.T.);
#277=ORIENTED_EDGE('',*,*,#169,.F.);
#278=ORIENTED_EDGE('',*,*,#184,.T.);
#279=ORIENTED_EDGE('',*,*,#201,.T.);
#280=ORIENTED_EDGE('',*,*,#183,.T.);
#281=ORIENTED_EDGE('',*,*,#200,.T.);
#282=ORIENTED_EDGE('',*,*,#198,.T.);
#283=ORIENTED_EDGE('',*,*,#201,.F.);
#284=CYLINDRICAL_SURFACE('',#317,25.4);
#285=CYLINDRICAL_SURFACE('',#320,25.4);
#286=ADVANCED_FACE('',(#38),#284,.T.);
#287=ADVANCED_FACE('',(#39),#285,.T.);
#288=ADVANCED_FACE('',(#40),#23,.T.);
#289=ADVANCED_FACE('',(#41),#24,.T.);
#290=ADVANCED_FACE('',(#42),#25,.T.);
#291=ADVANCED_FACE('',(#43),#26,.T.);
#292=ADVANCED_FACE('',(#44),#27,.T.);
#293=ADVANCED_FACE('',(#45),#28,.T.);
#294=ADVANCED_FACE('',(#46),#29,.T.);
#295=ADVANCED_FACE('',(#47),#16,.F.);
#296=ADVANCED_FACE('',(#48),#30,.T.);
#297=ADVANCED_FACE('',(#49),#31,.T.);
#298=ADVANCED_FACE('',(#50),#32,.T.);
#299=ADVANCED_FACE('',(#51),#15,.F.);
#300=ADVANCED_FACE('',(#52),#33,.F.);
#301=ADVANCED_FACE('',(#53),#34,.F.);
#302=ADVANCED_FACE('',(#54),#35,.F.);
#303=CLOSED_SHELL('',(#286,#287,#288,#289,#290,#291,#292,#293,#294,#295,
#296,#297,#298,#299,#300,#301,#302));
#304=DERIVED_UNIT_ELEMENT(#306,1.);
#305=DERIVED_UNIT_ELEMENT(#550,3.);
#306=(
MASS_UNIT()
NAMED_UNIT(*)
SI_UNIT(.KILO.,.GRAM.)
);
#307=DERIVED_UNIT((#304,#305));
#308=MEASURE_REPRESENTATION_ITEM('density measure',
POSITIVE_RATIO_MEASURE(7850.),#307);
#309=PROPERTY_DEFINITION_REPRESENTATION(#314,#311);
#310=PROPERTY_DEFINITION_REPRESENTATION(#315,#312);
#311=REPRESENTATION('material name',(#313),#547);
#312=REPRESENTATION('density',(#308),#547);
#313=DESCRIPTIVE_REPRESENTATION_ITEM('Steel','Steel');
#314=PROPERTY_DEFINITION('material property','material name',#557);
#315=PROPERTY_DEFINITION('material property','density of part',#557);
#316=AXIS2_PLACEMENT_3D('placement',#412,#338,#339);
#317=AXIS2_PLACEMENT_3D('',#413,#340,#341);
#318=AXIS2_PLACEMENT_3D('',#418,#343,#344);
#319=AXIS2_PLACEMENT_3D('',#421,#346,#347);
#320=AXIS2_PLACEMENT_3D('',#422,#348,#349);
#321=AXIS2_PLACEMENT_3D('',#439,#352,#353);
#322=AXIS2_PLACEMENT_3D('',#440,#354,#355);
#323=AXIS2_PLACEMENT_3D('',#448,#360,#361);
#324=AXIS2_PLACEMENT_3D('',#459,#365,#366);
#325=AXIS2_PLACEMENT_3D('',#467,#369,#370);
#326=AXIS2_PLACEMENT_3D('',#470,#373,#374);
#327=AXIS2_PLACEMENT_3D('',#476,#378,#379);
#328=AXIS2_PLACEMENT_3D('',#477,#380,#381);
#329=AXIS2_PLACEMENT_3D('',#485,#384,#385);
#330=AXIS2_PLACEMENT_3D('',#528,#389,#390);
#331=AXIS2_PLACEMENT_3D('',#532,#393,#394);
#332=AXIS2_PLACEMENT_3D('',#534,#396,#397);
#333=AXIS2_PLACEMENT_3D('',#538,#400,#401);
#334=AXIS2_PLACEMENT_3D('',#539,#402,#403);
#335=AXIS2_PLACEMENT_3D('',#540,#404,#405);
#336=AXIS2_PLACEMENT_3D('',#542,#407,#408);
#337=AXIS2_PLACEMENT_3D('',#544,#410,#411);
#338=DIRECTION('axis',(0.,0.,1.));
#339=DIRECTION('refdir',(1.,0.,0.));
#340=DIRECTION('center_axis',(0.389281620635027,-0.389281620635026,-0.834817129478987));
#341=DIRECTION('ref_axis',(-0.906307787036649,1.45729603281774E-16,-0.422618261740702));
#342=DIRECTION('',(-0.389281620635027,0.389281620635026,0.834817129478987));
#343=DIRECTION('center_axis',(-2.9950496582175E-16,-0.965925826289068,-0.258819045102521));
#344=DIRECTION('ref_axis',(0.483053728863257,0.226619551993872,-0.845755682029627));
#345=DIRECTION('',(0.389281620635027,-0.389281620635025,-0.834817129478987));
#346=DIRECTION('center_axis',(-8.88424152697989E-16,8.88424152697987E-16,
1.));
#347=DIRECTION('ref_axis',(0.707106781186547,-0.707106781186548,1.25642148588532E-15));
#348=DIRECTION('center_axis',(0.250562807085732,-0.250562807085732,-0.935113126531029));
#349=DIRECTION('ref_axis',(-2.56111981908684E-16,-0.965925826289068,0.258819045102521));
#350=DIRECTION('',(0.250562807085732,-0.250562807085732,-0.935113126531029));
#351=DIRECTION('',(-0.250562807085732,0.250562807085732,0.935113126531029));
#352=DIRECTION('center_axis',(0.,0.,-1.));
#353=DIRECTION('ref_axis',(-0.707106781186547,0.707106781186548,0.));
#354=DIRECTION('center_axis',(-2.14478618485241E-16,-0.965925826289068,
-0.258819045102521));
#355=DIRECTION('ref_axis',(-5.74693726168632E-17,-0.258819045102521,0.965925826289068));
#356=DIRECTION('',(-0.410682057589797,-0.235985671160821,0.880710514630425));
#357=DIRECTION('',(1.,-2.22044604925031E-16,0.));
#358=DIRECTION('',(0.250562807085732,0.250562807085732,-0.935113126531029));
#359=DIRECTION('',(1.,-2.22044604925031E-16,0.));
#360=DIRECTION('center_axis',(0.965925826289068,-2.14478618485241E-16,-0.258819045102521));
#361=DIRECTION('ref_axis',(-0.258819045102521,5.74693726168632E-17,-0.965925826289068));
#362=DIRECTION('',(2.22044604925031E-16,1.,0.));
#363=DIRECTION('',(-0.242683597637132,-0.347560880869968,-0.905707516545375));
#364=DIRECTION('',(2.22044604925031E-16,1.,0.));
#365=DIRECTION('center_axis',(2.14478618485241E-16,0.965925826289068,-0.258819045102521));
#366=DIRECTION('ref_axis',(-5.74693726168632E-17,-0.258819045102521,-0.965925826289068));
#367=DIRECTION('',(-1.,2.22044604925031E-16,0.));
#368=DIRECTION('',(-1.,2.22044604925031E-16,0.));
#369=DIRECTION('center_axis',(-0.965925826289068,2.14478618485241E-16,-0.258819045102521));
#370=DIRECTION('ref_axis',(-0.258819045102521,5.74693726168632E-17,0.965925826289068));
#371=DIRECTION('',(-2.22044604925031E-16,-1.,0.));
#372=DIRECTION('',(-2.22044604925031E-16,-1.,0.));
#373=DIRECTION('center_axis',(0.,0.,-1.));
#374=DIRECTION('ref_axis',(-2.22044604925031E-16,-1.,0.));
#375=DIRECTION('',(0.866025403784441,-0.499999999999995,0.));
#376=DIRECTION('',(0.866025403784438,0.500000000000001,0.));
#377=DIRECTION('',(-3.29799600878431E-15,1.,0.));
#378=DIRECTION('center_axis',(0.,0.,1.));
#379=DIRECTION('ref_axis',(2.22044604925031E-16,1.,0.));
#380=DIRECTION('center_axis',(0.90630778703665,-2.01240754513032E-16,0.4226182617407));
#381=DIRECTION('ref_axis',(0.4226182617407,-9.38401049623173E-17,-0.906307787036649));
#382=DIRECTION('',(2.22044604925031E-16,1.,0.));
#383=DIRECTION('',(0.34101878284013,-0.5906618582144,-0.731317139824405));
#384=DIRECTION('center_axis',(2.01240754513032E-16,0.90630778703665,0.4226182617407));
#385=DIRECTION('ref_axis',(9.38401049623173E-17,0.4226182617407,-0.906307787036649));
#386=DIRECTION('',(-1.,2.22044604925031E-16,0.));
#387=DIRECTION('',(-5.86399371984508E-12,0.422618261740701,-0.906307787036649));
#388=DIRECTION('',(-0.4226182617407,6.43800290110799E-17,-0.906307787036649));
#389=DIRECTION('center_axis',(-0.90630778703665,1.38063417756867E-16,0.4226182617407));
#390=DIRECTION('ref_axis',(0.4226182617407,-9.38401049623173E-17,0.906307787036649));
#391=DIRECTION('',(-0.389281620635026,-0.389281620635026,-0.834817129478987));
#392=DIRECTION('',(-1.52336126569421E-16,-1.,0.));
#393=DIRECTION('center_axis',(-2.01240754513032E-16,-0.90630778703665,0.4226182617407));
#394=DIRECTION('ref_axis',(9.38401049623173E-17,0.4226182617407,0.906307787036649));
#395=DIRECTION('',(1.,-2.22044604925031E-16,0.));
#396=DIRECTION('center_axis',(0.,0.,1.));
#397=DIRECTION('ref_axis',(2.22044604925031E-16,1.,0.));
#398=DIRECTION('',(3.29799600878431E-15,-1.,0.));
#399=DIRECTION('',(-0.866025403784438,-0.500000000000001,0.));
#400=DIRECTION('center_axis',(0.,0.,1.));
#401=DIRECTION('ref_axis',(2.22044604925031E-16,1.,0.));
#402=DIRECTION('center_axis',(0.,0.,-1.));
#403=DIRECTION('ref_axis',(-0.707106781186549,-0.707106781186546,0.));
#404=DIRECTION('center_axis',(0.45315389351832,0.784885567221398,-0.4226182617407));
#405=DIRECTION('ref_axis',(-0.866025403784441,0.499999999999995,2.77555756156289E-17));
#406=DIRECTION('',(-1.51262075786512E-15,0.474089014792953,0.880476919659253));
#407=DIRECTION('center_axis',(-0.90630778703665,-2.98899946437701E-15,-0.4226182617407));
#408=DIRECTION('ref_axis',(-0.4226182617407,9.38401049623173E-17,0.906307787036649));
#409=DIRECTION('',(-0.410573130465835,0.237044507396476,0.880476919659253));
#410=DIRECTION('center_axis',(-0.453153893518326,0.784885567221395,-0.4226182617407));
#411=DIRECTION('ref_axis',(-0.866025403784438,-0.500000000000001,2.77555756156289E-17));
#412=CARTESIAN_POINT('',(0.,0.,0.));
#413=CARTESIAN_POINT('Origin',(81.1329480985796,-30.7476275958386,42.8939111765495));
#414=CARTESIAN_POINT('',(88.3739669436359,-61.0088642316258,38.1));
#415=CARTESIAN_POINT('',(73.5686987972146,-46.2035960852045,69.85));
#416=CARTESIAN_POINT('',(81.1329480985796,-53.7678453865695,53.6284150247632));
#417=CARTESIAN_POINT('',(126.013733519843,-52.6081952263709,6.74827645481959));
#418=CARTESIAN_POINT('Origin',(101.166850469461,-50.7815299667196,-0.0689311026196615));
#419=CARTESIAN_POINT('',(96.5889165879455,-23.1833782944736,69.85));
#420=CARTESIAN_POINT('',(95.5965418971495,-22.1910036036775,71.9781543921506));
#421=CARTESIAN_POINT('Origin',(68.5631174462979,-18.177796943557,69.85));
#422=CARTESIAN_POINT('Origin',(86.5514424313138,116.648557568686,-35.2881356465676));
#423=CARTESIAN_POINT('',(40.5911357683742,138.074348243883,38.1));
#424=CARTESIAN_POINT('',(50.8,127.865484012258,0.));
#425=CARTESIAN_POINT('',(62.0169264435715,116.648557568686,-41.8621393921716));
#426=CARTESIAN_POINT('',(65.1256517561166,162.608864231626,38.1));
#427=CARTESIAN_POINT('Ctrl Pts',(65.1256517561166,162.608864231626,38.1));
#428=CARTESIAN_POINT('Ctrl Pts',(61.8371364717506,162.60886423158,38.1));
#429=CARTESIAN_POINT('Ctrl Pts',(58.5930389513329,161.982266277074,38.1));
#430=CARTESIAN_POINT('Ctrl Pts',(52.6386773797766,159.562593757453,38.1));
#431=CARTESIAN_POINT('Ctrl Pts',(49.9310604985217,157.770319308701,38.1));
#432=CARTESIAN_POINT('Ctrl Pts',(45.4296806913433,153.268939501434,38.1));
#433=CARTESIAN_POINT('Ctrl Pts',(43.6374062425472,150.561322620223,38.1));
#434=CARTESIAN_POINT('Ctrl Pts',(41.2177337229264,144.606961048667,38.1));
#435=CARTESIAN_POINT('Ctrl Pts',(40.5911357684198,141.36286352825,38.1));
#436=CARTESIAN_POINT('Ctrl Pts',(40.5911357683742,138.074348243883,38.1));
#437=CARTESIAN_POINT('',(75.3345159877423,152.4,0.));
#438=CARTESIAN_POINT('',(80.1728196493742,147.561696338368,-18.0567950876565));
#439=CARTESIAN_POINT('Origin',(77.0960149824153,126.103985017585,0.));
#440=CARTESIAN_POINT('Origin',(152.4,-50.8,0.));
#441=CARTESIAN_POINT('',(129.160506510072,-50.8,0.));
#442=CARTESIAN_POINT('',(133.080073728594,-48.5477426061633,-8.40553902552119));
#443=CARTESIAN_POINT('',(40.5911357683742,-61.0088642316258,38.1));
#444=CARTESIAN_POINT('',(152.4,-61.0088642316258,38.1));
#445=CARTESIAN_POINT('',(50.8,-50.8,0.));
#446=CARTESIAN_POINT('',(57.1786227819396,-44.4213772180603,-23.8053443045151));
#447=CARTESIAN_POINT('',(152.4,-50.8,0.));
#448=CARTESIAN_POINT('Origin',(152.4,-50.8,0.));
#449=CARTESIAN_POINT('',(162.608864231626,-12.7094547460813,38.1));
#450=CARTESIAN_POINT('',(162.608864231626,118.062370916271,38.1));
#451=CARTESIAN_POINT('',(162.608864231626,-50.8,38.1));
#452=CARTESIAN_POINT('',(152.4,-27.3301455532579,-4.33680868994202E-16));
#453=CARTESIAN_POINT('',(150.420380560042,-30.1652703125668,-7.38804032957504));
#454=CARTESIAN_POINT('',(152.399999999579,94.5208230868419,-4.39709459031095E-10));
#455=CARTESIAN_POINT('',(152.4,-50.8,0.));
#456=CARTESIAN_POINT('Ctrl Pts',(152.399999999813,94.5208230871898,-6.96350408200018E-10));
#457=CARTESIAN_POINT('Ctrl Pts',(158.951799569108,108.135466861549,24.4516488729176));
#458=CARTESIAN_POINT('Ctrl Pts',(162.608864231627,118.062370916274,38.1000000000046));
#459=CARTESIAN_POINT('Origin',(152.4,152.4,0.));
#460=CARTESIAN_POINT('',(118.062370916271,162.608864231626,38.1));
#461=CARTESIAN_POINT('',(152.4,162.608864231626,38.1));
#462=CARTESIAN_POINT('',(94.5208230868421,152.399999999579,-4.39634144007994E-10));
#463=CARTESIAN_POINT('Ctrl Pts',(118.062370916274,162.608864231627,38.1000000000045));
#464=CARTESIAN_POINT('Ctrl Pts',(108.135466861549,158.951799569108,24.4516488729175));
#465=CARTESIAN_POINT('Ctrl Pts',(94.52082308719,152.399999999814,-6.96258731558019E-10));
#466=CARTESIAN_POINT('',(152.4,152.4,0.));
#467=CARTESIAN_POINT('Origin',(50.8,-50.8,0.));
#468=CARTESIAN_POINT('',(40.5911357683742,-50.8,38.1));
#469=CARTESIAN_POINT('',(50.8,-50.8,0.));
#470=CARTESIAN_POINT('Origin',(152.4,-50.8,0.));
#471=CARTESIAN_POINT('',(147.803596085205,-24.6764105157467,1.38777878078145E-14));
#472=CARTESIAN_POINT('',(162.562745087001,-33.1976091649433,0.));
#473=CARTESIAN_POINT('',(129.160506510072,-35.4400033004757,0.));
#474=CARTESIAN_POINT('',(139.939052955601,-29.2170066086765,0.));
#475=CARTESIAN_POINT('',(129.160506510072,-50.8000000000001,0.));
#476=CARTESIAN_POINT('Origin',(147.803596085205,147.803596085205,0.));
#477=CARTESIAN_POINT('Origin',(162.608864231626,-61.0088642316258,38.1));
#478=CARTESIAN_POINT('',(147.803596085205,12.9340219032012,69.85));
#479=CARTESIAN_POINT('',(147.803596085205,131.46284144593,69.85));
#480=CARTESIAN_POINT('',(147.803596085205,-61.0088642316258,69.85));
#481=CARTESIAN_POINT('',(172.337659144585,-29.5602218317438,17.2365319809413));
#482=CARTESIAN_POINT('Ctrl Pts',(162.608864231601,118.06237091629,38.1000000000528));
#483=CARTESIAN_POINT('Ctrl Pts',(153.053571350068,125.476533231816,58.5913917119961));
#484=CARTESIAN_POINT('Ctrl Pts',(147.803596085205,131.46284144593,69.8499999999998));
#485=CARTESIAN_POINT('Origin',(162.608864231626,162.608864231626,38.1));
#486=CARTESIAN_POINT('',(131.46284144593,147.803596085205,69.85));
#487=CARTESIAN_POINT('',(65.125651756322,147.803596085205,69.85));
#488=CARTESIAN_POINT('',(162.608864231626,147.803596085205,69.85));
#489=CARTESIAN_POINT('Ctrl Pts',(131.46284144593,147.803596085205,69.8499999999997));
#490=CARTESIAN_POINT('Ctrl Pts',(125.476533231816,153.053571350068,58.591391711996));
#491=CARTESIAN_POINT('Ctrl Pts',(118.06237091629,162.608864231601,38.1000000000528));
#492=CARTESIAN_POINT('',(65.1256517561166,162.608864231626,38.1));
#493=CARTESIAN_POINT('Ctrl Pts',(65.1256517561166,162.608864231626,38.1));
#494=CARTESIAN_POINT('Ctrl Pts',(61.8371364717506,162.60886423158,38.1));
#495=CARTESIAN_POINT('Ctrl Pts',(58.5930389513329,161.982266277074,38.1));
#496=CARTESIAN_POINT('Ctrl Pts',(52.6386773797766,159.562593757453,38.1));
#497=CARTESIAN_POINT('Ctrl Pts',(49.9310604985217,157.770319308701,38.1));
#498=CARTESIAN_POINT('Ctrl Pts',(45.4296806913433,153.268939501434,38.1));
#499=CARTESIAN_POINT('Ctrl Pts',(43.6374062425472,150.561322620223,38.1));
#500=CARTESIAN_POINT('Ctrl Pts',(41.2177337229264,144.606961048667,38.1));
#501=CARTESIAN_POINT('Ctrl Pts',(40.5911357684198,141.36286352825,38.1));
#502=CARTESIAN_POINT('Ctrl Pts',(40.5911357683742,138.074348243883,38.1));
#503=CARTESIAN_POINT('Ctrl Pts',(65.1256517561165,144.84254245592,76.2));
#504=CARTESIAN_POINT('Ctrl Pts',(64.0665075187371,144.842542455554,76.2));
#505=CARTESIAN_POINT('Ctrl Pts',(63.1177718535392,144.643749633291,76.2));
#506=CARTESIAN_POINT('Ctrl Pts',(61.490999876986,143.98267868597,76.2));
#507=CARTESIAN_POINT('Ctrl Pts',(60.8102385920279,143.524124193498,76.2));
#508=CARTESIAN_POINT('Ctrl Pts',(59.6758758065242,142.38976140795,76.2));
#509=CARTESIAN_POINT('Ctrl Pts',(59.2173213140521,141.709000123036,76.2));
#510=CARTESIAN_POINT('Ctrl Pts',(58.556250366687,140.082228146439,76.2));
#511=CARTESIAN_POINT('Ctrl Pts',(58.3574575445371,139.13349248128,76.2));
#512=CARTESIAN_POINT('Ctrl Pts',(58.3574575440797,138.074348243883,76.2));
#513=CARTESIAN_POINT('',(55.3964039147954,138.074348243883,69.85));
#514=CARTESIAN_POINT('',(40.5911357683742,138.074348243883,38.1));
#515=CARTESIAN_POINT('Ctrl Pts',(65.1256517561165,147.803596085205,69.85));
#516=CARTESIAN_POINT('Ctrl Pts',(63.6949456775822,147.803596084887,69.8500000000099));
#517=CARTESIAN_POINT('Ctrl Pts',(62.3636497031715,147.533502407255,69.85));
#518=CARTESIAN_POINT('Ctrl Pts',(61.1896312486446,147.056416802569,69.85));
#519=CARTESIAN_POINT('Ctrl Pts',(60.0156127941178,146.579331197884,69.85));
#520=CARTESIAN_POINT('Ctrl Pts',(58.9970422431102,145.898490046032,69.85));
#521=CARTESIAN_POINT('Ctrl Pts',(58.1492760985521,145.050723901448,69.85));
#522=CARTESIAN_POINT('Ctrl Pts',(57.3015099539941,144.202957756864,69.85));
#523=CARTESIAN_POINT('Ctrl Pts',(56.6206688021346,143.184387205901,69.85));
#524=CARTESIAN_POINT('Ctrl Pts',(56.1435831974307,142.010368751355,69.85));
#525=CARTESIAN_POINT('Ctrl Pts',(55.6664975927269,140.83635029681,69.85));
#526=CARTESIAN_POINT('Ctrl Pts',(55.3964039151842,139.505054322441,69.85));
#527=CARTESIAN_POINT('Ctrl Pts',(55.3964039147954,138.074348243883,69.85));
#528=CARTESIAN_POINT('Origin',(40.5911357683742,138.074348243883,38.1));
#529=CARTESIAN_POINT('',(55.3964039147954,-46.2035960852045,69.85));
#530=CARTESIAN_POINT('',(40.5911357683742,-61.0088642316258,38.1));
#531=CARTESIAN_POINT('',(55.3964039147954,138.074348243883,69.85));
#532=CARTESIAN_POINT('Origin',(40.5911357683742,-61.0088642316258,38.1));
#533=CARTESIAN_POINT('',(40.5911357683742,-46.2035960852045,69.85));
#534=CARTESIAN_POINT('Origin',(66.8871507507903,136.31284924921,69.85));
#535=CARTESIAN_POINT('',(96.5889165879455,-16.6347870910018,69.85));
#536=CARTESIAN_POINT('',(96.5889165879455,-16.6347870910018,69.85));
#537=CARTESIAN_POINT('',(147.803596085205,12.9340219032012,69.85));
#538=CARTESIAN_POINT('Origin',(147.803596085205,147.803596085205,69.85));
#539=CARTESIAN_POINT('Origin',(147.803596085205,147.803596085205,69.85));
#540=CARTESIAN_POINT('Origin',(199.018275582463,-16.6347870910011,69.85));
#541=CARTESIAN_POINT('',(147.803596085205,6.28812474511024,57.5072566004643));
#542=CARTESIAN_POINT('Origin',(96.5889165879455,-16.6347870910018,69.85));
#543=CARTESIAN_POINT('',(102.344432357791,-19.9577356700473,57.507256600464));
#544=CARTESIAN_POINT('Origin',(147.803596085205,12.9340219032012,69.85));
#545=UNCERTAINTY_MEASURE_WITH_UNIT(LENGTH_MEASURE(0.01),#549,
'DISTANCE_ACCURACY_VALUE',
'Maximum model space distance between geometric entities at asserted c
onnectivities');
#546=UNCERTAINTY_MEASURE_WITH_UNIT(LENGTH_MEASURE(0.01),#549,
'DISTANCE_ACCURACY_VALUE',
'Maximum model space distance between geometric entities at asserted c
onnectivities');
#547=(
GEOMETRIC_REPRESENTATION_CONTEXT(3)
GLOBAL_UNCERTAINTY_ASSIGNED_CONTEXT((#545))
GLOBAL_UNIT_ASSIGNED_CONTEXT((#549,#551,#552))
REPRESENTATION_CONTEXT('','3D')
);
#548=(
GEOMETRIC_REPRESENTATION_CONTEXT(3)
GLOBAL_UNCERTAINTY_ASSIGNED_CONTEXT((#546))
GLOBAL_UNIT_ASSIGNED_CONTEXT((#549,#551,#552))
REPRESENTATION_CONTEXT('','3D')
);
#549=(
LENGTH_UNIT()
NAMED_UNIT(*)
SI_UNIT(.MILLI.,.METRE.)
);
#550=(
LENGTH_UNIT()
NAMED_UNIT(*)
SI_UNIT($,.METRE.)
);
#551=(
NAMED_UNIT(*)
PLANE_ANGLE_UNIT()
SI_UNIT($,.RADIAN.)
);
#552=(
NAMED_UNIT(*)
SI_UNIT($,.STERADIAN.)
SOLID_ANGLE_UNIT()
);
#553=SHAPE_DEFINITION_REPRESENTATION(#554,#555);
#554=PRODUCT_DEFINITION_SHAPE('',$,#557);
#555=SHAPE_REPRESENTATION('',(#316),#547);
#556=PRODUCT_DEFINITION_CONTEXT('part definition',#561,'design');
#557=PRODUCT_DEFINITION('Curves - Advanced','Curves - Advanced v2',#558,
#556);
#558=PRODUCT_DEFINITION_FORMATION('',$,#563);
#559=PRODUCT_RELATED_PRODUCT_CATEGORY('Curves - Advanced v2',
'Curves - Advanced v2',(#563));
#560=APPLICATION_PROTOCOL_DEFINITION('international standard',
'automotive_design',2009,#561);
#561=APPLICATION_CONTEXT(
'Core Data for Automotive Mechanical Design Process');
#562=PRODUCT_CONTEXT('part definition',#561,'mechanical');
#563=PRODUCT('Curves - Advanced','Curves - Advanced v2',$,(#562));
#564=PRESENTATION_STYLE_ASSIGNMENT((#566));
#565=PRESENTATION_STYLE_ASSIGNMENT((#567));
#566=SURFACE_STYLE_USAGE(.BOTH.,#568);
#567=SURFACE_STYLE_USAGE(.BOTH.,#569);
#568=SURFACE_SIDE_STYLE('',(#570));
#569=SURFACE_SIDE_STYLE('',(#571));
#570=SURFACE_STYLE_FILL_AREA(#572);
#571=SURFACE_STYLE_FILL_AREA(#573);
#572=FILL_AREA_STYLE('Steel - Satin',(#574));
#573=FILL_AREA_STYLE('Aluminum - Bead Blasted',(#575));
#574=FILL_AREA_STYLE_COLOUR('Steel - Satin',#576);
#575=FILL_AREA_STYLE_COLOUR('Aluminum - Bead Blasted',#577);
#576=COLOUR_RGB('Steel - Satin',0.627450980392157,0.627450980392157,0.627450980392157);
#577=COLOUR_RGB('Aluminum - Bead Blasted',0.96078431372549,0.96078431372549,
0.964705882352941);
ENDSEC;
END-ISO-10303-21;
