ISO-10303-21;
HEADER;
/* Generated by software containing ST-Developer
 * from STEP Tools, Inc. (www.steptools.com) 
 */

FILE_DESCRIPTION(
/* description */ (''),
/* implementation_level */ '2;1');

FILE_NAME(
/* name */ 'C:\\Temp\\Invdome.stp',
/* time_stamp */ '2019-05-24T08:20:59+02:00',
/* author */ ('Inge'),
/* organization */ (''),
/* preprocessor_version */ 'ST-DEVELOPER v15.6',
/* originating_system */ 'Autodesk Inventor 2015',
/* authorisation */ '');

FILE_SCHEMA (('AUTOMOTIVE_DESIGN { 1 0 10303 214 3 1 1 }'));
ENDSEC;

DATA;
#10=MECHANICAL_DESIGN_GEOMETRIC_PRESENTATION_REPRESENTATION('',(#16),#998);
#11=DIMENSIONAL_EXPONENTS(0.,0.,0.,0.,0.,0.,0.);
#12=(
CONVERSION_BASED_UNIT('degree',#13)
NAMED_UNIT(#11)
PLANE_ANGLE_UNIT()
);
#13=PLANE_ANGLE_MEASURE_WITH_UNIT(PLANE_ANGLE_MEASURE(0.01745329252),#1001);
#14=SHAPE_REPRESENTATION_RELATIONSHIP('SRR','None',#1004,#15);
#15=ADVANCED_BREP_SHAPE_REPRESENTATION($,(#17),#997);
#16=STYLED_ITEM('',(#1014),#17);
#17=MANIFOLD_SOLID_BREP('solid_1801',#538);
#18=FACE_BOUND('',#93,.T.);
#19=PLANE('',#607);
#20=SPHERICAL_SURFACE('',#579,450.);
#21=SPHERICAL_SURFACE('',#586,455.);
#22=SPHERICAL_SURFACE('',#592,455.);
#23=SPHERICAL_SURFACE('',#597,455.);
#24=SPHERICAL_SURFACE('',#600,450.);
#25=SPHERICAL_SURFACE('',#603,450.);
#26=TOROIDAL_SURFACE('',#562,175.,45.);
#27=TOROIDAL_SURFACE('',#567,175.,50.);
#28=TOROIDAL_SURFACE('',#616,175.,50.);
#29=TOROIDAL_SURFACE('',#617,175.,45.);
#30=CYLINDRICAL_SURFACE('',#546,11.500000000001);
#31=CYLINDRICAL_SURFACE('',#548,36.);
#32=CYLINDRICAL_SURFACE('',#554,37.75);
#33=CYLINDRICAL_SURFACE('',#560,220.);
#34=CYLINDRICAL_SURFACE('',#573,225.);
#35=CYLINDRICAL_SURFACE('',#614,225.);
#36=CYLINDRICAL_SURFACE('',#619,220.);
#37=CYLINDRICAL_SURFACE('',#622,37.75);
#38=CYLINDRICAL_SURFACE('',#625,36.);
#39=CYLINDRICAL_SURFACE('',#627,11.500000000001);
#40=FACE_OUTER_BOUND('',#73,.T.);
#41=FACE_OUTER_BOUND('',#74,.T.);
#42=FACE_OUTER_BOUND('',#75,.T.);
#43=FACE_OUTER_BOUND('',#76,.T.);
#44=FACE_OUTER_BOUND('',#77,.T.);
#45=FACE_OUTER_BOUND('',#78,.T.);
#46=FACE_OUTER_BOUND('',#79,.T.);
#47=FACE_OUTER_BOUND('',#80,.T.);
#48=FACE_OUTER_BOUND('',#81,.T.);
#49=FACE_OUTER_BOUND('',#82,.T.);
#50=FACE_OUTER_BOUND('',#83,.T.);
#51=FACE_OUTER_BOUND('',#84,.T.);
#52=FACE_OUTER_BOUND('',#85,.T.);
#53=FACE_OUTER_BOUND('',#86,.T.);
#54=FACE_OUTER_BOUND('',#87,.T.);
#55=FACE_OUTER_BOUND('',#88,.T.);
#56=FACE_OUTER_BOUND('',#89,.T.);
#57=FACE_OUTER_BOUND('',#90,.T.);
#58=FACE_OUTER_BOUND('',#91,.T.);
#59=FACE_OUTER_BOUND('',#92,.T.);
#60=FACE_OUTER_BOUND('',#94,.T.);
#61=FACE_OUTER_BOUND('',#95,.T.);
#62=FACE_OUTER_BOUND('',#96,.T.);
#63=FACE_OUTER_BOUND('',#97,.T.);
#64=FACE_OUTER_BOUND('',#98,.T.);
#65=FACE_OUTER_BOUND('',#99,.T.);
#66=FACE_OUTER_BOUND('',#100,.T.);
#67=FACE_OUTER_BOUND('',#101,.T.);
#68=FACE_OUTER_BOUND('',#102,.T.);
#69=FACE_OUTER_BOUND('',#103,.T.);
#70=FACE_OUTER_BOUND('',#104,.T.);
#71=FACE_OUTER_BOUND('',#105,.T.);
#72=FACE_OUTER_BOUND('',#106,.T.);
#73=EDGE_LOOP('',(#333,#334,#335,#336));
#74=EDGE_LOOP('',(#337,#338,#339,#340));
#75=EDGE_LOOP('',(#341,#342,#343,#344));
#76=EDGE_LOOP('',(#345,#346,#347,#348));
#77=EDGE_LOOP('',(#349,#350,#351,#352,#353));
#78=EDGE_LOOP('',(#354,#355,#356,#357,#358));
#79=EDGE_LOOP('',(#359,#360,#361,#362));
#80=EDGE_LOOP('',(#363,#364,#365,#366));
#81=EDGE_LOOP('',(#367,#368,#369,#370,#371));
#82=EDGE_LOOP('',(#372,#373,#374,#375,#376));
#83=EDGE_LOOP('',(#377,#378,#379,#380));
#84=EDGE_LOOP('',(#381,#382,#383,#384));
#85=EDGE_LOOP('',(#385,#386,#387,#388));
#86=EDGE_LOOP('',(#389,#390,#391,#392,#393,#394,#395,#396,#397,#398));
#87=EDGE_LOOP('',(#399,#400,#401,#402,#403,#404));
#88=EDGE_LOOP('',(#405,#406,#407,#408,#409,#410));
#89=EDGE_LOOP('',(#411,#412,#413,#414,#415,#416,#417,#418,#419,#420));
#90=EDGE_LOOP('',(#421,#422,#423,#424,#425,#426));
#91=EDGE_LOOP('',(#427,#428,#429,#430,#431,#432));
#92=EDGE_LOOP('',(#433,#434));
#93=EDGE_LOOP('',(#435,#436));
#94=EDGE_LOOP('',(#437,#438,#439,#440));
#95=EDGE_LOOP('',(#441,#442,#443,#444));
#96=EDGE_LOOP('',(#445,#446,#447,#448));
#97=EDGE_LOOP('',(#449,#450,#451,#452,#453));
#98=EDGE_LOOP('',(#454,#455,#456,#457,#458));
#99=EDGE_LOOP('',(#459,#460,#461,#462));
#100=EDGE_LOOP('',(#463,#464,#465,#466));
#101=EDGE_LOOP('',(#467,#468,#469,#470,#471));
#102=EDGE_LOOP('',(#472,#473,#474,#475,#476));
#103=EDGE_LOOP('',(#477,#478,#479,#480));
#104=EDGE_LOOP('',(#481,#482,#483,#484));
#105=EDGE_LOOP('',(#485,#486,#487,#488));
#106=EDGE_LOOP('',(#489,#490,#491,#492));
#107=LINE('',#843,#129);
#108=LINE('',#846,#130);
#109=LINE('',#852,#131);
#110=LINE('',#855,#132);
#111=LINE('',#858,#133);
#112=LINE('',#861,#134);
#113=LINE('',#866,#135);
#114=LINE('',#867,#136);
#115=LINE('',#875,#137);
#116=LINE('',#878,#138);
#117=LINE('',#881,#139);
#118=LINE('',#886,#140);
#119=LINE('',#892,#141);
#120=LINE('',#895,#142);
#121=LINE('',#900,#143);
#122=LINE('',#901,#144);
#123=LINE('',#923,#145);
#124=LINE('',#926,#146);
#125=LINE('',#931,#147);
#126=LINE('',#932,#148);
#127=LINE('',#935,#149);
#128=LINE('',#938,#150);
#129=VECTOR('',#637,4.05363159763689);
#130=VECTOR('',#640,4.05363159763683);
#131=VECTOR('',#645,5.8327236406596);
#132=VECTOR('',#648,5.83272364065873);
#133=VECTOR('',#651,1.00161555681606);
#134=VECTOR('',#654,1.00161555681577);
#135=VECTOR('',#659,1.01589969874457);
#136=VECTOR('',#660,1.01589969874458);
#137=VECTOR('',#667,4.55428960481486);
#138=VECTOR('',#670,4.55428960481488);
#139=VECTOR('',#673,1.51749139264);
#140=VECTOR('',#678,1.51749139264);
#141=VECTOR('',#683,1.83116188314243);
#142=VECTOR('',#686,1.83116188314242);
#143=VECTOR('',#691,18.949688692685);
#144=VECTOR('',#692,18.949688692685);
#145=VECTOR('',#717,15.217637885116);
#146=VECTOR('',#720,15.217637885116);
#147=VECTOR('',#725,3.86370330515639);
#148=VECTOR('',#726,3.8637033051564);
#149=VECTOR('',#729,1.83116188314242);
#150=VECTOR('',#732,1.83116188314243);
#151=CIRCLE('',#541,36.);
#152=CIRCLE('',#542,37.049157059298);
#153=CIRCLE('',#544,11.5);
#154=CIRCLE('',#545,15.624358439097);
#155=CIRCLE('',#547,11.5);
#156=CIRCLE('',#549,36.);
#157=CIRCLE('',#551,40.970369063052);
#158=CIRCLE('',#552,40.970369063052);
#159=CIRCLE('',#553,37.75);
#160=CIRCLE('',#555,37.75);
#161=CIRCLE('',#556,37.75);
#162=CIRCLE('',#558,221.5);
#163=CIRCLE('',#559,220.);
#164=CIRCLE('',#561,220.);
#165=CIRCLE('',#563,194.444444444444);
#166=CIRCLE('',#564,194.444444444444);
#167=CIRCLE('',#565,45.);
#168=CIRCLE('',#566,45.);
#169=CIRCLE('',#568,196.604938271605);
#170=CIRCLE('',#569,196.604938271605);
#171=CIRCLE('',#570,50.);
#172=CIRCLE('',#571,225.);
#173=CIRCLE('',#572,50.);
#174=CIRCLE('',#574,225.);
#175=CIRCLE('',#576,224.);
#176=CIRCLE('',#578,222.5);
#177=CIRCLE('',#580,37.75);
#178=CIRCLE('',#581,450.);
#179=CIRCLE('',#582,450.);
#180=CIRCLE('',#583,194.444444444444);
#181=CIRCLE('',#584,450.);
#182=CIRCLE('',#585,450.);
#183=CIRCLE('',#587,455.);
#184=CIRCLE('',#588,37.049157059298);
#185=CIRCLE('',#589,455.);
#186=CIRCLE('',#590,40.970369063052);
#187=CIRCLE('',#591,455.);
#188=CIRCLE('',#593,455.);
#189=CIRCLE('',#594,11.5);
#190=CIRCLE('',#595,455.);
#191=CIRCLE('',#596,196.604938271605);
#192=CIRCLE('',#598,40.970369063052);
#193=CIRCLE('',#599,196.604938271605);
#194=CIRCLE('',#601,15.624358439097);
#195=CIRCLE('',#602,450.);
#196=CIRCLE('',#604,37.75);
#197=CIRCLE('',#605,36.);
#198=CIRCLE('',#606,194.444444444444);
#199=CIRCLE('',#608,222.5);
#200=CIRCLE('',#609,221.5);
#201=CIRCLE('',#611,224.);
#202=CIRCLE('',#613,225.);
#203=CIRCLE('',#615,225.);
#204=CIRCLE('',#618,220.);
#205=CIRCLE('',#620,220.);
#206=CIRCLE('',#623,37.75);
#207=CIRCLE('',#626,36.);
#208=CIRCLE('',#628,11.5);
#209=VERTEX_POINT('',#839);
#210=VERTEX_POINT('',#840);
#211=VERTEX_POINT('',#842);
#212=VERTEX_POINT('',#844);
#213=VERTEX_POINT('',#848);
#214=VERTEX_POINT('',#849);
#215=VERTEX_POINT('',#851);
#216=VERTEX_POINT('',#853);
#217=VERTEX_POINT('',#857);
#218=VERTEX_POINT('',#859);
#219=VERTEX_POINT('',#863);
#220=VERTEX_POINT('',#864);
#221=VERTEX_POINT('',#869);
#222=VERTEX_POINT('',#870);
#223=VERTEX_POINT('',#872);
#224=VERTEX_POINT('',#874);
#225=VERTEX_POINT('',#876);
#226=VERTEX_POINT('',#880);
#227=VERTEX_POINT('',#882);
#228=VERTEX_POINT('',#884);
#229=VERTEX_POINT('',#888);
#230=VERTEX_POINT('',#889);
#231=VERTEX_POINT('',#891);
#232=VERTEX_POINT('',#893);
#233=VERTEX_POINT('',#897);
#234=VERTEX_POINT('',#898);
#235=VERTEX_POINT('',#903);
#236=VERTEX_POINT('',#904);
#237=VERTEX_POINT('',#906);
#238=VERTEX_POINT('',#911);
#239=VERTEX_POINT('',#912);
#240=VERTEX_POINT('',#914);
#241=VERTEX_POINT('',#916);
#242=VERTEX_POINT('',#918);
#243=VERTEX_POINT('',#922);
#244=VERTEX_POINT('',#924);
#245=VERTEX_POINT('',#928);
#246=VERTEX_POINT('',#929);
#247=VERTEX_POINT('',#934);
#248=VERTEX_POINT('',#936);
#249=VERTEX_POINT('',#940);
#250=VERTEX_POINT('',#944);
#251=VERTEX_POINT('',#951);
#252=VERTEX_POINT('',#958);
#253=EDGE_CURVE('',#209,#210,#151,.T.);
#254=EDGE_CURVE('',#210,#211,#107,.T.);
#255=EDGE_CURVE('',#211,#212,#152,.T.);
#256=EDGE_CURVE('',#212,#209,#108,.T.);
#257=EDGE_CURVE('',#213,#214,#153,.T.);
#258=EDGE_CURVE('',#214,#215,#109,.T.);
#259=EDGE_CURVE('',#215,#216,#154,.T.);
#260=EDGE_CURVE('',#216,#213,#110,.T.);
#261=EDGE_CURVE('',#213,#217,#111,.T.);
#262=EDGE_CURVE('',#217,#218,#155,.T.);
#263=EDGE_CURVE('',#218,#214,#112,.T.);
#264=EDGE_CURVE('',#219,#220,#156,.T.);
#265=EDGE_CURVE('',#220,#210,#113,.T.);
#266=EDGE_CURVE('',#209,#219,#114,.T.);
#267=EDGE_CURVE('',#221,#222,#157,.T.);
#268=EDGE_CURVE('',#222,#223,#158,.T.);
#269=EDGE_CURVE('',#223,#224,#115,.T.);
#270=EDGE_CURVE('',#224,#225,#159,.T.);
#271=EDGE_CURVE('',#225,#221,#116,.T.);
#272=EDGE_CURVE('',#224,#226,#117,.T.);
#273=EDGE_CURVE('',#226,#227,#160,.T.);
#274=EDGE_CURVE('',#227,#228,#161,.T.);
#275=EDGE_CURVE('',#228,#225,#118,.T.);
#276=EDGE_CURVE('',#229,#230,#162,.T.);
#277=EDGE_CURVE('',#230,#231,#119,.T.);
#278=EDGE_CURVE('',#231,#232,#163,.T.);
#279=EDGE_CURVE('',#232,#229,#120,.T.);
#280=EDGE_CURVE('',#233,#234,#164,.T.);
#281=EDGE_CURVE('',#234,#232,#121,.T.);
#282=EDGE_CURVE('',#231,#233,#122,.T.);
#283=EDGE_CURVE('',#235,#236,#165,.T.);
#284=EDGE_CURVE('',#236,#237,#166,.T.);
#285=EDGE_CURVE('',#237,#234,#167,.T.);
#286=EDGE_CURVE('',#233,#235,#168,.T.);
#287=EDGE_CURVE('',#238,#239,#169,.T.);
#288=EDGE_CURVE('',#239,#240,#170,.T.);
#289=EDGE_CURVE('',#240,#241,#171,.T.);
#290=EDGE_CURVE('',#241,#242,#172,.T.);
#291=EDGE_CURVE('',#242,#238,#173,.T.);
#292=EDGE_CURVE('',#241,#243,#123,.T.);
#293=EDGE_CURVE('',#243,#244,#174,.T.);
#294=EDGE_CURVE('',#244,#242,#124,.T.);
#295=EDGE_CURVE('',#245,#246,#175,.T.);
#296=EDGE_CURVE('',#246,#244,#125,.T.);
#297=EDGE_CURVE('',#243,#245,#126,.T.);
#298=EDGE_CURVE('',#245,#247,#127,.T.);
#299=EDGE_CURVE('',#247,#248,#176,.T.);
#300=EDGE_CURVE('',#248,#246,#128,.T.);
#301=EDGE_CURVE('',#249,#228,#177,.T.);
#302=EDGE_CURVE('',#227,#216,#178,.T.);
#303=EDGE_CURVE('',#215,#236,#179,.T.);
#304=EDGE_CURVE('',#235,#250,#180,.T.);
#305=EDGE_CURVE('',#250,#220,#181,.T.);
#306=EDGE_CURVE('',#219,#249,#182,.T.);
#307=EDGE_CURVE('',#239,#211,#183,.T.);
#308=EDGE_CURVE('',#211,#212,#184,.T.);
#309=EDGE_CURVE('',#212,#251,#185,.T.);
#310=EDGE_CURVE('',#251,#223,#186,.T.);
#311=EDGE_CURVE('',#223,#240,#187,.T.);
#312=EDGE_CURVE('',#222,#217,#188,.T.);
#313=EDGE_CURVE('',#217,#218,#189,.T.);
#314=EDGE_CURVE('',#218,#252,#190,.T.);
#315=EDGE_CURVE('',#252,#240,#191,.T.);
#316=EDGE_CURVE('',#221,#251,#192,.T.);
#317=EDGE_CURVE('',#238,#252,#193,.T.);
#318=EDGE_CURVE('',#215,#216,#194,.T.);
#319=EDGE_CURVE('',#226,#237,#195,.T.);
#320=EDGE_CURVE('',#226,#249,#196,.T.);
#321=EDGE_CURVE('',#219,#220,#197,.T.);
#322=EDGE_CURVE('',#250,#237,#198,.T.);
#323=EDGE_CURVE('',#247,#248,#199,.T.);
#324=EDGE_CURVE('',#229,#230,#200,.T.);
#325=EDGE_CURVE('',#245,#246,#201,.T.);
#326=EDGE_CURVE('',#243,#244,#202,.T.);
#327=EDGE_CURVE('',#241,#242,#203,.T.);
#328=EDGE_CURVE('',#233,#234,#204,.T.);
#329=EDGE_CURVE('',#231,#232,#205,.T.);
#330=EDGE_CURVE('',#224,#225,#206,.T.);
#331=EDGE_CURVE('',#209,#210,#207,.T.);
#332=EDGE_CURVE('',#213,#214,#208,.T.);
#333=ORIENTED_EDGE('',*,*,#253,.T.);
#334=ORIENTED_EDGE('',*,*,#254,.T.);
#335=ORIENTED_EDGE('',*,*,#255,.T.);
#336=ORIENTED_EDGE('',*,*,#256,.T.);
#337=ORIENTED_EDGE('',*,*,#257,.T.);
#338=ORIENTED_EDGE('',*,*,#258,.T.);
#339=ORIENTED_EDGE('',*,*,#259,.T.);
#340=ORIENTED_EDGE('',*,*,#260,.T.);
#341=ORIENTED_EDGE('',*,*,#257,.F.);
#342=ORIENTED_EDGE('',*,*,#261,.T.);
#343=ORIENTED_EDGE('',*,*,#262,.T.);
#344=ORIENTED_EDGE('',*,*,#263,.T.);
#345=ORIENTED_EDGE('',*,*,#264,.T.);
#346=ORIENTED_EDGE('',*,*,#265,.T.);
#347=ORIENTED_EDGE('',*,*,#253,.F.);
#348=ORIENTED_EDGE('',*,*,#266,.T.);
#349=ORIENTED_EDGE('',*,*,#267,.T.);
#350=ORIENTED_EDGE('',*,*,#268,.T.);
#351=ORIENTED_EDGE('',*,*,#269,.T.);
#352=ORIENTED_EDGE('',*,*,#270,.T.);
#353=ORIENTED_EDGE('',*,*,#271,.T.);
#354=ORIENTED_EDGE('',*,*,#270,.F.);
#355=ORIENTED_EDGE('',*,*,#272,.T.);
#356=ORIENTED_EDGE('',*,*,#273,.T.);
#357=ORIENTED_EDGE('',*,*,#274,.T.);
#358=ORIENTED_EDGE('',*,*,#275,.T.);
#359=ORIENTED_EDGE('',*,*,#276,.T.);
#360=ORIENTED_EDGE('',*,*,#277,.T.);
#361=ORIENTED_EDGE('',*,*,#278,.T.);
#362=ORIENTED_EDGE('',*,*,#279,.T.);
#363=ORIENTED_EDGE('',*,*,#280,.T.);
#364=ORIENTED_EDGE('',*,*,#281,.T.);
#365=ORIENTED_EDGE('',*,*,#278,.F.);
#366=ORIENTED_EDGE('',*,*,#282,.T.);
#367=ORIENTED_EDGE('',*,*,#283,.T.);
#368=ORIENTED_EDGE('',*,*,#284,.T.);
#369=ORIENTED_EDGE('',*,*,#285,.T.);
#370=ORIENTED_EDGE('',*,*,#280,.F.);
#371=ORIENTED_EDGE('',*,*,#286,.T.);
#372=ORIENTED_EDGE('',*,*,#287,.T.);
#373=ORIENTED_EDGE('',*,*,#288,.T.);
#374=ORIENTED_EDGE('',*,*,#289,.T.);
#375=ORIENTED_EDGE('',*,*,#290,.T.);
#376=ORIENTED_EDGE('',*,*,#291,.T.);
#377=ORIENTED_EDGE('',*,*,#290,.F.);
#378=ORIENTED_EDGE('',*,*,#292,.T.);
#379=ORIENTED_EDGE('',*,*,#293,.T.);
#380=ORIENTED_EDGE('',*,*,#294,.T.);
#381=ORIENTED_EDGE('',*,*,#295,.T.);
#382=ORIENTED_EDGE('',*,*,#296,.T.);
#383=ORIENTED_EDGE('',*,*,#293,.F.);
#384=ORIENTED_EDGE('',*,*,#297,.T.);
#385=ORIENTED_EDGE('',*,*,#295,.F.);
#386=ORIENTED_EDGE('',*,*,#298,.T.);
#387=ORIENTED_EDGE('',*,*,#299,.T.);
#388=ORIENTED_EDGE('',*,*,#300,.T.);
#389=ORIENTED_EDGE('',*,*,#301,.T.);
#390=ORIENTED_EDGE('',*,*,#274,.F.);
#391=ORIENTED_EDGE('',*,*,#302,.T.);
#392=ORIENTED_EDGE('',*,*,#259,.F.);
#393=ORIENTED_EDGE('',*,*,#303,.T.);
#394=ORIENTED_EDGE('',*,*,#283,.F.);
#395=ORIENTED_EDGE('',*,*,#304,.T.);
#396=ORIENTED_EDGE('',*,*,#305,.T.);
#397=ORIENTED_EDGE('',*,*,#264,.F.);
#398=ORIENTED_EDGE('',*,*,#306,.T.);
#399=ORIENTED_EDGE('',*,*,#288,.F.);
#400=ORIENTED_EDGE('',*,*,#307,.T.);
#401=ORIENTED_EDGE('',*,*,#308,.T.);
#402=ORIENTED_EDGE('',*,*,#309,.T.);
#403=ORIENTED_EDGE('',*,*,#310,.T.);
#404=ORIENTED_EDGE('',*,*,#311,.T.);
#405=ORIENTED_EDGE('',*,*,#268,.F.);
#406=ORIENTED_EDGE('',*,*,#312,.T.);
#407=ORIENTED_EDGE('',*,*,#313,.T.);
#408=ORIENTED_EDGE('',*,*,#314,.T.);
#409=ORIENTED_EDGE('',*,*,#315,.T.);
#410=ORIENTED_EDGE('',*,*,#311,.F.);
#411=ORIENTED_EDGE('',*,*,#312,.F.);
#412=ORIENTED_EDGE('',*,*,#267,.F.);
#413=ORIENTED_EDGE('',*,*,#316,.T.);
#414=ORIENTED_EDGE('',*,*,#309,.F.);
#415=ORIENTED_EDGE('',*,*,#255,.F.);
#416=ORIENTED_EDGE('',*,*,#307,.F.);
#417=ORIENTED_EDGE('',*,*,#287,.F.);
#418=ORIENTED_EDGE('',*,*,#317,.T.);
#419=ORIENTED_EDGE('',*,*,#314,.F.);
#420=ORIENTED_EDGE('',*,*,#262,.F.);
#421=ORIENTED_EDGE('',*,*,#284,.F.);
#422=ORIENTED_EDGE('',*,*,#303,.F.);
#423=ORIENTED_EDGE('',*,*,#318,.T.);
#424=ORIENTED_EDGE('',*,*,#302,.F.);
#425=ORIENTED_EDGE('',*,*,#273,.F.);
#426=ORIENTED_EDGE('',*,*,#319,.T.);
#427=ORIENTED_EDGE('',*,*,#320,.T.);
#428=ORIENTED_EDGE('',*,*,#306,.F.);
#429=ORIENTED_EDGE('',*,*,#321,.T.);
#430=ORIENTED_EDGE('',*,*,#305,.F.);
#431=ORIENTED_EDGE('',*,*,#322,.T.);
#432=ORIENTED_EDGE('',*,*,#319,.F.);
#433=ORIENTED_EDGE('',*,*,#299,.F.);
#434=ORIENTED_EDGE('',*,*,#323,.T.);
#435=ORIENTED_EDGE('',*,*,#276,.F.);
#436=ORIENTED_EDGE('',*,*,#324,.T.);
#437=ORIENTED_EDGE('',*,*,#325,.T.);
#438=ORIENTED_EDGE('',*,*,#300,.F.);
#439=ORIENTED_EDGE('',*,*,#323,.F.);
#440=ORIENTED_EDGE('',*,*,#298,.F.);
#441=ORIENTED_EDGE('',*,*,#325,.F.);
#442=ORIENTED_EDGE('',*,*,#297,.F.);
#443=ORIENTED_EDGE('',*,*,#326,.T.);
#444=ORIENTED_EDGE('',*,*,#296,.F.);
#445=ORIENTED_EDGE('',*,*,#326,.F.);
#446=ORIENTED_EDGE('',*,*,#292,.F.);
#447=ORIENTED_EDGE('',*,*,#327,.T.);
#448=ORIENTED_EDGE('',*,*,#294,.F.);
#449=ORIENTED_EDGE('',*,*,#289,.F.);
#450=ORIENTED_EDGE('',*,*,#315,.F.);
#451=ORIENTED_EDGE('',*,*,#317,.F.);
#452=ORIENTED_EDGE('',*,*,#291,.F.);
#453=ORIENTED_EDGE('',*,*,#327,.F.);
#454=ORIENTED_EDGE('',*,*,#285,.F.);
#455=ORIENTED_EDGE('',*,*,#322,.F.);
#456=ORIENTED_EDGE('',*,*,#304,.F.);
#457=ORIENTED_EDGE('',*,*,#286,.F.);
#458=ORIENTED_EDGE('',*,*,#328,.T.);
#459=ORIENTED_EDGE('',*,*,#329,.T.);
#460=ORIENTED_EDGE('',*,*,#281,.F.);
#461=ORIENTED_EDGE('',*,*,#328,.F.);
#462=ORIENTED_EDGE('',*,*,#282,.F.);
#463=ORIENTED_EDGE('',*,*,#329,.F.);
#464=ORIENTED_EDGE('',*,*,#277,.F.);
#465=ORIENTED_EDGE('',*,*,#324,.F.);
#466=ORIENTED_EDGE('',*,*,#279,.F.);
#467=ORIENTED_EDGE('',*,*,#301,.F.);
#468=ORIENTED_EDGE('',*,*,#320,.F.);
#469=ORIENTED_EDGE('',*,*,#272,.F.);
#470=ORIENTED_EDGE('',*,*,#330,.T.);
#471=ORIENTED_EDGE('',*,*,#275,.F.);
#472=ORIENTED_EDGE('',*,*,#310,.F.);
#473=ORIENTED_EDGE('',*,*,#316,.F.);
#474=ORIENTED_EDGE('',*,*,#271,.F.);
#475=ORIENTED_EDGE('',*,*,#330,.F.);
#476=ORIENTED_EDGE('',*,*,#269,.F.);
#477=ORIENTED_EDGE('',*,*,#331,.T.);
#478=ORIENTED_EDGE('',*,*,#265,.F.);
#479=ORIENTED_EDGE('',*,*,#321,.F.);
#480=ORIENTED_EDGE('',*,*,#266,.F.);
#481=ORIENTED_EDGE('',*,*,#313,.F.);
#482=ORIENTED_EDGE('',*,*,#261,.F.);
#483=ORIENTED_EDGE('',*,*,#332,.T.);
#484=ORIENTED_EDGE('',*,*,#263,.F.);
#485=ORIENTED_EDGE('',*,*,#332,.F.);
#486=ORIENTED_EDGE('',*,*,#260,.F.);
#487=ORIENTED_EDGE('',*,*,#318,.F.);
#488=ORIENTED_EDGE('',*,*,#258,.F.);
#489=ORIENTED_EDGE('',*,*,#308,.F.);
#490=ORIENTED_EDGE('',*,*,#254,.F.);
#491=ORIENTED_EDGE('',*,*,#331,.F.);
#492=ORIENTED_EDGE('',*,*,#256,.F.);
#493=CONICAL_SURFACE('',#540,36.678665488693,0.2617993878);
#494=CONICAL_SURFACE('',#543,15.468114854706,0.785398163398);
#495=CONICAL_SURFACE('',#550,40.560665372421,0.785398163397);
#496=CONICAL_SURFACE('',#557,219.285,0.959931088597);
#497=CONICAL_SURFACE('',#575,222.75,0.261799387799);
#498=CONICAL_SURFACE('',#577,221.76,0.959931088597);
#499=CONICAL_SURFACE('',#610,221.76,0.959931088597);
#500=CONICAL_SURFACE('',#612,222.75,0.261799387799);
#501=CONICAL_SURFACE('',#621,219.285,0.959931088597);
#502=CONICAL_SURFACE('',#624,40.560665372421,0.785398163397);
#503=CONICAL_SURFACE('',#629,15.468114854706,0.785398163398);
#504=CONICAL_SURFACE('',#630,36.678665488693,0.2617993878);
#505=ADVANCED_FACE('',(#40),#493,.F.);
#506=ADVANCED_FACE('',(#41),#494,.F.);
#507=ADVANCED_FACE('',(#42),#30,.F.);
#508=ADVANCED_FACE('',(#43),#31,.F.);
#509=ADVANCED_FACE('',(#44),#495,.F.);
#510=ADVANCED_FACE('',(#45),#32,.F.);
#511=ADVANCED_FACE('',(#46),#496,.F.);
#512=ADVANCED_FACE('',(#47),#33,.F.);
#513=ADVANCED_FACE('',(#48),#26,.F.);
#514=ADVANCED_FACE('',(#49),#27,.T.);
#515=ADVANCED_FACE('',(#50),#34,.T.);
#516=ADVANCED_FACE('',(#51),#497,.T.);
#517=ADVANCED_FACE('',(#52),#498,.T.);
#518=ADVANCED_FACE('',(#53),#20,.F.);
#519=ADVANCED_FACE('',(#54),#21,.T.);
#520=ADVANCED_FACE('',(#55),#22,.T.);
#521=ADVANCED_FACE('',(#56),#23,.T.);
#522=ADVANCED_FACE('',(#57),#24,.F.);
#523=ADVANCED_FACE('',(#58),#25,.F.);
#524=ADVANCED_FACE('',(#59,#18),#19,.T.);
#525=ADVANCED_FACE('',(#60),#499,.T.);
#526=ADVANCED_FACE('',(#61),#500,.T.);
#527=ADVANCED_FACE('',(#62),#35,.T.);
#528=ADVANCED_FACE('',(#63),#28,.T.);
#529=ADVANCED_FACE('',(#64),#29,.F.);
#530=ADVANCED_FACE('',(#65),#36,.F.);
#531=ADVANCED_FACE('',(#66),#501,.F.);
#532=ADVANCED_FACE('',(#67),#37,.F.);
#533=ADVANCED_FACE('',(#68),#502,.F.);
#534=ADVANCED_FACE('',(#69),#38,.F.);
#535=ADVANCED_FACE('',(#70),#39,.F.);
#536=ADVANCED_FACE('',(#71),#503,.F.);
#537=ADVANCED_FACE('',(#72),#504,.F.);
#538=CLOSED_SHELL('',(#505,#506,#507,#508,#509,#510,#511,#512,#513,#514,
#515,#516,#517,#518,#519,#520,#521,#522,#523,#524,#525,#526,#527,#528,#529,
#530,#531,#532,#533,#534,#535,#536,#537));
#539=AXIS2_PLACEMENT_3D('placement',#837,#631,#632);
#540=AXIS2_PLACEMENT_3D('',#838,#633,#634);
#541=AXIS2_PLACEMENT_3D('',#841,#635,#636);
#542=AXIS2_PLACEMENT_3D('',#845,#638,#639);
#543=AXIS2_PLACEMENT_3D('',#847,#641,#642);
#544=AXIS2_PLACEMENT_3D('',#850,#643,#644);
#545=AXIS2_PLACEMENT_3D('',#854,#646,#647);
#546=AXIS2_PLACEMENT_3D('',#856,#649,#650);
#547=AXIS2_PLACEMENT_3D('',#860,#652,#653);
#548=AXIS2_PLACEMENT_3D('',#862,#655,#656);
#549=AXIS2_PLACEMENT_3D('',#865,#657,#658);
#550=AXIS2_PLACEMENT_3D('',#868,#661,#662);
#551=AXIS2_PLACEMENT_3D('',#871,#663,#664);
#552=AXIS2_PLACEMENT_3D('',#873,#665,#666);
#553=AXIS2_PLACEMENT_3D('',#877,#668,#669);
#554=AXIS2_PLACEMENT_3D('',#879,#671,#672);
#555=AXIS2_PLACEMENT_3D('',#883,#674,#675);
#556=AXIS2_PLACEMENT_3D('',#885,#676,#677);
#557=AXIS2_PLACEMENT_3D('',#887,#679,#680);
#558=AXIS2_PLACEMENT_3D('',#890,#681,#682);
#559=AXIS2_PLACEMENT_3D('',#894,#684,#685);
#560=AXIS2_PLACEMENT_3D('',#896,#687,#688);
#561=AXIS2_PLACEMENT_3D('',#899,#689,#690);
#562=AXIS2_PLACEMENT_3D('',#902,#693,#694);
#563=AXIS2_PLACEMENT_3D('',#905,#695,#696);
#564=AXIS2_PLACEMENT_3D('',#907,#697,#698);
#565=AXIS2_PLACEMENT_3D('',#908,#699,#700);
#566=AXIS2_PLACEMENT_3D('',#909,#701,#702);
#567=AXIS2_PLACEMENT_3D('',#910,#703,#704);
#568=AXIS2_PLACEMENT_3D('',#913,#705,#706);
#569=AXIS2_PLACEMENT_3D('',#915,#707,#708);
#570=AXIS2_PLACEMENT_3D('',#917,#709,#710);
#571=AXIS2_PLACEMENT_3D('',#919,#711,#712);
#572=AXIS2_PLACEMENT_3D('',#920,#713,#714);
#573=AXIS2_PLACEMENT_3D('',#921,#715,#716);
#574=AXIS2_PLACEMENT_3D('',#925,#718,#719);
#575=AXIS2_PLACEMENT_3D('',#927,#721,#722);
#576=AXIS2_PLACEMENT_3D('',#930,#723,#724);
#577=AXIS2_PLACEMENT_3D('',#933,#727,#728);
#578=AXIS2_PLACEMENT_3D('',#937,#730,#731);
#579=AXIS2_PLACEMENT_3D('',#939,#733,#734);
#580=AXIS2_PLACEMENT_3D('',#941,#735,#736);
#581=AXIS2_PLACEMENT_3D('',#942,#737,#738);
#582=AXIS2_PLACEMENT_3D('',#943,#739,#740);
#583=AXIS2_PLACEMENT_3D('',#945,#741,#742);
#584=AXIS2_PLACEMENT_3D('',#946,#743,#744);
#585=AXIS2_PLACEMENT_3D('',#947,#745,#746);
#586=AXIS2_PLACEMENT_3D('',#948,#747,#748);
#587=AXIS2_PLACEMENT_3D('',#949,#749,#750);
#588=AXIS2_PLACEMENT_3D('',#950,#751,#752);
#589=AXIS2_PLACEMENT_3D('',#952,#753,#754);
#590=AXIS2_PLACEMENT_3D('',#953,#755,#756);
#591=AXIS2_PLACEMENT_3D('',#954,#757,#758);
#592=AXIS2_PLACEMENT_3D('',#955,#759,#760);
#593=AXIS2_PLACEMENT_3D('',#956,#761,#762);
#594=AXIS2_PLACEMENT_3D('',#957,#763,#764);
#595=AXIS2_PLACEMENT_3D('',#959,#765,#766);
#596=AXIS2_PLACEMENT_3D('',#960,#767,#768);
#597=AXIS2_PLACEMENT_3D('',#961,#769,#770);
#598=AXIS2_PLACEMENT_3D('',#962,#771,#772);
#599=AXIS2_PLACEMENT_3D('',#963,#773,#774);
#600=AXIS2_PLACEMENT_3D('',#964,#775,#776);
#601=AXIS2_PLACEMENT_3D('',#965,#777,#778);
#602=AXIS2_PLACEMENT_3D('',#966,#779,#780);
#603=AXIS2_PLACEMENT_3D('',#967,#781,#782);
#604=AXIS2_PLACEMENT_3D('',#968,#783,#784);
#605=AXIS2_PLACEMENT_3D('',#969,#785,#786);
#606=AXIS2_PLACEMENT_3D('',#970,#787,#788);
#607=AXIS2_PLACEMENT_3D('',#971,#789,#790);
#608=AXIS2_PLACEMENT_3D('',#972,#791,#792);
#609=AXIS2_PLACEMENT_3D('',#973,#793,#794);
#610=AXIS2_PLACEMENT_3D('',#974,#795,#796);
#611=AXIS2_PLACEMENT_3D('',#975,#797,#798);
#612=AXIS2_PLACEMENT_3D('',#976,#799,#800);
#613=AXIS2_PLACEMENT_3D('',#977,#801,#802);
#614=AXIS2_PLACEMENT_3D('',#978,#803,#804);
#615=AXIS2_PLACEMENT_3D('',#979,#805,#806);
#616=AXIS2_PLACEMENT_3D('',#980,#807,#808);
#617=AXIS2_PLACEMENT_3D('',#981,#809,#810);
#618=AXIS2_PLACEMENT_3D('',#982,#811,#812);
#619=AXIS2_PLACEMENT_3D('',#983,#813,#814);
#620=AXIS2_PLACEMENT_3D('',#984,#815,#816);
#621=AXIS2_PLACEMENT_3D('',#985,#817,#818);
#622=AXIS2_PLACEMENT_3D('',#986,#819,#820);
#623=AXIS2_PLACEMENT_3D('',#987,#821,#822);
#624=AXIS2_PLACEMENT_3D('',#988,#823,#824);
#625=AXIS2_PLACEMENT_3D('',#989,#825,#826);
#626=AXIS2_PLACEMENT_3D('',#990,#827,#828);
#627=AXIS2_PLACEMENT_3D('',#991,#829,#830);
#628=AXIS2_PLACEMENT_3D('',#992,#831,#832);
#629=AXIS2_PLACEMENT_3D('',#993,#833,#834);
#630=AXIS2_PLACEMENT_3D('',#994,#835,#836);
#631=DIRECTION('axis',(0.,0.,1.));
#632=DIRECTION('refdir',(1.,0.,0.));
#633=DIRECTION('center_axis',(0.,0.230769230769968,0.973008510820865));
#634=DIRECTION('ref_axis',(-1.,0.,0.));
#635=DIRECTION('center_axis',(0.,-0.230769230769021,-0.97300851082109));
#636=DIRECTION('ref_axis',(0.,-0.973008510821089,0.230769230769021));
#637=DIRECTION('',(0.,0.474739093560199,0.880126577854368));
#638=DIRECTION('center_axis',(0.,0.230769230769021,0.97300851082109));
#639=DIRECTION('ref_axis',(0.,0.97300851082109,-0.230769230769021));
#640=DIRECTION('',(0.,0.0289271737339959,-0.999581521747858));
#641=DIRECTION('center_axis',(0.,0.274725274725068,-0.96152276282324));
#642=DIRECTION('ref_axis',(-1.,0.,0.));
#643=DIRECTION('center_axis',(0.,-0.274725274725068,0.96152276282324));
#644=DIRECTION('ref_axis',(0.,0.96152276282324,0.274725274725069));
#645=DIRECTION('',(0.,-0.485639161136012,-0.874159370579021));
#646=DIRECTION('center_axis',(0.,0.274725274725068,-0.96152276282324));
#647=DIRECTION('ref_axis',(0.,0.961522762823239,0.274725274725068));
#648=DIRECTION('',(0.,-0.874159370579021,0.485639161136012));
#649=DIRECTION('center_axis',(0.,0.274725274725068,-0.96152276282324));
#650=DIRECTION('ref_axis',(0.,-0.96152276282324,-0.274725274725069));
#651=DIRECTION('',(0.,-0.274725274726917,0.961522762822711));
#652=DIRECTION('center_axis',(0.,-0.274725274725068,0.96152276282324));
#653=DIRECTION('ref_axis',(0.,0.96152276282324,0.274725274725069));
#654=DIRECTION('',(0.,0.274725274725993,-0.961522762822975));
#655=DIRECTION('center_axis',(-1.00000000000009E-12,-0.230769230769021,
-0.97300851082109));
#656=DIRECTION('ref_axis',(0.,-0.973008510821089,0.230769230769021));
#657=DIRECTION('center_axis',(0.,-0.230769230769021,-0.97300851082109));
#658=DIRECTION('ref_axis',(0.,0.973008510821089,-0.230769230769021));
#659=DIRECTION('',(0.,0.230769230768074,0.973008510821314));
#660=DIRECTION('',(0.,-0.230769230769021,-0.97300851082109));
#661=DIRECTION('center_axis',(0.,0.,1.));
#662=DIRECTION('ref_axis',(0.,-1.,0.));
#663=DIRECTION('center_axis',(0.,0.,1.));
#664=DIRECTION('ref_axis',(-1.,0.,0.));
#665=DIRECTION('center_axis',(0.,0.,1.));
#666=DIRECTION('ref_axis',(-1.,0.,0.));
#667=DIRECTION('',(-0.707106781186547,0.,-0.707106781186547));
#668=DIRECTION('center_axis',(0.,0.,-1.));
#669=DIRECTION('ref_axis',(1.,0.,0.));
#670=DIRECTION('',(-0.707106781186548,0.,0.707106781186548));
#671=DIRECTION('center_axis',(0.,0.,1.));
#672=DIRECTION('ref_axis',(-1.,0.,0.));
#673=DIRECTION('',(0.,0.,-1.));
#674=DIRECTION('center_axis',(0.,0.,-1.));
#675=DIRECTION('ref_axis',(-1.,0.,0.));
#676=DIRECTION('center_axis',(0.,0.,-1.));
#677=DIRECTION('ref_axis',(-1.,0.,0.));
#678=DIRECTION('',(0.,0.,1.));
#679=DIRECTION('center_axis',(0.,0.,-1.));
#680=DIRECTION('ref_axis',(0.,-1.,0.));
#681=DIRECTION('center_axis',(0.,0.,-1.));
#682=DIRECTION('ref_axis',(-1.,0.,0.));
#683=DIRECTION('',(0.819152044289016,0.,0.573576436351011));
#684=DIRECTION('center_axis',(0.,0.,1.));
#685=DIRECTION('ref_axis',(-1.,0.,0.));
#686=DIRECTION('',(0.819152044289016,0.,-0.573576436351011));
#687=DIRECTION('center_axis',(0.,0.,1.));
#688=DIRECTION('ref_axis',(-1.,0.,0.));
#689=DIRECTION('center_axis',(0.,0.,1.));
#690=DIRECTION('ref_axis',(-1.,0.,0.));
#691=DIRECTION('',(0.,0.,-1.));
#692=DIRECTION('',(0.,0.,1.));
#693=DIRECTION('center_axis',(0.,0.,1.));
#694=DIRECTION('ref_axis',(1.,0.,0.));
#695=DIRECTION('center_axis',(0.,0.,1.));
#696=DIRECTION('ref_axis',(-1.,0.,0.));
#697=DIRECTION('center_axis',(0.,0.,1.));
#698=DIRECTION('ref_axis',(-1.,0.,0.));
#699=DIRECTION('center_axis',(0.,1.,0.));
#700=DIRECTION('ref_axis',(-1.,0.,0.));
#701=DIRECTION('center_axis',(0.,1.,0.));
#702=DIRECTION('ref_axis',(-1.,0.,0.));
#703=DIRECTION('center_axis',(0.,0.,-1.));
#704=DIRECTION('ref_axis',(-1.,0.,0.));
#705=DIRECTION('center_axis',(0.,0.,-1.));
#706=DIRECTION('ref_axis',(-1.,0.,0.));
#707=DIRECTION('center_axis',(0.,0.,-1.));
#708=DIRECTION('ref_axis',(-1.,0.,0.));
#709=DIRECTION('center_axis',(0.,1.,0.));
#710=DIRECTION('ref_axis',(-1.,0.,0.));
#711=DIRECTION('center_axis',(0.,0.,1.));
#712=DIRECTION('ref_axis',(-1.,0.,0.));
#713=DIRECTION('center_axis',(0.,1.,0.));
#714=DIRECTION('ref_axis',(-1.,0.,0.));
#715=DIRECTION('center_axis',(0.,0.,-1.));
#716=DIRECTION('ref_axis',(-1.,0.,0.));
#717=DIRECTION('',(0.,0.,-1.));
#718=DIRECTION('center_axis',(0.,0.,1.));
#719=DIRECTION('ref_axis',(-1.,0.,0.));
#720=DIRECTION('',(0.,0.,1.));
#721=DIRECTION('center_axis',(0.,0.,1.));
#722=DIRECTION('ref_axis',(0.,1.,0.));
#723=DIRECTION('center_axis',(0.,0.,1.));
#724=DIRECTION('ref_axis',(-1.,0.,0.));
#725=DIRECTION('',(-0.258819045102052,0.,0.965925826289194));
#726=DIRECTION('',(-0.258819045102985,0.,-0.965925826288944));
#727=DIRECTION('center_axis',(0.,0.,1.));
#728=DIRECTION('ref_axis',(0.,1.,0.));
#729=DIRECTION('',(-0.819152044289016,0.,-0.573576436351011));
#730=DIRECTION('center_axis',(0.,0.,1.));
#731=DIRECTION('ref_axis',(-1.,0.,0.));
#732=DIRECTION('',(-0.819152044289016,0.,0.573576436351011));
#733=DIRECTION('center_axis',(-6.31593542897867E-17,0.,-1.));
#734=DIRECTION('ref_axis',(-1.,0.,0.));
#735=DIRECTION('center_axis',(0.,0.,1.));
#736=DIRECTION('ref_axis',(-1.,0.,0.));
#737=DIRECTION('center_axis',(1.,0.,0.));
#738=DIRECTION('ref_axis',(0.,1.,0.));
#739=DIRECTION('center_axis',(1.,0.,0.));
#740=DIRECTION('ref_axis',(0.,1.,0.));
#741=DIRECTION('center_axis',(0.,0.,-1.));
#742=DIRECTION('ref_axis',(-1.,0.,0.));
#743=DIRECTION('center_axis',(1.,0.,0.));
#744=DIRECTION('ref_axis',(0.,-1.,0.));
#745=DIRECTION('center_axis',(1.,0.,0.));
#746=DIRECTION('ref_axis',(0.,-1.,0.));
#747=DIRECTION('center_axis',(6.24652954514374E-17,0.,-1.));
#748=DIRECTION('ref_axis',(1.,0.,0.));
#749=DIRECTION('center_axis',(1.,0.,0.));
#750=DIRECTION('ref_axis',(0.,-1.,0.));
#751=DIRECTION('center_axis',(0.,-0.230769230769021,-0.97300851082109));
#752=DIRECTION('ref_axis',(0.,0.97300851082109,-0.230769230769021));
#753=DIRECTION('center_axis',(1.,0.,0.));
#754=DIRECTION('ref_axis',(0.,-1.,0.));
#755=DIRECTION('center_axis',(0.,0.,-1.));
#756=DIRECTION('ref_axis',(-1.,0.,0.));
#757=DIRECTION('center_axis',(0.,1.,0.));
#758=DIRECTION('ref_axis',(1.,0.,0.));
#759=DIRECTION('center_axis',(6.24652954514374E-17,0.,-1.));
#760=DIRECTION('ref_axis',(1.,0.,0.));
#761=DIRECTION('center_axis',(1.,0.,0.));
#762=DIRECTION('ref_axis',(0.,1.,0.));
#763=DIRECTION('center_axis',(0.,0.274725274725068,-0.96152276282324));
#764=DIRECTION('ref_axis',(0.,0.96152276282324,0.274725274725069));
#765=DIRECTION('center_axis',(1.,0.,0.));
#766=DIRECTION('ref_axis',(0.,1.,0.));
#767=DIRECTION('center_axis',(0.,0.,1.));
#768=DIRECTION('ref_axis',(-1.,0.,0.));
#769=DIRECTION('center_axis',(-6.24652954514374E-17,0.,-1.));
#770=DIRECTION('ref_axis',(-1.,0.,0.));
#771=DIRECTION('center_axis',(0.,0.,-1.));
#772=DIRECTION('ref_axis',(-1.,0.,0.));
#773=DIRECTION('center_axis',(0.,0.,1.));
#774=DIRECTION('ref_axis',(-1.,0.,0.));
#775=DIRECTION('center_axis',(6.31593542897867E-17,0.,-1.));
#776=DIRECTION('ref_axis',(1.,0.,0.));
#777=DIRECTION('center_axis',(0.,-0.274725274725068,0.96152276282324));
#778=DIRECTION('ref_axis',(0.,0.961522762823239,0.274725274725068));
#779=DIRECTION('center_axis',(0.,1.,0.));
#780=DIRECTION('ref_axis',(1.,0.,0.));
#781=DIRECTION('center_axis',(6.31593542897867E-17,0.,-1.));
#782=DIRECTION('ref_axis',(1.,0.,0.));
#783=DIRECTION('center_axis',(0.,0.,1.));
#784=DIRECTION('ref_axis',(-1.,0.,0.));
#785=DIRECTION('center_axis',(0.,0.230769230769021,0.97300851082109));
#786=DIRECTION('ref_axis',(0.,0.973008510821089,-0.230769230769021));
#787=DIRECTION('center_axis',(0.,0.,-1.));
#788=DIRECTION('ref_axis',(-1.,0.,0.));
#789=DIRECTION('center_axis',(0.,0.,-1.));
#790=DIRECTION('ref_axis',(-1.,0.,0.));
#791=DIRECTION('center_axis',(0.,0.,-1.));
#792=DIRECTION('ref_axis',(-1.,0.,0.));
#793=DIRECTION('center_axis',(0.,0.,1.));
#794=DIRECTION('ref_axis',(-1.,0.,0.));
#795=DIRECTION('center_axis',(0.,0.,1.));
#796=DIRECTION('ref_axis',(0.809016994375191,-0.587785252292138,0.));
#797=DIRECTION('center_axis',(0.,0.,-1.));
#798=DIRECTION('ref_axis',(-1.,0.,0.));
#799=DIRECTION('center_axis',(0.,0.,1.));
#800=DIRECTION('ref_axis',(0.809016994375191,-0.587785252292138,0.));
#801=DIRECTION('center_axis',(0.,0.,-1.));
#802=DIRECTION('ref_axis',(-1.,0.,0.));
#803=DIRECTION('center_axis',(0.,0.,-1.));
#804=DIRECTION('ref_axis',(-1.,0.,0.));
#805=DIRECTION('center_axis',(0.,0.,-1.));
#806=DIRECTION('ref_axis',(-1.,0.,0.));
#807=DIRECTION('center_axis',(0.,0.,-1.));
#808=DIRECTION('ref_axis',(-1.,0.,0.));
#809=DIRECTION('center_axis',(0.,0.,1.));
#810=DIRECTION('ref_axis',(1.,0.,0.));
#811=DIRECTION('center_axis',(0.,0.,-1.));
#812=DIRECTION('ref_axis',(-1.,0.,0.));
#813=DIRECTION('center_axis',(0.,0.,1.));
#814=DIRECTION('ref_axis',(-1.,0.,0.));
#815=DIRECTION('center_axis',(0.,0.,-1.));
#816=DIRECTION('ref_axis',(-1.,0.,0.));
#817=DIRECTION('center_axis',(0.,0.,-1.));
#818=DIRECTION('ref_axis',(-0.809016994375191,0.587785252292138,0.));
#819=DIRECTION('center_axis',(0.,0.,1.));
#820=DIRECTION('ref_axis',(-1.,0.,0.));
#821=DIRECTION('center_axis',(0.,0.,1.));
#822=DIRECTION('ref_axis',(1.,0.,0.));
#823=DIRECTION('center_axis',(0.,0.,1.));
#824=DIRECTION('ref_axis',(0.809016994375191,0.587785252292138,0.));
#825=DIRECTION('center_axis',(-1.00000000000009E-12,-0.230769230769021,
-0.97300851082109));
#826=DIRECTION('ref_axis',(0.,-0.973008510821089,0.230769230769021));
#827=DIRECTION('center_axis',(0.,0.230769230769021,0.97300851082109));
#828=DIRECTION('ref_axis',(0.,-0.973008510821089,0.230769230769021));
#829=DIRECTION('center_axis',(0.,0.274725274725068,-0.96152276282324));
#830=DIRECTION('ref_axis',(0.,-0.96152276282324,-0.274725274725069));
#831=DIRECTION('center_axis',(0.,0.274725274725068,-0.96152276282324));
#832=DIRECTION('ref_axis',(0.,0.96152276282324,0.274725274725069));
#833=DIRECTION('center_axis',(0.,0.274725274725068,-0.96152276282324));
#834=DIRECTION('ref_axis',(0.587785252292312,0.777888255602465,0.222257416036939));
#835=DIRECTION('center_axis',(0.,0.230769230769968,0.973008510820865));
#836=DIRECTION('ref_axis',(0.587785252291922,-0.78718042092593,0.186696229471831));
#837=CARTESIAN_POINT('',(0.,0.,0.));
#838=CARTESIAN_POINT('Origin',(225.000021457672,329.33224919935,94.663744749978));
#839=CARTESIAN_POINT('',(225.000021457672,293.71944725169,100.506987396477));
#840=CARTESIAN_POINT('',(225.000021457672,363.776060030806,83.891602781093));
#841=CARTESIAN_POINT('Origin',(225.000021457672,328.747753641248,92.199295088785));
#842=CARTESIAN_POINT('',(225.000021457672,365.700477421096,87.459311687003));
#843=CARTESIAN_POINT('',(225.000021457672,363.776060030806,83.891602781093));
#844=CARTESIAN_POINT('',(225.000021457672,293.602187146211,104.558922637448));
#845=CARTESIAN_POINT('Origin',(225.000021457672,329.651332283653,96.009117162225));
#846=CARTESIAN_POINT('',(225.000021457672,293.602187146211,104.558922637448));
#847=CARTESIAN_POINT('Origin',(225.000021457672,101.40524516046,87.334955495087));
#848=CARTESIAN_POINT('',(225.000021457672,111.372615489327,94.309728912721));
#849=CARTESIAN_POINT('',(225.000021457672,89.257591944393,87.99104759404));
#850=CARTESIAN_POINT('Origin',(225.000021457672,100.31510371686,91.15038825338));
#851=CARTESIAN_POINT('',(225.000021457672,86.424992928406,82.892317567559));
#852=CARTESIAN_POINT('',(225.000021457672,89.257591944393,87.99104759404));
#853=CARTESIAN_POINT('',(225.000021457672,116.471345515807,91.477129896734));
#854=CARTESIAN_POINT('Origin',(225.000021457672,101.448169222107,87.184723732147));
#855=CARTESIAN_POINT('',(225.000021457672,116.471345515807,91.477129896734));
#856=CARTESIAN_POINT('Origin',(225.000021457672,100.177519162353,91.63192633212));
#857=CARTESIAN_POINT('',(225.000021457672,111.09744638031,95.272805070197));
#858=CARTESIAN_POINT('',(225.000021457672,111.372615489327,94.309728912721));
#859=CARTESIAN_POINT('',(225.000021457672,88.982422835377,88.954123751516));
#860=CARTESIAN_POINT('Origin',(225.000021457672,100.039934607844,92.113464410857));
#861=CARTESIAN_POINT('',(225.000021457672,88.982422835377,88.954123751516));
#862=CARTESIAN_POINT('Origin',(225.000021457672,328.630534445237,91.70505556227));
#863=CARTESIAN_POINT('',(225.000021457672,293.485008859672,99.518508343458));
#864=CARTESIAN_POINT('',(225.000021457672,363.541621638788,82.903123728074));
#865=CARTESIAN_POINT('Origin',(225.000021457672,328.51331524923,91.210816035766));
#866=CARTESIAN_POINT('',(225.000021457672,363.541621638788,82.903123728074));
#867=CARTESIAN_POINT('',(225.000021457672,293.71944725169,100.506987396477));
#868=CARTESIAN_POINT('Origin',(225.000021457672,225.000002495943,107.502325839792));
#869=CARTESIAN_POINT('',(184.02965239462,225.000002495943,107.912029530423));
#870=CARTESIAN_POINT('',(225.000021457672,184.029633432891,107.912029530423));
#871=CARTESIAN_POINT('Origin',(225.000021457672,225.000002495943,107.912029530423));
#872=CARTESIAN_POINT('',(265.970390520724,225.000002495943,107.912029530423));
#873=CARTESIAN_POINT('Origin',(225.000021457672,225.000002495943,107.912029530423));
#874=CARTESIAN_POINT('',(262.750021457672,225.000002495943,104.691660467371));
#875=CARTESIAN_POINT('',(265.970390520724,225.000002495943,107.912029530423));
#876=CARTESIAN_POINT('',(187.250021457672,225.000002495943,104.691660467371));
#877=CARTESIAN_POINT('Origin',(225.000021457672,225.000002495943,104.691660467371));
#878=CARTESIAN_POINT('',(187.250021457672,225.000002495943,104.691660467371));
#879=CARTESIAN_POINT('Origin',(225.000021457672,225.000002495943,103.932914771051));
#880=CARTESIAN_POINT('',(262.750021457672,225.000002495943,103.174169074731));
#881=CARTESIAN_POINT('',(262.750021457672,225.000002495943,104.691660467371));
#882=CARTESIAN_POINT('',(225.000021457672,187.250002495943,103.174169074731));
#883=CARTESIAN_POINT('Origin',(225.000021457672,225.000002495943,103.174169074731));
#884=CARTESIAN_POINT('',(187.250021457672,225.000002495943,103.174169074731));
#885=CARTESIAN_POINT('Origin',(225.000021457672,225.000002495943,103.174169074731));
#886=CARTESIAN_POINT('',(187.250021457672,225.000002495943,103.174169074731));
#887=CARTESIAN_POINT('Origin',(225.000021457672,225.000002495943,1.550974488239));
#888=CARTESIAN_POINT('',(446.500021457672,225.000002495943,1.4791104E-5));
#889=CARTESIAN_POINT('',(3.500021457672,225.000002495943,1.4791104E-5));
#890=CARTESIAN_POINT('Origin',(225.000021457672,225.000002495943,1.4791104E-5));
#891=CARTESIAN_POINT('',(5.000021457672,225.000002495943,1.050326098419));
#892=CARTESIAN_POINT('',(3.500021457672,225.000002495943,1.4791104E-5));
#893=CARTESIAN_POINT('',(445.000021457672,225.000002495943,1.050326098419));
#894=CARTESIAN_POINT('Origin',(225.000021457672,225.000002495943,1.050326098419));
#895=CARTESIAN_POINT('',(445.000021457672,225.000002495943,1.050326098419));
#896=CARTESIAN_POINT('Origin',(225.000021457672,225.000002495943,10.525170444762));
#897=CARTESIAN_POINT('',(5.000021457672,225.000002495943,20.000014791104));
#898=CARTESIAN_POINT('',(445.000021457672,225.000002495943,20.000014791104));
#899=CARTESIAN_POINT('Origin',(225.000021457672,225.000002495943,20.000014791104));
#900=CARTESIAN_POINT('',(445.000021457672,225.000002495943,20.000014791104));
#901=CARTESIAN_POINT('',(5.000021457672,225.000002495943,1.050326098419));
#902=CARTESIAN_POINT('Origin',(225.000021457672,225.000002495943,20.000014791104));
#903=CARTESIAN_POINT('',(30.555577013228,225.000002495943,60.582197830548));
#904=CARTESIAN_POINT('',(225.000021457672,30.555558051498,60.582197830548));
#905=CARTESIAN_POINT('Origin',(225.000021457672,225.000002495943,60.582197830548));
#906=CARTESIAN_POINT('',(419.444465902116,225.000002495943,60.582197830548));
#907=CARTESIAN_POINT('Origin',(225.000021457672,225.000002495943,60.582197830548));
#908=CARTESIAN_POINT('Origin',(400.000021457672,225.000002495943,20.000014791104));
#909=CARTESIAN_POINT('Origin',(50.000021457672,225.000002495943,20.000014791104));
#910=CARTESIAN_POINT('Origin',(225.000021457672,225.000002495943,20.000014791104));
#911=CARTESIAN_POINT('',(28.395083186067,225.000002495943,65.091329279375));
#912=CARTESIAN_POINT('',(225.000021457672,421.604940767548,65.091329279375));
#913=CARTESIAN_POINT('Origin',(225.000021457672,225.000002495943,65.091329279375));
#914=CARTESIAN_POINT('',(421.604959729277,225.000002495943,65.091329279375));
#915=CARTESIAN_POINT('Origin',(225.000021457672,225.000002495943,65.091329279375));
#916=CARTESIAN_POINT('',(450.000021457672,225.000002495943,20.000014791104));
#917=CARTESIAN_POINT('Origin',(400.000021457672,225.000002495943,20.000014791104));
#918=CARTESIAN_POINT('',(2.1457672E-5,225.000002495943,20.000014791104));
#919=CARTESIAN_POINT('Origin',(225.000021457672,225.000002495943,20.000014791104));
#920=CARTESIAN_POINT('Origin',(50.000021457672,225.000002495943,20.000014791104));
#921=CARTESIAN_POINT('Origin',(225.000021457672,225.000002495943,12.391195848546));
#922=CARTESIAN_POINT('',(450.000021457672,225.000002495943,4.782376905988));
#923=CARTESIAN_POINT('',(450.000021457672,225.000002495943,20.000014791104));
#924=CARTESIAN_POINT('',(2.1457672E-5,225.000002495943,4.782376905988));
#925=CARTESIAN_POINT('Origin',(225.000021457672,225.000002495943,4.782376905988));
#926=CARTESIAN_POINT('',(2.1457672E-5,225.000002495943,4.782376905988));
#927=CARTESIAN_POINT('Origin',(225.000021457672,225.000002495943,-3.614737411042));
#928=CARTESIAN_POINT('',(449.000021457672,225.000002495943,1.050326098419));
#929=CARTESIAN_POINT('',(1.000021457672,225.000002495943,1.050326098419));
#930=CARTESIAN_POINT('Origin',(225.000021457672,225.000002495943,1.050326098419));
#931=CARTESIAN_POINT('',(1.000021457672,225.000002495943,1.050326098419));
#932=CARTESIAN_POINT('',(450.000021457672,225.000002495943,4.782376905988));
#933=CARTESIAN_POINT('Origin',(225.000021457672,225.000002495943,-0.518138787171));
#934=CARTESIAN_POINT('',(447.500021457672,225.000002495943,1.4791104E-5));
#935=CARTESIAN_POINT('',(449.000021457672,225.000002495943,1.050326098419));
#936=CARTESIAN_POINT('',(2.500021457672,225.000002495943,1.4791104E-5));
#937=CARTESIAN_POINT('Origin',(225.000021457672,225.000002495943,1.4791104E-5));
#938=CARTESIAN_POINT('',(2.500021457672,225.000002495943,1.4791104E-5));
#939=CARTESIAN_POINT('Origin',(225.000021457672,225.000002495943,-345.239632563889));
#940=CARTESIAN_POINT('',(225.000021457672,262.750002495943,103.174169074732));
#941=CARTESIAN_POINT('Origin',(225.000021457672,225.000002495943,103.174169074731));
#942=CARTESIAN_POINT('Origin',(225.000021457672,225.000002495943,-345.239632563889));
#943=CARTESIAN_POINT('Origin',(225.000021457672,225.000002495943,-345.239632563889));
#944=CARTESIAN_POINT('',(225.000021457672,419.444446940387,60.582197830548));
#945=CARTESIAN_POINT('Origin',(225.000021457672,225.000002495943,60.582197830548));
#946=CARTESIAN_POINT('Origin',(225.000021457672,225.000002495943,-345.239632563889));
#947=CARTESIAN_POINT('Origin',(225.000021457672,225.000002495943,-345.239632563889));
#948=CARTESIAN_POINT('Origin',(225.000021457672,225.000002495943,-345.239632563889));
#949=CARTESIAN_POINT('Origin',(225.000021457672,225.000002495943,-345.239632563889));
#950=CARTESIAN_POINT('Origin',(225.000021457672,329.651332283653,96.009117162225));
#951=CARTESIAN_POINT('',(225.000021457672,265.970371558995,107.912029530423));
#952=CARTESIAN_POINT('Origin',(225.000021457672,225.000002495943,-345.239632563889));
#953=CARTESIAN_POINT('Origin',(225.000021457672,225.000002495943,107.912029530423));
#954=CARTESIAN_POINT('Origin',(225.000021457672,225.000002495943,-345.239632563889));
#955=CARTESIAN_POINT('Origin',(225.000021457672,225.000002495943,-345.239632563889));
#956=CARTESIAN_POINT('Origin',(225.000021457672,225.000002495943,-345.239632563889));
#957=CARTESIAN_POINT('Origin',(225.000021457672,100.039934607844,92.113464410857));
#958=CARTESIAN_POINT('',(225.000021457672,28.395064224338,65.091329279375));
#959=CARTESIAN_POINT('Origin',(225.000021457672,225.000002495943,-345.239632563889));
#960=CARTESIAN_POINT('Origin',(225.000021457672,225.000002495943,65.091329279375));
#961=CARTESIAN_POINT('Origin',(225.000021457672,225.000002495943,-345.239632563889));
#962=CARTESIAN_POINT('Origin',(225.000021457672,225.000002495943,107.912029530423));
#963=CARTESIAN_POINT('Origin',(225.000021457672,225.000002495943,65.091329279375));
#964=CARTESIAN_POINT('Origin',(225.000021457672,225.000002495943,-345.239632563889));
#965=CARTESIAN_POINT('Origin',(225.000021457672,101.448169222107,87.184723732147));
#966=CARTESIAN_POINT('Origin',(225.000021457672,225.000002495943,-345.239632563889));
#967=CARTESIAN_POINT('Origin',(225.000021457672,225.000002495943,-345.239632563889));
#968=CARTESIAN_POINT('Origin',(225.000021457672,225.000002495943,103.174169074731));
#969=CARTESIAN_POINT('Origin',(225.000021457672,328.51331524923,91.210816035766));
#970=CARTESIAN_POINT('Origin',(225.000021457672,225.000002495943,60.582197830548));
#971=CARTESIAN_POINT('Origin',(0.,0.,1.4791104E-5));
#972=CARTESIAN_POINT('Origin',(225.000021457672,225.000002495943,1.4791104E-5));
#973=CARTESIAN_POINT('Origin',(225.000021457672,225.000002495943,1.4791104E-5));
#974=CARTESIAN_POINT('Origin',(225.000021457672,225.000002495943,-0.518138787171));
#975=CARTESIAN_POINT('Origin',(225.000021457672,225.000002495943,1.050326098419));
#976=CARTESIAN_POINT('Origin',(225.000021457672,225.000002495943,-3.614737411042));
#977=CARTESIAN_POINT('Origin',(225.000021457672,225.000002495943,4.782376905988));
#978=CARTESIAN_POINT('Origin',(225.000021457672,225.000002495943,12.391195848546));
#979=CARTESIAN_POINT('Origin',(225.000021457672,225.000002495943,20.000014791104));
#980=CARTESIAN_POINT('Origin',(225.000021457672,225.000002495943,20.000014791104));
#981=CARTESIAN_POINT('Origin',(225.000021457672,225.000002495943,20.000014791104));
#982=CARTESIAN_POINT('Origin',(225.000021457672,225.000002495943,20.000014791104));
#983=CARTESIAN_POINT('Origin',(225.000021457672,225.000002495943,10.525170444762));
#984=CARTESIAN_POINT('Origin',(225.000021457672,225.000002495943,1.050326098419));
#985=CARTESIAN_POINT('Origin',(225.000021457672,225.000002495943,1.550974488239));
#986=CARTESIAN_POINT('Origin',(225.000021457672,225.000002495943,103.932914771051));
#987=CARTESIAN_POINT('Origin',(225.000021457672,225.000002495943,104.691660467371));
#988=CARTESIAN_POINT('Origin',(225.000021457672,225.000002495943,107.502325839792));
#989=CARTESIAN_POINT('Origin',(225.000021457672,328.630534445237,91.70505556227));
#990=CARTESIAN_POINT('Origin',(225.000021457672,328.747753641248,92.199295088785));
#991=CARTESIAN_POINT('Origin',(225.000021457672,100.177519162353,91.63192633212));
#992=CARTESIAN_POINT('Origin',(225.000021457672,100.31510371686,91.15038825338));
#993=CARTESIAN_POINT('Origin',(225.000021457672,101.40524516046,87.334955495087));
#994=CARTESIAN_POINT('Origin',(225.000021457672,329.33224919935,94.663744749978));
#995=UNCERTAINTY_MEASURE_WITH_UNIT(LENGTH_MEASURE(0.01),#999,
'DISTANCE_ACCURACY_VALUE',
'Maximum model space distance between geometric entities at asserted c
onnectivities');
#996=UNCERTAINTY_MEASURE_WITH_UNIT(LENGTH_MEASURE(1.E-6),#999,
'DISTANCE_ACCURACY_VALUE',
'Maximum model space distance between geometric entities at asserted c
onnectivities');
#997=(
GEOMETRIC_REPRESENTATION_CONTEXT(3)
GLOBAL_UNCERTAINTY_ASSIGNED_CONTEXT((#995))
GLOBAL_UNIT_ASSIGNED_CONTEXT((#999,#1001,#1000))
REPRESENTATION_CONTEXT('','3D')
);
#998=(
GEOMETRIC_REPRESENTATION_CONTEXT(3)
GLOBAL_UNCERTAINTY_ASSIGNED_CONTEXT((#996))
GLOBAL_UNIT_ASSIGNED_CONTEXT((#999,#12,#1000))
REPRESENTATION_CONTEXT('','3D')
);
#999=(
LENGTH_UNIT()
NAMED_UNIT(*)
SI_UNIT(.MILLI.,.METRE.)
);
#1000=(
NAMED_UNIT(*)
SI_UNIT($,.STERADIAN.)
SOLID_ANGLE_UNIT()
);
#1001=(
NAMED_UNIT(*)
PLANE_ANGLE_UNIT()
SI_UNIT($,.RADIAN.)
);
#1002=SHAPE_DEFINITION_REPRESENTATION(#1003,#1004);
#1003=PRODUCT_DEFINITION_SHAPE('',$,#1006);
#1004=SHAPE_REPRESENTATION('',(#539),#997);
#1005=PRODUCT_DEFINITION_CONTEXT('part definition',#1010,'design');
#1006=PRODUCT_DEFINITION('dome','dome',#1007,#1005);
#1007=PRODUCT_DEFINITION_FORMATION('',$,#1012);
#1008=PRODUCT_RELATED_PRODUCT_CATEGORY('dome','dome',(#1012));
#1009=APPLICATION_PROTOCOL_DEFINITION('international standard',
'automotive_design',2009,#1010);
#1010=APPLICATION_CONTEXT(
'Core Data for Automotive Mechanical Design Process');
#1011=PRODUCT_CONTEXT('part definition',#1010,'mechanical');
#1012=PRODUCT('dome','dome',$,(#1011));
#1013=PRESENTATION_STYLE_ASSIGNMENT((#1015));
#1014=PRESENTATION_STYLE_ASSIGNMENT((#1016));
#1015=SURFACE_STYLE_USAGE(.BOTH.,#1017);
#1016=SURFACE_STYLE_USAGE(.BOTH.,#1018);
#1017=SURFACE_SIDE_STYLE($,(#1019));
#1018=SURFACE_SIDE_STYLE($,(#1020));
#1019=SURFACE_STYLE_FILL_AREA(#1021);
#1020=SURFACE_STYLE_FILL_AREA(#1022);
#1021=FILL_AREA_STYLE($,(#1023));
#1022=FILL_AREA_STYLE($,(#1024));
#1023=FILL_AREA_STYLE_COLOUR($,#1025);
#1024=FILL_AREA_STYLE_COLOUR($,#1026);
#1025=COLOUR_RGB('',0.749019607843137,0.749019607843137,0.749019607843137);
#1026=COLOUR_RGB('',0.827450980392157,0.827450980392157,0.827450980392157);
ENDSEC;
END-ISO-10303-21;
