ISO-10303-21;
HEADER;
/* Generated by software containing ST-Developer
 * from STEP Tools, Inc. (www.steptools.com) 
 */

FILE_DESCRIPTION(
/* description */ (''),
/* implementation_level */ '2;1');

FILE_NAME(
/* name */ 
'/Volumes/IGEMS/Temp/JJ/Sample parts/Toolpath - Polar array 2.step',
/* time_stamp */ '2019-09-25T08:38:18+02:00',
/* author */ (''),
/* organization */ (''),
/* preprocessor_version */ 'ST-DEVELOPER v18',
/* originating_system */ 'Autodesk Translation Framework v8.6.0.1094',
/* authorisation */ '');

FILE_SCHEMA (('AUTOMOTIVE_DESIGN { 1 0 10303 214 3 1 1 }'));
ENDSEC;

DATA;
#10=MECHANICAL_DESIGN_GEOMETRIC_PRESENTATION_REPRESENTATION('',(#13),#642);
#11=SHAPE_REPRESENTATION_RELATIONSHIP('SRR','None',#649,#12);
#12=ADVANCED_BREP_SHAPE_REPRESENTATION('',(#14),#641);
#13=STYLED_ITEM('',(#659),#14);
#14=MANIFOLD_SOLID_BREP('Body1',#370);
#15=FACE_BOUND('',#72,.T.);
#16=FACE_BOUND('',#74,.T.);
#17=FACE_BOUND('',#76,.T.);
#18=FACE_BOUND('',#78,.T.);
#19=FACE_BOUND('',#80,.T.);
#20=FACE_BOUND('',#82,.T.);
#21=FACE_BOUND('',#84,.T.);
#22=FACE_BOUND('',#86,.T.);
#23=FACE_BOUND('',#87,.T.);
#24=FACE_BOUND('',#88,.T.);
#25=FACE_BOUND('',#89,.T.);
#26=FACE_BOUND('',#90,.T.);
#27=FACE_BOUND('',#91,.T.);
#28=FACE_BOUND('',#92,.T.);
#29=PLANE('',#417);
#30=PLANE('',#418);
#31=PLANE('',#419);
#32=PLANE('',#420);
#33=PLANE('',#421);
#34=PLANE('',#422);
#35=PLANE('',#423);
#36=PLANE('',#424);
#37=ELLIPSE('',#388,14.142135623731,10.);
#38=ELLIPSE('',#389,14.142135623731,10.);
#39=ELLIPSE('',#393,14.142135623731,10.);
#40=ELLIPSE('',#394,14.142135623731,10.);
#41=ELLIPSE('',#398,14.142135623731,10.);
#42=ELLIPSE('',#399,14.142135623731,10.);
#43=ELLIPSE('',#403,14.142135623731,10.);
#44=ELLIPSE('',#404,14.142135623731,10.);
#45=ELLIPSE('',#408,14.142135623731,10.);
#46=ELLIPSE('',#409,14.142135623731,10.);
#47=ELLIPSE('',#413,14.142135623731,10.);
#48=ELLIPSE('',#414,14.142135623731,10.);
#49=FACE_OUTER_BOUND('',#64,.T.);
#50=FACE_OUTER_BOUND('',#65,.T.);
#51=FACE_OUTER_BOUND('',#66,.T.);
#52=FACE_OUTER_BOUND('',#67,.T.);
#53=FACE_OUTER_BOUND('',#68,.T.);
#54=FACE_OUTER_BOUND('',#69,.T.);
#55=FACE_OUTER_BOUND('',#70,.T.);
#56=FACE_OUTER_BOUND('',#71,.T.);
#57=FACE_OUTER_BOUND('',#73,.T.);
#58=FACE_OUTER_BOUND('',#75,.T.);
#59=FACE_OUTER_BOUND('',#77,.T.);
#60=FACE_OUTER_BOUND('',#79,.T.);
#61=FACE_OUTER_BOUND('',#81,.T.);
#62=FACE_OUTER_BOUND('',#83,.T.);
#63=FACE_OUTER_BOUND('',#85,.T.);
#64=EDGE_LOOP('',(#246,#247,#248,#249));
#65=EDGE_LOOP('',(#250,#251,#252,#253,#254,#255));
#66=EDGE_LOOP('',(#256,#257,#258,#259,#260,#261));
#67=EDGE_LOOP('',(#262,#263,#264,#265,#266,#267));
#68=EDGE_LOOP('',(#268,#269,#270,#271,#272,#273));
#69=EDGE_LOOP('',(#274,#275,#276,#277,#278,#279));
#70=EDGE_LOOP('',(#280,#281,#282,#283,#284,#285));
#71=EDGE_LOOP('',(#286,#287,#288,#289));
#72=EDGE_LOOP('',(#290,#291));
#73=EDGE_LOOP('',(#292,#293,#294,#295));
#74=EDGE_LOOP('',(#296,#297));
#75=EDGE_LOOP('',(#298,#299,#300,#301));
#76=EDGE_LOOP('',(#302,#303));
#77=EDGE_LOOP('',(#304,#305,#306,#307));
#78=EDGE_LOOP('',(#308,#309));
#79=EDGE_LOOP('',(#310,#311,#312,#313));
#80=EDGE_LOOP('',(#314,#315));
#81=EDGE_LOOP('',(#316,#317,#318,#319));
#82=EDGE_LOOP('',(#320,#321));
#83=EDGE_LOOP('',(#322,#323,#324,#325,#326,#327));
#84=EDGE_LOOP('',(#328));
#85=EDGE_LOOP('',(#329,#330,#331,#332,#333,#334));
#86=EDGE_LOOP('',(#335));
#87=EDGE_LOOP('',(#336,#337));
#88=EDGE_LOOP('',(#338,#339));
#89=EDGE_LOOP('',(#340,#341));
#90=EDGE_LOOP('',(#342,#343));
#91=EDGE_LOOP('',(#344,#345));
#92=EDGE_LOOP('',(#346,#347));
#93=LINE('',#539,#118);
#94=LINE('',#547,#119);
#95=LINE('',#557,#120);
#96=LINE('',#567,#121);
#97=LINE('',#577,#122);
#98=LINE('',#587,#123);
#99=LINE('',#597,#124);
#100=LINE('',#604,#125);
#101=LINE('',#606,#126);
#102=LINE('',#608,#127);
#103=LINE('',#609,#128);
#104=LINE('',#612,#129);
#105=LINE('',#614,#130);
#106=LINE('',#615,#131);
#107=LINE('',#618,#132);
#108=LINE('',#620,#133);
#109=LINE('',#621,#134);
#110=LINE('',#624,#135);
#111=LINE('',#626,#136);
#112=LINE('',#627,#137);
#113=LINE('',#630,#138);
#114=LINE('',#632,#139);
#115=LINE('',#633,#140);
#116=LINE('',#635,#141);
#117=LINE('',#636,#142);
#118=VECTOR('',#431,5.);
#119=VECTOR('',#440,10.);
#120=VECTOR('',#451,10.);
#121=VECTOR('',#462,10.);
#122=VECTOR('',#473,10.);
#123=VECTOR('',#484,10.);
#124=VECTOR('',#495,10.);
#125=VECTOR('',#502,28.8675134594812);
#126=VECTOR('',#503,114.564392373896);
#127=VECTOR('',#504,115.470053837925);
#128=VECTOR('',#505,114.564392373896);
#129=VECTOR('',#508,28.8675134594813);
#130=VECTOR('',#509,114.564392373896);
#131=VECTOR('',#510,115.470053837925);
#132=VECTOR('',#513,28.8675134594813);
#133=VECTOR('',#514,114.564392373896);
#134=VECTOR('',#515,115.470053837925);
#135=VECTOR('',#518,28.8675134594813);
#136=VECTOR('',#519,114.564392373896);
#137=VECTOR('',#520,115.470053837925);
#138=VECTOR('',#523,28.8675134594814);
#139=VECTOR('',#524,114.564392373896);
#140=VECTOR('',#525,115.470053837925);
#141=VECTOR('',#528,28.8675134594813);
#142=VECTOR('',#529,115.470053837925);
#143=CIRCLE('',#385,5.);
#144=CIRCLE('',#386,5.);
#145=CIRCLE('',#390,10.);
#146=CIRCLE('',#391,10.);
#147=CIRCLE('',#395,10.);
#148=CIRCLE('',#396,10.);
#149=CIRCLE('',#400,10.);
#150=CIRCLE('',#401,10.);
#151=CIRCLE('',#405,10.);
#152=CIRCLE('',#406,10.);
#153=CIRCLE('',#410,10.);
#154=CIRCLE('',#411,10.);
#155=CIRCLE('',#415,10.);
#156=CIRCLE('',#416,10.);
#157=VERTEX_POINT('',#536);
#158=VERTEX_POINT('',#538);
#159=VERTEX_POINT('',#542);
#160=VERTEX_POINT('',#543);
#161=VERTEX_POINT('',#546);
#162=VERTEX_POINT('',#548);
#163=VERTEX_POINT('',#552);
#164=VERTEX_POINT('',#553);
#165=VERTEX_POINT('',#556);
#166=VERTEX_POINT('',#558);
#167=VERTEX_POINT('',#562);
#168=VERTEX_POINT('',#563);
#169=VERTEX_POINT('',#566);
#170=VERTEX_POINT('',#568);
#171=VERTEX_POINT('',#572);
#172=VERTEX_POINT('',#573);
#173=VERTEX_POINT('',#576);
#174=VERTEX_POINT('',#578);
#175=VERTEX_POINT('',#582);
#176=VERTEX_POINT('',#583);
#177=VERTEX_POINT('',#586);
#178=VERTEX_POINT('',#588);
#179=VERTEX_POINT('',#592);
#180=VERTEX_POINT('',#593);
#181=VERTEX_POINT('',#596);
#182=VERTEX_POINT('',#598);
#183=VERTEX_POINT('',#602);
#184=VERTEX_POINT('',#603);
#185=VERTEX_POINT('',#605);
#186=VERTEX_POINT('',#607);
#187=VERTEX_POINT('',#611);
#188=VERTEX_POINT('',#613);
#189=VERTEX_POINT('',#617);
#190=VERTEX_POINT('',#619);
#191=VERTEX_POINT('',#623);
#192=VERTEX_POINT('',#625);
#193=VERTEX_POINT('',#629);
#194=VERTEX_POINT('',#631);
#195=EDGE_CURVE('',#157,#157,#143,.T.);
#196=EDGE_CURVE('',#157,#158,#93,.T.);
#197=EDGE_CURVE('',#158,#158,#144,.T.);
#198=EDGE_CURVE('',#159,#160,#37,.T.);
#199=EDGE_CURVE('',#160,#159,#38,.T.);
#200=EDGE_CURVE('',#160,#161,#94,.T.);
#201=EDGE_CURVE('',#162,#161,#145,.T.);
#202=EDGE_CURVE('',#161,#162,#146,.T.);
#203=EDGE_CURVE('',#163,#164,#39,.T.);
#204=EDGE_CURVE('',#164,#163,#40,.T.);
#205=EDGE_CURVE('',#164,#165,#95,.T.);
#206=EDGE_CURVE('',#166,#165,#147,.T.);
#207=EDGE_CURVE('',#165,#166,#148,.T.);
#208=EDGE_CURVE('',#167,#168,#41,.T.);
#209=EDGE_CURVE('',#168,#167,#42,.T.);
#210=EDGE_CURVE('',#168,#169,#96,.T.);
#211=EDGE_CURVE('',#170,#169,#149,.T.);
#212=EDGE_CURVE('',#169,#170,#150,.T.);
#213=EDGE_CURVE('',#171,#172,#43,.T.);
#214=EDGE_CURVE('',#172,#171,#44,.T.);
#215=EDGE_CURVE('',#172,#173,#97,.T.);
#216=EDGE_CURVE('',#174,#173,#151,.T.);
#217=EDGE_CURVE('',#173,#174,#152,.T.);
#218=EDGE_CURVE('',#175,#176,#45,.T.);
#219=EDGE_CURVE('',#176,#175,#46,.T.);
#220=EDGE_CURVE('',#176,#177,#98,.T.);
#221=EDGE_CURVE('',#178,#177,#153,.T.);
#222=EDGE_CURVE('',#177,#178,#154,.T.);
#223=EDGE_CURVE('',#179,#180,#47,.T.);
#224=EDGE_CURVE('',#180,#179,#48,.T.);
#225=EDGE_CURVE('',#180,#181,#99,.T.);
#226=EDGE_CURVE('',#182,#181,#155,.T.);
#227=EDGE_CURVE('',#181,#182,#156,.T.);
#228=EDGE_CURVE('',#183,#184,#100,.T.);
#229=EDGE_CURVE('',#185,#184,#101,.T.);
#230=EDGE_CURVE('',#186,#185,#102,.T.);
#231=EDGE_CURVE('',#186,#183,#103,.T.);
#232=EDGE_CURVE('',#184,#187,#104,.T.);
#233=EDGE_CURVE('',#188,#187,#105,.T.);
#234=EDGE_CURVE('',#185,#188,#106,.T.);
#235=EDGE_CURVE('',#187,#189,#107,.T.);
#236=EDGE_CURVE('',#190,#189,#108,.T.);
#237=EDGE_CURVE('',#188,#190,#109,.T.);
#238=EDGE_CURVE('',#189,#191,#110,.T.);
#239=EDGE_CURVE('',#192,#191,#111,.T.);
#240=EDGE_CURVE('',#190,#192,#112,.T.);
#241=EDGE_CURVE('',#191,#193,#113,.T.);
#242=EDGE_CURVE('',#194,#193,#114,.T.);
#243=EDGE_CURVE('',#192,#194,#115,.T.);
#244=EDGE_CURVE('',#193,#183,#116,.T.);
#245=EDGE_CURVE('',#194,#186,#117,.T.);
#246=ORIENTED_EDGE('',*,*,#195,.F.);
#247=ORIENTED_EDGE('',*,*,#196,.T.);
#248=ORIENTED_EDGE('',*,*,#197,.F.);
#249=ORIENTED_EDGE('',*,*,#196,.F.);
#250=ORIENTED_EDGE('',*,*,#198,.F.);
#251=ORIENTED_EDGE('',*,*,#199,.F.);
#252=ORIENTED_EDGE('',*,*,#200,.T.);
#253=ORIENTED_EDGE('',*,*,#201,.F.);
#254=ORIENTED_EDGE('',*,*,#202,.F.);
#255=ORIENTED_EDGE('',*,*,#200,.F.);
#256=ORIENTED_EDGE('',*,*,#203,.F.);
#257=ORIENTED_EDGE('',*,*,#204,.F.);
#258=ORIENTED_EDGE('',*,*,#205,.T.);
#259=ORIENTED_EDGE('',*,*,#206,.F.);
#260=ORIENTED_EDGE('',*,*,#207,.F.);
#261=ORIENTED_EDGE('',*,*,#205,.F.);
#262=ORIENTED_EDGE('',*,*,#208,.F.);
#263=ORIENTED_EDGE('',*,*,#209,.F.);
#264=ORIENTED_EDGE('',*,*,#210,.T.);
#265=ORIENTED_EDGE('',*,*,#211,.F.);
#266=ORIENTED_EDGE('',*,*,#212,.F.);
#267=ORIENTED_EDGE('',*,*,#210,.F.);
#268=ORIENTED_EDGE('',*,*,#213,.F.);
#269=ORIENTED_EDGE('',*,*,#214,.F.);
#270=ORIENTED_EDGE('',*,*,#215,.T.);
#271=ORIENTED_EDGE('',*,*,#216,.F.);
#272=ORIENTED_EDGE('',*,*,#217,.F.);
#273=ORIENTED_EDGE('',*,*,#215,.F.);
#274=ORIENTED_EDGE('',*,*,#218,.F.);
#275=ORIENTED_EDGE('',*,*,#219,.F.);
#276=ORIENTED_EDGE('',*,*,#220,.T.);
#277=ORIENTED_EDGE('',*,*,#221,.F.);
#278=ORIENTED_EDGE('',*,*,#222,.F.);
#279=ORIENTED_EDGE('',*,*,#220,.F.);
#280=ORIENTED_EDGE('',*,*,#223,.F.);
#281=ORIENTED_EDGE('',*,*,#224,.F.);
#282=ORIENTED_EDGE('',*,*,#225,.T.);
#283=ORIENTED_EDGE('',*,*,#226,.F.);
#284=ORIENTED_EDGE('',*,*,#227,.F.);
#285=ORIENTED_EDGE('',*,*,#225,.F.);
#286=ORIENTED_EDGE('',*,*,#228,.T.);
#287=ORIENTED_EDGE('',*,*,#229,.F.);
#288=ORIENTED_EDGE('',*,*,#230,.F.);
#289=ORIENTED_EDGE('',*,*,#231,.T.);
#290=ORIENTED_EDGE('',*,*,#226,.T.);
#291=ORIENTED_EDGE('',*,*,#227,.T.);
#292=ORIENTED_EDGE('',*,*,#232,.T.);
#293=ORIENTED_EDGE('',*,*,#233,.F.);
#294=ORIENTED_EDGE('',*,*,#234,.F.);
#295=ORIENTED_EDGE('',*,*,#229,.T.);
#296=ORIENTED_EDGE('',*,*,#201,.T.);
#297=ORIENTED_EDGE('',*,*,#202,.T.);
#298=ORIENTED_EDGE('',*,*,#235,.T.);
#299=ORIENTED_EDGE('',*,*,#236,.F.);
#300=ORIENTED_EDGE('',*,*,#237,.F.);
#301=ORIENTED_EDGE('',*,*,#233,.T.);
#302=ORIENTED_EDGE('',*,*,#206,.T.);
#303=ORIENTED_EDGE('',*,*,#207,.T.);
#304=ORIENTED_EDGE('',*,*,#238,.T.);
#305=ORIENTED_EDGE('',*,*,#239,.F.);
#306=ORIENTED_EDGE('',*,*,#240,.F.);
#307=ORIENTED_EDGE('',*,*,#236,.T.);
#308=ORIENTED_EDGE('',*,*,#211,.T.);
#309=ORIENTED_EDGE('',*,*,#212,.T.);
#310=ORIENTED_EDGE('',*,*,#241,.T.);
#311=ORIENTED_EDGE('',*,*,#242,.F.);
#312=ORIENTED_EDGE('',*,*,#243,.F.);
#313=ORIENTED_EDGE('',*,*,#239,.T.);
#314=ORIENTED_EDGE('',*,*,#216,.T.);
#315=ORIENTED_EDGE('',*,*,#217,.T.);
#316=ORIENTED_EDGE('',*,*,#244,.T.);
#317=ORIENTED_EDGE('',*,*,#231,.F.);
#318=ORIENTED_EDGE('',*,*,#245,.F.);
#319=ORIENTED_EDGE('',*,*,#242,.T.);
#320=ORIENTED_EDGE('',*,*,#221,.T.);
#321=ORIENTED_EDGE('',*,*,#222,.T.);
#322=ORIENTED_EDGE('',*,*,#228,.F.);
#323=ORIENTED_EDGE('',*,*,#244,.F.);
#324=ORIENTED_EDGE('',*,*,#241,.F.);
#325=ORIENTED_EDGE('',*,*,#238,.F.);
#326=ORIENTED_EDGE('',*,*,#235,.F.);
#327=ORIENTED_EDGE('',*,*,#232,.F.);
#328=ORIENTED_EDGE('',*,*,#195,.T.);
#329=ORIENTED_EDGE('',*,*,#245,.T.);
#330=ORIENTED_EDGE('',*,*,#230,.T.);
#331=ORIENTED_EDGE('',*,*,#234,.T.);
#332=ORIENTED_EDGE('',*,*,#237,.T.);
#333=ORIENTED_EDGE('',*,*,#240,.T.);
#334=ORIENTED_EDGE('',*,*,#243,.T.);
#335=ORIENTED_EDGE('',*,*,#197,.T.);
#336=ORIENTED_EDGE('',*,*,#198,.T.);
#337=ORIENTED_EDGE('',*,*,#199,.T.);
#338=ORIENTED_EDGE('',*,*,#203,.T.);
#339=ORIENTED_EDGE('',*,*,#204,.T.);
#340=ORIENTED_EDGE('',*,*,#208,.T.);
#341=ORIENTED_EDGE('',*,*,#209,.T.);
#342=ORIENTED_EDGE('',*,*,#213,.T.);
#343=ORIENTED_EDGE('',*,*,#214,.T.);
#344=ORIENTED_EDGE('',*,*,#218,.T.);
#345=ORIENTED_EDGE('',*,*,#219,.T.);
#346=ORIENTED_EDGE('',*,*,#223,.T.);
#347=ORIENTED_EDGE('',*,*,#224,.T.);
#348=CYLINDRICAL_SURFACE('',#384,5.);
#349=CYLINDRICAL_SURFACE('',#387,10.);
#350=CYLINDRICAL_SURFACE('',#392,10.);
#351=CYLINDRICAL_SURFACE('',#397,10.);
#352=CYLINDRICAL_SURFACE('',#402,10.);
#353=CYLINDRICAL_SURFACE('',#407,10.);
#354=CYLINDRICAL_SURFACE('',#412,10.);
#355=ADVANCED_FACE('',(#49),#348,.F.);
#356=ADVANCED_FACE('',(#50),#349,.F.);
#357=ADVANCED_FACE('',(#51),#350,.F.);
#358=ADVANCED_FACE('',(#52),#351,.F.);
#359=ADVANCED_FACE('',(#53),#352,.F.);
#360=ADVANCED_FACE('',(#54),#353,.F.);
#361=ADVANCED_FACE('',(#55),#354,.F.);
#362=ADVANCED_FACE('',(#56,#15),#29,.T.);
#363=ADVANCED_FACE('',(#57,#16),#30,.T.);
#364=ADVANCED_FACE('',(#58,#17),#31,.T.);
#365=ADVANCED_FACE('',(#59,#18),#32,.T.);
#366=ADVANCED_FACE('',(#60,#19),#33,.T.);
#367=ADVANCED_FACE('',(#61,#20),#34,.T.);
#368=ADVANCED_FACE('',(#62,#21),#35,.T.);
#369=ADVANCED_FACE('',(#63,#22,#23,#24,#25,#26,#27,#28),#36,.F.);
#370=CLOSED_SHELL('',(#355,#356,#357,#358,#359,#360,#361,#362,#363,#364,
#365,#366,#367,#368,#369));
#371=DERIVED_UNIT_ELEMENT(#373,1.);
#372=DERIVED_UNIT_ELEMENT(#644,3.);
#373=(
MASS_UNIT()
NAMED_UNIT(*)
SI_UNIT(.KILO.,.GRAM.)
);
#374=DERIVED_UNIT((#371,#372));
#375=MEASURE_REPRESENTATION_ITEM('density measure',
POSITIVE_RATIO_MEASURE(7850.),#374);
#376=PROPERTY_DEFINITION_REPRESENTATION(#381,#378);
#377=PROPERTY_DEFINITION_REPRESENTATION(#382,#379);
#378=REPRESENTATION('material name',(#380),#641);
#379=REPRESENTATION('density',(#375),#641);
#380=DESCRIPTIVE_REPRESENTATION_ITEM('Steel','Steel');
#381=PROPERTY_DEFINITION('material property','material name',#651);
#382=PROPERTY_DEFINITION('material property','density of part',#651);
#383=AXIS2_PLACEMENT_3D('placement',#534,#425,#426);
#384=AXIS2_PLACEMENT_3D('',#535,#427,#428);
#385=AXIS2_PLACEMENT_3D('',#537,#429,#430);
#386=AXIS2_PLACEMENT_3D('',#540,#432,#433);
#387=AXIS2_PLACEMENT_3D('',#541,#434,#435);
#388=AXIS2_PLACEMENT_3D('',#544,#436,#437);
#389=AXIS2_PLACEMENT_3D('',#545,#438,#439);
#390=AXIS2_PLACEMENT_3D('',#549,#441,#442);
#391=AXIS2_PLACEMENT_3D('',#550,#443,#444);
#392=AXIS2_PLACEMENT_3D('',#551,#445,#446);
#393=AXIS2_PLACEMENT_3D('',#554,#447,#448);
#394=AXIS2_PLACEMENT_3D('',#555,#449,#450);
#395=AXIS2_PLACEMENT_3D('',#559,#452,#453);
#396=AXIS2_PLACEMENT_3D('',#560,#454,#455);
#397=AXIS2_PLACEMENT_3D('',#561,#456,#457);
#398=AXIS2_PLACEMENT_3D('',#564,#458,#459);
#399=AXIS2_PLACEMENT_3D('',#565,#460,#461);
#400=AXIS2_PLACEMENT_3D('',#569,#463,#464);
#401=AXIS2_PLACEMENT_3D('',#570,#465,#466);
#402=AXIS2_PLACEMENT_3D('',#571,#467,#468);
#403=AXIS2_PLACEMENT_3D('',#574,#469,#470);
#404=AXIS2_PLACEMENT_3D('',#575,#471,#472);
#405=AXIS2_PLACEMENT_3D('',#579,#474,#475);
#406=AXIS2_PLACEMENT_3D('',#580,#476,#477);
#407=AXIS2_PLACEMENT_3D('',#581,#478,#479);
#408=AXIS2_PLACEMENT_3D('',#584,#480,#481);
#409=AXIS2_PLACEMENT_3D('',#585,#482,#483);
#410=AXIS2_PLACEMENT_3D('',#589,#485,#486);
#411=AXIS2_PLACEMENT_3D('',#590,#487,#488);
#412=AXIS2_PLACEMENT_3D('',#591,#489,#490);
#413=AXIS2_PLACEMENT_3D('',#594,#491,#492);
#414=AXIS2_PLACEMENT_3D('',#595,#493,#494);
#415=AXIS2_PLACEMENT_3D('',#599,#496,#497);
#416=AXIS2_PLACEMENT_3D('',#600,#498,#499);
#417=AXIS2_PLACEMENT_3D('',#601,#500,#501);
#418=AXIS2_PLACEMENT_3D('',#610,#506,#507);
#419=AXIS2_PLACEMENT_3D('',#616,#511,#512);
#420=AXIS2_PLACEMENT_3D('',#622,#516,#517);
#421=AXIS2_PLACEMENT_3D('',#628,#521,#522);
#422=AXIS2_PLACEMENT_3D('',#634,#526,#527);
#423=AXIS2_PLACEMENT_3D('',#637,#530,#531);
#424=AXIS2_PLACEMENT_3D('',#638,#532,#533);
#425=DIRECTION('axis',(0.,0.,1.));
#426=DIRECTION('refdir',(1.,0.,0.));
#427=DIRECTION('center_axis',(0.,0.,-1.));
#428=DIRECTION('ref_axis',(-1.,0.,0.));
#429=DIRECTION('center_axis',(0.,0.,-1.));
#430=DIRECTION('ref_axis',(-1.,0.,0.));
#431=DIRECTION('',(0.,0.,-1.));
#432=DIRECTION('center_axis',(0.,0.,1.));
#433=DIRECTION('ref_axis',(-1.,0.,0.));
#434=DIRECTION('center_axis',(-0.612372435695795,-0.353553390593273,0.707106781186547));
#435=DIRECTION('ref_axis',(0.499999999999999,-0.866025403784439,1.11022302462516E-16));
#436=DIRECTION('center_axis',(0.,0.,1.));
#437=DIRECTION('ref_axis',(0.866025403784439,0.499999999999999,0.));
#438=DIRECTION('center_axis',(0.,0.,1.));
#439=DIRECTION('ref_axis',(0.866025403784439,0.499999999999999,0.));
#440=DIRECTION('',(-0.612372435695795,-0.353553390593273,0.707106781186547));
#441=DIRECTION('center_axis',(0.612372435695794,0.353553390593274,-0.707106781186548));
#442=DIRECTION('ref_axis',(0.5,-0.866025403784439,-8.60422844084496E-16));
#443=DIRECTION('center_axis',(0.612372435695794,0.353553390593274,-0.707106781186548));
#444=DIRECTION('ref_axis',(0.5,-0.866025403784439,-8.60422844084496E-16));
#445=DIRECTION('center_axis',(-0.612372435695794,0.353553390593274,0.707106781186547));
#446=DIRECTION('ref_axis',(-0.500000000000001,-0.866025403784438,1.66533453693774E-16));
#447=DIRECTION('center_axis',(0.,0.,1.));
#448=DIRECTION('ref_axis',(0.866025403784438,-0.5,0.));
#449=DIRECTION('center_axis',(0.,0.,1.));
#450=DIRECTION('ref_axis',(0.866025403784438,-0.5,0.));
#451=DIRECTION('',(-0.612372435695794,0.353553390593274,0.707106781186547));
#452=DIRECTION('center_axis',(0.612372435695795,-0.353553390593274,-0.707106781186547));
#453=DIRECTION('ref_axis',(-0.5,-0.866025403784439,-1.66533453693774E-16));
#454=DIRECTION('center_axis',(0.612372435695795,-0.353553390593274,-0.707106781186547));
#455=DIRECTION('ref_axis',(-0.5,-0.866025403784439,-1.66533453693774E-16));
#456=DIRECTION('center_axis',(5.55111512312578E-17,0.707106781186548,0.707106781186547));
#457=DIRECTION('ref_axis',(-1.,1.22519038313981E-16,-4.40144153797922E-17));
#458=DIRECTION('center_axis',(0.,0.,1.));
#459=DIRECTION('ref_axis',(-1.22519038313981E-16,-1.,0.));
#460=DIRECTION('center_axis',(0.,0.,1.));
#461=DIRECTION('ref_axis',(-1.22519038313981E-16,-1.,0.));
#462=DIRECTION('',(5.55111512312578E-17,0.707106781186548,0.707106781186547));
#463=DIRECTION('center_axis',(4.35116785763366E-16,-0.707106781186548,-0.707106781186547));
#464=DIRECTION('ref_axis',(-1.,-2.24407302974484E-16,-3.90940756668257E-16));
#465=DIRECTION('center_axis',(4.35116785763366E-16,-0.707106781186548,-0.707106781186547));
#466=DIRECTION('ref_axis',(-1.,-2.24407302974484E-16,-3.90940756668257E-16));
#467=DIRECTION('center_axis',(0.612372435695795,0.353553390593274,0.707106781186547));
#468=DIRECTION('ref_axis',(-0.5,0.866025403784439,-8.32667268468867E-17));
#469=DIRECTION('center_axis',(0.,0.,1.));
#470=DIRECTION('ref_axis',(-0.866025403784439,-0.5,0.));
#471=DIRECTION('center_axis',(0.,0.,1.));
#472=DIRECTION('ref_axis',(-0.866025403784439,-0.5,0.));
#473=DIRECTION('',(0.612372435695795,0.353553390593274,0.707106781186547));
#474=DIRECTION('center_axis',(-0.612372435695795,-0.353553390593274,-0.707106781186548));
#475=DIRECTION('ref_axis',(-0.5,0.866025403784439,-8.32667268468867E-17));
#476=DIRECTION('center_axis',(-0.612372435695795,-0.353553390593274,-0.707106781186548));
#477=DIRECTION('ref_axis',(-0.5,0.866025403784439,-8.32667268468867E-17));
#478=DIRECTION('center_axis',(0.612372435695795,-0.353553390593274,0.707106781186547));
#479=DIRECTION('ref_axis',(0.5,0.866025403784439,8.32667268468867E-17));
#480=DIRECTION('center_axis',(0.,0.,1.));
#481=DIRECTION('ref_axis',(-0.866025403784439,0.5,0.));
#482=DIRECTION('center_axis',(0.,0.,1.));
#483=DIRECTION('ref_axis',(-0.866025403784439,0.5,0.));
#484=DIRECTION('',(0.612372435695795,-0.353553390593274,0.707106781186547));
#485=DIRECTION('center_axis',(-0.612372435695794,0.353553390593274,-0.707106781186548));
#486=DIRECTION('ref_axis',(0.5,0.866025403784439,4.16333634234433E-16));
#487=DIRECTION('center_axis',(-0.612372435695794,0.353553390593274,-0.707106781186548));
#488=DIRECTION('ref_axis',(0.5,0.866025403784439,4.16333634234433E-16));
#489=DIRECTION('center_axis',(0.,-0.707106781186548,0.707106781186547));
#490=DIRECTION('ref_axis',(1.,0.,0.));
#491=DIRECTION('center_axis',(0.,0.,1.));
#492=DIRECTION('ref_axis',(0.,1.,0.));
#493=DIRECTION('center_axis',(0.,0.,1.));
#494=DIRECTION('ref_axis',(0.,1.,0.));
#495=DIRECTION('',(0.,-0.707106781186548,0.707106781186547));
#496=DIRECTION('center_axis',(0.,0.707106781186548,-0.707106781186547));
#497=DIRECTION('ref_axis',(1.,0.,0.));
#498=DIRECTION('center_axis',(0.,0.707106781186548,-0.707106781186547));
#499=DIRECTION('ref_axis',(1.,0.,0.));
#500=DIRECTION('center_axis',(0.,-0.707106781186548,0.707106781186547));
#501=DIRECTION('ref_axis',(1.,0.,0.));
#502=DIRECTION('',(-1.,0.,0.));
#503=DIRECTION('',(0.377964473009227,0.654653670707977,0.654653670707977));
#504=DIRECTION('',(-1.,0.,0.));
#505=DIRECTION('',(-0.377964473009227,0.654653670707977,0.654653670707977));
#506=DIRECTION('center_axis',(-0.612372435695794,-0.353553390593274,0.707106781186548));
#507=DIRECTION('ref_axis',(0.5,-0.866025403784439,-4.16333634234433E-16));
#508=DIRECTION('',(-0.5,0.866025403784439,0.));
#509=DIRECTION('',(0.755928946018454,4.19624860425158E-16,0.654653670707977));
#510=DIRECTION('',(-0.5,0.866025403784438,0.));
#511=DIRECTION('center_axis',(-0.612372435695795,0.353553390593274,0.707106781186547));
#512=DIRECTION('ref_axis',(-0.5,-0.866025403784439,8.32667268468867E-17));
#513=DIRECTION('',(0.5,0.866025403784439,0.));
#514=DIRECTION('',(0.377964473009227,-0.654653670707977,0.654653670707977));
#515=DIRECTION('',(0.5,0.866025403784439,0.));
#516=DIRECTION('center_axis',(-4.35116785763366E-16,0.707106781186548,0.707106781186547));
#517=DIRECTION('ref_axis',(-1.,-3.07674029821371E-16,-3.0767402982137E-16));
#518=DIRECTION('',(1.,6.1534805964274E-16,0.));
#519=DIRECTION('',(-0.377964473009227,-0.654653670707977,0.654653670707977));
#520=DIRECTION('',(1.,6.1534805964274E-16,0.));
#521=DIRECTION('center_axis',(0.612372435695795,0.353553390593274,0.707106781186548));
#522=DIRECTION('ref_axis',(-0.5,0.866025403784439,-8.32667268468867E-17));
#523=DIRECTION('',(0.5,-0.866025403784439,0.));
#524=DIRECTION('',(-0.755928946018454,1.67849944170063E-16,0.654653670707977));
#525=DIRECTION('',(0.5,-0.866025403784439,0.));
#526=DIRECTION('center_axis',(0.612372435695794,-0.353553390593274,0.707106781186548));
#527=DIRECTION('ref_axis',(0.5,0.866025403784439,4.16333634234433E-16));
#528=DIRECTION('',(-0.5,-0.866025403784439,0.));
#529=DIRECTION('',(-0.5,-0.866025403784438,0.));
#530=DIRECTION('center_axis',(0.,0.,1.));
#531=DIRECTION('ref_axis',(1.,0.,0.));
#532=DIRECTION('center_axis',(0.,0.,1.));
#533=DIRECTION('ref_axis',(1.,0.,0.));
#534=CARTESIAN_POINT('',(0.,0.,0.));
#535=CARTESIAN_POINT('Origin',(0.,0.,75.));
#536=CARTESIAN_POINT('',(5.,6.12323399573677E-16,75.));
#537=CARTESIAN_POINT('Origin',(0.,0.,75.));
#538=CARTESIAN_POINT('',(5.,6.12323399573677E-16,0.));
#539=CARTESIAN_POINT('',(5.,-6.12323399573677E-16,75.));
#540=CARTESIAN_POINT('Origin',(0.,0.,0.));
#541=CARTESIAN_POINT('Origin',(134.244942896941,77.506385002235,-189.865537121845));
#542=CARTESIAN_POINT('',(-42.4308842676706,-24.4974513705529,0.));
#543=CARTESIAN_POINT('',(-35.1834355537544,-8.76612952084294,0.));
#544=CARTESIAN_POINT('Origin',(-30.1834355537547,-17.4263835586875,0.));
#545=CARTESIAN_POINT('Origin',(-30.1834355537547,-17.4263835586875,0.));
#546=CARTESIAN_POINT('',(-63.3929946958398,-25.0529260852466,32.5735931288073));
#547=CARTESIAN_POINT('',(129.244942896941,86.1666390400794,-189.865537121845));
#548=CARTESIAN_POINT('',(-53.3929946958399,-42.3734341609354,32.5735931288072));
#549=CARTESIAN_POINT('Origin',(-58.3929946958399,-33.713180123091,32.5735931288072));
#550=CARTESIAN_POINT('Origin',(-58.3929946958399,-33.713180123091,32.5735931288072));
#551=CARTESIAN_POINT('Origin',(134.244969815903,-77.5063383772244,-189.865537121845));
#552=CARTESIAN_POINT('',(-42.430857348708,24.4974979955637,0.));
#553=CARTESIAN_POINT('',(-25.1834086347921,26.0866842215425,0.));
#554=CARTESIAN_POINT('Origin',(-30.1834086347922,17.4264301836982,0.));
#555=CARTESIAN_POINT('Origin',(-30.1834086347922,17.4264301836982,0.));
#556=CARTESIAN_POINT('',(-53.3929677768773,42.3734807859462,32.5735931288071));
#557=CARTESIAN_POINT('',(139.244969815903,-68.84608433938,-189.865537121845));
#558=CARTESIAN_POINT('',(-63.3929677768774,25.0529727102574,32.5735931288072));
#559=CARTESIAN_POINT('Origin',(-58.3929677768773,33.7132267481018,32.5735931288071));
#560=CARTESIAN_POINT('Origin',(-58.3929677768773,33.7132267481018,32.5735931288071));
#561=CARTESIAN_POINT('Origin',(2.6918962472422E-5,-155.012723379459,-189.865537121845));
#562=CARTESIAN_POINT('',(2.69189625035082E-5,48.9949493661166,0.));
#563=CARTESIAN_POINT('',(10.0000269189625,34.8528137423863,0.));
#564=CARTESIAN_POINT('Origin',(2.69189624873273E-5,34.8528137423857,0.));
#565=CARTESIAN_POINT('Origin',(2.69189624873273E-5,34.8528137423857,0.));
#566=CARTESIAN_POINT('',(10.0000269189625,67.4264068711932,32.5735931288069));
#567=CARTESIAN_POINT('',(10.0000269189625,-155.012723379459,-189.865537121845));
#568=CARTESIAN_POINT('',(-9.99997308103749,67.4264068711929,32.5735931288072));
#569=CARTESIAN_POINT('Origin',(2.69189624898845E-5,67.4264068711929,32.5735931288072));
#570=CARTESIAN_POINT('Origin',(2.69189624898845E-5,67.4264068711929,32.5735931288072));
#571=CARTESIAN_POINT('Origin',(-134.244942896941,-77.5063850022351,-189.865537121845));
#572=CARTESIAN_POINT('',(42.4308842676706,24.497451370553,0.));
#573=CARTESIAN_POINT('',(35.1834355537544,8.76612952084301,0.));
#574=CARTESIAN_POINT('Origin',(30.1834355537546,17.4263835586875,0.));
#575=CARTESIAN_POINT('Origin',(30.1834355537546,17.4263835586875,0.));
#576=CARTESIAN_POINT('',(63.3929946958398,25.0529260852468,32.5735931288073));
#577=CARTESIAN_POINT('',(-129.244942896941,-86.1666390400795,-189.865537121845));
#578=CARTESIAN_POINT('',(53.3929946958399,42.3734341609354,32.5735931288072));
#579=CARTESIAN_POINT('Origin',(58.3929946958399,33.7131801230911,32.5735931288072));
#580=CARTESIAN_POINT('Origin',(58.3929946958399,33.7131801230911,32.5735931288072));
#581=CARTESIAN_POINT('Origin',(-134.244969815903,77.5063383772244,-189.865537121845));
#582=CARTESIAN_POINT('',(42.430857348708,-24.4974979955637,0.));
#583=CARTESIAN_POINT('',(25.1834086347923,-26.0866842215427,0.));
#584=CARTESIAN_POINT('Origin',(30.1834086347922,-17.4264301836982,0.));
#585=CARTESIAN_POINT('Origin',(30.1834086347922,-17.4264301836982,0.));
#586=CARTESIAN_POINT('',(53.3929677768776,-42.3734807859462,32.5735931288071));
#587=CARTESIAN_POINT('',(-139.244969815903,68.84608433938,-189.865537121845));
#588=CARTESIAN_POINT('',(63.3929677768774,-25.0529727102574,32.5735931288072));
#589=CARTESIAN_POINT('Origin',(58.3929677768774,-33.7132267481018,32.5735931288072));
#590=CARTESIAN_POINT('Origin',(58.3929677768774,-33.7132267481018,32.5735931288072));
#591=CARTESIAN_POINT('Origin',(-2.69189624990673E-5,155.012723379459,-189.865537121845));
#592=CARTESIAN_POINT('',(-2.69189624978427E-5,-48.9949493661166,0.));
#593=CARTESIAN_POINT('',(-10.0000269189625,-34.8528137423863,0.));
#594=CARTESIAN_POINT('Origin',(-2.69189624990673E-5,-34.8528137423857,0.));
#595=CARTESIAN_POINT('Origin',(-2.69189624990673E-5,-34.8528137423857,0.));
#596=CARTESIAN_POINT('',(-10.0000269189625,-67.4264068711932,32.5735931288069));
#597=CARTESIAN_POINT('',(-10.0000269189625,155.012723379459,-189.865537121845));
#598=CARTESIAN_POINT('',(9.9999730810375,-67.4264068711929,32.5735931288072));
#599=CARTESIAN_POINT('Origin',(-2.69189624990673E-5,-67.4264068711929,32.5735931288072));
#600=CARTESIAN_POINT('Origin',(-2.69189624990673E-5,-67.4264068711929,32.5735931288072));
#601=CARTESIAN_POINT('Origin',(57.7350269189626,-100.,0.));
#602=CARTESIAN_POINT('',(14.4337567297407,-25.,75.));
#603=CARTESIAN_POINT('',(-14.4337567297406,-25.,75.));
#604=CARTESIAN_POINT('',(57.7350269189626,-25.,75.));
#605=CARTESIAN_POINT('',(-57.7350269189625,-100.,0.));
#606=CARTESIAN_POINT('',(-49.4871659305393,-85.7142857142857,14.2857142857143));
#607=CARTESIAN_POINT('',(57.7350269189626,-100.,0.));
#608=CARTESIAN_POINT('',(57.7350269189626,-100.,0.));
#609=CARTESIAN_POINT('',(49.4871659305394,-85.7142857142857,14.2857142857143));
#610=CARTESIAN_POINT('Origin',(-57.7350269189625,-100.,0.));
#611=CARTESIAN_POINT('',(-28.8675134594812,-5.49181899867222E-15,75.));
#612=CARTESIAN_POINT('',(7.21687836487038,-62.5,75.));
#613=CARTESIAN_POINT('',(-115.470053837925,-4.86842166312598E-14,0.));
#614=CARTESIAN_POINT('',(-98.9743318610787,-4.44089209850063E-14,14.2857142857143));
#615=CARTESIAN_POINT('',(-57.7350269189625,-100.,0.));
#616=CARTESIAN_POINT('Origin',(-115.470053837925,-4.86842166312598E-14,
0.));
#617=CARTESIAN_POINT('',(-14.4337567297406,25.,75.));
#618=CARTESIAN_POINT('',(-50.5181485540922,-37.5,75.));
#619=CARTESIAN_POINT('',(-57.7350269189626,100.,0.));
#620=CARTESIAN_POINT('',(-49.4871659305393,85.7142857142857,14.2857142857143));
#621=CARTESIAN_POINT('',(-115.470053837925,-4.86842166312598E-14,0.));
#622=CARTESIAN_POINT('Origin',(-57.7350269189626,100.,0.));
#623=CARTESIAN_POINT('',(14.4337567297407,25.,75.));
#624=CARTESIAN_POINT('',(-57.7350269189625,25.,75.));
#625=CARTESIAN_POINT('',(57.7350269189626,100.,0.));
#626=CARTESIAN_POINT('',(49.4871659305393,85.7142857142858,14.2857142857143));
#627=CARTESIAN_POINT('',(-57.7350269189626,100.,0.));
#628=CARTESIAN_POINT('Origin',(57.7350269189626,100.,0.));
#629=CARTESIAN_POINT('',(28.8675134594813,-4.21647564859745E-14,75.));
#630=CARTESIAN_POINT('',(-7.21687836487032,62.5000000000001,75.));
#631=CARTESIAN_POINT('',(115.470053837925,-5.11284534644875E-14,0.));
#632=CARTESIAN_POINT('',(98.9743318610787,-5.77315972805081E-14,14.2857142857143));
#633=CARTESIAN_POINT('',(57.7350269189626,100.,0.));
#634=CARTESIAN_POINT('Origin',(115.470053837925,-5.11284534644875E-14,0.));
#635=CARTESIAN_POINT('',(50.5181485540923,37.5,75.));
#636=CARTESIAN_POINT('',(115.470053837925,-5.11284534644875E-14,0.));
#637=CARTESIAN_POINT('Origin',(4.61511044732055E-14,-3.0767402982137E-15,
75.));
#638=CARTESIAN_POINT('Origin',(4.61511044732055E-14,-3.0767402982137E-15,
0.));
#639=UNCERTAINTY_MEASURE_WITH_UNIT(LENGTH_MEASURE(0.01),#643,
'DISTANCE_ACCURACY_VALUE',
'Maximum model space distance between geometric entities at asserted c
onnectivities');
#640=UNCERTAINTY_MEASURE_WITH_UNIT(LENGTH_MEASURE(0.01),#643,
'DISTANCE_ACCURACY_VALUE',
'Maximum model space distance between geometric entities at asserted c
onnectivities');
#641=(
GEOMETRIC_REPRESENTATION_CONTEXT(3)
GLOBAL_UNCERTAINTY_ASSIGNED_CONTEXT((#639))
GLOBAL_UNIT_ASSIGNED_CONTEXT((#643,#645,#646))
REPRESENTATION_CONTEXT('','3D')
);
#642=(
GEOMETRIC_REPRESENTATION_CONTEXT(3)
GLOBAL_UNCERTAINTY_ASSIGNED_CONTEXT((#640))
GLOBAL_UNIT_ASSIGNED_CONTEXT((#643,#645,#646))
REPRESENTATION_CONTEXT('','3D')
);
#643=(
LENGTH_UNIT()
NAMED_UNIT(*)
SI_UNIT(.MILLI.,.METRE.)
);
#644=(
LENGTH_UNIT()
NAMED_UNIT(*)
SI_UNIT($,.METRE.)
);
#645=(
NAMED_UNIT(*)
PLANE_ANGLE_UNIT()
SI_UNIT($,.RADIAN.)
);
#646=(
NAMED_UNIT(*)
SI_UNIT($,.STERADIAN.)
SOLID_ANGLE_UNIT()
);
#647=SHAPE_DEFINITION_REPRESENTATION(#648,#649);
#648=PRODUCT_DEFINITION_SHAPE('',$,#651);
#649=SHAPE_REPRESENTATION('',(#383),#641);
#650=PRODUCT_DEFINITION_CONTEXT('part definition',#655,'design');
#651=PRODUCT_DEFINITION('Polar array','Polar array v1',#652,#650);
#652=PRODUCT_DEFINITION_FORMATION('',$,#657);
#653=PRODUCT_RELATED_PRODUCT_CATEGORY('Polar array v1','Polar array v1',
(#657));
#654=APPLICATION_PROTOCOL_DEFINITION('international standard',
'automotive_design',2009,#655);
#655=APPLICATION_CONTEXT(
'Core Data for Automotive Mechanical Design Process');
#656=PRODUCT_CONTEXT('part definition',#655,'mechanical');
#657=PRODUCT('Polar array','Polar array v1',$,(#656));
#658=PRESENTATION_STYLE_ASSIGNMENT((#660));
#659=PRESENTATION_STYLE_ASSIGNMENT((#661));
#660=SURFACE_STYLE_USAGE(.BOTH.,#662);
#661=SURFACE_STYLE_USAGE(.BOTH.,#663);
#662=SURFACE_SIDE_STYLE('',(#664));
#663=SURFACE_SIDE_STYLE('',(#665));
#664=SURFACE_STYLE_FILL_AREA(#666);
#665=SURFACE_STYLE_FILL_AREA(#667);
#666=FILL_AREA_STYLE('Steel - Satin',(#668));
#667=FILL_AREA_STYLE('Aluminum - Bead Blasted',(#669));
#668=FILL_AREA_STYLE_COLOUR('Steel - Satin',#670);
#669=FILL_AREA_STYLE_COLOUR('Aluminum - Bead Blasted',#671);
#670=COLOUR_RGB('Steel - Satin',0.627450980392157,0.627450980392157,0.627450980392157);
#671=COLOUR_RGB('Aluminum - Bead Blasted',0.96078431372549,0.96078431372549,
0.964705882352941);
ENDSEC;
END-ISO-10303-21;
