ISO-10303-21;
HEADER;
/* Generated by software containing ST-Developer
 * from STEP Tools, Inc. (www.steptools.com) 
 */

FILE_DESCRIPTION(
/* description */ (''),
/* implementation_level */ '2;1');

FILE_NAME(
/* name */ '/Users/joakimjohansson/Desktop/Sample parts/Rapids.step',
/* time_stamp */ '2019-05-10T10:18:20+02:00',
/* author */ ('joakim.j.b.johansson@gmail.com'),
/* organization */ (''),
/* preprocessor_version */ 'ST-DEVELOPER v18',
/* originating_system */ 'Autodesk Translation Framework v8.2.0.1029',
/* authorisation */ '');

FILE_SCHEMA (('AUTOMOTIVE_DESIGN { 1 0 10303 214 3 1 1 }'));
ENDSEC;

DATA;
#10=MECHANICAL_DESIGN_GEOMETRIC_PRESENTATION_REPRESENTATION('',(#13),#584);
#11=SHAPE_REPRESENTATION_RELATIONSHIP('SRR','None',#591,#12);
#12=ADVANCED_BREP_SHAPE_REPRESENTATION('',(#14),#583);
#13=STYLED_ITEM('',(#601),#14);
#14=MANIFOLD_SOLID_BREP('Body1',#348);
#15=FACE_BOUND('',#66,.T.);
#16=FACE_BOUND('',#68,.T.);
#17=FACE_BOUND('',#69,.T.);
#18=FACE_BOUND('',#71,.T.);
#19=FACE_BOUND('',#72,.T.);
#20=FACE_BOUND('',#73,.T.);
#21=FACE_BOUND('',#79,.T.);
#22=FACE_BOUND('',#80,.T.);
#23=FACE_BOUND('',#81,.T.);
#24=FACE_BOUND('',#82,.T.);
#25=FACE_BOUND('',#83,.T.);
#26=FACE_BOUND('',#84,.T.);
#27=ELLIPSE('',#370,12.2077458876146,10.);
#28=ELLIPSE('',#374,12.2077458876146,10.);
#29=PLANE('',#368);
#30=PLANE('',#372);
#31=PLANE('',#385);
#32=PLANE('',#386);
#33=PLANE('',#387);
#34=PLANE('',#388);
#35=PLANE('',#389);
#36=PLANE('',#390);
#37=PLANE('',#391);
#38=PLANE('',#392);
#39=FACE_OUTER_BOUND('',#56,.T.);
#40=FACE_OUTER_BOUND('',#57,.T.);
#41=FACE_OUTER_BOUND('',#58,.T.);
#42=FACE_OUTER_BOUND('',#59,.T.);
#43=FACE_OUTER_BOUND('',#60,.T.);
#44=FACE_OUTER_BOUND('',#61,.T.);
#45=FACE_OUTER_BOUND('',#62,.T.);
#46=FACE_OUTER_BOUND('',#63,.T.);
#47=FACE_OUTER_BOUND('',#64,.T.);
#48=FACE_OUTER_BOUND('',#65,.T.);
#49=FACE_OUTER_BOUND('',#67,.T.);
#50=FACE_OUTER_BOUND('',#70,.T.);
#51=FACE_OUTER_BOUND('',#74,.T.);
#52=FACE_OUTER_BOUND('',#75,.T.);
#53=FACE_OUTER_BOUND('',#76,.T.);
#54=FACE_OUTER_BOUND('',#77,.T.);
#55=FACE_OUTER_BOUND('',#78,.T.);
#56=EDGE_LOOP('',(#234,#235,#236,#237));
#57=EDGE_LOOP('',(#238,#239,#240,#241));
#58=EDGE_LOOP('',(#242,#243,#244,#245));
#59=EDGE_LOOP('',(#246,#247,#248,#249));
#60=EDGE_LOOP('',(#250,#251,#252,#253));
#61=EDGE_LOOP('',(#254,#255,#256,#257));
#62=EDGE_LOOP('',(#258,#259,#260,#261));
#63=EDGE_LOOP('',(#262,#263,#264,#265));
#64=EDGE_LOOP('',(#266,#267,#268,#269));
#65=EDGE_LOOP('',(#270,#271,#272,#273));
#66=EDGE_LOOP('',(#274,#275,#276,#277));
#67=EDGE_LOOP('',(#278,#279,#280,#281));
#68=EDGE_LOOP('',(#282));
#69=EDGE_LOOP('',(#283));
#70=EDGE_LOOP('',(#284,#285,#286,#287));
#71=EDGE_LOOP('',(#288));
#72=EDGE_LOOP('',(#289));
#73=EDGE_LOOP('',(#290));
#74=EDGE_LOOP('',(#291,#292,#293,#294));
#75=EDGE_LOOP('',(#295,#296,#297,#298,#299,#300));
#76=EDGE_LOOP('',(#301,#302,#303,#304));
#77=EDGE_LOOP('',(#305,#306,#307,#308,#309,#310));
#78=EDGE_LOOP('',(#311,#312,#313,#314));
#79=EDGE_LOOP('',(#315));
#80=EDGE_LOOP('',(#316));
#81=EDGE_LOOP('',(#317,#318,#319,#320));
#82=EDGE_LOOP('',(#321));
#83=EDGE_LOOP('',(#322));
#84=EDGE_LOOP('',(#323));
#85=LINE('',#493,#116);
#86=LINE('',#499,#117);
#87=LINE('',#504,#118);
#88=LINE('',#506,#119);
#89=LINE('',#508,#120);
#90=LINE('',#509,#121);
#91=LINE('',#515,#122);
#92=LINE('',#518,#123);
#93=LINE('',#520,#124);
#94=LINE('',#521,#125);
#95=LINE('',#529,#126);
#96=LINE('',#535,#127);
#97=LINE('',#541,#128);
#98=LINE('',#546,#129);
#99=LINE('',#548,#130);
#100=LINE('',#550,#131);
#101=LINE('',#551,#132);
#102=LINE('',#554,#133);
#103=LINE('',#556,#134);
#104=LINE('',#557,#135);
#105=LINE('',#560,#136);
#106=LINE('',#562,#137);
#107=LINE('',#563,#138);
#108=LINE('',#567,#139);
#109=LINE('',#568,#140);
#110=LINE('',#569,#141);
#111=LINE('',#572,#142);
#112=LINE('',#573,#143);
#113=LINE('',#576,#144);
#114=LINE('',#577,#145);
#115=LINE('',#579,#146);
#116=VECTOR('',#399,10.);
#117=VECTOR('',#406,10.);
#118=VECTOR('',#411,10.);
#119=VECTOR('',#412,10.);
#120=VECTOR('',#413,10.);
#121=VECTOR('',#414,10.);
#122=VECTOR('',#421,10.);
#123=VECTOR('',#424,10.);
#124=VECTOR('',#425,10.);
#125=VECTOR('',#426,10.);
#126=VECTOR('',#437,10.);
#127=VECTOR('',#444,10.);
#128=VECTOR('',#451,10.);
#129=VECTOR('',#456,10.);
#130=VECTOR('',#457,10.);
#131=VECTOR('',#458,10.);
#132=VECTOR('',#459,10.);
#133=VECTOR('',#462,10.);
#134=VECTOR('',#463,10.);
#135=VECTOR('',#464,10.);
#136=VECTOR('',#467,10.);
#137=VECTOR('',#468,10.);
#138=VECTOR('',#469,10.);
#139=VECTOR('',#472,10.);
#140=VECTOR('',#473,10.);
#141=VECTOR('',#474,10.);
#142=VECTOR('',#477,10.);
#143=VECTOR('',#478,10.);
#144=VECTOR('',#481,10.);
#145=VECTOR('',#482,10.);
#146=VECTOR('',#485,10.);
#147=CIRCLE('',#363,10.);
#148=CIRCLE('',#364,10.);
#149=CIRCLE('',#366,10.);
#150=CIRCLE('',#367,10.);
#151=CIRCLE('',#371,10.);
#152=CIRCLE('',#375,10.);
#153=CIRCLE('',#377,10.);
#154=CIRCLE('',#378,10.);
#155=CIRCLE('',#380,10.);
#156=CIRCLE('',#381,10.);
#157=CIRCLE('',#383,10.);
#158=CIRCLE('',#384,10.);
#159=VERTEX_POINT('',#490);
#160=VERTEX_POINT('',#492);
#161=VERTEX_POINT('',#496);
#162=VERTEX_POINT('',#498);
#163=VERTEX_POINT('',#502);
#164=VERTEX_POINT('',#503);
#165=VERTEX_POINT('',#505);
#166=VERTEX_POINT('',#507);
#167=VERTEX_POINT('',#511);
#168=VERTEX_POINT('',#513);
#169=VERTEX_POINT('',#517);
#170=VERTEX_POINT('',#519);
#171=VERTEX_POINT('',#526);
#172=VERTEX_POINT('',#528);
#173=VERTEX_POINT('',#532);
#174=VERTEX_POINT('',#534);
#175=VERTEX_POINT('',#538);
#176=VERTEX_POINT('',#540);
#177=VERTEX_POINT('',#544);
#178=VERTEX_POINT('',#545);
#179=VERTEX_POINT('',#547);
#180=VERTEX_POINT('',#549);
#181=VERTEX_POINT('',#553);
#182=VERTEX_POINT('',#555);
#183=VERTEX_POINT('',#559);
#184=VERTEX_POINT('',#561);
#185=VERTEX_POINT('',#565);
#186=VERTEX_POINT('',#566);
#187=VERTEX_POINT('',#571);
#188=VERTEX_POINT('',#575);
#189=EDGE_CURVE('',#159,#159,#147,.T.);
#190=EDGE_CURVE('',#159,#160,#85,.T.);
#191=EDGE_CURVE('',#160,#160,#148,.T.);
#192=EDGE_CURVE('',#161,#161,#149,.T.);
#193=EDGE_CURVE('',#161,#162,#86,.T.);
#194=EDGE_CURVE('',#162,#162,#150,.T.);
#195=EDGE_CURVE('',#163,#164,#87,.T.);
#196=EDGE_CURVE('',#165,#163,#88,.T.);
#197=EDGE_CURVE('',#166,#165,#89,.T.);
#198=EDGE_CURVE('',#166,#164,#90,.T.);
#199=EDGE_CURVE('',#164,#167,#27,.T.);
#200=EDGE_CURVE('',#168,#166,#151,.T.);
#201=EDGE_CURVE('',#168,#167,#91,.T.);
#202=EDGE_CURVE('',#167,#169,#92,.T.);
#203=EDGE_CURVE('',#170,#168,#93,.T.);
#204=EDGE_CURVE('',#170,#169,#94,.T.);
#205=EDGE_CURVE('',#169,#163,#28,.T.);
#206=EDGE_CURVE('',#165,#170,#152,.T.);
#207=EDGE_CURVE('',#171,#171,#153,.T.);
#208=EDGE_CURVE('',#171,#172,#95,.T.);
#209=EDGE_CURVE('',#172,#172,#154,.T.);
#210=EDGE_CURVE('',#173,#173,#155,.T.);
#211=EDGE_CURVE('',#173,#174,#96,.T.);
#212=EDGE_CURVE('',#174,#174,#156,.T.);
#213=EDGE_CURVE('',#175,#175,#157,.T.);
#214=EDGE_CURVE('',#175,#176,#97,.T.);
#215=EDGE_CURVE('',#176,#176,#158,.T.);
#216=EDGE_CURVE('',#177,#178,#98,.T.);
#217=EDGE_CURVE('',#177,#179,#99,.T.);
#218=EDGE_CURVE('',#180,#179,#100,.F.);
#219=EDGE_CURVE('',#178,#180,#101,.F.);
#220=EDGE_CURVE('',#179,#181,#102,.T.);
#221=EDGE_CURVE('',#181,#182,#103,.F.);
#222=EDGE_CURVE('',#182,#180,#104,.T.);
#223=EDGE_CURVE('',#178,#183,#105,.T.);
#224=EDGE_CURVE('',#183,#184,#106,.T.);
#225=EDGE_CURVE('',#184,#177,#107,.T.);
#226=EDGE_CURVE('',#185,#186,#108,.T.);
#227=EDGE_CURVE('',#186,#184,#109,.T.);
#228=EDGE_CURVE('',#185,#183,#110,.T.);
#229=EDGE_CURVE('',#187,#185,#111,.T.);
#230=EDGE_CURVE('',#187,#182,#112,.T.);
#231=EDGE_CURVE('',#188,#187,#113,.F.);
#232=EDGE_CURVE('',#188,#181,#114,.F.);
#233=EDGE_CURVE('',#186,#188,#115,.T.);
#234=ORIENTED_EDGE('',*,*,#189,.F.);
#235=ORIENTED_EDGE('',*,*,#190,.T.);
#236=ORIENTED_EDGE('',*,*,#191,.F.);
#237=ORIENTED_EDGE('',*,*,#190,.F.);
#238=ORIENTED_EDGE('',*,*,#192,.F.);
#239=ORIENTED_EDGE('',*,*,#193,.T.);
#240=ORIENTED_EDGE('',*,*,#194,.F.);
#241=ORIENTED_EDGE('',*,*,#193,.F.);
#242=ORIENTED_EDGE('',*,*,#195,.F.);
#243=ORIENTED_EDGE('',*,*,#196,.F.);
#244=ORIENTED_EDGE('',*,*,#197,.F.);
#245=ORIENTED_EDGE('',*,*,#198,.T.);
#246=ORIENTED_EDGE('',*,*,#199,.F.);
#247=ORIENTED_EDGE('',*,*,#198,.F.);
#248=ORIENTED_EDGE('',*,*,#200,.F.);
#249=ORIENTED_EDGE('',*,*,#201,.T.);
#250=ORIENTED_EDGE('',*,*,#202,.F.);
#251=ORIENTED_EDGE('',*,*,#201,.F.);
#252=ORIENTED_EDGE('',*,*,#203,.F.);
#253=ORIENTED_EDGE('',*,*,#204,.T.);
#254=ORIENTED_EDGE('',*,*,#205,.F.);
#255=ORIENTED_EDGE('',*,*,#204,.F.);
#256=ORIENTED_EDGE('',*,*,#206,.F.);
#257=ORIENTED_EDGE('',*,*,#196,.T.);
#258=ORIENTED_EDGE('',*,*,#207,.F.);
#259=ORIENTED_EDGE('',*,*,#208,.T.);
#260=ORIENTED_EDGE('',*,*,#209,.F.);
#261=ORIENTED_EDGE('',*,*,#208,.F.);
#262=ORIENTED_EDGE('',*,*,#210,.F.);
#263=ORIENTED_EDGE('',*,*,#211,.T.);
#264=ORIENTED_EDGE('',*,*,#212,.F.);
#265=ORIENTED_EDGE('',*,*,#211,.F.);
#266=ORIENTED_EDGE('',*,*,#213,.F.);
#267=ORIENTED_EDGE('',*,*,#214,.T.);
#268=ORIENTED_EDGE('',*,*,#215,.F.);
#269=ORIENTED_EDGE('',*,*,#214,.F.);
#270=ORIENTED_EDGE('',*,*,#216,.F.);
#271=ORIENTED_EDGE('',*,*,#217,.T.);
#272=ORIENTED_EDGE('',*,*,#218,.F.);
#273=ORIENTED_EDGE('',*,*,#219,.F.);
#274=ORIENTED_EDGE('',*,*,#203,.T.);
#275=ORIENTED_EDGE('',*,*,#200,.T.);
#276=ORIENTED_EDGE('',*,*,#197,.T.);
#277=ORIENTED_EDGE('',*,*,#206,.T.);
#278=ORIENTED_EDGE('',*,*,#218,.T.);
#279=ORIENTED_EDGE('',*,*,#220,.T.);
#280=ORIENTED_EDGE('',*,*,#221,.T.);
#281=ORIENTED_EDGE('',*,*,#222,.T.);
#282=ORIENTED_EDGE('',*,*,#189,.T.);
#283=ORIENTED_EDGE('',*,*,#192,.T.);
#284=ORIENTED_EDGE('',*,*,#216,.T.);
#285=ORIENTED_EDGE('',*,*,#223,.T.);
#286=ORIENTED_EDGE('',*,*,#224,.T.);
#287=ORIENTED_EDGE('',*,*,#225,.T.);
#288=ORIENTED_EDGE('',*,*,#207,.T.);
#289=ORIENTED_EDGE('',*,*,#210,.T.);
#290=ORIENTED_EDGE('',*,*,#213,.T.);
#291=ORIENTED_EDGE('',*,*,#226,.T.);
#292=ORIENTED_EDGE('',*,*,#227,.T.);
#293=ORIENTED_EDGE('',*,*,#224,.F.);
#294=ORIENTED_EDGE('',*,*,#228,.F.);
#295=ORIENTED_EDGE('',*,*,#229,.T.);
#296=ORIENTED_EDGE('',*,*,#228,.T.);
#297=ORIENTED_EDGE('',*,*,#223,.F.);
#298=ORIENTED_EDGE('',*,*,#219,.T.);
#299=ORIENTED_EDGE('',*,*,#222,.F.);
#300=ORIENTED_EDGE('',*,*,#230,.F.);
#301=ORIENTED_EDGE('',*,*,#231,.T.);
#302=ORIENTED_EDGE('',*,*,#230,.T.);
#303=ORIENTED_EDGE('',*,*,#221,.F.);
#304=ORIENTED_EDGE('',*,*,#232,.F.);
#305=ORIENTED_EDGE('',*,*,#233,.T.);
#306=ORIENTED_EDGE('',*,*,#232,.T.);
#307=ORIENTED_EDGE('',*,*,#220,.F.);
#308=ORIENTED_EDGE('',*,*,#217,.F.);
#309=ORIENTED_EDGE('',*,*,#225,.F.);
#310=ORIENTED_EDGE('',*,*,#227,.F.);
#311=ORIENTED_EDGE('',*,*,#233,.F.);
#312=ORIENTED_EDGE('',*,*,#226,.F.);
#313=ORIENTED_EDGE('',*,*,#229,.F.);
#314=ORIENTED_EDGE('',*,*,#231,.F.);
#315=ORIENTED_EDGE('',*,*,#191,.T.);
#316=ORIENTED_EDGE('',*,*,#194,.T.);
#317=ORIENTED_EDGE('',*,*,#202,.T.);
#318=ORIENTED_EDGE('',*,*,#205,.T.);
#319=ORIENTED_EDGE('',*,*,#195,.T.);
#320=ORIENTED_EDGE('',*,*,#199,.T.);
#321=ORIENTED_EDGE('',*,*,#209,.T.);
#322=ORIENTED_EDGE('',*,*,#212,.T.);
#323=ORIENTED_EDGE('',*,*,#215,.T.);
#324=CYLINDRICAL_SURFACE('',#362,10.);
#325=CYLINDRICAL_SURFACE('',#365,10.);
#326=CYLINDRICAL_SURFACE('',#369,10.);
#327=CYLINDRICAL_SURFACE('',#373,10.);
#328=CYLINDRICAL_SURFACE('',#376,10.);
#329=CYLINDRICAL_SURFACE('',#379,10.);
#330=CYLINDRICAL_SURFACE('',#382,10.);
#331=ADVANCED_FACE('',(#39),#324,.F.);
#332=ADVANCED_FACE('',(#40),#325,.F.);
#333=ADVANCED_FACE('',(#41),#29,.F.);
#334=ADVANCED_FACE('',(#42),#326,.F.);
#335=ADVANCED_FACE('',(#43),#30,.F.);
#336=ADVANCED_FACE('',(#44),#327,.F.);
#337=ADVANCED_FACE('',(#45),#328,.F.);
#338=ADVANCED_FACE('',(#46),#329,.F.);
#339=ADVANCED_FACE('',(#47),#330,.F.);
#340=ADVANCED_FACE('',(#48,#15),#31,.T.);
#341=ADVANCED_FACE('',(#49,#16,#17),#32,.T.);
#342=ADVANCED_FACE('',(#50,#18,#19,#20),#33,.T.);
#343=ADVANCED_FACE('',(#51),#34,.T.);
#344=ADVANCED_FACE('',(#52),#35,.T.);
#345=ADVANCED_FACE('',(#53),#36,.T.);
#346=ADVANCED_FACE('',(#54),#37,.T.);
#347=ADVANCED_FACE('',(#55,#21,#22,#23,#24,#25,#26),#38,.F.);
#348=CLOSED_SHELL('',(#331,#332,#333,#334,#335,#336,#337,#338,#339,#340,
#341,#342,#343,#344,#345,#346,#347));
#349=DERIVED_UNIT_ELEMENT(#351,1.);
#350=DERIVED_UNIT_ELEMENT(#586,3.);
#351=(
MASS_UNIT()
NAMED_UNIT(*)
SI_UNIT(.KILO.,.GRAM.)
);
#352=DERIVED_UNIT((#349,#350));
#353=MEASURE_REPRESENTATION_ITEM('density measure',
POSITIVE_RATIO_MEASURE(7850.),#352);
#354=PROPERTY_DEFINITION_REPRESENTATION(#359,#356);
#355=PROPERTY_DEFINITION_REPRESENTATION(#360,#357);
#356=REPRESENTATION('material name',(#358),#583);
#357=REPRESENTATION('density',(#353),#583);
#358=DESCRIPTIVE_REPRESENTATION_ITEM('Steel','Steel');
#359=PROPERTY_DEFINITION('material property','material name',#593);
#360=PROPERTY_DEFINITION('material property','density of part',#593);
#361=AXIS2_PLACEMENT_3D('placement',#488,#393,#394);
#362=AXIS2_PLACEMENT_3D('',#489,#395,#396);
#363=AXIS2_PLACEMENT_3D('',#491,#397,#398);
#364=AXIS2_PLACEMENT_3D('',#494,#400,#401);
#365=AXIS2_PLACEMENT_3D('',#495,#402,#403);
#366=AXIS2_PLACEMENT_3D('',#497,#404,#405);
#367=AXIS2_PLACEMENT_3D('',#500,#407,#408);
#368=AXIS2_PLACEMENT_3D('',#501,#409,#410);
#369=AXIS2_PLACEMENT_3D('',#510,#415,#416);
#370=AXIS2_PLACEMENT_3D('',#512,#417,#418);
#371=AXIS2_PLACEMENT_3D('',#514,#419,#420);
#372=AXIS2_PLACEMENT_3D('',#516,#422,#423);
#373=AXIS2_PLACEMENT_3D('',#522,#427,#428);
#374=AXIS2_PLACEMENT_3D('',#523,#429,#430);
#375=AXIS2_PLACEMENT_3D('',#524,#431,#432);
#376=AXIS2_PLACEMENT_3D('',#525,#433,#434);
#377=AXIS2_PLACEMENT_3D('',#527,#435,#436);
#378=AXIS2_PLACEMENT_3D('',#530,#438,#439);
#379=AXIS2_PLACEMENT_3D('',#531,#440,#441);
#380=AXIS2_PLACEMENT_3D('',#533,#442,#443);
#381=AXIS2_PLACEMENT_3D('',#536,#445,#446);
#382=AXIS2_PLACEMENT_3D('',#537,#447,#448);
#383=AXIS2_PLACEMENT_3D('',#539,#449,#450);
#384=AXIS2_PLACEMENT_3D('',#542,#452,#453);
#385=AXIS2_PLACEMENT_3D('',#543,#454,#455);
#386=AXIS2_PLACEMENT_3D('',#552,#460,#461);
#387=AXIS2_PLACEMENT_3D('',#558,#465,#466);
#388=AXIS2_PLACEMENT_3D('',#564,#470,#471);
#389=AXIS2_PLACEMENT_3D('',#570,#475,#476);
#390=AXIS2_PLACEMENT_3D('',#574,#479,#480);
#391=AXIS2_PLACEMENT_3D('',#578,#483,#484);
#392=AXIS2_PLACEMENT_3D('',#580,#486,#487);
#393=DIRECTION('axis',(0.,0.,1.));
#394=DIRECTION('refdir',(1.,0.,0.));
#395=DIRECTION('center_axis',(0.,0.,-1.));
#396=DIRECTION('ref_axis',(-1.,0.,0.));
#397=DIRECTION('center_axis',(0.,0.,-1.));
#398=DIRECTION('ref_axis',(-1.,0.,0.));
#399=DIRECTION('',(0.,0.,-1.));
#400=DIRECTION('center_axis',(0.,0.,1.));
#401=DIRECTION('ref_axis',(-1.,0.,0.));
#402=DIRECTION('center_axis',(0.,0.,-1.));
#403=DIRECTION('ref_axis',(-1.,0.,0.));
#404=DIRECTION('center_axis',(0.,0.,-1.));
#405=DIRECTION('ref_axis',(-1.,0.,0.));
#406=DIRECTION('',(0.,0.,-1.));
#407=DIRECTION('center_axis',(0.,0.,1.));
#408=DIRECTION('ref_axis',(-1.,0.,0.));
#409=DIRECTION('center_axis',(1.,0.,0.));
#410=DIRECTION('ref_axis',(0.,-0.819152044288992,-0.573576436351046));
#411=DIRECTION('',(0.,1.,0.));
#412=DIRECTION('',(0.,0.573576436351046,-0.819152044288992));
#413=DIRECTION('',(0.,-0.819152044288992,-0.573576436351046));
#414=DIRECTION('',(0.,0.573576436351046,-0.819152044288992));
#415=DIRECTION('center_axis',(0.,0.573576436351046,-0.819152044288992));
#416=DIRECTION('ref_axis',(1.,0.,0.));
#417=DIRECTION('center_axis',(0.,0.,1.));
#418=DIRECTION('ref_axis',(0.,-1.,0.));
#419=DIRECTION('center_axis',(0.,0.573576436351046,-0.819152044288992));
#420=DIRECTION('ref_axis',(1.,0.,0.));
#421=DIRECTION('',(0.,0.573576436351046,-0.819152044288992));
#422=DIRECTION('center_axis',(-1.,0.,0.));
#423=DIRECTION('ref_axis',(0.,0.819152044288992,0.573576436351046));
#424=DIRECTION('',(0.,-1.,0.));
#425=DIRECTION('',(0.,0.819152044288992,0.573576436351046));
#426=DIRECTION('',(0.,0.573576436351046,-0.819152044288992));
#427=DIRECTION('center_axis',(0.,0.573576436351046,-0.819152044288992));
#428=DIRECTION('ref_axis',(-1.,0.,0.));
#429=DIRECTION('center_axis',(0.,0.,1.));
#430=DIRECTION('ref_axis',(0.,1.,0.));
#431=DIRECTION('center_axis',(0.,0.573576436351046,-0.819152044288992));
#432=DIRECTION('ref_axis',(-1.,0.,0.));
#433=DIRECTION('center_axis',(0.,0.,-1.));
#434=DIRECTION('ref_axis',(-1.,0.,0.));
#435=DIRECTION('center_axis',(0.,0.,-1.));
#436=DIRECTION('ref_axis',(-1.,0.,0.));
#437=DIRECTION('',(0.,0.,-1.));
#438=DIRECTION('center_axis',(0.,0.,1.));
#439=DIRECTION('ref_axis',(-1.,0.,0.));
#440=DIRECTION('center_axis',(0.,0.,-1.));
#441=DIRECTION('ref_axis',(-1.,0.,0.));
#442=DIRECTION('center_axis',(0.,0.,-1.));
#443=DIRECTION('ref_axis',(-1.,0.,0.));
#444=DIRECTION('',(0.,0.,-1.));
#445=DIRECTION('center_axis',(0.,0.,1.));
#446=DIRECTION('ref_axis',(-1.,0.,0.));
#447=DIRECTION('center_axis',(0.,0.,-1.));
#448=DIRECTION('ref_axis',(-1.,0.,0.));
#449=DIRECTION('center_axis',(0.,0.,-1.));
#450=DIRECTION('ref_axis',(-1.,0.,0.));
#451=DIRECTION('',(0.,0.,-1.));
#452=DIRECTION('center_axis',(0.,0.,1.));
#453=DIRECTION('ref_axis',(-1.,0.,0.));
#454=DIRECTION('center_axis',(0.,-0.573576436351046,0.819152044288992));
#455=DIRECTION('ref_axis',(1.,0.,0.));
#456=DIRECTION('',(-1.,0.,0.));
#457=DIRECTION('',(0.,0.819152044288992,0.573576436351046));
#458=DIRECTION('',(-1.,0.,0.));
#459=DIRECTION('',(0.,-0.819152044288992,-0.573576436351046));
#460=DIRECTION('center_axis',(0.,0.,1.));
#461=DIRECTION('ref_axis',(1.,0.,0.));
#462=DIRECTION('',(0.,1.,0.));
#463=DIRECTION('',(1.,0.,0.));
#464=DIRECTION('',(0.,-1.,0.));
#465=DIRECTION('center_axis',(0.,0.,1.));
#466=DIRECTION('ref_axis',(1.,0.,0.));
#467=DIRECTION('',(0.,-1.,0.));
#468=DIRECTION('',(1.,0.,0.));
#469=DIRECTION('',(0.,1.,0.));
#470=DIRECTION('center_axis',(0.,-1.,0.));
#471=DIRECTION('ref_axis',(1.,0.,0.));
#472=DIRECTION('',(1.,0.,0.));
#473=DIRECTION('',(0.,0.,1.));
#474=DIRECTION('',(0.,0.,1.));
#475=DIRECTION('center_axis',(-1.,0.,0.));
#476=DIRECTION('ref_axis',(0.,-1.,0.));
#477=DIRECTION('',(0.,-1.,0.));
#478=DIRECTION('',(0.,0.,1.));
#479=DIRECTION('center_axis',(0.,1.,0.));
#480=DIRECTION('ref_axis',(-1.,0.,0.));
#481=DIRECTION('',(1.,0.,0.));
#482=DIRECTION('',(0.,0.,-1.));
#483=DIRECTION('center_axis',(1.,0.,0.));
#484=DIRECTION('ref_axis',(0.,1.,0.));
#485=DIRECTION('',(0.,1.,0.));
#486=DIRECTION('center_axis',(0.,0.,1.));
#487=DIRECTION('ref_axis',(1.,0.,0.));
#488=CARTESIAN_POINT('',(0.,0.,0.));
#489=CARTESIAN_POINT('Origin',(30.,82.8444402022634,80.));
#490=CARTESIAN_POINT('',(40.,82.8444402022634,80.));
#491=CARTESIAN_POINT('Origin',(30.,82.8444402022634,80.));
#492=CARTESIAN_POINT('',(40.,82.8444402022634,0.));
#493=CARTESIAN_POINT('',(40.,82.8444402022634,80.));
#494=CARTESIAN_POINT('Origin',(30.,82.8444402022634,0.));
#495=CARTESIAN_POINT('Origin',(-30.,82.8444402022634,80.));
#496=CARTESIAN_POINT('',(-20.,82.8444402022634,80.));
#497=CARTESIAN_POINT('Origin',(-30.,82.8444402022634,80.));
#498=CARTESIAN_POINT('',(-20.,82.8444402022634,0.));
#499=CARTESIAN_POINT('',(-20.,82.8444402022634,80.));
#500=CARTESIAN_POINT('Origin',(-30.,82.8444402022634,0.));
#501=CARTESIAN_POINT('Origin',(10.,41.363918325627,62.967478185689));
#502=CARTESIAN_POINT('',(10.,24.4154917752291,0.));
#503=CARTESIAN_POINT('',(10.,85.4542212133019,0.));
#504=CARTESIAN_POINT('',(10.,20.6819591628135,0.));
#505=CARTESIAN_POINT('',(10.,0.406316111177434,34.2886563681367));
#506=CARTESIAN_POINT('',(10.,0.406316111177434,34.2886563681367));
#507=CARTESIAN_POINT('',(10.,41.363918325627,62.967478185689));
#508=CARTESIAN_POINT('',(10.,10.6819591628135,41.4837390928445));
#509=CARTESIAN_POINT('',(10.,41.363918325627,62.967478185689));
#510=CARTESIAN_POINT('Origin',(0.,41.363918325627,62.967478185689));
#511=CARTESIAN_POINT('',(-10.,85.4542212133019,0.));
#512=CARTESIAN_POINT('Origin',(0.,85.4542212133019,0.));
#513=CARTESIAN_POINT('',(-10.,41.363918325627,62.967478185689));
#514=CARTESIAN_POINT('Origin',(0.,41.363918325627,62.967478185689));
#515=CARTESIAN_POINT('',(-10.,41.363918325627,62.967478185689));
#516=CARTESIAN_POINT('Origin',(-10.,0.406316111177443,34.2886563681367));
#517=CARTESIAN_POINT('',(-10.,24.4154917752291,0.));
#518=CARTESIAN_POINT('',(-10.,0.203158055588721,0.));
#519=CARTESIAN_POINT('',(-10.,0.406316111177436,34.2886563681367));
#520=CARTESIAN_POINT('',(-10.,-9.79684194441128,27.1443281840683));
#521=CARTESIAN_POINT('',(-10.,0.406316111177436,34.2886563681367));
#522=CARTESIAN_POINT('Origin',(0.,0.406316111177436,34.2886563681367));
#523=CARTESIAN_POINT('Origin',(0.,24.4154917752291,0.));
#524=CARTESIAN_POINT('Origin',(0.,0.406316111177435,34.2886563681367));
#525=CARTESIAN_POINT('Origin',(-30.,-40.,20.));
#526=CARTESIAN_POINT('',(-20.,-40.,20.));
#527=CARTESIAN_POINT('Origin',(-30.,-40.,20.));
#528=CARTESIAN_POINT('',(-20.,-40.,0.));
#529=CARTESIAN_POINT('',(-20.,-40.,20.));
#530=CARTESIAN_POINT('Origin',(-30.,-40.,0.));
#531=CARTESIAN_POINT('Origin',(0.,-40.,20.));
#532=CARTESIAN_POINT('',(10.,-40.,20.));
#533=CARTESIAN_POINT('Origin',(0.,-40.,20.));
#534=CARTESIAN_POINT('',(10.,-40.,0.));
#535=CARTESIAN_POINT('',(10.,-40.,20.));
#536=CARTESIAN_POINT('Origin',(0.,-40.,0.));
#537=CARTESIAN_POINT('Origin',(30.,-40.,20.));
#538=CARTESIAN_POINT('',(40.,-40.,20.));
#539=CARTESIAN_POINT('Origin',(30.,-40.,20.));
#540=CARTESIAN_POINT('',(40.,-40.,0.));
#541=CARTESIAN_POINT('',(40.,-40.,20.));
#542=CARTESIAN_POINT('Origin',(30.,-40.,0.));
#543=CARTESIAN_POINT('Origin',(-50.,-20.,20.));
#544=CARTESIAN_POINT('',(50.,-20.,20.));
#545=CARTESIAN_POINT('',(-50.,-20.,20.));
#546=CARTESIAN_POINT('',(-25.,-20.,20.));
#547=CARTESIAN_POINT('',(50.,65.6888804045268,80.));
#548=CARTESIAN_POINT('',(50.,-38.1186645371862,7.31317450876926));
#549=CARTESIAN_POINT('',(-50.,65.6888804045268,80.));
#550=CARTESIAN_POINT('',(-25.,65.6888804045268,80.));
#551=CARTESIAN_POINT('',(-50.,2.14193976258383,35.5039531323465));
#552=CARTESIAN_POINT('Origin',(0.,20.,80.));
#553=CARTESIAN_POINT('',(50.,100.,80.));
#554=CARTESIAN_POINT('',(50.,60.,80.));
#555=CARTESIAN_POINT('',(-50.,100.,80.));
#556=CARTESIAN_POINT('',(25.,100.,80.));
#557=CARTESIAN_POINT('',(-50.,-20.,80.));
#558=CARTESIAN_POINT('Origin',(0.,0.,20.));
#559=CARTESIAN_POINT('',(-50.,-60.,20.));
#560=CARTESIAN_POINT('',(-50.,60.,20.));
#561=CARTESIAN_POINT('',(50.,-60.,20.));
#562=CARTESIAN_POINT('',(-50.,-60.,20.));
#563=CARTESIAN_POINT('',(50.,-60.,20.));
#564=CARTESIAN_POINT('Origin',(-50.,-60.,0.));
#565=CARTESIAN_POINT('',(-50.,-60.,0.));
#566=CARTESIAN_POINT('',(50.,-60.,0.));
#567=CARTESIAN_POINT('',(-50.,-60.,0.));
#568=CARTESIAN_POINT('',(50.,-60.,0.));
#569=CARTESIAN_POINT('',(-50.,-60.,0.));
#570=CARTESIAN_POINT('Origin',(-50.,60.,0.));
#571=CARTESIAN_POINT('',(-50.,100.,0.));
#572=CARTESIAN_POINT('',(-50.,60.,0.));
#573=CARTESIAN_POINT('',(-50.,100.,0.));
#574=CARTESIAN_POINT('Origin',(50.,100.,0.));
#575=CARTESIAN_POINT('',(50.,100.,0.));
#576=CARTESIAN_POINT('',(25.,100.,0.));
#577=CARTESIAN_POINT('',(50.,100.,0.));
#578=CARTESIAN_POINT('Origin',(50.,-60.,0.));
#579=CARTESIAN_POINT('',(50.,-60.,0.));
#580=CARTESIAN_POINT('Origin',(0.,0.,0.));
#581=UNCERTAINTY_MEASURE_WITH_UNIT(LENGTH_MEASURE(0.01),#585,
'DISTANCE_ACCURACY_VALUE',
'Maximum model space distance between geometric entities at asserted c
onnectivities');
#582=UNCERTAINTY_MEASURE_WITH_UNIT(LENGTH_MEASURE(0.01),#585,
'DISTANCE_ACCURACY_VALUE',
'Maximum model space distance between geometric entities at asserted c
onnectivities');
#583=(
GEOMETRIC_REPRESENTATION_CONTEXT(3)
GLOBAL_UNCERTAINTY_ASSIGNED_CONTEXT((#581))
GLOBAL_UNIT_ASSIGNED_CONTEXT((#585,#587,#588))
REPRESENTATION_CONTEXT('','3D')
);
#584=(
GEOMETRIC_REPRESENTATION_CONTEXT(3)
GLOBAL_UNCERTAINTY_ASSIGNED_CONTEXT((#582))
GLOBAL_UNIT_ASSIGNED_CONTEXT((#585,#587,#588))
REPRESENTATION_CONTEXT('','3D')
);
#585=(
LENGTH_UNIT()
NAMED_UNIT(*)
SI_UNIT(.MILLI.,.METRE.)
);
#586=(
LENGTH_UNIT()
NAMED_UNIT(*)
SI_UNIT($,.METRE.)
);
#587=(
NAMED_UNIT(*)
PLANE_ANGLE_UNIT()
SI_UNIT($,.RADIAN.)
);
#588=(
NAMED_UNIT(*)
SI_UNIT($,.STERADIAN.)
SOLID_ANGLE_UNIT()
);
#589=SHAPE_DEFINITION_REPRESENTATION(#590,#591);
#590=PRODUCT_DEFINITION_SHAPE('',$,#593);
#591=SHAPE_REPRESENTATION('',(#361),#583);
#592=PRODUCT_DEFINITION_CONTEXT('part definition',#597,'design');
#593=PRODUCT_DEFINITION('Rapids','Rapids v1',#594,#592);
#594=PRODUCT_DEFINITION_FORMATION('',$,#599);
#595=PRODUCT_RELATED_PRODUCT_CATEGORY('Rapids v1','Rapids v1',(#599));
#596=APPLICATION_PROTOCOL_DEFINITION('international standard',
'automotive_design',2009,#597);
#597=APPLICATION_CONTEXT(
'Core Data for Automotive Mechanical Design Process');
#598=PRODUCT_CONTEXT('part definition',#597,'mechanical');
#599=PRODUCT('Rapids','Rapids v1',$,(#598));
#600=PRESENTATION_STYLE_ASSIGNMENT((#602));
#601=PRESENTATION_STYLE_ASSIGNMENT((#603));
#602=SURFACE_STYLE_USAGE(.BOTH.,#604);
#603=SURFACE_STYLE_USAGE(.BOTH.,#605);
#604=SURFACE_SIDE_STYLE('',(#606));
#605=SURFACE_SIDE_STYLE('',(#607));
#606=SURFACE_STYLE_FILL_AREA(#608);
#607=SURFACE_STYLE_FILL_AREA(#609);
#608=FILL_AREA_STYLE('Steel - Satin',(#610));
#609=FILL_AREA_STYLE('Aluminum - Bead Blasted',(#611));
#610=FILL_AREA_STYLE_COLOUR('Steel - Satin',#612);
#611=FILL_AREA_STYLE_COLOUR('Aluminum - Bead Blasted',#613);
#612=COLOUR_RGB('Steel - Satin',0.627450980392157,0.627450980392157,0.627450980392157);
#613=COLOUR_RGB('Aluminum - Bead Blasted',0.96078431372549,0.96078431372549,
0.964705882352941);
ENDSEC;
END-ISO-10303-21;
