ISO-10303-21;
HEADER;
/* Generated by software containing ST-Developer
 * from STEP Tools, Inc. (www.steptools.com) 
 */

FILE_DESCRIPTION(
/* description */ (''),
/* implementation_level */ '2;1');

FILE_NAME(
/* name */ '/Volumes/JOAKIM/Sample parts/Approach and retract.step',
/* time_stamp */ '2019-05-10T10:49:47+02:00',
/* author */ ('joakim.j.b.johansson@gmail.com'),
/* organization */ (''),
/* preprocessor_version */ 'ST-DEVELOPER v18',
/* originating_system */ 'Autodesk Translation Framework v8.2.0.1029',
/* authorisation */ '');

FILE_SCHEMA (('AUTOMOTIVE_DESIGN { 1 0 10303 214 3 1 1 }'));
ENDSEC;

DATA;
#10=MECHANICAL_DESIGN_GEOMETRIC_PRESENTATION_REPRESENTATION('',(#13),#705);
#11=SHAPE_REPRESENTATION_RELATIONSHIP('SRR','None',#712,#12);
#12=ADVANCED_BREP_SHAPE_REPRESENTATION('',(#14),#704);
#13=STYLED_ITEM('',(#722),#14);
#14=MANIFOLD_SOLID_BREP('Body1',#417);
#15=FACE_BOUND('',#65,.T.);
#16=FACE_BOUND('',#66,.T.);
#17=FACE_BOUND('',#71,.T.);
#18=FACE_BOUND('',#72,.T.);
#19=ELLIPSE('',#439,15.5291427061512,15.);
#20=ELLIPSE('',#440,15.5291427061512,15.);
#21=ELLIPSE('',#441,15.5291427061512,15.);
#22=ELLIPSE('',#442,15.5291427061512,15.);
#23=ELLIPSE('',#451,15.5291427061512,15.);
#24=ELLIPSE('',#452,15.5291427061512,15.);
#25=ELLIPSE('',#453,15.5291427061512,15.);
#26=ELLIPSE('',#454,15.5291427061512,15.);
#27=PLANE('',#434);
#28=PLANE('',#438);
#29=PLANE('',#446);
#30=PLANE('',#450);
#31=PLANE('',#457);
#32=PLANE('',#458);
#33=PLANE('',#459);
#34=PLANE('',#460);
#35=PLANE('',#461);
#36=PLANE('',#462);
#37=PLANE('',#463);
#38=PLANE('',#464);
#39=PLANE('',#465);
#40=PLANE('',#466);
#41=FACE_OUTER_BOUND('',#61,.T.);
#42=FACE_OUTER_BOUND('',#62,.T.);
#43=FACE_OUTER_BOUND('',#63,.T.);
#44=FACE_OUTER_BOUND('',#64,.T.);
#45=FACE_OUTER_BOUND('',#67,.T.);
#46=FACE_OUTER_BOUND('',#68,.T.);
#47=FACE_OUTER_BOUND('',#69,.T.);
#48=FACE_OUTER_BOUND('',#70,.T.);
#49=FACE_OUTER_BOUND('',#73,.T.);
#50=FACE_OUTER_BOUND('',#74,.T.);
#51=FACE_OUTER_BOUND('',#75,.T.);
#52=FACE_OUTER_BOUND('',#76,.T.);
#53=FACE_OUTER_BOUND('',#77,.T.);
#54=FACE_OUTER_BOUND('',#78,.T.);
#55=FACE_OUTER_BOUND('',#79,.T.);
#56=FACE_OUTER_BOUND('',#80,.T.);
#57=FACE_OUTER_BOUND('',#81,.T.);
#58=FACE_OUTER_BOUND('',#82,.T.);
#59=FACE_OUTER_BOUND('',#83,.T.);
#60=FACE_OUTER_BOUND('',#84,.T.);
#61=EDGE_LOOP('',(#275,#276,#277,#278));
#62=EDGE_LOOP('',(#279,#280,#281,#282));
#63=EDGE_LOOP('',(#283,#284,#285,#286));
#64=EDGE_LOOP('',(#287,#288,#289,#290));
#65=EDGE_LOOP('',(#291,#292));
#66=EDGE_LOOP('',(#293,#294));
#67=EDGE_LOOP('',(#295,#296,#297,#298));
#68=EDGE_LOOP('',(#299,#300,#301,#302));
#69=EDGE_LOOP('',(#303,#304,#305,#306));
#70=EDGE_LOOP('',(#307,#308,#309,#310));
#71=EDGE_LOOP('',(#311,#312));
#72=EDGE_LOOP('',(#313,#314));
#73=EDGE_LOOP('',(#315,#316,#317,#318,#319,#320));
#74=EDGE_LOOP('',(#321,#322,#323,#324,#325,#326));
#75=EDGE_LOOP('',(#327,#328,#329,#330));
#76=EDGE_LOOP('',(#331,#332,#333,#334));
#77=EDGE_LOOP('',(#335,#336,#337,#338));
#78=EDGE_LOOP('',(#339,#340,#341,#342));
#79=EDGE_LOOP('',(#343,#344,#345,#346));
#80=EDGE_LOOP('',(#347,#348,#349,#350));
#81=EDGE_LOOP('',(#351,#352,#353,#354));
#82=EDGE_LOOP('',(#355,#356,#357,#358));
#83=EDGE_LOOP('',(#359,#360,#361,#362,#363,#364,#365,#366,#367,#368,#369,
#370,#371,#372,#373,#374));
#84=EDGE_LOOP('',(#375,#376,#377,#378,#379,#380,#381,#382,#383,#384,#385,
#386,#387,#388,#389,#390));
#85=LINE('',#589,#127);
#86=LINE('',#592,#128);
#87=LINE('',#595,#129);
#88=LINE('',#597,#130);
#89=LINE('',#598,#131);
#90=LINE('',#604,#132);
#91=LINE('',#607,#133);
#92=LINE('',#609,#134);
#93=LINE('',#610,#135);
#94=LINE('',#624,#136);
#95=LINE('',#627,#137);
#96=LINE('',#630,#138);
#97=LINE('',#632,#139);
#98=LINE('',#633,#140);
#99=LINE('',#639,#141);
#100=LINE('',#642,#142);
#101=LINE('',#644,#143);
#102=LINE('',#645,#144);
#103=LINE('',#655,#145);
#104=LINE('',#657,#146);
#105=LINE('',#660,#147);
#106=LINE('',#662,#148);
#107=LINE('',#663,#149);
#108=LINE('',#666,#150);
#109=LINE('',#668,#151);
#110=LINE('',#669,#152);
#111=LINE('',#672,#153);
#112=LINE('',#674,#154);
#113=LINE('',#675,#155);
#114=LINE('',#678,#156);
#115=LINE('',#680,#157);
#116=LINE('',#681,#158);
#117=LINE('',#683,#159);
#118=LINE('',#684,#160);
#119=LINE('',#687,#161);
#120=LINE('',#689,#162);
#121=LINE('',#690,#163);
#122=LINE('',#693,#164);
#123=LINE('',#695,#165);
#124=LINE('',#696,#166);
#125=LINE('',#698,#167);
#126=LINE('',#699,#168);
#127=VECTOR('',#473,200.);
#128=VECTOR('',#476,200.);
#129=VECTOR('',#479,60.);
#130=VECTOR('',#480,200.);
#131=VECTOR('',#481,60.);
#132=VECTOR('',#486,200.);
#133=VECTOR('',#489,200.);
#134=VECTOR('',#492,120.);
#135=VECTOR('',#493,120.);
#136=VECTOR('',#506,200.);
#137=VECTOR('',#509,200.);
#138=VECTOR('',#512,30.);
#139=VECTOR('',#513,200.);
#140=VECTOR('',#514,30.);
#141=VECTOR('',#519,200.);
#142=VECTOR('',#522,200.);
#143=VECTOR('',#525,120.);
#144=VECTOR('',#526,120.);
#145=VECTOR('',#537,15.);
#146=VECTOR('',#540,15.);
#147=VECTOR('',#543,30.);
#148=VECTOR('',#544,200.);
#149=VECTOR('',#545,30.);
#150=VECTOR('',#548,30.);
#151=VECTOR('',#549,200.);
#152=VECTOR('',#550,30.);
#153=VECTOR('',#553,30.);
#154=VECTOR('',#554,30.);
#155=VECTOR('',#555,200.);
#156=VECTOR('',#558,140.);
#157=VECTOR('',#559,140.);
#158=VECTOR('',#560,200.);
#159=VECTOR('',#563,30.);
#160=VECTOR('',#564,30.);
#161=VECTOR('',#567,60.);
#162=VECTOR('',#568,200.);
#163=VECTOR('',#569,60.);
#164=VECTOR('',#572,30.);
#165=VECTOR('',#573,30.);
#166=VECTOR('',#574,200.);
#167=VECTOR('',#577,200.);
#168=VECTOR('',#578,200.);
#169=CIRCLE('',#432,10.);
#170=CIRCLE('',#433,10.);
#171=CIRCLE('',#436,10.);
#172=CIRCLE('',#437,10.);
#173=CIRCLE('',#444,10.);
#174=CIRCLE('',#445,10.);
#175=CIRCLE('',#448,10.);
#176=CIRCLE('',#449,10.);
#177=VERTEX_POINT('',#585);
#178=VERTEX_POINT('',#586);
#179=VERTEX_POINT('',#588);
#180=VERTEX_POINT('',#590);
#181=VERTEX_POINT('',#594);
#182=VERTEX_POINT('',#596);
#183=VERTEX_POINT('',#600);
#184=VERTEX_POINT('',#601);
#185=VERTEX_POINT('',#603);
#186=VERTEX_POINT('',#605);
#187=VERTEX_POINT('',#611);
#188=VERTEX_POINT('',#612);
#189=VERTEX_POINT('',#615);
#190=VERTEX_POINT('',#616);
#191=VERTEX_POINT('',#620);
#192=VERTEX_POINT('',#621);
#193=VERTEX_POINT('',#623);
#194=VERTEX_POINT('',#625);
#195=VERTEX_POINT('',#629);
#196=VERTEX_POINT('',#631);
#197=VERTEX_POINT('',#635);
#198=VERTEX_POINT('',#636);
#199=VERTEX_POINT('',#638);
#200=VERTEX_POINT('',#640);
#201=VERTEX_POINT('',#646);
#202=VERTEX_POINT('',#647);
#203=VERTEX_POINT('',#650);
#204=VERTEX_POINT('',#651);
#205=VERTEX_POINT('',#659);
#206=VERTEX_POINT('',#661);
#207=VERTEX_POINT('',#665);
#208=VERTEX_POINT('',#667);
#209=VERTEX_POINT('',#671);
#210=VERTEX_POINT('',#673);
#211=VERTEX_POINT('',#677);
#212=VERTEX_POINT('',#679);
#213=VERTEX_POINT('',#686);
#214=VERTEX_POINT('',#688);
#215=VERTEX_POINT('',#692);
#216=VERTEX_POINT('',#694);
#217=EDGE_CURVE('',#177,#178,#169,.T.);
#218=EDGE_CURVE('',#178,#179,#85,.T.);
#219=EDGE_CURVE('',#179,#180,#170,.T.);
#220=EDGE_CURVE('',#180,#177,#86,.T.);
#221=EDGE_CURVE('',#178,#181,#87,.T.);
#222=EDGE_CURVE('',#181,#182,#88,.T.);
#223=EDGE_CURVE('',#179,#182,#89,.T.);
#224=EDGE_CURVE('',#183,#184,#171,.T.);
#225=EDGE_CURVE('',#184,#185,#90,.T.);
#226=EDGE_CURVE('',#185,#186,#172,.T.);
#227=EDGE_CURVE('',#186,#183,#91,.T.);
#228=EDGE_CURVE('',#185,#180,#92,.T.);
#229=EDGE_CURVE('',#184,#177,#93,.T.);
#230=EDGE_CURVE('',#187,#188,#19,.T.);
#231=EDGE_CURVE('',#188,#187,#20,.T.);
#232=EDGE_CURVE('',#189,#190,#21,.T.);
#233=EDGE_CURVE('',#190,#189,#22,.T.);
#234=EDGE_CURVE('',#191,#192,#173,.T.);
#235=EDGE_CURVE('',#192,#193,#94,.T.);
#236=EDGE_CURVE('',#193,#194,#174,.T.);
#237=EDGE_CURVE('',#194,#191,#95,.T.);
#238=EDGE_CURVE('',#192,#195,#96,.T.);
#239=EDGE_CURVE('',#195,#196,#97,.T.);
#240=EDGE_CURVE('',#193,#196,#98,.T.);
#241=EDGE_CURVE('',#197,#198,#175,.T.);
#242=EDGE_CURVE('',#198,#199,#99,.T.);
#243=EDGE_CURVE('',#199,#200,#176,.T.);
#244=EDGE_CURVE('',#200,#197,#100,.T.);
#245=EDGE_CURVE('',#199,#194,#101,.T.);
#246=EDGE_CURVE('',#198,#191,#102,.T.);
#247=EDGE_CURVE('',#201,#202,#23,.T.);
#248=EDGE_CURVE('',#202,#201,#24,.T.);
#249=EDGE_CURVE('',#203,#204,#25,.T.);
#250=EDGE_CURVE('',#204,#203,#26,.T.);
#251=EDGE_CURVE('',#190,#204,#103,.T.);
#252=EDGE_CURVE('',#202,#188,#104,.T.);
#253=EDGE_CURVE('',#181,#205,#105,.T.);
#254=EDGE_CURVE('',#205,#206,#106,.T.);
#255=EDGE_CURVE('',#182,#206,#107,.T.);
#256=EDGE_CURVE('',#207,#186,#108,.T.);
#257=EDGE_CURVE('',#208,#207,#109,.T.);
#258=EDGE_CURVE('',#208,#183,#110,.T.);
#259=EDGE_CURVE('',#209,#208,#111,.T.);
#260=EDGE_CURVE('',#210,#207,#112,.T.);
#261=EDGE_CURVE('',#209,#210,#113,.T.);
#262=EDGE_CURVE('',#211,#209,#114,.T.);
#263=EDGE_CURVE('',#212,#210,#115,.T.);
#264=EDGE_CURVE('',#211,#212,#116,.T.);
#265=EDGE_CURVE('',#195,#211,#117,.T.);
#266=EDGE_CURVE('',#196,#212,#118,.T.);
#267=EDGE_CURVE('',#213,#200,#119,.T.);
#268=EDGE_CURVE('',#214,#213,#120,.T.);
#269=EDGE_CURVE('',#214,#197,#121,.T.);
#270=EDGE_CURVE('',#215,#214,#122,.T.);
#271=EDGE_CURVE('',#216,#213,#123,.T.);
#272=EDGE_CURVE('',#215,#216,#124,.T.);
#273=EDGE_CURVE('',#205,#215,#125,.T.);
#274=EDGE_CURVE('',#206,#216,#126,.T.);
#275=ORIENTED_EDGE('',*,*,#217,.T.);
#276=ORIENTED_EDGE('',*,*,#218,.T.);
#277=ORIENTED_EDGE('',*,*,#219,.T.);
#278=ORIENTED_EDGE('',*,*,#220,.T.);
#279=ORIENTED_EDGE('',*,*,#218,.F.);
#280=ORIENTED_EDGE('',*,*,#221,.T.);
#281=ORIENTED_EDGE('',*,*,#222,.T.);
#282=ORIENTED_EDGE('',*,*,#223,.F.);
#283=ORIENTED_EDGE('',*,*,#224,.T.);
#284=ORIENTED_EDGE('',*,*,#225,.T.);
#285=ORIENTED_EDGE('',*,*,#226,.T.);
#286=ORIENTED_EDGE('',*,*,#227,.T.);
#287=ORIENTED_EDGE('',*,*,#220,.F.);
#288=ORIENTED_EDGE('',*,*,#228,.F.);
#289=ORIENTED_EDGE('',*,*,#225,.F.);
#290=ORIENTED_EDGE('',*,*,#229,.T.);
#291=ORIENTED_EDGE('',*,*,#230,.T.);
#292=ORIENTED_EDGE('',*,*,#231,.T.);
#293=ORIENTED_EDGE('',*,*,#232,.T.);
#294=ORIENTED_EDGE('',*,*,#233,.T.);
#295=ORIENTED_EDGE('',*,*,#234,.T.);
#296=ORIENTED_EDGE('',*,*,#235,.T.);
#297=ORIENTED_EDGE('',*,*,#236,.T.);
#298=ORIENTED_EDGE('',*,*,#237,.T.);
#299=ORIENTED_EDGE('',*,*,#235,.F.);
#300=ORIENTED_EDGE('',*,*,#238,.T.);
#301=ORIENTED_EDGE('',*,*,#239,.T.);
#302=ORIENTED_EDGE('',*,*,#240,.F.);
#303=ORIENTED_EDGE('',*,*,#241,.T.);
#304=ORIENTED_EDGE('',*,*,#242,.T.);
#305=ORIENTED_EDGE('',*,*,#243,.T.);
#306=ORIENTED_EDGE('',*,*,#244,.T.);
#307=ORIENTED_EDGE('',*,*,#237,.F.);
#308=ORIENTED_EDGE('',*,*,#245,.F.);
#309=ORIENTED_EDGE('',*,*,#242,.F.);
#310=ORIENTED_EDGE('',*,*,#246,.T.);
#311=ORIENTED_EDGE('',*,*,#247,.T.);
#312=ORIENTED_EDGE('',*,*,#248,.T.);
#313=ORIENTED_EDGE('',*,*,#249,.T.);
#314=ORIENTED_EDGE('',*,*,#250,.T.);
#315=ORIENTED_EDGE('',*,*,#232,.F.);
#316=ORIENTED_EDGE('',*,*,#233,.F.);
#317=ORIENTED_EDGE('',*,*,#251,.T.);
#318=ORIENTED_EDGE('',*,*,#249,.F.);
#319=ORIENTED_EDGE('',*,*,#250,.F.);
#320=ORIENTED_EDGE('',*,*,#251,.F.);
#321=ORIENTED_EDGE('',*,*,#247,.F.);
#322=ORIENTED_EDGE('',*,*,#248,.F.);
#323=ORIENTED_EDGE('',*,*,#252,.T.);
#324=ORIENTED_EDGE('',*,*,#230,.F.);
#325=ORIENTED_EDGE('',*,*,#231,.F.);
#326=ORIENTED_EDGE('',*,*,#252,.F.);
#327=ORIENTED_EDGE('',*,*,#253,.T.);
#328=ORIENTED_EDGE('',*,*,#254,.T.);
#329=ORIENTED_EDGE('',*,*,#255,.F.);
#330=ORIENTED_EDGE('',*,*,#222,.F.);
#331=ORIENTED_EDGE('',*,*,#227,.F.);
#332=ORIENTED_EDGE('',*,*,#256,.F.);
#333=ORIENTED_EDGE('',*,*,#257,.F.);
#334=ORIENTED_EDGE('',*,*,#258,.T.);
#335=ORIENTED_EDGE('',*,*,#259,.T.);
#336=ORIENTED_EDGE('',*,*,#257,.T.);
#337=ORIENTED_EDGE('',*,*,#260,.F.);
#338=ORIENTED_EDGE('',*,*,#261,.F.);
#339=ORIENTED_EDGE('',*,*,#262,.T.);
#340=ORIENTED_EDGE('',*,*,#261,.T.);
#341=ORIENTED_EDGE('',*,*,#263,.F.);
#342=ORIENTED_EDGE('',*,*,#264,.F.);
#343=ORIENTED_EDGE('',*,*,#265,.T.);
#344=ORIENTED_EDGE('',*,*,#264,.T.);
#345=ORIENTED_EDGE('',*,*,#266,.F.);
#346=ORIENTED_EDGE('',*,*,#239,.F.);
#347=ORIENTED_EDGE('',*,*,#244,.F.);
#348=ORIENTED_EDGE('',*,*,#267,.F.);
#349=ORIENTED_EDGE('',*,*,#268,.F.);
#350=ORIENTED_EDGE('',*,*,#269,.T.);
#351=ORIENTED_EDGE('',*,*,#270,.T.);
#352=ORIENTED_EDGE('',*,*,#268,.T.);
#353=ORIENTED_EDGE('',*,*,#271,.F.);
#354=ORIENTED_EDGE('',*,*,#272,.F.);
#355=ORIENTED_EDGE('',*,*,#273,.T.);
#356=ORIENTED_EDGE('',*,*,#272,.T.);
#357=ORIENTED_EDGE('',*,*,#274,.F.);
#358=ORIENTED_EDGE('',*,*,#254,.F.);
#359=ORIENTED_EDGE('',*,*,#274,.T.);
#360=ORIENTED_EDGE('',*,*,#271,.T.);
#361=ORIENTED_EDGE('',*,*,#267,.T.);
#362=ORIENTED_EDGE('',*,*,#243,.F.);
#363=ORIENTED_EDGE('',*,*,#245,.T.);
#364=ORIENTED_EDGE('',*,*,#236,.F.);
#365=ORIENTED_EDGE('',*,*,#240,.T.);
#366=ORIENTED_EDGE('',*,*,#266,.T.);
#367=ORIENTED_EDGE('',*,*,#263,.T.);
#368=ORIENTED_EDGE('',*,*,#260,.T.);
#369=ORIENTED_EDGE('',*,*,#256,.T.);
#370=ORIENTED_EDGE('',*,*,#226,.F.);
#371=ORIENTED_EDGE('',*,*,#228,.T.);
#372=ORIENTED_EDGE('',*,*,#219,.F.);
#373=ORIENTED_EDGE('',*,*,#223,.T.);
#374=ORIENTED_EDGE('',*,*,#255,.T.);
#375=ORIENTED_EDGE('',*,*,#273,.F.);
#376=ORIENTED_EDGE('',*,*,#253,.F.);
#377=ORIENTED_EDGE('',*,*,#221,.F.);
#378=ORIENTED_EDGE('',*,*,#217,.F.);
#379=ORIENTED_EDGE('',*,*,#229,.F.);
#380=ORIENTED_EDGE('',*,*,#224,.F.);
#381=ORIENTED_EDGE('',*,*,#258,.F.);
#382=ORIENTED_EDGE('',*,*,#259,.F.);
#383=ORIENTED_EDGE('',*,*,#262,.F.);
#384=ORIENTED_EDGE('',*,*,#265,.F.);
#385=ORIENTED_EDGE('',*,*,#238,.F.);
#386=ORIENTED_EDGE('',*,*,#234,.F.);
#387=ORIENTED_EDGE('',*,*,#246,.F.);
#388=ORIENTED_EDGE('',*,*,#241,.F.);
#389=ORIENTED_EDGE('',*,*,#269,.F.);
#390=ORIENTED_EDGE('',*,*,#270,.F.);
#391=CYLINDRICAL_SURFACE('',#431,10.);
#392=CYLINDRICAL_SURFACE('',#435,10.);
#393=CYLINDRICAL_SURFACE('',#443,10.);
#394=CYLINDRICAL_SURFACE('',#447,10.);
#395=CYLINDRICAL_SURFACE('',#455,15.);
#396=CYLINDRICAL_SURFACE('',#456,15.);
#397=ADVANCED_FACE('',(#41),#391,.F.);
#398=ADVANCED_FACE('',(#42),#27,.T.);
#399=ADVANCED_FACE('',(#43),#392,.F.);
#400=ADVANCED_FACE('',(#44,#15,#16),#28,.T.);
#401=ADVANCED_FACE('',(#45),#393,.F.);
#402=ADVANCED_FACE('',(#46),#29,.T.);
#403=ADVANCED_FACE('',(#47),#394,.F.);
#404=ADVANCED_FACE('',(#48,#17,#18),#30,.T.);
#405=ADVANCED_FACE('',(#49),#395,.F.);
#406=ADVANCED_FACE('',(#50),#396,.F.);
#407=ADVANCED_FACE('',(#51),#31,.T.);
#408=ADVANCED_FACE('',(#52),#32,.T.);
#409=ADVANCED_FACE('',(#53),#33,.T.);
#410=ADVANCED_FACE('',(#54),#34,.T.);
#411=ADVANCED_FACE('',(#55),#35,.T.);
#412=ADVANCED_FACE('',(#56),#36,.T.);
#413=ADVANCED_FACE('',(#57),#37,.T.);
#414=ADVANCED_FACE('',(#58),#38,.T.);
#415=ADVANCED_FACE('',(#59),#39,.T.);
#416=ADVANCED_FACE('',(#60),#40,.F.);
#417=CLOSED_SHELL('',(#397,#398,#399,#400,#401,#402,#403,#404,#405,#406,
#407,#408,#409,#410,#411,#412,#413,#414,#415,#416));
#418=DERIVED_UNIT_ELEMENT(#420,1.);
#419=DERIVED_UNIT_ELEMENT(#707,3.);
#420=(
MASS_UNIT()
NAMED_UNIT(*)
SI_UNIT(.KILO.,.GRAM.)
);
#421=DERIVED_UNIT((#418,#419));
#422=MEASURE_REPRESENTATION_ITEM('density measure',
POSITIVE_RATIO_MEASURE(7850.),#421);
#423=PROPERTY_DEFINITION_REPRESENTATION(#428,#425);
#424=PROPERTY_DEFINITION_REPRESENTATION(#429,#426);
#425=REPRESENTATION('material name',(#427),#704);
#426=REPRESENTATION('density',(#422),#704);
#427=DESCRIPTIVE_REPRESENTATION_ITEM('Steel','Steel');
#428=PROPERTY_DEFINITION('material property','material name',#714);
#429=PROPERTY_DEFINITION('material property','density of part',#714);
#430=AXIS2_PLACEMENT_3D('placement',#583,#467,#468);
#431=AXIS2_PLACEMENT_3D('',#584,#469,#470);
#432=AXIS2_PLACEMENT_3D('',#587,#471,#472);
#433=AXIS2_PLACEMENT_3D('',#591,#474,#475);
#434=AXIS2_PLACEMENT_3D('',#593,#477,#478);
#435=AXIS2_PLACEMENT_3D('',#599,#482,#483);
#436=AXIS2_PLACEMENT_3D('',#602,#484,#485);
#437=AXIS2_PLACEMENT_3D('',#606,#487,#488);
#438=AXIS2_PLACEMENT_3D('',#608,#490,#491);
#439=AXIS2_PLACEMENT_3D('',#613,#494,#495);
#440=AXIS2_PLACEMENT_3D('',#614,#496,#497);
#441=AXIS2_PLACEMENT_3D('',#617,#498,#499);
#442=AXIS2_PLACEMENT_3D('',#618,#500,#501);
#443=AXIS2_PLACEMENT_3D('',#619,#502,#503);
#444=AXIS2_PLACEMENT_3D('',#622,#504,#505);
#445=AXIS2_PLACEMENT_3D('',#626,#507,#508);
#446=AXIS2_PLACEMENT_3D('',#628,#510,#511);
#447=AXIS2_PLACEMENT_3D('',#634,#515,#516);
#448=AXIS2_PLACEMENT_3D('',#637,#517,#518);
#449=AXIS2_PLACEMENT_3D('',#641,#520,#521);
#450=AXIS2_PLACEMENT_3D('',#643,#523,#524);
#451=AXIS2_PLACEMENT_3D('',#648,#527,#528);
#452=AXIS2_PLACEMENT_3D('',#649,#529,#530);
#453=AXIS2_PLACEMENT_3D('',#652,#531,#532);
#454=AXIS2_PLACEMENT_3D('',#653,#533,#534);
#455=AXIS2_PLACEMENT_3D('',#654,#535,#536);
#456=AXIS2_PLACEMENT_3D('',#656,#538,#539);
#457=AXIS2_PLACEMENT_3D('',#658,#541,#542);
#458=AXIS2_PLACEMENT_3D('',#664,#546,#547);
#459=AXIS2_PLACEMENT_3D('',#670,#551,#552);
#460=AXIS2_PLACEMENT_3D('',#676,#556,#557);
#461=AXIS2_PLACEMENT_3D('',#682,#561,#562);
#462=AXIS2_PLACEMENT_3D('',#685,#565,#566);
#463=AXIS2_PLACEMENT_3D('',#691,#570,#571);
#464=AXIS2_PLACEMENT_3D('',#697,#575,#576);
#465=AXIS2_PLACEMENT_3D('',#700,#579,#580);
#466=AXIS2_PLACEMENT_3D('',#701,#581,#582);
#467=DIRECTION('axis',(0.,0.,1.));
#468=DIRECTION('refdir',(1.,0.,0.));
#469=DIRECTION('center_axis',(0.,-1.,2.22044604925031E-16));
#470=DIRECTION('ref_axis',(0.707106781186548,-1.57009245868378E-16,-0.707106781186548));
#471=DIRECTION('center_axis',(0.,1.,-2.22044604925031E-16));
#472=DIRECTION('ref_axis',(0.707106781186548,-1.57009245868378E-16,-0.707106781186548));
#473=DIRECTION('',(0.,-1.,2.22044604925031E-16));
#474=DIRECTION('center_axis',(0.,-1.,2.22044604925031E-16));
#475=DIRECTION('ref_axis',(0.707106781186548,-1.57009245868378E-16,-0.707106781186548));
#476=DIRECTION('',(0.,1.,-2.22044604925031E-16));
#477=DIRECTION('center_axis',(0.,2.22044604925031E-16,1.));
#478=DIRECTION('ref_axis',(-1.,0.,0.));
#479=DIRECTION('',(-1.,0.,0.));
#480=DIRECTION('',(0.,-1.,2.22044604925031E-16));
#481=DIRECTION('',(-1.,0.,0.));
#482=DIRECTION('center_axis',(0.,-1.,2.22044604925031E-16));
#483=DIRECTION('ref_axis',(0.707106781186548,1.57009245868378E-16,0.707106781186548));
#484=DIRECTION('center_axis',(0.,1.,-2.22044604925031E-16));
#485=DIRECTION('ref_axis',(0.707106781186548,1.57009245868378E-16,0.707106781186548));
#486=DIRECTION('',(0.,-1.,2.22044604925031E-16));
#487=DIRECTION('center_axis',(0.,-1.,2.22044604925031E-16));
#488=DIRECTION('ref_axis',(0.707106781186548,1.57009245868378E-16,0.707106781186548));
#489=DIRECTION('',(0.,1.,-2.22044604925031E-16));
#490=DIRECTION('center_axis',(-1.,0.,0.));
#491=DIRECTION('ref_axis',(0.,-2.22044604925031E-16,-1.));
#492=DIRECTION('',(0.,-2.22044604925031E-16,-1.));
#493=DIRECTION('',(0.,-2.22044604925031E-16,-1.));
#494=DIRECTION('center_axis',(1.,0.,0.));
#495=DIRECTION('ref_axis',(0.,-2.22044604925031E-16,-1.));
#496=DIRECTION('center_axis',(1.,0.,0.));
#497=DIRECTION('ref_axis',(0.,-2.22044604925031E-16,-1.));
#498=DIRECTION('center_axis',(1.,0.,0.));
#499=DIRECTION('ref_axis',(0.,-2.22044604925031E-16,-1.));
#500=DIRECTION('center_axis',(1.,0.,0.));
#501=DIRECTION('ref_axis',(0.,-2.22044604925031E-16,-1.));
#502=DIRECTION('center_axis',(0.,-1.,2.22044604925031E-16));
#503=DIRECTION('ref_axis',(-0.707106781186548,1.57009245868378E-16,0.707106781186548));
#504=DIRECTION('center_axis',(0.,1.,-2.22044604925031E-16));
#505=DIRECTION('ref_axis',(-0.707106781186548,1.57009245868378E-16,0.707106781186548));
#506=DIRECTION('',(0.,-1.,2.22044604925031E-16));
#507=DIRECTION('center_axis',(0.,-1.,2.22044604925031E-16));
#508=DIRECTION('ref_axis',(-0.707106781186548,1.57009245868378E-16,0.707106781186548));
#509=DIRECTION('',(0.,1.,-2.22044604925031E-16));
#510=DIRECTION('center_axis',(0.,-2.22044604925031E-16,-1.));
#511=DIRECTION('ref_axis',(1.,0.,0.));
#512=DIRECTION('',(1.,0.,0.));
#513=DIRECTION('',(0.,-1.,2.22044604925031E-16));
#514=DIRECTION('',(1.,0.,0.));
#515=DIRECTION('center_axis',(0.,-1.,2.22044604925031E-16));
#516=DIRECTION('ref_axis',(-0.707106781186548,-1.57009245868378E-16,-0.707106781186548));
#517=DIRECTION('center_axis',(0.,1.,-2.22044604925031E-16));
#518=DIRECTION('ref_axis',(-0.707106781186548,-1.57009245868378E-16,-0.707106781186548));
#519=DIRECTION('',(0.,-1.,2.22044604925031E-16));
#520=DIRECTION('center_axis',(0.,-1.,2.22044604925031E-16));
#521=DIRECTION('ref_axis',(-0.707106781186548,-1.57009245868378E-16,-0.707106781186548));
#522=DIRECTION('',(0.,1.,-2.22044604925031E-16));
#523=DIRECTION('center_axis',(1.,0.,0.));
#524=DIRECTION('ref_axis',(0.,2.22044604925031E-16,1.));
#525=DIRECTION('',(0.,2.22044604925031E-16,1.));
#526=DIRECTION('',(0.,2.22044604925031E-16,1.));
#527=DIRECTION('center_axis',(-1.,0.,0.));
#528=DIRECTION('ref_axis',(0.,-2.22044604925031E-16,-1.));
#529=DIRECTION('center_axis',(-1.,0.,0.));
#530=DIRECTION('ref_axis',(0.,-2.22044604925031E-16,-1.));
#531=DIRECTION('center_axis',(-1.,0.,0.));
#532=DIRECTION('ref_axis',(0.,-2.22044604925031E-16,-1.));
#533=DIRECTION('center_axis',(-1.,0.,0.));
#534=DIRECTION('ref_axis',(0.,-2.22044604925031E-16,-1.));
#535=DIRECTION('center_axis',(0.965925826289068,5.74693726168632E-17,0.258819045102521));
#536=DIRECTION('ref_axis',(0.,-1.,2.22044604925031E-16));
#537=DIRECTION('',(0.965925826289068,5.74693726168632E-17,0.258819045102521));
#538=DIRECTION('center_axis',(-0.965925826289068,5.74693726168632E-17,0.258819045102521));
#539=DIRECTION('ref_axis',(0.,1.,-2.22044604925031E-16));
#540=DIRECTION('',(-0.965925826289068,5.74693726168632E-17,0.258819045102521));
#541=DIRECTION('center_axis',(-1.,0.,0.));
#542=DIRECTION('ref_axis',(0.,-2.22044604925031E-16,-1.));
#543=DIRECTION('',(0.,-2.22044604925031E-16,-1.));
#544=DIRECTION('',(0.,-1.,2.22044604925031E-16));
#545=DIRECTION('',(0.,-2.22044604925031E-16,-1.));
#546=DIRECTION('center_axis',(0.,-2.22044604925031E-16,-1.));
#547=DIRECTION('ref_axis',(1.,0.,0.));
#548=DIRECTION('',(1.,0.,0.));
#549=DIRECTION('',(0.,-1.,2.22044604925031E-16));
#550=DIRECTION('',(1.,0.,0.));
#551=DIRECTION('center_axis',(-1.,0.,0.));
#552=DIRECTION('ref_axis',(0.,-2.22044604925031E-16,-1.));
#553=DIRECTION('',(0.,-2.22044604925031E-16,-1.));
#554=DIRECTION('',(0.,-2.22044604925031E-16,-1.));
#555=DIRECTION('',(0.,-1.,2.22044604925031E-16));
#556=DIRECTION('center_axis',(0.,2.22044604925031E-16,1.));
#557=DIRECTION('ref_axis',(-1.,0.,0.));
#558=DIRECTION('',(-1.,0.,0.));
#559=DIRECTION('',(-1.,0.,0.));
#560=DIRECTION('',(0.,-1.,2.22044604925031E-16));
#561=DIRECTION('center_axis',(1.,0.,0.));
#562=DIRECTION('ref_axis',(0.,2.22044604925031E-16,1.));
#563=DIRECTION('',(0.,2.22044604925031E-16,1.));
#564=DIRECTION('',(0.,2.22044604925031E-16,1.));
#565=DIRECTION('center_axis',(2.53765262771464E-16,2.22044604925031E-16,
1.));
#566=DIRECTION('ref_axis',(-1.,5.63472075157865E-32,2.53765262771464E-16));
#567=DIRECTION('',(-1.,5.63472075157865E-32,2.53765262771464E-16));
#568=DIRECTION('',(0.,-1.,2.22044604925031E-16));
#569=DIRECTION('',(-1.,5.63472075157865E-32,2.53765262771464E-16));
#570=DIRECTION('center_axis',(1.,0.,0.));
#571=DIRECTION('ref_axis',(0.,2.22044604925031E-16,1.));
#572=DIRECTION('',(0.,2.22044604925031E-16,1.));
#573=DIRECTION('',(0.,2.22044604925031E-16,1.));
#574=DIRECTION('',(0.,-1.,2.22044604925031E-16));
#575=DIRECTION('center_axis',(0.,-2.22044604925031E-16,-1.));
#576=DIRECTION('ref_axis',(1.,0.,0.));
#577=DIRECTION('',(1.,0.,0.));
#578=DIRECTION('',(1.,0.,0.));
#579=DIRECTION('center_axis',(0.,-1.,2.22044604925031E-16));
#580=DIRECTION('ref_axis',(1.,0.,0.));
#581=DIRECTION('center_axis',(0.,-1.,2.22044604925031E-16));
#582=DIRECTION('ref_axis',(1.,0.,0.));
#583=CARTESIAN_POINT('',(0.,0.,0.));
#584=CARTESIAN_POINT('Origin',(60.,379.308891296387,60.6911087036132));
#585=CARTESIAN_POINT('',(70.,379.308891296387,60.6911087036132));
#586=CARTESIAN_POINT('',(60.,379.308891296387,50.6911087036132));
#587=CARTESIAN_POINT('Origin',(60.,379.308891296387,60.6911087036132));
#588=CARTESIAN_POINT('',(60.,179.308891296387,50.6911087036133));
#589=CARTESIAN_POINT('',(60.,379.308891296387,50.6911087036132));
#590=CARTESIAN_POINT('',(70.,179.308891296387,60.6911087036133));
#591=CARTESIAN_POINT('Origin',(60.,179.308891296387,60.6911087036133));
#592=CARTESIAN_POINT('',(70.,379.308891296387,60.6911087036132));
#593=CARTESIAN_POINT('Origin',(70.,379.308891296387,50.6911087036132));
#594=CARTESIAN_POINT('',(0.,379.308891296387,50.6911087036132));
#595=CARTESIAN_POINT('',(70.,379.308891296387,50.6911087036132));
#596=CARTESIAN_POINT('',(0.,179.308891296387,50.6911087036133));
#597=CARTESIAN_POINT('',(0.,379.308891296387,50.6911087036132));
#598=CARTESIAN_POINT('',(70.,179.308891296387,50.6911087036133));
#599=CARTESIAN_POINT('Origin',(60.,379.308891296387,180.691108703613));
#600=CARTESIAN_POINT('',(60.,379.308891296387,190.691108703613));
#601=CARTESIAN_POINT('',(70.,379.308891296387,180.691108703613));
#602=CARTESIAN_POINT('Origin',(60.,379.308891296387,180.691108703613));
#603=CARTESIAN_POINT('',(70.,179.308891296387,180.691108703613));
#604=CARTESIAN_POINT('',(70.,379.308891296387,180.691108703613));
#605=CARTESIAN_POINT('',(60.,179.308891296387,190.691108703613));
#606=CARTESIAN_POINT('Origin',(60.,179.308891296387,180.691108703613));
#607=CARTESIAN_POINT('',(60.,379.308891296387,190.691108703613));
#608=CARTESIAN_POINT('Origin',(70.,379.308891296387,190.691108703613));
#609=CARTESIAN_POINT('',(70.,179.308891296387,190.691108703613));
#610=CARTESIAN_POINT('',(70.,379.308891296387,190.691108703613));
#611=CARTESIAN_POINT('',(70.,254.308891296387,136.220251409764));
#612=CARTESIAN_POINT('',(70.,239.308891296387,120.691108703614));
#613=CARTESIAN_POINT('Origin',(70.,254.308891296387,120.691108703613));
#614=CARTESIAN_POINT('Origin',(70.,254.308891296387,120.691108703613));
#615=CARTESIAN_POINT('',(70.,304.308891296387,120.143299863897));
#616=CARTESIAN_POINT('',(70.,319.308891296387,104.614157157746));
#617=CARTESIAN_POINT('Origin',(70.,304.308891296387,104.614157157746));
#618=CARTESIAN_POINT('Origin',(70.,304.308891296387,104.614157157746));
#619=CARTESIAN_POINT('Origin',(140.,379.308891296387,180.691108703613));
#620=CARTESIAN_POINT('',(130.,379.308891296387,180.691108703613));
#621=CARTESIAN_POINT('',(140.,379.308891296387,190.691108703613));
#622=CARTESIAN_POINT('Origin',(140.,379.308891296387,180.691108703613));
#623=CARTESIAN_POINT('',(140.,179.308891296387,190.691108703613));
#624=CARTESIAN_POINT('',(140.,379.308891296387,190.691108703613));
#625=CARTESIAN_POINT('',(130.,179.308891296387,180.691108703613));
#626=CARTESIAN_POINT('Origin',(140.,179.308891296387,180.691108703613));
#627=CARTESIAN_POINT('',(130.,379.308891296387,180.691108703613));
#628=CARTESIAN_POINT('Origin',(130.,379.308891296387,190.691108703613));
#629=CARTESIAN_POINT('',(170.,379.308891296387,190.691108703613));
#630=CARTESIAN_POINT('',(130.,379.308891296387,190.691108703613));
#631=CARTESIAN_POINT('',(170.,179.308891296387,190.691108703613));
#632=CARTESIAN_POINT('',(170.,379.308891296387,190.691108703613));
#633=CARTESIAN_POINT('',(130.,179.308891296387,190.691108703613));
#634=CARTESIAN_POINT('Origin',(140.,379.308891296387,60.6911087036132));
#635=CARTESIAN_POINT('',(140.,379.308891296387,50.6911087036132));
#636=CARTESIAN_POINT('',(130.,379.308891296387,60.6911087036132));
#637=CARTESIAN_POINT('Origin',(140.,379.308891296387,60.6911087036132));
#638=CARTESIAN_POINT('',(130.,179.308891296387,60.6911087036133));
#639=CARTESIAN_POINT('',(130.,379.308891296387,60.6911087036132));
#640=CARTESIAN_POINT('',(140.,179.308891296387,50.6911087036133));
#641=CARTESIAN_POINT('Origin',(140.,179.308891296387,60.6911087036133));
#642=CARTESIAN_POINT('',(140.,379.308891296387,50.6911087036132));
#643=CARTESIAN_POINT('Origin',(130.,379.308891296387,50.6911087036132));
#644=CARTESIAN_POINT('',(130.,179.308891296387,50.6911087036133));
#645=CARTESIAN_POINT('',(130.,379.308891296387,50.6911087036132));
#646=CARTESIAN_POINT('',(130.,254.308891296387,120.143299863897));
#647=CARTESIAN_POINT('',(130.,239.308891296387,104.614157157746));
#648=CARTESIAN_POINT('Origin',(130.,254.308891296387,104.614157157746));
#649=CARTESIAN_POINT('Origin',(130.,254.308891296387,104.614157157746));
#650=CARTESIAN_POINT('',(130.,304.308891296387,136.220251409764));
#651=CARTESIAN_POINT('',(130.,319.308891296387,120.691108703614));
#652=CARTESIAN_POINT('Origin',(130.,304.308891296387,120.691108703613));
#653=CARTESIAN_POINT('Origin',(130.,304.308891296387,120.691108703613));
#654=CARTESIAN_POINT('Origin',(-123.47284771609,304.308891296387,52.7732638548702));
#655=CARTESIAN_POINT('',(-123.47284771609,319.308891296387,52.7732638548702));
#656=CARTESIAN_POINT('Origin',(323.47284771609,254.308891296387,52.7732638548702));
#657=CARTESIAN_POINT('',(323.47284771609,239.308891296387,52.7732638548702));
#658=CARTESIAN_POINT('Origin',(0.,379.308891296387,50.6911087036132));
#659=CARTESIAN_POINT('',(0.,379.308891296387,20.6911087036132));
#660=CARTESIAN_POINT('',(0.,379.308891296387,50.6911087036132));
#661=CARTESIAN_POINT('',(0.,179.308891296387,20.6911087036133));
#662=CARTESIAN_POINT('',(0.,379.308891296387,20.6911087036132));
#663=CARTESIAN_POINT('',(0.,179.308891296387,50.6911087036133));
#664=CARTESIAN_POINT('Origin',(30.,379.308891296387,190.691108703613));
#665=CARTESIAN_POINT('',(30.,179.308891296387,190.691108703613));
#666=CARTESIAN_POINT('',(30.,179.308891296387,190.691108703613));
#667=CARTESIAN_POINT('',(30.,379.308891296387,190.691108703613));
#668=CARTESIAN_POINT('',(30.,379.308891296387,190.691108703613));
#669=CARTESIAN_POINT('',(30.,379.308891296387,190.691108703613));
#670=CARTESIAN_POINT('Origin',(30.,379.308891296387,220.691108703613));
#671=CARTESIAN_POINT('',(30.,379.308891296387,220.691108703613));
#672=CARTESIAN_POINT('',(30.,379.308891296387,220.691108703613));
#673=CARTESIAN_POINT('',(30.,179.308891296387,220.691108703613));
#674=CARTESIAN_POINT('',(30.,179.308891296387,220.691108703613));
#675=CARTESIAN_POINT('',(30.,379.308891296387,220.691108703613));
#676=CARTESIAN_POINT('Origin',(170.,379.308891296387,220.691108703613));
#677=CARTESIAN_POINT('',(170.,379.308891296387,220.691108703613));
#678=CARTESIAN_POINT('',(170.,379.308891296387,220.691108703613));
#679=CARTESIAN_POINT('',(170.,179.308891296387,220.691108703613));
#680=CARTESIAN_POINT('',(170.,179.308891296387,220.691108703613));
#681=CARTESIAN_POINT('',(170.,379.308891296387,220.691108703613));
#682=CARTESIAN_POINT('Origin',(170.,379.308891296387,190.691108703613));
#683=CARTESIAN_POINT('',(170.,379.308891296387,190.691108703613));
#684=CARTESIAN_POINT('',(170.,179.308891296387,190.691108703613));
#685=CARTESIAN_POINT('Origin',(200.,379.308891296387,50.6911087036132));
#686=CARTESIAN_POINT('',(200.,179.308891296387,50.6911087036133));
#687=CARTESIAN_POINT('',(200.,179.308891296387,50.6911087036133));
#688=CARTESIAN_POINT('',(200.,379.308891296387,50.6911087036132));
#689=CARTESIAN_POINT('',(200.,379.308891296387,50.6911087036132));
#690=CARTESIAN_POINT('',(200.,379.308891296387,50.6911087036132));
#691=CARTESIAN_POINT('Origin',(200.,379.308891296387,20.6911087036132));
#692=CARTESIAN_POINT('',(200.,379.308891296387,20.6911087036132));
#693=CARTESIAN_POINT('',(200.,379.308891296387,20.6911087036132));
#694=CARTESIAN_POINT('',(200.,179.308891296387,20.6911087036133));
#695=CARTESIAN_POINT('',(200.,179.308891296387,20.6911087036133));
#696=CARTESIAN_POINT('',(200.,379.308891296387,20.6911087036132));
#697=CARTESIAN_POINT('Origin',(0.,379.308891296387,20.6911087036132));
#698=CARTESIAN_POINT('',(0.,379.308891296387,20.6911087036132));
#699=CARTESIAN_POINT('',(0.,179.308891296387,20.6911087036133));
#700=CARTESIAN_POINT('Origin',(100.,179.308891296387,110.066108703613));
#701=CARTESIAN_POINT('Origin',(100.,379.308891296387,110.066108703613));
#702=UNCERTAINTY_MEASURE_WITH_UNIT(LENGTH_MEASURE(0.01),#706,
'DISTANCE_ACCURACY_VALUE',
'Maximum model space distance between geometric entities at asserted c
onnectivities');
#703=UNCERTAINTY_MEASURE_WITH_UNIT(LENGTH_MEASURE(0.01),#706,
'DISTANCE_ACCURACY_VALUE',
'Maximum model space distance between geometric entities at asserted c
onnectivities');
#704=(
GEOMETRIC_REPRESENTATION_CONTEXT(3)
GLOBAL_UNCERTAINTY_ASSIGNED_CONTEXT((#702))
GLOBAL_UNIT_ASSIGNED_CONTEXT((#706,#708,#709))
REPRESENTATION_CONTEXT('','3D')
);
#705=(
GEOMETRIC_REPRESENTATION_CONTEXT(3)
GLOBAL_UNCERTAINTY_ASSIGNED_CONTEXT((#703))
GLOBAL_UNIT_ASSIGNED_CONTEXT((#706,#708,#709))
REPRESENTATION_CONTEXT('','3D')
);
#706=(
LENGTH_UNIT()
NAMED_UNIT(*)
SI_UNIT(.MILLI.,.METRE.)
);
#707=(
LENGTH_UNIT()
NAMED_UNIT(*)
SI_UNIT($,.METRE.)
);
#708=(
NAMED_UNIT(*)
PLANE_ANGLE_UNIT()
SI_UNIT($,.RADIAN.)
);
#709=(
NAMED_UNIT(*)
SI_UNIT($,.STERADIAN.)
SOLID_ANGLE_UNIT()
);
#710=SHAPE_DEFINITION_REPRESENTATION(#711,#712);
#711=PRODUCT_DEFINITION_SHAPE('',$,#714);
#712=SHAPE_REPRESENTATION('',(#430),#704);
#713=PRODUCT_DEFINITION_CONTEXT('part definition',#718,'design');
#714=PRODUCT_DEFINITION('Approach and retract',
'Approach and retract v3',#715,#713);
#715=PRODUCT_DEFINITION_FORMATION('',$,#720);
#716=PRODUCT_RELATED_PRODUCT_CATEGORY('Approach and retract v3',
'Approach and retract v3',(#720));
#717=APPLICATION_PROTOCOL_DEFINITION('international standard',
'automotive_design',2009,#718);
#718=APPLICATION_CONTEXT(
'Core Data for Automotive Mechanical Design Process');
#719=PRODUCT_CONTEXT('part definition',#718,'mechanical');
#720=PRODUCT('Approach and retract','Approach and retract v3',$,(#719));
#721=PRESENTATION_STYLE_ASSIGNMENT((#723));
#722=PRESENTATION_STYLE_ASSIGNMENT((#724));
#723=SURFACE_STYLE_USAGE(.BOTH.,#725);
#724=SURFACE_STYLE_USAGE(.BOTH.,#726);
#725=SURFACE_SIDE_STYLE('',(#727));
#726=SURFACE_SIDE_STYLE('',(#728));
#727=SURFACE_STYLE_FILL_AREA(#729);
#728=SURFACE_STYLE_FILL_AREA(#730);
#729=FILL_AREA_STYLE('Steel - Satin',(#731));
#730=FILL_AREA_STYLE('Aluminum - Bead Blasted',(#732));
#731=FILL_AREA_STYLE_COLOUR('Steel - Satin',#733);
#732=FILL_AREA_STYLE_COLOUR('Aluminum - Bead Blasted',#734);
#733=COLOUR_RGB('Steel - Satin',0.627450980392157,0.627450980392157,0.627450980392157);
#734=COLOUR_RGB('Aluminum - Bead Blasted',0.96078431372549,0.96078431372549,
0.964705882352941);
ENDSEC;
END-ISO-10303-21;
