ISO-10303-21;
HEADER;
/* Generated by software containing ST-Developer
 * from STEP Tools, Inc. (www.steptools.com) 
 */

FILE_DESCRIPTION(
/* description */ (''),
/* implementation_level */ '2;1');

FILE_NAME(
/* name */ 
'/Users/joakimjohansson/Desktop/Sample parts/Toolpath 1.step',
/* time_stamp */ '2019-05-13T10:08:37+02:00',
/* author */ ('joakim.j.b.johansson@gmail.com'),
/* organization */ (''),
/* preprocessor_version */ 'ST-DEVELOPER v18',
/* originating_system */ 'Autodesk Translation Framework v8.2.0.1029',
/* authorisation */ '');

FILE_SCHEMA (('AUTOMOTIVE_DESIGN { 1 0 10303 214 3 1 1 }'));
ENDSEC;

DATA;
#10=MECHANICAL_DESIGN_GEOMETRIC_PRESENTATION_REPRESENTATION('',(#13),#1523);
#11=SHAPE_REPRESENTATION_RELATIONSHIP('SRR','None',#1530,#12);
#12=ADVANCED_BREP_SHAPE_REPRESENTATION('',(#14),#1522);
#13=STYLED_ITEM('',(#1540),#14);
#14=MANIFOLD_SOLID_BREP('Body1',#935);
#15=CYLINDRICAL_SURFACE('',#986,2.);
#16=CYLINDRICAL_SURFACE('',#988,2.);
#17=CYLINDRICAL_SURFACE('',#990,2.);
#18=CYLINDRICAL_SURFACE('',#991,2.);
#19=CYLINDRICAL_SURFACE('',#992,2.);
#20=CYLINDRICAL_SURFACE('',#993,2.);
#21=CYLINDRICAL_SURFACE('',#994,2.);
#22=CYLINDRICAL_SURFACE('',#995,2.);
#23=FACE_BOUND('',#102,.T.);
#24=FACE_BOUND('',#109,.T.);
#25=CIRCLE('',#964,2.);
#26=CIRCLE('',#965,2.);
#27=CIRCLE('',#966,2.);
#28=CIRCLE('',#967,2.);
#29=CIRCLE('',#968,2.);
#30=CIRCLE('',#969,2.);
#31=CIRCLE('',#970,2.);
#32=CIRCLE('',#971,2.);
#33=CIRCLE('',#978,2.);
#34=CIRCLE('',#979,2.);
#35=CIRCLE('',#980,2.);
#36=CIRCLE('',#981,2.);
#37=CIRCLE('',#982,2.);
#38=CIRCLE('',#983,2.);
#39=CIRCLE('',#984,2.);
#40=CIRCLE('',#985,2.);
#41=FACE_OUTER_BOUND('',#87,.T.);
#42=FACE_OUTER_BOUND('',#88,.T.);
#43=FACE_OUTER_BOUND('',#89,.T.);
#44=FACE_OUTER_BOUND('',#90,.T.);
#45=FACE_OUTER_BOUND('',#91,.T.);
#46=FACE_OUTER_BOUND('',#92,.T.);
#47=FACE_OUTER_BOUND('',#93,.T.);
#48=FACE_OUTER_BOUND('',#94,.T.);
#49=FACE_OUTER_BOUND('',#95,.T.);
#50=FACE_OUTER_BOUND('',#96,.T.);
#51=FACE_OUTER_BOUND('',#97,.T.);
#52=FACE_OUTER_BOUND('',#98,.T.);
#53=FACE_OUTER_BOUND('',#99,.T.);
#54=FACE_OUTER_BOUND('',#100,.T.);
#55=FACE_OUTER_BOUND('',#101,.T.);
#56=FACE_OUTER_BOUND('',#103,.T.);
#57=FACE_OUTER_BOUND('',#104,.T.);
#58=FACE_OUTER_BOUND('',#105,.T.);
#59=FACE_OUTER_BOUND('',#106,.T.);
#60=FACE_OUTER_BOUND('',#107,.T.);
#61=FACE_OUTER_BOUND('',#108,.T.);
#62=FACE_OUTER_BOUND('',#110,.T.);
#63=FACE_OUTER_BOUND('',#111,.T.);
#64=FACE_OUTER_BOUND('',#112,.T.);
#65=FACE_OUTER_BOUND('',#113,.T.);
#66=FACE_OUTER_BOUND('',#114,.T.);
#67=FACE_OUTER_BOUND('',#115,.T.);
#68=FACE_OUTER_BOUND('',#116,.T.);
#69=FACE_OUTER_BOUND('',#117,.T.);
#70=FACE_OUTER_BOUND('',#118,.T.);
#71=FACE_OUTER_BOUND('',#119,.T.);
#72=FACE_OUTER_BOUND('',#120,.T.);
#73=FACE_OUTER_BOUND('',#121,.T.);
#74=FACE_OUTER_BOUND('',#122,.T.);
#75=FACE_OUTER_BOUND('',#123,.T.);
#76=FACE_OUTER_BOUND('',#124,.T.);
#77=FACE_OUTER_BOUND('',#125,.T.);
#78=FACE_OUTER_BOUND('',#126,.T.);
#79=FACE_OUTER_BOUND('',#127,.T.);
#80=FACE_OUTER_BOUND('',#128,.T.);
#81=FACE_OUTER_BOUND('',#129,.T.);
#82=FACE_OUTER_BOUND('',#130,.T.);
#83=FACE_OUTER_BOUND('',#131,.T.);
#84=FACE_OUTER_BOUND('',#132,.T.);
#85=FACE_OUTER_BOUND('',#133,.T.);
#86=FACE_OUTER_BOUND('',#134,.T.);
#87=EDGE_LOOP('',(#587,#588,#589,#590));
#88=EDGE_LOOP('',(#591,#592,#593,#594,#595));
#89=EDGE_LOOP('',(#596,#597,#598,#599,#600));
#90=EDGE_LOOP('',(#601,#602,#603,#604));
#91=EDGE_LOOP('',(#605,#606,#607,#608,#609));
#92=EDGE_LOOP('',(#610,#611,#612,#613,#614));
#93=EDGE_LOOP('',(#615,#616,#617,#618));
#94=EDGE_LOOP('',(#619,#620,#621,#622,#623));
#95=EDGE_LOOP('',(#624,#625,#626,#627,#628));
#96=EDGE_LOOP('',(#629,#630,#631,#632));
#97=EDGE_LOOP('',(#633,#634,#635,#636));
#98=EDGE_LOOP('',(#637,#638,#639,#640));
#99=EDGE_LOOP('',(#641,#642,#643,#644));
#100=EDGE_LOOP('',(#645,#646,#647,#648));
#101=EDGE_LOOP('',(#649,#650,#651,#652,#653,#654,#655,#656,#657,#658,#659,
#660,#661,#662,#663,#664,#665,#666,#667,#668,#669,#670,#671,#672,#673,#674,
#675,#676,#677,#678,#679,#680,#681,#682,#683,#684));
#102=EDGE_LOOP('',(#685,#686,#687,#688));
#103=EDGE_LOOP('',(#689,#690,#691,#692));
#104=EDGE_LOOP('',(#693,#694,#695,#696));
#105=EDGE_LOOP('',(#697,#698,#699,#700,#701));
#106=EDGE_LOOP('',(#702,#703,#704,#705,#706));
#107=EDGE_LOOP('',(#707,#708,#709,#710));
#108=EDGE_LOOP('',(#711,#712,#713,#714,#715,#716,#717,#718,#719,#720,#721,
#722,#723,#724,#725,#726,#727,#728,#729,#730,#731,#732,#733,#734,#735,#736,
#737,#738,#739,#740,#741,#742,#743,#744,#745,#746));
#109=EDGE_LOOP('',(#747,#748,#749,#750));
#110=EDGE_LOOP('',(#751,#752,#753,#754));
#111=EDGE_LOOP('',(#755,#756,#757,#758));
#112=EDGE_LOOP('',(#759,#760,#761,#762));
#113=EDGE_LOOP('',(#763,#764,#765,#766));
#114=EDGE_LOOP('',(#767,#768,#769,#770));
#115=EDGE_LOOP('',(#771,#772,#773,#774));
#116=EDGE_LOOP('',(#775,#776,#777,#778));
#117=EDGE_LOOP('',(#779,#780,#781,#782));
#118=EDGE_LOOP('',(#783,#784,#785,#786));
#119=EDGE_LOOP('',(#787,#788,#789,#790));
#120=EDGE_LOOP('',(#791,#792,#793,#794));
#121=EDGE_LOOP('',(#795,#796,#797,#798));
#122=EDGE_LOOP('',(#799,#800,#801,#802));
#123=EDGE_LOOP('',(#803,#804,#805,#806));
#124=EDGE_LOOP('',(#807,#808,#809,#810));
#125=EDGE_LOOP('',(#811,#812,#813,#814));
#126=EDGE_LOOP('',(#815,#816,#817,#818));
#127=EDGE_LOOP('',(#819,#820,#821,#822));
#128=EDGE_LOOP('',(#823,#824,#825,#826));
#129=EDGE_LOOP('',(#827,#828,#829,#830));
#130=EDGE_LOOP('',(#831,#832,#833,#834));
#131=EDGE_LOOP('',(#835,#836,#837,#838));
#132=EDGE_LOOP('',(#839,#840,#841,#842));
#133=EDGE_LOOP('',(#843,#844,#845,#846));
#134=EDGE_LOOP('',(#847,#848,#849,#850));
#135=LINE('',#1257,#251);
#136=LINE('',#1259,#252);
#137=LINE('',#1261,#253);
#138=LINE('',#1262,#254);
#139=LINE('',#1265,#255);
#140=LINE('',#1267,#256);
#141=LINE('',#1269,#257);
#142=LINE('',#1270,#258);
#143=LINE('',#1273,#259);
#144=LINE('',#1275,#260);
#145=LINE('',#1277,#261);
#146=LINE('',#1278,#262);
#147=LINE('',#1282,#263);
#148=LINE('',#1284,#264);
#149=LINE('',#1286,#265);
#150=LINE('',#1287,#266);
#151=LINE('',#1290,#267);
#152=LINE('',#1292,#268);
#153=LINE('',#1294,#269);
#154=LINE('',#1295,#270);
#155=LINE('',#1298,#271);
#156=LINE('',#1300,#272);
#157=LINE('',#1302,#273);
#158=LINE('',#1303,#274);
#159=LINE('',#1307,#275);
#160=LINE('',#1309,#276);
#161=LINE('',#1311,#277);
#162=LINE('',#1312,#278);
#163=LINE('',#1315,#279);
#164=LINE('',#1317,#280);
#165=LINE('',#1319,#281);
#166=LINE('',#1320,#282);
#167=LINE('',#1323,#283);
#168=LINE('',#1325,#284);
#169=LINE('',#1327,#285);
#170=LINE('',#1328,#286);
#171=LINE('',#1331,#287);
#172=LINE('',#1333,#288);
#173=LINE('',#1334,#289);
#174=LINE('',#1337,#290);
#175=LINE('',#1339,#291);
#176=LINE('',#1340,#292);
#177=LINE('',#1343,#293);
#178=LINE('',#1345,#294);
#179=LINE('',#1346,#295);
#180=LINE('',#1349,#296);
#181=LINE('',#1351,#297);
#182=LINE('',#1352,#298);
#183=LINE('',#1355,#299);
#184=LINE('',#1357,#300);
#185=LINE('',#1358,#301);
#186=LINE('',#1363,#302);
#187=LINE('',#1365,#303);
#188=LINE('',#1369,#304);
#189=LINE('',#1371,#305);
#190=LINE('',#1373,#306);
#191=LINE('',#1375,#307);
#192=LINE('',#1377,#308);
#193=LINE('',#1381,#309);
#194=LINE('',#1383,#310);
#195=LINE('',#1386,#311);
#196=LINE('',#1390,#312);
#197=LINE('',#1392,#313);
#198=LINE('',#1397,#314);
#199=LINE('',#1399,#315);
#200=LINE('',#1403,#316);
#201=LINE('',#1405,#317);
#202=LINE('',#1407,#318);
#203=LINE('',#1408,#319);
#204=LINE('',#1411,#320);
#205=LINE('',#1412,#321);
#206=LINE('',#1416,#322);
#207=LINE('',#1417,#323);
#208=LINE('',#1418,#324);
#209=LINE('',#1421,#325);
#210=LINE('',#1423,#326);
#211=LINE('',#1424,#327);
#212=LINE('',#1427,#328);
#213=LINE('',#1429,#329);
#214=LINE('',#1430,#330);
#215=LINE('',#1432,#331);
#216=LINE('',#1437,#332);
#217=LINE('',#1439,#333);
#218=LINE('',#1441,#334);
#219=LINE('',#1445,#335);
#220=LINE('',#1447,#336);
#221=LINE('',#1449,#337);
#222=LINE('',#1453,#338);
#223=LINE('',#1455,#339);
#224=LINE('',#1458,#340);
#225=LINE('',#1460,#341);
#226=LINE('',#1464,#342);
#227=LINE('',#1466,#343);
#228=LINE('',#1468,#344);
#229=LINE('',#1471,#345);
#230=LINE('',#1473,#346);
#231=LINE('',#1475,#347);
#232=LINE('',#1476,#348);
#233=LINE('',#1478,#349);
#234=LINE('',#1479,#350);
#235=LINE('',#1482,#351);
#236=LINE('',#1483,#352);
#237=LINE('',#1486,#353);
#238=LINE('',#1488,#354);
#239=LINE('',#1490,#355);
#240=LINE('',#1492,#356);
#241=LINE('',#1494,#357);
#242=LINE('',#1496,#358);
#243=LINE('',#1501,#359);
#244=LINE('',#1503,#360);
#245=LINE('',#1506,#361);
#246=LINE('',#1509,#362);
#247=LINE('',#1513,#363);
#248=LINE('',#1514,#364);
#249=LINE('',#1516,#365);
#250=LINE('',#1518,#366);
#251=VECTOR('',#1015,3.);
#252=VECTOR('',#1016,11.3137084989848);
#253=VECTOR('',#1017,3.);
#254=VECTOR('',#1018,11.3137084989848);
#255=VECTOR('',#1021,2.44948974278317);
#256=VECTOR('',#1022,6.06217782649109);
#257=VECTOR('',#1023,14.1421356237309);
#258=VECTOR('',#1024,3.61268808370792);
#259=VECTOR('',#1027,2.44948974278318);
#260=VECTOR('',#1028,3.61268808370789);
#261=VECTOR('',#1029,14.142135623731);
#262=VECTOR('',#1030,6.06217782649107);
#263=VECTOR('',#1033,3.);
#264=VECTOR('',#1034,11.3137084989848);
#265=VECTOR('',#1035,3.);
#266=VECTOR('',#1036,11.3137084989848);
#267=VECTOR('',#1039,2.44948974278317);
#268=VECTOR('',#1040,6.06217782649107);
#269=VECTOR('',#1041,14.142135623731);
#270=VECTOR('',#1042,3.61268808370792);
#271=VECTOR('',#1045,2.44948974278318);
#272=VECTOR('',#1046,3.61268808370789);
#273=VECTOR('',#1047,14.142135623731);
#274=VECTOR('',#1048,6.06217782649107);
#275=VECTOR('',#1051,3.);
#276=VECTOR('',#1052,11.3137084989848);
#277=VECTOR('',#1053,3.);
#278=VECTOR('',#1054,11.3137084989848);
#279=VECTOR('',#1057,2.44948974278317);
#280=VECTOR('',#1058,6.06217782649108);
#281=VECTOR('',#1059,14.142135623731);
#282=VECTOR('',#1060,3.61268808370792);
#283=VECTOR('',#1063,2.44948974278318);
#284=VECTOR('',#1064,3.61268808370789);
#285=VECTOR('',#1065,14.1421356237309);
#286=VECTOR('',#1066,6.06217782649106);
#287=VECTOR('',#1069,0.0502525316941416);
#288=VECTOR('',#1070,10.);
#289=VECTOR('',#1071,10.0502525316941);
#290=VECTOR('',#1074,10.0502525316942);
#291=VECTOR('',#1075,10.);
#292=VECTOR('',#1076,0.0502525316941771);
#293=VECTOR('',#1079,0.0502525316941593);
#294=VECTOR('',#1080,10.);
#295=VECTOR('',#1081,10.0502525316942);
#296=VECTOR('',#1084,10.0502525316942);
#297=VECTOR('',#1085,10.);
#298=VECTOR('',#1086,0.0502525316941771);
#299=VECTOR('',#1089,0.0502525316941438);
#300=VECTOR('',#1090,10.);
#301=VECTOR('',#1091,10.0502525316941);
#302=VECTOR('',#1096,43.);
#303=VECTOR('',#1097,43.);
#304=VECTOR('',#1100,0.0502525316941455);
#305=VECTOR('',#1101,6.06217782649108);
#306=VECTOR('',#1102,3.);
#307=VECTOR('',#1103,6.06217782649106);
#308=VECTOR('',#1104,0.0502525316941682);
#309=VECTOR('',#1107,43.);
#310=VECTOR('',#1108,43.);
#311=VECTOR('',#1111,0.050252531694166);
#312=VECTOR('',#1114,43.);
#313=VECTOR('',#1115,43.);
#314=VECTOR('',#1120,43.);
#315=VECTOR('',#1121,43.);
#316=VECTOR('',#1124,70.);
#317=VECTOR('',#1125,70.);
#318=VECTOR('',#1126,70.);
#319=VECTOR('',#1127,70.);
#320=VECTOR('',#1130,10.0502525316942);
#321=VECTOR('',#1131,10.);
#322=VECTOR('',#1134,3.);
#323=VECTOR('',#1135,11.3137084989848);
#324=VECTOR('',#1136,11.3137084989848);
#325=VECTOR('',#1139,2.44948974278317);
#326=VECTOR('',#1140,14.142135623731);
#327=VECTOR('',#1141,3.61268808370792);
#328=VECTOR('',#1144,2.44948974278318);
#329=VECTOR('',#1145,3.61268808370788);
#330=VECTOR('',#1146,14.1421356237309);
#331=VECTOR('',#1149,5.82842712474618);
#332=VECTOR('',#1154,43.);
#333=VECTOR('',#1155,43.);
#334=VECTOR('',#1158,5.82842712474618);
#335=VECTOR('',#1161,43.);
#336=VECTOR('',#1162,43.);
#337=VECTOR('',#1165,5.82842712474618);
#338=VECTOR('',#1168,43.);
#339=VECTOR('',#1169,43.);
#340=VECTOR('',#1172,10.0502525316942);
#341=VECTOR('',#1173,10.0502525316941);
#342=VECTOR('',#1176,43.);
#343=VECTOR('',#1177,43.);
#344=VECTOR('',#1180,5.82842712474618);
#345=VECTOR('',#1181,70.);
#346=VECTOR('',#1182,70.);
#347=VECTOR('',#1183,70.);
#348=VECTOR('',#1184,70.);
#349=VECTOR('',#1187,10.);
#350=VECTOR('',#1188,10.);
#351=VECTOR('',#1193,10.);
#352=VECTOR('',#1194,10.);
#353=VECTOR('',#1199,10.);
#354=VECTOR('',#1202,10.);
#355=VECTOR('',#1205,10.);
#356=VECTOR('',#1208,10.);
#357=VECTOR('',#1211,10.);
#358=VECTOR('',#1214,10.);
#359=VECTOR('',#1223,10.);
#360=VECTOR('',#1226,10.);
#361=VECTOR('',#1231,10.);
#362=VECTOR('',#1236,10.);
#363=VECTOR('',#1243,10.);
#364=VECTOR('',#1244,10.);
#365=VECTOR('',#1247,10.);
#366=VECTOR('',#1250,10.);
#367=VERTEX_POINT('',#1255);
#368=VERTEX_POINT('',#1256);
#369=VERTEX_POINT('',#1258);
#370=VERTEX_POINT('',#1260);
#371=VERTEX_POINT('',#1264);
#372=VERTEX_POINT('',#1266);
#373=VERTEX_POINT('',#1268);
#374=VERTEX_POINT('',#1272);
#375=VERTEX_POINT('',#1274);
#376=VERTEX_POINT('',#1276);
#377=VERTEX_POINT('',#1280);
#378=VERTEX_POINT('',#1281);
#379=VERTEX_POINT('',#1283);
#380=VERTEX_POINT('',#1285);
#381=VERTEX_POINT('',#1289);
#382=VERTEX_POINT('',#1291);
#383=VERTEX_POINT('',#1293);
#384=VERTEX_POINT('',#1297);
#385=VERTEX_POINT('',#1299);
#386=VERTEX_POINT('',#1301);
#387=VERTEX_POINT('',#1305);
#388=VERTEX_POINT('',#1306);
#389=VERTEX_POINT('',#1308);
#390=VERTEX_POINT('',#1310);
#391=VERTEX_POINT('',#1314);
#392=VERTEX_POINT('',#1316);
#393=VERTEX_POINT('',#1318);
#394=VERTEX_POINT('',#1322);
#395=VERTEX_POINT('',#1324);
#396=VERTEX_POINT('',#1326);
#397=VERTEX_POINT('',#1330);
#398=VERTEX_POINT('',#1332);
#399=VERTEX_POINT('',#1336);
#400=VERTEX_POINT('',#1338);
#401=VERTEX_POINT('',#1342);
#402=VERTEX_POINT('',#1344);
#403=VERTEX_POINT('',#1348);
#404=VERTEX_POINT('',#1350);
#405=VERTEX_POINT('',#1354);
#406=VERTEX_POINT('',#1356);
#407=VERTEX_POINT('',#1360);
#408=VERTEX_POINT('',#1362);
#409=VERTEX_POINT('',#1364);
#410=VERTEX_POINT('',#1366);
#411=VERTEX_POINT('',#1368);
#412=VERTEX_POINT('',#1370);
#413=VERTEX_POINT('',#1372);
#414=VERTEX_POINT('',#1374);
#415=VERTEX_POINT('',#1376);
#416=VERTEX_POINT('',#1378);
#417=VERTEX_POINT('',#1380);
#418=VERTEX_POINT('',#1382);
#419=VERTEX_POINT('',#1385);
#420=VERTEX_POINT('',#1387);
#421=VERTEX_POINT('',#1389);
#422=VERTEX_POINT('',#1391);
#423=VERTEX_POINT('',#1394);
#424=VERTEX_POINT('',#1396);
#425=VERTEX_POINT('',#1398);
#426=VERTEX_POINT('',#1401);
#427=VERTEX_POINT('',#1402);
#428=VERTEX_POINT('',#1404);
#429=VERTEX_POINT('',#1406);
#430=VERTEX_POINT('',#1410);
#431=VERTEX_POINT('',#1414);
#432=VERTEX_POINT('',#1415);
#433=VERTEX_POINT('',#1420);
#434=VERTEX_POINT('',#1422);
#435=VERTEX_POINT('',#1426);
#436=VERTEX_POINT('',#1428);
#437=VERTEX_POINT('',#1434);
#438=VERTEX_POINT('',#1436);
#439=VERTEX_POINT('',#1438);
#440=VERTEX_POINT('',#1442);
#441=VERTEX_POINT('',#1444);
#442=VERTEX_POINT('',#1446);
#443=VERTEX_POINT('',#1450);
#444=VERTEX_POINT('',#1452);
#445=VERTEX_POINT('',#1454);
#446=VERTEX_POINT('',#1456);
#447=VERTEX_POINT('',#1459);
#448=VERTEX_POINT('',#1461);
#449=VERTEX_POINT('',#1463);
#450=VERTEX_POINT('',#1465);
#451=VERTEX_POINT('',#1469);
#452=VERTEX_POINT('',#1470);
#453=VERTEX_POINT('',#1472);
#454=VERTEX_POINT('',#1474);
#455=EDGE_CURVE('',#367,#368,#135,.T.);
#456=EDGE_CURVE('',#369,#367,#136,.T.);
#457=EDGE_CURVE('',#370,#369,#137,.T.);
#458=EDGE_CURVE('',#370,#368,#138,.T.);
#459=EDGE_CURVE('',#368,#371,#139,.T.);
#460=EDGE_CURVE('',#372,#370,#140,.T.);
#461=EDGE_CURVE('',#373,#372,#141,.T.);
#462=EDGE_CURVE('',#371,#373,#142,.T.);
#463=EDGE_CURVE('',#374,#367,#143,.T.);
#464=EDGE_CURVE('',#375,#374,#144,.T.);
#465=EDGE_CURVE('',#376,#375,#145,.T.);
#466=EDGE_CURVE('',#369,#376,#146,.T.);
#467=EDGE_CURVE('',#377,#378,#147,.T.);
#468=EDGE_CURVE('',#379,#377,#148,.T.);
#469=EDGE_CURVE('',#380,#379,#149,.T.);
#470=EDGE_CURVE('',#380,#378,#150,.T.);
#471=EDGE_CURVE('',#378,#381,#151,.T.);
#472=EDGE_CURVE('',#382,#380,#152,.T.);
#473=EDGE_CURVE('',#383,#382,#153,.T.);
#474=EDGE_CURVE('',#381,#383,#154,.T.);
#475=EDGE_CURVE('',#384,#377,#155,.T.);
#476=EDGE_CURVE('',#385,#384,#156,.T.);
#477=EDGE_CURVE('',#386,#385,#157,.T.);
#478=EDGE_CURVE('',#379,#386,#158,.T.);
#479=EDGE_CURVE('',#387,#388,#159,.T.);
#480=EDGE_CURVE('',#389,#387,#160,.T.);
#481=EDGE_CURVE('',#390,#389,#161,.T.);
#482=EDGE_CURVE('',#390,#388,#162,.T.);
#483=EDGE_CURVE('',#388,#391,#163,.T.);
#484=EDGE_CURVE('',#392,#390,#164,.T.);
#485=EDGE_CURVE('',#393,#392,#165,.T.);
#486=EDGE_CURVE('',#391,#393,#166,.T.);
#487=EDGE_CURVE('',#394,#387,#167,.T.);
#488=EDGE_CURVE('',#395,#394,#168,.T.);
#489=EDGE_CURVE('',#396,#395,#169,.T.);
#490=EDGE_CURVE('',#389,#396,#170,.T.);
#491=EDGE_CURVE('',#397,#372,#171,.T.);
#492=EDGE_CURVE('',#398,#397,#172,.T.);
#493=EDGE_CURVE('',#373,#398,#173,.T.);
#494=EDGE_CURVE('',#399,#375,#174,.T.);
#495=EDGE_CURVE('',#400,#399,#175,.T.);
#496=EDGE_CURVE('',#376,#400,#176,.T.);
#497=EDGE_CURVE('',#401,#382,#177,.T.);
#498=EDGE_CURVE('',#402,#401,#178,.T.);
#499=EDGE_CURVE('',#383,#402,#179,.T.);
#500=EDGE_CURVE('',#403,#385,#180,.T.);
#501=EDGE_CURVE('',#404,#403,#181,.T.);
#502=EDGE_CURVE('',#386,#404,#182,.T.);
#503=EDGE_CURVE('',#405,#392,#183,.T.);
#504=EDGE_CURVE('',#406,#405,#184,.T.);
#505=EDGE_CURVE('',#393,#406,#185,.T.);
#506=EDGE_CURVE('',#407,#400,#25,.T.);
#507=EDGE_CURVE('',#407,#408,#186,.T.);
#508=EDGE_CURVE('',#408,#409,#187,.T.);
#509=EDGE_CURVE('',#410,#409,#26,.T.);
#510=EDGE_CURVE('',#410,#411,#188,.T.);
#511=EDGE_CURVE('',#411,#412,#189,.T.);
#512=EDGE_CURVE('',#412,#413,#190,.T.);
#513=EDGE_CURVE('',#413,#414,#191,.T.);
#514=EDGE_CURVE('',#414,#415,#192,.T.);
#515=EDGE_CURVE('',#416,#415,#27,.T.);
#516=EDGE_CURVE('',#416,#417,#193,.T.);
#517=EDGE_CURVE('',#417,#418,#194,.T.);
#518=EDGE_CURVE('',#405,#418,#28,.T.);
#519=EDGE_CURVE('',#396,#419,#195,.T.);
#520=EDGE_CURVE('',#420,#419,#29,.T.);
#521=EDGE_CURVE('',#420,#421,#196,.T.);
#522=EDGE_CURVE('',#421,#422,#197,.T.);
#523=EDGE_CURVE('',#401,#422,#30,.T.);
#524=EDGE_CURVE('',#423,#404,#31,.T.);
#525=EDGE_CURVE('',#423,#424,#198,.T.);
#526=EDGE_CURVE('',#424,#425,#199,.T.);
#527=EDGE_CURVE('',#397,#425,#32,.T.);
#528=EDGE_CURVE('',#426,#427,#200,.T.);
#529=EDGE_CURVE('',#427,#428,#201,.T.);
#530=EDGE_CURVE('',#428,#429,#202,.T.);
#531=EDGE_CURVE('',#429,#426,#203,.T.);
#532=EDGE_CURVE('',#430,#395,#204,.T.);
#533=EDGE_CURVE('',#419,#430,#205,.T.);
#534=EDGE_CURVE('',#431,#432,#206,.T.);
#535=EDGE_CURVE('',#413,#431,#207,.T.);
#536=EDGE_CURVE('',#412,#432,#208,.T.);
#537=EDGE_CURVE('',#432,#433,#209,.T.);
#538=EDGE_CURVE('',#434,#411,#210,.T.);
#539=EDGE_CURVE('',#433,#434,#211,.T.);
#540=EDGE_CURVE('',#435,#431,#212,.T.);
#541=EDGE_CURVE('',#436,#435,#213,.T.);
#542=EDGE_CURVE('',#414,#436,#214,.T.);
#543=EDGE_CURVE('',#435,#433,#215,.T.);
#544=EDGE_CURVE('',#437,#398,#33,.T.);
#545=EDGE_CURVE('',#438,#437,#216,.T.);
#546=EDGE_CURVE('',#439,#438,#217,.T.);
#547=EDGE_CURVE('',#403,#439,#34,.T.);
#548=EDGE_CURVE('',#384,#381,#218,.T.);
#549=EDGE_CURVE('',#440,#402,#35,.T.);
#550=EDGE_CURVE('',#441,#440,#219,.T.);
#551=EDGE_CURVE('',#442,#441,#220,.T.);
#552=EDGE_CURVE('',#430,#442,#36,.T.);
#553=EDGE_CURVE('',#394,#391,#221,.T.);
#554=EDGE_CURVE('',#443,#406,#37,.T.);
#555=EDGE_CURVE('',#444,#443,#222,.T.);
#556=EDGE_CURVE('',#445,#444,#223,.T.);
#557=EDGE_CURVE('',#446,#445,#38,.T.);
#558=EDGE_CURVE('',#446,#436,#224,.T.);
#559=EDGE_CURVE('',#434,#447,#225,.T.);
#560=EDGE_CURVE('',#448,#447,#39,.T.);
#561=EDGE_CURVE('',#449,#448,#226,.T.);
#562=EDGE_CURVE('',#450,#449,#227,.T.);
#563=EDGE_CURVE('',#399,#450,#40,.T.);
#564=EDGE_CURVE('',#374,#371,#228,.T.);
#565=EDGE_CURVE('',#451,#452,#229,.T.);
#566=EDGE_CURVE('',#452,#453,#230,.T.);
#567=EDGE_CURVE('',#453,#454,#231,.T.);
#568=EDGE_CURVE('',#454,#451,#232,.T.);
#569=EDGE_CURVE('',#415,#446,#233,.T.);
#570=EDGE_CURVE('',#445,#416,#234,.T.);
#571=EDGE_CURVE('',#447,#410,#235,.T.);
#572=EDGE_CURVE('',#409,#448,#236,.T.);
#573=EDGE_CURVE('',#450,#407,#237,.T.);
#574=EDGE_CURVE('',#425,#437,#238,.T.);
#575=EDGE_CURVE('',#439,#423,#239,.T.);
#576=EDGE_CURVE('',#422,#440,#240,.T.);
#577=EDGE_CURVE('',#418,#443,#241,.T.);
#578=EDGE_CURVE('',#442,#420,#242,.T.);
#579=EDGE_CURVE('',#449,#408,#243,.T.);
#580=EDGE_CURVE('',#438,#424,#244,.T.);
#581=EDGE_CURVE('',#441,#421,#245,.T.);
#582=EDGE_CURVE('',#444,#417,#246,.T.);
#583=EDGE_CURVE('',#426,#452,#247,.T.);
#584=EDGE_CURVE('',#427,#451,#248,.T.);
#585=EDGE_CURVE('',#429,#453,#249,.T.);
#586=EDGE_CURVE('',#428,#454,#250,.T.);
#587=ORIENTED_EDGE('',*,*,#455,.F.);
#588=ORIENTED_EDGE('',*,*,#456,.F.);
#589=ORIENTED_EDGE('',*,*,#457,.F.);
#590=ORIENTED_EDGE('',*,*,#458,.T.);
#591=ORIENTED_EDGE('',*,*,#459,.F.);
#592=ORIENTED_EDGE('',*,*,#458,.F.);
#593=ORIENTED_EDGE('',*,*,#460,.F.);
#594=ORIENTED_EDGE('',*,*,#461,.F.);
#595=ORIENTED_EDGE('',*,*,#462,.F.);
#596=ORIENTED_EDGE('',*,*,#463,.F.);
#597=ORIENTED_EDGE('',*,*,#464,.F.);
#598=ORIENTED_EDGE('',*,*,#465,.F.);
#599=ORIENTED_EDGE('',*,*,#466,.F.);
#600=ORIENTED_EDGE('',*,*,#456,.T.);
#601=ORIENTED_EDGE('',*,*,#467,.F.);
#602=ORIENTED_EDGE('',*,*,#468,.F.);
#603=ORIENTED_EDGE('',*,*,#469,.F.);
#604=ORIENTED_EDGE('',*,*,#470,.T.);
#605=ORIENTED_EDGE('',*,*,#471,.F.);
#606=ORIENTED_EDGE('',*,*,#470,.F.);
#607=ORIENTED_EDGE('',*,*,#472,.F.);
#608=ORIENTED_EDGE('',*,*,#473,.F.);
#609=ORIENTED_EDGE('',*,*,#474,.F.);
#610=ORIENTED_EDGE('',*,*,#475,.F.);
#611=ORIENTED_EDGE('',*,*,#476,.F.);
#612=ORIENTED_EDGE('',*,*,#477,.F.);
#613=ORIENTED_EDGE('',*,*,#478,.F.);
#614=ORIENTED_EDGE('',*,*,#468,.T.);
#615=ORIENTED_EDGE('',*,*,#479,.F.);
#616=ORIENTED_EDGE('',*,*,#480,.F.);
#617=ORIENTED_EDGE('',*,*,#481,.F.);
#618=ORIENTED_EDGE('',*,*,#482,.T.);
#619=ORIENTED_EDGE('',*,*,#483,.F.);
#620=ORIENTED_EDGE('',*,*,#482,.F.);
#621=ORIENTED_EDGE('',*,*,#484,.F.);
#622=ORIENTED_EDGE('',*,*,#485,.F.);
#623=ORIENTED_EDGE('',*,*,#486,.F.);
#624=ORIENTED_EDGE('',*,*,#487,.F.);
#625=ORIENTED_EDGE('',*,*,#488,.F.);
#626=ORIENTED_EDGE('',*,*,#489,.F.);
#627=ORIENTED_EDGE('',*,*,#490,.F.);
#628=ORIENTED_EDGE('',*,*,#480,.T.);
#629=ORIENTED_EDGE('',*,*,#461,.T.);
#630=ORIENTED_EDGE('',*,*,#491,.F.);
#631=ORIENTED_EDGE('',*,*,#492,.F.);
#632=ORIENTED_EDGE('',*,*,#493,.F.);
#633=ORIENTED_EDGE('',*,*,#465,.T.);
#634=ORIENTED_EDGE('',*,*,#494,.F.);
#635=ORIENTED_EDGE('',*,*,#495,.F.);
#636=ORIENTED_EDGE('',*,*,#496,.F.);
#637=ORIENTED_EDGE('',*,*,#473,.T.);
#638=ORIENTED_EDGE('',*,*,#497,.F.);
#639=ORIENTED_EDGE('',*,*,#498,.F.);
#640=ORIENTED_EDGE('',*,*,#499,.F.);
#641=ORIENTED_EDGE('',*,*,#477,.T.);
#642=ORIENTED_EDGE('',*,*,#500,.F.);
#643=ORIENTED_EDGE('',*,*,#501,.F.);
#644=ORIENTED_EDGE('',*,*,#502,.F.);
#645=ORIENTED_EDGE('',*,*,#485,.T.);
#646=ORIENTED_EDGE('',*,*,#503,.F.);
#647=ORIENTED_EDGE('',*,*,#504,.F.);
#648=ORIENTED_EDGE('',*,*,#505,.F.);
#649=ORIENTED_EDGE('',*,*,#460,.T.);
#650=ORIENTED_EDGE('',*,*,#457,.T.);
#651=ORIENTED_EDGE('',*,*,#466,.T.);
#652=ORIENTED_EDGE('',*,*,#496,.T.);
#653=ORIENTED_EDGE('',*,*,#506,.F.);
#654=ORIENTED_EDGE('',*,*,#507,.T.);
#655=ORIENTED_EDGE('',*,*,#508,.T.);
#656=ORIENTED_EDGE('',*,*,#509,.F.);
#657=ORIENTED_EDGE('',*,*,#510,.T.);
#658=ORIENTED_EDGE('',*,*,#511,.T.);
#659=ORIENTED_EDGE('',*,*,#512,.T.);
#660=ORIENTED_EDGE('',*,*,#513,.T.);
#661=ORIENTED_EDGE('',*,*,#514,.T.);
#662=ORIENTED_EDGE('',*,*,#515,.F.);
#663=ORIENTED_EDGE('',*,*,#516,.T.);
#664=ORIENTED_EDGE('',*,*,#517,.T.);
#665=ORIENTED_EDGE('',*,*,#518,.F.);
#666=ORIENTED_EDGE('',*,*,#503,.T.);
#667=ORIENTED_EDGE('',*,*,#484,.T.);
#668=ORIENTED_EDGE('',*,*,#481,.T.);
#669=ORIENTED_EDGE('',*,*,#490,.T.);
#670=ORIENTED_EDGE('',*,*,#519,.T.);
#671=ORIENTED_EDGE('',*,*,#520,.F.);
#672=ORIENTED_EDGE('',*,*,#521,.T.);
#673=ORIENTED_EDGE('',*,*,#522,.T.);
#674=ORIENTED_EDGE('',*,*,#523,.F.);
#675=ORIENTED_EDGE('',*,*,#497,.T.);
#676=ORIENTED_EDGE('',*,*,#472,.T.);
#677=ORIENTED_EDGE('',*,*,#469,.T.);
#678=ORIENTED_EDGE('',*,*,#478,.T.);
#679=ORIENTED_EDGE('',*,*,#502,.T.);
#680=ORIENTED_EDGE('',*,*,#524,.F.);
#681=ORIENTED_EDGE('',*,*,#525,.T.);
#682=ORIENTED_EDGE('',*,*,#526,.T.);
#683=ORIENTED_EDGE('',*,*,#527,.F.);
#684=ORIENTED_EDGE('',*,*,#491,.T.);
#685=ORIENTED_EDGE('',*,*,#528,.T.);
#686=ORIENTED_EDGE('',*,*,#529,.T.);
#687=ORIENTED_EDGE('',*,*,#530,.T.);
#688=ORIENTED_EDGE('',*,*,#531,.T.);
#689=ORIENTED_EDGE('',*,*,#489,.T.);
#690=ORIENTED_EDGE('',*,*,#532,.F.);
#691=ORIENTED_EDGE('',*,*,#533,.F.);
#692=ORIENTED_EDGE('',*,*,#519,.F.);
#693=ORIENTED_EDGE('',*,*,#534,.F.);
#694=ORIENTED_EDGE('',*,*,#535,.F.);
#695=ORIENTED_EDGE('',*,*,#512,.F.);
#696=ORIENTED_EDGE('',*,*,#536,.T.);
#697=ORIENTED_EDGE('',*,*,#537,.F.);
#698=ORIENTED_EDGE('',*,*,#536,.F.);
#699=ORIENTED_EDGE('',*,*,#511,.F.);
#700=ORIENTED_EDGE('',*,*,#538,.F.);
#701=ORIENTED_EDGE('',*,*,#539,.F.);
#702=ORIENTED_EDGE('',*,*,#540,.F.);
#703=ORIENTED_EDGE('',*,*,#541,.F.);
#704=ORIENTED_EDGE('',*,*,#542,.F.);
#705=ORIENTED_EDGE('',*,*,#513,.F.);
#706=ORIENTED_EDGE('',*,*,#535,.T.);
#707=ORIENTED_EDGE('',*,*,#540,.T.);
#708=ORIENTED_EDGE('',*,*,#534,.T.);
#709=ORIENTED_EDGE('',*,*,#537,.T.);
#710=ORIENTED_EDGE('',*,*,#543,.F.);
#711=ORIENTED_EDGE('',*,*,#462,.T.);
#712=ORIENTED_EDGE('',*,*,#493,.T.);
#713=ORIENTED_EDGE('',*,*,#544,.F.);
#714=ORIENTED_EDGE('',*,*,#545,.F.);
#715=ORIENTED_EDGE('',*,*,#546,.F.);
#716=ORIENTED_EDGE('',*,*,#547,.F.);
#717=ORIENTED_EDGE('',*,*,#500,.T.);
#718=ORIENTED_EDGE('',*,*,#476,.T.);
#719=ORIENTED_EDGE('',*,*,#548,.T.);
#720=ORIENTED_EDGE('',*,*,#474,.T.);
#721=ORIENTED_EDGE('',*,*,#499,.T.);
#722=ORIENTED_EDGE('',*,*,#549,.F.);
#723=ORIENTED_EDGE('',*,*,#550,.F.);
#724=ORIENTED_EDGE('',*,*,#551,.F.);
#725=ORIENTED_EDGE('',*,*,#552,.F.);
#726=ORIENTED_EDGE('',*,*,#532,.T.);
#727=ORIENTED_EDGE('',*,*,#488,.T.);
#728=ORIENTED_EDGE('',*,*,#553,.T.);
#729=ORIENTED_EDGE('',*,*,#486,.T.);
#730=ORIENTED_EDGE('',*,*,#505,.T.);
#731=ORIENTED_EDGE('',*,*,#554,.F.);
#732=ORIENTED_EDGE('',*,*,#555,.F.);
#733=ORIENTED_EDGE('',*,*,#556,.F.);
#734=ORIENTED_EDGE('',*,*,#557,.F.);
#735=ORIENTED_EDGE('',*,*,#558,.T.);
#736=ORIENTED_EDGE('',*,*,#541,.T.);
#737=ORIENTED_EDGE('',*,*,#543,.T.);
#738=ORIENTED_EDGE('',*,*,#539,.T.);
#739=ORIENTED_EDGE('',*,*,#559,.T.);
#740=ORIENTED_EDGE('',*,*,#560,.F.);
#741=ORIENTED_EDGE('',*,*,#561,.F.);
#742=ORIENTED_EDGE('',*,*,#562,.F.);
#743=ORIENTED_EDGE('',*,*,#563,.F.);
#744=ORIENTED_EDGE('',*,*,#494,.T.);
#745=ORIENTED_EDGE('',*,*,#464,.T.);
#746=ORIENTED_EDGE('',*,*,#564,.T.);
#747=ORIENTED_EDGE('',*,*,#565,.T.);
#748=ORIENTED_EDGE('',*,*,#566,.T.);
#749=ORIENTED_EDGE('',*,*,#567,.T.);
#750=ORIENTED_EDGE('',*,*,#568,.T.);
#751=ORIENTED_EDGE('',*,*,#515,.T.);
#752=ORIENTED_EDGE('',*,*,#569,.T.);
#753=ORIENTED_EDGE('',*,*,#557,.T.);
#754=ORIENTED_EDGE('',*,*,#570,.T.);
#755=ORIENTED_EDGE('',*,*,#542,.T.);
#756=ORIENTED_EDGE('',*,*,#558,.F.);
#757=ORIENTED_EDGE('',*,*,#569,.F.);
#758=ORIENTED_EDGE('',*,*,#514,.F.);
#759=ORIENTED_EDGE('',*,*,#560,.T.);
#760=ORIENTED_EDGE('',*,*,#571,.T.);
#761=ORIENTED_EDGE('',*,*,#509,.T.);
#762=ORIENTED_EDGE('',*,*,#572,.T.);
#763=ORIENTED_EDGE('',*,*,#538,.T.);
#764=ORIENTED_EDGE('',*,*,#510,.F.);
#765=ORIENTED_EDGE('',*,*,#571,.F.);
#766=ORIENTED_EDGE('',*,*,#559,.F.);
#767=ORIENTED_EDGE('',*,*,#506,.T.);
#768=ORIENTED_EDGE('',*,*,#495,.T.);
#769=ORIENTED_EDGE('',*,*,#563,.T.);
#770=ORIENTED_EDGE('',*,*,#573,.T.);
#771=ORIENTED_EDGE('',*,*,#544,.T.);
#772=ORIENTED_EDGE('',*,*,#492,.T.);
#773=ORIENTED_EDGE('',*,*,#527,.T.);
#774=ORIENTED_EDGE('',*,*,#574,.T.);
#775=ORIENTED_EDGE('',*,*,#524,.T.);
#776=ORIENTED_EDGE('',*,*,#501,.T.);
#777=ORIENTED_EDGE('',*,*,#547,.T.);
#778=ORIENTED_EDGE('',*,*,#575,.T.);
#779=ORIENTED_EDGE('',*,*,#549,.T.);
#780=ORIENTED_EDGE('',*,*,#498,.T.);
#781=ORIENTED_EDGE('',*,*,#523,.T.);
#782=ORIENTED_EDGE('',*,*,#576,.T.);
#783=ORIENTED_EDGE('',*,*,#554,.T.);
#784=ORIENTED_EDGE('',*,*,#504,.T.);
#785=ORIENTED_EDGE('',*,*,#518,.T.);
#786=ORIENTED_EDGE('',*,*,#577,.T.);
#787=ORIENTED_EDGE('',*,*,#520,.T.);
#788=ORIENTED_EDGE('',*,*,#533,.T.);
#789=ORIENTED_EDGE('',*,*,#552,.T.);
#790=ORIENTED_EDGE('',*,*,#578,.T.);
#791=ORIENTED_EDGE('',*,*,#459,.T.);
#792=ORIENTED_EDGE('',*,*,#564,.F.);
#793=ORIENTED_EDGE('',*,*,#463,.T.);
#794=ORIENTED_EDGE('',*,*,#455,.T.);
#795=ORIENTED_EDGE('',*,*,#471,.T.);
#796=ORIENTED_EDGE('',*,*,#548,.F.);
#797=ORIENTED_EDGE('',*,*,#475,.T.);
#798=ORIENTED_EDGE('',*,*,#467,.T.);
#799=ORIENTED_EDGE('',*,*,#483,.T.);
#800=ORIENTED_EDGE('',*,*,#553,.F.);
#801=ORIENTED_EDGE('',*,*,#487,.T.);
#802=ORIENTED_EDGE('',*,*,#479,.T.);
#803=ORIENTED_EDGE('',*,*,#573,.F.);
#804=ORIENTED_EDGE('',*,*,#562,.T.);
#805=ORIENTED_EDGE('',*,*,#579,.T.);
#806=ORIENTED_EDGE('',*,*,#507,.F.);
#807=ORIENTED_EDGE('',*,*,#574,.F.);
#808=ORIENTED_EDGE('',*,*,#526,.F.);
#809=ORIENTED_EDGE('',*,*,#580,.F.);
#810=ORIENTED_EDGE('',*,*,#545,.T.);
#811=ORIENTED_EDGE('',*,*,#575,.F.);
#812=ORIENTED_EDGE('',*,*,#546,.T.);
#813=ORIENTED_EDGE('',*,*,#580,.T.);
#814=ORIENTED_EDGE('',*,*,#525,.F.);
#815=ORIENTED_EDGE('',*,*,#576,.F.);
#816=ORIENTED_EDGE('',*,*,#522,.F.);
#817=ORIENTED_EDGE('',*,*,#581,.F.);
#818=ORIENTED_EDGE('',*,*,#550,.T.);
#819=ORIENTED_EDGE('',*,*,#578,.F.);
#820=ORIENTED_EDGE('',*,*,#551,.T.);
#821=ORIENTED_EDGE('',*,*,#581,.T.);
#822=ORIENTED_EDGE('',*,*,#521,.F.);
#823=ORIENTED_EDGE('',*,*,#577,.F.);
#824=ORIENTED_EDGE('',*,*,#517,.F.);
#825=ORIENTED_EDGE('',*,*,#582,.F.);
#826=ORIENTED_EDGE('',*,*,#555,.T.);
#827=ORIENTED_EDGE('',*,*,#570,.F.);
#828=ORIENTED_EDGE('',*,*,#556,.T.);
#829=ORIENTED_EDGE('',*,*,#582,.T.);
#830=ORIENTED_EDGE('',*,*,#516,.F.);
#831=ORIENTED_EDGE('',*,*,#572,.F.);
#832=ORIENTED_EDGE('',*,*,#508,.F.);
#833=ORIENTED_EDGE('',*,*,#579,.F.);
#834=ORIENTED_EDGE('',*,*,#561,.T.);
#835=ORIENTED_EDGE('',*,*,#528,.F.);
#836=ORIENTED_EDGE('',*,*,#583,.T.);
#837=ORIENTED_EDGE('',*,*,#565,.F.);
#838=ORIENTED_EDGE('',*,*,#584,.F.);
#839=ORIENTED_EDGE('',*,*,#531,.F.);
#840=ORIENTED_EDGE('',*,*,#585,.T.);
#841=ORIENTED_EDGE('',*,*,#566,.F.);
#842=ORIENTED_EDGE('',*,*,#583,.F.);
#843=ORIENTED_EDGE('',*,*,#530,.F.);
#844=ORIENTED_EDGE('',*,*,#586,.T.);
#845=ORIENTED_EDGE('',*,*,#567,.F.);
#846=ORIENTED_EDGE('',*,*,#585,.F.);
#847=ORIENTED_EDGE('',*,*,#529,.F.);
#848=ORIENTED_EDGE('',*,*,#584,.T.);
#849=ORIENTED_EDGE('',*,*,#568,.F.);
#850=ORIENTED_EDGE('',*,*,#586,.F.);
#851=PLANE('',#949);
#852=PLANE('',#950);
#853=PLANE('',#951);
#854=PLANE('',#952);
#855=PLANE('',#953);
#856=PLANE('',#954);
#857=PLANE('',#955);
#858=PLANE('',#956);
#859=PLANE('',#957);
#860=PLANE('',#958);
#861=PLANE('',#959);
#862=PLANE('',#960);
#863=PLANE('',#961);
#864=PLANE('',#962);
#865=PLANE('',#963);
#866=PLANE('',#972);
#867=PLANE('',#973);
#868=PLANE('',#974);
#869=PLANE('',#975);
#870=PLANE('',#976);
#871=PLANE('',#977);
#872=PLANE('',#987);
#873=PLANE('',#989);
#874=PLANE('',#996);
#875=PLANE('',#997);
#876=PLANE('',#998);
#877=PLANE('',#999);
#878=PLANE('',#1000);
#879=PLANE('',#1001);
#880=PLANE('',#1002);
#881=PLANE('',#1003);
#882=PLANE('',#1004);
#883=PLANE('',#1005);
#884=PLANE('',#1006);
#885=PLANE('',#1007);
#886=PLANE('',#1008);
#887=PLANE('',#1009);
#888=PLANE('',#1010);
#889=ADVANCED_FACE('',(#41),#851,.F.);
#890=ADVANCED_FACE('',(#42),#852,.F.);
#891=ADVANCED_FACE('',(#43),#853,.F.);
#892=ADVANCED_FACE('',(#44),#854,.F.);
#893=ADVANCED_FACE('',(#45),#855,.F.);
#894=ADVANCED_FACE('',(#46),#856,.F.);
#895=ADVANCED_FACE('',(#47),#857,.F.);
#896=ADVANCED_FACE('',(#48),#858,.F.);
#897=ADVANCED_FACE('',(#49),#859,.F.);
#898=ADVANCED_FACE('',(#50),#860,.T.);
#899=ADVANCED_FACE('',(#51),#861,.T.);
#900=ADVANCED_FACE('',(#52),#862,.T.);
#901=ADVANCED_FACE('',(#53),#863,.T.);
#902=ADVANCED_FACE('',(#54),#864,.T.);
#903=ADVANCED_FACE('',(#55,#23),#865,.T.);
#904=ADVANCED_FACE('',(#56),#866,.T.);
#905=ADVANCED_FACE('',(#57),#867,.F.);
#906=ADVANCED_FACE('',(#58),#868,.F.);
#907=ADVANCED_FACE('',(#59),#869,.F.);
#908=ADVANCED_FACE('',(#60),#870,.T.);
#909=ADVANCED_FACE('',(#61,#24),#871,.F.);
#910=ADVANCED_FACE('',(#62),#15,.F.);
#911=ADVANCED_FACE('',(#63),#872,.T.);
#912=ADVANCED_FACE('',(#64),#16,.F.);
#913=ADVANCED_FACE('',(#65),#873,.T.);
#914=ADVANCED_FACE('',(#66),#17,.F.);
#915=ADVANCED_FACE('',(#67),#18,.F.);
#916=ADVANCED_FACE('',(#68),#19,.F.);
#917=ADVANCED_FACE('',(#69),#20,.F.);
#918=ADVANCED_FACE('',(#70),#21,.F.);
#919=ADVANCED_FACE('',(#71),#22,.F.);
#920=ADVANCED_FACE('',(#72),#874,.T.);
#921=ADVANCED_FACE('',(#73),#875,.T.);
#922=ADVANCED_FACE('',(#74),#876,.T.);
#923=ADVANCED_FACE('',(#75),#877,.T.);
#924=ADVANCED_FACE('',(#76),#878,.T.);
#925=ADVANCED_FACE('',(#77),#879,.T.);
#926=ADVANCED_FACE('',(#78),#880,.T.);
#927=ADVANCED_FACE('',(#79),#881,.T.);
#928=ADVANCED_FACE('',(#80),#882,.T.);
#929=ADVANCED_FACE('',(#81),#883,.T.);
#930=ADVANCED_FACE('',(#82),#884,.T.);
#931=ADVANCED_FACE('',(#83),#885,.F.);
#932=ADVANCED_FACE('',(#84),#886,.F.);
#933=ADVANCED_FACE('',(#85),#887,.F.);
#934=ADVANCED_FACE('',(#86),#888,.F.);
#935=CLOSED_SHELL('',(#889,#890,#891,#892,#893,#894,#895,#896,#897,#898,
#899,#900,#901,#902,#903,#904,#905,#906,#907,#908,#909,#910,#911,#912,#913,
#914,#915,#916,#917,#918,#919,#920,#921,#922,#923,#924,#925,#926,#927,#928,
#929,#930,#931,#932,#933,#934));
#936=DERIVED_UNIT_ELEMENT(#938,1.);
#937=DERIVED_UNIT_ELEMENT(#1525,3.);
#938=(
MASS_UNIT()
NAMED_UNIT(*)
SI_UNIT(.KILO.,.GRAM.)
);
#939=DERIVED_UNIT((#936,#937));
#940=MEASURE_REPRESENTATION_ITEM('density measure',
POSITIVE_RATIO_MEASURE(7850.),#939);
#941=PROPERTY_DEFINITION_REPRESENTATION(#946,#943);
#942=PROPERTY_DEFINITION_REPRESENTATION(#947,#944);
#943=REPRESENTATION('material name',(#945),#1522);
#944=REPRESENTATION('density',(#940),#1522);
#945=DESCRIPTIVE_REPRESENTATION_ITEM('Steel','Steel');
#946=PROPERTY_DEFINITION('material property','material name',#1532);
#947=PROPERTY_DEFINITION('material property','density of part',#1532);
#948=AXIS2_PLACEMENT_3D('placement',#1253,#1011,#1012);
#949=AXIS2_PLACEMENT_3D('',#1254,#1013,#1014);
#950=AXIS2_PLACEMENT_3D('',#1263,#1019,#1020);
#951=AXIS2_PLACEMENT_3D('',#1271,#1025,#1026);
#952=AXIS2_PLACEMENT_3D('',#1279,#1031,#1032);
#953=AXIS2_PLACEMENT_3D('',#1288,#1037,#1038);
#954=AXIS2_PLACEMENT_3D('',#1296,#1043,#1044);
#955=AXIS2_PLACEMENT_3D('',#1304,#1049,#1050);
#956=AXIS2_PLACEMENT_3D('',#1313,#1055,#1056);
#957=AXIS2_PLACEMENT_3D('',#1321,#1061,#1062);
#958=AXIS2_PLACEMENT_3D('',#1329,#1067,#1068);
#959=AXIS2_PLACEMENT_3D('',#1335,#1072,#1073);
#960=AXIS2_PLACEMENT_3D('',#1341,#1077,#1078);
#961=AXIS2_PLACEMENT_3D('',#1347,#1082,#1083);
#962=AXIS2_PLACEMENT_3D('',#1353,#1087,#1088);
#963=AXIS2_PLACEMENT_3D('',#1359,#1092,#1093);
#964=AXIS2_PLACEMENT_3D('',#1361,#1094,#1095);
#965=AXIS2_PLACEMENT_3D('',#1367,#1098,#1099);
#966=AXIS2_PLACEMENT_3D('',#1379,#1105,#1106);
#967=AXIS2_PLACEMENT_3D('',#1384,#1109,#1110);
#968=AXIS2_PLACEMENT_3D('',#1388,#1112,#1113);
#969=AXIS2_PLACEMENT_3D('',#1393,#1116,#1117);
#970=AXIS2_PLACEMENT_3D('',#1395,#1118,#1119);
#971=AXIS2_PLACEMENT_3D('',#1400,#1122,#1123);
#972=AXIS2_PLACEMENT_3D('',#1409,#1128,#1129);
#973=AXIS2_PLACEMENT_3D('',#1413,#1132,#1133);
#974=AXIS2_PLACEMENT_3D('',#1419,#1137,#1138);
#975=AXIS2_PLACEMENT_3D('',#1425,#1142,#1143);
#976=AXIS2_PLACEMENT_3D('',#1431,#1147,#1148);
#977=AXIS2_PLACEMENT_3D('',#1433,#1150,#1151);
#978=AXIS2_PLACEMENT_3D('',#1435,#1152,#1153);
#979=AXIS2_PLACEMENT_3D('',#1440,#1156,#1157);
#980=AXIS2_PLACEMENT_3D('',#1443,#1159,#1160);
#981=AXIS2_PLACEMENT_3D('',#1448,#1163,#1164);
#982=AXIS2_PLACEMENT_3D('',#1451,#1166,#1167);
#983=AXIS2_PLACEMENT_3D('',#1457,#1170,#1171);
#984=AXIS2_PLACEMENT_3D('',#1462,#1174,#1175);
#985=AXIS2_PLACEMENT_3D('',#1467,#1178,#1179);
#986=AXIS2_PLACEMENT_3D('',#1477,#1185,#1186);
#987=AXIS2_PLACEMENT_3D('',#1480,#1189,#1190);
#988=AXIS2_PLACEMENT_3D('',#1481,#1191,#1192);
#989=AXIS2_PLACEMENT_3D('',#1484,#1195,#1196);
#990=AXIS2_PLACEMENT_3D('',#1485,#1197,#1198);
#991=AXIS2_PLACEMENT_3D('',#1487,#1200,#1201);
#992=AXIS2_PLACEMENT_3D('',#1489,#1203,#1204);
#993=AXIS2_PLACEMENT_3D('',#1491,#1206,#1207);
#994=AXIS2_PLACEMENT_3D('',#1493,#1209,#1210);
#995=AXIS2_PLACEMENT_3D('',#1495,#1212,#1213);
#996=AXIS2_PLACEMENT_3D('',#1497,#1215,#1216);
#997=AXIS2_PLACEMENT_3D('',#1498,#1217,#1218);
#998=AXIS2_PLACEMENT_3D('',#1499,#1219,#1220);
#999=AXIS2_PLACEMENT_3D('',#1500,#1221,#1222);
#1000=AXIS2_PLACEMENT_3D('',#1502,#1224,#1225);
#1001=AXIS2_PLACEMENT_3D('',#1504,#1227,#1228);
#1002=AXIS2_PLACEMENT_3D('',#1505,#1229,#1230);
#1003=AXIS2_PLACEMENT_3D('',#1507,#1232,#1233);
#1004=AXIS2_PLACEMENT_3D('',#1508,#1234,#1235);
#1005=AXIS2_PLACEMENT_3D('',#1510,#1237,#1238);
#1006=AXIS2_PLACEMENT_3D('',#1511,#1239,#1240);
#1007=AXIS2_PLACEMENT_3D('',#1512,#1241,#1242);
#1008=AXIS2_PLACEMENT_3D('',#1515,#1245,#1246);
#1009=AXIS2_PLACEMENT_3D('',#1517,#1248,#1249);
#1010=AXIS2_PLACEMENT_3D('',#1519,#1251,#1252);
#1011=DIRECTION('axis',(0.,0.,1.));
#1012=DIRECTION('refdir',(1.,0.,0.));
#1013=DIRECTION('center_axis',(-4.81691202615728E-16,-0.707106781186547,
-0.707106781186548));
#1014=DIRECTION('ref_axis',(-1.,1.62971431867459E-16,5.18242799747509E-16));
#1015=DIRECTION('',(1.,3.83475850529284E-17,-7.19561816667898E-16));
#1016=DIRECTION('',(-7.93420414513452E-18,0.707106781186548,-0.707106781186547));
#1017=DIRECTION('',(-1.,6.8121423161497E-16,0.));
#1018=DIRECTION('',(-7.93420414513452E-18,0.707106781186548,-0.707106781186547));
#1019=DIRECTION('center_axis',(-0.707106781186549,-0.499999999999999,-0.499999999999999));
#1020=DIRECTION('ref_axis',(-0.707106781186546,0.500000000000001,0.500000000000002));
#1021=DIRECTION('',(0.577350269189625,2.21399885530802E-17,-0.816496580927727));
#1022=DIRECTION('',(-0.577350269189625,0.816496580927727,0.));
#1023=DIRECTION('',(-1.29893408435324E-16,-0.707106781186548,0.707106781186547));
#1024=DIRECTION('',(0.577350269189625,-0.816496580927727,0.));
#1025=DIRECTION('center_axis',(0.707106781186547,-0.5,-0.500000000000001));
#1026=DIRECTION('ref_axis',(-0.707106781186548,-0.5,-0.5));
#1027=DIRECTION('',(0.577350269189627,2.21399885530803E-17,0.816496580927725));
#1028=DIRECTION('',(0.577350269189626,0.816496580927726,0.));
#1029=DIRECTION('',(1.29893408435324E-16,0.707106781186548,-0.707106781186547));
#1030=DIRECTION('',(-0.577350269189626,-0.816496580927725,0.));
#1031=DIRECTION('center_axis',(-0.707106781186547,4.38393399803954E-16,
-0.707106781186548));
#1032=DIRECTION('ref_axis',(1.32355261888776E-16,1.,4.87626629768826E-16));
#1033=DIRECTION('',(9.9579925010296E-17,-1.,-7.19561816667898E-16));
#1034=DIRECTION('',(0.707106781186548,5.12320069569092E-17,-0.707106781186547));
#1035=DIRECTION('',(6.19981891657602E-16,1.,0.));
#1036=DIRECTION('',(0.707106781186548,5.12320069569092E-17,-0.707106781186547));
#1037=DIRECTION('center_axis',(-0.499999999999999,0.707106781186548,-0.499999999999999));
#1038=DIRECTION('ref_axis',(0.5,0.707106781186547,0.500000000000001));
#1039=DIRECTION('',(5.7492496510577E-17,-0.577350269189625,-0.816496580927727));
#1040=DIRECTION('',(0.816496580927727,0.577350269189625,0.));
#1041=DIRECTION('',(-0.707106781186547,8.65956056235492E-17,0.707106781186547));
#1042=DIRECTION('',(-0.816496580927727,-0.577350269189625,0.));
#1043=DIRECTION('center_axis',(-0.5,-0.707106781186547,-0.500000000000001));
#1044=DIRECTION('ref_axis',(-0.5,0.707106781186548,-0.5));
#1045=DIRECTION('',(5.74924965105772E-17,-0.577350269189627,0.816496580927725));
#1046=DIRECTION('',(0.816496580927726,-0.577350269189626,0.));
#1047=DIRECTION('',(0.707106781186548,-8.65956056235494E-17,-0.707106781186547));
#1048=DIRECTION('',(-0.816496580927726,0.577350269189626,0.));
#1049=DIRECTION('center_axis',(3.95095596992179E-16,0.707106781186547,-0.707106781186548));
#1050=DIRECTION('ref_axis',(1.,-1.90556933880104E-16,3.6819261782013E-16));
#1051=DIRECTION('',(-1.,-1.60812264967664E-16,-7.19561816667898E-16));
#1052=DIRECTION('',(9.45298097686838E-17,-0.707106781186548,-0.707106781186547));
#1053=DIRECTION('',(1.,-5.58749551700234E-16,0.));
#1054=DIRECTION('',(9.45298097686838E-17,-0.707106781186548,-0.707106781186547));
#1055=DIRECTION('center_axis',(0.707106781186548,0.499999999999999,-0.499999999999999));
#1056=DIRECTION('ref_axis',(0.707106781186547,-0.5,0.500000000000001));
#1057=DIRECTION('',(-0.577350269189625,-9.28450044680738E-17,-0.816496580927727));
#1058=DIRECTION('',(0.577350269189625,-0.816496580927727,0.));
#1059=DIRECTION('',(4.32978028117747E-17,0.707106781186547,0.707106781186547));
#1060=DIRECTION('',(-0.577350269189625,0.816496580927727,0.));
#1061=DIRECTION('center_axis',(-0.707106781186547,0.5,-0.500000000000001));
#1062=DIRECTION('ref_axis',(0.707106781186548,0.499999999999999,-0.5));
#1063=DIRECTION('',(-0.577350269189627,-9.28450044680742E-17,0.816496580927725));
#1064=DIRECTION('',(-0.577350269189626,-0.816496580927726,0.));
#1065=DIRECTION('',(-4.32978028117747E-17,-0.707106781186548,-0.707106781186547));
#1066=DIRECTION('',(0.577350269189626,0.816496580927726,0.));
#1067=DIRECTION('center_axis',(1.,-1.83697019872103E-16,0.));
#1068=DIRECTION('ref_axis',(-1.83697019872103E-16,-1.,0.));
#1069=DIRECTION('',(1.83697019872103E-16,1.,0.));
#1070=DIRECTION('',(0.,0.,1.));
#1071=DIRECTION('',(-1.83697019872103E-16,-1.,0.));
#1072=DIRECTION('center_axis',(-1.,1.83697019872103E-16,0.));
#1073=DIRECTION('ref_axis',(1.83697019872103E-16,1.,0.));
#1074=DIRECTION('',(1.83697019872103E-16,1.,0.));
#1075=DIRECTION('',(0.,0.,-1.));
#1076=DIRECTION('',(-1.83697019872103E-16,-1.,0.));
#1077=DIRECTION('center_axis',(-1.22464679914735E-16,-1.,0.));
#1078=DIRECTION('ref_axis',(-1.,1.22464679914735E-16,0.));
#1079=DIRECTION('',(1.,-1.22464679914735E-16,0.));
#1080=DIRECTION('',(0.,0.,1.));
#1081=DIRECTION('',(-1.,1.22464679914735E-16,0.));
#1082=DIRECTION('center_axis',(1.22464679914735E-16,1.,0.));
#1083=DIRECTION('ref_axis',(1.,-1.22464679914735E-16,0.));
#1084=DIRECTION('',(1.,-1.22464679914735E-16,0.));
#1085=DIRECTION('',(0.,0.,-1.));
#1086=DIRECTION('',(-1.,1.22464679914735E-16,0.));
#1087=DIRECTION('center_axis',(-1.,6.12323399573677E-17,0.));
#1088=DIRECTION('ref_axis',(6.12323399573677E-17,1.,0.));
#1089=DIRECTION('',(-6.12323399573677E-17,-1.,0.));
#1090=DIRECTION('',(0.,0.,1.));
#1091=DIRECTION('',(6.12323399573677E-17,1.,0.));
#1092=DIRECTION('center_axis',(0.,0.,1.));
#1093=DIRECTION('ref_axis',(1.,0.,0.));
#1094=DIRECTION('center_axis',(0.,0.,1.));
#1095=DIRECTION('ref_axis',(0.707106781186548,-0.707106781186548,0.));
#1096=DIRECTION('',(-1.,0.,0.));
#1097=DIRECTION('',(1.77635683940025E-16,-1.,0.));
#1098=DIRECTION('center_axis',(0.,0.,1.));
#1099=DIRECTION('ref_axis',(0.707106781186546,-0.707106781186549,0.));
#1100=DIRECTION('',(-1.,0.,0.));
#1101=DIRECTION('',(-0.816496580927727,-0.577350269189625,0.));
#1102=DIRECTION('',(-4.97517211742867E-16,-1.,0.));
#1103=DIRECTION('',(0.816496580927726,-0.577350269189626,0.));
#1104=DIRECTION('',(1.,0.,0.));
#1105=DIRECTION('center_axis',(0.,0.,1.));
#1106=DIRECTION('ref_axis',(0.707106781186546,0.707106781186549,0.));
#1107=DIRECTION('',(1.77635683940025E-16,-1.,0.));
#1108=DIRECTION('',(1.,0.,0.));
#1109=DIRECTION('center_axis',(0.,0.,1.));
#1110=DIRECTION('ref_axis',(0.707106781186549,0.707106781186546,0.));
#1111=DIRECTION('',(6.12323399573677E-17,1.,0.));
#1112=DIRECTION('center_axis',(0.,0.,1.));
#1113=DIRECTION('ref_axis',(-0.707106781186549,0.707106781186546,0.));
#1114=DIRECTION('',(1.,0.,0.));
#1115=DIRECTION('',(-1.77635683940025E-16,1.,0.));
#1116=DIRECTION('center_axis',(0.,0.,1.));
#1117=DIRECTION('ref_axis',(-0.707106781186548,0.707106781186548,0.));
#1118=DIRECTION('center_axis',(0.,0.,1.));
#1119=DIRECTION('ref_axis',(-0.707106781186554,-0.707106781186541,0.));
#1120=DIRECTION('',(-1.77635683940025E-16,1.,0.));
#1121=DIRECTION('',(-1.,0.,0.));
#1122=DIRECTION('center_axis',(0.,0.,1.));
#1123=DIRECTION('ref_axis',(-0.707106781186548,-0.707106781186548,0.));
#1124=DIRECTION('',(0.,-1.,0.));
#1125=DIRECTION('',(-1.,0.,0.));
#1126=DIRECTION('',(-2.85485920617897E-16,1.,0.));
#1127=DIRECTION('',(1.,0.,0.));
#1128=DIRECTION('center_axis',(1.,-6.12323399573677E-17,0.));
#1129=DIRECTION('ref_axis',(-6.12323399573677E-17,-1.,0.));
#1130=DIRECTION('',(-6.12323399573677E-17,-1.,0.));
#1131=DIRECTION('',(0.,0.,-1.));
#1132=DIRECTION('center_axis',(0.707106781186547,-3.51797794180404E-16,
-0.707106781186548));
#1133=DIRECTION('ref_axis',(-1.5994076390142E-16,-1.,3.37576447841445E-16));
#1134=DIRECTION('',(-2.22044604925031E-16,1.,-7.19561816667898E-16));
#1135=DIRECTION('',(-0.707106781186548,-1.37827612580459E-16,-0.707106781186547));
#1136=DIRECTION('',(-0.707106781186548,-1.37827612580459E-16,-0.707106781186547));
#1137=DIRECTION('center_axis',(0.499999999999999,-0.707106781186548,-0.499999999999999));
#1138=DIRECTION('ref_axis',(-0.5,-0.707106781186547,0.500000000000001));
#1139=DIRECTION('',(-1.28197512425571E-16,0.577350269189625,-0.816496580927727));
#1140=DIRECTION('',(0.707106781186548,0.,0.707106781186548));
#1141=DIRECTION('',(0.816496580927727,0.577350269189625,0.));
#1142=DIRECTION('center_axis',(0.5,0.707106781186547,-0.500000000000001));
#1143=DIRECTION('ref_axis',(0.499999999999999,-0.707106781186548,-0.5));
#1144=DIRECTION('',(-1.28197512425571E-16,0.577350269189627,0.816496580927725));
#1145=DIRECTION('',(-0.816496580927726,0.577350269189626,0.));
#1146=DIRECTION('',(-0.707106781186548,0.,-0.707106781186547));
#1147=DIRECTION('center_axis',(-1.,-2.22044604925031E-16,0.));
#1148=DIRECTION('ref_axis',(-2.22044604925031E-16,1.,0.));
#1149=DIRECTION('',(-2.22044604925031E-16,1.,0.));
#1150=DIRECTION('center_axis',(0.,0.,1.));
#1151=DIRECTION('ref_axis',(1.,0.,0.));
#1152=DIRECTION('center_axis',(0.,0.,-1.));
#1153=DIRECTION('ref_axis',(-0.707106781186548,-0.707106781186548,0.));
#1154=DIRECTION('',(-1.,0.,0.));
#1155=DIRECTION('',(-1.77635683940025E-16,1.,0.));
#1156=DIRECTION('center_axis',(0.,0.,-1.));
#1157=DIRECTION('ref_axis',(-0.707106781186554,-0.707106781186541,0.));
#1158=DIRECTION('',(9.9579925010296E-17,-1.,0.));
#1159=DIRECTION('center_axis',(0.,0.,-1.));
#1160=DIRECTION('ref_axis',(-0.707106781186548,0.707106781186548,0.));
#1161=DIRECTION('',(-1.77635683940025E-16,1.,0.));
#1162=DIRECTION('',(1.,0.,0.));
#1163=DIRECTION('center_axis',(0.,0.,-1.));
#1164=DIRECTION('ref_axis',(-0.707106781186549,0.707106781186546,0.));
#1165=DIRECTION('',(-1.,-1.60812264967664E-16,0.));
#1166=DIRECTION('center_axis',(0.,0.,-1.));
#1167=DIRECTION('ref_axis',(0.707106781186549,0.707106781186546,0.));
#1168=DIRECTION('',(1.,0.,0.));
#1169=DIRECTION('',(1.77635683940025E-16,-1.,0.));
#1170=DIRECTION('center_axis',(0.,0.,-1.));
#1171=DIRECTION('ref_axis',(0.707106781186546,0.707106781186549,0.));
#1172=DIRECTION('',(-1.,0.,0.));
#1173=DIRECTION('',(1.,0.,0.));
#1174=DIRECTION('center_axis',(0.,0.,-1.));
#1175=DIRECTION('ref_axis',(0.707106781186546,-0.707106781186549,0.));
#1176=DIRECTION('',(1.77635683940025E-16,-1.,0.));
#1177=DIRECTION('',(-1.,0.,0.));
#1178=DIRECTION('center_axis',(0.,0.,-1.));
#1179=DIRECTION('ref_axis',(0.707106781186548,-0.707106781186548,0.));
#1180=DIRECTION('',(1.,3.83475850529283E-17,0.));
#1181=DIRECTION('',(0.,1.,0.));
#1182=DIRECTION('',(-1.,0.,0.));
#1183=DIRECTION('',(2.85485920617897E-16,-1.,0.));
#1184=DIRECTION('',(1.,0.,0.));
#1185=DIRECTION('center_axis',(0.,0.,-1.));
#1186=DIRECTION('ref_axis',(0.707106781186546,0.707106781186549,0.));
#1187=DIRECTION('',(0.,0.,-1.));
#1188=DIRECTION('',(0.,0.,1.));
#1189=DIRECTION('center_axis',(0.,-1.,0.));
#1190=DIRECTION('ref_axis',(-1.,0.,0.));
#1191=DIRECTION('center_axis',(0.,0.,1.));
#1192=DIRECTION('ref_axis',(0.707106781186546,-0.707106781186549,0.));
#1193=DIRECTION('',(0.,0.,1.));
#1194=DIRECTION('',(0.,0.,-1.));
#1195=DIRECTION('center_axis',(0.,1.,0.));
#1196=DIRECTION('ref_axis',(1.,0.,0.));
#1197=DIRECTION('center_axis',(0.,0.,-1.));
#1198=DIRECTION('ref_axis',(0.707106781186548,-0.707106781186548,0.));
#1199=DIRECTION('',(0.,0.,1.));
#1200=DIRECTION('center_axis',(0.,0.,1.));
#1201=DIRECTION('ref_axis',(-0.707106781186548,-0.707106781186548,0.));
#1202=DIRECTION('',(0.,0.,-1.));
#1203=DIRECTION('center_axis',(0.,0.,-1.));
#1204=DIRECTION('ref_axis',(-0.707106781186554,-0.707106781186541,0.));
#1205=DIRECTION('',(0.,0.,1.));
#1206=DIRECTION('center_axis',(0.,0.,1.));
#1207=DIRECTION('ref_axis',(-0.707106781186548,0.707106781186548,0.));
#1208=DIRECTION('',(0.,0.,-1.));
#1209=DIRECTION('center_axis',(0.,0.,1.));
#1210=DIRECTION('ref_axis',(0.707106781186549,0.707106781186546,0.));
#1211=DIRECTION('',(0.,0.,-1.));
#1212=DIRECTION('center_axis',(0.,0.,-1.));
#1213=DIRECTION('ref_axis',(-0.707106781186549,0.707106781186546,0.));
#1214=DIRECTION('',(0.,0.,1.));
#1215=DIRECTION('center_axis',(-3.83475850529284E-17,1.,0.));
#1216=DIRECTION('ref_axis',(1.,3.83475850529284E-17,0.));
#1217=DIRECTION('center_axis',(1.,9.9579925010296E-17,0.));
#1218=DIRECTION('ref_axis',(9.9579925010296E-17,-1.,0.));
#1219=DIRECTION('center_axis',(1.60812264967664E-16,-1.,0.));
#1220=DIRECTION('ref_axis',(-1.,-1.60812264967664E-16,0.));
#1221=DIRECTION('center_axis',(0.,1.,0.));
#1222=DIRECTION('ref_axis',(-1.,0.,0.));
#1223=DIRECTION('',(0.,0.,1.));
#1224=DIRECTION('center_axis',(0.,1.,0.));
#1225=DIRECTION('ref_axis',(-1.,0.,0.));
#1226=DIRECTION('',(0.,0.,1.));
#1227=DIRECTION('center_axis',(1.,1.77635683940025E-16,0.));
#1228=DIRECTION('ref_axis',(-1.77635683940025E-16,1.,0.));
#1229=DIRECTION('center_axis',(1.,1.77635683940025E-16,0.));
#1230=DIRECTION('ref_axis',(-1.77635683940025E-16,1.,0.));
#1231=DIRECTION('',(0.,0.,1.));
#1232=DIRECTION('center_axis',(0.,-1.,0.));
#1233=DIRECTION('ref_axis',(1.,0.,0.));
#1234=DIRECTION('center_axis',(0.,-1.,0.));
#1235=DIRECTION('ref_axis',(1.,0.,0.));
#1236=DIRECTION('',(0.,0.,1.));
#1237=DIRECTION('center_axis',(-1.,-1.77635683940025E-16,0.));
#1238=DIRECTION('ref_axis',(1.77635683940025E-16,-1.,0.));
#1239=DIRECTION('center_axis',(-1.,-1.77635683940025E-16,0.));
#1240=DIRECTION('ref_axis',(1.77635683940025E-16,-1.,0.));
#1241=DIRECTION('center_axis',(1.,0.,0.));
#1242=DIRECTION('ref_axis',(0.,-1.,0.));
#1243=DIRECTION('',(0.,0.,-1.));
#1244=DIRECTION('',(0.,0.,-1.));
#1245=DIRECTION('center_axis',(0.,1.,0.));
#1246=DIRECTION('ref_axis',(1.,0.,0.));
#1247=DIRECTION('',(0.,0.,-1.));
#1248=DIRECTION('center_axis',(-1.,-2.85485920617897E-16,0.));
#1249=DIRECTION('ref_axis',(-2.85485920617897E-16,1.,0.));
#1250=DIRECTION('',(0.,0.,-1.));
#1251=DIRECTION('center_axis',(0.,-1.,0.));
#1252=DIRECTION('ref_axis',(-1.,0.,0.));
#1253=CARTESIAN_POINT('',(0.,0.,0.));
#1254=CARTESIAN_POINT('Origin',(51.5,92.857864376269,24.1421356237309));
#1255=CARTESIAN_POINT('',(48.5,115.,1.99999999999999));
#1256=CARTESIAN_POINT('',(51.5,115.,1.99999999999999));
#1257=CARTESIAN_POINT('',(48.25,115.,1.99999999999998));
#1258=CARTESIAN_POINT('',(48.5,107.,10.));
#1259=CARTESIAN_POINT('',(48.5,92.857864376269,24.1421356237309));
#1260=CARTESIAN_POINT('',(51.5,107.,10.));
#1261=CARTESIAN_POINT('',(50.75,107.,10.));
#1262=CARTESIAN_POINT('',(51.5,92.857864376269,24.1421356237309));
#1263=CARTESIAN_POINT('Origin',(55.5,90.0294372515229,21.3137084989848));
#1264=CARTESIAN_POINT('',(52.9142135623731,115.,0.));
#1265=CARTESIAN_POINT('',(44.6454305003384,115.,11.6938251506504));
#1266=CARTESIAN_POINT('',(55.,102.050252531694,10.));
#1267=CARTESIAN_POINT('',(69.3516955092111,81.7538900995188,10.));
#1268=CARTESIAN_POINT('',(55.,112.050252531694,0.));
#1269=CARTESIAN_POINT('',(55.,99.4540584539816,12.5961940777125));
#1270=CARTESIAN_POINT('',(74.0657407171214,85.0872234328521,-2.22044604925031E-15));
#1271=CARTESIAN_POINT('Origin',(48.5,92.857864376269,24.1421356237309));
#1272=CARTESIAN_POINT('',(47.0857864376269,115.,0.));
#1273=CARTESIAN_POINT('',(55.0212361663283,115.,11.2224206298593));
#1274=CARTESIAN_POINT('',(45.,112.050252531694,0.));
#1275=CARTESIAN_POINT('',(27.267592616212,86.9728415160163,0.));
#1276=CARTESIAN_POINT('',(45.,102.050252531694,10.));
#1277=CARTESIAN_POINT('',(45.,95.7040584539816,16.3461940777126));
#1278=CARTESIAN_POINT('',(31.9816378241223,83.639508182683,10.));
#1279=CARTESIAN_POINT('Origin',(92.857864376269,48.5,24.1421356237309));
#1280=CARTESIAN_POINT('',(115.,51.5,1.99999999999999));
#1281=CARTESIAN_POINT('',(115.,48.5,1.99999999999999));
#1282=CARTESIAN_POINT('',(115.,51.75,1.99999999999998));
#1283=CARTESIAN_POINT('',(107.,51.5,10.));
#1284=CARTESIAN_POINT('',(92.857864376269,51.5,24.1421356237309));
#1285=CARTESIAN_POINT('',(107.,48.5,10.));
#1286=CARTESIAN_POINT('',(107.,49.25,10.));
#1287=CARTESIAN_POINT('',(92.857864376269,48.5,24.1421356237309));
#1288=CARTESIAN_POINT('Origin',(90.0294372515229,44.5,21.3137084989848));
#1289=CARTESIAN_POINT('',(115.,47.0857864376269,0.));
#1290=CARTESIAN_POINT('',(115.,55.3545694996616,11.6938251506504));
#1291=CARTESIAN_POINT('',(102.050252531694,45.,10.));
#1292=CARTESIAN_POINT('',(81.7538900995188,30.6483044907889,10.));
#1293=CARTESIAN_POINT('',(112.050252531694,45.,0.));
#1294=CARTESIAN_POINT('',(99.4540584539816,45.,12.5961940777125));
#1295=CARTESIAN_POINT('',(85.0872234328521,25.9342592828786,2.22044604925031E-15));
#1296=CARTESIAN_POINT('Origin',(92.857864376269,51.5,24.1421356237309));
#1297=CARTESIAN_POINT('',(115.,52.9142135623731,0.));
#1298=CARTESIAN_POINT('',(115.,44.9787638336717,11.2224206298593));
#1299=CARTESIAN_POINT('',(112.050252531694,55.,0.));
#1300=CARTESIAN_POINT('',(86.9728415160163,72.7324073837881,0.));
#1301=CARTESIAN_POINT('',(102.050252531694,55.,10.));
#1302=CARTESIAN_POINT('',(95.7040584539816,55.,16.3461940777126));
#1303=CARTESIAN_POINT('',(83.639508182683,68.0183621758777,10.));
#1304=CARTESIAN_POINT('Origin',(48.5,7.14213562373096,24.1421356237309));
#1305=CARTESIAN_POINT('',(51.5,-15.,1.99999999999999));
#1306=CARTESIAN_POINT('',(48.5,-15.,1.99999999999999));
#1307=CARTESIAN_POINT('',(51.75,-15.,1.99999999999999));
#1308=CARTESIAN_POINT('',(51.5,-6.99999999999999,10.));
#1309=CARTESIAN_POINT('',(51.5,7.14213562373096,24.1421356237309));
#1310=CARTESIAN_POINT('',(48.5,-6.99999999999999,10.));
#1311=CARTESIAN_POINT('',(49.25,-6.99999999999999,10.));
#1312=CARTESIAN_POINT('',(48.5,7.14213562373096,24.1421356237309));
#1313=CARTESIAN_POINT('Origin',(44.5,9.97056274847714,21.3137084989848));
#1314=CARTESIAN_POINT('',(47.0857864376269,-15.,0.));
#1315=CARTESIAN_POINT('',(55.3545694996616,-15.,11.6938251506504));
#1316=CARTESIAN_POINT('',(45.,-2.05025253169414,10.));
#1317=CARTESIAN_POINT('',(30.6483044907889,18.2461099004812,10.));
#1318=CARTESIAN_POINT('',(45.,-12.0502525316941,0.));
#1319=CARTESIAN_POINT('',(45.,0.545941546018399,12.5961940777125));
#1320=CARTESIAN_POINT('',(25.9342592828786,14.9127765671479,0.));
#1321=CARTESIAN_POINT('Origin',(51.5,7.14213562373096,24.1421356237309));
#1322=CARTESIAN_POINT('',(52.9142135623731,-15.,0.));
#1323=CARTESIAN_POINT('',(44.9787638336717,-15.,11.2224206298593));
#1324=CARTESIAN_POINT('',(55.,-12.0502525316942,0.));
#1325=CARTESIAN_POINT('',(72.7324073837881,13.0271584839837,0.));
#1326=CARTESIAN_POINT('',(55.,-2.05025253169417,10.));
#1327=CARTESIAN_POINT('',(55.,4.2959415460184,16.3461940777126));
#1328=CARTESIAN_POINT('',(68.0183621758777,16.360491817317,10.));
#1329=CARTESIAN_POINT('Origin',(55.,115.,10.));
#1330=CARTESIAN_POINT('',(55.,102.,10.));
#1331=CARTESIAN_POINT('',(55.,100.,10.));
#1332=CARTESIAN_POINT('',(55.,102.,0.));
#1333=CARTESIAN_POINT('',(55.,102.,5.));
#1334=CARTESIAN_POINT('',(55.,100.,0.));
#1335=CARTESIAN_POINT('Origin',(45.,100.,10.));
#1336=CARTESIAN_POINT('',(45.,102.,0.));
#1337=CARTESIAN_POINT('',(45.,115.,0.));
#1338=CARTESIAN_POINT('',(45.,102.,10.));
#1339=CARTESIAN_POINT('',(45.,102.,5.));
#1340=CARTESIAN_POINT('',(45.,115.,10.));
#1341=CARTESIAN_POINT('Origin',(115.,45.,10.));
#1342=CARTESIAN_POINT('',(102.,45.,10.));
#1343=CARTESIAN_POINT('',(100.,45.,10.));
#1344=CARTESIAN_POINT('',(102.,45.,0.));
#1345=CARTESIAN_POINT('',(102.,45.,5.));
#1346=CARTESIAN_POINT('',(100.,45.,0.));
#1347=CARTESIAN_POINT('Origin',(100.,55.,10.));
#1348=CARTESIAN_POINT('',(102.,55.,0.));
#1349=CARTESIAN_POINT('',(115.,55.,0.));
#1350=CARTESIAN_POINT('',(102.,55.,10.));
#1351=CARTESIAN_POINT('',(102.,55.,5.));
#1352=CARTESIAN_POINT('',(115.,55.,10.));
#1353=CARTESIAN_POINT('Origin',(45.,-15.,10.));
#1354=CARTESIAN_POINT('',(45.,-2.,10.));
#1355=CARTESIAN_POINT('',(45.,2.25755567303006E-15,10.));
#1356=CARTESIAN_POINT('',(45.,-2.,0.));
#1357=CARTESIAN_POINT('',(45.,-2.,5.));
#1358=CARTESIAN_POINT('',(45.,2.25755567303006E-15,0.));
#1359=CARTESIAN_POINT('Origin',(50.,50.,10.));
#1360=CARTESIAN_POINT('',(43.,100.,10.));
#1361=CARTESIAN_POINT('Origin',(43.,102.,10.));
#1362=CARTESIAN_POINT('',(-1.77635683940025E-14,100.,10.));
#1363=CARTESIAN_POINT('',(100.,100.,10.));
#1364=CARTESIAN_POINT('',(-1.01252339845814E-14,57.,10.));
#1365=CARTESIAN_POINT('',(-1.77635683940025E-14,100.,10.));
#1366=CARTESIAN_POINT('',(-2.00000000000001,55.,10.));
#1367=CARTESIAN_POINT('Origin',(-2.00000000000001,57.,10.));
#1368=CARTESIAN_POINT('',(-2.05025253169416,55.,10.));
#1369=CARTESIAN_POINT('',(-9.99200722162641E-15,55.,10.));
#1370=CARTESIAN_POINT('',(-7.,51.5,10.));
#1371=CARTESIAN_POINT('',(18.2461099004812,69.3516955092111,10.));
#1372=CARTESIAN_POINT('',(-7.,48.5,10.));
#1373=CARTESIAN_POINT('',(-7.,50.75,10.));
#1374=CARTESIAN_POINT('',(-2.05025253169418,45.,10.));
#1375=CARTESIAN_POINT('',(16.360491817317,31.9816378241223,10.));
#1376=CARTESIAN_POINT('',(-2.00000000000001,45.,10.));
#1377=CARTESIAN_POINT('',(-15.,45.,10.));
#1378=CARTESIAN_POINT('',(-7.63833440942108E-15,43.,10.));
#1379=CARTESIAN_POINT('Origin',(-2.00000000000001,43.,10.));
#1380=CARTESIAN_POINT('',(0.,0.,10.));
#1381=CARTESIAN_POINT('',(-1.77635683940025E-14,100.,10.));
#1382=CARTESIAN_POINT('',(43.,0.,10.));
#1383=CARTESIAN_POINT('',(0.,0.,10.));
#1384=CARTESIAN_POINT('Origin',(43.,-2.,10.));
#1385=CARTESIAN_POINT('',(55.,-2.,10.));
#1386=CARTESIAN_POINT('',(55.,-15.,10.));
#1387=CARTESIAN_POINT('',(57.,0.,10.));
#1388=CARTESIAN_POINT('Origin',(57.,-2.,10.));
#1389=CARTESIAN_POINT('',(100.,0.,10.));
#1390=CARTESIAN_POINT('',(0.,0.,10.));
#1391=CARTESIAN_POINT('',(100.,43.,10.));
#1392=CARTESIAN_POINT('',(100.,0.,10.));
#1393=CARTESIAN_POINT('Origin',(102.,43.,10.));
#1394=CARTESIAN_POINT('',(100.,57.,10.));
#1395=CARTESIAN_POINT('Origin',(102.,57.,10.));
#1396=CARTESIAN_POINT('',(100.,100.,10.));
#1397=CARTESIAN_POINT('',(100.,0.,10.));
#1398=CARTESIAN_POINT('',(57.,100.,10.));
#1399=CARTESIAN_POINT('',(100.,100.,10.));
#1400=CARTESIAN_POINT('Origin',(57.,102.,10.));
#1401=CARTESIAN_POINT('',(85.,85.,10.));
#1402=CARTESIAN_POINT('',(85.,15.,10.));
#1403=CARTESIAN_POINT('',(85.,67.5,10.));
#1404=CARTESIAN_POINT('',(15.,15.,10.));
#1405=CARTESIAN_POINT('',(67.5,15.,10.));
#1406=CARTESIAN_POINT('',(15.,85.,10.));
#1407=CARTESIAN_POINT('',(15.,32.5,10.));
#1408=CARTESIAN_POINT('',(32.5,85.,10.));
#1409=CARTESIAN_POINT('Origin',(55.,2.75545529808154E-15,10.));
#1410=CARTESIAN_POINT('',(55.,-2.,0.));
#1411=CARTESIAN_POINT('',(55.,-15.,0.));
#1412=CARTESIAN_POINT('',(55.,-2.,5.));
#1413=CARTESIAN_POINT('Origin',(7.14213562373095,51.5,24.1421356237309));
#1414=CARTESIAN_POINT('',(-15.,48.5,1.99999999999999));
#1415=CARTESIAN_POINT('',(-15.,51.5,1.99999999999999));
#1416=CARTESIAN_POINT('',(-15.,48.25,1.99999999999999));
#1417=CARTESIAN_POINT('',(7.14213562373095,48.5,24.1421356237309));
#1418=CARTESIAN_POINT('',(7.14213562373095,51.5,24.1421356237309));
#1419=CARTESIAN_POINT('Origin',(9.97056274847713,55.5,21.3137084989848));
#1420=CARTESIAN_POINT('',(-15.,52.9142135623731,0.));
#1421=CARTESIAN_POINT('',(-15.,44.6454305003384,11.6938251506504));
#1422=CARTESIAN_POINT('',(-12.0502525316942,55.,0.));
#1423=CARTESIAN_POINT('',(0.545941546018387,55.,12.5961940777125));
#1424=CARTESIAN_POINT('',(14.9127765671479,74.0657407171214,0.));
#1425=CARTESIAN_POINT('Origin',(7.14213562373095,48.5,24.1421356237309));
#1426=CARTESIAN_POINT('',(-15.,47.0857864376269,0.));
#1427=CARTESIAN_POINT('',(-15.,55.0212361663283,11.2224206298593));
#1428=CARTESIAN_POINT('',(-12.0502525316942,45.,0.));
#1429=CARTESIAN_POINT('',(13.0271584839837,27.2675926162119,0.));
#1430=CARTESIAN_POINT('',(4.29594154601839,45.,16.3461940777126));
#1431=CARTESIAN_POINT('Origin',(-15.,45.,10.));
#1432=CARTESIAN_POINT('',(-15.,55.,0.));
#1433=CARTESIAN_POINT('Origin',(50.,50.,0.));
#1434=CARTESIAN_POINT('',(57.,100.,0.));
#1435=CARTESIAN_POINT('Origin',(57.,102.,0.));
#1436=CARTESIAN_POINT('',(100.,100.,0.));
#1437=CARTESIAN_POINT('',(100.,100.,0.));
#1438=CARTESIAN_POINT('',(100.,57.,0.));
#1439=CARTESIAN_POINT('',(100.,0.,0.));
#1440=CARTESIAN_POINT('Origin',(102.,57.,0.));
#1441=CARTESIAN_POINT('',(115.,45.,0.));
#1442=CARTESIAN_POINT('',(100.,43.,0.));
#1443=CARTESIAN_POINT('Origin',(102.,43.,0.));
#1444=CARTESIAN_POINT('',(100.,0.,0.));
#1445=CARTESIAN_POINT('',(100.,0.,0.));
#1446=CARTESIAN_POINT('',(57.,0.,0.));
#1447=CARTESIAN_POINT('',(0.,0.,0.));
#1448=CARTESIAN_POINT('Origin',(57.,-2.,0.));
#1449=CARTESIAN_POINT('',(45.,-15.,0.));
#1450=CARTESIAN_POINT('',(43.,0.,0.));
#1451=CARTESIAN_POINT('Origin',(43.,-2.,0.));
#1452=CARTESIAN_POINT('',(0.,0.,0.));
#1453=CARTESIAN_POINT('',(0.,0.,0.));
#1454=CARTESIAN_POINT('',(-7.63833440942108E-15,43.,0.));
#1455=CARTESIAN_POINT('',(-1.77635683940025E-14,100.,0.));
#1456=CARTESIAN_POINT('',(-2.00000000000001,45.,0.));
#1457=CARTESIAN_POINT('Origin',(-2.00000000000001,43.,0.));
#1458=CARTESIAN_POINT('',(-15.,45.,0.));
#1459=CARTESIAN_POINT('',(-2.00000000000001,55.,0.));
#1460=CARTESIAN_POINT('',(-9.99200722162641E-15,55.,0.));
#1461=CARTESIAN_POINT('',(-1.01252339845814E-14,57.,0.));
#1462=CARTESIAN_POINT('Origin',(-2.00000000000001,57.,0.));
#1463=CARTESIAN_POINT('',(-1.77635683940025E-14,100.,0.));
#1464=CARTESIAN_POINT('',(-1.77635683940025E-14,100.,0.));
#1465=CARTESIAN_POINT('',(43.,100.,0.));
#1466=CARTESIAN_POINT('',(100.,100.,0.));
#1467=CARTESIAN_POINT('Origin',(43.,102.,0.));
#1468=CARTESIAN_POINT('',(55.,115.,0.));
#1469=CARTESIAN_POINT('',(85.,15.,0.));
#1470=CARTESIAN_POINT('',(85.,85.,0.));
#1471=CARTESIAN_POINT('',(85.,67.5,0.));
#1472=CARTESIAN_POINT('',(15.,85.,0.));
#1473=CARTESIAN_POINT('',(32.5,85.,0.));
#1474=CARTESIAN_POINT('',(15.,15.,0.));
#1475=CARTESIAN_POINT('',(15.,32.5,0.));
#1476=CARTESIAN_POINT('',(67.5,15.,0.));
#1477=CARTESIAN_POINT('Origin',(-2.00000000000001,43.,5.));
#1478=CARTESIAN_POINT('',(-2.00000000000001,45.,5.));
#1479=CARTESIAN_POINT('',(-7.7715611723761E-15,43.,5.));
#1480=CARTESIAN_POINT('Origin',(-8.88178419700125E-15,45.,10.));
#1481=CARTESIAN_POINT('Origin',(-2.00000000000001,57.,5.));
#1482=CARTESIAN_POINT('',(-2.00000000000001,55.,5.));
#1483=CARTESIAN_POINT('',(-9.99200722162641E-15,57.,5.));
#1484=CARTESIAN_POINT('Origin',(-15.,55.,10.));
#1485=CARTESIAN_POINT('Origin',(43.,102.,5.));
#1486=CARTESIAN_POINT('',(43.,100.,5.));
#1487=CARTESIAN_POINT('Origin',(57.,102.,5.));
#1488=CARTESIAN_POINT('',(57.,100.,5.));
#1489=CARTESIAN_POINT('Origin',(102.,57.,5.));
#1490=CARTESIAN_POINT('',(100.,57.,5.));
#1491=CARTESIAN_POINT('Origin',(102.,43.,5.));
#1492=CARTESIAN_POINT('',(100.,43.,5.));
#1493=CARTESIAN_POINT('Origin',(43.,-2.,5.));
#1494=CARTESIAN_POINT('',(43.,0.,5.));
#1495=CARTESIAN_POINT('Origin',(57.,-2.,5.));
#1496=CARTESIAN_POINT('',(57.,0.,5.));
#1497=CARTESIAN_POINT('Origin',(45.,115.,10.));
#1498=CARTESIAN_POINT('Origin',(115.,55.,10.));
#1499=CARTESIAN_POINT('Origin',(55.,-15.,10.));
#1500=CARTESIAN_POINT('Origin',(100.,100.,0.));
#1501=CARTESIAN_POINT('',(-1.77635683940025E-14,100.,0.));
#1502=CARTESIAN_POINT('Origin',(100.,100.,0.));
#1503=CARTESIAN_POINT('',(100.,100.,0.));
#1504=CARTESIAN_POINT('Origin',(100.,0.,0.));
#1505=CARTESIAN_POINT('Origin',(100.,0.,0.));
#1506=CARTESIAN_POINT('',(100.,0.,0.));
#1507=CARTESIAN_POINT('Origin',(0.,0.,0.));
#1508=CARTESIAN_POINT('Origin',(0.,0.,0.));
#1509=CARTESIAN_POINT('',(0.,0.,0.));
#1510=CARTESIAN_POINT('Origin',(-1.77635683940025E-14,100.,0.));
#1511=CARTESIAN_POINT('Origin',(-1.77635683940025E-14,100.,0.));
#1512=CARTESIAN_POINT('Origin',(85.,85.,10.));
#1513=CARTESIAN_POINT('',(85.,85.,10.));
#1514=CARTESIAN_POINT('',(85.,15.,10.));
#1515=CARTESIAN_POINT('Origin',(15.,85.,10.));
#1516=CARTESIAN_POINT('',(15.,85.,10.));
#1517=CARTESIAN_POINT('Origin',(15.,15.,10.));
#1518=CARTESIAN_POINT('',(15.,15.,10.));
#1519=CARTESIAN_POINT('Origin',(85.,15.,10.));
#1520=UNCERTAINTY_MEASURE_WITH_UNIT(LENGTH_MEASURE(0.01),#1524,
'DISTANCE_ACCURACY_VALUE',
'Maximum model space distance between geometric entities at asserted c
onnectivities');
#1521=UNCERTAINTY_MEASURE_WITH_UNIT(LENGTH_MEASURE(0.01),#1524,
'DISTANCE_ACCURACY_VALUE',
'Maximum model space distance between geometric entities at asserted c
onnectivities');
#1522=(
GEOMETRIC_REPRESENTATION_CONTEXT(3)
GLOBAL_UNCERTAINTY_ASSIGNED_CONTEXT((#1520))
GLOBAL_UNIT_ASSIGNED_CONTEXT((#1524,#1526,#1527))
REPRESENTATION_CONTEXT('','3D')
);
#1523=(
GEOMETRIC_REPRESENTATION_CONTEXT(3)
GLOBAL_UNCERTAINTY_ASSIGNED_CONTEXT((#1521))
GLOBAL_UNIT_ASSIGNED_CONTEXT((#1524,#1526,#1527))
REPRESENTATION_CONTEXT('','3D')
);
#1524=(
LENGTH_UNIT()
NAMED_UNIT(*)
SI_UNIT(.MILLI.,.METRE.)
);
#1525=(
LENGTH_UNIT()
NAMED_UNIT(*)
SI_UNIT($,.METRE.)
);
#1526=(
NAMED_UNIT(*)
PLANE_ANGLE_UNIT()
SI_UNIT($,.RADIAN.)
);
#1527=(
NAMED_UNIT(*)
SI_UNIT($,.STERADIAN.)
SOLID_ANGLE_UNIT()
);
#1528=SHAPE_DEFINITION_REPRESENTATION(#1529,#1530);
#1529=PRODUCT_DEFINITION_SHAPE('',$,#1532);
#1530=SHAPE_REPRESENTATION('',(#948),#1522);
#1531=PRODUCT_DEFINITION_CONTEXT('part definition',#1536,'design');
#1532=PRODUCT_DEFINITION('MODEL-08','MODEL-08 v1',#1533,#1531);
#1533=PRODUCT_DEFINITION_FORMATION('',$,#1538);
#1534=PRODUCT_RELATED_PRODUCT_CATEGORY('MODEL-08 v1','MODEL-08 v1',(#1538));
#1535=APPLICATION_PROTOCOL_DEFINITION('international standard',
'automotive_design',2009,#1536);
#1536=APPLICATION_CONTEXT(
'Core Data for Automotive Mechanical Design Process');
#1537=PRODUCT_CONTEXT('part definition',#1536,'mechanical');
#1538=PRODUCT('MODEL-08','MODEL-08 v1',$,(#1537));
#1539=PRESENTATION_STYLE_ASSIGNMENT((#1541));
#1540=PRESENTATION_STYLE_ASSIGNMENT((#1542));
#1541=SURFACE_STYLE_USAGE(.BOTH.,#1543);
#1542=SURFACE_STYLE_USAGE(.BOTH.,#1544);
#1543=SURFACE_SIDE_STYLE('',(#1545));
#1544=SURFACE_SIDE_STYLE('',(#1546));
#1545=SURFACE_STYLE_FILL_AREA(#1547);
#1546=SURFACE_STYLE_FILL_AREA(#1548);
#1547=FILL_AREA_STYLE('Steel - Satin',(#1549));
#1548=FILL_AREA_STYLE('Aluminum - Bead Blasted',(#1550));
#1549=FILL_AREA_STYLE_COLOUR('Steel - Satin',#1551);
#1550=FILL_AREA_STYLE_COLOUR('Aluminum - Bead Blasted',#1552);
#1551=COLOUR_RGB('Steel - Satin',0.627450980392157,0.627450980392157,0.627450980392157);
#1552=COLOUR_RGB('Aluminum - Bead Blasted',0.96078431372549,0.96078431372549,
0.964705882352941);
ENDSEC;
END-ISO-10303-21;
