ISO-10303-21;
HEADER;
/* Generated by software containing ST-Developer
 * from STEP Tools, Inc. (www.steptools.com) 
 */

FILE_DESCRIPTION(
/* description */ (''),
/* implementation_level */ '2;1');

FILE_NAME(
/* name */ 
'/Volumes/IGEMS/Temp/JJ/Sample parts/Toolpath - Multiple cut.step',
/* time_stamp */ '2019-05-28T13:41:50+02:00',
/* author */ (''),
/* organization */ (''),
/* preprocessor_version */ 'ST-DEVELOPER v18',
/* originating_system */ 'Autodesk Translation Framework v8.2.0.1029',
/* authorisation */ '');

FILE_SCHEMA (('AUTOMOTIVE_DESIGN { 1 0 10303 214 3 1 1 }'));
ENDSEC;

DATA;
#10=MECHANICAL_DESIGN_GEOMETRIC_PRESENTATION_REPRESENTATION('',(#13),#964);
#11=SHAPE_REPRESENTATION_RELATIONSHIP('SRR','None',#971,#12);
#12=ADVANCED_BREP_SHAPE_REPRESENTATION('',(#14),#963);
#13=STYLED_ITEM('',(#981),#14);
#14=MANIFOLD_SOLID_BREP('Body1',#241);
#15=B_SPLINE_SURFACE_WITH_KNOTS('',1,3,((#652,#653,#654,#655,#656,#657,
#658,#659,#660,#661,#662,#663,#664,#665,#666),(#667,#668,#669,#670,#671,
#672,#673,#674,#675,#676,#677,#678,#679,#680,#681)),.UNSPECIFIED.,.F.,.F.,
 .F.,(2,2),(4,3,2,2,2,2,4),(-406.189244074792,545.189244074792),(-56.5613341380478,
0.,89.7960834096058,179.592166819212,269.388250228817,359.184333638423,
760.956805701478),.UNSPECIFIED.);
#16=B_SPLINE_SURFACE_WITH_KNOTS('',1,3,((#814,#815,#816,#817,#818,#819,
#820,#821,#822,#823,#824,#825,#826,#827,#828),(#829,#830,#831,#832,#833,
#834,#835,#836,#837,#838,#839,#840,#841,#842,#843)),.UNSPECIFIED.,.F.,.F.,
 .F.,(2,2),(4,3,2,2,2,2,4),(-394.644012957514,533.644012957514),(-77.3378453727878,
0.,88.5773862915464,177.154772583093,265.732158874639,354.309545166185,
739.65946887838),.UNSPECIFIED.);
#17=CIRCLE('',#259,10.);
#18=CIRCLE('',#260,10.);
#19=CIRCLE('',#265,9.99999999999989);
#20=CIRCLE('',#266,9.99999999999989);
#21=CYLINDRICAL_SURFACE('',#258,10.);
#22=CYLINDRICAL_SURFACE('',#264,9.99999999999989);
#23=CYLINDRICAL_SURFACE('',#269,704.);
#24=FACE_OUTER_BOUND('',#37,.T.);
#25=FACE_OUTER_BOUND('',#38,.T.);
#26=FACE_OUTER_BOUND('',#39,.T.);
#27=FACE_OUTER_BOUND('',#40,.T.);
#28=FACE_OUTER_BOUND('',#41,.T.);
#29=FACE_OUTER_BOUND('',#42,.T.);
#30=FACE_OUTER_BOUND('',#43,.T.);
#31=FACE_OUTER_BOUND('',#44,.T.);
#32=FACE_OUTER_BOUND('',#45,.T.);
#33=FACE_OUTER_BOUND('',#46,.T.);
#34=FACE_OUTER_BOUND('',#47,.T.);
#35=FACE_OUTER_BOUND('',#48,.T.);
#36=FACE_OUTER_BOUND('',#49,.T.);
#37=EDGE_LOOP('',(#154,#155,#156,#157,#158));
#38=EDGE_LOOP('',(#159,#160,#161,#162));
#39=EDGE_LOOP('',(#163,#164,#165,#166));
#40=EDGE_LOOP('',(#167,#168,#169,#170));
#41=EDGE_LOOP('',(#171,#172,#173,#174));
#42=EDGE_LOOP('',(#175,#176,#177,#178));
#43=EDGE_LOOP('',(#179,#180,#181,#182));
#44=EDGE_LOOP('',(#183,#184,#185,#186,#187));
#45=EDGE_LOOP('',(#188,#189,#190,#191,#192));
#46=EDGE_LOOP('',(#193,#194,#195,#196));
#47=EDGE_LOOP('',(#197,#198,#199,#200));
#48=EDGE_LOOP('',(#201,#202,#203,#204,#205,#206,#207,#208,#209));
#49=EDGE_LOOP('',(#210,#211,#212,#213,#214,#215,#216,#217,#218,#219));
#50=B_SPLINE_CURVE_WITH_KNOTS('',3,(#342,#343,#344,#345,#346,#347),
 .UNSPECIFIED.,.F.,.F.,(4,2,4),(-49.3073141682926,-47.0699136130281,-46.5773074673954),
 .UNSPECIFIED.);
#51=B_SPLINE_CURVE_WITH_KNOTS('',3,(#391,#392,#393,#394),.UNSPECIFIED.,
 .F.,.F.,(4,4),(-47.4174861564204,-45.6571115008486),.UNSPECIFIED.);
#52=B_SPLINE_CURVE_WITH_KNOTS('',3,(#397,#398,#399,#400,#401,#402,#403,
#404,#405,#406,#407,#408,#409,#410,#411,#412,#413,#414,#415,#416,#417,#418,
#419,#420,#421,#422,#423,#424,#425,#426,#427,#428,#429,#430,#431,#432,#433,
#434,#435,#436,#437,#438,#439,#440,#441,#442,#443,#444,#445,#446,#447,#448,
#449,#450,#451,#452,#453,#454,#455,#456,#457,#458,#459,#460,#461,#462,#463,
#464,#465,#466,#467,#468,#469,#470,#471,#472,#473,#474,#475,#476,#477,#478,
#479,#480,#481,#482,#483,#484,#485,#486,#487,#488,#489,#490,#491,#492,#493,
#494,#495,#496,#497,#498,#499,#500,#501,#502,#503,#504,#505,#506,#507,#508),
 .UNSPECIFIED.,.F.,.F.,(4,3,3,3,3,3,3,3,3,3,3,3,3,3,3,3,3,3,3,3,3,3,3,3,
3,3,3,3,3,3,3,3,3,3,3,3,3,4),(0.,11.1177447802279,22.2377332536378,33.3592386935786,
44.4815162899696,55.6038048773376,77.845298841053,88.2007470609534,88.9629295243344,
100.080811604254,111.200828048315,122.322268394926,133.444410259183,158.913361774953,
166.80767472227,177.049112676185,177.925232472838,189.044174221102,200.163115969367,
211.284500094888,244.649850784143,255.769629341663,266.269460891557,266.88720777859,
275.227771932225,279.670796325387,314.19377161414,333.611721007671,344.731527341195,
350.290660331775,353.069995704322,354.602988696345,355.154387115629,355.501776133481,
355.574013363985,355.588622980599,355.675470848872,355.849171548317),
 .UNSPECIFIED.);
#53=B_SPLINE_CURVE_WITH_KNOTS('',3,(#509,#510,#511,#512,#513,#514,#515,
#516,#517,#518,#519,#520,#521,#522,#523,#524,#525,#526,#527,#528,#529,#530,
#531,#532,#533,#534,#535,#536,#537,#538,#539,#540,#541,#542,#543,#544,#545,
#546,#547,#548,#549,#550,#551,#552,#553,#554,#555,#556,#557,#558,#559,#560,
#561,#562,#563,#564,#565,#566,#567,#568,#569,#570,#571,#572,#573,#574,#575,
#576,#577,#578,#579,#580,#581,#582,#583,#584,#585,#586,#587,#588,#589,#590,
#591,#592,#593,#594,#595,#596,#597,#598,#599,#600,#601,#602,#603,#604,#605,
#606,#607,#608,#609,#610,#611,#612,#613,#614,#615,#616,#617,#618,#619,#620,
#621,#622,#623,#624,#625,#626,#627,#628,#629,#630,#631,#632,#633,#634,#635,
#636,#637,#638,#639,#640,#641,#642,#643,#644,#645,#646,#647,#648,#649,#650),
 .UNSPECIFIED.,.F.,.F.,(4,3,3,3,3,3,3,3,3,3,3,3,3,3,3,3,3,3,3,3,3,3,3,3,
3,3,3,3,3,3,3,3,3,3,3,3,3,3,3,3,3,3,3,3,3,3,3,4),(0.,11.2315232578765,33.7015972168807,
44.9383801365025,56.1751801033354,67.4111637390329,78.6455216195996,89.8774703968585,
91.920878467478,95.4926628584087,101.108611846871,112.343641975446,123.57867210402,
134.815764088672,146.052976766288,157.289405549176,168.524177544036,179.756454128795,
182.587656329075,185.371638808308,190.987548578857,202.221718549005,219.949598910642,
224.695663222338,235.93334183812,247.170154126894,258.405147089128,269.637411494715,
271.797879130396,275.252640143347,280.868755960753,292.103488352582,303.340538152544,
321.115493162898,337.053946284363,347.936336859055,349.237378915422,351.764456229661,
353.532399439293,354.728638706832,356.559855141803,357.846146718409,358.818727433747,
359.169666602545,359.345134702329,359.413982980918,359.432868430899,359.52060345499),
 .UNSPECIFIED.);
#54=B_SPLINE_CURVE_WITH_KNOTS('',3,(#684,#685,#686,#687,#688,#689,#690,
#691,#692,#693,#694,#695,#696,#697,#698,#699,#700,#701,#702,#703,#704,#705,
#706,#707,#708,#709,#710,#711,#712,#713,#714,#715,#716,#717,#718,#719,#720,
#721,#722,#723,#724,#725,#726,#727,#728,#729,#730,#731,#732,#733,#734,#735,
#736,#737,#738,#739,#740,#741,#742,#743,#744,#745,#746,#747,#748,#749,#750,
#751,#752,#753,#754,#755,#756,#757,#758,#759,#760,#761,#762,#763,#764,#765,
#766,#767,#768,#769,#770,#771,#772,#773,#774,#775,#776,#777,#778,#779,#780,
#781,#782,#783,#784,#785,#786,#787,#788,#789,#790,#791,#792,#793,#794,#795,
#796,#797,#798,#799,#800,#801,#802,#803,#804,#805,#806,#807,#808,#809,#810,
#811,#812,#813),.UNSPECIFIED.,.F.,.F.,(4,3,3,3,3,3,3,3,3,3,3,3,3,3,3,3,
3,3,3,3,3,3,3,3,3,3,3,3,3,3,3,3,3,3,3,3,3,3,3,3,3,3,3,4),(0.,11.0780135182871,
22.1586833769394,33.2411107517649,44.3244154015303,55.4077377826709,66.4902411802754,
77.5711138608542,88.6495712518209,90.7465221767989,94.1880011282194,99.7271851518183,
110.807697305109,121.890242267085,132.973850786216,144.05758100838,155.140521073654,
166.221791746708,177.30054908749,180.044950329838,188.37813893356,199.458823512557,
210.54173270845,221.625790717728,232.709956417821,243.793226619816,254.874639373299,
265.953277332873,267.66865550353,271.49177595635,277.031205521431,288.112530686234,
299.196119829782,310.280777895567,321.365352161907,332.448736389714,343.529875050506,
349.069287368466,351.838651339125,353.223241354208,353.396310662468,353.456586778218,
353.56937918467,354.607789871091),.UNSPECIFIED.);
#55=B_SPLINE_CURVE_WITH_KNOTS('',3,(#844,#845,#846,#847,#848,#849,#850,
#851,#852,#853,#854,#855,#856,#857,#858,#859,#860,#861,#862,#863,#864,#865,
#866,#867,#868,#869,#870,#871,#872,#873,#874,#875,#876,#877,#878,#879,#880,
#881,#882,#883,#884,#885,#886,#887,#888,#889,#890,#891,#892,#893,#894,#895,
#896,#897,#898,#899,#900,#901,#902,#903,#904,#905,#906,#907,#908,#909,#910,
#911,#912,#913,#914,#915,#916,#917,#918,#919,#920,#921,#922,#923,#924,#925,
#926,#927,#928,#929,#930,#931,#932,#933,#934,#935,#936,#937,#938,#939,#940,
#941,#942,#943,#944,#945,#946,#947,#948,#949,#950,#951,#952,#953,#954,#955,
#956,#957,#958),.UNSPECIFIED.,.F.,.F.,(4,3,3,3,3,3,3,3,3,3,3,3,3,3,3,3,
3,3,3,3,3,3,3,3,3,3,3,3,3,3,3,3,3,3,3,3,3,3,4),(0.,10.788490796143,21.5791703734245,
32.3713497983416,43.1643221891982,53.9573643369375,64.7497383106762,75.5406930516002,
86.3294659589431,87.24555134976,91.7232943468086,97.1177292970571,107.908151570845,
118.700085289012,129.492849726407,140.285753267619,151.078094836108,161.869165316572,
172.658248973815,175.277546036146,178.05200702382,183.446244020884,194.236323967986,
205.027992961402,215.82058206282,226.613416372264,237.405816359831,248.197099194356,
258.986580071831,263.806639937079,264.380438416495,269.774423513387,280.564101913883,
291.355499706426,302.147944835115,312.940763909507,323.733283507912,334.524831480429,
345.314738254868),.UNSPECIFIED.);
#56=ELLIPSE('',#256,1719.50191817315,704.);
#57=ELLIPSE('',#268,2253.22730934897,704.);
#58=ELLIPSE('',#270,831.07005364952,704.);
#59=LINE('',#335,#79);
#60=LINE('',#337,#80);
#61=LINE('',#339,#81);
#62=LINE('',#350,#82);
#63=LINE('',#352,#83);
#64=LINE('',#353,#84);
#65=LINE('',#358,#85);
#66=LINE('',#362,#86);
#67=LINE('',#364,#87);
#68=LINE('',#365,#88);
#69=LINE('',#368,#89);
#70=LINE('',#370,#90);
#71=LINE('',#371,#91);
#72=LINE('',#374,#92);
#73=LINE('',#376,#93);
#74=LINE('',#377,#94);
#75=LINE('',#382,#95);
#76=LINE('',#388,#96);
#77=LINE('',#390,#97);
#78=LINE('',#683,#98);
#79=VECTOR('',#277,1.);
#80=VECTOR('',#278,1.);
#81=VECTOR('',#279,1.);
#82=VECTOR('',#284,1.);
#83=VECTOR('',#285,1.);
#84=VECTOR('',#286,1.);
#85=VECTOR('',#291,1.);
#86=VECTOR('',#296,1.);
#87=VECTOR('',#297,1.);
#88=VECTOR('',#298,1.);
#89=VECTOR('',#301,1.);
#90=VECTOR('',#302,1.);
#91=VECTOR('',#303,1.);
#92=VECTOR('',#306,1.);
#93=VECTOR('',#307,1.);
#94=VECTOR('',#308,1.);
#95=VECTOR('',#313,1.);
#96=VECTOR('',#320,0.999999999999999);
#97=VECTOR('',#321,0.999999999999999);
#98=VECTOR('',#326,1.);
#99=VERTEX_POINT('',#333);
#100=VERTEX_POINT('',#334);
#101=VERTEX_POINT('',#336);
#102=VERTEX_POINT('',#338);
#103=VERTEX_POINT('',#340);
#104=VERTEX_POINT('',#349);
#105=VERTEX_POINT('',#351);
#106=VERTEX_POINT('',#355);
#107=VERTEX_POINT('',#357);
#108=VERTEX_POINT('',#361);
#109=VERTEX_POINT('',#363);
#110=VERTEX_POINT('',#367);
#111=VERTEX_POINT('',#369);
#112=VERTEX_POINT('',#373);
#113=VERTEX_POINT('',#375);
#114=VERTEX_POINT('',#379);
#115=VERTEX_POINT('',#381);
#116=VERTEX_POINT('',#385);
#117=VERTEX_POINT('',#386);
#118=VERTEX_POINT('',#389);
#119=VERTEX_POINT('',#396);
#120=VERTEX_POINT('',#682);
#121=EDGE_CURVE('',#99,#100,#59,.T.);
#122=EDGE_CURVE('',#100,#101,#60,.T.);
#123=EDGE_CURVE('',#102,#101,#61,.T.);
#124=EDGE_CURVE('',#102,#103,#56,.T.);
#125=EDGE_CURVE('',#103,#99,#50,.T.);
#126=EDGE_CURVE('',#104,#100,#62,.T.);
#127=EDGE_CURVE('',#104,#105,#63,.T.);
#128=EDGE_CURVE('',#105,#101,#64,.T.);
#129=EDGE_CURVE('',#106,#104,#17,.T.);
#130=EDGE_CURVE('',#106,#107,#65,.T.);
#131=EDGE_CURVE('',#107,#105,#18,.T.);
#132=EDGE_CURVE('',#106,#108,#66,.T.);
#133=EDGE_CURVE('',#108,#109,#67,.T.);
#134=EDGE_CURVE('',#107,#109,#68,.T.);
#135=EDGE_CURVE('',#108,#110,#69,.T.);
#136=EDGE_CURVE('',#110,#111,#70,.T.);
#137=EDGE_CURVE('',#109,#111,#71,.T.);
#138=EDGE_CURVE('',#112,#110,#72,.T.);
#139=EDGE_CURVE('',#112,#113,#73,.T.);
#140=EDGE_CURVE('',#113,#111,#74,.T.);
#141=EDGE_CURVE('',#114,#112,#19,.T.);
#142=EDGE_CURVE('',#114,#115,#75,.T.);
#143=EDGE_CURVE('',#115,#113,#20,.T.);
#144=EDGE_CURVE('',#116,#117,#57,.T.);
#145=EDGE_CURVE('',#115,#117,#76,.T.);
#146=EDGE_CURVE('',#114,#118,#77,.T.);
#147=EDGE_CURVE('',#116,#118,#51,.F.);
#148=EDGE_CURVE('',#119,#116,#52,.T.);
#149=EDGE_CURVE('',#119,#103,#53,.T.);
#150=EDGE_CURVE('',#117,#102,#58,.T.);
#151=EDGE_CURVE('',#119,#120,#78,.T.);
#152=EDGE_CURVE('',#120,#99,#54,.T.);
#153=EDGE_CURVE('',#120,#118,#55,.T.);
#154=ORIENTED_EDGE('',*,*,#121,.T.);
#155=ORIENTED_EDGE('',*,*,#122,.T.);
#156=ORIENTED_EDGE('',*,*,#123,.F.);
#157=ORIENTED_EDGE('',*,*,#124,.T.);
#158=ORIENTED_EDGE('',*,*,#125,.T.);
#159=ORIENTED_EDGE('',*,*,#126,.F.);
#160=ORIENTED_EDGE('',*,*,#127,.T.);
#161=ORIENTED_EDGE('',*,*,#128,.T.);
#162=ORIENTED_EDGE('',*,*,#122,.F.);
#163=ORIENTED_EDGE('',*,*,#129,.F.);
#164=ORIENTED_EDGE('',*,*,#130,.T.);
#165=ORIENTED_EDGE('',*,*,#131,.T.);
#166=ORIENTED_EDGE('',*,*,#127,.F.);
#167=ORIENTED_EDGE('',*,*,#132,.T.);
#168=ORIENTED_EDGE('',*,*,#133,.T.);
#169=ORIENTED_EDGE('',*,*,#134,.F.);
#170=ORIENTED_EDGE('',*,*,#130,.F.);
#171=ORIENTED_EDGE('',*,*,#135,.T.);
#172=ORIENTED_EDGE('',*,*,#136,.T.);
#173=ORIENTED_EDGE('',*,*,#137,.F.);
#174=ORIENTED_EDGE('',*,*,#133,.F.);
#175=ORIENTED_EDGE('',*,*,#138,.F.);
#176=ORIENTED_EDGE('',*,*,#139,.T.);
#177=ORIENTED_EDGE('',*,*,#140,.T.);
#178=ORIENTED_EDGE('',*,*,#136,.F.);
#179=ORIENTED_EDGE('',*,*,#141,.F.);
#180=ORIENTED_EDGE('',*,*,#142,.T.);
#181=ORIENTED_EDGE('',*,*,#143,.T.);
#182=ORIENTED_EDGE('',*,*,#139,.F.);
#183=ORIENTED_EDGE('',*,*,#144,.T.);
#184=ORIENTED_EDGE('',*,*,#145,.F.);
#185=ORIENTED_EDGE('',*,*,#142,.F.);
#186=ORIENTED_EDGE('',*,*,#146,.T.);
#187=ORIENTED_EDGE('',*,*,#147,.F.);
#188=ORIENTED_EDGE('',*,*,#148,.F.);
#189=ORIENTED_EDGE('',*,*,#149,.T.);
#190=ORIENTED_EDGE('',*,*,#124,.F.);
#191=ORIENTED_EDGE('',*,*,#150,.F.);
#192=ORIENTED_EDGE('',*,*,#144,.F.);
#193=ORIENTED_EDGE('',*,*,#149,.F.);
#194=ORIENTED_EDGE('',*,*,#151,.T.);
#195=ORIENTED_EDGE('',*,*,#152,.T.);
#196=ORIENTED_EDGE('',*,*,#125,.F.);
#197=ORIENTED_EDGE('',*,*,#148,.T.);
#198=ORIENTED_EDGE('',*,*,#147,.T.);
#199=ORIENTED_EDGE('',*,*,#153,.F.);
#200=ORIENTED_EDGE('',*,*,#151,.F.);
#201=ORIENTED_EDGE('',*,*,#123,.T.);
#202=ORIENTED_EDGE('',*,*,#128,.F.);
#203=ORIENTED_EDGE('',*,*,#131,.F.);
#204=ORIENTED_EDGE('',*,*,#134,.T.);
#205=ORIENTED_EDGE('',*,*,#137,.T.);
#206=ORIENTED_EDGE('',*,*,#140,.F.);
#207=ORIENTED_EDGE('',*,*,#143,.F.);
#208=ORIENTED_EDGE('',*,*,#145,.T.);
#209=ORIENTED_EDGE('',*,*,#150,.T.);
#210=ORIENTED_EDGE('',*,*,#121,.F.);
#211=ORIENTED_EDGE('',*,*,#152,.F.);
#212=ORIENTED_EDGE('',*,*,#153,.T.);
#213=ORIENTED_EDGE('',*,*,#146,.F.);
#214=ORIENTED_EDGE('',*,*,#141,.T.);
#215=ORIENTED_EDGE('',*,*,#138,.T.);
#216=ORIENTED_EDGE('',*,*,#135,.F.);
#217=ORIENTED_EDGE('',*,*,#132,.F.);
#218=ORIENTED_EDGE('',*,*,#129,.T.);
#219=ORIENTED_EDGE('',*,*,#126,.T.);
#220=PLANE('',#255);
#221=PLANE('',#257);
#222=PLANE('',#261);
#223=PLANE('',#262);
#224=PLANE('',#263);
#225=PLANE('',#267);
#226=PLANE('',#271);
#227=PLANE('',#272);
#228=ADVANCED_FACE('',(#24),#220,.T.);
#229=ADVANCED_FACE('',(#25),#221,.T.);
#230=ADVANCED_FACE('',(#26),#21,.F.);
#231=ADVANCED_FACE('',(#27),#222,.T.);
#232=ADVANCED_FACE('',(#28),#223,.T.);
#233=ADVANCED_FACE('',(#29),#224,.T.);
#234=ADVANCED_FACE('',(#30),#22,.F.);
#235=ADVANCED_FACE('',(#31),#225,.T.);
#236=ADVANCED_FACE('',(#32),#23,.T.);
#237=ADVANCED_FACE('',(#33),#15,.T.);
#238=ADVANCED_FACE('',(#34),#16,.F.);
#239=ADVANCED_FACE('',(#35),#226,.T.);
#240=ADVANCED_FACE('',(#36),#227,.F.);
#241=CLOSED_SHELL('',(#228,#229,#230,#231,#232,#233,#234,#235,#236,#237,
#238,#239,#240));
#242=DERIVED_UNIT_ELEMENT(#244,1.);
#243=DERIVED_UNIT_ELEMENT(#966,3.);
#244=(
MASS_UNIT()
NAMED_UNIT(*)
SI_UNIT(.KILO.,.GRAM.)
);
#245=DERIVED_UNIT((#242,#243));
#246=MEASURE_REPRESENTATION_ITEM('density measure',
POSITIVE_RATIO_MEASURE(7850.),#245);
#247=PROPERTY_DEFINITION_REPRESENTATION(#252,#249);
#248=PROPERTY_DEFINITION_REPRESENTATION(#253,#250);
#249=REPRESENTATION('material name',(#251),#963);
#250=REPRESENTATION('density',(#246),#963);
#251=DESCRIPTIVE_REPRESENTATION_ITEM('Steel','Steel');
#252=PROPERTY_DEFINITION('material property','material name',#973);
#253=PROPERTY_DEFINITION('material property','density of part',#973);
#254=AXIS2_PLACEMENT_3D('placement',#331,#273,#274);
#255=AXIS2_PLACEMENT_3D('',#332,#275,#276);
#256=AXIS2_PLACEMENT_3D('',#341,#280,#281);
#257=AXIS2_PLACEMENT_3D('',#348,#282,#283);
#258=AXIS2_PLACEMENT_3D('',#354,#287,#288);
#259=AXIS2_PLACEMENT_3D('',#356,#289,#290);
#260=AXIS2_PLACEMENT_3D('',#359,#292,#293);
#261=AXIS2_PLACEMENT_3D('',#360,#294,#295);
#262=AXIS2_PLACEMENT_3D('',#366,#299,#300);
#263=AXIS2_PLACEMENT_3D('',#372,#304,#305);
#264=AXIS2_PLACEMENT_3D('',#378,#309,#310);
#265=AXIS2_PLACEMENT_3D('',#380,#311,#312);
#266=AXIS2_PLACEMENT_3D('',#383,#314,#315);
#267=AXIS2_PLACEMENT_3D('',#384,#316,#317);
#268=AXIS2_PLACEMENT_3D('',#387,#318,#319);
#269=AXIS2_PLACEMENT_3D('',#395,#322,#323);
#270=AXIS2_PLACEMENT_3D('',#651,#324,#325);
#271=AXIS2_PLACEMENT_3D('',#959,#327,#328);
#272=AXIS2_PLACEMENT_3D('',#960,#329,#330);
#273=DIRECTION('axis',(0.,0.,1.));
#274=DIRECTION('refdir',(1.,0.,0.));
#275=DIRECTION('center_axis',(0.94085334089448,0.338814094936583,0.));
#276=DIRECTION('ref_axis',(0.338814094936583,-0.94085334089448,0.));
#277=DIRECTION('',(-0.338814094936583,0.94085334089448,0.));
#278=DIRECTION('',(0.,0.,1.));
#279=DIRECTION('',(-0.338814094936583,0.94085334089448,0.));
#280=DIRECTION('center_axis',(0.94085334089448,0.338814094936583,0.));
#281=DIRECTION('ref_axis',(-0.125824016594167,0.349400890182985,-0.928486582987309));
#282=DIRECTION('center_axis',(0.16788069211606,0.985807320532077,0.));
#283=DIRECTION('ref_axis',(0.985807320532077,-0.16788069211606,0.));
#284=DIRECTION('',(0.985807320532077,-0.16788069211606,0.));
#285=DIRECTION('',(0.,0.,1.));
#286=DIRECTION('',(0.985807320532077,-0.16788069211606,0.));
#287=DIRECTION('center_axis',(0.,0.,1.));
#288=DIRECTION('ref_axis',(-1.,1.22464679914735E-16,0.));
#289=DIRECTION('center_axis',(0.,0.,1.));
#290=DIRECTION('ref_axis',(-1.,1.22464679914735E-16,0.));
#291=DIRECTION('',(0.,0.,1.));
#292=DIRECTION('center_axis',(0.,0.,1.));
#293=DIRECTION('ref_axis',(-1.,1.22464679914735E-16,0.));
#294=DIRECTION('center_axis',(1.,-1.22464679914735E-16,0.));
#295=DIRECTION('ref_axis',(-1.22464679914735E-16,-1.,0.));
#296=DIRECTION('',(1.22464679914735E-16,1.,0.));
#297=DIRECTION('',(0.,0.,1.));
#298=DIRECTION('',(1.22464679914735E-16,1.,0.));
#299=DIRECTION('center_axis',(1.22464679914735E-16,1.,0.));
#300=DIRECTION('ref_axis',(1.,-1.22464679914735E-16,0.));
#301=DIRECTION('',(-1.,1.22464679914735E-16,0.));
#302=DIRECTION('',(0.,0.,1.));
#303=DIRECTION('',(-1.,1.22464679914735E-16,0.));
#304=DIRECTION('center_axis',(-1.,1.22464679914735E-16,0.));
#305=DIRECTION('ref_axis',(1.22464679914735E-16,1.,0.));
#306=DIRECTION('',(1.22464679914735E-16,1.,0.));
#307=DIRECTION('',(0.,0.,1.));
#308=DIRECTION('',(1.22464679914735E-16,1.,0.));
#309=DIRECTION('center_axis',(0.,0.,1.));
#310=DIRECTION('ref_axis',(-1.,1.22464679914735E-16,0.));
#311=DIRECTION('center_axis',(0.,0.,1.));
#312=DIRECTION('ref_axis',(-1.,1.22464679914735E-16,0.));
#313=DIRECTION('',(0.,0.,1.));
#314=DIRECTION('center_axis',(0.,0.,1.));
#315=DIRECTION('ref_axis',(-1.,1.22464679914735E-16,0.));
#316=DIRECTION('center_axis',(-0.279075473445654,0.960269170660542,0.));
#317=DIRECTION('ref_axis',(0.960269170660542,0.279075473445654,0.));
#318=DIRECTION('center_axis',(-0.279075473445654,0.960269170660542,0.));
#319=DIRECTION('ref_axis',(-0.434560758496582,-0.126292974015728,-0.891743815167304));
#320=DIRECTION('',(-0.960269170660542,-0.279075473445654,0.));
#321=DIRECTION('',(-0.960269170660542,-0.279075473445654,0.));
#322=DIRECTION('center_axis',(-0.5,0.180056805991955,-0.847100670886274));
#323=DIRECTION('ref_axis',(0.866025403784439,0.10395584540888,-0.489073800366903));
#324=DIRECTION('center_axis',(0.,0.,1.));
#325=DIRECTION('ref_axis',(-0.940853340894461,0.338814094936634,0.));
#326=DIRECTION('',(6.98092845112559E-17,0.5,-0.866025403784439));
#327=DIRECTION('center_axis',(0.,0.,1.));
#328=DIRECTION('ref_axis',(-1.,1.22464679914735E-16,0.));
#329=DIRECTION('center_axis',(0.,0.,1.));
#330=DIRECTION('ref_axis',(1.,0.,0.));
#331=CARTESIAN_POINT('',(0.,0.,0.));
#332=CARTESIAN_POINT('Origin',(121.152002044726,409.267998774937,0.));
#333=CARTESIAN_POINT('',(136.781054777317,365.867660069351,-3.5527136788005E-14));
#334=CARTESIAN_POINT('',(121.152002044726,409.267998774938,0.));
#335=CARTESIAN_POINT('',(140.20932431601,356.347693523774,0.));
#336=CARTESIAN_POINT('',(121.152002044726,409.267998774937,25.));
#337=CARTESIAN_POINT('',(121.152002044726,409.267998774937,0.));
#338=CARTESIAN_POINT('',(143.467954126455,347.298799780233,25.));
#339=CARTESIAN_POINT('',(140.20932431601,356.347693523774,25.));
#340=CARTESIAN_POINT('',(142.67314295268,349.505912056263,19.2884538306111));
#341=CARTESIAN_POINT('Origin',(-73.4605113410139,949.687763286556,319.526885897388));
#342=CARTESIAN_POINT('Ctrl Pts',(142.67314295268,349.505912056263,19.288453830611));
#343=CARTESIAN_POINT('Ctrl Pts',(141.057748200321,353.991704035798,13.9945423035442));
#344=CARTESIAN_POINT('Ctrl Pts',(139.447286119949,358.463798471496,8.72140346423524));
#345=CARTESIAN_POINT('Ctrl Pts',(137.489078753155,363.901547286393,2.31547362946207));
#346=CARTESIAN_POINT('Ctrl Pts',(137.135288312979,364.883988461631,1.15834308785018));
#347=CARTESIAN_POINT('Ctrl Pts',(136.781054777317,365.867660069351,-6.93889390390723E-14));
#348=CARTESIAN_POINT('Origin',(-141.733070643743,454.03671476104,0.));
#349=CARTESIAN_POINT('',(-141.733070643743,454.03671476104,0.));
#350=CARTESIAN_POINT('',(-141.733070643743,454.03671476104,0.));
#351=CARTESIAN_POINT('',(-141.733070643743,454.03671476104,25.));
#352=CARTESIAN_POINT('',(-141.733070643743,454.03671476104,0.));
#353=CARTESIAN_POINT('',(-141.733070643743,454.03671476104,25.));
#354=CARTESIAN_POINT('Origin',(-140.051286022859,463.894280408245,0.));
#355=CARTESIAN_POINT('',(-150.051286022859,463.894280408245,0.));
#356=CARTESIAN_POINT('Origin',(-140.051286022859,463.894280408245,0.));
#357=CARTESIAN_POINT('',(-150.051286022859,463.894280408245,25.));
#358=CARTESIAN_POINT('',(-150.051286022859,463.894280408245,0.));
#359=CARTESIAN_POINT('Origin',(-140.051286022859,463.894280408245,25.));
#360=CARTESIAN_POINT('Origin',(-150.051286022859,644.450982388299,0.));
#361=CARTESIAN_POINT('',(-150.051286022859,644.450982388299,0.));
#362=CARTESIAN_POINT('',(-150.051286022859,463.894280408245,0.));
#363=CARTESIAN_POINT('',(-150.051286022859,644.450982388299,25.));
#364=CARTESIAN_POINT('',(-150.051286022859,644.450982388299,0.));
#365=CARTESIAN_POINT('',(-150.051286022859,463.894280408245,25.));
#366=CARTESIAN_POINT('Origin',(-270.051286022859,644.450982388299,0.));
#367=CARTESIAN_POINT('',(-270.051286022859,644.450982388299,0.));
#368=CARTESIAN_POINT('',(-150.051286022859,644.450982388299,0.));
#369=CARTESIAN_POINT('',(-270.051286022859,644.450982388299,25.));
#370=CARTESIAN_POINT('',(-270.051286022859,644.450982388299,0.));
#371=CARTESIAN_POINT('',(-150.051286022859,644.450982388299,25.));
#372=CARTESIAN_POINT('Origin',(-270.051286022859,467.293601222878,0.));
#373=CARTESIAN_POINT('',(-270.051286022859,467.293601222878,0.));
#374=CARTESIAN_POINT('',(-270.051286022859,467.293601222878,0.));
#375=CARTESIAN_POINT('',(-270.051286022859,467.293601222878,25.));
#376=CARTESIAN_POINT('',(-270.051286022859,467.293601222878,0.));
#377=CARTESIAN_POINT('',(-270.051286022859,467.293601222878,25.));
#378=CARTESIAN_POINT('Origin',(-280.051286022859,467.293601222878,0.));
#379=CARTESIAN_POINT('',(-277.370520894775,457.659624975864,0.));
#380=CARTESIAN_POINT('Origin',(-280.051286022859,467.293601222878,0.));
#381=CARTESIAN_POINT('',(-277.370520894774,457.659624975864,25.));
#382=CARTESIAN_POINT('',(-277.370520894775,457.659624975864,0.));
#383=CARTESIAN_POINT('Origin',(-280.051286022859,467.293601222878,25.));
#384=CARTESIAN_POINT('Origin',(-557.880431616725,376.137236740618,0.));
#385=CARTESIAN_POINT('',(-554.227288586117,377.198920955816,18.8231192751536));
#386=CARTESIAN_POINT('',(-553.806762155043,377.321135243678,25.));
#387=CARTESIAN_POINT('Origin',(591.582681388338,710.196657027476,1446.24395535616));
#388=CARTESIAN_POINT('',(-277.370520894775,457.659624975864,25.));
#389=CARTESIAN_POINT('',(-545.451025418609,379.749497266156,-2.1316282072803E-13));
#390=CARTESIAN_POINT('',(-277.370520894775,457.659624975864,0.));
#391=CARTESIAN_POINT('Ctrl Pts',(-545.451025419308,379.749497266285,-3.14982484539428E-10));
#392=CARTESIAN_POINT('Ctrl Pts',(-548.594813266572,378.835842940296,6.59897618509179));
#393=CARTESIAN_POINT('Ctrl Pts',(-551.520759745649,377.985498137117,12.8951928151374));
#394=CARTESIAN_POINT('Ctrl Pts',(-554.227288586117,377.198920955816,18.8231192751534));
#395=CARTESIAN_POINT('Origin',(-60.6841430269829,945.086819144953,341.172626238001));
#396=CARTESIAN_POINT('',(-210.051286022859,294.980441586583,18.9183954538246));
#397=CARTESIAN_POINT('Ctrl Pts',(-210.051286022859,294.980441586583,18.9183954538245));
#398=CARTESIAN_POINT('Ctrl Pts',(-213.75223788796,295.163187566402,18.9158050033576));
#399=CARTESIAN_POINT('Ctrl Pts',(-217.452594713932,295.36796586866,18.9132575158585));
#400=CARTESIAN_POINT('Ctrl Pts',(-221.151608395703,295.594662378369,18.9107545167967));
#401=CARTESIAN_POINT('Ctrl Pts',(-224.851368582448,295.821404638132,18.9082510125999));
#402=CARTESIAN_POINT('Ctrl Pts',(-228.549785744816,296.070072036881,18.9057920097481));
#403=CARTESIAN_POINT('Ctrl Pts',(-232.2466056306,296.340569282109,18.9033787213165));
#404=CARTESIAN_POINT('Ctrl Pts',(-235.94392982914,296.611103428029,18.900965103669));
#405=CARTESIAN_POINT('Ctrl Pts',(-239.639656792582,296.903473406972,18.8985972122854));
#406=CARTESIAN_POINT('Ctrl Pts',(-243.333535114791,297.217584433787,18.8962763168589));
#407=CARTESIAN_POINT('Ctrl Pts',(-247.02766989976,297.531717269057,18.8939552602945));
#408=CARTESIAN_POINT('Ctrl Pts',(-250.719955986374,297.867594183638,18.8916812062828));
#409=CARTESIAN_POINT('Ctrl Pts',(-254.410144735393,298.225120967576,18.8894554838334));
#410=CARTESIAN_POINT('Ctrl Pts',(-258.100337131038,298.58264810482,18.8872297591847));
#411=CARTESIAN_POINT('Ctrl Pts',(-261.78843210225,298.961825141744,18.8850523671617));
#412=CARTESIAN_POINT('Ctrl Pts',(-265.474183696536,299.362558508475,18.8829246878905));
#413=CARTESIAN_POINT('Ctrl Pts',(-272.844665157443,300.163914154589,18.8786699191622));
#414=CARTESIAN_POINT('Ctrl Pts',(-280.205771746991,301.05147030336,18.8746139490406));
#415=CARTESIAN_POINT('Ctrl Pts',(-287.555565741091,302.024486941252,18.8707681015519));
#416=CARTESIAN_POINT('Ctrl Pts',(-290.977566585864,302.477515115853,18.8689775080515));
#417=CARTESIAN_POINT('Ctrl Pts',(-294.397021414291,302.949056865953,18.8672332489923));
#418=CARTESIAN_POINT('Ctrl Pts',(-297.813591243145,303.439013803542,18.865534377789));
#419=CARTESIAN_POINT('Ctrl Pts',(-298.06505786759,303.475075650187,18.8654093373454));
#420=CARTESIAN_POINT('Ctrl Pts',(-298.316505738357,303.511236793786,18.8652845428076));
#421=CARTESIAN_POINT('Ctrl Pts',(-298.56793472179,303.547497186401,18.8651599937152));
#422=CARTESIAN_POINT('Ctrl Pts',(-302.235505052511,304.076424036117,18.8633432081175));
#423=CARTESIAN_POINT('Ctrl Pts',(-305.900489067175,304.626679898626,18.861572864755));
#424=CARTESIAN_POINT('Ctrl Pts',(-309.562168777048,305.198110312741,18.8598502738607));
#425=CARTESIAN_POINT('Ctrl Pts',(-313.224551440758,305.769650427659,18.8581273522706));
#426=CARTESIAN_POINT('Ctrl Pts',(-316.883629121041,306.362371420469,18.8564521964936));
#427=CARTESIAN_POINT('Ctrl Pts',(-320.539165455655,306.976183045571,18.8548259025838));
#428=CARTESIAN_POINT('Ctrl Pts',(-324.195169876583,307.590073268393,18.8531994004293));
#429=CARTESIAN_POINT('Ctrl Pts',(-327.847632311204,308.225059566962,18.8516217722598));
#430=CARTESIAN_POINT('Ctrl Pts',(-331.496318103122,308.881052415717,18.8500941629997));
#431=CARTESIAN_POINT('Ctrl Pts',(-335.145234046656,309.537086643156,18.8485664573811));
#432=CARTESIAN_POINT('Ctrl Pts',(-338.79037296231,310.214130084689,18.8470887771576));
#433=CARTESIAN_POINT('Ctrl Pts',(-342.431501819935,310.912093965127,18.8456623184435));
#434=CARTESIAN_POINT('Ctrl Pts',(-350.769440273638,312.510383975055,18.8423958246088));
#435=CARTESIAN_POINT('Ctrl Pts',(-359.086348330737,314.218374937311,18.839397886418));
#436=CARTESIAN_POINT('Ctrl Pts',(-367.379454222856,316.035015594716,18.8366835753664));
#437=CARTESIAN_POINT('Ctrl Pts',(-369.949971237547,316.598098446929,18.8358422521237));
#438=CARTESIAN_POINT('Ctrl Pts',(-372.51820178839,317.171619888508,18.8350281805924));
#439=CARTESIAN_POINT('Ctrl Pts',(-375.084064447961,317.755549132965,18.8342418106713));
#440=CARTESIAN_POINT('Ctrl Pts',(-378.41280545451,318.513091323971,18.8332216384525));
#441=CARTESIAN_POINT('Ctrl Pts',(-381.737455759452,319.288126146567,18.8322489785518));
#442=CARTESIAN_POINT('Ctrl Pts',(-385.057749531813,320.080562341253,18.8313223272204));
#443=CARTESIAN_POINT('Ctrl Pts',(-385.341789245548,320.14835253252,18.8312430553858));
#444=CARTESIAN_POINT('Ctrl Pts',(-385.625793044876,320.216269089326,18.8311641202308));
#445=CARTESIAN_POINT('Ctrl Pts',(-385.909760766576,320.28431194257,18.831085520688));
#446=CARTESIAN_POINT('Ctrl Pts',(-389.513629287781,321.147851979551,18.8300880044342));
#447=CARTESIAN_POINT('Ctrl Pts',(-393.113028412691,322.032059393987,18.8291390781403));
#448=CARTESIAN_POINT('Ctrl Pts',(-396.707273216153,322.936744867418,18.8282398202597));
#449=CARTESIAN_POINT('Ctrl Pts',(-400.301518019616,323.84143034085,18.8273405623792));
#450=CARTESIAN_POINT('Ctrl Pts',(-403.890609066812,324.766592174127,18.8264909680152));
#451=CARTESIAN_POINT('Ctrl Pts',(-407.474319826639,325.712145900546,18.8256919998383));
#452=CARTESIAN_POINT('Ctrl Pts',(-411.058817781314,326.657907326491,18.8248928561608));
#453=CARTESIAN_POINT('Ctrl Pts',(-414.637933163219,327.624069624419,18.824144360621));
#454=CARTESIAN_POINT('Ctrl Pts',(-418.211440024391,328.610548980699,18.8234475131108));
#455=CARTESIAN_POINT('Ctrl Pts',(-428.932345647985,331.570093341231,18.8213568954957));
#456=CARTESIAN_POINT('Ctrl Pts',(-439.602768666304,334.712500494793,18.8197309910999));
#457=CARTESIAN_POINT('Ctrl Pts',(-450.216634321609,338.035543131581,18.8185985976125));
#458=CARTESIAN_POINT('Ctrl Pts',(-453.753951726886,339.143024320747,18.818221201165));
#459=CARTESIAN_POINT('Ctrl Pts',(-457.284987334532,340.270569259266,18.8178986346281));
#460=CARTESIAN_POINT('Ctrl Pts',(-460.809517481982,341.418096957075,18.8176319621393));
#461=CARTESIAN_POINT('Ctrl Pts',(-464.137548939562,342.501647988555,18.8173801571059));
#462=CARTESIAN_POINT('Ctrl Pts',(-467.459707950312,343.602992734617,18.8171788566134));
#463=CARTESIAN_POINT('Ctrl Pts',(-470.775622279088,344.721997386324,18.8170269835975));
#464=CARTESIAN_POINT('Ctrl Pts',(-470.970710718796,344.787832884435,18.8170180483035));
#465=CARTESIAN_POINT('Ctrl Pts',(-471.165775596283,344.853728843414,18.8170092840848));
#466=CARTESIAN_POINT('Ctrl Pts',(-471.360816837342,344.91968523154,18.8170006906782));
#467=CARTESIAN_POINT('Ctrl Pts',(-473.994183379211,345.810201230982,18.8168846660396));
#468=CARTESIAN_POINT('Ctrl Pts',(-476.62401648867,346.711997055728,18.8167965346111));
#469=CARTESIAN_POINT('Ctrl Pts',(-479.250031334718,347.624978072416,18.8167366469312));
#470=CARTESIAN_POINT('Ctrl Pts',(-480.648911290903,348.11132370239,18.8167047447221));
#471=CARTESIAN_POINT('Ctrl Pts',(-482.046705278679,348.600842365464,18.8166808570665));
#472=CARTESIAN_POINT('Ctrl Pts',(-483.443379466588,349.093522203834,18.8166650351935));
#473=CARTESIAN_POINT('Ctrl Pts',(-494.29575033132,352.92171948123,18.8165420968338));
#474=CARTESIAN_POINT('Ctrl Pts',(-505.080768022476,356.940857425475,18.8169059512103));
#475=CARTESIAN_POINT('Ctrl Pts',(-515.791708443443,361.148564995306,18.8177813814932));
#476=CARTESIAN_POINT('Ctrl Pts',(-521.816232613561,363.515251295383,18.818273779984));
#477=CARTESIAN_POINT('Ctrl Pts',(-527.817320776551,365.941595429021,18.818928081367));
#478=CARTESIAN_POINT('Ctrl Pts',(-533.79377084849,368.427180357042,18.8197488884788));
#479=CARTESIAN_POINT('Ctrl Pts',(-537.216221181174,369.850565621107,18.8202189286429));
#480=CARTESIAN_POINT('Ctrl Pts',(-540.630591420369,371.293378722811,18.8207435756238));
#481=CARTESIAN_POINT('Ctrl Pts',(-544.036480541042,372.755464505117,18.8213236233945));
#482=CARTESIAN_POINT('Ctrl Pts',(-545.739189203865,373.48640612979,18.8216136071048));
#483=CARTESIAN_POINT('Ctrl Pts',(-547.439896089474,374.222215297672,18.821917456958));
#484=CARTESIAN_POINT('Ctrl Pts',(-549.138449315205,374.962829111446,18.8222352488325));
#485=CARTESIAN_POINT('Ctrl Pts',(-549.987655310174,375.333105227075,18.8223941315575));
#486=CARTESIAN_POINT('Ctrl Pts',(-550.836358299421,375.704597676413,18.8225565057093));
#487=CARTESIAN_POINT('Ctrl Pts',(-551.68451872762,376.077289537666,18.822722376134));
#488=CARTESIAN_POINT('Ctrl Pts',(-552.152337043245,376.282854514504,18.8228138649846));
#489=CARTESIAN_POINT('Ctrl Pts',(-552.620000090093,376.488788680769,18.8229064193937));
#490=CARTESIAN_POINT('Ctrl Pts',(-553.0875001308,376.695088701223,18.8230000398729));
#491=CARTESIAN_POINT('Ctrl Pts',(-553.255654052444,376.769292240161,18.8230337139891));
#492=CARTESIAN_POINT('Ctrl Pts',(-553.423787765424,376.843543499676,18.8230675262036));
#493=CARTESIAN_POINT('Ctrl Pts',(-553.591899998558,376.917841921364,18.823101476354));
#494=CARTESIAN_POINT('Ctrl Pts',(-553.697813148677,376.964651006837,18.8231228654421));
#495=CARTESIAN_POINT('Ctrl Pts',(-553.803718403549,377.011479090472,18.823144309448));
#496=CARTESIAN_POINT('Ctrl Pts',(-553.909615019922,377.058325844423,18.8231658081618));
#497=CARTESIAN_POINT('Ctrl Pts',(-553.93163551537,377.068067314618,18.823170278676));
#498=CARTESIAN_POINT('Ctrl Pts',(-553.95365578137,377.077809440982,18.823175393151));
#499=CARTESIAN_POINT('Ctrl Pts',(-553.975675460692,377.087552662015,18.8231793704689));
#500=CARTESIAN_POINT('Ctrl Pts',(-553.980128830106,377.089523179473,18.8231801748615));
#501=CARTESIAN_POINT('Ctrl Pts',(-553.984582194484,377.091493710074,18.8231809325827));
#502=CARTESIAN_POINT('Ctrl Pts',(-553.989035550872,377.093464257443,18.8231816288978));
#503=CARTESIAN_POINT('Ctrl Pts',(-554.015508833449,377.105178311472,18.8231857681909));
#504=CARTESIAN_POINT('Ctrl Pts',(-554.041981782599,377.116893444183,18.8231862186221));
#505=CARTESIAN_POINT('Ctrl Pts',(-554.068454025696,377.128609490051,18.8231829799583));
#506=CARTESIAN_POINT('Ctrl Pts',(-554.121400024641,377.152042251298,18.8231765024455));
#507=CARTESIAN_POINT('Ctrl Pts',(-554.174344712152,377.175479334694,18.8231552683675));
#508=CARTESIAN_POINT('Ctrl Pts',(-554.227288586117,377.198920955816,18.8231192751534));
#509=CARTESIAN_POINT('Ctrl Pts',(-210.051286022859,294.980441586583,18.918395453825));
#510=CARTESIAN_POINT('Ctrl Pts',(-206.312541519723,294.795829640263,18.9210114727034));
#511=CARTESIAN_POINT('Ctrl Pts',(-202.572097736471,294.633647436903,18.9236791916079));
#512=CARTESIAN_POINT('Ctrl Pts',(-198.830811554914,294.494030263315,18.9263965718256));
#513=CARTESIAN_POINT('Ctrl Pts',(-191.345898309292,294.214708559177,18.9318330324967));
#514=CARTESIAN_POINT('Ctrl Pts',(-183.857613590636,294.025693763544,18.9374682220268));
#515=CARTESIAN_POINT('Ctrl Pts',(-176.368134817672,293.927783831776,18.943288644959));
#516=CARTESIAN_POINT('Ctrl Pts',(-172.622813493566,293.878821258224,18.9461993086759));
#517=CARTESIAN_POINT('Ctrl Pts',(-168.877194818055,293.852642081344,18.94915629404));
#518=CARTESIAN_POINT('Ctrl Pts',(-165.131556215821,293.849346548223,18.9521579520957));
#519=CARTESIAN_POINT('Ctrl Pts',(-161.385911931117,293.846051010103,18.9551596147052));
#520=CARTESIAN_POINT('Ctrl Pts',(-157.640247837984,293.865639192714,18.9582059489813));
#521=CARTESIAN_POINT('Ctrl Pts',(-153.894845458333,293.908211541233,18.9612953623234));
#522=CARTESIAN_POINT('Ctrl Pts',(-150.149715174705,293.950780796957,18.9643845512258));
#523=CARTESIAN_POINT('Ctrl Pts',(-146.40484626589,294.01633089022,18.9675168128878));
#524=CARTESIAN_POINT('Ctrl Pts',(-142.660524426153,294.10496234415,18.9706906210023));
#525=CARTESIAN_POINT('Ctrl Pts',(-138.916744359228,294.193580973832,18.9738639698928));
#526=CARTESIAN_POINT('Ctrl Pts',(-135.173510496955,294.305274309877,18.9770788540744));
#527=CARTESIAN_POINT('Ctrl Pts',(-131.431112778491,294.440142829808,18.9803338114906));
#528=CARTESIAN_POINT('Ctrl Pts',(-127.689517582327,294.574982428443,18.9835880709115));
#529=CARTESIAN_POINT('Ctrl Pts',(-123.948757325265,294.732988792168,18.9868823904214));
#530=CARTESIAN_POINT('Ctrl Pts',(-120.209482495465,294.914240507123,18.9902150327628));
#531=CARTESIAN_POINT('Ctrl Pts',(-119.529203007284,294.947215302904,18.9908213343398));
#532=CARTESIAN_POINT('Ctrl Pts',(-118.848962770605,294.980959894068,18.9914289008134));
#533=CARTESIAN_POINT('Ctrl Pts',(-118.168742964417,295.015475890737,18.9920378527684));
#534=CARTESIAN_POINT('Ctrl Pts',(-116.979749673709,295.075808283425,18.9931022730958));
#535=CARTESIAN_POINT('Ctrl Pts',(-115.790893355944,295.138493968071,18.9941709247232));
#536=CARTESIAN_POINT('Ctrl Pts',(-114.602073719197,295.203542012217,18.9952444432213));
#537=CARTESIAN_POINT('Ctrl Pts',(-112.732881823571,295.305817641915,18.996932346091));
#538=CARTESIAN_POINT('Ctrl Pts',(-110.864007656261,295.413921926188,18.9986315239804));
#539=CARTESIAN_POINT('Ctrl Pts',(-108.995600419222,295.527859876936,19.0003416310225));
#540=CARTESIAN_POINT('Ctrl Pts',(-105.25774388888,295.755799324405,19.0037627988752));
#541=CARTESIAN_POINT('Ctrl Pts',(-101.521050217116,296.007129661402,19.0072283544691));
#542=CARTESIAN_POINT('Ctrl Pts',(-97.7860837114036,296.281938197476,19.0107360838262));
#543=CARTESIAN_POINT('Ctrl Pts',(-94.051117205691,296.55674673355,19.0142438131833));
#544=CARTESIAN_POINT('Ctrl Pts',(-90.3178790083564,296.855032290748,19.0177937094412));
#545=CARTESIAN_POINT('Ctrl Pts',(-86.5866744789337,297.176894565602,19.0213837807393));
#546=CARTESIAN_POINT('Ctrl Pts',(-82.8547851977438,297.498815908716,19.0249745108883));
#547=CARTESIAN_POINT('Ctrl Pts',(-79.1249311266411,297.844322566652,19.0286054276952));
#548=CARTESIAN_POINT('Ctrl Pts',(-75.3974231230739,298.213513723133,19.0322745613259));
#549=CARTESIAN_POINT('Ctrl Pts',(-71.6698750838828,298.582708844944,19.0359437343652));
#550=CARTESIAN_POINT('Ctrl Pts',(-67.9446733762204,298.975588964389,19.0396511235743));
#551=CARTESIAN_POINT('Ctrl Pts',(-64.2221343257365,299.392252541192,19.0433948068514));
#552=CARTESIAN_POINT('Ctrl Pts',(-60.4998549551945,299.808887052033,19.0471382289736));
#553=CARTESIAN_POINT('Ctrl Pts',(-56.7802375257132,300.249301752443,19.0509179399748));
#554=CARTESIAN_POINT('Ctrl Pts',(-53.0636038779919,300.713594189413,19.0547320782133));
#555=CARTESIAN_POINT('Ctrl Pts',(-49.3475182401634,301.177818167431,19.0585456540651));
#556=CARTESIAN_POINT('Ctrl Pts',(-45.6344146277465,301.665912962698,19.0623936480041));
#557=CARTESIAN_POINT('Ctrl Pts',(-41.9246204379699,302.177975017142,19.0662742590275));
#558=CARTESIAN_POINT('Ctrl Pts',(-38.2156502487069,302.689923334982,19.0701540081095));
#559=CARTESIAN_POINT('Ctrl Pts',(-34.509987032506,303.22582980843,19.0740663634238));
#560=CARTESIAN_POINT('Ctrl Pts',(-30.8082785412428,303.785737770105,19.078009230702));
#561=CARTESIAN_POINT('Ctrl Pts',(-29.8752276903157,303.926867899967,19.0790030679201));
#562=CARTESIAN_POINT('Ctrl Pts',(-28.9424369799363,304.069521505926,19.079998731646));
#563=CARTESIAN_POINT('Ctrl Pts',(-28.0098439240656,304.213710300539,19.0809965720543));
#564=CARTESIAN_POINT('Ctrl Pts',(-27.0928049617681,304.355494267034,19.0819777701523));
#565=CARTESIAN_POINT('Ctrl Pts',(-26.1760026415986,304.498755761837,19.0829610723468));
#566=CARTESIAN_POINT('Ctrl Pts',(-25.2593777462846,304.643506295132,19.0839468076901));
#567=CARTESIAN_POINT('Ctrl Pts',(-23.410342149286,304.935500206834,19.0859352543801));
#568=CARTESIAN_POINT('Ctrl Pts',(-21.5622306638871,305.233522283045,19.0879329924695));
#569=CARTESIAN_POINT('Ctrl Pts',(-19.7152336580023,305.537559410463,19.0899395894074));
#570=CARTESIAN_POINT('Ctrl Pts',(-16.0204666218082,306.145760914083,19.093953623105));
#571=CARTESIAN_POINT('Ctrl Pts',(-12.3293877378773,306.778159706511,19.0980039471469));
#572=CARTESIAN_POINT('Ctrl Pts',(-8.64262693865993,307.434805006079,19.1020880242483));
#573=CARTESIAN_POINT('Ctrl Pts',(-2.82480020609572,308.471012339749,19.1085328288431));
#574=CARTESIAN_POINT('Ctrl Pts',(2.98227325322711,309.56759496148,19.1150616692245));
#575=CARTESIAN_POINT('Ctrl Pts',(8.77721888759758,310.724908367091,19.1216656203182));
#576=CARTESIAN_POINT('Ctrl Pts',(10.3286274092291,311.034741451462,19.1234336137817));
#577=CARTESIAN_POINT('Ctrl Pts',(11.8791664571119,311.3489272017,19.1252069906877));
#578=CARTESIAN_POINT('Ctrl Pts',(13.4288092965775,311.667472310941,19.1269855799418));
#579=CARTESIAN_POINT('Ctrl Pts',(17.0980364826155,312.421719899508,19.1311969039179));
#580=CARTESIAN_POINT('Ctrl Pts',(20.762239105358,313.200407966297,19.1354374490867));
#581=CARTESIAN_POINT('Ctrl Pts',(24.4210565094955,314.003623505711,19.1397049717802));
#582=CARTESIAN_POINT('Ctrl Pts',(28.0795918507227,314.806777124212,19.1439721654849));
#583=CARTESIAN_POINT('Ctrl Pts',(31.7327432303587,315.634454545274,19.1482663324497));
#584=CARTESIAN_POINT('Ctrl Pts',(35.380143254091,316.486740216131,19.1525852699012));
#585=CARTESIAN_POINT('Ctrl Pts',(39.0269527356397,317.338887895367,19.1569035080835));
#586=CARTESIAN_POINT('Ctrl Pts',(42.6680138050381,318.215636127637,19.1612465099723));
#587=CARTESIAN_POINT('Ctrl Pts',(46.3029523551116,319.117066536694,19.165612114689));
#588=CARTESIAN_POINT('Ctrl Pts',(49.9370081155139,320.018278022256,19.1699766591648));
#589=CARTESIAN_POINT('Ctrl Pts',(53.5649452890563,320.944161818977,19.1743637992232));
#590=CARTESIAN_POINT('Ctrl Pts',(57.1860001491426,321.894690300069,19.1787709311224));
#591=CARTESIAN_POINT('Ctrl Pts',(57.8824912171723,322.077519509393,19.1796186200203));
#592=CARTESIAN_POINT('Ctrl Pts',(58.5787361581339,322.261262633822,19.1804670386575));
#593=CARTESIAN_POINT('Ctrl Pts',(59.2747596011108,322.445927410018,19.1813163203478));
#594=CARTESIAN_POINT('Ctrl Pts',(60.387756905576,322.741221196759,19.1826743898806));
#595=CARTESIAN_POINT('Ctrl Pts',(61.5001180923998,323.038853322655,19.1840346624044));
#596=CARTESIAN_POINT('Ctrl Pts',(62.611943434941,323.338855991308,19.1853976761241));
#597=CARTESIAN_POINT('Ctrl Pts',(64.4193448352203,323.8265452197,19.1876134134449));
#598=CARTESIAN_POINT('Ctrl Pts',(66.225078087989,324.320432042437,19.1898356271768));
#599=CARTESIAN_POINT('Ctrl Pts',(68.0289658760794,324.820489222752,19.1920638653294));
#600=CARTESIAN_POINT('Ctrl Pts',(71.637544691579,325.820826249999,19.1965213338297));
#601=CARTESIAN_POINT('Ctrl Pts',(75.2395398518792,326.846078184322,19.2010039055239));
#602=CARTESIAN_POINT('Ctrl Pts',(78.8342587511618,327.896238726582,19.2055087867623));
#603=CARTESIAN_POINT('Ctrl Pts',(82.4297191394732,328.946615887316,19.2100145972306));
#604=CARTESIAN_POINT('Ctrl Pts',(86.017898833791,330.021910042188,19.2145427188983));
#605=CARTESIAN_POINT('Ctrl Pts',(89.5984004488369,331.122190559646,19.2190906466295));
#606=CARTESIAN_POINT('Ctrl Pts',(95.2620983281646,332.862632850526,19.2262846354656));
#607=CARTESIAN_POINT('Ctrl Pts',(100.906584454396,334.665595359805,19.23352817693));
#608=CARTESIAN_POINT('Ctrl Pts',(106.530245734299,336.531330149254,19.2408111803632));
#609=CARTESIAN_POINT('Ctrl Pts',(111.572872375465,338.204297898617,19.2473417065297));
#610=CARTESIAN_POINT('Ctrl Pts',(116.598754739667,339.927736654678,19.2539039554012));
#611=CARTESIAN_POINT('Ctrl Pts',(121.606699325174,341.701808339758,19.260490635446));
#612=CARTESIAN_POINT('Ctrl Pts',(125.026002851092,342.913101608773,19.264987861387));
#613=CARTESIAN_POINT('Ctrl Pts',(128.436943961961,344.148000091126,19.2694964786984));
#614=CARTESIAN_POINT('Ctrl Pts',(131.838900653426,345.406459404937,19.2740138551006));
#615=CARTESIAN_POINT('Ctrl Pts',(132.245620913939,345.55691425971,19.2745539291444));
#616=CARTESIAN_POINT('Ctrl Pts',(132.652214321961,345.707706430209,19.2750941304354));
#617=CARTESIAN_POINT('Ctrl Pts',(133.058689429906,345.858839426138,19.2756344672733));
#618=CARTESIAN_POINT('Ctrl Pts',(133.848205817225,346.152392400523,19.2766839898145));
#619=CARTESIAN_POINT('Ctrl Pts',(134.637264065386,346.447226858952,19.2777340080489));
#620=CARTESIAN_POINT('Ctrl Pts',(135.425842568407,346.74333718232,19.2787844707343));
#621=CARTESIAN_POINT('Ctrl Pts',(135.97753206434,346.950495955243,19.279519374396));
#622=CARTESIAN_POINT('Ctrl Pts',(136.528986755989,347.158279183223,19.2802544955882));
#623=CARTESIAN_POINT('Ctrl Pts',(137.080199276836,347.3666848804,19.2809898167435));
#624=CARTESIAN_POINT('Ctrl Pts',(137.453164912046,347.507697938503,19.2814873553723));
#625=CARTESIAN_POINT('Ctrl Pts',(137.82602044486,347.648996262171,19.2819849865698));
#626=CARTESIAN_POINT('Ctrl Pts',(138.198773924803,347.790583166947,19.2824827186855));
#627=CARTESIAN_POINT('Ctrl Pts',(138.76938911625,348.007325982568,19.2832446525688));
#628=CARTESIAN_POINT('Ctrl Pts',(139.339757456979,348.224742153754,19.284006812682));
#629=CARTESIAN_POINT('Ctrl Pts',(139.909862424633,348.442826295674,19.2847691683502));
#630=CARTESIAN_POINT('Ctrl Pts',(140.31031821111,348.596013974304,19.2853046657692));
#631=CARTESIAN_POINT('Ctrl Pts',(140.710651213753,348.749533966144,19.2858402692495));
#632=CARTESIAN_POINT('Ctrl Pts',(141.110857552126,348.903385111546,19.2863759706227));
#633=CARTESIAN_POINT('Ctrl Pts',(141.41345843511,349.019713834965,19.2867810209505));
#634=CARTESIAN_POINT('Ctrl Pts',(141.71598709805,349.136231954547,19.2871861275041));
#635=CARTESIAN_POINT('Ctrl Pts',(142.018442908959,349.252939365256,19.2875912881452));
#636=CARTESIAN_POINT('Ctrl Pts',(142.127578931507,349.295051244569,19.2877374834546));
#637=CARTESIAN_POINT('Ctrl Pts',(142.236706056523,349.337187996627,19.2878836865935));
#638=CARTESIAN_POINT('Ctrl Pts',(142.345823352817,349.379349268545,19.2880298962543));
#639=CARTESIAN_POINT('Ctrl Pts',(142.400381539353,349.400429726145,19.2881030004662));
#640=CARTESIAN_POINT('Ctrl Pts',(142.454937499581,349.421516402776,19.2881761066179));
#641=CARTESIAN_POINT('Ctrl Pts',(142.509491004071,349.442609210596,19.2882492143941));
#642=CARTESIAN_POINT('Ctrl Pts',(142.530896119188,349.450885378805,19.2882778996341));
#643=CARTESIAN_POINT('Ctrl Pts',(142.552301149947,349.459162026652,19.2883071839456));
#644=CARTESIAN_POINT('Ctrl Pts',(142.573705245129,349.467440401651,19.2883354334188));
#645=CARTESIAN_POINT('Ctrl Pts',(142.579576502584,349.469711204062,19.2883431823998));
#646=CARTESIAN_POINT('Ctrl Pts',(142.585447747511,349.471982077528,19.2883508542097));
#647=CARTESIAN_POINT('Ctrl Pts',(142.591318962333,349.474253047798,19.2883584151277));
#648=CARTESIAN_POINT('Ctrl Pts',(142.618594519673,349.484803160799,19.2883935404396));
#649=CARTESIAN_POINT('Ctrl Pts',(142.645869125345,349.495356141024,19.2884253454912));
#650=CARTESIAN_POINT('Ctrl Pts',(142.67314295268,349.505912056263,19.288453830611));
#651=CARTESIAN_POINT('Origin',(-247.304598602355,1012.29138547228,25.));
#652=CARTESIAN_POINT('Ctrl Pts',(-281.7906964501,82.8163643510973,424.585515628004));
#653=CARTESIAN_POINT('Ctrl Pts',(-257.87755964102,77.0591699224934,421.827882600282));
#654=CARTESIAN_POINT('Ctrl Pts',(-233.964422831939,71.3019754938897,419.07024957256));
#655=CARTESIAN_POINT('Ctrl Pts',(-210.051286022859,65.5447810652858,416.312616544838));
#656=CARTESIAN_POINT('Ctrl Pts',(-172.087082027023,56.4047294912818,411.934632023362));
#657=CARTESIAN_POINT('Ctrl Pts',(-133.39660259553,49.3732461112238,407.405026985628));
#658=CARTESIAN_POINT('Ctrl Pts',(-54.965981177481,39.8782368486718,398.149654759297));
#659=CARTESIAN_POINT('Ctrl Pts',(-15.287865039485,37.4115755770187,393.424051186933));
#660=CARTESIAN_POINT('Ctrl Pts',(64.531993378884,37.3519865248618,383.901062004423));
#661=CARTESIAN_POINT('Ctrl Pts',(104.61162993373,39.7492869617447,379.103682841818));
#662=CARTESIAN_POINT('Ctrl Pts',(184.58451398398,49.6582805485858,369.574971162674));
#663=CARTESIAN_POINT('Ctrl Pts',(224.416216443268,57.1538738882796,364.843877893537));
#664=CARTESIAN_POINT('Ctrl Pts',(439.99513682573,112.617455745994,339.529827888159));
#665=CARTESIAN_POINT('Ctrl Pts',(554.050762690394,131.496935696196,316.540983022137));
#666=CARTESIAN_POINT('Ctrl Pts',(668.106388555062,150.376415646398,293.552138156115));
#667=CARTESIAN_POINT('Ctrl Pts',(-253.694692244035,528.65281293232,-416.567943237843));
#668=CARTESIAN_POINT('Ctrl Pts',(-239.146890170309,532.846550334906,-413.58040309414));
#669=CARTESIAN_POINT('Ctrl Pts',(-224.599088096584,537.040287737491,-410.592862950437));
#670=CARTESIAN_POINT('Ctrl Pts',(-210.051286022859,541.234025140077,-407.605322806734));
#671=CARTESIAN_POINT('Ctrl Pts',(-186.955373093183,547.891951430879,-402.862340555312));
#672=CARTESIAN_POINT('Ctrl Pts',(-164.880275579295,555.465063836945,-397.950286636001));
#673=CARTESIAN_POINT('Ctrl Pts',(-122.949043539441,572.056361395329,-387.905100202442));
#674=CARTESIAN_POINT('Ctrl Pts',(-103.127497480872,581.073134617584,-382.772145817869));
#675=CARTESIAN_POINT('Ctrl Pts',(-65.873512767752,600.14416416132,-372.421353905899));
#676=CARTESIAN_POINT('Ctrl Pts',(-48.473057004966,610.193999240965,-367.203524569153));
#677=CARTESIAN_POINT('Ctrl Pts',(-16.1367868757559,630.913271124849,-356.834096985133));
#678=CARTESIAN_POINT('Ctrl Pts',(-1.22977032303197,641.575128122273,-351.682760936632));
#679=CARTESIAN_POINT('Ctrl Pts',(73.7162996115361,700.524040636261,-324.10811813705));
#680=CARTESIAN_POINT('Ctrl Pts',(218.38034928634,784.209186198187,-298.484907248525));
#681=CARTESIAN_POINT('Ctrl Pts',(363.044398961143,867.894331760113,-272.861696359999));
#682=CARTESIAN_POINT('',(-210.051286022859,305.902982294484,0.));
#683=CARTESIAN_POINT('',(-210.051286022859,268.639403102681,64.5424124320702));
#684=CARTESIAN_POINT('Ctrl Pts',(-210.051286022859,305.902982294485,1.4210854715202E-13));
#685=CARTESIAN_POINT('Ctrl Pts',(-206.361246203268,305.778848752529,1.3275212902613E-13));
#686=CARTESIAN_POINT('Ctrl Pts',(-202.669860007235,305.67704480337,2.11494790759489E-8));
#687=CARTESIAN_POINT('Ctrl Pts',(-198.977990758667,305.597696284763,1.20792265079217E-12));
#688=CARTESIAN_POINT('Ctrl Pts',(-195.2852362556,305.518328739579,-2.11521158697755E-8));
#689=CARTESIAN_POINT('Ctrl Pts',(-191.591999871812,305.461424962665,1.39392560838135E-8));
#690=CARTESIAN_POINT('Ctrl Pts',(-187.898553269447,305.427083874632,5.6843418860808E-13));
#691=CARTESIAN_POINT('Ctrl Pts',(-184.204520845808,305.392737339724,-1.39403337174472E-8));
#692=CARTESIAN_POINT('Ctrl Pts',(-180.510279283298,305.380960617647,6.92894756582285E-9));
#693=CARTESIAN_POINT('Ctrl Pts',(-176.816104429324,305.391852842908,3.5527136788005E-13));
#694=CARTESIAN_POINT('Ctrl Pts',(-173.121637147805,305.402745930388,-6.92878749496251E-9));
#695=CARTESIAN_POINT('Ctrl Pts',(-169.427237215715,305.436311532898,1.39529589028144E-10));
#696=CARTESIAN_POINT('Ctrl Pts',(-165.733184741486,305.492648913353,1.4210854715202E-13));
#697=CARTESIAN_POINT('Ctrl Pts',(-162.039126357411,305.548986383938,-1.39256441879909E-10));
#698=CARTESIAN_POINT('Ctrl Pts',(-158.345415556365,305.628095709088,-6.40701124799174E-9));
#699=CARTESIAN_POINT('Ctrl Pts',(-154.65233678272,305.730076185621,7.105427357601E-14));
#700=CARTESIAN_POINT('Ctrl Pts',(-150.959530902943,305.832049126477,6.40670079516454E-9));
#701=CARTESIAN_POINT('Ctrl Pts',(-147.267356586682,305.956889879709,-1.26895809355349E-8));
#702=CARTESIAN_POINT('Ctrl Pts',(-143.576102687917,306.104697672321,4.2632564145606E-13));
#703=CARTESIAN_POINT('Ctrl Pts',(-139.885391932733,306.252483715996,1.26885601450715E-8));
#704=CARTESIAN_POINT('Ctrl Pts',(-136.195600472915,306.423230130252,-1.86860055398307E-8));
#705=CARTESIAN_POINT('Ctrl Pts',(-132.507021644045,306.617035959198,1.13686837721616E-12));
#706=CARTESIAN_POINT('Ctrl Pts',(-128.81924681197,306.810799544431,1.86841927855244E-8));
#707=CARTESIAN_POINT('Ctrl Pts',(-125.132683070251,307.027614089976,-8.12613982776246E-9));
#708=CARTESIAN_POINT('Ctrl Pts',(-121.447978921263,307.267551100359,7.105427357601E-14));
#709=CARTESIAN_POINT('Ctrl Pts',(-120.750531298294,307.31296682189,1.53821789229667E-9));
#710=CARTESIAN_POINT('Ctrl Pts',(-120.053141778188,307.359211451555,3.88899421199751E-10));
#711=CARTESIAN_POINT('Ctrl Pts',(-119.355788365124,307.406287305061,2.2690471723763E-9));
#712=CARTESIAN_POINT('Ctrl Pts',(-118.21130421713,307.483547367292,5.35470981332217E-9));
#713=CARTESIAN_POINT('Ctrl Pts',(-117.066987536488,307.563042927072,2.05623106321224E-9));
#714=CARTESIAN_POINT('Ctrl Pts',(-115.922741293835,307.644784715691,0.));
#715=CARTESIAN_POINT('Ctrl Pts',(-114.081035853866,307.776351061432,-3.30956251978012E-9));
#716=CARTESIAN_POINT('Ctrl Pts',(-112.239742226862,307.913720715439,5.44109532131157E-9));
#717=CARTESIAN_POINT('Ctrl Pts',(-110.399012485951,308.056896356672,7.105427357601E-14));
#718=CARTESIAN_POINT('Ctrl Pts',(-106.71684049488,308.343303059531,-1.08840800662745E-8));
#719=CARTESIAN_POINT('Ctrl Pts',(-103.036213727733,308.652998123197,1.53205838919903E-8));
#720=CARTESIAN_POINT('Ctrl Pts',(-99.3577023711465,308.986061793079,7.105427357601E-13));
#721=CARTESIAN_POINT('Ctrl Pts',(-95.6785161621943,309.319186566157,-1.53219740288386E-8));
#722=CARTESIAN_POINT('Ctrl Pts',(-92.0014474739811,309.675687225531,7.92740948283002E-9));
#723=CARTESIAN_POINT('Ctrl Pts',(-88.3268057441687,310.055660633958,2.1316282072803E-13));
#724=CARTESIAN_POINT('Ctrl Pts',(-84.6518113704902,310.435670507244,-7.92775344680639E-9));
#725=CARTESIAN_POINT('Ctrl Pts',(-80.9792453337431,310.839157517523,8.96473273184873E-10));
#726=CARTESIAN_POINT('Ctrl Pts',(-77.3094226994339,311.266217629989,1.4210854715202E-13));
#727=CARTESIAN_POINT('Ctrl Pts',(-73.6395597688128,311.693282431768,-8.9621031837187E-10));
#728=CARTESIAN_POINT('Ctrl Pts',(-69.9724405344714,312.143920832655,-5.74445056367234E-9));
#729=CARTESIAN_POINT('Ctrl Pts',(-66.3083857347406,312.61822773955,2.1316282072803E-13));
#730=CARTESIAN_POINT('Ctrl Pts',(-62.6445921447367,313.092500833203,5.74445351479968E-9));
#731=CARTESIAN_POINT('Ctrl Pts',(-58.9838621313429,313.590439148084,-1.1969013686114E-8));
#732=CARTESIAN_POINT('Ctrl Pts',(-55.326522145835,314.112136361981,3.5527136788005E-13));
#733=CARTESIAN_POINT('Ctrl Pts',(-51.6697330552054,314.633754994088,1.19679186211121E-8));
#734=CARTESIAN_POINT('Ctrl Pts',(-48.0163319227196,315.179125581033,-1.77508423454301E-8));
#735=CARTESIAN_POINT('Ctrl Pts',(-44.3666509473561,315.748340390472,1.06581410364015E-12));
#736=CARTESIAN_POINT('Ctrl Pts',(-40.7177977526008,316.317426096851,1.77489444173811E-8));
#737=CARTESIAN_POINT('Ctrl Pts',(-37.0726620165523,316.91034739308,-4.70294376332882E-9));
#738=CARTESIAN_POINT('Ctrl Pts',(-33.4320140590552,317.527115871968,1.4210854715202E-13));
#739=CARTESIAN_POINT('Ctrl Pts',(-32.5301621211372,317.679900171473,1.16517646817055E-9));
#740=CARTESIAN_POINT('Ctrl Pts',(-31.6285479060737,317.834154069861,-3.18962272248195E-9));
#741=CARTESIAN_POINT('Ctrl Pts',(-30.7271582241447,317.989882271654,-3.41870531883615E-9));
#742=CARTESIAN_POINT('Ctrl Pts',(-27.9901494700834,318.462740415148,-4.11428539510992E-9));
#743=CARTESIAN_POINT('Ctrl Pts',(-25.2556251787092,318.949127561061,1.74607941239849E-8));
#744=CARTESIAN_POINT('Ctrl Pts',(-22.5232183112789,319.44917624578,1.77635683940025E-12));
#745=CARTESIAN_POINT('Ctrl Pts',(-18.8899225730836,320.114093603708,-2.32135569692397E-8));
#746=CARTESIAN_POINT('Ctrl Pts',(-15.2610398911975,320.803046667675,1.48292159160314E-8));
#747=CARTESIAN_POINT('Ctrl Pts',(-11.6369032053925,321.516125053282,7.8159700933611E-13));
#748=CARTESIAN_POINT('Ctrl Pts',(-8.01203891872063,322.229346600281,-1.48306220226146E-8));
#749=CARTESIAN_POINT('Ctrl Pts',(-4.39192460267897,322.966702751908,7.47800853326573E-9));
#750=CARTESIAN_POINT('Ctrl Pts',(-0.776912371837071,323.728278660356,3.5527136788005E-13));
#751=CARTESIAN_POINT('Ctrl Pts',(2.83847457780517,324.489933510946,-7.47808192516994E-9));
#752=CARTESIAN_POINT('Ctrl Pts',(6.44875723794314,325.27581287854,6.83181270625061E-10));
#753=CARTESIAN_POINT('Ctrl Pts',(10.0535766294312,326.08599930196,7.105427357601E-14));
#754=CARTESIAN_POINT('Ctrl Pts',(13.6584310447289,326.896193597012,-6.83060428334895E-10));
#755=CARTESIAN_POINT('Ctrl Pts',(17.2578218019726,327.73069536954,-5.5221741165219E-9));
#756=CARTESIAN_POINT('Ctrl Pts',(20.8513830819543,328.589584301105,7.105427357601E-14));
#757=CARTESIAN_POINT('Ctrl Pts',(24.4446540354126,329.448403842387,5.52185347992133E-9));
#758=CARTESIAN_POINT('Ctrl Pts',(28.0320969912536,330.33160677467,-1.11071364659173E-8));
#759=CARTESIAN_POINT('Ctrl Pts',(31.6133393255178,331.23926966865,6.3948846218409E-13));
#760=CARTESIAN_POINT('Ctrl Pts',(35.1939814783263,332.146780447139,1.11065576439345E-8));
#761=CARTESIAN_POINT('Ctrl Pts',(38.7684264005218,333.078743394818,-1.60461406834443E-8));
#762=CARTESIAN_POINT('Ctrl Pts',(42.336294710058,334.035231708362,9.9475983006414E-13));
#763=CARTESIAN_POINT('Ctrl Pts',(45.9032696227436,334.991480516529,1.60441092899993E-8));
#764=CARTESIAN_POINT('Ctrl Pts',(49.4636723494968,335.97224489877,-5.57724622058454E-9));
#765=CARTESIAN_POINT('Ctrl Pts',(53.0166955267105,336.977468917327,1.4210854715202E-13));
#766=CARTESIAN_POINT('Ctrl Pts',(53.5668334064995,337.133114344531,8.63726043267371E-10));
#767=CARTESIAN_POINT('Ctrl Pts',(54.1168091788671,337.289350305535,7.57125205797248E-10));
#768=CARTESIAN_POINT('Ctrl Pts',(54.6666319669705,337.446180119091,3.79948517092998E-9));
#769=CARTESIAN_POINT('Ctrl Pts',(55.8920403244872,337.795711947159,1.05800972256424E-8));
#770=CARTESIAN_POINT('Ctrl Pts',(57.1166016615893,338.148170600806,1.97298385326994E-9));
#771=CARTESIAN_POINT('Ctrl Pts',(58.3404166745947,338.503593150776,3.5527136788005E-13));
#772=CARTESIAN_POINT('Ctrl Pts',(60.1136375680748,339.018575141456,-2.85785905342815E-9));
#773=CARTESIAN_POINT('Ctrl Pts',(61.8850668181641,339.539714966969,4.38466385658697E-9));
#774=CARTESIAN_POINT('Ctrl Pts',(63.6545360046603,340.066984286514,2.8421709430404E-13));
#775=CARTESIAN_POINT('Ctrl Pts',(67.1942621071941,341.121757654539,-8.77044115829588E-9));
#776=CARTESIAN_POINT('Ctrl Pts',(70.726930125073,342.201294389937,1.15189931504388E-8));
#777=CARTESIAN_POINT('Ctrl Pts',(74.2518476492841,343.30557343272,8.5265128291212E-13));
#778=CARTESIAN_POINT('Ctrl Pts',(77.777485334508,344.410078086091,-1.15196436661541E-8));
#779=CARTESIAN_POINT('Ctrl Pts',(81.2953677293795,345.53933310903,5.15940918551077E-9));
#780=CARTESIAN_POINT('Ctrl Pts',(84.8050928235225,346.693396948591,3.5527136788005E-13));
#781=CARTESIAN_POINT('Ctrl Pts',(88.3151564021718,347.847572088245,-5.15918801941571E-9));
#782=CARTESIAN_POINT('Ctrl Pts',(91.817059880401,349.026560423235,-3.81128777054678E-10));
#783=CARTESIAN_POINT('Ctrl Pts',(95.3103936236104,350.230415203791,7.105427357601E-14));
#784=CARTESIAN_POINT('Ctrl Pts',(98.8037009573961,351.434260883266,3.81338080566831E-10));
#785=CARTESIAN_POINT('Ctrl Pts',(102.288438496427,352.662972594281,-5.06998866965447E-9));
#786=CARTESIAN_POINT('Ctrl Pts',(105.764189140756,353.916598058171,3.5527136788005E-13));
#787=CARTESIAN_POINT('Ctrl Pts',(109.239566628923,355.170088932985,5.07008761989033E-9));
#788=CARTESIAN_POINT('Ctrl Pts',(112.705959933855,356.448488547759,-8.88136590455827E-9));
#789=CARTESIAN_POINT('Ctrl Pts',(116.162944668474,357.751838757145,5.6843418860808E-13));
#790=CARTESIAN_POINT('Ctrl Pts',(119.619228995101,359.05492489915,8.88071058692845E-9));
#791=CARTESIAN_POINT('Ctrl Pts',(123.066109499628,360.382953416781,-5.6049830509336E-9));
#792=CARTESIAN_POINT('Ctrl Pts',(126.502892722504,361.735852407288,2.8421709430404E-13));
#793=CARTESIAN_POINT('Ctrl Pts',(128.22092548987,362.412160642605,2.80232887398427E-9));
#794=CARTESIAN_POINT('Ctrl Pts',(129.936614795447,363.094754789715,-7.90941413425715E-10));
#795=CARTESIAN_POINT('Ctrl Pts',(131.649719068072,363.783564800407,7.105427357601E-14));
#796=CARTESIAN_POINT('Ctrl Pts',(132.506165380112,364.127927255618,3.95525331968402E-10));
#797=CARTESIAN_POINT('Ctrl Pts',(133.362018603266,364.473864549835,-1.03867277184822E-10));
#798=CARTESIAN_POINT('Ctrl Pts',(134.217218024383,364.821355455122,0.));
#799=CARTESIAN_POINT('Ctrl Pts',(134.64478933387,364.995089367635,5.19338400313707E-11));
#800=CARTESIAN_POINT('Ctrl Pts',(135.072211427534,365.169217400161,-3.31860291562031E-12));
#801=CARTESIAN_POINT('Ctrl Pts',(135.499465457993,365.343732280127,-1.4210854715202E-13));
#802=CARTESIAN_POINT('Ctrl Pts',(135.552870840596,365.365546080044,2.58949463895603E-13));
#803=CARTESIAN_POINT('Ctrl Pts',(135.606274797255,365.387366414152,-1.30633066390043E-13));
#804=CARTESIAN_POINT('Ctrl Pts',(135.659676225488,365.409192833187,0.));
#805=CARTESIAN_POINT('Ctrl Pts',(135.678274732073,365.416794480026,4.63679753519613E-14));
#806=CARTESIAN_POINT('Ctrl Pts',(135.696872943089,365.424396869087,4.12990354097714E-10));
#807=CARTESIAN_POINT('Ctrl Pts',(135.715470658019,365.431999924935,-5.46272360679723E-9));
#808=CARTESIAN_POINT('Ctrl Pts',(135.750271855732,365.44622723462,-1.64577240214193E-8));
#809=CARTESIAN_POINT('Ctrl Pts',(135.785073864309,365.460454951288,-1.10160588766535E-13));
#810=CARTESIAN_POINT('Ctrl Pts',(135.819875369801,365.474682580492,-1.4210854715202E-13));
#811=CARTESIAN_POINT('Ctrl Pts',(136.14027154134,365.605667658942,-4.14640108316567E-13));
#812=CARTESIAN_POINT('Ctrl Pts',(136.460664668844,365.736660154403,-7.3142534702329E-14));
#813=CARTESIAN_POINT('Ctrl Pts',(136.781054777317,365.867660069351,0.));
#814=CARTESIAN_POINT('Ctrl Pts',(-116.090531795419,49.0642432939765,395.701988182178));
#815=CARTESIAN_POINT('Ctrl Pts',(-147.410783204566,56.4819610706256,399.239376489689));
#816=CARTESIAN_POINT('Ctrl Pts',(-178.731034613712,63.8996788472747,402.776764797201));
#817=CARTESIAN_POINT('Ctrl Pts',(-210.051286022859,71.3173966239238,406.314153104712));
#818=CARTESIAN_POINT('Ctrl Pts',(-245.923322468194,79.8131343799578,410.365631511788));
#819=CARTESIAN_POINT('Ctrl Pts',(-281.106446968415,90.1934352585188,414.283647264791));
#820=CARTESIAN_POINT('Ctrl Pts',(-349.797468840759,114.40365612179,421.777983055213));
#821=CARTESIAN_POINT('Ctrl Pts',(-383.254321182534,128.226365132311,425.354203002771));
#822=CARTESIAN_POINT('Ctrl Pts',(-448.135893829812,158.964554522804,432.104622374707));
#823=CARTESIAN_POINT('Ctrl Pts',(-479.511173806915,175.868611220796,435.27885508108));
#824=CARTESIAN_POINT('Ctrl Pts',(-539.918544713161,212.385544376763,441.18108759636));
#825=CARTESIAN_POINT('Ctrl Pts',(-568.903394991397,231.982595814993,443.909031291687));
#826=CARTESIAN_POINT('Ctrl Pts',(-717.013163051112,342.992768015729,457.23686544502));
#827=CARTESIAN_POINT('Ctrl Pts',(-816.658843541997,425.31618278384,468.437129958759));
#828=CARTESIAN_POINT('Ctrl Pts',(-916.304524032881,507.639597551951,479.637394472499));
#829=CARTESIAN_POINT('Ctrl Pts',(-152.167600032856,551.542051813637,-386.086997102275));
#830=CARTESIAN_POINT('Ctrl Pts',(-171.462162029524,546.181837736238,-389.926951190386));
#831=CARTESIAN_POINT('Ctrl Pts',(-190.756724026191,540.821623658838,-393.766905278498));
#832=CARTESIAN_POINT('Ctrl Pts',(-210.051286022859,535.461409581438,-397.606859366609));
#833=CARTESIAN_POINT('Ctrl Pts',(-232.149934660753,529.322193384625,-402.004875563788));
#834=CARTESIAN_POINT('Ctrl Pts',(-255.116962871863,524.019385416635,-406.253674008981));
#835=CARTESIAN_POINT('Ctrl Pts',(-302.581081415829,515.386481011315,-414.371101031763));
#836=CARTESIAN_POINT('Ctrl Pts',(-327.045411611595,512.051229644283,-418.239620756319));
#837=CARTESIAN_POINT('Ctrl Pts',(-377.18839582068,507.618373251822,-425.530774999485));
#838=CARTESIAN_POINT('Ctrl Pts',(-402.833623881531,506.512024838594,-428.953445353708));
#839=CARTESIAN_POINT('Ctrl Pts',(-454.983899871413,506.766588408962,-435.305015982193));
#840=CARTESIAN_POINT('Ctrl Pts',(-481.455213422058,508.115624365488,-438.233856152774));
#841=CARTESIAN_POINT('Ctrl Pts',(-624.350883300454,522.448249370058,-452.504257032949));
#842=CARTESIAN_POINT('Ctrl Pts',(-768.641342288698,544.837162623863,-464.59892175413));
#843=CARTESIAN_POINT('Ctrl Pts',(-912.931801276943,567.226075877669,-476.693586475311));
#844=CARTESIAN_POINT('Ctrl Pts',(-210.051286022859,305.902982294484,-2.1316282072803E-13));
#845=CARTESIAN_POINT('Ctrl Pts',(-213.644977085795,306.023873041339,-1.52873072570064E-13));
#846=CARTESIAN_POINT('Ctrl Pts',(-217.23843207963,306.165964628899,1.70645311691644E-8));
#847=CARTESIAN_POINT('Ctrl Pts',(-220.830928671982,306.329155516342,7.8159700933611E-13));
#848=CARTESIAN_POINT('Ctrl Pts',(-224.424154114082,306.492379512137,-1.70664175996959E-8));
#849=CARTESIAN_POINT('Ctrl Pts',(-228.016421507525,306.676709481873,1.17024718338907E-8));
#850=CARTESIAN_POINT('Ctrl Pts',(-231.607487132659,306.882054677773,2.8421709430404E-13));
#851=CARTESIAN_POINT('Ctrl Pts',(-235.199051897004,307.087428415573,-1.1703531443771E-8));
#852=CARTESIAN_POINT('Ctrl Pts',(-238.789415140841,307.313823212047,6.19139393093841E-9));
#853=CARTESIAN_POINT('Ctrl Pts',(-242.378336023358,307.561148753714,2.8421709430404E-13));
#854=CARTESIAN_POINT('Ctrl Pts',(-245.967520605348,307.808492467866,-6.19126969527881E-9));
#855=CARTESIAN_POINT('Ctrl Pts',(-249.555262881475,308.076769997608,5.44833208795912E-10));
#856=CARTESIAN_POINT('Ctrl Pts',(-253.141324815996,308.365891517768,0.));
#857=CARTESIAN_POINT('Ctrl Pts',(-256.727409927867,308.655014906572,-5.44844207624557E-10));
#858=CARTESIAN_POINT('Ctrl Pts',(-260.311814625319,308.964982546235,-5.22210100266321E-9));
#859=CARTESIAN_POINT('Ctrl Pts',(-263.894303604272,309.295705146833,1.4210854715202E-13));
#860=CARTESIAN_POINT('Ctrl Pts',(-267.476570799046,309.626407273107,5.22205622738786E-9));
#861=CARTESIAN_POINT('Ctrl Pts',(-271.056922140003,309.977861770231,-1.1095991296334E-8));
#862=CARTESIAN_POINT('Ctrl Pts',(-274.635124981972,310.349979923529,4.2632564145606E-13));
#863=CARTESIAN_POINT('Ctrl Pts',(-278.212857278452,310.722049142061,1.10953777903097E-8));
#864=CARTESIAN_POINT('Ctrl Pts',(-281.788440945231,311.114776542751,-1.70630580202827E-8));
#865=CARTESIAN_POINT('Ctrl Pts',(-285.361645924203,311.528074019407,6.3948846218409E-13));
#866=CARTESIAN_POINT('Ctrl Pts',(-288.934128433403,311.941287931046,1.70608985455124E-8));
#867=CARTESIAN_POINT('Ctrl Pts',(-292.504232174537,312.375065046078,-4.56483631143225E-9));
#868=CARTESIAN_POINT('Ctrl Pts',(-296.071337686456,312.82926344676,-7.105427357601E-14));
#869=CARTESIAN_POINT('Ctrl Pts',(-296.37422414769,312.867829882719,3.87526477398426E-10));
#870=CARTESIAN_POINT('Ctrl Pts',(-296.677097779759,312.906544662154,1.33937009684262E-10));
#871=CARTESIAN_POINT('Ctrl Pts',(-296.979958588587,312.94540776796,-3.75592890122789E-10));
#872=CARTESIAN_POINT('Ctrl Pts',(-298.460314982655,313.135367133772,-2.86612556216411E-9));
#873=CARTESIAN_POINT('Ctrl Pts',(-299.940256023173,313.328854147373,2.0570702821926E-9));
#874=CARTESIAN_POINT('Ctrl Pts',(-301.419782466074,313.525865450034,1.4210854715202E-13));
#875=CARTESIAN_POINT('Ctrl Pts',(-303.202200340138,313.763209276458,-2.47787941604726E-9));
#876=CARTESIAN_POINT('Ctrl Pts',(-304.983937467411,314.005657759199,4.04057859185366E-9));
#877=CARTESIAN_POINT('Ctrl Pts',(-306.764885771389,314.25318845548,3.5527136788005E-13));
#878=CARTESIAN_POINT('Ctrl Pts',(-310.327294888367,314.748321080721,-8.08124970468079E-9));
#879=CARTESIAN_POINT('Ctrl Pts',(-313.887060858663,315.263859771475,1.17788948656935E-8));
#880=CARTESIAN_POINT('Ctrl Pts',(-317.443769260169,315.799693899403,4.9737991503207E-13));
#881=CARTESIAN_POINT('Ctrl Pts',(-321.000975859686,316.335603083103,-1.17795545136204E-8));
#882=CARTESIAN_POINT('Ctrl Pts',(-324.5551244646,316.891812686777,6.46075039742548E-9));
#883=CARTESIAN_POINT('Ctrl Pts',(-328.10599160977,317.468236856693,0.));
#884=CARTESIAN_POINT('Ctrl Pts',(-331.657132086271,318.0447053974,-6.46125045401136E-9));
#885=CARTESIAN_POINT('Ctrl Pts',(-335.204990777373,318.641391624972,1.07983905583663E-9));
#886=CARTESIAN_POINT('Ctrl Pts',(-338.749345949818,319.258210382285,7.105427357601E-14));
#887=CARTESIAN_POINT('Ctrl Pts',(-342.293746804103,319.875037089539,-1.07970250509983E-9));
#888=CARTESIAN_POINT('Ctrl Pts',(-345.83464402011,320.51199683579,-4.35388025933075E-9));
#889=CARTESIAN_POINT('Ctrl Pts',(-349.371817524151,321.169005174928,0.));
#890=CARTESIAN_POINT('Ctrl Pts',(-352.908806852079,321.82597930448,4.35363108446359E-9));
#891=CARTESIAN_POINT('Ctrl Pts',(-356.442072619004,322.502999906325,-9.82932355495014E-9));
#892=CARTESIAN_POINT('Ctrl Pts',(-359.971396340113,323.199983253575,3.5527136788005E-13));
#893=CARTESIAN_POINT('Ctrl Pts',(-363.500304388581,323.89688451232,9.82887851059502E-9));
#894=CARTESIAN_POINT('Ctrl Pts',(-367.025270877401,324.613743753609,-1.53361248044333E-8));
#895=CARTESIAN_POINT('Ctrl Pts',(-370.546078841872,325.350477971932,7.8159700933611E-13));
#896=CARTESIAN_POINT('Ctrl Pts',(-374.066238564536,326.087076544709,1.5334929588964E-8));
#897=CARTESIAN_POINT('Ctrl Pts',(-377.58224050893,326.843543668126,-8.58696282956565E-9));
#898=CARTESIAN_POINT('Ctrl Pts',(-381.093610274251,327.619736778251,-7.105427357601E-14));
#899=CARTESIAN_POINT('Ctrl Pts',(-381.946075673839,327.808175425845,2.08459647005994E-9));
#900=CARTESIAN_POINT('Ctrl Pts',(-382.798265851235,327.997776108734,7.236828115824E-10));
#901=CARTESIAN_POINT('Ctrl Pts',(-383.650224157066,328.18854803182,8.26929635877605E-10));
#902=CARTESIAN_POINT('Ctrl Pts',(-384.552651421481,328.390621048187,9.36292640529483E-10));
#903=CARTESIAN_POINT('Ctrl Pts',(-385.454777741064,328.593998243078,1.07534326234615E-9));
#904=CARTESIAN_POINT('Ctrl Pts',(-386.35665459223,328.798690826384,-7.105427357601E-14));
#905=CARTESIAN_POINT('Ctrl Pts',(-388.110125806628,329.196663733843,-2.0909531014966E-9));
#906=CARTESIAN_POINT('Ctrl Pts',(-389.862493978193,329.599573013918,4.10908466238429E-9));
#907=CARTESIAN_POINT('Ctrl Pts',(-391.613633430546,330.007385148312,7.105427357601E-14));
#908=CARTESIAN_POINT('Ctrl Pts',(-395.116433678236,330.823130829472,-8.21917953739811E-9));
#909=CARTESIAN_POINT('Ctrl Pts',(-398.614839300227,331.658615179796,1.21509655249731E-8));
#910=CARTESIAN_POINT('Ctrl Pts',(-402.108443978466,332.513714521107,4.9737991503207E-13));
#911=CARTESIAN_POINT('Ctrl Pts',(-405.60256315703,333.368939792205,-1.2151760806042E-8));
#912=CARTESIAN_POINT('Ctrl Pts',(-409.09188031004,334.243785126015,7.00891405147382E-9));
#913=CARTESIAN_POINT('Ctrl Pts',(-412.576181906394,335.13816996408,1.4210854715202E-13));
#914=CARTESIAN_POINT('Ctrl Pts',(-416.060780577629,336.032631058249,-7.00921610936494E-9));
#915=CARTESIAN_POINT('Ctrl Pts',(-419.540362921716,336.946634991931,1.86092238314639E-9));
#916=CARTESIAN_POINT('Ctrl Pts',(-423.014716151633,337.88010187247,0.));
#917=CARTESIAN_POINT('Ctrl Pts',(-426.489148318985,338.813589961411,-1.86089830924706E-9));
#918=CARTESIAN_POINT('Ctrl Pts',(-429.958351109033,339.766541869806,-3.28443239026577E-9));
#919=CARTESIAN_POINT('Ctrl Pts',(-433.422112412132,340.738878359727,0.));
#920=CARTESIAN_POINT('Ctrl Pts',(-436.885734327628,341.711175721186,3.28430174030907E-9));
#921=CARTESIAN_POINT('Ctrl Pts',(-440.343915061537,342.702856075055,-8.41887658270961E-9));
#922=CARTESIAN_POINT('Ctrl Pts',(-443.796443117163,343.713840821313,2.1316282072803E-13));
#923=CARTESIAN_POINT('Ctrl Pts',(-447.248613791463,344.724720917569,8.41843474055829E-9));
#924=CARTESIAN_POINT('Ctrl Pts',(-450.695132721497,345.754901361659,-1.35343065337407E-8));
#925=CARTESIAN_POINT('Ctrl Pts',(-454.135788961662,346.804304169042,5.6843418860808E-13));
#926=CARTESIAN_POINT('Ctrl Pts',(-457.575870671915,347.853531744358,1.35331717727155E-8));
#927=CARTESIAN_POINT('Ctrl Pts',(-461.010091102423,348.92197596803,-8.90791747825167E-9));
#928=CARTESIAN_POINT('Ctrl Pts',(-464.438034287725,350.009491722497,2.1316282072803E-13));
#929=CARTESIAN_POINT('Ctrl Pts',(-465.969423198411,350.495325202389,3.97979805022575E-9));
#930=CARTESIAN_POINT('Ctrl Pts',(-467.499639719872,350.984990312689,1.03664753771286E-9));
#931=CARTESIAN_POINT('Ctrl Pts',(-469.028607355375,351.478461876974,1.14468434730952E-10));
#932=CARTESIAN_POINT('Ctrl Pts',(-469.210621547907,351.537206631425,4.68822466800117E-12));
#933=CARTESIAN_POINT('Ctrl Pts',(-469.392616350115,351.596004748484,1.04970795617315E-11));
#934=CARTESIAN_POINT('Ctrl Pts',(-469.574591634128,351.654856181565,0.));
#935=CARTESIAN_POINT('Ctrl Pts',(-471.285247910129,352.208088308101,-9.86931128430824E-11));
#936=CARTESIAN_POINT('Ctrl Pts',(-472.994465073204,352.766124703169,4.24403427493018E-9));
#937=CARTESIAN_POINT('Ctrl Pts',(-474.702027350115,353.328894058751,3.5527136788005E-13));
#938=CARTESIAN_POINT('Ctrl Pts',(-478.117692667267,354.454610991837,-8.48833975512499E-9));
#939=CARTESIAN_POINT('Ctrl Pts',(-481.527277499469,355.599443312093,1.27465876247073E-8));
#940=CARTESIAN_POINT('Ctrl Pts',(-484.930372944177,356.763251516573,4.9737991503207E-13));
#941=CARTESIAN_POINT('Ctrl Pts',(-488.334010690058,357.927245180016,-1.27476363786597E-8));
#942=CARTESIAN_POINT('Ctrl Pts',(-491.731157207049,359.11022000956,7.72359524175526E-9));
#943=CARTESIAN_POINT('Ctrl Pts',(-495.121602082871,360.312099988084,7.105427357601E-14));
#944=CARTESIAN_POINT('Ctrl Pts',(-498.512376011104,361.514096612511,-7.72420595879034E-9));
#945=CARTESIAN_POINT('Ctrl Pts',(-501.896446965246,362.735002027646,2.7435690669749E-9));
#946=CARTESIAN_POINT('Ctrl Pts',(-505.27360436742,363.974740659311,7.105427357601E-14));
#947=CARTESIAN_POINT('Ctrl Pts',(-508.65087878418,365.214522246481,-2.7435375064661E-9));
#948=CARTESIAN_POINT('Ctrl Pts',(-512.0212391177,366.473138331018,-2.18657247446125E-9));
#949=CARTESIAN_POINT('Ctrl Pts',(-515.384474566064,367.750513748651,-1.4210854715202E-13));
#950=CARTESIAN_POINT('Ctrl Pts',(-518.747616692355,369.027853722043,2.18623214463234E-9));
#951=CARTESIAN_POINT('Ctrl Pts',(-522.103634259724,370.323951967143,-7.059714879104E-9));
#952=CARTESIAN_POINT('Ctrl Pts',(-525.452316186692,371.638733691034,7.105427357601E-14));
#953=CARTESIAN_POINT('Ctrl Pts',(-528.800696639475,372.95339704813,7.05921371055433E-9));
#954=CARTESIAN_POINT('Ctrl Pts',(-532.141742689575,374.286740503959,-1.1870065543923E-8));
#955=CARTESIAN_POINT('Ctrl Pts',(-535.475242923573,375.638689593009,3.5527136788005E-13));
#956=CARTESIAN_POINT('Ctrl Pts',(-538.808236192843,376.990433075203,1.18689734710986E-8));
#957=CARTESIAN_POINT('Ctrl Pts',(-542.13368530091,378.360777837642,-1.07188599194645E-13));
#958=CARTESIAN_POINT('Ctrl Pts',(-545.45102541852,379.749497265849,-2.1316282072803E-13));
#959=CARTESIAN_POINT('Origin',(-383.969841003418,777.371292114258,25.));
#960=CARTESIAN_POINT('Origin',(-41.6904449462891,123.324584960938,0.));
#961=UNCERTAINTY_MEASURE_WITH_UNIT(LENGTH_MEASURE(0.01),#965,
'DISTANCE_ACCURACY_VALUE',
'Maximum model space distance between geometric entities at asserted c
onnectivities');
#962=UNCERTAINTY_MEASURE_WITH_UNIT(LENGTH_MEASURE(0.01),#965,
'DISTANCE_ACCURACY_VALUE',
'Maximum model space distance between geometric entities at asserted c
onnectivities');
#963=(
GEOMETRIC_REPRESENTATION_CONTEXT(3)
GLOBAL_UNCERTAINTY_ASSIGNED_CONTEXT((#961))
GLOBAL_UNIT_ASSIGNED_CONTEXT((#965,#967,#968))
REPRESENTATION_CONTEXT('','3D')
);
#964=(
GEOMETRIC_REPRESENTATION_CONTEXT(3)
GLOBAL_UNCERTAINTY_ASSIGNED_CONTEXT((#962))
GLOBAL_UNIT_ASSIGNED_CONTEXT((#965,#967,#968))
REPRESENTATION_CONTEXT('','3D')
);
#965=(
LENGTH_UNIT()
NAMED_UNIT(*)
SI_UNIT(.MILLI.,.METRE.)
);
#966=(
LENGTH_UNIT()
NAMED_UNIT(*)
SI_UNIT($,.METRE.)
);
#967=(
NAMED_UNIT(*)
PLANE_ANGLE_UNIT()
SI_UNIT($,.RADIAN.)
);
#968=(
NAMED_UNIT(*)
SI_UNIT($,.STERADIAN.)
SOLID_ANGLE_UNIT()
);
#969=SHAPE_DEFINITION_REPRESENTATION(#970,#971);
#970=PRODUCT_DEFINITION_SHAPE('',$,#973);
#971=SHAPE_REPRESENTATION('',(#254),#963);
#972=PRODUCT_DEFINITION_CONTEXT('part definition',#977,'design');
#973=PRODUCT_DEFINITION('MODEL-13','MODEL-13 v1',#974,#972);
#974=PRODUCT_DEFINITION_FORMATION('',$,#979);
#975=PRODUCT_RELATED_PRODUCT_CATEGORY('MODEL-13 v1','MODEL-13 v1',(#979));
#976=APPLICATION_PROTOCOL_DEFINITION('international standard',
'automotive_design',2009,#977);
#977=APPLICATION_CONTEXT(
'Core Data for Automotive Mechanical Design Process');
#978=PRODUCT_CONTEXT('part definition',#977,'mechanical');
#979=PRODUCT('MODEL-13','MODEL-13 v1',$,(#978));
#980=PRESENTATION_STYLE_ASSIGNMENT((#982));
#981=PRESENTATION_STYLE_ASSIGNMENT((#983));
#982=SURFACE_STYLE_USAGE(.BOTH.,#984);
#983=SURFACE_STYLE_USAGE(.BOTH.,#985);
#984=SURFACE_SIDE_STYLE('',(#986));
#985=SURFACE_SIDE_STYLE('',(#987));
#986=SURFACE_STYLE_FILL_AREA(#988);
#987=SURFACE_STYLE_FILL_AREA(#989);
#988=FILL_AREA_STYLE('Steel - Satin',(#990));
#989=FILL_AREA_STYLE('Aluminum - Bead Blasted',(#991));
#990=FILL_AREA_STYLE_COLOUR('Steel - Satin',#992);
#991=FILL_AREA_STYLE_COLOUR('Aluminum - Bead Blasted',#993);
#992=COLOUR_RGB('Steel - Satin',0.627450980392157,0.627450980392157,0.627450980392157);
#993=COLOUR_RGB('Aluminum - Bead Blasted',0.96078431372549,0.96078431372549,
0.964705882352941);
ENDSEC;
END-ISO-10303-21;
