ISO-10303-21;
HEADER;
/* Generated by software containing ST-Developer
 * from STEP Tools, Inc. (www.steptools.com) 
 */

FILE_DESCRIPTION(
/* description */ (''),
/* implementation_level */ '2;1');

FILE_NAME(
/* name */ 
'/Volumes/IGEMS/Temp/JJ/Sample parts/Toolpath - Multiple cuts.step',
/* time_stamp */ '2019-05-27T15:34:52+02:00',
/* author */ (''),
/* organization */ (''),
/* preprocessor_version */ 'ST-DEVELOPER v18',
/* originating_system */ 'Autodesk Translation Framework v8.2.0.1029',
/* authorisation */ '');

FILE_SCHEMA (('AUTOMOTIVE_DESIGN { 1 0 10303 214 3 1 1 }'));
ENDSEC;

DATA;
#10=MECHANICAL_DESIGN_GEOMETRIC_PRESENTATION_REPRESENTATION('',(#13),#352);
#11=SHAPE_REPRESENTATION_RELATIONSHIP('SRR','None',#359,#12);
#12=ADVANCED_BREP_SHAPE_REPRESENTATION('',(#14),#351);
#13=STYLED_ITEM('',(#369),#14);
#14=MANIFOLD_SOLID_BREP('Body1',#208);
#15=ELLIPSE('',#233,8.7172339781055,5.);
#16=ELLIPSE('',#235,8.7172339781055,5.);
#17=CYLINDRICAL_SURFACE('',#232,5.);
#18=CYLINDRICAL_SURFACE('',#234,5.);
#19=CIRCLE('',#227,5.);
#20=CIRCLE('',#228,5.);
#21=FACE_OUTER_BOUND('',#32,.T.);
#22=FACE_OUTER_BOUND('',#33,.T.);
#23=FACE_OUTER_BOUND('',#34,.T.);
#24=FACE_OUTER_BOUND('',#35,.T.);
#25=FACE_OUTER_BOUND('',#36,.T.);
#26=FACE_OUTER_BOUND('',#37,.T.);
#27=FACE_OUTER_BOUND('',#38,.T.);
#28=FACE_OUTER_BOUND('',#39,.T.);
#29=FACE_OUTER_BOUND('',#40,.T.);
#30=FACE_OUTER_BOUND('',#41,.T.);
#31=FACE_OUTER_BOUND('',#42,.T.);
#32=EDGE_LOOP('',(#134,#135,#136,#137));
#33=EDGE_LOOP('',(#138,#139,#140,#141));
#34=EDGE_LOOP('',(#142,#143,#144,#145));
#35=EDGE_LOOP('',(#146,#147,#148,#149,#150));
#36=EDGE_LOOP('',(#151,#152,#153,#154,#155,#156,#157,#158));
#37=EDGE_LOOP('',(#159,#160,#161,#162,#163));
#38=EDGE_LOOP('',(#164,#165,#166,#167));
#39=EDGE_LOOP('',(#168,#169,#170,#171));
#40=EDGE_LOOP('',(#172,#173,#174,#175));
#41=EDGE_LOOP('',(#176,#177,#178,#179));
#42=EDGE_LOOP('',(#180,#181,#182,#183,#184,#185,#186,#187));
#43=LINE('',#296,#66);
#44=LINE('',#298,#67);
#45=LINE('',#300,#68);
#46=LINE('',#301,#69);
#47=LINE('',#305,#70);
#48=LINE('',#307,#71);
#49=LINE('',#309,#72);
#50=LINE('',#310,#73);
#51=LINE('',#313,#74);
#52=LINE('',#315,#75);
#53=LINE('',#316,#76);
#54=LINE('',#318,#77);
#55=LINE('',#319,#78);
#56=LINE('',#323,#79);
#57=LINE('',#326,#80);
#58=LINE('',#328,#81);
#59=LINE('',#332,#82);
#60=LINE('',#333,#83);
#61=LINE('',#336,#84);
#62=LINE('',#337,#85);
#63=LINE('',#340,#86);
#64=LINE('',#342,#87);
#65=LINE('',#343,#88);
#66=VECTOR('',#241,1.);
#67=VECTOR('',#242,1.);
#68=VECTOR('',#243,1.);
#69=VECTOR('',#244,1.);
#70=VECTOR('',#247,1.);
#71=VECTOR('',#248,1.);
#72=VECTOR('',#249,1.);
#73=VECTOR('',#250,1.);
#74=VECTOR('',#253,1.);
#75=VECTOR('',#254,1.);
#76=VECTOR('',#255,1.);
#77=VECTOR('',#258,1.);
#78=VECTOR('',#259,1.);
#79=VECTOR('',#262,1.);
#80=VECTOR('',#265,1.);
#81=VECTOR('',#266,1.);
#82=VECTOR('',#271,1.);
#83=VECTOR('',#272,1.);
#84=VECTOR('',#275,1.);
#85=VECTOR('',#276,1.);
#86=VECTOR('',#279,1.);
#87=VECTOR('',#280,1.);
#88=VECTOR('',#281,1.);
#89=VERTEX_POINT('',#294);
#90=VERTEX_POINT('',#295);
#91=VERTEX_POINT('',#297);
#92=VERTEX_POINT('',#299);
#93=VERTEX_POINT('',#303);
#94=VERTEX_POINT('',#304);
#95=VERTEX_POINT('',#306);
#96=VERTEX_POINT('',#308);
#97=VERTEX_POINT('',#312);
#98=VERTEX_POINT('',#314);
#99=VERTEX_POINT('',#321);
#100=VERTEX_POINT('',#322);
#101=VERTEX_POINT('',#325);
#102=VERTEX_POINT('',#327);
#103=VERTEX_POINT('',#331);
#104=VERTEX_POINT('',#335);
#105=VERTEX_POINT('',#339);
#106=VERTEX_POINT('',#341);
#107=EDGE_CURVE('',#89,#90,#43,.T.);
#108=EDGE_CURVE('',#90,#91,#44,.T.);
#109=EDGE_CURVE('',#92,#91,#45,.T.);
#110=EDGE_CURVE('',#89,#92,#46,.T.);
#111=EDGE_CURVE('',#93,#94,#47,.T.);
#112=EDGE_CURVE('',#95,#93,#48,.T.);
#113=EDGE_CURVE('',#96,#95,#49,.T.);
#114=EDGE_CURVE('',#94,#96,#50,.T.);
#115=EDGE_CURVE('',#97,#94,#51,.T.);
#116=EDGE_CURVE('',#97,#98,#52,.T.);
#117=EDGE_CURVE('',#98,#93,#53,.T.);
#118=EDGE_CURVE('',#91,#97,#54,.T.);
#119=EDGE_CURVE('',#92,#96,#55,.T.);
#120=EDGE_CURVE('',#99,#100,#56,.T.);
#121=EDGE_CURVE('',#99,#89,#19,.T.);
#122=EDGE_CURVE('',#101,#95,#57,.T.);
#123=EDGE_CURVE('',#102,#101,#58,.T.);
#124=EDGE_CURVE('',#102,#100,#20,.T.);
#125=EDGE_CURVE('',#98,#103,#59,.T.);
#126=EDGE_CURVE('',#103,#101,#60,.T.);
#127=EDGE_CURVE('',#103,#104,#61,.T.);
#128=EDGE_CURVE('',#104,#102,#62,.T.);
#129=EDGE_CURVE('',#100,#105,#63,.T.);
#130=EDGE_CURVE('',#105,#106,#64,.T.);
#131=EDGE_CURVE('',#106,#99,#65,.T.);
#132=EDGE_CURVE('',#106,#90,#15,.T.);
#133=EDGE_CURVE('',#104,#105,#16,.T.);
#134=ORIENTED_EDGE('',*,*,#107,.T.);
#135=ORIENTED_EDGE('',*,*,#108,.T.);
#136=ORIENTED_EDGE('',*,*,#109,.F.);
#137=ORIENTED_EDGE('',*,*,#110,.F.);
#138=ORIENTED_EDGE('',*,*,#111,.F.);
#139=ORIENTED_EDGE('',*,*,#112,.F.);
#140=ORIENTED_EDGE('',*,*,#113,.F.);
#141=ORIENTED_EDGE('',*,*,#114,.F.);
#142=ORIENTED_EDGE('',*,*,#115,.F.);
#143=ORIENTED_EDGE('',*,*,#116,.T.);
#144=ORIENTED_EDGE('',*,*,#117,.T.);
#145=ORIENTED_EDGE('',*,*,#111,.T.);
#146=ORIENTED_EDGE('',*,*,#109,.T.);
#147=ORIENTED_EDGE('',*,*,#118,.T.);
#148=ORIENTED_EDGE('',*,*,#115,.T.);
#149=ORIENTED_EDGE('',*,*,#114,.T.);
#150=ORIENTED_EDGE('',*,*,#119,.F.);
#151=ORIENTED_EDGE('',*,*,#120,.F.);
#152=ORIENTED_EDGE('',*,*,#121,.T.);
#153=ORIENTED_EDGE('',*,*,#110,.T.);
#154=ORIENTED_EDGE('',*,*,#119,.T.);
#155=ORIENTED_EDGE('',*,*,#113,.T.);
#156=ORIENTED_EDGE('',*,*,#122,.F.);
#157=ORIENTED_EDGE('',*,*,#123,.F.);
#158=ORIENTED_EDGE('',*,*,#124,.T.);
#159=ORIENTED_EDGE('',*,*,#117,.F.);
#160=ORIENTED_EDGE('',*,*,#125,.T.);
#161=ORIENTED_EDGE('',*,*,#126,.T.);
#162=ORIENTED_EDGE('',*,*,#122,.T.);
#163=ORIENTED_EDGE('',*,*,#112,.T.);
#164=ORIENTED_EDGE('',*,*,#126,.F.);
#165=ORIENTED_EDGE('',*,*,#127,.T.);
#166=ORIENTED_EDGE('',*,*,#128,.T.);
#167=ORIENTED_EDGE('',*,*,#123,.T.);
#168=ORIENTED_EDGE('',*,*,#129,.T.);
#169=ORIENTED_EDGE('',*,*,#130,.T.);
#170=ORIENTED_EDGE('',*,*,#131,.T.);
#171=ORIENTED_EDGE('',*,*,#120,.T.);
#172=ORIENTED_EDGE('',*,*,#131,.F.);
#173=ORIENTED_EDGE('',*,*,#132,.T.);
#174=ORIENTED_EDGE('',*,*,#107,.F.);
#175=ORIENTED_EDGE('',*,*,#121,.F.);
#176=ORIENTED_EDGE('',*,*,#128,.F.);
#177=ORIENTED_EDGE('',*,*,#133,.T.);
#178=ORIENTED_EDGE('',*,*,#129,.F.);
#179=ORIENTED_EDGE('',*,*,#124,.F.);
#180=ORIENTED_EDGE('',*,*,#118,.F.);
#181=ORIENTED_EDGE('',*,*,#108,.F.);
#182=ORIENTED_EDGE('',*,*,#132,.F.);
#183=ORIENTED_EDGE('',*,*,#130,.F.);
#184=ORIENTED_EDGE('',*,*,#133,.F.);
#185=ORIENTED_EDGE('',*,*,#127,.F.);
#186=ORIENTED_EDGE('',*,*,#125,.F.);
#187=ORIENTED_EDGE('',*,*,#116,.F.);
#188=PLANE('',#222);
#189=PLANE('',#223);
#190=PLANE('',#224);
#191=PLANE('',#225);
#192=PLANE('',#226);
#193=PLANE('',#229);
#194=PLANE('',#230);
#195=PLANE('',#231);
#196=PLANE('',#236);
#197=ADVANCED_FACE('',(#21),#188,.T.);
#198=ADVANCED_FACE('',(#22),#189,.T.);
#199=ADVANCED_FACE('',(#23),#190,.T.);
#200=ADVANCED_FACE('',(#24),#191,.T.);
#201=ADVANCED_FACE('',(#25),#192,.T.);
#202=ADVANCED_FACE('',(#26),#193,.T.);
#203=ADVANCED_FACE('',(#27),#194,.T.);
#204=ADVANCED_FACE('',(#28),#195,.T.);
#205=ADVANCED_FACE('',(#29),#17,.T.);
#206=ADVANCED_FACE('',(#30),#18,.F.);
#207=ADVANCED_FACE('',(#31),#196,.F.);
#208=CLOSED_SHELL('',(#197,#198,#199,#200,#201,#202,#203,#204,#205,#206,
#207));
#209=DERIVED_UNIT_ELEMENT(#211,1.);
#210=DERIVED_UNIT_ELEMENT(#354,3.);
#211=(
MASS_UNIT()
NAMED_UNIT(*)
SI_UNIT(.KILO.,.GRAM.)
);
#212=DERIVED_UNIT((#209,#210));
#213=MEASURE_REPRESENTATION_ITEM('density measure',
POSITIVE_RATIO_MEASURE(7850.),#212);
#214=PROPERTY_DEFINITION_REPRESENTATION(#219,#216);
#215=PROPERTY_DEFINITION_REPRESENTATION(#220,#217);
#216=REPRESENTATION('material name',(#218),#351);
#217=REPRESENTATION('density',(#213),#351);
#218=DESCRIPTIVE_REPRESENTATION_ITEM('Steel','Steel');
#219=PROPERTY_DEFINITION('material property','material name',#361);
#220=PROPERTY_DEFINITION('material property','density of part',#361);
#221=AXIS2_PLACEMENT_3D('placement',#292,#237,#238);
#222=AXIS2_PLACEMENT_3D('',#293,#239,#240);
#223=AXIS2_PLACEMENT_3D('',#302,#245,#246);
#224=AXIS2_PLACEMENT_3D('',#311,#251,#252);
#225=AXIS2_PLACEMENT_3D('',#317,#256,#257);
#226=AXIS2_PLACEMENT_3D('',#320,#260,#261);
#227=AXIS2_PLACEMENT_3D('',#324,#263,#264);
#228=AXIS2_PLACEMENT_3D('',#329,#267,#268);
#229=AXIS2_PLACEMENT_3D('',#330,#269,#270);
#230=AXIS2_PLACEMENT_3D('',#334,#273,#274);
#231=AXIS2_PLACEMENT_3D('',#338,#277,#278);
#232=AXIS2_PLACEMENT_3D('',#344,#282,#283);
#233=AXIS2_PLACEMENT_3D('',#345,#284,#285);
#234=AXIS2_PLACEMENT_3D('',#346,#286,#287);
#235=AXIS2_PLACEMENT_3D('',#347,#288,#289);
#236=AXIS2_PLACEMENT_3D('',#348,#290,#291);
#237=DIRECTION('axis',(0.,0.,1.));
#238=DIRECTION('refdir',(1.,0.,0.));
#239=DIRECTION('center_axis',(0.,0.,-1.));
#240=DIRECTION('ref_axis',(-1.,0.,0.));
#241=DIRECTION('',(0.,-1.,0.));
#242=DIRECTION('',(-1.,0.,0.));
#243=DIRECTION('',(0.,-1.,0.));
#244=DIRECTION('',(-1.,0.,0.));
#245=DIRECTION('center_axis',(0.,0.,1.));
#246=DIRECTION('ref_axis',(1.,0.,0.));
#247=DIRECTION('',(-1.,0.,0.));
#248=DIRECTION('',(0.,-1.,0.));
#249=DIRECTION('',(1.,0.,0.));
#250=DIRECTION('',(0.,1.,0.));
#251=DIRECTION('center_axis',(0.,-1.,0.));
#252=DIRECTION('ref_axis',(0.,0.,-1.));
#253=DIRECTION('',(0.,0.,1.));
#254=DIRECTION('',(1.,0.,0.));
#255=DIRECTION('',(0.,0.,1.));
#256=DIRECTION('center_axis',(-1.,0.,0.));
#257=DIRECTION('ref_axis',(0.,0.,1.));
#258=DIRECTION('',(0.,-0.819152044288992,0.573576436351046));
#259=DIRECTION('',(0.,0.,1.));
#260=DIRECTION('center_axis',(0.,1.,0.));
#261=DIRECTION('ref_axis',(0.,0.,1.));
#262=DIRECTION('',(0.,0.,1.));
#263=DIRECTION('center_axis',(0.,1.,0.));
#264=DIRECTION('ref_axis',(0.,0.,1.));
#265=DIRECTION('',(0.,0.,1.));
#266=DIRECTION('',(1.,0.,0.));
#267=DIRECTION('center_axis',(0.,-1.,0.));
#268=DIRECTION('ref_axis',(0.,0.,1.));
#269=DIRECTION('center_axis',(1.,0.,0.));
#270=DIRECTION('ref_axis',(0.,0.,-1.));
#271=DIRECTION('',(0.,0.819152044288992,-0.573576436351046));
#272=DIRECTION('',(0.,1.,0.));
#273=DIRECTION('center_axis',(0.,0.,-1.));
#274=DIRECTION('ref_axis',(0.,1.,0.));
#275=DIRECTION('',(-1.,0.,0.));
#276=DIRECTION('',(0.,1.,0.));
#277=DIRECTION('center_axis',(1.,0.,0.));
#278=DIRECTION('ref_axis',(0.,0.,-1.));
#279=DIRECTION('',(0.,-1.,0.));
#280=DIRECTION('',(0.,0.819152044288992,-0.573576436351046));
#281=DIRECTION('',(0.,1.,0.));
#282=DIRECTION('center_axis',(0.,1.,0.));
#283=DIRECTION('ref_axis',(0.,0.,1.));
#284=DIRECTION('center_axis',(0.,0.573576436351046,0.819152044288992));
#285=DIRECTION('ref_axis',(0.,0.819152044288992,-0.573576436351046));
#286=DIRECTION('center_axis',(0.,-1.,0.));
#287=DIRECTION('ref_axis',(0.,0.,-1.));
#288=DIRECTION('center_axis',(0.,-0.573576436351046,-0.819152044288992));
#289=DIRECTION('ref_axis',(0.,-0.819152044288992,0.573576436351046));
#290=DIRECTION('center_axis',(0.,0.573576436351046,0.819152044288992));
#291=DIRECTION('ref_axis',(0.,-0.819152044288992,0.573576436351046));
#292=CARTESIAN_POINT('',(0.,0.,0.));
#293=CARTESIAN_POINT('Origin',(268.,15.,0.));
#294=CARTESIAN_POINT('',(381.,30.,0.));
#295=CARTESIAN_POINT('',(381.,24.5,0.));
#296=CARTESIAN_POINT('',(381.,15.,0.));
#297=CARTESIAN_POINT('',(0.,24.5,0.));
#298=CARTESIAN_POINT('',(268.,24.5,0.));
#299=CARTESIAN_POINT('',(0.,30.,0.));
#300=CARTESIAN_POINT('',(0.,15.,0.));
#301=CARTESIAN_POINT('',(268.,30.,0.));
#302=CARTESIAN_POINT('Origin',(268.,15.,20.));
#303=CARTESIAN_POINT('',(536.,0.,20.));
#304=CARTESIAN_POINT('',(0.,0.,20.));
#305=CARTESIAN_POINT('',(268.,0.,20.));
#306=CARTESIAN_POINT('',(536.,30.,20.));
#307=CARTESIAN_POINT('',(536.,15.,20.));
#308=CARTESIAN_POINT('',(0.,30.,20.));
#309=CARTESIAN_POINT('',(268.,30.,20.));
#310=CARTESIAN_POINT('',(0.,15.,20.));
#311=CARTESIAN_POINT('Origin',(268.,0.,0.));
#312=CARTESIAN_POINT('',(0.,-1.73472347597681E-15,17.1550846861379));
#313=CARTESIAN_POINT('',(0.,0.,0.));
#314=CARTESIAN_POINT('',(536.,-1.73472347597681E-15,17.1550846861379));
#315=CARTESIAN_POINT('',(268.,0.,17.1550846861379));
#316=CARTESIAN_POINT('',(536.,0.,0.));
#317=CARTESIAN_POINT('Origin',(0.,15.,0.));
#318=CARTESIAN_POINT('',(0.,18.1254043192031,4.46353994873306));
#319=CARTESIAN_POINT('',(0.,30.,0.));
#320=CARTESIAN_POINT('Origin',(268.,30.,0.));
#321=CARTESIAN_POINT('',(386.,30.,5.));
#322=CARTESIAN_POINT('',(386.,30.,9.));
#323=CARTESIAN_POINT('',(386.,30.,0.));
#324=CARTESIAN_POINT('Origin',(381.,30.,5.));
#325=CARTESIAN_POINT('',(536.,30.,14.));
#326=CARTESIAN_POINT('',(536.,30.,0.));
#327=CARTESIAN_POINT('',(391.,30.,14.));
#328=CARTESIAN_POINT('',(536.,30.,14.));
#329=CARTESIAN_POINT('Origin',(391.,30.,9.));
#330=CARTESIAN_POINT('Origin',(536.,15.,0.));
#331=CARTESIAN_POINT('',(536.,4.50592790561037,14.));
#332=CARTESIAN_POINT('',(536.,18.1254043192031,4.46353994873306));
#333=CARTESIAN_POINT('',(536.,0.,14.));
#334=CARTESIAN_POINT('Origin',(536.,0.,14.));
#335=CARTESIAN_POINT('',(391.,4.50592790561037,14.));
#336=CARTESIAN_POINT('',(268.,4.50592790561037,14.));
#337=CARTESIAN_POINT('',(391.,0.,14.));
#338=CARTESIAN_POINT('Origin',(386.,0.,0.));
#339=CARTESIAN_POINT('',(386.,11.6466679393209,9.));
#340=CARTESIAN_POINT('',(386.,0.,9.));
#341=CARTESIAN_POINT('',(386.,17.3592599662894,5.));
#342=CARTESIAN_POINT('',(386.,8.06025324426055,11.5112346046274));
#343=CARTESIAN_POINT('',(386.,0.,5.));
#344=CARTESIAN_POINT('Origin',(381.,0.,5.));
#345=CARTESIAN_POINT('Origin',(381.,17.3592599662894,5.));
#346=CARTESIAN_POINT('Origin',(391.,0.,9.));
#347=CARTESIAN_POINT('Origin',(391.,11.646667939321,9.));
#348=CARTESIAN_POINT('Origin',(268.,0.,17.1550846861379));
#349=UNCERTAINTY_MEASURE_WITH_UNIT(LENGTH_MEASURE(0.01),#353,
'DISTANCE_ACCURACY_VALUE',
'Maximum model space distance between geometric entities at asserted c
onnectivities');
#350=UNCERTAINTY_MEASURE_WITH_UNIT(LENGTH_MEASURE(0.01),#353,
'DISTANCE_ACCURACY_VALUE',
'Maximum model space distance between geometric entities at asserted c
onnectivities');
#351=(
GEOMETRIC_REPRESENTATION_CONTEXT(3)
GLOBAL_UNCERTAINTY_ASSIGNED_CONTEXT((#349))
GLOBAL_UNIT_ASSIGNED_CONTEXT((#353,#355,#356))
REPRESENTATION_CONTEXT('','3D')
);
#352=(
GEOMETRIC_REPRESENTATION_CONTEXT(3)
GLOBAL_UNCERTAINTY_ASSIGNED_CONTEXT((#350))
GLOBAL_UNIT_ASSIGNED_CONTEXT((#353,#355,#356))
REPRESENTATION_CONTEXT('','3D')
);
#353=(
LENGTH_UNIT()
NAMED_UNIT(*)
SI_UNIT(.MILLI.,.METRE.)
);
#354=(
LENGTH_UNIT()
NAMED_UNIT(*)
SI_UNIT($,.METRE.)
);
#355=(
NAMED_UNIT(*)
PLANE_ANGLE_UNIT()
SI_UNIT($,.RADIAN.)
);
#356=(
NAMED_UNIT(*)
SI_UNIT($,.STERADIAN.)
SOLID_ANGLE_UNIT()
);
#357=SHAPE_DEFINITION_REPRESENTATION(#358,#359);
#358=PRODUCT_DEFINITION_SHAPE('',$,#361);
#359=SHAPE_REPRESENTATION('',(#221),#351);
#360=PRODUCT_DEFINITION_CONTEXT('part definition',#365,'design');
#361=PRODUCT_DEFINITION('Toolpath - Multiple cuts',
'Toolpath - Multiple cuts v1',#362,#360);
#362=PRODUCT_DEFINITION_FORMATION('',$,#367);
#363=PRODUCT_RELATED_PRODUCT_CATEGORY('Toolpath - Multiple cuts v1',
'Toolpath - Multiple cuts v1',(#367));
#364=APPLICATION_PROTOCOL_DEFINITION('international standard',
'automotive_design',2009,#365);
#365=APPLICATION_CONTEXT(
'Core Data for Automotive Mechanical Design Process');
#366=PRODUCT_CONTEXT('part definition',#365,'mechanical');
#367=PRODUCT('Toolpath - Multiple cuts','Toolpath - Multiple cuts v1',$,
(#366));
#368=PRESENTATION_STYLE_ASSIGNMENT((#370));
#369=PRESENTATION_STYLE_ASSIGNMENT((#371));
#370=SURFACE_STYLE_USAGE(.BOTH.,#372);
#371=SURFACE_STYLE_USAGE(.BOTH.,#373);
#372=SURFACE_SIDE_STYLE('',(#374));
#373=SURFACE_SIDE_STYLE('',(#375));
#374=SURFACE_STYLE_FILL_AREA(#376);
#375=SURFACE_STYLE_FILL_AREA(#377);
#376=FILL_AREA_STYLE('Steel - Satin',(#378));
#377=FILL_AREA_STYLE('Aluminum - Bead Blasted',(#379));
#378=FILL_AREA_STYLE_COLOUR('Steel - Satin',#380);
#379=FILL_AREA_STYLE_COLOUR('Aluminum - Bead Blasted',#381);
#380=COLOUR_RGB('Steel - Satin',0.627450980392157,0.627450980392157,0.627450980392157);
#381=COLOUR_RGB('Aluminum - Bead Blasted',0.96078431372549,0.96078431372549,
0.964705882352941);
ENDSEC;
END-ISO-10303-21;
