ISO-10303-21;
HEADER;
/* Generated by software containing ST-Developer
 * from STEP Tools, Inc. (www.steptools.com) 
 */

FILE_DESCRIPTION(
/* description */ (''),
/* implementation_level */ '2;1');

FILE_NAME(
/* name */ 'C:\\Temp\\3D-5X-Demo parts\\Follow.stp',
/* time_stamp */ '2017-04-12T13:33:27+02:00',
/* author */ ('Inge'),
/* organization */ (''),
/* preprocessor_version */ 'ST-DEVELOPER v15.6',
/* originating_system */ 'Autodesk Inventor 2015',
/* authorisation */ '');

FILE_SCHEMA (('AUTOMOTIVE_DESIGN { 1 0 10303 214 3 1 1 }'));
ENDSEC;

DATA;
#10=MECHANICAL_DESIGN_GEOMETRIC_PRESENTATION_REPRESENTATION('',(#13),#1165);
#11=SHAPE_REPRESENTATION_RELATIONSHIP('SRR','None',#1174,#12);
#12=ADVANCED_BREP_SHAPE_REPRESENTATION($,(#14),#1164);
#13=STYLED_ITEM('',(#1183),#14);
#14=MANIFOLD_SOLID_BREP('Solid1',#289);
#15=FACE_BOUND('',#75,.T.);
#16=FACE_BOUND('',#79,.T.);
#17=CIRCLE('',#293,237.5);
#18=CIRCLE('',#295,262.5);
#19=CIRCLE('',#300,200.);
#20=CIRCLE('',#301,300.);
#21=CONICAL_SURFACE('',#292,237.5,10.);
#22=CONICAL_SURFACE('',#294,262.5,10.);
#23=LINE('',#419,#33);
#24=LINE('',#686,#34);
#25=LINE('',#813,#35);
#26=LINE('',#822,#36);
#27=LINE('',#824,#37);
#28=LINE('',#825,#38);
#29=LINE('',#899,#39);
#30=LINE('',#1011,#40);
#31=LINE('',#1013,#41);
#32=LINE('',#1014,#42);
#33=VECTOR('',#306,5.30796533269843);
#34=VECTOR('',#317,5.30796533166928);
#35=VECTOR('',#320,60.);
#36=VECTOR('',#321,20.);
#37=VECTOR('',#322,100.);
#38=VECTOR('',#323,20.);
#39=VECTOR('',#324,60.0000000000001);
#40=VECTOR('',#327,60.);
#41=VECTOR('',#328,100.);
#42=VECTOR('',#329,60.);
#43=PLANE('',#291);
#44=PLANE('',#296);
#45=PLANE('',#297);
#46=PLANE('',#298);
#47=PLANE('',#299);
#48=FACE_OUTER_BOUND('',#64,.T.);
#49=FACE_OUTER_BOUND('',#65,.T.);
#50=FACE_OUTER_BOUND('',#66,.T.);
#51=FACE_OUTER_BOUND('',#67,.T.);
#52=FACE_OUTER_BOUND('',#68,.T.);
#53=FACE_OUTER_BOUND('',#69,.T.);
#54=FACE_OUTER_BOUND('',#70,.T.);
#55=FACE_OUTER_BOUND('',#71,.T.);
#56=FACE_OUTER_BOUND('',#72,.T.);
#57=FACE_OUTER_BOUND('',#73,.T.);
#58=FACE_OUTER_BOUND('',#74,.T.);
#59=FACE_OUTER_BOUND('',#76,.T.);
#60=FACE_OUTER_BOUND('',#77,.T.);
#61=FACE_OUTER_BOUND('',#78,.T.);
#62=FACE_OUTER_BOUND('',#80,.T.);
#63=FACE_OUTER_BOUND('',#81,.T.);
#64=EDGE_LOOP('',(#180,#181,#182,#183));
#65=EDGE_LOOP('',(#184,#185,#186,#187));
#66=EDGE_LOOP('',(#188,#189,#190,#191));
#67=EDGE_LOOP('',(#192,#193,#194,#195));
#68=EDGE_LOOP('',(#196,#197,#198,#199));
#69=EDGE_LOOP('',(#200,#201,#202,#203));
#70=EDGE_LOOP('',(#204,#205,#206,#207));
#71=EDGE_LOOP('',(#208,#209,#210,#211));
#72=EDGE_LOOP('',(#212,#213,#214,#215));
#73=EDGE_LOOP('',(#216,#217,#218,#219,#220,#221));
#74=EDGE_LOOP('',(#222,#223,#224,#225));
#75=EDGE_LOOP('',(#226,#227,#228,#229,#230,#231,#232,#233));
#76=EDGE_LOOP('',(#234,#235,#236,#237));
#77=EDGE_LOOP('',(#238,#239,#240,#241,#242,#243));
#78=EDGE_LOOP('',(#244,#245,#246,#247));
#79=EDGE_LOOP('',(#248,#249,#250,#251,#252,#253,#254,#255));
#80=EDGE_LOOP('',(#256,#257,#258,#259));
#81=EDGE_LOOP('',(#260,#261,#262,#263));
#82=B_SPLINE_CURVE_WITH_KNOTS('',3,(#363,#364,#365,#366,#367,#368,#369,
#370,#371,#372,#373,#374,#375,#376,#377,#378,#379,#380,#381,#382,#383,#384),
 .UNSPECIFIED.,.F.,.F.,(4,3,3,3,3,3,3,4),(0.,0.394960359617424,0.457118008435194,
0.778257640573564,0.910431994480525,1.15773168103409,1.37475905734932,1.59311908366344),
 .UNSPECIFIED.);
#83=B_SPLINE_CURVE_WITH_KNOTS('',3,(#386,#387,#388,#389),.UNSPECIFIED.,
 .F.,.F.,(4,4),(1.03209513349724,5.17979590168261),.UNSPECIFIED.);
#84=B_SPLINE_CURVE_WITH_KNOTS('',3,(#391,#392,#393,#394,#395,#396,#397,
#398,#399,#400,#401,#402,#403,#404,#405,#406,#407,#408,#409,#410,#411,#412),
 .UNSPECIFIED.,.F.,.F.,(4,3,3,3,3,3,3,4),(0.,0.395346526207579,0.671722516004678,
0.77982305530466,1.11688596843158,1.16045957411384,1.36173960317775,1.56406341883487),
 .UNSPECIFIED.);
#85=B_SPLINE_CURVE_WITH_KNOTS('',3,(#413,#414,#415,#416),.UNSPECIFIED.,
 .F.,.F.,(4,4),(-5.19256153705758,-1.03209513368061),.UNSPECIFIED.);
#86=B_SPLINE_CURVE_WITH_KNOTS('',3,(#421,#422,#423,#424),.UNSPECIFIED.,
 .F.,.F.,(4,4),(-5.17045417866347,-1.02948681845865),.UNSPECIFIED.);
#87=B_SPLINE_CURVE_WITH_KNOTS('',3,(#425,#426,#427,#428),.UNSPECIFIED.,
 .F.,.F.,(4,4),(-4.51561455086824,-2.57617286276286),.UNSPECIFIED.);
#88=B_SPLINE_CURVE_WITH_KNOTS('',3,(#454,#455,#456,#457,#458,#459,#460,
#461,#462,#463,#464,#465,#466,#467,#468,#469,#470,#471,#472),
 .UNSPECIFIED.,.F.,.F.,(4,3,3,3,3,3,4),(0.,0.393655049140985,0.434176873593994,
0.776836965857422,0.865569967661413,1.1571812782031,1.51519986585724),
 .UNSPECIFIED.);
#89=B_SPLINE_CURVE_WITH_KNOTS('',3,(#474,#475,#476,#477),.UNSPECIFIED.,
 .F.,.F.,(4,4),(1.02948681856772,5.1843062553469),.UNSPECIFIED.);
#90=B_SPLINE_CURVE_WITH_KNOTS('',3,(#478,#479,#480,#481,#482,#483,#484,
#485,#486,#487,#488,#489,#490,#491,#492,#493,#494,#495,#496),
 .UNSPECIFIED.,.F.,.F.,(4,3,3,3,3,3,4),(0.,0.39275478047469,0.66106641516012,
0.776241755451082,1.10046754837612,1.1575399017076,1.54280065296569),
 .UNSPECIFIED.);
#91=B_SPLINE_CURVE_WITH_KNOTS('',3,(#501,#502,#503,#504),.UNSPECIFIED.,
 .F.,.F.,(4,4),(-9.24662589219913,-1.02937184620165),.UNSPECIFIED.);
#92=B_SPLINE_CURVE_WITH_KNOTS('',3,(#505,#506,#507,#508,#509,#510,#511,
#512,#513,#514,#515,#516,#517,#518,#519,#520,#521,#522),.UNSPECIFIED.,.F.,
 .F.,(4,2,2,2,2,2,2,2,4),(-65.7607012560165,-60.9141274908665,-53.43357571746,
-44.51016126142,-35.5510664280034,-26.5855711031055,-17.6608631214884,-8.8033229167299,
-1.92124314440962),.UNSPECIFIED.);
#93=B_SPLINE_CURVE_WITH_KNOTS('',3,(#549,#550,#551,#552,#553,#554,#555,
#556,#557,#558,#559,#560,#561,#562,#563,#564,#565,#566,#567,#568,#569,#570),
 .UNSPECIFIED.,.F.,.F.,(4,3,3,3,3,3,3,4),(0.,0.395077045804241,0.456700325845421,
0.778486886368612,0.909927343537051,1.15808764739964,1.37490633119257,1.59312443394068),
 .UNSPECIFIED.);
#94=B_SPLINE_CURVE_WITH_KNOTS('',3,(#572,#573,#574,#575),.UNSPECIFIED.,
 .F.,.F.,(4,4),(1.03207990732673,9.25411826391328),.UNSPECIFIED.);
#95=B_SPLINE_CURVE_WITH_KNOTS('',3,(#577,#578,#579,#580,#581,#582,#583,
#584,#585,#586,#587,#588,#589,#590,#591,#592,#593,#594,#595),
 .UNSPECIFIED.,.F.,.F.,(4,3,3,3,3,3,4),(0.,0.395051267646745,0.661424821240849,
0.778228942758376,1.09928656225903,1.15760091845406,1.54001596473019),
 .UNSPECIFIED.);
#96=B_SPLINE_CURVE_WITH_KNOTS('',3,(#596,#597,#598,#599),.UNSPECIFIED.,
 .F.,.F.,(4,4),(-9.26466305336683,-1.03207990732673),.UNSPECIFIED.);
#97=B_SPLINE_CURVE_WITH_KNOTS('',3,(#601,#602,#603,#604,#605,#606,#607,
#608,#609,#610,#611,#612,#613,#614,#615,#616,#617,#618),.UNSPECIFIED.,.F.,
 .F.,(4,2,2,2,2,2,2,2,4),(-79.05350607587,-72.3897488143501,-64.1781635141461,
-53.4239260286993,-42.698417424211,-31.9918450203085,-21.311929208565,-10.6595972157275,
-2.30113885552495),.UNSPECIFIED.);
#98=B_SPLINE_CURVE_WITH_KNOTS('',3,(#645,#646,#647,#648,#649,#650,#651,
#652,#653,#654,#655,#656,#657,#658,#659,#660,#661,#662,#663),
 .UNSPECIFIED.,.F.,.F.,(4,3,3,3,3,3,4),(0.,0.393759272403438,0.433830317129059,
0.77704546048393,0.865151486793038,1.15750725376981,1.51520250346576),
 .UNSPECIFIED.);
#99=B_SPLINE_CURVE_WITH_KNOTS('',3,(#665,#666,#667,#668),.UNSPECIFIED.,
 .F.,.F.,(4,4),(1.02937184620165,9.25834152032517),.UNSPECIFIED.);
#100=B_SPLINE_CURVE_WITH_KNOTS('',3,(#669,#670,#671,#672,#673,#674,#675,
#676,#677,#678,#679,#680),.UNSPECIFIED.,.F.,.F.,(4,2,2,2,2,4),(0.,0.394130900985286,
0.776374579616317,1.1552146685529,1.36354251243036,1.57306797875446),
 .UNSPECIFIED.);
#101=B_SPLINE_CURVE_WITH_KNOTS('',3,(#682,#683,#684,#685),.UNSPECIFIED.,
 .F.,.F.,(4,4),(-5.1635321940904,-1.93938335824015),.UNSPECIFIED.);
#102=B_SPLINE_CURVE_WITH_KNOTS('',3,(#761,#762,#763,#764,#765,#766),
 .UNSPECIFIED.,.F.,.F.,(4,2,4),(0.,1.41421356237309,2.82842712474618),
 .UNSPECIFIED.);
#103=B_SPLINE_CURVE_WITH_KNOTS('',3,(#768,#769,#770,#771,#772,#773,#774,
#775,#776,#777,#778,#779,#780,#781,#782,#783,#784,#785),.UNSPECIFIED.,.F.,
 .F.,(4,1,1,1,1,1,1,1,1,1,1,1,1,1,1,4),(-3.14159265358979,-2.91719317833338,
-2.69279370307697,-2.39359440273508,-2.24399475256414,-2.0943951023932,
-1.94479545222225,-1.79519580205131,-1.49599650170943,-1.34639685153848,
-1.19679720136754,-0.897597901025655,-0.673198425769241,-0.448798950512828,
-0.224399475256414,7.96414574688935E-19),.UNSPECIFIED.);
#104=B_SPLINE_CURVE_WITH_KNOTS('',3,(#787,#788,#789,#790,#791,#792),
 .UNSPECIFIED.,.F.,.F.,(4,2,4),(0.,1.4142135623731,2.82842712474619),
 .UNSPECIFIED.);
#105=B_SPLINE_CURVE_WITH_KNOTS('',3,(#793,#794,#795,#796,#797,#798,#799,
#800,#801,#802,#803,#804,#805,#806,#807,#808,#809,#810),.UNSPECIFIED.,.F.,
 .F.,(4,1,1,1,1,1,1,1,1,1,1,1,1,1,1,4),(-7.96414574688935E-19,0.224399475256414,
0.448798950512828,0.673198425769241,0.897597901025655,1.19679720136754,
1.34639685153848,1.49599650170943,1.79519580205131,1.94479545222225,2.0943951023932,
2.24399475256414,2.39359440273508,2.69279370307697,2.91719317833338,3.14159265358979),
 .UNSPECIFIED.);
#106=B_SPLINE_CURVE_WITH_KNOTS('',3,(#815,#816,#817,#818,#819,#820),
 .UNSPECIFIED.,.F.,.F.,(4,2,4),(0.,1.4142135623731,2.82842712474619),
 .UNSPECIFIED.);
#107=B_SPLINE_CURVE_WITH_KNOTS('',3,(#900,#901,#902,#903,#904,#905,#906,
#907,#908,#909,#910,#911,#912,#913,#914,#915,#916),.UNSPECIFIED.,.F.,.F.,
(4,1,1,1,1,1,1,1,1,1,1,1,1,1,4),(-5.48891350077133E-18,0.224399475256414,
0.448798950512828,0.673198425769241,0.897597901025655,1.19679720136754,
1.34639685153848,1.49599650170943,1.79519580205131,2.0943951023932,2.24399475256414,
2.39359440273508,2.69279370307697,2.91719317833338,3.14159265358979),
 .UNSPECIFIED.);
#108=B_SPLINE_CURVE_WITH_KNOTS('',3,(#986,#987,#988,#989,#990,#991),
 .UNSPECIFIED.,.F.,.F.,(4,2,4),(0.,1.4142135623731,2.82842712474619),
 .UNSPECIFIED.);
#109=B_SPLINE_CURVE_WITH_KNOTS('',3,(#992,#993,#994,#995,#996,#997,#998,
#999,#1000,#1001,#1002,#1003,#1004,#1005,#1006,#1007,#1008),
 .UNSPECIFIED.,.F.,.F.,(4,1,1,1,1,1,1,1,1,1,1,1,1,1,4),(-3.14159265358979,
-2.91719317833338,-2.69279370307697,-2.39359440273508,-2.24399475256414,
-2.0943951023932,-1.79519580205131,-1.49599650170943,-1.34639685153848,
-1.19679720136754,-0.897597901025655,-0.673198425769241,-0.448798950512828,
-0.224399475256414,5.48891350077133E-18),.UNSPECIFIED.);
#110=VERTEX_POINT('',#361);
#111=VERTEX_POINT('',#362);
#112=VERTEX_POINT('',#385);
#113=VERTEX_POINT('',#390);
#114=VERTEX_POINT('',#418);
#115=VERTEX_POINT('',#420);
#116=VERTEX_POINT('',#453);
#117=VERTEX_POINT('',#473);
#118=VERTEX_POINT('',#498);
#119=VERTEX_POINT('',#500);
#120=VERTEX_POINT('',#547);
#121=VERTEX_POINT('',#548);
#122=VERTEX_POINT('',#571);
#123=VERTEX_POINT('',#576);
#124=VERTEX_POINT('',#644);
#125=VERTEX_POINT('',#664);
#126=VERTEX_POINT('',#759);
#127=VERTEX_POINT('',#760);
#128=VERTEX_POINT('',#767);
#129=VERTEX_POINT('',#786);
#130=VERTEX_POINT('',#812);
#131=VERTEX_POINT('',#814);
#132=VERTEX_POINT('',#821);
#133=VERTEX_POINT('',#823);
#134=VERTEX_POINT('',#898);
#135=VERTEX_POINT('',#985);
#136=VERTEX_POINT('',#1010);
#137=VERTEX_POINT('',#1012);
#138=EDGE_CURVE('',#110,#111,#82,.T.);
#139=EDGE_CURVE('',#111,#112,#83,.T.);
#140=EDGE_CURVE('',#112,#113,#84,.T.);
#141=EDGE_CURVE('',#113,#110,#85,.T.);
#142=EDGE_CURVE('',#114,#111,#23,.T.);
#143=EDGE_CURVE('',#115,#114,#86,.T.);
#144=EDGE_CURVE('',#112,#115,#87,.T.);
#145=EDGE_CURVE('',#114,#116,#88,.T.);
#146=EDGE_CURVE('',#116,#117,#89,.T.);
#147=EDGE_CURVE('',#117,#115,#90,.T.);
#148=EDGE_CURVE('',#118,#116,#17,.T.);
#149=EDGE_CURVE('',#119,#118,#91,.T.);
#150=EDGE_CURVE('',#117,#119,#92,.T.);
#151=EDGE_CURVE('',#120,#121,#93,.T.);
#152=EDGE_CURVE('',#121,#122,#94,.T.);
#153=EDGE_CURVE('',#122,#123,#95,.T.);
#154=EDGE_CURVE('',#123,#120,#96,.T.);
#155=EDGE_CURVE('',#122,#113,#97,.T.);
#156=EDGE_CURVE('',#110,#121,#18,.T.);
#157=EDGE_CURVE('',#118,#124,#98,.T.);
#158=EDGE_CURVE('',#124,#125,#99,.T.);
#159=EDGE_CURVE('',#125,#119,#100,.T.);
#160=EDGE_CURVE('',#125,#123,#101,.T.);
#161=EDGE_CURVE('',#120,#124,#24,.T.);
#162=EDGE_CURVE('',#126,#127,#102,.T.);
#163=EDGE_CURVE('',#127,#128,#103,.T.);
#164=EDGE_CURVE('',#128,#129,#104,.T.);
#165=EDGE_CURVE('',#129,#126,#105,.T.);
#166=EDGE_CURVE('',#128,#130,#25,.T.);
#167=EDGE_CURVE('',#131,#130,#106,.T.);
#168=EDGE_CURVE('',#131,#132,#26,.T.);
#169=EDGE_CURVE('',#132,#133,#27,.T.);
#170=EDGE_CURVE('',#133,#129,#28,.T.);
#171=EDGE_CURVE('',#127,#134,#29,.T.);
#172=EDGE_CURVE('',#130,#134,#107,.T.);
#173=EDGE_CURVE('',#134,#135,#108,.T.);
#174=EDGE_CURVE('',#135,#131,#109,.T.);
#175=EDGE_CURVE('',#136,#126,#30,.T.);
#176=EDGE_CURVE('',#137,#136,#31,.T.);
#177=EDGE_CURVE('',#135,#137,#32,.T.);
#178=EDGE_CURVE('',#132,#137,#19,.T.);
#179=EDGE_CURVE('',#133,#136,#20,.T.);
#180=ORIENTED_EDGE('',*,*,#138,.T.);
#181=ORIENTED_EDGE('',*,*,#139,.T.);
#182=ORIENTED_EDGE('',*,*,#140,.T.);
#183=ORIENTED_EDGE('',*,*,#141,.T.);
#184=ORIENTED_EDGE('',*,*,#139,.F.);
#185=ORIENTED_EDGE('',*,*,#142,.F.);
#186=ORIENTED_EDGE('',*,*,#143,.F.);
#187=ORIENTED_EDGE('',*,*,#144,.F.);
#188=ORIENTED_EDGE('',*,*,#145,.T.);
#189=ORIENTED_EDGE('',*,*,#146,.T.);
#190=ORIENTED_EDGE('',*,*,#147,.T.);
#191=ORIENTED_EDGE('',*,*,#143,.T.);
#192=ORIENTED_EDGE('',*,*,#146,.F.);
#193=ORIENTED_EDGE('',*,*,#148,.F.);
#194=ORIENTED_EDGE('',*,*,#149,.F.);
#195=ORIENTED_EDGE('',*,*,#150,.F.);
#196=ORIENTED_EDGE('',*,*,#151,.T.);
#197=ORIENTED_EDGE('',*,*,#152,.T.);
#198=ORIENTED_EDGE('',*,*,#153,.T.);
#199=ORIENTED_EDGE('',*,*,#154,.T.);
#200=ORIENTED_EDGE('',*,*,#141,.F.);
#201=ORIENTED_EDGE('',*,*,#155,.F.);
#202=ORIENTED_EDGE('',*,*,#152,.F.);
#203=ORIENTED_EDGE('',*,*,#156,.F.);
#204=ORIENTED_EDGE('',*,*,#157,.T.);
#205=ORIENTED_EDGE('',*,*,#158,.T.);
#206=ORIENTED_EDGE('',*,*,#159,.T.);
#207=ORIENTED_EDGE('',*,*,#149,.T.);
#208=ORIENTED_EDGE('',*,*,#154,.F.);
#209=ORIENTED_EDGE('',*,*,#160,.F.);
#210=ORIENTED_EDGE('',*,*,#158,.F.);
#211=ORIENTED_EDGE('',*,*,#161,.F.);
#212=ORIENTED_EDGE('',*,*,#162,.T.);
#213=ORIENTED_EDGE('',*,*,#163,.T.);
#214=ORIENTED_EDGE('',*,*,#164,.T.);
#215=ORIENTED_EDGE('',*,*,#165,.T.);
#216=ORIENTED_EDGE('',*,*,#164,.F.);
#217=ORIENTED_EDGE('',*,*,#166,.T.);
#218=ORIENTED_EDGE('',*,*,#167,.F.);
#219=ORIENTED_EDGE('',*,*,#168,.T.);
#220=ORIENTED_EDGE('',*,*,#169,.T.);
#221=ORIENTED_EDGE('',*,*,#170,.T.);
#222=ORIENTED_EDGE('',*,*,#163,.F.);
#223=ORIENTED_EDGE('',*,*,#171,.T.);
#224=ORIENTED_EDGE('',*,*,#172,.F.);
#225=ORIENTED_EDGE('',*,*,#166,.F.);
#226=ORIENTED_EDGE('',*,*,#160,.T.);
#227=ORIENTED_EDGE('',*,*,#153,.F.);
#228=ORIENTED_EDGE('',*,*,#155,.T.);
#229=ORIENTED_EDGE('',*,*,#140,.F.);
#230=ORIENTED_EDGE('',*,*,#144,.T.);
#231=ORIENTED_EDGE('',*,*,#147,.F.);
#232=ORIENTED_EDGE('',*,*,#150,.T.);
#233=ORIENTED_EDGE('',*,*,#159,.F.);
#234=ORIENTED_EDGE('',*,*,#173,.T.);
#235=ORIENTED_EDGE('',*,*,#174,.T.);
#236=ORIENTED_EDGE('',*,*,#167,.T.);
#237=ORIENTED_EDGE('',*,*,#172,.T.);
#238=ORIENTED_EDGE('',*,*,#162,.F.);
#239=ORIENTED_EDGE('',*,*,#175,.F.);
#240=ORIENTED_EDGE('',*,*,#176,.F.);
#241=ORIENTED_EDGE('',*,*,#177,.F.);
#242=ORIENTED_EDGE('',*,*,#173,.F.);
#243=ORIENTED_EDGE('',*,*,#171,.F.);
#244=ORIENTED_EDGE('',*,*,#169,.F.);
#245=ORIENTED_EDGE('',*,*,#178,.T.);
#246=ORIENTED_EDGE('',*,*,#176,.T.);
#247=ORIENTED_EDGE('',*,*,#179,.F.);
#248=ORIENTED_EDGE('',*,*,#161,.T.);
#249=ORIENTED_EDGE('',*,*,#157,.F.);
#250=ORIENTED_EDGE('',*,*,#148,.T.);
#251=ORIENTED_EDGE('',*,*,#145,.F.);
#252=ORIENTED_EDGE('',*,*,#142,.T.);
#253=ORIENTED_EDGE('',*,*,#138,.F.);
#254=ORIENTED_EDGE('',*,*,#156,.T.);
#255=ORIENTED_EDGE('',*,*,#151,.F.);
#256=ORIENTED_EDGE('',*,*,#165,.F.);
#257=ORIENTED_EDGE('',*,*,#170,.F.);
#258=ORIENTED_EDGE('',*,*,#179,.T.);
#259=ORIENTED_EDGE('',*,*,#175,.T.);
#260=ORIENTED_EDGE('',*,*,#174,.F.);
#261=ORIENTED_EDGE('',*,*,#177,.T.);
#262=ORIENTED_EDGE('',*,*,#178,.F.);
#263=ORIENTED_EDGE('',*,*,#168,.F.);
#264=B_SPLINE_SURFACE_WITH_KNOTS('',3,3,((#337,#338,#339,#340),(#341,#342,
#343,#344),(#345,#346,#347,#348),(#349,#350,#351,#352),(#353,#354,#355,
#356),(#357,#358,#359,#360)),.UNSPECIFIED.,.F.,.F.,.F.,(4,1,1,4),(4,4),
(0.,0.285714285714286,0.571428571428571,1.),(1.03209513253602,5.25617350109219),
 .UNSPECIFIED.);
#265=B_SPLINE_SURFACE_WITH_KNOTS('',3,3,((#429,#430,#431,#432),(#433,#434,
#435,#436),(#437,#438,#439,#440),(#441,#442,#443,#444),(#445,#446,#447,
#448),(#449,#450,#451,#452)),.UNSPECIFIED.,.F.,.F.,.F.,(4,1,1,4),(4,4),
(0.,0.285714285714286,0.571428571428571,1.),(1.02948681845865,5.24433851307828),
 .UNSPECIFIED.);
#266=B_SPLINE_SURFACE_WITH_KNOTS('',3,3,((#523,#524,#525,#526),(#527,#528,
#529,#530),(#531,#532,#533,#534),(#535,#536,#537,#538),(#539,#540,#541,
#542),(#543,#544,#545,#546)),.UNSPECIFIED.,.F.,.F.,.F.,(4,1,1,4),(4,4),
(0.,0.285714285714286,0.571428571428571,1.),(1.03207990732673,9.3308489183913),
 .UNSPECIFIED.);
#267=B_SPLINE_SURFACE_WITH_KNOTS('',3,3,((#620,#621,#622,#623),(#624,#625,
#626,#627),(#628,#629,#630,#631),(#632,#633,#634,#635),(#636,#637,#638,
#639),(#640,#641,#642,#643)),.UNSPECIFIED.,.F.,.F.,.F.,(4,1,1,4),(4,4),
(0.,0.285714285714286,0.571428571428571,1.),(1.02937184620165,9.32898432413111),
 .UNSPECIFIED.);
#268=B_SPLINE_SURFACE_WITH_KNOTS('',3,3,((#687,#688,#689,#690,#691,#692,
#693,#694,#695,#696,#697,#698,#699,#700,#701,#702,#703,#704),(#705,#706,
#707,#708,#709,#710,#711,#712,#713,#714,#715,#716,#717,#718,#719,#720,#721,
#722),(#723,#724,#725,#726,#727,#728,#729,#730,#731,#732,#733,#734,#735,
#736,#737,#738,#739,#740),(#741,#742,#743,#744,#745,#746,#747,#748,#749,
#750,#751,#752,#753,#754,#755,#756,#757,#758)),.UNSPECIFIED.,.F.,.F.,.F.,
(4,4),(4,1,1,1,1,1,1,1,1,1,1,1,1,1,1,4),(0.,1.),(-7.96414574688935E-19,
0.224399475256414,0.448798950512828,0.673198425769241,0.897597901025655,
1.19679720136754,1.34639685153848,1.49599650170943,1.79519580205131,1.94479545222225,
2.0943951023932,2.24399475256414,2.39359440273508,2.69279370307697,2.91719317833338,
3.14159265358979),.UNSPECIFIED.);
#269=B_SPLINE_SURFACE_WITH_KNOTS('',3,3,((#826,#827,#828,#829,#830,#831,
#832,#833,#834,#835,#836,#837,#838,#839,#840,#841,#842,#843),(#844,#845,
#846,#847,#848,#849,#850,#851,#852,#853,#854,#855,#856,#857,#858,#859,#860,
#861),(#862,#863,#864,#865,#866,#867,#868,#869,#870,#871,#872,#873,#874,
#875,#876,#877,#878,#879),(#880,#881,#882,#883,#884,#885,#886,#887,#888,
#889,#890,#891,#892,#893,#894,#895,#896,#897)),.UNSPECIFIED.,.F.,.F.,.F.,
(4,4),(4,1,1,1,1,1,1,1,1,1,1,1,1,1,1,4),(0.199999999999999,0.8),(0.,0.0714285714285714,
0.142857142857143,0.19047619047619,0.285714285714286,0.333333333333333,
0.380952380952381,0.428571428571429,0.523809523809524,0.571428571428571,
0.619047619047619,0.714285714285714,0.785714285714286,0.857142857142857,
0.928571428571429,1.),.UNSPECIFIED.);
#270=B_SPLINE_SURFACE_WITH_KNOTS('',3,3,((#917,#918,#919,#920,#921,#922,
#923,#924,#925,#926,#927,#928,#929,#930,#931,#932,#933),(#934,#935,#936,
#937,#938,#939,#940,#941,#942,#943,#944,#945,#946,#947,#948,#949,#950),
(#951,#952,#953,#954,#955,#956,#957,#958,#959,#960,#961,#962,#963,#964,
#965,#966,#967),(#968,#969,#970,#971,#972,#973,#974,#975,#976,#977,#978,
#979,#980,#981,#982,#983,#984)),.UNSPECIFIED.,.F.,.F.,.F.,(4,4),(4,1,1,
1,1,1,1,1,1,1,1,1,1,1,4),(0.,1.),(-5.48891350077133E-18,0.224399475256414,
0.448798950512828,0.673198425769241,0.897597901025655,1.19679720136754,
1.34639685153848,1.49599650170943,1.79519580205131,2.0943951023932,2.24399475256414,
2.39359440273508,2.69279370307697,2.91719317833338,3.14159265358979),
 .UNSPECIFIED.);
#271=B_SPLINE_SURFACE_WITH_KNOTS('',3,3,((#1018,#1019,#1020,#1021,#1022,
#1023,#1024,#1025,#1026,#1027,#1028,#1029,#1030,#1031,#1032,#1033,#1034,
#1035),(#1036,#1037,#1038,#1039,#1040,#1041,#1042,#1043,#1044,#1045,#1046,
#1047,#1048,#1049,#1050,#1051,#1052,#1053),(#1054,#1055,#1056,#1057,#1058,
#1059,#1060,#1061,#1062,#1063,#1064,#1065,#1066,#1067,#1068,#1069,#1070,
#1071),(#1072,#1073,#1074,#1075,#1076,#1077,#1078,#1079,#1080,#1081,#1082,
#1083,#1084,#1085,#1086,#1087,#1088,#1089)),.UNSPECIFIED.,.F.,.F.,.F.,(4,
4),(4,1,1,1,1,1,1,1,1,1,1,1,1,1,1,4),(0.,0.75),(0.,0.0714285714285714,0.142857142857143,
0.19047619047619,0.285714285714286,0.333333333333333,0.380952380952381,
0.428571428571429,0.523809523809524,0.571428571428571,0.619047619047619,
0.714285714285714,0.785714285714286,0.857142857142857,0.928571428571429,
1.),.UNSPECIFIED.);
#272=B_SPLINE_SURFACE_WITH_KNOTS('',3,3,((#1090,#1091,#1092,#1093,#1094,
#1095,#1096,#1097,#1098,#1099,#1100,#1101,#1102,#1103,#1104,#1105,#1106,
#1107),(#1108,#1109,#1110,#1111,#1112,#1113,#1114,#1115,#1116,#1117,#1118,
#1119,#1120,#1121,#1122,#1123,#1124,#1125),(#1126,#1127,#1128,#1129,#1130,
#1131,#1132,#1133,#1134,#1135,#1136,#1137,#1138,#1139,#1140,#1141,#1142,
#1143),(#1144,#1145,#1146,#1147,#1148,#1149,#1150,#1151,#1152,#1153,#1154,
#1155,#1156,#1157,#1158,#1159,#1160,#1161)),.UNSPECIFIED.,.F.,.F.,.F.,(4,
4),(4,1,1,1,1,1,1,1,1,1,1,1,1,1,1,4),(0.25,1.),(0.,0.0714285714285714,0.142857142857143,
0.19047619047619,0.285714285714286,0.333333333333333,0.428571428571429,
0.476190476190476,0.571428571428571,0.595238095238095,0.619047619047619,
0.714285714285714,0.785714285714286,0.857142857142857,0.928571428571429,
1.),.UNSPECIFIED.);
#273=ADVANCED_FACE('',(#48),#264,.T.);
#274=ADVANCED_FACE('',(#49),#43,.F.);
#275=ADVANCED_FACE('',(#50),#265,.T.);
#276=ADVANCED_FACE('',(#51),#21,.T.);
#277=ADVANCED_FACE('',(#52),#266,.T.);
#278=ADVANCED_FACE('',(#53),#22,.F.);
#279=ADVANCED_FACE('',(#54),#267,.T.);
#280=ADVANCED_FACE('',(#55),#44,.F.);
#281=ADVANCED_FACE('',(#56),#268,.T.);
#282=ADVANCED_FACE('',(#57),#45,.F.);
#283=ADVANCED_FACE('',(#58,#15),#269,.F.);
#284=ADVANCED_FACE('',(#59),#270,.T.);
#285=ADVANCED_FACE('',(#60),#46,.F.);
#286=ADVANCED_FACE('',(#61,#16),#47,.F.);
#287=ADVANCED_FACE('',(#62),#271,.F.);
#288=ADVANCED_FACE('',(#63),#272,.F.);
#289=CLOSED_SHELL('',(#273,#274,#275,#276,#277,#278,#279,#280,#281,#282,
#283,#284,#285,#286,#287,#288));
#290=AXIS2_PLACEMENT_3D('placement',#336,#302,#303);
#291=AXIS2_PLACEMENT_3D('',#417,#304,#305);
#292=AXIS2_PLACEMENT_3D('',#497,#307,#308);
#293=AXIS2_PLACEMENT_3D('',#499,#309,#310);
#294=AXIS2_PLACEMENT_3D('',#600,#311,#312);
#295=AXIS2_PLACEMENT_3D('',#619,#313,#314);
#296=AXIS2_PLACEMENT_3D('',#681,#315,#316);
#297=AXIS2_PLACEMENT_3D('',#811,#318,#319);
#298=AXIS2_PLACEMENT_3D('',#1009,#325,#326);
#299=AXIS2_PLACEMENT_3D('',#1015,#330,#331);
#300=AXIS2_PLACEMENT_3D('',#1016,#332,#333);
#301=AXIS2_PLACEMENT_3D('',#1017,#334,#335);
#302=DIRECTION('axis',(0.,0.,1.));
#303=DIRECTION('refdir',(1.,0.,0.));
#304=DIRECTION('center_axis',(0.171010071662834,-0.969846310392954,-0.17364817766693));
#305=DIRECTION('ref_axis',(0.984807753012208,0.173648177666931,0.));
#306=DIRECTION('',(0.984807753012208,0.17364817766693,-9.83690353507267E-18));
#307=DIRECTION('center_axis',(0.,0.,-1.));
#308=DIRECTION('ref_axis',(-0.984807753012208,-0.17364817766693,0.));
#309=DIRECTION('center_axis',(-9.36750677027476E-18,-3.52269888190271E-18,
-1.));
#310=DIRECTION('ref_axis',(-0.984807753012208,-0.17364817766693,0.));
#311=DIRECTION('center_axis',(0.,0.,1.));
#312=DIRECTION('ref_axis',(0.984807753012208,0.17364817766693,0.));
#313=DIRECTION('center_axis',(9.36750677027476E-18,3.52269888190271E-18,
1.));
#314=DIRECTION('ref_axis',(0.984807753012208,0.17364817766693,0.));
#315=DIRECTION('center_axis',(-0.171010071662834,-0.969846310392954,-0.17364817766693));
#316=DIRECTION('ref_axis',(0.984807753012208,-0.17364817766693,0.));
#317=DIRECTION('',(0.984807753012208,-0.17364817766693,-8.61348305244919E-18));
#318=DIRECTION('center_axis',(0.,1.,0.));
#319=DIRECTION('ref_axis',(0.,0.,1.));
#320=DIRECTION('',(-1.,0.,0.));
#321=DIRECTION('',(0.,0.,-1.));
#322=DIRECTION('',(1.,0.,0.));
#323=DIRECTION('',(0.,0.,1.));
#324=DIRECTION('',(1.,-5.10371435262618E-33,-1.38777878078145E-17));
#325=DIRECTION('center_axis',(1.21592293503851E-33,1.,5.43248784126691E-33));
#326=DIRECTION('ref_axis',(0.,-5.43248784126691E-33,1.));
#327=DIRECTION('',(-1.38777878078145E-17,-7.70371977754895E-34,1.));
#328=DIRECTION('',(-1.,5.10371435262618E-33,1.38777878078145E-17));
#329=DIRECTION('',(1.38777878078145E-17,7.70371977754895E-34,-1.));
#330=DIRECTION('center_axis',(9.36750677027476E-18,3.52269888190271E-18,
1.));
#331=DIRECTION('ref_axis',(1.,0.,-9.36750677027476E-18));
#332=DIRECTION('center_axis',(0.,0.,1.));
#333=DIRECTION('ref_axis',(1.,0.,0.));
#334=DIRECTION('center_axis',(0.,0.,1.));
#335=DIRECTION('ref_axis',(1.,0.,0.));
#336=CARTESIAN_POINT('',(0.,0.,0.));
#337=CARTESIAN_POINT('Ctrl Pts',(256.538816991716,55.6245033819689,-2.22044604925031E-14));
#338=CARTESIAN_POINT('Ctrl Pts',(259.441084861606,53.5940802533309,13.6457108905292));
#339=CARTESIAN_POINT('Ctrl Pts',(262.306110430321,51.5587240563068,27.2978156692301));
#340=CARTESIAN_POINT('Ctrl Pts',(265.13697049178,49.5188813427524,40.9556365291706));
#341=CARTESIAN_POINT('Ctrl Pts',(256.8069691146,54.1689080238111,-0.263046809436171));
#342=CARTESIAN_POINT('Ctrl Pts',(259.693688936769,52.1443235774978,13.3867987550392));
#343=CARTESIAN_POINT('Ctrl Pts',(262.54391283856,50.1148992723946,27.0428077706458));
#344=CARTESIAN_POINT('Ctrl Pts',(265.36044052781,48.0810628008398,40.704391779317));
#345=CARTESIAN_POINT('Ctrl Pts',(256.676486904213,51.1201792847603,-0.667837721062778));
#346=CARTESIAN_POINT('Ctrl Pts',(259.539031849833,49.1155476298305,12.9887475555655));
#347=CARTESIAN_POINT('Ctrl Pts',(262.366313709752,47.1055781080316,26.6511067742585));
#348=CARTESIAN_POINT('Ctrl Pts',(265.160840210131,45.0911398096482,40.3187989713374));
#349=CARTESIAN_POINT('Ctrl Pts',(254.179799505855,46.3320930412815,-0.819611463125964));
#350=CARTESIAN_POINT('Ctrl Pts',(257.031552081828,44.3720386023954,12.8395942553313));
#351=CARTESIAN_POINT('Ctrl Pts',(259.848803647583,42.4054910792901,26.5045034448463));
#352=CARTESIAN_POINT('Ctrl Pts',(262.634241677721,40.4330591750566,40.1745634036044));
#353=CARTESIAN_POINT('Ctrl Pts',(250.797732360703,44.2930535716784,-0.394570214154234));
#354=CARTESIAN_POINT('Ctrl Pts',(253.666798157866,42.3548666821073,13.2573901002156));
#355=CARTESIAN_POINT('Ctrl Pts',(256.501299845096,40.4087634175605,26.9152621526627));
#356=CARTESIAN_POINT('Ctrl Pts',(259.30331415994,38.4566591409221,40.5787694043902));
#357=CARTESIAN_POINT('Ctrl Pts',(248.624482816077,43.8392043851625,-7.7715611723761E-15));
#358=CARTESIAN_POINT('Ctrl Pts',(251.506086538076,41.904083789254,13.6457108905292));
#359=CARTESIAN_POINT('Ctrl Pts',(254.352452284508,39.9616049803177,27.2978156692301));
#360=CARTESIAN_POINT('Ctrl Pts',(257.166387129015,38.0123842805447,40.9556365291706));
#361=CARTESIAN_POINT('',(256.538816996155,55.6245033788638,1.04340195699932E-8));
#362=CARTESIAN_POINT('',(248.624482819615,43.8392043841694,9.03041873283518E-9));
#363=CARTESIAN_POINT('Ctrl Pts',(256.538816991716,55.6245033819689,-4.98911805285373E-15));
#364=CARTESIAN_POINT('Ctrl Pts',(256.817794437549,54.3378663862244,-3.67363579766925E-15));
#365=CARTESIAN_POINT('Ctrl Pts',(256.841859820997,53.0117207001195,0.000700541711382264));
#366=CARTESIAN_POINT('Ctrl Pts',(256.606372188531,51.7179283041538,0.000708826208230123));
#367=CARTESIAN_POINT('Ctrl Pts',(256.569311867911,51.5143152289849,0.00071012999690937));
#368=CARTESIAN_POINT('Ctrl Pts',(256.525874929087,51.3122239819233,0.000710569023490713));
#369=CARTESIAN_POINT('Ctrl Pts',(256.476090438947,51.1119323884597,0.00072352997449239));
#370=CARTESIAN_POINT('Ctrl Pts',(256.218877157012,50.0771189766158,0.000790493173969981));
#371=CARTESIAN_POINT('Ctrl Pts',(255.793432449108,49.0897430394949,0.000849742072418044));
#372=CARTESIAN_POINT('Ctrl Pts',(255.215083966744,48.1897431790198,0.000607558391914811));
#373=CARTESIAN_POINT('Ctrl Pts',(254.977047831246,47.8193220656787,0.000507880655834073));
#374=CARTESIAN_POINT('Ctrl Pts',(254.714784310302,47.4666792796552,0.000408394773605678));
#375=CARTESIAN_POINT('Ctrl Pts',(254.429825269949,47.1343106439089,0.000494512985007509));
#376=CARTESIAN_POINT('Ctrl Pts',(253.89666373538,46.5124452289421,0.00065564111657553));
#377=CARTESIAN_POINT('Ctrl Pts',(253.28426554261,45.9612516870578,0.00137856474464628));
#378=CARTESIAN_POINT('Ctrl Pts',(252.608682567089,45.489778988274,0.00157614033696676));
#379=CARTESIAN_POINT('Ctrl Pts',(252.015798675064,45.0760199405077,0.00174953041692601));
#380=CARTESIAN_POINT('Ctrl Pts',(251.37992974398,44.7277239995626,0.00154092899014577));
#381=CARTESIAN_POINT('Ctrl Pts',(250.712321454476,44.4502984801792,0.00110282719511579));
#382=CARTESIAN_POINT('Ctrl Pts',(250.040613736589,44.1711694378377,0.000662035249348943));
#383=CARTESIAN_POINT('Ctrl Pts',(249.341043064229,43.9655532902149,-8.0543942227264E-15));
#384=CARTESIAN_POINT('Ctrl Pts',(248.624482816077,43.8392043851625,-7.7715611723761E-15));
#385=CARTESIAN_POINT('',(257.013714932076,38.1181120578784,40.214781198461));
#386=CARTESIAN_POINT('Ctrl Pts',(248.624482818044,43.8392043838415,9.31551959486242E-9));
#387=CARTESIAN_POINT('Ctrl Pts',(251.453982872544,41.9390736372619,13.3989762161793));
#388=CARTESIAN_POINT('Ctrl Pts',(254.249507738588,40.0318483680429,26.8041171706814));
#389=CARTESIAN_POINT('Ctrl Pts',(257.013714961982,38.1181120646635,40.214781190017));
#390=CARTESIAN_POINT('',(265.009054296053,49.6110345305788,40.3386058449231));
#391=CARTESIAN_POINT('Ctrl Pts',(257.013714961982,38.1181120646635,40.214781190017));
#392=CARTESIAN_POINT('Ctrl Pts',(258.311530881287,38.3468774544166,40.2151580552517));
#393=CARTESIAN_POINT('Ctrl Pts',(259.548544098211,38.8321876724956,40.2199968968444));
#394=CARTESIAN_POINT('Ctrl Pts',(260.659180248773,39.5403798232707,40.2258839552974));
#395=CARTESIAN_POINT('Ctrl Pts',(261.435595735107,40.0354576693177,40.2299994375366));
#396=CARTESIAN_POINT('Ctrl Pts',(262.138061895184,40.6326200113758,40.2347102361888));
#397=CARTESIAN_POINT('Ctrl Pts',(262.743841853986,41.319699352084,40.2413117694097));
#398=CARTESIAN_POINT('Ctrl Pts',(262.980784072779,41.588440668314,40.2438938652781));
#399=CARTESIAN_POINT('Ctrl Pts',(263.202868167951,41.8710164173352,40.2467901087149));
#400=CARTESIAN_POINT('Ctrl Pts',(263.409208584402,42.1660993234486,40.2498948765447));
#401=CARTESIAN_POINT('Ctrl Pts',(264.052588370617,43.0861826513638,40.2595756986392));
#402=CARTESIAN_POINT('Ctrl Pts',(264.531722487034,44.1091729358122,40.2707112100825));
#403=CARTESIAN_POINT('Ctrl Pts',(264.826993895884,45.1895838916757,40.28324252342));
#404=CARTESIAN_POINT('Ctrl Pts',(264.865164929947,45.3292533691891,40.2848625014264));
#405=CARTESIAN_POINT('Ctrl Pts',(264.900238014551,45.469894260367,40.2865127399302));
#406=CARTESIAN_POINT('Ctrl Pts',(264.932198200926,45.6114110924958,40.2881878992565));
#407=CARTESIAN_POINT('Ctrl Pts',(265.079832236294,46.2651213291839,40.2959259808911));
#408=CARTESIAN_POINT('Ctrl Pts',(265.159976844163,46.9318406766762,40.3040819875021));
#409=CARTESIAN_POINT('Ctrl Pts',(265.17305531472,47.6017788096653,40.3124613708861));
#410=CARTESIAN_POINT('Ctrl Pts',(265.18620160687,48.2751910699423,40.3208842076027));
#411=CARTESIAN_POINT('Ctrl Pts',(265.131512837335,48.9481639702659,40.3294922995575));
#412=CARTESIAN_POINT('Ctrl Pts',(265.009054319382,49.6110345345089,40.3386058390304));
#413=CARTESIAN_POINT('Ctrl Pts',(265.009054319382,49.6110345345089,40.3386058390303));
#414=CARTESIAN_POINT('Ctrl Pts',(262.219811017394,51.6200253064611,26.8866328928348));
#415=CARTESIAN_POINT('Ctrl Pts',(259.397378534836,53.6246571472191,13.4402150763454));
#416=CARTESIAN_POINT('Ctrl Pts',(256.538816994076,55.6245033803183,1.10926428100907E-8));
#417=CARTESIAN_POINT('Origin',(258.512035165705,45.5826466375692,0.));
#418=CARTESIAN_POINT('',(243.397157406771,42.9174858797645,-6.73388767057538E-9));
#419=CARTESIAN_POINT('',(226.240648622148,39.8923304850681,-5.55111512312578E-16));
#420=CARTESIAN_POINT('',(237.823673288014,34.7354585432547,40.2088130029857));
#421=CARTESIAN_POINT('Ctrl Pts',(237.823673316887,34.7354585474629,40.2088130079162));
#422=CARTESIAN_POINT('Ctrl Pts',(239.713360181384,37.4674535086984,26.8112652863919));
#423=CARTESIAN_POINT('Ctrl Pts',(241.570327644198,40.1946791249545,13.4081326194436));
#424=CARTESIAN_POINT('Ctrl Pts',(243.397157405672,42.9174858796034,-6.91632084937055E-9));
#425=CARTESIAN_POINT('Ctrl Pts',(257.013714932076,38.1181120578784,40.214781198461));
#426=CARTESIAN_POINT('Ctrl Pts',(250.463488898874,36.9634725681927,40.2128705856089));
#427=CARTESIAN_POINT('Ctrl Pts',(244.112598026003,35.8439860013547,40.2109334105999));
#428=CARTESIAN_POINT('Ctrl Pts',(237.823673288014,34.7354585432547,40.2088130029857));
#429=CARTESIAN_POINT('Ctrl Pts',(243.397157405672,42.9174858796034,-6.91632084937055E-9));
#430=CARTESIAN_POINT('Ctrl Pts',(241.537732820507,40.1460980212393,13.6473643903491));
#431=CARTESIAN_POINT('Ctrl Pts',(239.647085488622,37.370132209328,27.2895488150428));
#432=CARTESIAN_POINT('Ctrl Pts',(237.72249303905,34.589218863504,40.9259364066757));
#433=CARTESIAN_POINT('Ctrl Pts',(242.000550425481,42.7127407185075,-0.231862622743575));
#434=CARTESIAN_POINT('Ctrl Pts',(240.132949045742,39.9405142502293,13.4119790193286));
#435=CARTESIAN_POINT('Ctrl Pts',(238.233974509257,37.1637916340184,27.0505101166329));
#436=CARTESIAN_POINT('Ctrl Pts',(236.300756823397,34.3820213491143,40.6830230180193));
#437=CARTESIAN_POINT('Ctrl Pts',(239.106764653641,42.9110132090105,-0.585871374535969));
#438=CARTESIAN_POINT('Ctrl Pts',(237.221628515081,40.1446238752382,13.0522983792862));
#439=CARTESIAN_POINT('Ctrl Pts',(235.304917211054,37.3740079918291,26.6849382817592));
#440=CARTESIAN_POINT('Ctrl Pts',(233.353179537061,34.5986346049554,40.3111868362089));
#441=CARTESIAN_POINT('Ctrl Pts',(234.571923211411,45.3020470607961,-0.718183623931911));
#442=CARTESIAN_POINT('Ctrl Pts',(232.66780920719,42.5691973844484,12.9177955626104));
#443=CARTESIAN_POINT('Ctrl Pts',(230.731541735552,39.8333011452231,26.5480572485327));
#444=CARTESIAN_POINT('Ctrl Pts',(228.76030549919,37.0941298149898,40.17187906512));
#445=CARTESIAN_POINT('Ctrl Pts',(232.574496895397,48.4661320464816,-0.347793930657202));
#446=CARTESIAN_POINT('Ctrl Pts',(230.679573749459,45.7681196272901,13.2942517230259));
#447=CARTESIAN_POINT('Ctrl Pts',(228.753986180457,43.0681784177957,26.9310302460966));
#448=CARTESIAN_POINT('Ctrl Pts',(226.793695787502,40.3660220202714,40.5615663236911));
#449=CARTESIAN_POINT('Ctrl Pts',(232.064370731441,50.521063306303,-6.91632001670328E-9));
#450=CARTESIAN_POINT('Ctrl Pts',(230.185361356323,47.839636578192,13.6473643903491));
#451=CARTESIAN_POINT('Ctrl Pts',(228.275834474267,45.1564449462691,27.2895488150428));
#452=CARTESIAN_POINT('Ctrl Pts',(226.333253582253,42.4713933648519,40.9259364066757));
#453=CARTESIAN_POINT('',(232.064370732019,50.5210633071268,-5.5545646517578E-9));
#454=CARTESIAN_POINT('Ctrl Pts',(243.397157404729,42.9174858781989,1.0195390589746E-15));
#455=CARTESIAN_POINT('Ctrl Pts',(242.104908923375,42.6896276051565,-3.75153442522799E-15));
#456=CARTESIAN_POINT('Ctrl Pts',(240.783422724214,42.7173716128263,0.000658522923954532));
#457=CARTESIAN_POINT('Ctrl Pts',(239.503809732719,43.0022524484578,0.000693820517905855));
#458=CARTESIAN_POINT('Ctrl Pts',(239.372089707478,43.0315773389595,0.000697453960202178));
#459=CARTESIAN_POINT('Ctrl Pts',(239.241117996352,43.0635935397725,0.000701313128781866));
#460=CARTESIAN_POINT('Ctrl Pts',(239.110970731729,43.0982885604786,0.000708966719597803));
#461=CARTESIAN_POINT('Ctrl Pts',(238.010421230177,43.3916761153756,0.000773686908546532));
#462=CARTESIAN_POINT('Ctrl Pts',(236.968060228207,43.8749991527777,0.000677664413961428));
#463=CARTESIAN_POINT('Ctrl Pts',(236.032275450016,44.5286992839383,0.000455084975791737));
#464=CARTESIAN_POINT('Ctrl Pts',(235.78995078401,44.6979771666775,0.000397447269695848));
#465=CARTESIAN_POINT('Ctrl Pts',(235.556077518057,44.8779097799591,0.000359998717125363));
#466=CARTESIAN_POINT('Ctrl Pts',(235.331399195586,45.0680155742339,0.000400660408718338));
#467=CARTESIAN_POINT('Ctrl Pts',(234.593018449592,45.6927774856195,0.000534290613187672));
#468=CARTESIAN_POINT('Ctrl Pts',(233.953302730004,46.4268043163291,0.00130142972433011));
#469=CARTESIAN_POINT('Ctrl Pts',(233.427205908844,47.2436738580458,0.00129274553014969));
#470=CARTESIAN_POINT('Ctrl Pts',(232.781303524155,48.2465652722364,0.00128208372512753));
#471=CARTESIAN_POINT('Ctrl Pts',(232.318212821984,49.3550604266545,-1.21045621664974E-14));
#472=CARTESIAN_POINT('Ctrl Pts',(232.064370730489,50.5210633049441,1.87350135405495E-15));
#473=CARTESIAN_POINT('',(226.41623816794,42.5861220403604,40.3432624567579));
#474=CARTESIAN_POINT('Ctrl Pts',(232.064370731295,50.5210633060948,-5.85688591089385E-9));
#475=CARTESIAN_POINT('Ctrl Pts',(230.212124142451,47.877828218424,13.4529845754123));
#476=CARTESIAN_POINT('Ctrl Pts',(228.330223179427,45.2328781442633,26.9009356892567));
#477=CARTESIAN_POINT('Ctrl Pts',(226.416238185017,42.5861220411769,40.3432624614705));
#478=CARTESIAN_POINT('Ctrl Pts',(226.416238185017,42.5861220411769,40.3432624614705));
#479=CARTESIAN_POINT('Ctrl Pts',(226.661841182668,41.300353746317,40.3223093819945));
#480=CARTESIAN_POINT('Ctrl Pts',(227.161352291296,40.0787250155092,40.3041005944458));
#481=CARTESIAN_POINT('Ctrl Pts',(227.880208836042,38.9854051585929,40.2865165127213));
#482=CARTESIAN_POINT('Ctrl Pts',(228.371297892659,38.2385003400475,40.2745038932791));
#483=CARTESIAN_POINT('Ctrl Pts',(228.958137606471,37.5629526906161,40.263094719318));
#484=CARTESIAN_POINT('Ctrl Pts',(229.629037838726,36.9792357464708,40.253646348889));
#485=CARTESIAN_POINT('Ctrl Pts',(229.917028192338,36.7286696547158,40.2495905453431));
#486=CARTESIAN_POINT('Ctrl Pts',(230.220591252648,36.4950890940385,40.2459207958524));
#487=CARTESIAN_POINT('Ctrl Pts',(230.538076806339,36.2795284856113,40.2425220402282));
#488=CARTESIAN_POINT('Ctrl Pts',(231.431818514656,35.672711878739,40.2329543303831));
#489=CARTESIAN_POINT('Ctrl Pts',(232.418618896226,35.2188521657563,40.2253794153254));
#490=CARTESIAN_POINT('Ctrl Pts',(233.457467887123,34.9344152213042,40.2198631809987));
#491=CARTESIAN_POINT('Ctrl Pts',(233.640332908846,34.8843467623829,40.2188921772062));
#492=CARTESIAN_POINT('Ctrl Pts',(233.824830887458,34.8395667489893,40.2179957079233));
#493=CARTESIAN_POINT('Ctrl Pts',(234.010749388491,34.8001067693861,40.2171638225119));
#494=CARTESIAN_POINT('Ctrl Pts',(235.26577213067,34.5337364429646,40.211548269975));
#495=CARTESIAN_POINT('Ctrl Pts',(236.558868803638,34.5125169458753,40.2083870570014));
#496=CARTESIAN_POINT('Ctrl Pts',(237.823673316582,34.7354585470229,40.2088130100739));
#497=CARTESIAN_POINT('Origin',(0.,0.,0.));
#498=CARTESIAN_POINT('',(-232.064370730489,50.521063304944,7.65928518312121E-15));
#499=CARTESIAN_POINT('Origin',(0.,0.,0.));
#500=CARTESIAN_POINT('',(-220.70736097394,34.8171316342052,79.7567734373413));
#501=CARTESIAN_POINT('Ctrl Pts',(-220.707361117455,34.8171316444699,79.7567734605177));
#502=CARTESIAN_POINT('Ctrl Pts',(-224.622096937161,40.0589771405563,53.1940826642193));
#503=CARTESIAN_POINT('Ctrl Pts',(-228.401063337385,45.2933670054066,26.6068341939223));
#504=CARTESIAN_POINT('Ctrl Pts',(-232.064370730489,50.521063304944,-4.44089209850063E-15));
#505=CARTESIAN_POINT('Ctrl Pts',(226.41623816794,42.586122040361,40.3432624567579));
#506=CARTESIAN_POINT('Ctrl Pts',(223.395147958147,58.4023725659458,40.6010232922066));
#507=CARTESIAN_POINT('Ctrl Pts',(218.695199005382,73.8744670768927,41.0028457683881));
#508=CARTESIAN_POINT('Ctrl Pts',(202.63857346569,111.674639051567,42.3802484765067));
#509=CARTESIAN_POINT('Ctrl Pts',(189.188186002949,132.839230714098,43.5373535511741));
#510=CARTESIAN_POINT('Ctrl Pts',(152.772419741138,173.512627840881,46.6814192409168));
#511=CARTESIAN_POINT('Ctrl Pts',(128.82580919874,191.520298901283,48.7545927747357));
#512=CARTESIAN_POINT('Ctrl Pts',(75.2953770042934,217.344906931659,53.4078969018337));
#513=CARTESIAN_POINT('Ctrl Pts',(46.2012582965179,224.874143893868,55.9456787055162));
#514=CARTESIAN_POINT('Ctrl Pts',(-13.2316218930297,228.279324100738,61.1591789761494));
#515=CARTESIAN_POINT('Ctrl Pts',(-43.009457654065,224.114754733338,63.7863292303316));
#516=CARTESIAN_POINT('Ctrl Pts',(-99.1339212370559,204.559260853868,68.7736496370868));
#517=CARTESIAN_POINT('Ctrl Pts',(-124.966505365508,189.403698805483,71.0882729398043));
#518=CARTESIAN_POINT('Ctrl Pts',(-169.185990375062,150.125045884436,75.0744428511267));
#519=CARTESIAN_POINT('Ctrl Pts',(-187.208108703856,126.442354191017,76.7117789262757));
#520=CARTESIAN_POINT('Ctrl Pts',(-210.294361843894,79.37413548496,78.8106494594726));
#521=CARTESIAN_POINT('Ctrl Pts',(-217.200092084089,57.4097246117146,79.4387561018083));
#522=CARTESIAN_POINT('Ctrl Pts',(-220.70736097394,34.8171316342051,79.7567734373413));
#523=CARTESIAN_POINT('Ctrl Pts',(-248.624482816077,43.8392043851625,-1.11022302462516E-14));
#524=CARTESIAN_POINT('Ctrl Pts',(-254.285780196872,40.0374001754073,26.8088310456733));
#525=CARTESIAN_POINT('Ctrl Pts',(-259.811394746842,36.2072697529038,53.6422459502503));
#526=CARTESIAN_POINT('Ctrl Pts',(-265.221299443894,32.353187333058,80.4954837291908));
#527=CARTESIAN_POINT('Ctrl Pts',(-250.073315845828,44.1417705095064,-0.26304680943616));
#528=CARTESIAN_POINT('Ctrl Pts',(-255.718297854726,40.3356901779767,26.5539073583038));
#529=CARTESIAN_POINT('Ctrl Pts',(-261.228564763557,36.501443562353,53.3946225812987));
#530=CARTESIAN_POINT('Ctrl Pts',(-266.623659235863,32.643583495395,80.2546404411406));
#531=CARTESIAN_POINT('Ctrl Pts',(-252.845936471485,45.4161660972659,-0.667824897561023));
#532=CARTESIAN_POINT('Ctrl Pts',(-258.461462180335,41.5852170259164,26.1623703395416));
#533=CARTESIAN_POINT('Ctrl Pts',(-263.944085573896,37.7280230852397,53.0149303163991));
#534=CARTESIAN_POINT('Ctrl Pts',(-269.312297007638,33.8484618499154,79.8859112134959));
#535=CARTESIAN_POINT('Ctrl Pts',(-256.333281091028,49.5389700546458,-0.819595838728115));
#536=CARTESIAN_POINT('Ctrl Pts',(-261.939935413439,45.6267317473066,26.0157476081542));
#537=CARTESIAN_POINT('Ctrl Pts',(-267.412095405913,41.6935582693538,52.8730551500676));
#538=CARTESIAN_POINT('Ctrl Pts',(-272.76959534751,37.7424242135708,79.7482740812771));
#539=CARTESIAN_POINT('Ctrl Pts',(-256.941045176041,53.4411103447322,-0.394570214154233));
#540=CARTESIAN_POINT('Ctrl Pts',(-262.596710518122,49.4691188022564,26.4265386636687));
#541=CARTESIAN_POINT('Ctrl Pts',(-268.114143154533,45.4791256767638,53.2707382320879));
#542=CARTESIAN_POINT('Ctrl Pts',(-273.511695701745,41.4731584972893,80.1342187971155));
#543=CARTESIAN_POINT('Ctrl Pts',(-256.538816991716,55.6245033819689,-8.32667268468867E-15));
#544=CARTESIAN_POINT('Ctrl Pts',(-262.240711865303,51.6354645518511,26.8088310456733));
#545=CARTESIAN_POINT('Ctrl Pts',(-267.799226239314,47.6274469600744,53.6422459502503));
#546=CARTESIAN_POINT('Ctrl Pts',(-273.236223957516,43.6035896465869,80.4954837291908));
#547=CARTESIAN_POINT('',(-248.624482816077,43.8392043851625,-7.14320967831606E-16));
#548=CARTESIAN_POINT('',(-256.538816991716,55.6245033819689,-6.63266005609386E-18));
#549=CARTESIAN_POINT('Ctrl Pts',(-248.624482816077,43.8392043851625,-6.79839461224241E-15));
#550=CARTESIAN_POINT('Ctrl Pts',(-249.921399275228,44.0678857486356,-6.28666704069753E-15));
#551=CARTESIAN_POINT('Ctrl Pts',(-251.158367400567,44.5476115857289,0.000705385256040563));
#552=CARTESIAN_POINT('Ctrl Pts',(-252.267086979179,45.255486068642,0.000717276657653809));
#553=CARTESIAN_POINT('Ctrl Pts',(-252.440022708565,45.3658988297929,0.000719131453267737));
#554=CARTESIAN_POINT('Ctrl Pts',(-252.609201404896,45.4815470488507,0.000720109146329429));
#555=CARTESIAN_POINT('Ctrl Pts',(-252.774383308571,45.602302178256,0.000733354171956885));
#556=CARTESIAN_POINT('Ctrl Pts',(-253.636935847299,46.2328654610104,0.000802517501754925));
#557=CARTESIAN_POINT('Ctrl Pts',(-254.391527686375,47.0017828785819,0.000862052026629581));
#558=CARTESIAN_POINT('Ctrl Pts',(-255.006795994983,47.8795835687694,0.000619338414257885));
#559=CARTESIAN_POINT('Ctrl Pts',(-255.258115216126,48.2381396372187,0.000520196958134349));
#560=CARTESIAN_POINT('Ctrl Pts',(-255.48408859317,48.6122160098958,0.000422123071936786));
#561=CARTESIAN_POINT('Ctrl Pts',(-255.683014563414,48.999489511692,0.000507302631272254));
#562=CARTESIAN_POINT('Ctrl Pts',(-256.058587886006,49.7306640066234,0.000668122106363372));
#563=CARTESIAN_POINT('Ctrl Pts',(-256.338116177568,50.508793818403,0.00139169307801837));
#564=CARTESIAN_POINT('Ctrl Pts',(-256.519262638872,51.3154027327715,0.00158528078324574));
#565=CARTESIAN_POINT('Ctrl Pts',(-256.677531051274,52.0201402771205,0.00175441916191781));
#566=CARTESIAN_POINT('Ctrl Pts',(-256.759086504918,52.7398423291075,0.0015421016625255));
#567=CARTESIAN_POINT('Ctrl Pts',(-256.763172102267,53.4620891366465,0.00110286977648491));
#568=CARTESIAN_POINT('Ctrl Pts',(-256.767284069402,54.1889975621563,0.000660802943675477));
#569=CARTESIAN_POINT('Ctrl Pts',(-256.692899995679,54.9138764252918,3.57020846799139E-15));
#570=CARTESIAN_POINT('Ctrl Pts',(-256.538816991716,55.6245033819689,4.57966997657877E-15));
#571=CARTESIAN_POINT('',(-273.085380749338,43.7151996595701,79.7506314451719));
#572=CARTESIAN_POINT('Ctrl Pts',(-256.538816991716,55.6245033819689,-8.32667268468867E-15));
#573=CARTESIAN_POINT('Ctrl Pts',(-262.187991983013,51.6723473184114,26.5609558307851));
#574=CARTESIAN_POINT('Ctrl Pts',(-267.696425617632,47.7015618270598,53.1460430160062));
#575=CARTESIAN_POINT('Ctrl Pts',(-273.085380868252,43.7151996794835,79.7506314144459));
#576=CARTESIAN_POINT('',(-265.091839081436,32.4453960976478,79.8529929326634));
#577=CARTESIAN_POINT('Ctrl Pts',(-273.085380868252,43.7151996794835,79.750631414446));
#578=CARTESIAN_POINT('Ctrl Pts',(-273.296117842443,42.4154198748234,79.7655409428317));
#579=CARTESIAN_POINT('Ctrl Pts',(-273.24527761365,41.0887949197596,79.7811652939637));
#580=CARTESIAN_POINT('Ctrl Pts',(-272.941723503306,39.8081676658336,79.7937124214414));
#581=CARTESIAN_POINT('Ctrl Pts',(-272.737044278854,38.9446715568608,79.8021726472585));
#582=CARTESIAN_POINT('Ctrl Pts',(-272.419764006096,38.1151323956227,79.8092516299446));
#583=CARTESIAN_POINT('Ctrl Pts',(-271.99344628718,37.3423449521617,79.8160476022859));
#584=CARTESIAN_POINT('Ctrl Pts',(-271.806507058516,37.0034796360096,79.8190276187646));
#585=CARTESIAN_POINT('Ctrl Pts',(-271.598501382273,36.6755618395768,79.821978738589));
#586=CARTESIAN_POINT('Ctrl Pts',(-271.37062304464,36.3602114832177,79.8247709820523));
#587=CARTESIAN_POINT('Ctrl Pts',(-270.744257504919,35.4934130055104,79.8324459769734));
#588=CARTESIAN_POINT('Ctrl Pts',(-269.980530164612,34.7371390805917,79.8384729510161));
#589=CARTESIAN_POINT('Ctrl Pts',(-269.110958463737,34.1202053566414,79.8430325087857));
#590=CARTESIAN_POINT('Ctrl Pts',(-268.953016366052,34.0081504146559,79.8438606706473));
#591=CARTESIAN_POINT('Ctrl Pts',(-268.791549892848,33.9007229601288,79.8446514021028));
#592=CARTESIAN_POINT('Ctrl Pts',(-268.626762885697,33.7980332456312,79.845393837693));
#593=CARTESIAN_POINT('Ctrl Pts',(-267.546119368779,33.1246125910274,79.8502625965906));
#594=CARTESIAN_POINT('Ctrl Pts',(-266.347035192117,32.6668278314436,79.8523910974299));
#595=CARTESIAN_POINT('Ctrl Pts',(-265.091839160825,32.4453961157496,79.8529929097449));
#596=CARTESIAN_POINT('Ctrl Pts',(-265.091839160825,32.4453961157496,79.8529929097449));
#597=CARTESIAN_POINT('Ctrl Pts',(-259.723248326836,36.26836146873,53.2142339676869));
#598=CARTESIAN_POINT('Ctrl Pts',(-254.240629179437,40.0677210217812,26.5950203382434));
#599=CARTESIAN_POINT('Ctrl Pts',(-248.624482816077,43.8392043851625,-1.11022302462516E-14));
#600=CARTESIAN_POINT('Origin',(0.,0.,0.));
#601=CARTESIAN_POINT('Ctrl Pts',(-273.085380749338,43.7151996595725,79.7506314451719));
#602=CARTESIAN_POINT('Ctrl Pts',(-269.537234509146,65.6001196704863,79.4995676730513));
#603=CARTESIAN_POINT('Ctrl Pts',(-263.334959681866,86.989442035534,79.0613985452164));
#604=CARTESIAN_POINT('Ctrl Pts',(-243.845489858813,132.563545698307,77.6823300007859));
#605=CARTESIAN_POINT('Ctrl Pts',(-229.371048911268,155.954406984247,76.6569240676344));
#606=CARTESIAN_POINT('Ctrl Pts',(-188.492519234984,204.094658909852,73.7418611987491));
#607=CARTESIAN_POINT('Ctrl Pts',(-160.181351364901,226.552765245411,71.7101183139046));
#608=CARTESIAN_POINT('Ctrl Pts',(-96.6278701277891,259.217826080163,67.101000850302));
#609=CARTESIAN_POINT('Ctrl Pts',(-62.0126953238198,269.144850836617,64.5690036729025));
#610=CARTESIAN_POINT('Ctrl Pts',(8.9918723596291,275.127321579676,59.3406164045786));
#611=CARTESIAN_POINT('Ctrl Pts',(44.7105261495397,271.150978836076,56.694691296708));
#612=CARTESIAN_POINT('Ctrl Pts',(112.528324224354,249.740104612349,51.6620167168977));
#613=CARTESIAN_POINT('Ctrl Pts',(144.001401892525,232.539488510104,49.3225313993983));
#614=CARTESIAN_POINT('Ctrl Pts',(198.538241664887,187.083451000676,45.2722922853284));
#615=CARTESIAN_POINT('Ctrl Pts',(221.106889835377,159.28689278283,43.5979335475312));
#616=CARTESIAN_POINT('Ctrl Pts',(250.776844526724,103.334255964954,41.3963665953985));
#617=CARTESIAN_POINT('Ctrl Pts',(259.964536804591,76.9172584267917,40.7140203110561));
#618=CARTESIAN_POINT('Ctrl Pts',(265.009054296053,49.6110345305788,40.3386058449231));
#619=CARTESIAN_POINT('Origin',(0.,0.,0.));
#620=CARTESIAN_POINT('Ctrl Pts',(-232.064370730489,50.521063304944,-4.44089209850063E-15));
#621=CARTESIAN_POINT('Ctrl Pts',(-228.364347391779,45.2409717809877,26.8735044380962));
#622=CARTESIAN_POINT('Ctrl Pts',(-224.546335014621,39.9540518451791,53.727028584511));
#623=CARTESIAN_POINT('Ctrl Pts',(-220.589612428765,34.6595182874759,80.5554494895846));
#624=CARTESIAN_POINT('Ctrl Pts',(-232.404454839788,49.1511091317242,-0.231862615829038));
#625=CARTESIAN_POINT('Ctrl Pts',(-228.683768186745,43.8492628092981,26.6347075338506));
#626=CARTESIAN_POINT('Ctrl Pts',(-224.843151497884,38.5399808861544,53.4807297434187));
#627=CARTESIAN_POINT('Ctrl Pts',(-220.860881860123,33.2223731400572,80.3007460944444));
#628=CARTESIAN_POINT('Ctrl Pts',(-233.685232116871,46.5481843521892,-0.585938702056325));
#629=CARTESIAN_POINT('Ctrl Pts',(-229.940302827204,41.1951410634058,26.2694570024779));
#630=CARTESIAN_POINT('Ctrl Pts',(-226.072294901261,35.8326170327853,53.1033746695484));
#631=CARTESIAN_POINT('Ctrl Pts',(-222.058378833051,30.4582607377341,79.9097320399393));
#632=CARTESIAN_POINT('Ctrl Pts',(-237.616651782225,43.2591093626972,-0.718207765751414));
#633=CARTESIAN_POINT('Ctrl Pts',(-233.886517364071,37.8241548565296,26.1328787129418));
#634=CARTESIAN_POINT('Ctrl Pts',(-230.032077459494,32.3735537123624,52.9618929307283));
#635=CARTESIAN_POINT('Ctrl Pts',(-226.030378048663,26.9048199300761,79.7629508372799));
#636=CARTESIAN_POINT('Ctrl Pts',(-241.302246934438,42.6103681365545,-0.34779392374355));
#637=CARTESIAN_POINT('Ctrl Pts',(-237.616637976616,37.1503270459082,26.5152369346163));
#638=CARTESIAN_POINT('Ctrl Pts',(-233.809303504016,31.6738772246239,53.3576743579311));
#639=CARTESIAN_POINT('Ctrl Pts',(-229.857299452024,26.1752291523811,80.1733943968743));
#640=CARTESIAN_POINT('Ctrl Pts',(-243.397157404729,42.9174858781989,8.32667268468867E-16));
#641=CARTESIAN_POINT('Ctrl Pts',(-239.735699163604,37.4602487338307,26.8735044380962));
#642=CARTESIAN_POINT('Ctrl Pts',(-235.953556312442,31.9853090500113,53.727028584511));
#643=CARTESIAN_POINT('Ctrl Pts',(-232.02843453096,26.4896529858826,80.5554494895846));
#644=CARTESIAN_POINT('',(-243.397157404729,42.9174858781989,7.88860367189103E-15));
#645=CARTESIAN_POINT('Ctrl Pts',(-232.064370730489,50.521063304944,1.28142268124878E-14));
#646=CARTESIAN_POINT('Ctrl Pts',(-232.343572655093,49.2385721081777,1.40892785927684E-14));
#647=CARTESIAN_POINT('Ctrl Pts',(-232.870533620231,48.0258237268453,0.000630946315133929));
#648=CARTESIAN_POINT('Ctrl Pts',(-233.619604672279,46.94952324649,0.000653112703366057));
#649=CARTESIAN_POINT('Ctrl Pts',(-233.695834139705,46.8399931662883,0.000655368473316154));
#650=CARTESIAN_POINT('Ctrl Pts',(-233.774220677076,46.7321396962813,0.000658004035704884));
#651=CARTESIAN_POINT('Ctrl Pts',(-233.85472510856,46.6260266724461,0.000664543217730254));
#652=CARTESIAN_POINT('Ctrl Pts',(-234.54425891487,45.7171510257841,0.000720552396218786));
#653=CARTESIAN_POINT('Ctrl Pts',(-235.387945999915,44.9346254036482,0.000628786630440626));
#654=CARTESIAN_POINT('Ctrl Pts',(-236.349282935037,44.3158621192711,0.000415607860494438));
#655=CARTESIAN_POINT('Ctrl Pts',(-236.596065686141,44.1570207182783,0.000360883193832896));
#656=CARTESIAN_POINT('Ctrl Pts',(-236.849411028967,44.0098736619567,0.000326719691282197));
#657=CARTESIAN_POINT('Ctrl Pts',(-237.108608587987,43.8749133854839,0.000369515354276782));
#658=CARTESIAN_POINT('Ctrl Pts',(-237.968684843154,43.4270845956442,0.000511521064920765));
#659=CARTESIAN_POINT('Ctrl Pts',(-238.892872554292,43.1126037719291,0.00128713298817813));
#660=CARTESIAN_POINT('Ctrl Pts',(-239.850768509881,42.9353572272934,0.00128157770239917));
#661=CARTESIAN_POINT('Ctrl Pts',(-241.022747556371,42.7184973113874,0.00127478084884609));
#662=CARTESIAN_POINT('Ctrl Pts',(-242.22303691806,42.7104567577966,1.52762989698897E-15));
#663=CARTESIAN_POINT('Ctrl Pts',(-243.397157404729,42.9174858781989,8.32667268468867E-16));
#664=CARTESIAN_POINT('',(-232.128630299703,26.6299785935837,79.8703873778602));
#665=CARTESIAN_POINT('Ctrl Pts',(-243.397157404729,42.9174858781989,8.32667268468867E-16));
#666=CARTESIAN_POINT('Ctrl Pts',(-239.766863953148,37.5066984366255,26.644768493298));
#667=CARTESIAN_POINT('Ctrl Pts',(-236.017931581379,32.0785085262169,53.2698953750484));
#668=CARTESIAN_POINT('Ctrl Pts',(-232.128630416998,26.6299786105723,79.8703873984898));
#669=CARTESIAN_POINT('Ctrl Pts',(-232.128630299703,26.6299785935837,79.8703873778602));
#670=CARTESIAN_POINT('Ctrl Pts',(-230.834843333098,26.4017124147081,79.8711504696258));
#671=CARTESIAN_POINT('Ctrl Pts',(-229.509957968498,26.4272055205809,79.8694783852123));
#672=CARTESIAN_POINT('Ctrl Pts',(-226.985394541833,26.9906712519275,79.8608746970809));
#673=CARTESIAN_POINT('Ctrl Pts',(-225.810491384346,27.5072147663896,79.854176940798));
#674=CARTESIAN_POINT('Ctrl Pts',(-223.734438411894,28.9623937126186,79.8355092177658));
#675=CARTESIAN_POINT('Ctrl Pts',(-222.854575437511,29.8806510272527,79.8237702763636));
#676=CARTESIAN_POINT('Ctrl Pts',(-221.796542850459,31.5260986439987,79.8020061749664));
#677=CARTESIAN_POINT('Ctrl Pts',(-221.484246437123,32.1478792174436,79.7936618380921));
#678=CARTESIAN_POINT('Ctrl Pts',(-220.992097346207,33.4502126827732,79.7758778880014));
#679=CARTESIAN_POINT('Ctrl Pts',(-220.81445910154,34.1272431535925,79.7664844296403));
#680=CARTESIAN_POINT('Ctrl Pts',(-220.70736097394,34.8171316342052,79.7567734373413));
#681=CARTESIAN_POINT('Origin',(-233.8918413404,41.241442195896,0.));
#682=CARTESIAN_POINT('Ctrl Pts',(-232.128630299703,26.6299785935837,79.8703873778602));
#683=CARTESIAN_POINT('Ctrl Pts',(-243.171386800339,28.5782806678187,79.8638742216966));
#684=CARTESIAN_POINT('Ctrl Pts',(-254.222082069643,30.5278320684351,79.858201585826));
#685=CARTESIAN_POINT('Ctrl Pts',(-265.091839081436,32.4453960976478,79.8529929326634));
#686=CARTESIAN_POINT('',(-19.9612896309044,3.51971393166455,2.22044604925031E-15));
#687=CARTESIAN_POINT('Ctrl Pts',(280.,-1.4427837144489E-15,40.));
#688=CARTESIAN_POINT('Ctrl Pts',(280.,20.9970756855958,40.));
#689=CARTESIAN_POINT('Ctrl Pts',(275.279221885452,62.9894237615644,40.336716822662));
#690=CARTESIAN_POINT('Ctrl Pts',(254.391585379837,122.821637570012,41.8179010989144));
#691=CARTESIAN_POINT('Ctrl Pts',(220.741599421402,176.482806902026,44.2041199499348));
#692=CARTESIAN_POINT('Ctrl Pts',(171.066338814471,226.285916503568,47.7366511914237));
#693=CARTESIAN_POINT('Ctrl Pts',(116.045050581883,258.125093606879,51.6686887491485));
#694=CARTESIAN_POINT('Ctrl Pts',(62.525955805924,274.646962271898,55.5076707019771));
#695=CARTESIAN_POINT('Ctrl Pts',(7.15597888675294,283.032725465178,59.4851675051081));
#696=CARTESIAN_POINT('Ctrl Pts',(-49.1512000744549,278.79989458567,63.5330713008093));
#697=CARTESIAN_POINT('Ctrl Pts',(-102.660399046913,262.244388048784,67.3711015912314));
#698=CARTESIAN_POINT('Ctrl Pts',(-140.505599577623,243.985557047407,70.0794965478055));
#699=CARTESIAN_POINT('Ctrl Pts',(-175.207308828895,220.265471797233,72.5561961621902));
#700=CARTESIAN_POINT('Ctrl Pts',(-216.280770998975,182.094889103547,75.4796173344187));
#701=CARTESIAN_POINT('Ctrl Pts',(-252.07803614113,129.473873390123,78.0180033023932));
#702=CARTESIAN_POINT('Ctrl Pts',(-275.275140258587,62.9869773216477,79.6630126595645));
#703=CARTESIAN_POINT('Ctrl Pts',(-280.,20.9970756855958,80.));
#704=CARTESIAN_POINT('Ctrl Pts',(-280.,-1.02074287052523E-31,80.));
#705=CARTESIAN_POINT('Ctrl Pts',(286.666666666667,-1.0013111354904E-15,
33.3333333333333));
#706=CARTESIAN_POINT('Ctrl Pts',(286.666666666667,21.5278074564797,33.3333333333333));
#707=CARTESIAN_POINT('Ctrl Pts',(281.814963306379,64.5815255006471,33.6706753322498));
#708=CARTESIAN_POINT('Ctrl Pts',(260.35429594468,125.905210014405,35.1574534214306));
#709=CARTESIAN_POINT('Ctrl Pts',(225.800038333019,180.868278071998,37.5524340987754));
#710=CARTESIAN_POINT('Ctrl Pts',(174.824434357588,231.832157450063,41.0940031422827));
#711=CARTESIAN_POINT('Ctrl Pts',(118.41031075502,264.359853504475,45.028553431961));
#712=CARTESIAN_POINT('Ctrl Pts',(63.5775773152381,281.194585039599,48.8640148647562));
#713=CARTESIAN_POINT('Ctrl Pts',(6.87429146770679,289.694155590992,52.835114588743));
#714=CARTESIAN_POINT('Ctrl Pts',(-50.74956072635,285.27735616836,56.8740866855854));
#715=CARTESIAN_POINT('Ctrl Pts',(-105.476628348284,268.266871708206,60.7051866808188));
#716=CARTESIAN_POINT('Ctrl Pts',(-144.168609076472,249.542557678636,63.4101038319906));
#717=CARTESIAN_POINT('Ctrl Pts',(-179.634472565088,225.244711442418,65.8853220175639));
#718=CARTESIAN_POINT('Ctrl Pts',(-221.59955154231,186.173017811098,68.8090951328004));
#719=CARTESIAN_POINT('Ctrl Pts',(-258.158453789845,132.350745304889,71.3502456590172));
#720=CARTESIAN_POINT('Ctrl Pts',(-281.843044353546,64.3801183624011,72.9967186713244));
#721=CARTESIAN_POINT('Ctrl Pts',(-286.666666666667,21.4614659851192,73.3333333333333));
#722=CARTESIAN_POINT('Ctrl Pts',(-286.666666666667,-6.80495247016822E-32,
73.3333333333333));
#723=CARTESIAN_POINT('Ctrl Pts',(293.333333333333,-5.59838556531895E-16,
26.6666666666667));
#724=CARTESIAN_POINT('Ctrl Pts',(293.333333333333,22.0585392273636,26.6666666666667));
#725=CARTESIAN_POINT('Ctrl Pts',(288.350704727305,66.1736272397297,27.0046338418377));
#726=CARTESIAN_POINT('Ctrl Pts',(266.317006509523,128.988782458797,28.4970057439468));
#727=CARTESIAN_POINT('Ctrl Pts',(230.858477244636,185.25374924197,30.900748247616));
#728=CARTESIAN_POINT('Ctrl Pts',(178.582529900706,237.378398396558,34.4513550931417));
#729=CARTESIAN_POINT('Ctrl Pts',(120.775570928156,270.594613402072,38.3884181147734));
#730=CARTESIAN_POINT('Ctrl Pts',(64.6291988245521,287.742207807301,42.2203590275353));
#731=CARTESIAN_POINT('Ctrl Pts',(6.59260404866071,296.355585716807,46.185061672378));
#732=CARTESIAN_POINT('Ctrl Pts',(-52.3479213782452,291.754817751049,50.2151020703615));
#733=CARTESIAN_POINT('Ctrl Pts',(-108.292857649655,274.289355367628,54.0392717704062));
#734=CARTESIAN_POINT('Ctrl Pts',(-147.831618575321,255.099558309866,56.7407111161756));
#735=CARTESIAN_POINT('Ctrl Pts',(-184.06163630128,230.223951087603,59.2144478729376));
#736=CARTESIAN_POINT('Ctrl Pts',(-226.918332085644,190.25114651865,62.138572931182));
#737=CARTESIAN_POINT('Ctrl Pts',(-264.23887143856,135.227617219655,64.6824880156411));
#738=CARTESIAN_POINT('Ctrl Pts',(-288.410948448505,65.7732594031545,66.3304246830844));
#739=CARTESIAN_POINT('Ctrl Pts',(-293.333333333333,21.9258562846427,66.6666666666667));
#740=CARTESIAN_POINT('Ctrl Pts',(-293.333333333333,-3.40247623508411E-32,
66.6666666666667));
#741=CARTESIAN_POINT('Ctrl Pts',(300.,-1.18365977573393E-16,20.));
#742=CARTESIAN_POINT('Ctrl Pts',(300.,22.5892709982476,20.));
#743=CARTESIAN_POINT('Ctrl Pts',(294.886446148231,67.7657289788124,20.3385923514255));
#744=CARTESIAN_POINT('Ctrl Pts',(272.279717074366,132.07235490319,21.836558066463));
#745=CARTESIAN_POINT('Ctrl Pts',(235.916916156254,189.639220411942,24.2490623964566));
#746=CARTESIAN_POINT('Ctrl Pts',(182.340625443824,242.924639343052,27.8087070440007));
#747=CARTESIAN_POINT('Ctrl Pts',(123.140831101292,276.829373299668,31.7482827975859));
#748=CARTESIAN_POINT('Ctrl Pts',(65.6808203338662,294.289830575002,35.5767031903143));
#749=CARTESIAN_POINT('Ctrl Pts',(6.31091662961455,303.017015842621,39.535008756013));
#750=CARTESIAN_POINT('Ctrl Pts',(-53.9462820301403,298.232279333739,43.5561174551376));
#751=CARTESIAN_POINT('Ctrl Pts',(-111.109086951026,280.31183902705,47.3733568599937));
#752=CARTESIAN_POINT('Ctrl Pts',(-151.49462807417,260.656558941095,50.0713184003607));
#753=CARTESIAN_POINT('Ctrl Pts',(-188.488800037472,235.203190732788,52.5435737283113));
#754=CARTESIAN_POINT('Ctrl Pts',(-232.237112628979,194.329275226201,55.4680507295637));
#755=CARTESIAN_POINT('Ctrl Pts',(-270.319289087275,138.104489134422,58.0147303722651));
#756=CARTESIAN_POINT('Ctrl Pts',(-294.978852543464,67.1664004439079,59.6641306948444));
#757=CARTESIAN_POINT('Ctrl Pts',(-300.,22.3902465841661,60.));
#758=CARTESIAN_POINT('Ctrl Pts',(-300.,0.,60.));
#759=CARTESIAN_POINT('',(-300.,-6.13366518354467E-32,60.));
#760=CARTESIAN_POINT('',(-280.,6.27910148171703E-14,80.));
#761=CARTESIAN_POINT('Ctrl Pts',(-300.,-1.77635683940025E-14,60.));
#762=CARTESIAN_POINT('Ctrl Pts',(-296.666666666667,-1.77635683940025E-14,
63.3333333333333));
#763=CARTESIAN_POINT('Ctrl Pts',(-293.333333333333,-2.88757742719103E-32,
66.6666666666667));
#764=CARTESIAN_POINT('Ctrl Pts',(-286.666666666667,-7.3198512780613E-32,
73.3333333333333));
#765=CARTESIAN_POINT('Ctrl Pts',(-283.333333333333,0.,76.6666666666666));
#766=CARTESIAN_POINT('Ctrl Pts',(-280.,0.,80.));
#767=CARTESIAN_POINT('',(280.,-6.09611000232156E-16,40.));
#768=CARTESIAN_POINT('Ctrl Pts',(-280.,-1.02074287052523E-31,80.));
#769=CARTESIAN_POINT('Ctrl Pts',(-280.,20.9970756855958,80.));
#770=CARTESIAN_POINT('Ctrl Pts',(-275.275140258587,62.9869773216477,79.6630126595645));
#771=CARTESIAN_POINT('Ctrl Pts',(-252.07803614113,129.473873390123,78.0180033023932));
#772=CARTESIAN_POINT('Ctrl Pts',(-216.280770998975,182.094889103547,75.4796173344187));
#773=CARTESIAN_POINT('Ctrl Pts',(-175.207308828895,220.265471797233,72.5561961621902));
#774=CARTESIAN_POINT('Ctrl Pts',(-140.505599577623,243.985557047407,70.0794965478055));
#775=CARTESIAN_POINT('Ctrl Pts',(-102.660399046913,262.244388048784,67.3711015912314));
#776=CARTESIAN_POINT('Ctrl Pts',(-49.1512000744549,278.79989458567,63.5330713008093));
#777=CARTESIAN_POINT('Ctrl Pts',(7.15597888675294,283.032725465178,59.4851675051081));
#778=CARTESIAN_POINT('Ctrl Pts',(62.525955805924,274.646962271898,55.5076707019771));
#779=CARTESIAN_POINT('Ctrl Pts',(116.045050581883,258.125093606879,51.6686887491485));
#780=CARTESIAN_POINT('Ctrl Pts',(171.066338814471,226.285916503568,47.7366511914237));
#781=CARTESIAN_POINT('Ctrl Pts',(220.741599421402,176.482806902026,44.2041199499348));
#782=CARTESIAN_POINT('Ctrl Pts',(254.391585379837,122.821637570012,41.8179010989144));
#783=CARTESIAN_POINT('Ctrl Pts',(275.279221885452,62.9894237615644,40.336716822662));
#784=CARTESIAN_POINT('Ctrl Pts',(280.,20.9970756855958,40.));
#785=CARTESIAN_POINT('Ctrl Pts',(280.,-1.4427837144489E-15,40.));
#786=CARTESIAN_POINT('',(300.,6.10741417215987E-17,20.));
#787=CARTESIAN_POINT('Ctrl Pts',(280.,-1.21922200046431E-15,40.));
#788=CARTESIAN_POINT('Ctrl Pts',(283.333333333333,-1.21922200046431E-15,
36.6666666666667));
#789=CARTESIAN_POINT('Ctrl Pts',(286.666666666667,-5.48536858510557E-16,
33.3333333333333));
#790=CARTESIAN_POINT('Ctrl Pts',(293.333333333333,-5.48536858510557E-16,
26.6666666666667));
#791=CARTESIAN_POINT('Ctrl Pts',(296.666666666667,1.22148283443197E-16,
23.3333333333333));
#792=CARTESIAN_POINT('Ctrl Pts',(300.,1.22148283443197E-16,20.));
#793=CARTESIAN_POINT('Ctrl Pts',(300.,-1.18365977573393E-16,20.));
#794=CARTESIAN_POINT('Ctrl Pts',(300.,22.5892709982476,20.));
#795=CARTESIAN_POINT('Ctrl Pts',(294.886446148231,67.7657289788124,20.3385923514255));
#796=CARTESIAN_POINT('Ctrl Pts',(272.279717074366,132.07235490319,21.836558066463));
#797=CARTESIAN_POINT('Ctrl Pts',(235.916916156254,189.639220411942,24.2490623964566));
#798=CARTESIAN_POINT('Ctrl Pts',(182.340625443824,242.924639343052,27.8087070440007));
#799=CARTESIAN_POINT('Ctrl Pts',(123.140831101292,276.829373299668,31.7482827975859));
#800=CARTESIAN_POINT('Ctrl Pts',(65.6808203338662,294.289830575002,35.5767031903143));
#801=CARTESIAN_POINT('Ctrl Pts',(6.31091662961455,303.017015842621,39.535008756013));
#802=CARTESIAN_POINT('Ctrl Pts',(-53.9462820301403,298.232279333739,43.5561174551376));
#803=CARTESIAN_POINT('Ctrl Pts',(-111.109086951026,280.31183902705,47.3733568599937));
#804=CARTESIAN_POINT('Ctrl Pts',(-151.49462807417,260.656558941095,50.0713184003607));
#805=CARTESIAN_POINT('Ctrl Pts',(-188.488800037472,235.203190732788,52.5435737283113));
#806=CARTESIAN_POINT('Ctrl Pts',(-232.237112628979,194.329275226201,55.4680507295637));
#807=CARTESIAN_POINT('Ctrl Pts',(-270.319289087275,138.104489134422,58.0147303722651));
#808=CARTESIAN_POINT('Ctrl Pts',(-294.978852543464,67.1664004439079,59.6641306948444));
#809=CARTESIAN_POINT('Ctrl Pts',(-300.,22.3902465841661,60.));
#810=CARTESIAN_POINT('Ctrl Pts',(-300.,0.,60.));
#811=CARTESIAN_POINT('Origin',(250.,0.,20.));
#812=CARTESIAN_POINT('',(220.,6.06245710449563E-16,40.));
#813=CARTESIAN_POINT('',(300.,0.,40.));
#814=CARTESIAN_POINT('',(200.,9.13169011217319E-17,20.));
#815=CARTESIAN_POINT('Ctrl Pts',(200.,1.82633802243464E-16,20.));
#816=CARTESIAN_POINT('Ctrl Pts',(203.333333333333,1.82633802243464E-16,
23.3333333333333));
#817=CARTESIAN_POINT('Ctrl Pts',(206.666666666667,6.97562611571295E-16,
26.6666666666667));
#818=CARTESIAN_POINT('Ctrl Pts',(213.333333333333,6.97562611571295E-16,
33.3333333333333));
#819=CARTESIAN_POINT('Ctrl Pts',(216.666666666667,1.21249142089913E-15,
36.6666666666667));
#820=CARTESIAN_POINT('Ctrl Pts',(220.,1.21249142089913E-15,40.));
#821=CARTESIAN_POINT('',(200.,0.,0.));
#822=CARTESIAN_POINT('',(200.,0.,40.));
#823=CARTESIAN_POINT('',(300.,0.,0.));
#824=CARTESIAN_POINT('',(200.,0.,0.));
#825=CARTESIAN_POINT('',(300.,0.,0.));
#826=CARTESIAN_POINT('Ctrl Pts',(280.,0.,40.));
#827=CARTESIAN_POINT('Ctrl Pts',(280.,20.9987227873278,40.));
#828=CARTESIAN_POINT('Ctrl Pts',(275.317879685749,63.0997705581695,40.3368811244198));
#829=CARTESIAN_POINT('Ctrl Pts',(256.8194662588,116.594558060293,41.6633625697115));
#830=CARTESIAN_POINT('Ctrl Pts',(225.388710674464,171.743970563208,43.9132436090916));
#831=CARTESIAN_POINT('Ctrl Pts',(187.010181101587,213.670641218751,46.6564735680774));
#832=CARTESIAN_POINT('Ctrl Pts',(140.702604822783,245.644213044664,49.9627527958107));
#833=CARTESIAN_POINT('Ctrl Pts',(102.82563985453,264.13104187404,52.6657603926524));
#834=CARTESIAN_POINT('Ctrl Pts',(49.2375740051977,280.893438286662,56.4885809016862));
#835=CARTESIAN_POINT('Ctrl Pts',(-7.16904685104969,285.183776338408,60.511207389686));
#836=CARTESIAN_POINT('Ctrl Pts',(-62.6321958456845,276.688607018747,64.4669588511354));
#837=CARTESIAN_POINT('Ctrl Pts',(-116.226899836971,259.957249530902,68.290237795387));
#838=CARTESIAN_POINT('Ctrl Pts',(-171.289175167536,227.733123075295,72.2204522740656));
#839=CARTESIAN_POINT('Ctrl Pts',(-220.93572238172,177.40946469797,75.7682764961684));
#840=CARTESIAN_POINT('Ctrl Pts',(-254.514640052862,123.288491789658,78.1713435115353));
#841=CARTESIAN_POINT('Ctrl Pts',(-275.314486414871,63.0965689821207,79.6628845336688));
#842=CARTESIAN_POINT('Ctrl Pts',(-280.,20.9987227873278,80.));
#843=CARTESIAN_POINT('Ctrl Pts',(-280.,-1.02074287052523E-31,80.));
#844=CARTESIAN_POINT('Ctrl Pts',(260.,0.,40.));
#845=CARTESIAN_POINT('Ctrl Pts',(260.,19.5076867834488,40.));
#846=CARTESIAN_POINT('Ctrl Pts',(255.657612095804,58.6350931202948,40.3368811244198));
#847=CARTESIAN_POINT('Ctrl Pts',(238.491707348074,108.379741138173,41.6633625697115));
#848=CARTESIAN_POINT('Ctrl Pts',(209.316464383702,159.680116091381,43.9132436090916));
#849=CARTESIAN_POINT('Ctrl Pts',(173.68338892422,198.69381099362,46.6564735680773));
#850=CARTESIAN_POINT('Ctrl Pts',(130.680452948939,228.451199330697,49.9627527958107));
#851=CARTESIAN_POINT('Ctrl Pts',(95.503590693154,245.658353696727,52.6657603926524));
#852=CARTESIAN_POINT('Ctrl Pts',(45.7326304592841,261.261530835425,56.4885809016862));
#853=CARTESIAN_POINT('Ctrl Pts',(-6.65885141098416,265.255489369097,60.511207389686));
#854=CARTESIAN_POINT('Ctrl Pts',(-58.1731346553648,257.347442557178,64.4669588511354));
#855=CARTESIAN_POINT('Ctrl Pts',(-107.95029293338,241.773258285935,68.290237795387));
#856=CARTESIAN_POINT('Ctrl Pts',(-159.085626504356,211.780136101154,72.2204522740656));
#857=CARTESIAN_POINT('Ctrl Pts',(-205.182433505165,164.95179949275,75.7682764961684));
#858=CARTESIAN_POINT('Ctrl Pts',(-236.352949115608,114.604440376113,78.1713435115353));
#859=CARTESIAN_POINT('Ctrl Pts',(-255.654443793161,58.6321025891893,79.6628845336688));
#860=CARTESIAN_POINT('Ctrl Pts',(-260.,19.5076867834488,80.));
#861=CARTESIAN_POINT('Ctrl Pts',(-260.,-2.04148574105047E-31,80.));
#862=CARTESIAN_POINT('Ctrl Pts',(240.,0.,40.));
#863=CARTESIAN_POINT('Ctrl Pts',(240.,18.0166507795698,40.));
#864=CARTESIAN_POINT('Ctrl Pts',(235.920359793702,53.9402692915653,40.3368811244198));
#865=CARTESIAN_POINT('Ctrl Pts',(219.924228409139,99.2304557717083,41.6633625697115));
#866=CARTESIAN_POINT('Ctrl Pts',(192.852445389008,145.706456940517,43.9132436090916));
#867=CARTESIAN_POINT('Ctrl Pts',(159.904771873846,180.873134944508,46.6564735680774));
#868=CARTESIAN_POINT('Ctrl Pts',(120.250727155794,207.625174515099,49.9627527958107));
#869=CARTESIAN_POINT('Ctrl Pts',(87.8523994905367,223.071543791869,52.6657603926524));
#870=CARTESIAN_POINT('Ctrl Pts',(42.052846998562,237.063400547125,56.4885809016862));
#871=CARTESIAN_POINT('Ctrl Pts',(-6.12133333116569,240.6405577483,60.511207389686));
#872=CARTESIAN_POINT('Ctrl Pts',(-53.5008366230201,233.554135978513,64.4669588511354));
#873=CARTESIAN_POINT('Ctrl Pts',(-99.3056519512959,219.586924218901,68.290237795387));
#874=CARTESIAN_POINT('Ctrl Pts',(-146.425680347283,192.657270605265,72.2204522740656));
#875=CARTESIAN_POINT('Ctrl Pts',(-189.024478899045,150.460800248543,75.7682764961684));
#876=CARTESIAN_POINT('Ctrl Pts',(-217.930638672775,104.897354823657,78.1713435115353));
#877=CARTESIAN_POINT('Ctrl Pts',(-235.917669548558,53.9377272309642,79.6628845336688));
#878=CARTESIAN_POINT('Ctrl Pts',(-240.,18.0166507795698,80.));
#879=CARTESIAN_POINT('Ctrl Pts',(-240.,-3.06222861157571E-31,80.));
#880=CARTESIAN_POINT('Ctrl Pts',(220.,0.,40.));
#881=CARTESIAN_POINT('Ctrl Pts',(220.,16.5256147756907,40.));
#882=CARTESIAN_POINT('Ctrl Pts',(216.260092203757,49.4755918536906,40.3368811244198));
#883=CARTESIAN_POINT('Ctrl Pts',(201.596469498414,91.0156388495883,41.6633625697115));
#884=CARTESIAN_POINT('Ctrl Pts',(176.780199098246,133.642602468691,43.9132436090916));
#885=CARTESIAN_POINT('Ctrl Pts',(146.577979696479,165.896304719377,46.6564735680774));
#886=CARTESIAN_POINT('Ctrl Pts',(110.228575281949,190.432160801132,49.9627527958107));
#887=CARTESIAN_POINT('Ctrl Pts',(80.530350329161,204.598855614556,52.6657603926524));
#888=CARTESIAN_POINT('Ctrl Pts',(38.5479034526484,217.431493095888,56.4885809016862));
#889=CARTESIAN_POINT('Ctrl Pts',(-5.61113789110017,220.712270778988,60.511207389686));
#890=CARTESIAN_POINT('Ctrl Pts',(-49.0417754327005,214.212971516945,64.4669588511354));
#891=CARTESIAN_POINT('Ctrl Pts',(-91.0290450477049,201.402932973934,68.290237795387));
#892=CARTESIAN_POINT('Ctrl Pts',(-134.222131684103,176.704283631124,72.2204522740656));
#893=CARTESIAN_POINT('Ctrl Pts',(-173.271190022491,138.003135043322,75.7682764961684));
#894=CARTESIAN_POINT('Ctrl Pts',(-199.768947735521,96.2133034101123,78.1713435115353));
#895=CARTESIAN_POINT('Ctrl Pts',(-216.257626926848,49.4732608380328,79.6628845336688));
#896=CARTESIAN_POINT('Ctrl Pts',(-220.,16.5256147756907,80.));
#897=CARTESIAN_POINT('Ctrl Pts',(-220.,-4.08297148210094E-31,80.));
#898=CARTESIAN_POINT('',(-220.,-4.06939588803282E-31,80.));
#899=CARTESIAN_POINT('',(-300.,0.,80.));
#900=CARTESIAN_POINT('Ctrl Pts',(220.,-2.28053260496064E-30,40.));
#901=CARTESIAN_POINT('Ctrl Pts',(220.,16.5231509274366,40.));
#902=CARTESIAN_POINT('Ctrl Pts',(216.295435157788,49.5680905908081,40.3373806372135));
#903=CARTESIAN_POINT('Ctrl Pts',(199.9016407006,96.6596969427533,41.8416275380974));
#904=CARTESIAN_POINT('Ctrl Pts',(173.483500937118,138.907005212456,44.2655470608206));
#905=CARTESIAN_POINT('Ctrl Pts',(134.468886833977,178.133680091697,47.8320331000154));
#906=CARTESIAN_POINT('Ctrl Pts',(91.2331693188156,203.225759258777,51.7596122939087));
#907=CARTESIAN_POINT('Ctrl Pts',(49.1606823186791,216.252186596674,55.5637650556315));
#908=CARTESIAN_POINT('Ctrl Pts',(5.62825114882342,222.861797454986,59.493028436496));
#909=CARTESIAN_POINT('Ctrl Pts',(-49.718486569438,218.697170972995,64.4835793535139));
#910=CARTESIAN_POINT('Ctrl Pts',(-101.368859293952,198.317150054386,69.1594022630758));
#911=CARTESIAN_POINT('Ctrl Pts',(-137.718630252469,173.391742802021,72.4671742005795));
#912=CARTESIAN_POINT('Ctrl Pts',(-169.981569073869,143.327176007893,75.4130540850901));
#913=CARTESIAN_POINT('Ctrl Pts',(-198.085585258774,101.894851975122,77.9917882532284));
#914=CARTESIAN_POINT('Ctrl Pts',(-216.29235481948,49.5664533689188,79.662309155724));
#915=CARTESIAN_POINT('Ctrl Pts',(-220.,16.5231509274366,80.));
#916=CARTESIAN_POINT('Ctrl Pts',(-220.,-4.08297148210094E-31,80.));
#917=CARTESIAN_POINT('Ctrl Pts',(200.,-9.31547503447627E-16,20.));
#918=CARTESIAN_POINT('Ctrl Pts',(200.,15.1834359873742,20.));
#919=CARTESIAN_POINT('Ctrl Pts',(196.543293828246,45.5487433162441,20.34045420699));
#920=CARTESIAN_POINT('Ctrl Pts',(181.277741595172,88.7184666282935,21.8463721741723));
#921=CARTESIAN_POINT('Ctrl Pts',(156.772384156157,127.27088189758,24.270587984588));
#922=CARTESIAN_POINT('Ctrl Pts',(120.756743895264,162.833040582738,27.8449245220544));
#923=CARTESIAN_POINT('Ctrl Pts',(81.0861022073523,185.321677572959,31.7961488244351));
#924=CARTESIAN_POINT('Ctrl Pts',(42.6882733972068,196.791521381878,35.6309830835486));
#925=CARTESIAN_POINT('Ctrl Pts',(3.08221699799324,202.407717446627,39.59240782973));
#926=CARTESIAN_POINT('Ctrl Pts',(-47.0469580112389,198.159401697579,44.6165960029239));
#927=CARTESIAN_POINT('Ctrl Pts',(-93.5995872083852,179.350385702872,49.2921372413982));
#928=CARTESIAN_POINT('Ctrl Pts',(-126.274418754638,156.616795778817,52.5775124247457));
#929=CARTESIAN_POINT('Ctrl Pts',(-155.229813033704,129.312309933111,55.4907994285399));
#930=CARTESIAN_POINT('Ctrl Pts',(-180.399335956326,91.845811217089,58.0253240767308));
#931=CARTESIAN_POINT('Ctrl Pts',(-196.685167566325,44.6545818042557,59.6660084815988));
#932=CARTESIAN_POINT('Ctrl Pts',(-200.,14.8857215562492,60.));
#933=CARTESIAN_POINT('Ctrl Pts',(-200.,0.,60.));
#934=CARTESIAN_POINT('Ctrl Pts',(206.666666666667,-6.21031668965085E-16,
26.6666666666667));
#935=CARTESIAN_POINT('Ctrl Pts',(206.666666666667,15.6300076340617,26.6666666666667));
#936=CARTESIAN_POINT('Ctrl Pts',(203.127340938093,46.8885257410988,27.0060963503978));
#937=CARTESIAN_POINT('Ctrl Pts',(187.485707963648,91.36554339978,28.5114572954807));
#938=CARTESIAN_POINT('Ctrl Pts',(162.342756416477,131.149589669205,30.9355743433322));
#939=CARTESIAN_POINT('Ctrl Pts',(125.327458208169,167.933253752391,34.5072940480414));
#940=CARTESIAN_POINT('Ctrl Pts',(84.4684579111734,191.289704801565,38.450636647593));
#941=CARTESIAN_POINT('Ctrl Pts',(44.8457430376976,203.27840978681,42.2752437409096));
#942=CARTESIAN_POINT('Ctrl Pts',(3.93089504826995,209.22574411608,46.2259480319853));
#943=CARTESIAN_POINT('Ctrl Pts',(-47.9374675306386,205.005324789384,51.2389237864539));
#944=CARTESIAN_POINT('Ctrl Pts',(-96.1893445702409,185.67264048671,55.9145589152908));
#945=CARTESIAN_POINT('Ctrl Pts',(-130.089155920582,162.208444786552,59.207399683357));
#946=CARTESIAN_POINT('Ctrl Pts',(-160.147065047092,133.983931958038,62.1315509807233));
#947=CARTESIAN_POINT('Ctrl Pts',(-186.294752390475,95.1954914697667,64.6808121355634));
#948=CARTESIAN_POINT('Ctrl Pts',(-203.22089665071,46.2918723258101,66.3314420396405));
#949=CARTESIAN_POINT('Ctrl Pts',(-206.666666666667,15.431531346645,66.6666666666667));
#950=CARTESIAN_POINT('Ctrl Pts',(-206.666666666667,-1.36099049403365E-31,
66.6666666666667));
#951=CARTESIAN_POINT('Ctrl Pts',(213.333333333333,-3.10515834482544E-16,
33.3333333333333));
#952=CARTESIAN_POINT('Ctrl Pts',(213.333333333333,16.0765792807491,33.3333333333333));
#953=CARTESIAN_POINT('Ctrl Pts',(209.71138804794,48.2283081659534,33.6717384938056));
#954=CARTESIAN_POINT('Ctrl Pts',(193.693674332124,94.0126201712667,35.1765424167891));
#955=CARTESIAN_POINT('Ctrl Pts',(167.913128676797,135.02829744083,37.6005607020764));
#956=CARTESIAN_POINT('Ctrl Pts',(129.898172521073,173.033466922044,41.1696635740284));
#957=CARTESIAN_POINT('Ctrl Pts',(87.8508136149945,197.257732030171,45.1051244707508));
#958=CARTESIAN_POINT('Ctrl Pts',(47.0032126781884,209.765298191742,48.9195043982706));
#959=CARTESIAN_POINT('Ctrl Pts',(4.77957309854671,216.043770785533,52.8594882342406));
#960=CARTESIAN_POINT('Ctrl Pts',(-48.8279770500383,211.851247881189,57.8612515699839));
#961=CARTESIAN_POINT('Ctrl Pts',(-98.7791019320966,191.994895270548,62.5369805891833));
#962=CARTESIAN_POINT('Ctrl Pts',(-133.903893086525,167.800093794286,65.8372869419683));
#963=CARTESIAN_POINT('Ctrl Pts',(-165.064317060481,138.655553982966,68.7723025329067));
#964=CARTESIAN_POINT('Ctrl Pts',(-192.190168824625,98.5451717224444,71.3363001943959));
#965=CARTESIAN_POINT('Ctrl Pts',(-209.756625735095,47.9291628473645,72.9968755976822));
#966=CARTESIAN_POINT('Ctrl Pts',(-213.333333333333,15.9773411370408,73.3333333333333));
#967=CARTESIAN_POINT('Ctrl Pts',(-213.333333333333,-2.72198098806729E-31,
73.3333333333333));
#968=CARTESIAN_POINT('Ctrl Pts',(220.,-2.28053260496064E-30,40.));
#969=CARTESIAN_POINT('Ctrl Pts',(220.,16.5231509274366,40.));
#970=CARTESIAN_POINT('Ctrl Pts',(216.295435157788,49.5680905908081,40.3373806372135));
#971=CARTESIAN_POINT('Ctrl Pts',(199.9016407006,96.6596969427533,41.8416275380974));
#972=CARTESIAN_POINT('Ctrl Pts',(173.483500937118,138.907005212456,44.2655470608206));
#973=CARTESIAN_POINT('Ctrl Pts',(134.468886833977,178.133680091697,47.8320331000154));
#974=CARTESIAN_POINT('Ctrl Pts',(91.2331693188156,203.225759258777,51.7596122939087));
#975=CARTESIAN_POINT('Ctrl Pts',(49.1606823186791,216.252186596674,55.5637650556315));
#976=CARTESIAN_POINT('Ctrl Pts',(5.62825114882342,222.861797454986,59.493028436496));
#977=CARTESIAN_POINT('Ctrl Pts',(-49.718486569438,218.697170972995,64.4835793535139));
#978=CARTESIAN_POINT('Ctrl Pts',(-101.368859293952,198.317150054386,69.1594022630758));
#979=CARTESIAN_POINT('Ctrl Pts',(-137.718630252469,173.391742802021,72.4671742005795));
#980=CARTESIAN_POINT('Ctrl Pts',(-169.981569073869,143.327176007893,75.4130540850901));
#981=CARTESIAN_POINT('Ctrl Pts',(-198.085585258774,101.894851975122,77.9917882532284));
#982=CARTESIAN_POINT('Ctrl Pts',(-216.29235481948,49.5664533689188,79.662309155724));
#983=CARTESIAN_POINT('Ctrl Pts',(-220.,16.5231509274366,80.));
#984=CARTESIAN_POINT('Ctrl Pts',(-220.,-4.08297148210094E-31,80.));
#985=CARTESIAN_POINT('',(-200.,2.04396917543062E-32,60.));
#986=CARTESIAN_POINT('Ctrl Pts',(-220.,-3.5527136788005E-14,80.));
#987=CARTESIAN_POINT('Ctrl Pts',(-216.666666666667,-3.5527136788005E-14,
76.6666666666666));
#988=CARTESIAN_POINT('Ctrl Pts',(-213.333333333333,-2.18203790459142E-31,
73.3333333333333));
#989=CARTESIAN_POINT('Ctrl Pts',(-206.666666666667,-1.90093357750952E-31,
66.6666666666667));
#990=CARTESIAN_POINT('Ctrl Pts',(-203.333333333333,-6.57384087684176E-31,
63.3333333333333));
#991=CARTESIAN_POINT('Ctrl Pts',(-200.,0.,60.));
#992=CARTESIAN_POINT('Ctrl Pts',(-200.,0.,60.));
#993=CARTESIAN_POINT('Ctrl Pts',(-200.,14.8857215562492,60.));
#994=CARTESIAN_POINT('Ctrl Pts',(-196.685167566325,44.6545818042557,59.6660084815988));
#995=CARTESIAN_POINT('Ctrl Pts',(-180.399335956326,91.845811217089,58.0253240767308));
#996=CARTESIAN_POINT('Ctrl Pts',(-155.229813033704,129.312309933111,55.4907994285399));
#997=CARTESIAN_POINT('Ctrl Pts',(-126.274418754638,156.616795778817,52.5775124247457));
#998=CARTESIAN_POINT('Ctrl Pts',(-93.5995872083852,179.350385702872,49.2921372413982));
#999=CARTESIAN_POINT('Ctrl Pts',(-47.0469580112389,198.159401697579,44.6165960029239));
#1000=CARTESIAN_POINT('Ctrl Pts',(3.08221699799324,202.407717446627,39.59240782973));
#1001=CARTESIAN_POINT('Ctrl Pts',(42.6882733972068,196.791521381878,35.6309830835486));
#1002=CARTESIAN_POINT('Ctrl Pts',(81.0861022073523,185.321677572959,31.7961488244351));
#1003=CARTESIAN_POINT('Ctrl Pts',(120.756743895264,162.833040582738,27.8449245220544));
#1004=CARTESIAN_POINT('Ctrl Pts',(156.772384156157,127.27088189758,24.270587984588));
#1005=CARTESIAN_POINT('Ctrl Pts',(181.277741595172,88.7184666282935,21.8463721741723));
#1006=CARTESIAN_POINT('Ctrl Pts',(196.543293828246,45.5487433162441,20.34045420699));
#1007=CARTESIAN_POINT('Ctrl Pts',(200.,15.1834359873742,20.));
#1008=CARTESIAN_POINT('Ctrl Pts',(200.,-9.31547503447627E-16,20.));
#1009=CARTESIAN_POINT('Origin',(-250.,1.11187011939835E-47,40.));
#1010=CARTESIAN_POINT('',(-300.,0.,5.51642065360625E-15));
#1011=CARTESIAN_POINT('',(-300.,0.,5.51642065360625E-15));
#1012=CARTESIAN_POINT('',(-200.,0.,8.88178419700125E-15));
#1013=CARTESIAN_POINT('',(-200.,0.,3.29597460435593E-15));
#1014=CARTESIAN_POINT('',(-200.,0.,80.));
#1015=CARTESIAN_POINT('Origin',(200.,0.,0.));
#1016=CARTESIAN_POINT('Origin',(0.,0.,0.));
#1017=CARTESIAN_POINT('Origin',(0.,0.,0.));
#1018=CARTESIAN_POINT('Ctrl Pts',(300.,0.,0.));
#1019=CARTESIAN_POINT('Ctrl Pts',(300.,22.4399475256414,0.));
#1020=CARTESIAN_POINT('Ctrl Pts',(294.946803438849,67.3212578516543,5.62900066694516E-17));
#1021=CARTESIAN_POINT('Ctrl Pts',(275.04957689291,124.153085228557,2.60006221282705E-16));
#1022=CARTESIAN_POINT('Ctrl Pts',(241.301377729409,182.62440045248,5.89704831775206E-16));
#1023=CARTESIAN_POINT('Ctrl Pts',(200.152891011191,226.985004701039,9.75693448937159E-16));
#1024=CARTESIAN_POINT('Ctrl Pts',(150.558688948847,260.778223291491,1.42601350229277E-15));
#1025=CARTESIAN_POINT('Ctrl Pts',(110.013577103607,280.305370386224,1.78877132305146E-15));
#1026=CARTESIAN_POINT('Ctrl Pts',(52.6712730241206,298.003525955579,2.29627487524588E-15));
#1027=CARTESIAN_POINT('Ctrl Pts',(-7.66811723155762,302.531142161364,2.82522223950485E-15));
#1028=CARTESIAN_POINT('Ctrl Pts',(-67.0043851233836,293.564281924134,3.34702166640897E-15));
#1029=CARTESIAN_POINT('Ctrl Pts',(-124.353569292954,275.898229718938,3.85452521860339E-15));
#1030=CARTESIAN_POINT('Ctrl Pts',(-183.306787175767,241.857812870284,4.38525956720108E-15));
#1031=CARTESIAN_POINT('Ctrl Pts',(-236.52415615741,188.620046965619,4.88114772119387E-15));
#1032=CARTESIAN_POINT('Ctrl Pts',(-272.570162995342,131.264379418148,5.23094990549688E-15));
#1033=CARTESIAN_POINT('Ctrl Pts',(-294.943279422992,67.3179402549711,5.4601306469368E-15));
#1034=CARTESIAN_POINT('Ctrl Pts',(-300.,22.4399475256414,5.51642065360625E-15));
#1035=CARTESIAN_POINT('Ctrl Pts',(-300.,0.,5.51642065360625E-15));
#1036=CARTESIAN_POINT('Ctrl Pts',(300.,0.,10.));
#1037=CARTESIAN_POINT('Ctrl Pts',(300.,22.4524003420327,10.));
#1038=CARTESIAN_POINT('Ctrl Pts',(294.946803438849,67.3568373270581,10.1020408163265));
#1039=CARTESIAN_POINT('Ctrl Pts',(275.04957689291,124.214756319257,10.4713313896987));
#1040=CARTESIAN_POINT('Ctrl Pts',(241.301377729409,182.710977175963,11.0689990281827));
#1041=CARTESIAN_POINT('Ctrl Pts',(200.152891011191,227.088975834719,11.7687074829932));
#1042=CARTESIAN_POINT('Ctrl Pts',(150.558688948847,260.894844905315,12.5850340136054));
#1043=CARTESIAN_POINT('Ctrl Pts',(110.013577103607,280.429107895129,13.2426303854875));
#1044=CARTESIAN_POINT('Ctrl Pts',(52.6712730241206,298.133588704556,14.1626174279235));
#1045=CARTESIAN_POINT('Ctrl Pts',(-7.66811723155765,302.662786220358,15.1214771622935));
#1046=CARTESIAN_POINT('Ctrl Pts',(-67.0043851233836,293.692763363093,16.0673793326854));
#1047=CARTESIAN_POINT('Ctrl Pts',(-124.353569292954,276.020385917824,16.9873663751215));
#1048=CARTESIAN_POINT('Ctrl Pts',(-183.306787175767,241.967516252779,17.9494655004859));
#1049=CARTESIAN_POINT('Ctrl Pts',(-236.52415615741,188.708995654129,18.8483965014577));
#1050=CARTESIAN_POINT('Ctrl Pts',(-272.570162995342,131.32931196076,19.4825072886297));
#1051=CARTESIAN_POINT('Ctrl Pts',(-294.943279422993,67.353519730375,19.8979591836735));
#1052=CARTESIAN_POINT('Ctrl Pts',(-300.,22.4524003420327,20.));
#1053=CARTESIAN_POINT('Ctrl Pts',(-300.,-1.54074395550979E-32,20.));
#1054=CARTESIAN_POINT('Ctrl Pts',(300.,0.,20.));
#1055=CARTESIAN_POINT('Ctrl Pts',(300.,22.4648531584241,20.));
#1056=CARTESIAN_POINT('Ctrl Pts',(294.946803438849,67.3964212605772,20.1639846669615));
#1057=CARTESIAN_POINT('Ctrl Pts',(275.04957689291,124.292686759704,20.8178080190912));
#1058=CARTESIAN_POINT('Ctrl Pts',(241.301377729409,182.830783689269,21.9339485781015));
#1059=CARTESIAN_POINT('Ctrl Pts',(200.152891011191,227.242428615175,23.3020897163321));
#1060=CARTESIAN_POINT('Ctrl Pts',(150.558688948848,261.074679277815,24.9577906610169));
#1061=CARTESIAN_POINT('Ctrl Pts',(110.013577103607,280.624429271711,26.3138332622429));
#1062=CARTESIAN_POINT('Ctrl Pts',(52.6712730241206,298.34310169921,28.2341729046146));
#1063=CARTESIAN_POINT('Ctrl Pts',(-7.66811723155763,302.875975823328,30.25718510561));
#1064=CARTESIAN_POINT('Ctrl Pts',(-67.0043851233836,293.898710092184,32.2458196089555));
#1065=CARTESIAN_POINT('Ctrl Pts',(-124.353569292954,276.212181113559,34.1664172547054));
#1066=CARTESIAN_POINT('Ctrl Pts',(-183.306787175767,242.132374121527,36.1366381439698));
#1067=CARTESIAN_POINT('Ctrl Pts',(-236.52415615741,188.83332346046,37.9075567305384));
#1068=CARTESIAN_POINT('Ctrl Pts',(-272.570162995342,131.412044849144,39.1007542901679));
#1069=CARTESIAN_POINT('Ctrl Pts',(-294.943279422992,67.3930995214956,39.8358831824439));
#1070=CARTESIAN_POINT('Ctrl Pts',(-300.,22.4648531584241,40.));
#1071=CARTESIAN_POINT('Ctrl Pts',(-300.,0.,40.));
#1072=CARTESIAN_POINT('Ctrl Pts',(300.,0.,30.));
#1073=CARTESIAN_POINT('Ctrl Pts',(300.,22.4773059748155,30.));
#1074=CARTESIAN_POINT('Ctrl Pts',(294.946803438849,67.4340029650386,30.2459770004423));
#1075=CARTESIAN_POINT('Ctrl Pts',(275.04957689291,124.362487525278,31.2267120286368));
#1076=CARTESIAN_POINT('Ctrl Pts',(241.301377729409,182.933975307664,32.9009228671522));
#1077=CARTESIAN_POINT('Ctrl Pts',(200.152891011191,227.371140572243,34.9531345744981));
#1078=CARTESIAN_POINT('Ctrl Pts',(150.558688948847,261.222907270977,37.4366859915253));
#1079=CARTESIAN_POINT('Ctrl Pts',(110.013577103607,280.783958714454,39.4707498933643));
#1080=CARTESIAN_POINT('Ctrl Pts',(52.6712730241206,298.512889571026,42.3512593569219));
#1081=CARTESIAN_POINT('Ctrl Pts',(-7.66811723155762,303.048392654309,45.3857776584151));
#1082=CARTESIAN_POINT('Ctrl Pts',(-67.0043851233836,294.065924176209,48.3687294134333));
#1083=CARTESIAN_POINT('Ctrl Pts',(-124.353569292954,276.369156810869,51.2496258820581));
#1084=CARTESIAN_POINT('Ctrl Pts',(-183.306787175767,242.269654747148,54.2049572159547));
#1085=CARTESIAN_POINT('Ctrl Pts',(-236.52415615741,188.93996170788,56.8613350958076));
#1086=CARTESIAN_POINT('Ctrl Pts',(-272.570162995342,131.485877564643,58.6511314352519));
#1087=CARTESIAN_POINT('Ctrl Pts',(-294.943279422992,67.4306791547579,59.7538247736658));
#1088=CARTESIAN_POINT('Ctrl Pts',(-300.,22.4773059748155,60.));
#1089=CARTESIAN_POINT('Ctrl Pts',(-300.,0.,60.));
#1090=CARTESIAN_POINT('Ctrl Pts',(200.,0.,30.));
#1091=CARTESIAN_POINT('Ctrl Pts',(200.,15.0159253331323,30.));
#1092=CARTESIAN_POINT('Ctrl Pts',(196.631397219861,45.0501216697587,30.2459605534518));
#1093=CARTESIAN_POINT('Ctrl Pts',(183.366024628279,83.0816134983266,31.2267424008519));
#1094=CARTESIAN_POINT('Ctrl Pts',(160.868246256858,122.214592641538,32.9008670865091));
#1095=CARTESIAN_POINT('Ctrl Pts',(133.433201909906,151.897366122306,34.9533082827292));
#1096=CARTESIAN_POINT('Ctrl Pts',(92.11133644376,180.180853551927,38.0571876202108));
#1097=CARTESIAN_POINT('Ctrl Pts',(54.5638745767023,194.974139307965,40.885118660822));
#1098=CARTESIAN_POINT('Ctrl Pts',(5.11059372503393,202.451426255152,44.6143475903103));
#1099=CARTESIAN_POINT('Ctrl Pts',(-30.085929164081,199.817035458603,47.2694283587393));
#1100=CARTESIAN_POINT('Ctrl Pts',(-59.0057360155058,192.027518815403,49.4489685487087));
#1101=CARTESIAN_POINT('Ctrl Pts',(-87.2698293813214,182.108112419676,51.5780419998216));
#1102=CARTESIAN_POINT('Ctrl Pts',(-122.203758410137,161.855097720689,54.2048925531731));
#1103=CARTESIAN_POINT('Ctrl Pts',(-157.682919852169,126.22638362171,56.8613476744801));
#1104=CARTESIAN_POINT('Ctrl Pts',(-181.713228025744,87.8412636369902,58.651113381436));
#1105=CARTESIAN_POINT('Ctrl Pts',(-196.62889712741,45.0476182269065,59.7538285012476));
#1106=CARTESIAN_POINT('Ctrl Pts',(-200.,15.0159253331323,60.));
#1107=CARTESIAN_POINT('Ctrl Pts',(-200.,0.,60.));
#1108=CARTESIAN_POINT('Ctrl Pts',(200.,0.,20.));
#1109=CARTESIAN_POINT('Ctrl Pts',(200.,14.997271894453,20.));
#1110=CARTESIAN_POINT('Ctrl Pts',(196.631397219861,44.9938263758803,20.1639737023012));
#1111=CARTESIAN_POINT('Ctrl Pts',(183.366024628279,82.9770579749484,20.8178282672346));
#1112=CARTESIAN_POINT('Ctrl Pts',(160.868246256858,122.060017116125,21.9339113910061));
#1113=CARTESIAN_POINT('Ctrl Pts',(133.433201909906,151.704570819855,23.3022055218195));
#1114=CARTESIAN_POINT('Ctrl Pts',(92.11133644376,179.951498252421,25.3714584134739));
#1115=CARTESIAN_POINT('Ctrl Pts',(54.5638745767023,194.725593888157,27.2567457738814));
#1116=CARTESIAN_POINT('Ctrl Pts',(5.11059372503394,202.193173125634,29.7428983935402));
#1117=CARTESIAN_POINT('Ctrl Pts',(-30.085929164081,199.562204249779,31.5129522391595));
#1118=CARTESIAN_POINT('Ctrl Pts',(-59.0057360155058,191.782794605967,32.9659790324725));
#1119=CARTESIAN_POINT('Ctrl Pts',(-87.2698293813214,181.876249261903,34.3853613332144));
#1120=CARTESIAN_POINT('Ctrl Pts',(-122.203758410137,161.649461542502,36.1365950354487));
#1121=CARTESIAN_POINT('Ctrl Pts',(-157.682919852169,126.06664640033,37.9075651163201));
#1122=CARTESIAN_POINT('Ctrl Pts',(-181.713228025744,87.7306676036645,39.1007422542906));
#1123=CARTESIAN_POINT('Ctrl Pts',(-196.62889712741,44.991326430021,39.8358856674984));
#1124=CARTESIAN_POINT('Ctrl Pts',(-200.,14.997271894453,40.));
#1125=CARTESIAN_POINT('Ctrl Pts',(-200.,0.,40.));
#1126=CARTESIAN_POINT('Ctrl Pts',(200.,0.,10.));
#1127=CARTESIAN_POINT('Ctrl Pts',(200.,14.9786184557736,10.));
#1128=CARTESIAN_POINT('Ctrl Pts',(196.631397219861,44.9345313272073,10.1020408163265));
#1129=CARTESIAN_POINT('Ctrl Pts',(183.366024628279,82.8603258626041,10.4713313896987));
#1130=CARTESIAN_POINT('Ctrl Pts',(160.868246256858,121.880551877069,11.0689990281827));
#1131=CARTESIAN_POINT('Ctrl Pts',(133.433201909906,151.47472162361,11.7687074829932));
#1132=CARTESIAN_POINT('Ctrl Pts',(92.11133644376,179.672215968326,12.7891156462585));
#1133=CARTESIAN_POINT('Ctrl Pts',(54.5638745767023,194.419774816586,13.6961451247166));
#1134=CARTESIAN_POINT('Ctrl Pts',(5.11059372503394,201.873860361209,14.8785228377065));
#1135=CARTESIAN_POINT('Ctrl Pts',(-30.085929164081,199.247662722444,15.7175251052802));
#1136=CARTESIAN_POINT('Ctrl Pts',(-59.0057360155058,191.482249264514,16.412374473599));
#1137=CARTESIAN_POINT('Ctrl Pts',(-87.2698293813214,181.593431692915,17.0942662779398));
#1138=CARTESIAN_POINT('Ctrl Pts',(-122.203758410137,161.402517098305,17.9494655004859));
#1139=CARTESIAN_POINT('Ctrl Pts',(-157.682919852169,125.880410805278,18.8483965014577));
#1140=CARTESIAN_POINT('Ctrl Pts',(-181.713228025744,87.6067398958411,19.4825072886297));
#1141=CARTESIAN_POINT('Ctrl Pts',(-196.62889712741,44.9320383753336,19.8979591836735));
#1142=CARTESIAN_POINT('Ctrl Pts',(-200.,14.9786184557736,20.));
#1143=CARTESIAN_POINT('Ctrl Pts',(-200.,-1.54074395550979E-32,20.));
#1144=CARTESIAN_POINT('Ctrl Pts',(200.,0.,0.));
#1145=CARTESIAN_POINT('Ctrl Pts',(200.,14.9599650170943,0.));
#1146=CARTESIAN_POINT('Ctrl Pts',(196.631397219861,44.8812357881234,9.06304509898087E-17));
#1147=CARTESIAN_POINT('Ctrl Pts',(183.366024628279,82.767946928192,4.18626368857688E-16));
#1148=CARTESIAN_POINT('Ctrl Pts',(160.868246256858,121.750866065298,9.49461867512282E-16));
#1149=CARTESIAN_POINT('Ctrl Pts',(133.433201909906,151.318980214954,1.57092781715668E-15));
#1150=CARTESIAN_POINT('Ctrl Pts',(92.11133644376,179.49278765341,2.47723232705477E-15));
#1151=CARTESIAN_POINT('Ctrl Pts',(54.5638745767023,194.228503048541,3.28283633585307E-15));
#1152=CARTESIAN_POINT('Ctrl Pts',(5.11059372503395,201.676666866599,4.33299870446514E-15));
#1153=CARTESIAN_POINT('Ctrl Pts',(-30.085929164081,199.052541832132,5.07818241260357E-15));
#1154=CARTESIAN_POINT('Ctrl Pts',(-59.0057360155058,191.293346187095,5.69533262648655E-15));
#1155=CARTESIAN_POINT('Ctrl Pts',(-87.2698293813214,181.412522946358,6.30097421167242E-15));
#1156=CARTESIAN_POINT('Ctrl Pts',(-122.203758410137,161.23818918613,7.06054370568224E-15));
#1157=CARTESIAN_POINT('Ctrl Pts',(-157.682919852169,125.747171957568,7.85895482154484E-15));
#1158=CARTESIAN_POINT('Ctrl Pts',(-181.713228025744,87.509475537013,8.42215833841008E-15));
#1159=CARTESIAN_POINT('Ctrl Pts',(-196.62889712741,44.8787428362497,8.79115374601144E-15));
#1160=CARTESIAN_POINT('Ctrl Pts',(-200.,14.9599650170942,8.88178419700125E-15));
#1161=CARTESIAN_POINT('Ctrl Pts',(-200.,0.,8.88178419700125E-15));
#1162=UNCERTAINTY_MEASURE_WITH_UNIT(LENGTH_MEASURE(0.01),#1166,
'DISTANCE_ACCURACY_VALUE',
'Maximum model space distance between geometric entities at asserted c
onnectivities');
#1163=UNCERTAINTY_MEASURE_WITH_UNIT(LENGTH_MEASURE(1.E-6),#1166,
'DISTANCE_ACCURACY_VALUE',
'Maximum model space distance between geometric entities at asserted c
onnectivities');
#1164=(
GEOMETRIC_REPRESENTATION_CONTEXT(3)
GLOBAL_UNCERTAINTY_ASSIGNED_CONTEXT((#1162))
GLOBAL_UNIT_ASSIGNED_CONTEXT((#1166,#1169,#1167))
REPRESENTATION_CONTEXT('','3D')
);
#1165=(
GEOMETRIC_REPRESENTATION_CONTEXT(3)
GLOBAL_UNCERTAINTY_ASSIGNED_CONTEXT((#1163))
GLOBAL_UNIT_ASSIGNED_CONTEXT((#1166,#1169,#1167))
REPRESENTATION_CONTEXT('','3D')
);
#1166=(
LENGTH_UNIT()
NAMED_UNIT(*)
SI_UNIT(.MILLI.,.METRE.)
);
#1167=(
NAMED_UNIT(*)
SI_UNIT($,.STERADIAN.)
SOLID_ANGLE_UNIT()
);
#1168=DIMENSIONAL_EXPONENTS(0.,0.,0.,0.,0.,0.,0.);
#1169=(
CONVERSION_BASED_UNIT('degree',#1171)
NAMED_UNIT(#1168)
PLANE_ANGLE_UNIT()
);
#1170=(
NAMED_UNIT(*)
PLANE_ANGLE_UNIT()
SI_UNIT($,.RADIAN.)
);
#1171=PLANE_ANGLE_MEASURE_WITH_UNIT(PLANE_ANGLE_MEASURE(0.01745329252),
#1170);
#1172=SHAPE_DEFINITION_REPRESENTATION(#1173,#1174);
#1173=PRODUCT_DEFINITION_SHAPE('',$,#1176);
#1174=SHAPE_REPRESENTATION('',(#290),#1164);
#1175=PRODUCT_DEFINITION_CONTEXT('part definition',#1180,'design');
#1176=PRODUCT_DEFINITION('Part1','Part1',#1177,#1175);
#1177=PRODUCT_DEFINITION_FORMATION('',$,#1182);
#1178=PRODUCT_RELATED_PRODUCT_CATEGORY('Part1','Part1',(#1182));
#1179=APPLICATION_PROTOCOL_DEFINITION('international standard',
'automotive_design',2009,#1180);
#1180=APPLICATION_CONTEXT(
'Core Data for Automotive Mechanical Design Process');
#1181=PRODUCT_CONTEXT('part definition',#1180,'mechanical');
#1182=PRODUCT('Part1','Part1',$,(#1181));
#1183=PRESENTATION_STYLE_ASSIGNMENT((#1184));
#1184=SURFACE_STYLE_USAGE(.BOTH.,#1185);
#1185=SURFACE_SIDE_STYLE($,(#1186));
#1186=SURFACE_STYLE_FILL_AREA(#1187);
#1187=FILL_AREA_STYLE($,(#1188));
#1188=FILL_AREA_STYLE_COLOUR($,#1189);
#1189=COLOUR_RGB('',0.749019607843137,0.749019607843137,0.749019607843137);
ENDSEC;
END-ISO-10303-21;
