ISO-10303-21;
HEADER;
/* Generated by software containing ST-Developer
 * from STEP Tools, Inc. (www.steptools.com) 
 */

FILE_DESCRIPTION(
/* description */ (''),
/* implementation_level */ '2;1');

FILE_NAME(
/* name */ 
'/Users/joakimjohansson/Desktop/Toolpath - Change vector v1.step',
/* time_stamp */ '2019-09-19T11:09:19+02:00',
/* author */ (''),
/* organization */ (''),
/* preprocessor_version */ 'ST-DEVELOPER v18',
/* originating_system */ 'Autodesk Translation Framework v8.6.0.1094',
/* authorisation */ '');

FILE_SCHEMA (('AUTOMOTIVE_DESIGN { 1 0 10303 214 3 1 1 }'));
ENDSEC;

DATA;
#10=MECHANICAL_DESIGN_GEOMETRIC_PRESENTATION_REPRESENTATION('',(#13),#685);
#11=SHAPE_REPRESENTATION_RELATIONSHIP('SRR','None',#691,#12);
#12=ADVANCED_BREP_SHAPE_REPRESENTATION('',(#14),#684);
#13=STYLED_ITEM('',(#701),#14);
#14=MANIFOLD_SOLID_BREP('Body1',#377);
#15=PLANE('',#400);
#16=PLANE('',#401);
#17=PLANE('',#403);
#18=PLANE('',#405);
#19=PLANE('',#407);
#20=PLANE('',#409);
#21=PLANE('',#410);
#22=PLANE('',#414);
#23=PLANE('',#415);
#24=PLANE('',#416);
#25=PLANE('',#417);
#26=PLANE('',#418);
#27=FACE_OUTER_BOUND('',#45,.T.);
#28=FACE_OUTER_BOUND('',#46,.T.);
#29=FACE_OUTER_BOUND('',#47,.T.);
#30=FACE_OUTER_BOUND('',#48,.T.);
#31=FACE_OUTER_BOUND('',#49,.T.);
#32=FACE_OUTER_BOUND('',#50,.T.);
#33=FACE_OUTER_BOUND('',#51,.T.);
#34=FACE_OUTER_BOUND('',#52,.T.);
#35=FACE_OUTER_BOUND('',#53,.T.);
#36=FACE_OUTER_BOUND('',#54,.T.);
#37=FACE_OUTER_BOUND('',#55,.T.);
#38=FACE_OUTER_BOUND('',#56,.T.);
#39=FACE_OUTER_BOUND('',#57,.T.);
#40=FACE_OUTER_BOUND('',#58,.T.);
#41=FACE_OUTER_BOUND('',#59,.T.);
#42=FACE_OUTER_BOUND('',#60,.T.);
#43=FACE_OUTER_BOUND('',#61,.T.);
#44=FACE_OUTER_BOUND('',#62,.T.);
#45=EDGE_LOOP('',(#245,#246,#247,#248,#249,#250,#251,#252,#253,#254));
#46=EDGE_LOOP('',(#255,#256,#257,#258));
#47=EDGE_LOOP('',(#259,#260,#261,#262));
#48=EDGE_LOOP('',(#263,#264,#265,#266));
#49=EDGE_LOOP('',(#267,#268,#269,#270,#271,#272));
#50=EDGE_LOOP('',(#273,#274,#275,#276,#277,#278,#279,#280));
#51=EDGE_LOOP('',(#281,#282,#283,#284,#285,#286,#287,#288));
#52=EDGE_LOOP('',(#289,#290,#291,#292,#293,#294,#295,#296,#297,#298));
#53=EDGE_LOOP('',(#299,#300,#301,#302));
#54=EDGE_LOOP('',(#303,#304,#305,#306,#307,#308,#309,#310,#311,#312));
#55=EDGE_LOOP('',(#313,#314,#315,#316,#317,#318,#319,#320,#321,#322));
#56=EDGE_LOOP('',(#323,#324,#325,#326));
#57=EDGE_LOOP('',(#327,#328,#329,#330));
#58=EDGE_LOOP('',(#331,#332,#333,#334));
#59=EDGE_LOOP('',(#335,#336,#337,#338));
#60=EDGE_LOOP('',(#339,#340,#341,#342,#343,#344));
#61=EDGE_LOOP('',(#345,#346,#347,#348));
#62=EDGE_LOOP('',(#349,#350,#351,#352));
#63=LINE('',#544,#101);
#64=LINE('',#565,#102);
#65=LINE('',#569,#103);
#66=LINE('',#572,#104);
#67=LINE('',#578,#105);
#68=LINE('',#581,#106);
#69=LINE('',#599,#107);
#70=LINE('',#600,#108);
#71=LINE('',#603,#109);
#72=LINE('',#605,#110);
#73=LINE('',#606,#111);
#74=LINE('',#608,#112);
#75=LINE('',#610,#113);
#76=LINE('',#614,#114);
#77=LINE('',#616,#115);
#78=LINE('',#618,#116);
#79=LINE('',#622,#117);
#80=LINE('',#624,#118);
#81=LINE('',#625,#119);
#82=LINE('',#628,#120);
#83=LINE('',#630,#121);
#84=LINE('',#632,#122);
#85=LINE('',#636,#123);
#86=LINE('',#638,#124);
#87=LINE('',#639,#125);
#88=LINE('',#642,#126);
#89=LINE('',#644,#127);
#90=LINE('',#646,#128);
#91=LINE('',#651,#129);
#92=LINE('',#652,#130);
#93=LINE('',#653,#131);
#94=LINE('',#668,#132);
#95=LINE('',#669,#133);
#96=LINE('',#671,#134);
#97=LINE('',#673,#135);
#98=LINE('',#676,#136);
#99=LINE('',#678,#137);
#100=LINE('',#679,#138);
#101=VECTOR('',#427,1.);
#102=VECTOR('',#430,1.);
#103=VECTOR('',#433,1.);
#104=VECTOR('',#436,1.);
#105=VECTOR('',#441,1.);
#106=VECTOR('',#444,1.);
#107=VECTOR('',#447,1.);
#108=VECTOR('',#448,1.);
#109=VECTOR('',#451,1.);
#110=VECTOR('',#452,1.);
#111=VECTOR('',#453,1.);
#112=VECTOR('',#456,1.);
#113=VECTOR('',#457,1.);
#114=VECTOR('',#462,1.);
#115=VECTOR('',#463,1.);
#116=VECTOR('',#464,1.);
#117=VECTOR('',#467,1.);
#118=VECTOR('',#468,1.);
#119=VECTOR('',#469,1.);
#120=VECTOR('',#472,1.);
#121=VECTOR('',#473,1.);
#122=VECTOR('',#474,1.);
#123=VECTOR('',#477,1.);
#124=VECTOR('',#478,1.);
#125=VECTOR('',#479,1.);
#126=VECTOR('',#482,1.);
#127=VECTOR('',#485,1.);
#128=VECTOR('',#488,1.);
#129=VECTOR('',#493,1.);
#130=VECTOR('',#494,1.);
#131=VECTOR('',#495,1.);
#132=VECTOR('',#500,1.);
#133=VECTOR('',#501,1.);
#134=VECTOR('',#504,1.);
#135=VECTOR('',#507,1.);
#136=VECTOR('',#512,1.);
#137=VECTOR('',#515,1.);
#138=VECTOR('',#516,1.);
#139=B_SPLINE_CURVE_WITH_KNOTS('',3,(#527,#528,#529,#530,#531,#532,#533,
#534,#535,#536,#537,#538,#539,#540,#541,#542),.UNSPECIFIED.,.F.,.F.,(4,
2,2,2,2,2,2,4),(-0.985080658656109,-0.875209726939678,-0.66317940572685,
-0.558646906732086,-0.454114407737323,-0.340585805802992,-0.227057203868662,
0.),.UNSPECIFIED.);
#140=B_SPLINE_CURVE_WITH_KNOTS('',3,(#546,#547,#548,#549,#550,#551,#552,
#553,#554,#555,#556,#557,#558,#559,#560,#561),.UNSPECIFIED.,.F.,.F.,(4,
2,2,2,2,2,2,4),(0.,0.227057203868661,0.340585805802992,0.454114407737322,
0.558646906732086,0.663179405726849,0.875209726939678,0.985080658656109),
 .UNSPECIFIED.);
#141=B_SPLINE_CURVE_WITH_KNOTS('',3,(#585,#586,#587,#588,#589,#590,#591,
#592,#593,#594,#595,#596,#597,#598),.UNSPECIFIED.,.F.,.F.,(4,2,2,2,2,2,
4),(1.68662765977044,1.82022625064094,1.95382484151145,2.08875206952907,
2.22367929754669,2.36256825350145,2.45423568188177),.UNSPECIFIED.);
#142=B_SPLINE_CURVE_WITH_KNOTS('',3,(#658,#659,#660,#661,#662,#663,#664,
#665,#666,#667),.UNSPECIFIED.,.F.,.F.,(4,2,2,2,4),(-0.778630384123712,-0.577257938753411,
-0.375885493383109,-0.187942746691555,0.),.UNSPECIFIED.);
#143=CIRCLE('',#392,0.006);
#144=CIRCLE('',#393,0.006);
#145=CIRCLE('',#394,0.006);
#146=CIRCLE('',#395,0.006);
#147=CIRCLE('',#397,0.005);
#148=CIRCLE('',#398,0.005);
#149=CIRCLE('',#402,0.012);
#150=CIRCLE('',#404,0.012);
#151=CIRCLE('',#406,0.012);
#152=CIRCLE('',#408,0.005);
#153=CIRCLE('',#411,0.005);
#154=CIRCLE('',#413,0.012);
#155=VERTEX_POINT('',#523);
#156=VERTEX_POINT('',#524);
#157=VERTEX_POINT('',#526);
#158=VERTEX_POINT('',#543);
#159=VERTEX_POINT('',#545);
#160=VERTEX_POINT('',#562);
#161=VERTEX_POINT('',#564);
#162=VERTEX_POINT('',#566);
#163=VERTEX_POINT('',#568);
#164=VERTEX_POINT('',#570);
#165=VERTEX_POINT('',#574);
#166=VERTEX_POINT('',#575);
#167=VERTEX_POINT('',#577);
#168=VERTEX_POINT('',#579);
#169=VERTEX_POINT('',#583);
#170=VERTEX_POINT('',#584);
#171=VERTEX_POINT('',#602);
#172=VERTEX_POINT('',#604);
#173=VERTEX_POINT('',#609);
#174=VERTEX_POINT('',#613);
#175=VERTEX_POINT('',#615);
#176=VERTEX_POINT('',#617);
#177=VERTEX_POINT('',#619);
#178=VERTEX_POINT('',#621);
#179=VERTEX_POINT('',#623);
#180=VERTEX_POINT('',#627);
#181=VERTEX_POINT('',#629);
#182=VERTEX_POINT('',#631);
#183=VERTEX_POINT('',#633);
#184=VERTEX_POINT('',#635);
#185=VERTEX_POINT('',#637);
#186=VERTEX_POINT('',#641);
#187=VERTEX_POINT('',#648);
#188=VERTEX_POINT('',#650);
#189=VERTEX_POINT('',#655);
#190=VERTEX_POINT('',#657);
#191=EDGE_CURVE('',#155,#156,#143,.T.);
#192=EDGE_CURVE('',#155,#157,#139,.T.);
#193=EDGE_CURVE('',#157,#158,#63,.T.);
#194=EDGE_CURVE('',#158,#159,#140,.T.);
#195=EDGE_CURVE('',#159,#160,#144,.T.);
#196=EDGE_CURVE('',#160,#161,#64,.T.);
#197=EDGE_CURVE('',#162,#161,#145,.T.);
#198=EDGE_CURVE('',#163,#162,#65,.T.);
#199=EDGE_CURVE('',#163,#164,#146,.T.);
#200=EDGE_CURVE('',#164,#156,#66,.T.);
#201=EDGE_CURVE('',#165,#166,#147,.F.);
#202=EDGE_CURVE('',#167,#165,#67,.F.);
#203=EDGE_CURVE('',#168,#167,#148,.F.);
#204=EDGE_CURVE('',#166,#168,#68,.T.);
#205=EDGE_CURVE('',#169,#170,#141,.T.);
#206=EDGE_CURVE('',#157,#169,#69,.F.);
#207=EDGE_CURVE('',#170,#155,#70,.T.);
#208=EDGE_CURVE('',#171,#166,#71,.T.);
#209=EDGE_CURVE('',#168,#172,#72,.T.);
#210=EDGE_CURVE('',#172,#171,#73,.F.);
#211=EDGE_CURVE('',#156,#167,#74,.T.);
#212=EDGE_CURVE('',#165,#173,#75,.T.);
#213=EDGE_CURVE('',#170,#173,#149,.T.);
#214=EDGE_CURVE('',#174,#163,#76,.T.);
#215=EDGE_CURVE('',#174,#175,#77,.T.);
#216=EDGE_CURVE('',#175,#176,#78,.T.);
#217=EDGE_CURVE('',#176,#177,#150,.T.);
#218=EDGE_CURVE('',#178,#177,#79,.T.);
#219=EDGE_CURVE('',#179,#178,#80,.T.);
#220=EDGE_CURVE('',#164,#179,#81,.T.);
#221=EDGE_CURVE('',#161,#180,#82,.T.);
#222=EDGE_CURVE('',#180,#181,#83,.T.);
#223=EDGE_CURVE('',#181,#182,#84,.T.);
#224=EDGE_CURVE('',#183,#182,#151,.T.);
#225=EDGE_CURVE('',#184,#183,#85,.T.);
#226=EDGE_CURVE('',#185,#184,#86,.T.);
#227=EDGE_CURVE('',#185,#162,#87,.T.);
#228=EDGE_CURVE('',#160,#186,#88,.T.);
#229=EDGE_CURVE('',#186,#172,#152,.F.);
#230=EDGE_CURVE('',#179,#180,#89,.T.);
#231=EDGE_CURVE('',#178,#181,#90,.T.);
#232=EDGE_CURVE('',#171,#187,#153,.F.);
#233=EDGE_CURVE('',#187,#188,#91,.T.);
#234=EDGE_CURVE('',#188,#182,#92,.T.);
#235=EDGE_CURVE('',#177,#173,#93,.T.);
#236=EDGE_CURVE('',#189,#188,#154,.T.);
#237=EDGE_CURVE('',#189,#190,#142,.T.);
#238=EDGE_CURVE('',#169,#190,#94,.T.);
#239=EDGE_CURVE('',#176,#183,#95,.T.);
#240=EDGE_CURVE('',#175,#184,#96,.T.);
#241=EDGE_CURVE('',#174,#185,#97,.T.);
#242=EDGE_CURVE('',#190,#158,#98,.T.);
#243=EDGE_CURVE('',#187,#186,#99,.T.);
#244=EDGE_CURVE('',#159,#189,#100,.F.);
#245=ORIENTED_EDGE('',*,*,#191,.F.);
#246=ORIENTED_EDGE('',*,*,#192,.T.);
#247=ORIENTED_EDGE('',*,*,#193,.T.);
#248=ORIENTED_EDGE('',*,*,#194,.T.);
#249=ORIENTED_EDGE('',*,*,#195,.T.);
#250=ORIENTED_EDGE('',*,*,#196,.T.);
#251=ORIENTED_EDGE('',*,*,#197,.F.);
#252=ORIENTED_EDGE('',*,*,#198,.F.);
#253=ORIENTED_EDGE('',*,*,#199,.T.);
#254=ORIENTED_EDGE('',*,*,#200,.T.);
#255=ORIENTED_EDGE('',*,*,#201,.F.);
#256=ORIENTED_EDGE('',*,*,#202,.F.);
#257=ORIENTED_EDGE('',*,*,#203,.F.);
#258=ORIENTED_EDGE('',*,*,#204,.F.);
#259=ORIENTED_EDGE('',*,*,#205,.F.);
#260=ORIENTED_EDGE('',*,*,#206,.F.);
#261=ORIENTED_EDGE('',*,*,#192,.F.);
#262=ORIENTED_EDGE('',*,*,#207,.F.);
#263=ORIENTED_EDGE('',*,*,#208,.T.);
#264=ORIENTED_EDGE('',*,*,#204,.T.);
#265=ORIENTED_EDGE('',*,*,#209,.T.);
#266=ORIENTED_EDGE('',*,*,#210,.T.);
#267=ORIENTED_EDGE('',*,*,#211,.T.);
#268=ORIENTED_EDGE('',*,*,#202,.T.);
#269=ORIENTED_EDGE('',*,*,#212,.T.);
#270=ORIENTED_EDGE('',*,*,#213,.F.);
#271=ORIENTED_EDGE('',*,*,#207,.T.);
#272=ORIENTED_EDGE('',*,*,#191,.T.);
#273=ORIENTED_EDGE('',*,*,#199,.F.);
#274=ORIENTED_EDGE('',*,*,#214,.F.);
#275=ORIENTED_EDGE('',*,*,#215,.T.);
#276=ORIENTED_EDGE('',*,*,#216,.T.);
#277=ORIENTED_EDGE('',*,*,#217,.T.);
#278=ORIENTED_EDGE('',*,*,#218,.F.);
#279=ORIENTED_EDGE('',*,*,#219,.F.);
#280=ORIENTED_EDGE('',*,*,#220,.F.);
#281=ORIENTED_EDGE('',*,*,#197,.T.);
#282=ORIENTED_EDGE('',*,*,#221,.T.);
#283=ORIENTED_EDGE('',*,*,#222,.T.);
#284=ORIENTED_EDGE('',*,*,#223,.T.);
#285=ORIENTED_EDGE('',*,*,#224,.F.);
#286=ORIENTED_EDGE('',*,*,#225,.F.);
#287=ORIENTED_EDGE('',*,*,#226,.F.);
#288=ORIENTED_EDGE('',*,*,#227,.T.);
#289=ORIENTED_EDGE('',*,*,#196,.F.);
#290=ORIENTED_EDGE('',*,*,#228,.T.);
#291=ORIENTED_EDGE('',*,*,#229,.T.);
#292=ORIENTED_EDGE('',*,*,#209,.F.);
#293=ORIENTED_EDGE('',*,*,#203,.T.);
#294=ORIENTED_EDGE('',*,*,#211,.F.);
#295=ORIENTED_EDGE('',*,*,#200,.F.);
#296=ORIENTED_EDGE('',*,*,#220,.T.);
#297=ORIENTED_EDGE('',*,*,#230,.T.);
#298=ORIENTED_EDGE('',*,*,#221,.F.);
#299=ORIENTED_EDGE('',*,*,#222,.F.);
#300=ORIENTED_EDGE('',*,*,#230,.F.);
#301=ORIENTED_EDGE('',*,*,#219,.T.);
#302=ORIENTED_EDGE('',*,*,#231,.T.);
#303=ORIENTED_EDGE('',*,*,#208,.F.);
#304=ORIENTED_EDGE('',*,*,#232,.T.);
#305=ORIENTED_EDGE('',*,*,#233,.T.);
#306=ORIENTED_EDGE('',*,*,#234,.T.);
#307=ORIENTED_EDGE('',*,*,#223,.F.);
#308=ORIENTED_EDGE('',*,*,#231,.F.);
#309=ORIENTED_EDGE('',*,*,#218,.T.);
#310=ORIENTED_EDGE('',*,*,#235,.T.);
#311=ORIENTED_EDGE('',*,*,#212,.F.);
#312=ORIENTED_EDGE('',*,*,#201,.T.);
#313=ORIENTED_EDGE('',*,*,#236,.F.);
#314=ORIENTED_EDGE('',*,*,#237,.T.);
#315=ORIENTED_EDGE('',*,*,#238,.F.);
#316=ORIENTED_EDGE('',*,*,#205,.T.);
#317=ORIENTED_EDGE('',*,*,#213,.T.);
#318=ORIENTED_EDGE('',*,*,#235,.F.);
#319=ORIENTED_EDGE('',*,*,#217,.F.);
#320=ORIENTED_EDGE('',*,*,#239,.T.);
#321=ORIENTED_EDGE('',*,*,#224,.T.);
#322=ORIENTED_EDGE('',*,*,#234,.F.);
#323=ORIENTED_EDGE('',*,*,#225,.T.);
#324=ORIENTED_EDGE('',*,*,#239,.F.);
#325=ORIENTED_EDGE('',*,*,#216,.F.);
#326=ORIENTED_EDGE('',*,*,#240,.T.);
#327=ORIENTED_EDGE('',*,*,#226,.T.);
#328=ORIENTED_EDGE('',*,*,#240,.F.);
#329=ORIENTED_EDGE('',*,*,#215,.F.);
#330=ORIENTED_EDGE('',*,*,#241,.T.);
#331=ORIENTED_EDGE('',*,*,#227,.F.);
#332=ORIENTED_EDGE('',*,*,#241,.F.);
#333=ORIENTED_EDGE('',*,*,#214,.T.);
#334=ORIENTED_EDGE('',*,*,#198,.T.);
#335=ORIENTED_EDGE('',*,*,#193,.F.);
#336=ORIENTED_EDGE('',*,*,#206,.T.);
#337=ORIENTED_EDGE('',*,*,#238,.T.);
#338=ORIENTED_EDGE('',*,*,#242,.T.);
#339=ORIENTED_EDGE('',*,*,#233,.F.);
#340=ORIENTED_EDGE('',*,*,#243,.T.);
#341=ORIENTED_EDGE('',*,*,#228,.F.);
#342=ORIENTED_EDGE('',*,*,#195,.F.);
#343=ORIENTED_EDGE('',*,*,#244,.T.);
#344=ORIENTED_EDGE('',*,*,#236,.T.);
#345=ORIENTED_EDGE('',*,*,#232,.F.);
#346=ORIENTED_EDGE('',*,*,#210,.F.);
#347=ORIENTED_EDGE('',*,*,#229,.F.);
#348=ORIENTED_EDGE('',*,*,#243,.F.);
#349=ORIENTED_EDGE('',*,*,#237,.F.);
#350=ORIENTED_EDGE('',*,*,#244,.F.);
#351=ORIENTED_EDGE('',*,*,#194,.F.);
#352=ORIENTED_EDGE('',*,*,#242,.F.);
#353=CYLINDRICAL_SURFACE('',#391,0.006);
#354=CYLINDRICAL_SURFACE('',#396,0.005);
#355=CYLINDRICAL_SURFACE('',#399,0.005);
#356=CYLINDRICAL_SURFACE('',#412,0.012);
#357=CYLINDRICAL_SURFACE('',#419,0.005);
#358=CYLINDRICAL_SURFACE('',#420,0.005);
#359=ADVANCED_FACE('',(#27),#353,.F.);
#360=ADVANCED_FACE('',(#28),#354,.F.);
#361=ADVANCED_FACE('',(#29),#355,.F.);
#362=ADVANCED_FACE('',(#30),#15,.F.);
#363=ADVANCED_FACE('',(#31),#16,.F.);
#364=ADVANCED_FACE('',(#32),#17,.T.);
#365=ADVANCED_FACE('',(#33),#18,.F.);
#366=ADVANCED_FACE('',(#34),#19,.T.);
#367=ADVANCED_FACE('',(#35),#20,.T.);
#368=ADVANCED_FACE('',(#36),#21,.T.);
#369=ADVANCED_FACE('',(#37),#356,.T.);
#370=ADVANCED_FACE('',(#38),#22,.F.);
#371=ADVANCED_FACE('',(#39),#23,.F.);
#372=ADVANCED_FACE('',(#40),#24,.T.);
#373=ADVANCED_FACE('',(#41),#25,.T.);
#374=ADVANCED_FACE('',(#42),#26,.T.);
#375=ADVANCED_FACE('',(#43),#357,.F.);
#376=ADVANCED_FACE('',(#44),#358,.F.);
#377=CLOSED_SHELL('',(#359,#360,#361,#362,#363,#364,#365,#366,#367,#368,
#369,#370,#371,#372,#373,#374,#375,#376));
#378=DERIVED_UNIT_ELEMENT(#380,1.);
#379=DERIVED_UNIT_ELEMENT(#686,3.);
#380=(
MASS_UNIT()
NAMED_UNIT(*)
SI_UNIT(.KILO.,.GRAM.)
);
#381=DERIVED_UNIT((#378,#379));
#382=MEASURE_REPRESENTATION_ITEM('density measure',
POSITIVE_RATIO_MEASURE(7850.),#381);
#383=PROPERTY_DEFINITION_REPRESENTATION(#388,#385);
#384=PROPERTY_DEFINITION_REPRESENTATION(#389,#386);
#385=REPRESENTATION('material name',(#387),#684);
#386=REPRESENTATION('density',(#382),#684);
#387=DESCRIPTIVE_REPRESENTATION_ITEM('Steel','Steel');
#388=PROPERTY_DEFINITION('material property','material name',#693);
#389=PROPERTY_DEFINITION('material property','density of part',#693);
#390=AXIS2_PLACEMENT_3D('placement',#521,#421,#422);
#391=AXIS2_PLACEMENT_3D('',#522,#423,#424);
#392=AXIS2_PLACEMENT_3D('',#525,#425,#426);
#393=AXIS2_PLACEMENT_3D('',#563,#428,#429);
#394=AXIS2_PLACEMENT_3D('',#567,#431,#432);
#395=AXIS2_PLACEMENT_3D('',#571,#434,#435);
#396=AXIS2_PLACEMENT_3D('',#573,#437,#438);
#397=AXIS2_PLACEMENT_3D('',#576,#439,#440);
#398=AXIS2_PLACEMENT_3D('',#580,#442,#443);
#399=AXIS2_PLACEMENT_3D('',#582,#445,#446);
#400=AXIS2_PLACEMENT_3D('',#601,#449,#450);
#401=AXIS2_PLACEMENT_3D('',#607,#454,#455);
#402=AXIS2_PLACEMENT_3D('',#611,#458,#459);
#403=AXIS2_PLACEMENT_3D('',#612,#460,#461);
#404=AXIS2_PLACEMENT_3D('',#620,#465,#466);
#405=AXIS2_PLACEMENT_3D('',#626,#470,#471);
#406=AXIS2_PLACEMENT_3D('',#634,#475,#476);
#407=AXIS2_PLACEMENT_3D('',#640,#480,#481);
#408=AXIS2_PLACEMENT_3D('',#643,#483,#484);
#409=AXIS2_PLACEMENT_3D('',#645,#486,#487);
#410=AXIS2_PLACEMENT_3D('',#647,#489,#490);
#411=AXIS2_PLACEMENT_3D('',#649,#491,#492);
#412=AXIS2_PLACEMENT_3D('',#654,#496,#497);
#413=AXIS2_PLACEMENT_3D('',#656,#498,#499);
#414=AXIS2_PLACEMENT_3D('',#670,#502,#503);
#415=AXIS2_PLACEMENT_3D('',#672,#505,#506);
#416=AXIS2_PLACEMENT_3D('',#674,#508,#509);
#417=AXIS2_PLACEMENT_3D('',#675,#510,#511);
#418=AXIS2_PLACEMENT_3D('',#677,#513,#514);
#419=AXIS2_PLACEMENT_3D('',#680,#517,#518);
#420=AXIS2_PLACEMENT_3D('',#681,#519,#520);
#421=DIRECTION('axis',(0.,0.,1.));
#422=DIRECTION('refdir',(1.,0.,0.));
#423=DIRECTION('center_axis',(0.,-1.,0.));
#424=DIRECTION('ref_axis',(0.,0.,1.));
#425=DIRECTION('center_axis',(0.,-1.,0.));
#426=DIRECTION('ref_axis',(0.,0.,-1.));
#427=DIRECTION('',(0.,1.,0.));
#428=DIRECTION('center_axis',(0.,-1.,0.));
#429=DIRECTION('ref_axis',(0.,0.,-1.));
#430=DIRECTION('',(0.,1.,0.));
#431=DIRECTION('center_axis',(0.,-1.,0.));
#432=DIRECTION('ref_axis',(0.,0.,-1.));
#433=DIRECTION('',(0.,1.,0.));
#434=DIRECTION('center_axis',(0.,-1.,0.));
#435=DIRECTION('ref_axis',(0.,0.,-1.));
#436=DIRECTION('',(0.,1.,0.));
#437=DIRECTION('center_axis',(0.,0.,1.));
#438=DIRECTION('ref_axis',(-1.,0.,0.));
#439=DIRECTION('center_axis',(0.,0.,-1.));
#440=DIRECTION('ref_axis',(-1.,0.,0.));
#441=DIRECTION('',(0.,0.,1.));
#442=DIRECTION('center_axis',(0.,0.,1.));
#443=DIRECTION('ref_axis',(1.,0.,0.));
#444=DIRECTION('',(0.,0.,1.));
#445=DIRECTION('center_axis',(-1.,0.,0.));
#446=DIRECTION('ref_axis',(0.,0.,-1.));
#447=DIRECTION('',(1.,0.,0.));
#448=DIRECTION('',(1.,0.,0.));
#449=DIRECTION('center_axis',(1.,0.,0.));
#450=DIRECTION('ref_axis',(0.,0.,-1.));
#451=DIRECTION('',(0.,-1.,0.));
#452=DIRECTION('',(0.,1.,0.));
#453=DIRECTION('',(0.,0.,1.));
#454=DIRECTION('center_axis',(0.,-1.,0.));
#455=DIRECTION('ref_axis',(1.,0.,0.));
#456=DIRECTION('',(1.,0.,0.));
#457=DIRECTION('',(-1.,0.,0.));
#458=DIRECTION('center_axis',(0.,-1.,0.));
#459=DIRECTION('ref_axis',(0.,0.,-1.));
#460=DIRECTION('center_axis',(0.,-1.,0.));
#461=DIRECTION('ref_axis',(1.,0.,0.));
#462=DIRECTION('',(0.,0.,-1.));
#463=DIRECTION('',(-1.,0.,0.));
#464=DIRECTION('',(1.18276600634782E-16,0.,-1.));
#465=DIRECTION('center_axis',(0.,-1.,0.));
#466=DIRECTION('ref_axis',(0.,0.,-1.));
#467=DIRECTION('',(-1.,0.,0.));
#468=DIRECTION('',(0.,0.,-1.));
#469=DIRECTION('',(1.,0.,0.));
#470=DIRECTION('center_axis',(0.,-1.,0.));
#471=DIRECTION('ref_axis',(1.,0.,0.));
#472=DIRECTION('',(1.,0.,0.));
#473=DIRECTION('',(0.,0.,-1.));
#474=DIRECTION('',(-1.,0.,0.));
#475=DIRECTION('center_axis',(0.,-1.,0.));
#476=DIRECTION('ref_axis',(0.,0.,-1.));
#477=DIRECTION('',(1.18276600634782E-16,0.,-1.));
#478=DIRECTION('',(-1.,0.,0.));
#479=DIRECTION('',(0.,0.,-1.));
#480=DIRECTION('center_axis',(0.,0.,1.));
#481=DIRECTION('ref_axis',(1.,0.,0.));
#482=DIRECTION('',(1.,0.,0.));
#483=DIRECTION('center_axis',(0.,0.,1.));
#484=DIRECTION('ref_axis',(1.,0.,0.));
#485=DIRECTION('',(0.,1.,0.));
#486=DIRECTION('center_axis',(1.,0.,0.));
#487=DIRECTION('ref_axis',(0.,0.,-1.));
#488=DIRECTION('',(0.,1.,0.));
#489=DIRECTION('center_axis',(0.,0.,-1.));
#490=DIRECTION('ref_axis',(-1.,0.,0.));
#491=DIRECTION('center_axis',(0.,0.,-1.));
#492=DIRECTION('ref_axis',(-1.,0.,0.));
#493=DIRECTION('',(-1.,0.,0.));
#494=DIRECTION('',(0.,1.,0.));
#495=DIRECTION('',(0.,1.,0.));
#496=DIRECTION('center_axis',(0.,-1.,0.));
#497=DIRECTION('ref_axis',(0.,0.,1.));
#498=DIRECTION('center_axis',(0.,-1.,0.));
#499=DIRECTION('ref_axis',(0.,0.,-1.));
#500=DIRECTION('',(0.,1.,0.));
#501=DIRECTION('',(0.,1.,0.));
#502=DIRECTION('center_axis',(1.,0.,1.18276600634782E-16));
#503=DIRECTION('ref_axis',(1.18276600634782E-16,0.,-1.));
#504=DIRECTION('',(0.,1.,0.));
#505=DIRECTION('center_axis',(0.,0.,-1.));
#506=DIRECTION('ref_axis',(-1.,0.,0.));
#507=DIRECTION('',(0.,1.,0.));
#508=DIRECTION('center_axis',(1.,0.,0.));
#509=DIRECTION('ref_axis',(0.,0.,-1.));
#510=DIRECTION('center_axis',(0.,0.,-1.));
#511=DIRECTION('ref_axis',(-1.,0.,0.));
#512=DIRECTION('',(1.,0.,0.));
#513=DIRECTION('center_axis',(0.,-1.,0.));
#514=DIRECTION('ref_axis',(1.,0.,0.));
#515=DIRECTION('',(0.,0.,1.));
#516=DIRECTION('',(1.,0.,0.));
#517=DIRECTION('center_axis',(0.,0.,-1.));
#518=DIRECTION('ref_axis',(1.,0.,0.));
#519=DIRECTION('center_axis',(1.,0.,0.));
#520=DIRECTION('ref_axis',(0.,0.,1.));
#521=CARTESIAN_POINT('',(0.,0.,0.));
#522=CARTESIAN_POINT('Origin',(0.006,-0.06,0.006));
#523=CARTESIAN_POINT('',(0.00495561006807781,-0.05,9.15949977934359E-5));
#524=CARTESIAN_POINT('',(0.006,-0.05,0.));
#525=CARTESIAN_POINT('Origin',(0.006,-0.05,0.006));
#526=CARTESIAN_POINT('',(6.91652904531168E-5,-0.045,0.00509159499779344));
#527=CARTESIAN_POINT('Ctrl Pts',(0.00495561006807781,-0.05,9.1594997793435E-5));
#528=CARTESIAN_POINT('Ctrl Pts',(0.00457743557566408,-0.05,0.000158442418076774));
#529=CARTESIAN_POINT('Ctrl Pts',(0.0041999600938984,-0.0499990269308078,
0.000263188034605553));
#530=CARTESIAN_POINT('Ctrl Pts',(0.00313745981878075,-0.0499733794240491,
0.00067376418107497));
#531=CARTESIAN_POINT('Ctrl Pts',(0.00249405217678392,-0.04992489112949,
0.00108187513207141));
#532=CARTESIAN_POINT('Ctrl Pts',(0.0017264761453366,-0.0497142856373683,
0.00177465160536168));
#533=CARTESIAN_POINT('Ctrl Pts',(0.0014753114446143,-0.0496135373627644,
0.00204390237202106));
#534=CARTESIAN_POINT('Ctrl Pts',(0.00104438631643806,-0.04933683342221,
0.00259920497834708));
#535=CARTESIAN_POINT('Ctrl Pts',(0.000864231064548047,-0.0491596809128728,
0.00288435296421513));
#536=CARTESIAN_POINT('Ctrl Pts',(0.000576920367016986,-0.0487528585882397,
0.00341377590029427));
#537=CARTESIAN_POINT('Ctrl Pts',(0.000459478743660693,-0.0484993717649838,
0.00368281876213746));
#538=CARTESIAN_POINT('Ctrl Pts',(0.000280853862690041,-0.0479205349818811,
0.00416749568539093));
#539=CARTESIAN_POINT('Ctrl Pts',(0.000219166840330739,-0.0475952691303464,
0.00438304439723074));
#540=CARTESIAN_POINT('Ctrl Pts',(8.90638504873058E-5,-0.046550537383968,
0.00490861780889427));
#541=CARTESIAN_POINT('Ctrl Pts',(6.91652904531137E-5,-0.0457568573462289,
0.00509159499779344));
#542=CARTESIAN_POINT('Ctrl Pts',(6.91652904531137E-5,-0.045,0.00509159499779344));
#543=CARTESIAN_POINT('',(6.91652904531168E-5,-0.015,0.00509159499779344));
#544=CARTESIAN_POINT('',(6.91652904531168E-5,-0.06,0.00509159499779344));
#545=CARTESIAN_POINT('',(0.00495561006807781,-0.01,9.15949977934359E-5));
#546=CARTESIAN_POINT('Ctrl Pts',(6.91652904531137E-5,-0.015,0.00509159499779344));
#547=CARTESIAN_POINT('Ctrl Pts',(6.9165290453114E-5,-0.0142431426537711,
0.00509159499779344));
#548=CARTESIAN_POINT('Ctrl Pts',(8.90638504873054E-5,-0.013449462616032,
0.00490861780889427));
#549=CARTESIAN_POINT('Ctrl Pts',(0.000219166840330737,-0.0124047308696536,
0.00438304439723074));
#550=CARTESIAN_POINT('Ctrl Pts',(0.000280853862690042,-0.0120794650181189,
0.00416749568539093));
#551=CARTESIAN_POINT('Ctrl Pts',(0.000459478743660693,-0.0115006282350162,
0.00368281876213746));
#552=CARTESIAN_POINT('Ctrl Pts',(0.000576920367016985,-0.0112471414117603,
0.00341377590029427));
#553=CARTESIAN_POINT('Ctrl Pts',(0.000864231064548045,-0.0108403190871273,
0.00288435296421513));
#554=CARTESIAN_POINT('Ctrl Pts',(0.00104438631643806,-0.01066316657779,
0.00259920497834708));
#555=CARTESIAN_POINT('Ctrl Pts',(0.0014753114446143,-0.0103864626372356,
0.00204390237202106));
#556=CARTESIAN_POINT('Ctrl Pts',(0.0017264761453366,-0.0102857143626317,
0.00177465160536168));
#557=CARTESIAN_POINT('Ctrl Pts',(0.00249405217678392,-0.01007510887051,
0.00108187513207141));
#558=CARTESIAN_POINT('Ctrl Pts',(0.00313745981878075,-0.0100266205759509,
0.000673764181074971));
#559=CARTESIAN_POINT('Ctrl Pts',(0.0041999600938984,-0.0100009730691922,
0.000263188034605553));
#560=CARTESIAN_POINT('Ctrl Pts',(0.00457743557566408,-0.01,0.000158442418076774));
#561=CARTESIAN_POINT('Ctrl Pts',(0.00495561006807781,-0.01,9.15949977934348E-5));
#562=CARTESIAN_POINT('',(0.006,-0.01,0.));
#563=CARTESIAN_POINT('Origin',(0.006,-0.01,0.006));
#564=CARTESIAN_POINT('',(0.006,0.,0.));
#565=CARTESIAN_POINT('',(0.006,-0.06,0.));
#566=CARTESIAN_POINT('',(0.,0.,0.006));
#567=CARTESIAN_POINT('Origin',(0.006,0.,0.006));
#568=CARTESIAN_POINT('',(0.,-0.06,0.006));
#569=CARTESIAN_POINT('',(0.,-0.06,0.006));
#570=CARTESIAN_POINT('',(0.006,-0.06,0.));
#571=CARTESIAN_POINT('Origin',(0.006,-0.06,0.006));
#572=CARTESIAN_POINT('',(0.006,-0.06,0.));
#573=CARTESIAN_POINT('Origin',(0.0394665960967541,-0.045,-0.00543103530071676));
#574=CARTESIAN_POINT('',(0.0394665960967541,-0.05,-0.006));
#575=CARTESIAN_POINT('',(0.0444665960967541,-0.045,-0.006));
#576=CARTESIAN_POINT('Origin',(0.0394665960967541,-0.045,-0.006));
#577=CARTESIAN_POINT('',(0.0394665960967541,-0.05,0.));
#578=CARTESIAN_POINT('',(0.0394665960967541,-0.05,-0.006));
#579=CARTESIAN_POINT('',(0.0444665960967541,-0.045,0.));
#580=CARTESIAN_POINT('Origin',(0.0394665960967541,-0.045,0.));
#581=CARTESIAN_POINT('',(0.0444665960967541,-0.045,0.));
#582=CARTESIAN_POINT('Origin',(0.0153879313729703,-0.045,9.15949977934359E-5));
#583=CARTESIAN_POINT('',(-0.00596556728082567,-0.045,0.00509159499779344));
#584=CARTESIAN_POINT('',(-0.00444465175723443,-0.05,9.15949977934359E-5));
#585=CARTESIAN_POINT('Ctrl Pts',(-0.00596556728082568,-0.045,0.00509159499779344));
#586=CARTESIAN_POINT('Ctrl Pts',(-0.00596556728082568,-0.045445328636235,
0.00509159499779344));
#587=CARTESIAN_POINT('Ctrl Pts',(-0.00596134059330758,-0.045927780302574,
0.00502822983524642));
#588=CARTESIAN_POINT('Ctrl Pts',(-0.00593661917852527,-0.0468514389273724,
0.00476099682859734));
#589=CARTESIAN_POINT('Ctrl Pts',(-0.00591534392664887,-0.0472926268832454,
0.00455713608009105));
#590=CARTESIAN_POINT('Ctrl Pts',(-0.00584800594615729,-0.0480474687100968,
0.00408083945725512));
#591=CARTESIAN_POINT('Ctrl Pts',(-0.00579626383106451,-0.0484225879337504,
0.00376784570014531));
#592=CARTESIAN_POINT('Ctrl Pts',(-0.00563803617436647,-0.0490576706825525,
0.00305204008726653));
#593=CARTESIAN_POINT('Ctrl Pts',(-0.00553005681468572,-0.0493177023159957,
0.00264961969962267));
#594=CARTESIAN_POINT('Ctrl Pts',(-0.00527145782169901,-0.0496974882622315,
0.00186098282900126));
#595=CARTESIAN_POINT('Ctrl Pts',(-0.00509836807617608,-0.0498445682753927,
0.00140975197400063));
#596=CARTESIAN_POINT('Ctrl Pts',(-0.0047539582174631,-0.0499760594384952,
0.00066532694501514));
#597=CARTESIAN_POINT('Ctrl Pts',(-0.00460238934513067,-0.05,0.000370437455950422));
#598=CARTESIAN_POINT('Ctrl Pts',(-0.00444465175723444,-0.05,9.15949977934334E-5));
#599=CARTESIAN_POINT('',(0.0153879313729703,-0.045,0.00509159499779344));
#600=CARTESIAN_POINT('',(0.0153879313729703,-0.05,9.15949977934359E-5));
#601=CARTESIAN_POINT('Origin',(0.0444665960967541,-0.01,-0.00543103530071676));
#602=CARTESIAN_POINT('',(0.0444665960967541,-0.015,-0.006));
#603=CARTESIAN_POINT('',(0.0444665960967541,-0.06,-0.006));
#604=CARTESIAN_POINT('',(0.0444665960967541,-0.015,0.));
#605=CARTESIAN_POINT('',(0.0444665960967541,-0.06,0.));
#606=CARTESIAN_POINT('',(0.0444665960967541,-0.015,-0.00543103530071676));
#607=CARTESIAN_POINT('Origin',(0.0153879313729703,-0.05,-0.00543103530071676));
#608=CARTESIAN_POINT('',(0.033,-0.05,0.));
#609=CARTESIAN_POINT('',(0.006,-0.05,-0.006));
#610=CARTESIAN_POINT('',(0.033,-0.05,-0.006));
#611=CARTESIAN_POINT('Origin',(0.006,-0.05,0.006));
#612=CARTESIAN_POINT('Origin',(0.027,-0.06,0.022));
#613=CARTESIAN_POINT('',(0.,-0.06,0.05));
#614=CARTESIAN_POINT('',(0.,-0.06,0.028));
#615=CARTESIAN_POINT('',(-0.006,-0.06,0.05));
#616=CARTESIAN_POINT('',(-0.003,-0.06,0.05));
#617=CARTESIAN_POINT('',(-0.006,-0.06,0.006));
#618=CARTESIAN_POINT('',(-0.006,-0.06,0.028));
#619=CARTESIAN_POINT('',(0.006,-0.06,-0.006));
#620=CARTESIAN_POINT('Origin',(0.006,-0.06,0.006));
#621=CARTESIAN_POINT('',(0.06,-0.06,-0.006));
#622=CARTESIAN_POINT('',(0.033,-0.06,-0.006));
#623=CARTESIAN_POINT('',(0.06,-0.06,0.));
#624=CARTESIAN_POINT('',(0.06,-0.06,-0.003));
#625=CARTESIAN_POINT('',(0.033,-0.06,0.));
#626=CARTESIAN_POINT('Origin',(0.027,0.,0.022));
#627=CARTESIAN_POINT('',(0.06,0.,0.));
#628=CARTESIAN_POINT('',(0.033,0.,0.));
#629=CARTESIAN_POINT('',(0.06,0.,-0.006));
#630=CARTESIAN_POINT('',(0.06,0.,-0.003));
#631=CARTESIAN_POINT('',(0.006,0.,-0.006));
#632=CARTESIAN_POINT('',(0.033,0.,-0.006));
#633=CARTESIAN_POINT('',(-0.006,0.,0.006));
#634=CARTESIAN_POINT('Origin',(0.006,0.,0.006));
#635=CARTESIAN_POINT('',(-0.006,0.,0.05));
#636=CARTESIAN_POINT('',(-0.006,0.,0.028));
#637=CARTESIAN_POINT('',(0.,0.,0.05));
#638=CARTESIAN_POINT('',(-0.003,0.,0.05));
#639=CARTESIAN_POINT('',(0.,0.,0.028));
#640=CARTESIAN_POINT('Origin',(0.033,-0.06,0.));
#641=CARTESIAN_POINT('',(0.0394665960967541,-0.01,0.));
#642=CARTESIAN_POINT('',(0.033,-0.01,0.));
#643=CARTESIAN_POINT('Origin',(0.0394665960967541,-0.015,0.));
#644=CARTESIAN_POINT('',(0.06,-0.06,0.));
#645=CARTESIAN_POINT('Origin',(0.06,-0.06,-0.003));
#646=CARTESIAN_POINT('',(0.06,-0.06,-0.006));
#647=CARTESIAN_POINT('Origin',(0.033,-0.06,-0.006));
#648=CARTESIAN_POINT('',(0.0394665960967541,-0.01,-0.006));
#649=CARTESIAN_POINT('Origin',(0.0394665960967541,-0.015,-0.006));
#650=CARTESIAN_POINT('',(0.006,-0.01,-0.006));
#651=CARTESIAN_POINT('',(0.033,-0.01,-0.006));
#652=CARTESIAN_POINT('',(0.006,-0.06,-0.006));
#653=CARTESIAN_POINT('',(0.006,-0.06,-0.006));
#654=CARTESIAN_POINT('Origin',(0.006,-0.06,0.006));
#655=CARTESIAN_POINT('',(-0.00444465175723443,-0.01,9.15949977934359E-5));
#656=CARTESIAN_POINT('Origin',(0.006,-0.01,0.006));
#657=CARTESIAN_POINT('',(-0.00596556728082567,-0.015,0.00509159499779344));
#658=CARTESIAN_POINT('Ctrl Pts',(-0.00444465175723444,-0.01,9.15949977934361E-5));
#659=CARTESIAN_POINT('Ctrl Pts',(-0.00477514896932679,-0.01,0.000675835293736635));
#660=CARTESIAN_POINT('Ctrl Pts',(-0.00507503420903827,-0.0101099182169011,
0.00133269890100678));
#661=CARTESIAN_POINT('Ctrl Pts',(-0.00552201178673756,-0.0106123398220558,
0.00258191228553491));
#662=CARTESIAN_POINT('Ctrl Pts',(-0.00567193016373958,-0.0110063824233498,
0.00317262922292378));
#663=CARTESIAN_POINT('Ctrl Pts',(-0.005853413073482,-0.0119184984890549,
0.00407771399503717));
#664=CARTESIAN_POINT('Ctrl Pts',(-0.00590345132026169,-0.0124777923445842,
0.00445959803149968));
#665=CARTESIAN_POINT('Ctrl Pts',(-0.00595813181578698,-0.0137053743922781,
0.00496652352509137));
#666=CARTESIAN_POINT('Ctrl Pts',(-0.00596556728082568,-0.0143735241776948,
0.00509159499779344));
#667=CARTESIAN_POINT('Ctrl Pts',(-0.00596556728082568,-0.015,0.00509159499779344));
#668=CARTESIAN_POINT('',(-0.00596556728082567,-0.06,0.00509159499779344));
#669=CARTESIAN_POINT('',(-0.006,-0.06,0.006));
#670=CARTESIAN_POINT('Origin',(-0.006,-0.06,0.028));
#671=CARTESIAN_POINT('',(-0.006,-0.06,0.05));
#672=CARTESIAN_POINT('Origin',(-0.003,-0.06,0.05));
#673=CARTESIAN_POINT('',(0.,-0.06,0.05));
#674=CARTESIAN_POINT('Origin',(0.,-0.06,0.028));
#675=CARTESIAN_POINT('Origin',(0.0153879313729703,-0.01,0.00509159499779344));
#676=CARTESIAN_POINT('',(6.91652904531159E-5,-0.015,0.00509159499779344));
#677=CARTESIAN_POINT('Origin',(0.0153879313729703,-0.01,-0.00543103530071676));
#678=CARTESIAN_POINT('',(0.0394665960967541,-0.01,-0.00543103530071676));
#679=CARTESIAN_POINT('',(-0.00596556728082567,-0.01,9.15949977934359E-5));
#680=CARTESIAN_POINT('Origin',(0.0394665960967541,-0.015,-0.00543103530071676));
#681=CARTESIAN_POINT('Origin',(0.0153879313729703,-0.015,9.15949977934359E-5));
#682=UNCERTAINTY_MEASURE_WITH_UNIT(LENGTH_MEASURE(1.E-5),#686,
'DISTANCE_ACCURACY_VALUE',
'Maximum model space distance between geometric entities at asserted c
onnectivities');
#683=UNCERTAINTY_MEASURE_WITH_UNIT(LENGTH_MEASURE(1.E-5),#686,
'DISTANCE_ACCURACY_VALUE',
'Maximum model space distance between geometric entities at asserted c
onnectivities');
#684=(
GEOMETRIC_REPRESENTATION_CONTEXT(3)
GLOBAL_UNCERTAINTY_ASSIGNED_CONTEXT((#682))
GLOBAL_UNIT_ASSIGNED_CONTEXT((#686,#687,#688))
REPRESENTATION_CONTEXT('','3D')
);
#685=(
GEOMETRIC_REPRESENTATION_CONTEXT(3)
GLOBAL_UNCERTAINTY_ASSIGNED_CONTEXT((#683))
GLOBAL_UNIT_ASSIGNED_CONTEXT((#686,#687,#688))
REPRESENTATION_CONTEXT('','3D')
);
#686=(
LENGTH_UNIT()
NAMED_UNIT(*)
SI_UNIT($,.METRE.)
);
#687=(
NAMED_UNIT(*)
PLANE_ANGLE_UNIT()
SI_UNIT($,.RADIAN.)
);
#688=(
NAMED_UNIT(*)
SI_UNIT($,.STERADIAN.)
SOLID_ANGLE_UNIT()
);
#689=SHAPE_DEFINITION_REPRESENTATION(#690,#691);
#690=PRODUCT_DEFINITION_SHAPE('',$,#693);
#691=SHAPE_REPRESENTATION('',(#390),#684);
#692=PRODUCT_DEFINITION_CONTEXT('part definition',#697,'design');
#693=PRODUCT_DEFINITION('Toolpath - Change vector',
'Toolpath - Change vector v2',#694,#692);
#694=PRODUCT_DEFINITION_FORMATION('',$,#699);
#695=PRODUCT_RELATED_PRODUCT_CATEGORY('Toolpath - Change vector v2',
'Toolpath - Change vector v2',(#699));
#696=APPLICATION_PROTOCOL_DEFINITION('international standard',
'automotive_design',2009,#697);
#697=APPLICATION_CONTEXT(
'Core Data for Automotive Mechanical Design Process');
#698=PRODUCT_CONTEXT('part definition',#697,'mechanical');
#699=PRODUCT('Toolpath - Change vector','Toolpath - Change vector v2',$,
(#698));
#700=PRESENTATION_STYLE_ASSIGNMENT((#702));
#701=PRESENTATION_STYLE_ASSIGNMENT((#703));
#702=SURFACE_STYLE_USAGE(.BOTH.,#704);
#703=SURFACE_STYLE_USAGE(.BOTH.,#705);
#704=SURFACE_SIDE_STYLE('',(#706));
#705=SURFACE_SIDE_STYLE('',(#707));
#706=SURFACE_STYLE_FILL_AREA(#708);
#707=SURFACE_STYLE_FILL_AREA(#709);
#708=FILL_AREA_STYLE('Steel - Satin',(#710));
#709=FILL_AREA_STYLE('Aluminum - Bead Blasted',(#711));
#710=FILL_AREA_STYLE_COLOUR('Steel - Satin',#712);
#711=FILL_AREA_STYLE_COLOUR('Aluminum - Bead Blasted',#713);
#712=COLOUR_RGB('Steel - Satin',0.627450980392157,0.627450980392157,0.627450980392157);
#713=COLOUR_RGB('Aluminum - Bead Blasted',0.96078431372549,0.96078431372549,
0.964705882352941);
ENDSEC;
END-ISO-10303-21;
