ISO-10303-21;
HEADER;
/* Generated by software containing ST-Developer
 * from STEP Tools, Inc. (www.steptools.com) 
 */

FILE_DESCRIPTION(
/* description */ (''),
/* implementation_level */ '2;1');

FILE_NAME(
/* name */ '/Users/joakimjohansson/Desktop/Toolpath - Standoff v2.step',

/* time_stamp */ '2019-09-19T11:09:07+02:00',
/* author */ (''),
/* organization */ (''),
/* preprocessor_version */ 'ST-DEVELOPER v18',
/* originating_system */ 'Autodesk Translation Framework v8.6.0.1094',
/* authorisation */ '');

FILE_SCHEMA (('AUTOMOTIVE_DESIGN { 1 0 10303 214 3 1 1 }'));
ENDSEC;

DATA;
#10=MECHANICAL_DESIGN_GEOMETRIC_PRESENTATION_REPRESENTATION('',(#13),#943);
#11=SHAPE_REPRESENTATION_RELATIONSHIP('SRR','None',#949,#12);
#12=ADVANCED_BREP_SHAPE_REPRESENTATION('',(#14),#942);
#13=STYLED_ITEM('',(#959),#14);
#14=MANIFOLD_SOLID_BREP('Body1',#553);
#15=TOROIDAL_SURFACE('',#601,0.006,0.003);
#16=ELLIPSE('',#598,0.003002864,0.003);
#17=SPHERICAL_SURFACE('',#594,0.003);
#18=PLANE('',#570);
#19=PLANE('',#574);
#20=PLANE('',#577);
#21=PLANE('',#579);
#22=PLANE('',#580);
#23=PLANE('',#583);
#24=PLANE('',#584);
#25=PLANE('',#586);
#26=PLANE('',#588);
#27=PLANE('',#589);
#28=PLANE('',#610);
#29=PLANE('',#611);
#30=PLANE('',#612);
#31=PLANE('',#613);
#32=PLANE('',#614);
#33=PLANE('',#615);
#34=PLANE('',#616);
#35=PLANE('',#617);
#36=FACE_OUTER_BOUND('',#66,.T.);
#37=FACE_OUTER_BOUND('',#67,.T.);
#38=FACE_OUTER_BOUND('',#68,.T.);
#39=FACE_OUTER_BOUND('',#69,.T.);
#40=FACE_OUTER_BOUND('',#70,.T.);
#41=FACE_OUTER_BOUND('',#71,.T.);
#42=FACE_OUTER_BOUND('',#72,.T.);
#43=FACE_OUTER_BOUND('',#73,.T.);
#44=FACE_OUTER_BOUND('',#74,.T.);
#45=FACE_OUTER_BOUND('',#75,.T.);
#46=FACE_OUTER_BOUND('',#76,.T.);
#47=FACE_OUTER_BOUND('',#77,.T.);
#48=FACE_OUTER_BOUND('',#78,.T.);
#49=FACE_OUTER_BOUND('',#79,.T.);
#50=FACE_OUTER_BOUND('',#80,.T.);
#51=FACE_OUTER_BOUND('',#81,.T.);
#52=FACE_OUTER_BOUND('',#82,.T.);
#53=FACE_OUTER_BOUND('',#83,.T.);
#54=FACE_OUTER_BOUND('',#84,.T.);
#55=FACE_OUTER_BOUND('',#85,.T.);
#56=FACE_OUTER_BOUND('',#86,.T.);
#57=FACE_OUTER_BOUND('',#87,.T.);
#58=FACE_OUTER_BOUND('',#88,.T.);
#59=FACE_OUTER_BOUND('',#89,.T.);
#60=FACE_OUTER_BOUND('',#90,.T.);
#61=FACE_OUTER_BOUND('',#91,.T.);
#62=FACE_OUTER_BOUND('',#92,.T.);
#63=FACE_OUTER_BOUND('',#93,.T.);
#64=FACE_OUTER_BOUND('',#94,.T.);
#65=FACE_OUTER_BOUND('',#95,.T.);
#66=EDGE_LOOP('',(#357,#358,#359,#360));
#67=EDGE_LOOP('',(#361,#362,#363,#364));
#68=EDGE_LOOP('',(#365,#366,#367,#368));
#69=EDGE_LOOP('',(#369,#370,#371,#372,#373,#374,#375,#376,#377,#378,#379));
#70=EDGE_LOOP('',(#380,#381,#382,#383,#384,#385,#386));
#71=EDGE_LOOP('',(#387,#388,#389,#390));
#72=EDGE_LOOP('',(#391,#392,#393,#394,#395,#396,#397));
#73=EDGE_LOOP('',(#398,#399,#400,#401));
#74=EDGE_LOOP('',(#402,#403,#404,#405,#406,#407,#408,#409,#410,#411));
#75=EDGE_LOOP('',(#412,#413,#414,#415,#416));
#76=EDGE_LOOP('',(#417,#418,#419,#420,#421));
#77=EDGE_LOOP('',(#422,#423,#424,#425,#426));
#78=EDGE_LOOP('',(#427,#428,#429,#430));
#79=EDGE_LOOP('',(#431,#432,#433));
#80=EDGE_LOOP('',(#434,#435,#436,#437));
#81=EDGE_LOOP('',(#438,#439,#440,#441));
#82=EDGE_LOOP('',(#442,#443,#444,#445));
#83=EDGE_LOOP('',(#446,#447,#448,#449));
#84=EDGE_LOOP('',(#450,#451,#452,#453));
#85=EDGE_LOOP('',(#454,#455,#456,#457,#458,#459));
#86=EDGE_LOOP('',(#460,#461,#462,#463));
#87=EDGE_LOOP('',(#464,#465,#466,#467));
#88=EDGE_LOOP('',(#468,#469,#470,#471,#472,#473,#474));
#89=EDGE_LOOP('',(#475,#476,#477,#478,#479,#480,#481,#482,#483));
#90=EDGE_LOOP('',(#484,#485,#486,#487));
#91=EDGE_LOOP('',(#488,#489,#490,#491,#492));
#92=EDGE_LOOP('',(#493,#494,#495,#496));
#93=EDGE_LOOP('',(#497,#498,#499,#500,#501));
#94=EDGE_LOOP('',(#502,#503,#504,#505,#506,#507,#508));
#95=EDGE_LOOP('',(#509,#510,#511,#512));
#96=CIRCLE('',#568,0.0204463845);
#97=CIRCLE('',#569,0.0204463845);
#98=CIRCLE('',#572,0.0156217403);
#99=CIRCLE('',#573,0.0156217403);
#100=CIRCLE('',#575,0.013);
#101=CIRCLE('',#576,0.0316137871);
#102=CIRCLE('',#578,0.003);
#103=CIRCLE('',#581,0.013);
#104=CIRCLE('',#582,0.003);
#105=CIRCLE('',#585,0.0316137871);
#106=CIRCLE('',#587,0.02);
#107=CIRCLE('',#590,0.02);
#108=CIRCLE('',#592,0.003);
#109=CIRCLE('',#593,0.003);
#110=CIRCLE('',#595,0.003);
#111=CIRCLE('',#596,0.003);
#112=CIRCLE('',#600,0.003);
#113=CIRCLE('',#602,0.003);
#114=CIRCLE('',#603,0.003);
#115=CIRCLE('',#604,0.006);
#116=CIRCLE('',#608,0.013);
#117=LINE('',#785,#173);
#118=LINE('',#789,#174);
#119=LINE('',#793,#175);
#120=LINE('',#795,#176);
#121=LINE('',#796,#177);
#122=LINE('',#800,#178);
#123=LINE('',#805,#179);
#124=LINE('',#807,#180);
#125=LINE('',#811,#181);
#126=LINE('',#813,#182);
#127=LINE('',#815,#183);
#128=LINE('',#817,#184);
#129=LINE('',#821,#185);
#130=LINE('',#825,#186);
#131=LINE('',#827,#187);
#132=LINE('',#828,#188);
#133=LINE('',#831,#189);
#134=LINE('',#832,#190);
#135=LINE('',#836,#191);
#136=LINE('',#839,#192);
#137=LINE('',#842,#193);
#138=LINE('',#845,#194);
#139=LINE('',#846,#195);
#140=LINE('',#851,#196);
#141=LINE('',#853,#197);
#142=LINE('',#855,#198);
#143=LINE('',#857,#199);
#144=LINE('',#858,#200);
#145=LINE('',#862,#201);
#146=LINE('',#866,#202);
#147=LINE('',#868,#203);
#148=LINE('',#869,#204);
#149=LINE('',#872,#205);
#150=LINE('',#874,#206);
#151=LINE('',#876,#207);
#152=LINE('',#877,#208);
#153=LINE('',#881,#209);
#154=LINE('',#882,#210);
#155=LINE('',#893,#211);
#156=LINE('',#897,#212);
#157=LINE('',#904,#213);
#158=LINE('',#910,#214);
#159=LINE('',#911,#215);
#160=LINE('',#913,#216);
#161=LINE('',#915,#217);
#162=LINE('',#916,#218);
#163=LINE('',#919,#219);
#164=LINE('',#921,#220);
#165=LINE('',#922,#221);
#166=LINE('',#925,#222);
#167=LINE('',#927,#223);
#168=LINE('',#929,#224);
#169=LINE('',#930,#225);
#170=LINE('',#932,#226);
#171=LINE('',#934,#227);
#172=LINE('',#936,#228);
#173=VECTOR('',#623,1.);
#174=VECTOR('',#626,1.);
#175=VECTOR('',#631,1.);
#176=VECTOR('',#632,1.);
#177=VECTOR('',#633,1.);
#178=VECTOR('',#636,1.);
#179=VECTOR('',#643,1.);
#180=VECTOR('',#644,1.);
#181=VECTOR('',#647,1.);
#182=VECTOR('',#648,1.);
#183=VECTOR('',#649,1.);
#184=VECTOR('',#650,1.);
#185=VECTOR('',#655,1.);
#186=VECTOR('',#658,1.);
#187=VECTOR('',#659,1.);
#188=VECTOR('',#660,1.);
#189=VECTOR('',#663,1.);
#190=VECTOR('',#664,1.);
#191=VECTOR('',#667,1.);
#192=VECTOR('',#670,1.);
#193=VECTOR('',#673,1.);
#194=VECTOR('',#676,1.);
#195=VECTOR('',#677,1.);
#196=VECTOR('',#682,1.);
#197=VECTOR('',#683,1.);
#198=VECTOR('',#684,1.);
#199=VECTOR('',#685,1.);
#200=VECTOR('',#686,1.);
#201=VECTOR('',#689,1.);
#202=VECTOR('',#692,1.);
#203=VECTOR('',#693,1.);
#204=VECTOR('',#694,1.);
#205=VECTOR('',#697,1.);
#206=VECTOR('',#698,1.);
#207=VECTOR('',#699,1.);
#208=VECTOR('',#700,1.);
#209=VECTOR('',#705,1.);
#210=VECTOR('',#706,1.);
#211=VECTOR('',#723,1.);
#212=VECTOR('',#728,1.);
#213=VECTOR('',#739,1.);
#214=VECTOR('',#746,1.);
#215=VECTOR('',#747,1.);
#216=VECTOR('',#750,1.);
#217=VECTOR('',#753,1.);
#218=VECTOR('',#754,1.);
#219=VECTOR('',#757,1.);
#220=VECTOR('',#758,1.);
#221=VECTOR('',#759,1.);
#222=VECTOR('',#762,1.);
#223=VECTOR('',#763,1.);
#224=VECTOR('',#764,1.);
#225=VECTOR('',#765,1.);
#226=VECTOR('',#768,1.);
#227=VECTOR('',#771,1.);
#228=VECTOR('',#774,1.);
#229=VERTEX_POINT('',#783);
#230=VERTEX_POINT('',#784);
#231=VERTEX_POINT('',#786);
#232=VERTEX_POINT('',#788);
#233=VERTEX_POINT('',#792);
#234=VERTEX_POINT('',#794);
#235=VERTEX_POINT('',#798);
#236=VERTEX_POINT('',#799);
#237=VERTEX_POINT('',#804);
#238=VERTEX_POINT('',#806);
#239=VERTEX_POINT('',#808);
#240=VERTEX_POINT('',#810);
#241=VERTEX_POINT('',#812);
#242=VERTEX_POINT('',#814);
#243=VERTEX_POINT('',#816);
#244=VERTEX_POINT('',#820);
#245=VERTEX_POINT('',#822);
#246=VERTEX_POINT('',#824);
#247=VERTEX_POINT('',#826);
#248=VERTEX_POINT('',#830);
#249=VERTEX_POINT('',#834);
#250=VERTEX_POINT('',#835);
#251=VERTEX_POINT('',#838);
#252=VERTEX_POINT('',#840);
#253=VERTEX_POINT('',#844);
#254=VERTEX_POINT('',#848);
#255=VERTEX_POINT('',#850);
#256=VERTEX_POINT('',#852);
#257=VERTEX_POINT('',#854);
#258=VERTEX_POINT('',#856);
#259=VERTEX_POINT('',#860);
#260=VERTEX_POINT('',#861);
#261=VERTEX_POINT('',#863);
#262=VERTEX_POINT('',#865);
#263=VERTEX_POINT('',#867);
#264=VERTEX_POINT('',#871);
#265=VERTEX_POINT('',#873);
#266=VERTEX_POINT('',#875);
#267=VERTEX_POINT('',#879);
#268=VERTEX_POINT('',#887);
#269=VERTEX_POINT('',#891);
#270=VERTEX_POINT('',#895);
#271=VERTEX_POINT('',#899);
#272=VERTEX_POINT('',#907);
#273=VERTEX_POINT('',#908);
#274=VERTEX_POINT('',#918);
#275=VERTEX_POINT('',#920);
#276=VERTEX_POINT('',#924);
#277=VERTEX_POINT('',#926);
#278=VERTEX_POINT('',#928);
#279=EDGE_CURVE('',#229,#230,#117,.T.);
#280=EDGE_CURVE('',#230,#231,#96,.T.);
#281=EDGE_CURVE('',#232,#231,#118,.T.);
#282=EDGE_CURVE('',#229,#232,#97,.T.);
#283=EDGE_CURVE('',#233,#232,#119,.T.);
#284=EDGE_CURVE('',#234,#231,#120,.T.);
#285=EDGE_CURVE('',#233,#234,#121,.T.);
#286=EDGE_CURVE('',#235,#236,#122,.T.);
#287=EDGE_CURVE('',#236,#230,#98,.T.);
#288=EDGE_CURVE('',#235,#229,#99,.T.);
#289=EDGE_CURVE('',#237,#233,#123,.T.);
#290=EDGE_CURVE('',#237,#238,#124,.T.);
#291=EDGE_CURVE('',#238,#239,#100,.T.);
#292=EDGE_CURVE('',#239,#240,#125,.T.);
#293=EDGE_CURVE('',#241,#240,#126,.T.);
#294=EDGE_CURVE('',#242,#241,#127,.T.);
#295=EDGE_CURVE('',#243,#242,#128,.T.);
#296=EDGE_CURVE('',#243,#235,#101,.T.);
#297=EDGE_CURVE('',#234,#244,#129,.T.);
#298=EDGE_CURVE('',#244,#245,#102,.T.);
#299=EDGE_CURVE('',#245,#246,#130,.T.);
#300=EDGE_CURVE('',#246,#247,#131,.T.);
#301=EDGE_CURVE('',#247,#237,#132,.T.);
#302=EDGE_CURVE('',#247,#248,#133,.T.);
#303=EDGE_CURVE('',#248,#238,#134,.T.);
#304=EDGE_CURVE('',#249,#250,#135,.T.);
#305=EDGE_CURVE('',#249,#248,#103,.F.);
#306=EDGE_CURVE('',#246,#251,#136,.T.);
#307=EDGE_CURVE('',#251,#252,#104,.T.);
#308=EDGE_CURVE('',#250,#252,#137,.T.);
#309=EDGE_CURVE('',#245,#253,#138,.T.);
#310=EDGE_CURVE('',#253,#251,#139,.T.);
#311=EDGE_CURVE('',#254,#236,#105,.T.);
#312=EDGE_CURVE('',#254,#255,#140,.T.);
#313=EDGE_CURVE('',#256,#255,#141,.T.);
#314=EDGE_CURVE('',#256,#257,#142,.T.);
#315=EDGE_CURVE('',#257,#258,#143,.T.);
#316=EDGE_CURVE('',#258,#244,#144,.F.);
#317=EDGE_CURVE('',#259,#260,#145,.T.);
#318=EDGE_CURVE('',#259,#261,#106,.F.);
#319=EDGE_CURVE('',#261,#262,#146,.T.);
#320=EDGE_CURVE('',#262,#263,#147,.T.);
#321=EDGE_CURVE('',#263,#260,#148,.F.);
#322=EDGE_CURVE('',#261,#264,#149,.F.);
#323=EDGE_CURVE('',#264,#265,#150,.T.);
#324=EDGE_CURVE('',#265,#266,#151,.T.);
#325=EDGE_CURVE('',#266,#262,#152,.T.);
#326=EDGE_CURVE('',#264,#267,#107,.F.);
#327=EDGE_CURVE('',#241,#267,#153,.T.);
#328=EDGE_CURVE('',#240,#265,#154,.T.);
#329=EDGE_CURVE('',#260,#256,#108,.F.);
#330=EDGE_CURVE('',#263,#257,#109,.F.);
#331=EDGE_CURVE('',#263,#268,#110,.T.);
#332=EDGE_CURVE('',#268,#257,#111,.T.);
#333=EDGE_CURVE('',#269,#262,#16,.F.);
#334=EDGE_CURVE('',#268,#269,#155,.F.);
#335=EDGE_CURVE('',#270,#258,#112,.F.);
#336=EDGE_CURVE('',#270,#268,#156,.F.);
#337=EDGE_CURVE('',#271,#253,#113,.T.);
#338=EDGE_CURVE('',#253,#258,#114,.F.);
#339=EDGE_CURVE('',#270,#271,#115,.T.);
#340=EDGE_CURVE('',#252,#271,#157,.F.);
#341=EDGE_CURVE('',#272,#273,#116,.T.);
#342=EDGE_CURVE('',#239,#272,#158,.F.);
#343=EDGE_CURVE('',#273,#249,#159,.T.);
#344=EDGE_CURVE('',#267,#259,#160,.T.);
#345=EDGE_CURVE('',#242,#255,#161,.T.);
#346=EDGE_CURVE('',#243,#254,#162,.T.);
#347=EDGE_CURVE('',#274,#272,#163,.T.);
#348=EDGE_CURVE('',#275,#274,#164,.T.);
#349=EDGE_CURVE('',#266,#275,#165,.T.);
#350=EDGE_CURVE('',#250,#276,#166,.T.);
#351=EDGE_CURVE('',#269,#277,#167,.T.);
#352=EDGE_CURVE('',#277,#278,#168,.T.);
#353=EDGE_CURVE('',#278,#276,#169,.T.);
#354=EDGE_CURVE('',#273,#276,#170,.T.);
#355=EDGE_CURVE('',#274,#278,#171,.T.);
#356=EDGE_CURVE('',#275,#277,#172,.T.);
#357=ORIENTED_EDGE('',*,*,#279,.T.);
#358=ORIENTED_EDGE('',*,*,#280,.T.);
#359=ORIENTED_EDGE('',*,*,#281,.F.);
#360=ORIENTED_EDGE('',*,*,#282,.F.);
#361=ORIENTED_EDGE('',*,*,#283,.T.);
#362=ORIENTED_EDGE('',*,*,#281,.T.);
#363=ORIENTED_EDGE('',*,*,#284,.F.);
#364=ORIENTED_EDGE('',*,*,#285,.F.);
#365=ORIENTED_EDGE('',*,*,#286,.T.);
#366=ORIENTED_EDGE('',*,*,#287,.T.);
#367=ORIENTED_EDGE('',*,*,#279,.F.);
#368=ORIENTED_EDGE('',*,*,#288,.F.);
#369=ORIENTED_EDGE('',*,*,#283,.F.);
#370=ORIENTED_EDGE('',*,*,#289,.F.);
#371=ORIENTED_EDGE('',*,*,#290,.T.);
#372=ORIENTED_EDGE('',*,*,#291,.T.);
#373=ORIENTED_EDGE('',*,*,#292,.T.);
#374=ORIENTED_EDGE('',*,*,#293,.F.);
#375=ORIENTED_EDGE('',*,*,#294,.F.);
#376=ORIENTED_EDGE('',*,*,#295,.F.);
#377=ORIENTED_EDGE('',*,*,#296,.T.);
#378=ORIENTED_EDGE('',*,*,#288,.T.);
#379=ORIENTED_EDGE('',*,*,#282,.T.);
#380=ORIENTED_EDGE('',*,*,#289,.T.);
#381=ORIENTED_EDGE('',*,*,#285,.T.);
#382=ORIENTED_EDGE('',*,*,#297,.T.);
#383=ORIENTED_EDGE('',*,*,#298,.T.);
#384=ORIENTED_EDGE('',*,*,#299,.T.);
#385=ORIENTED_EDGE('',*,*,#300,.T.);
#386=ORIENTED_EDGE('',*,*,#301,.T.);
#387=ORIENTED_EDGE('',*,*,#302,.T.);
#388=ORIENTED_EDGE('',*,*,#303,.T.);
#389=ORIENTED_EDGE('',*,*,#290,.F.);
#390=ORIENTED_EDGE('',*,*,#301,.F.);
#391=ORIENTED_EDGE('',*,*,#304,.F.);
#392=ORIENTED_EDGE('',*,*,#305,.T.);
#393=ORIENTED_EDGE('',*,*,#302,.F.);
#394=ORIENTED_EDGE('',*,*,#300,.F.);
#395=ORIENTED_EDGE('',*,*,#306,.T.);
#396=ORIENTED_EDGE('',*,*,#307,.T.);
#397=ORIENTED_EDGE('',*,*,#308,.F.);
#398=ORIENTED_EDGE('',*,*,#299,.F.);
#399=ORIENTED_EDGE('',*,*,#309,.T.);
#400=ORIENTED_EDGE('',*,*,#310,.T.);
#401=ORIENTED_EDGE('',*,*,#306,.F.);
#402=ORIENTED_EDGE('',*,*,#297,.F.);
#403=ORIENTED_EDGE('',*,*,#284,.T.);
#404=ORIENTED_EDGE('',*,*,#280,.F.);
#405=ORIENTED_EDGE('',*,*,#287,.F.);
#406=ORIENTED_EDGE('',*,*,#311,.F.);
#407=ORIENTED_EDGE('',*,*,#312,.T.);
#408=ORIENTED_EDGE('',*,*,#313,.F.);
#409=ORIENTED_EDGE('',*,*,#314,.T.);
#410=ORIENTED_EDGE('',*,*,#315,.T.);
#411=ORIENTED_EDGE('',*,*,#316,.T.);
#412=ORIENTED_EDGE('',*,*,#317,.F.);
#413=ORIENTED_EDGE('',*,*,#318,.T.);
#414=ORIENTED_EDGE('',*,*,#319,.T.);
#415=ORIENTED_EDGE('',*,*,#320,.T.);
#416=ORIENTED_EDGE('',*,*,#321,.T.);
#417=ORIENTED_EDGE('',*,*,#319,.F.);
#418=ORIENTED_EDGE('',*,*,#322,.T.);
#419=ORIENTED_EDGE('',*,*,#323,.T.);
#420=ORIENTED_EDGE('',*,*,#324,.T.);
#421=ORIENTED_EDGE('',*,*,#325,.T.);
#422=ORIENTED_EDGE('',*,*,#323,.F.);
#423=ORIENTED_EDGE('',*,*,#326,.T.);
#424=ORIENTED_EDGE('',*,*,#327,.F.);
#425=ORIENTED_EDGE('',*,*,#293,.T.);
#426=ORIENTED_EDGE('',*,*,#328,.T.);
#427=ORIENTED_EDGE('',*,*,#329,.F.);
#428=ORIENTED_EDGE('',*,*,#321,.F.);
#429=ORIENTED_EDGE('',*,*,#330,.T.);
#430=ORIENTED_EDGE('',*,*,#314,.F.);
#431=ORIENTED_EDGE('',*,*,#331,.T.);
#432=ORIENTED_EDGE('',*,*,#332,.T.);
#433=ORIENTED_EDGE('',*,*,#330,.F.);
#434=ORIENTED_EDGE('',*,*,#333,.F.);
#435=ORIENTED_EDGE('',*,*,#334,.F.);
#436=ORIENTED_EDGE('',*,*,#331,.F.);
#437=ORIENTED_EDGE('',*,*,#320,.F.);
#438=ORIENTED_EDGE('',*,*,#335,.T.);
#439=ORIENTED_EDGE('',*,*,#315,.F.);
#440=ORIENTED_EDGE('',*,*,#332,.F.);
#441=ORIENTED_EDGE('',*,*,#336,.F.);
#442=ORIENTED_EDGE('',*,*,#337,.T.);
#443=ORIENTED_EDGE('',*,*,#338,.T.);
#444=ORIENTED_EDGE('',*,*,#335,.F.);
#445=ORIENTED_EDGE('',*,*,#339,.T.);
#446=ORIENTED_EDGE('',*,*,#307,.F.);
#447=ORIENTED_EDGE('',*,*,#310,.F.);
#448=ORIENTED_EDGE('',*,*,#337,.F.);
#449=ORIENTED_EDGE('',*,*,#340,.F.);
#450=ORIENTED_EDGE('',*,*,#298,.F.);
#451=ORIENTED_EDGE('',*,*,#316,.F.);
#452=ORIENTED_EDGE('',*,*,#338,.F.);
#453=ORIENTED_EDGE('',*,*,#309,.F.);
#454=ORIENTED_EDGE('',*,*,#341,.F.);
#455=ORIENTED_EDGE('',*,*,#342,.F.);
#456=ORIENTED_EDGE('',*,*,#291,.F.);
#457=ORIENTED_EDGE('',*,*,#303,.F.);
#458=ORIENTED_EDGE('',*,*,#305,.F.);
#459=ORIENTED_EDGE('',*,*,#343,.F.);
#460=ORIENTED_EDGE('',*,*,#326,.F.);
#461=ORIENTED_EDGE('',*,*,#322,.F.);
#462=ORIENTED_EDGE('',*,*,#318,.F.);
#463=ORIENTED_EDGE('',*,*,#344,.F.);
#464=ORIENTED_EDGE('',*,*,#295,.T.);
#465=ORIENTED_EDGE('',*,*,#345,.T.);
#466=ORIENTED_EDGE('',*,*,#312,.F.);
#467=ORIENTED_EDGE('',*,*,#346,.F.);
#468=ORIENTED_EDGE('',*,*,#292,.F.);
#469=ORIENTED_EDGE('',*,*,#342,.T.);
#470=ORIENTED_EDGE('',*,*,#347,.F.);
#471=ORIENTED_EDGE('',*,*,#348,.F.);
#472=ORIENTED_EDGE('',*,*,#349,.F.);
#473=ORIENTED_EDGE('',*,*,#324,.F.);
#474=ORIENTED_EDGE('',*,*,#328,.F.);
#475=ORIENTED_EDGE('',*,*,#350,.F.);
#476=ORIENTED_EDGE('',*,*,#308,.T.);
#477=ORIENTED_EDGE('',*,*,#340,.T.);
#478=ORIENTED_EDGE('',*,*,#339,.F.);
#479=ORIENTED_EDGE('',*,*,#336,.T.);
#480=ORIENTED_EDGE('',*,*,#334,.T.);
#481=ORIENTED_EDGE('',*,*,#351,.T.);
#482=ORIENTED_EDGE('',*,*,#352,.T.);
#483=ORIENTED_EDGE('',*,*,#353,.T.);
#484=ORIENTED_EDGE('',*,*,#354,.F.);
#485=ORIENTED_EDGE('',*,*,#343,.T.);
#486=ORIENTED_EDGE('',*,*,#304,.T.);
#487=ORIENTED_EDGE('',*,*,#350,.T.);
#488=ORIENTED_EDGE('',*,*,#347,.T.);
#489=ORIENTED_EDGE('',*,*,#341,.T.);
#490=ORIENTED_EDGE('',*,*,#354,.T.);
#491=ORIENTED_EDGE('',*,*,#353,.F.);
#492=ORIENTED_EDGE('',*,*,#355,.F.);
#493=ORIENTED_EDGE('',*,*,#352,.F.);
#494=ORIENTED_EDGE('',*,*,#356,.F.);
#495=ORIENTED_EDGE('',*,*,#348,.T.);
#496=ORIENTED_EDGE('',*,*,#355,.T.);
#497=ORIENTED_EDGE('',*,*,#351,.F.);
#498=ORIENTED_EDGE('',*,*,#333,.T.);
#499=ORIENTED_EDGE('',*,*,#325,.F.);
#500=ORIENTED_EDGE('',*,*,#349,.T.);
#501=ORIENTED_EDGE('',*,*,#356,.T.);
#502=ORIENTED_EDGE('',*,*,#345,.F.);
#503=ORIENTED_EDGE('',*,*,#294,.T.);
#504=ORIENTED_EDGE('',*,*,#327,.T.);
#505=ORIENTED_EDGE('',*,*,#344,.T.);
#506=ORIENTED_EDGE('',*,*,#317,.T.);
#507=ORIENTED_EDGE('',*,*,#329,.T.);
#508=ORIENTED_EDGE('',*,*,#313,.T.);
#509=ORIENTED_EDGE('',*,*,#346,.T.);
#510=ORIENTED_EDGE('',*,*,#311,.T.);
#511=ORIENTED_EDGE('',*,*,#286,.F.);
#512=ORIENTED_EDGE('',*,*,#296,.F.);
#513=CYLINDRICAL_SURFACE('',#567,0.0204463845);
#514=CYLINDRICAL_SURFACE('',#571,0.0156217403);
#515=CYLINDRICAL_SURFACE('',#591,0.003);
#516=CYLINDRICAL_SURFACE('',#597,0.003);
#517=CYLINDRICAL_SURFACE('',#599,0.003);
#518=CYLINDRICAL_SURFACE('',#605,0.003);
#519=CYLINDRICAL_SURFACE('',#606,0.003);
#520=CYLINDRICAL_SURFACE('',#607,0.013);
#521=CYLINDRICAL_SURFACE('',#609,0.02);
#522=CYLINDRICAL_SURFACE('',#618,0.0316137871);
#523=ADVANCED_FACE('',(#36),#513,.F.);
#524=ADVANCED_FACE('',(#37),#18,.T.);
#525=ADVANCED_FACE('',(#38),#514,.F.);
#526=ADVANCED_FACE('',(#39),#19,.F.);
#527=ADVANCED_FACE('',(#40),#20,.T.);
#528=ADVANCED_FACE('',(#41),#21,.F.);
#529=ADVANCED_FACE('',(#42),#22,.F.);
#530=ADVANCED_FACE('',(#43),#23,.F.);
#531=ADVANCED_FACE('',(#44),#24,.F.);
#532=ADVANCED_FACE('',(#45),#25,.F.);
#533=ADVANCED_FACE('',(#46),#26,.F.);
#534=ADVANCED_FACE('',(#47),#27,.F.);
#535=ADVANCED_FACE('',(#48),#515,.F.);
#536=ADVANCED_FACE('',(#49),#17,.F.);
#537=ADVANCED_FACE('',(#50),#516,.F.);
#538=ADVANCED_FACE('',(#51),#517,.F.);
#539=ADVANCED_FACE('',(#52),#15,.F.);
#540=ADVANCED_FACE('',(#53),#518,.F.);
#541=ADVANCED_FACE('',(#54),#519,.T.);
#542=ADVANCED_FACE('',(#55),#520,.T.);
#543=ADVANCED_FACE('',(#56),#521,.T.);
#544=ADVANCED_FACE('',(#57),#28,.T.);
#545=ADVANCED_FACE('',(#58),#29,.F.);
#546=ADVANCED_FACE('',(#59),#30,.T.);
#547=ADVANCED_FACE('',(#60),#31,.F.);
#548=ADVANCED_FACE('',(#61),#32,.T.);
#549=ADVANCED_FACE('',(#62),#33,.T.);
#550=ADVANCED_FACE('',(#63),#34,.T.);
#551=ADVANCED_FACE('',(#64),#35,.T.);
#552=ADVANCED_FACE('',(#65),#522,.F.);
#553=CLOSED_SHELL('',(#523,#524,#525,#526,#527,#528,#529,#530,#531,#532,
#533,#534,#535,#536,#537,#538,#539,#540,#541,#542,#543,#544,#545,#546,#547,
#548,#549,#550,#551,#552));
#554=DERIVED_UNIT_ELEMENT(#556,1.);
#555=DERIVED_UNIT_ELEMENT(#944,3.);
#556=(
MASS_UNIT()
NAMED_UNIT(*)
SI_UNIT(.KILO.,.GRAM.)
);
#557=DERIVED_UNIT((#554,#555));
#558=MEASURE_REPRESENTATION_ITEM('density measure',
POSITIVE_RATIO_MEASURE(7850.),#557);
#559=PROPERTY_DEFINITION_REPRESENTATION(#564,#561);
#560=PROPERTY_DEFINITION_REPRESENTATION(#565,#562);
#561=REPRESENTATION('material name',(#563),#942);
#562=REPRESENTATION('density',(#558),#942);
#563=DESCRIPTIVE_REPRESENTATION_ITEM('Steel','Steel');
#564=PROPERTY_DEFINITION('material property','material name',#951);
#565=PROPERTY_DEFINITION('material property','density of part',#951);
#566=AXIS2_PLACEMENT_3D('placement',#781,#619,#620);
#567=AXIS2_PLACEMENT_3D('',#782,#621,#622);
#568=AXIS2_PLACEMENT_3D('',#787,#624,#625);
#569=AXIS2_PLACEMENT_3D('',#790,#627,#628);
#570=AXIS2_PLACEMENT_3D('',#791,#629,#630);
#571=AXIS2_PLACEMENT_3D('',#797,#634,#635);
#572=AXIS2_PLACEMENT_3D('',#801,#637,#638);
#573=AXIS2_PLACEMENT_3D('',#802,#639,#640);
#574=AXIS2_PLACEMENT_3D('',#803,#641,#642);
#575=AXIS2_PLACEMENT_3D('',#809,#645,#646);
#576=AXIS2_PLACEMENT_3D('',#818,#651,#652);
#577=AXIS2_PLACEMENT_3D('',#819,#653,#654);
#578=AXIS2_PLACEMENT_3D('',#823,#656,#657);
#579=AXIS2_PLACEMENT_3D('',#829,#661,#662);
#580=AXIS2_PLACEMENT_3D('',#833,#665,#666);
#581=AXIS2_PLACEMENT_3D('',#837,#668,#669);
#582=AXIS2_PLACEMENT_3D('',#841,#671,#672);
#583=AXIS2_PLACEMENT_3D('',#843,#674,#675);
#584=AXIS2_PLACEMENT_3D('',#847,#678,#679);
#585=AXIS2_PLACEMENT_3D('',#849,#680,#681);
#586=AXIS2_PLACEMENT_3D('',#859,#687,#688);
#587=AXIS2_PLACEMENT_3D('',#864,#690,#691);
#588=AXIS2_PLACEMENT_3D('',#870,#695,#696);
#589=AXIS2_PLACEMENT_3D('',#878,#701,#702);
#590=AXIS2_PLACEMENT_3D('',#880,#703,#704);
#591=AXIS2_PLACEMENT_3D('',#883,#707,#708);
#592=AXIS2_PLACEMENT_3D('',#884,#709,#710);
#593=AXIS2_PLACEMENT_3D('',#885,#711,#712);
#594=AXIS2_PLACEMENT_3D('',#886,#713,#714);
#595=AXIS2_PLACEMENT_3D('',#888,#715,#716);
#596=AXIS2_PLACEMENT_3D('',#889,#717,#718);
#597=AXIS2_PLACEMENT_3D('',#890,#719,#720);
#598=AXIS2_PLACEMENT_3D('',#892,#721,#722);
#599=AXIS2_PLACEMENT_3D('',#894,#724,#725);
#600=AXIS2_PLACEMENT_3D('',#896,#726,#727);
#601=AXIS2_PLACEMENT_3D('',#898,#729,#730);
#602=AXIS2_PLACEMENT_3D('',#900,#731,#732);
#603=AXIS2_PLACEMENT_3D('',#901,#733,#734);
#604=AXIS2_PLACEMENT_3D('',#902,#735,#736);
#605=AXIS2_PLACEMENT_3D('',#903,#737,#738);
#606=AXIS2_PLACEMENT_3D('',#905,#740,#741);
#607=AXIS2_PLACEMENT_3D('',#906,#742,#743);
#608=AXIS2_PLACEMENT_3D('',#909,#744,#745);
#609=AXIS2_PLACEMENT_3D('',#912,#748,#749);
#610=AXIS2_PLACEMENT_3D('',#914,#751,#752);
#611=AXIS2_PLACEMENT_3D('',#917,#755,#756);
#612=AXIS2_PLACEMENT_3D('',#923,#760,#761);
#613=AXIS2_PLACEMENT_3D('',#931,#766,#767);
#614=AXIS2_PLACEMENT_3D('',#933,#769,#770);
#615=AXIS2_PLACEMENT_3D('',#935,#772,#773);
#616=AXIS2_PLACEMENT_3D('',#937,#775,#776);
#617=AXIS2_PLACEMENT_3D('',#938,#777,#778);
#618=AXIS2_PLACEMENT_3D('',#939,#779,#780);
#619=DIRECTION('axis',(0.,0.,1.));
#620=DIRECTION('refdir',(1.,0.,0.));
#621=DIRECTION('center_axis',(-1.,0.,0.));
#622=DIRECTION('ref_axis',(0.,0.,-1.));
#623=DIRECTION('',(1.,0.,0.));
#624=DIRECTION('center_axis',(1.,0.,0.));
#625=DIRECTION('ref_axis',(0.,0.,-1.));
#626=DIRECTION('',(1.,0.,0.));
#627=DIRECTION('center_axis',(1.,0.,0.));
#628=DIRECTION('ref_axis',(0.,0.,-1.));
#629=DIRECTION('center_axis',(0.,0.,-1.));
#630=DIRECTION('ref_axis',(-1.,0.,0.));
#631=DIRECTION('',(0.,1.,0.));
#632=DIRECTION('',(0.,1.,0.));
#633=DIRECTION('',(1.,0.,0.));
#634=DIRECTION('center_axis',(-1.,0.,0.));
#635=DIRECTION('ref_axis',(0.,0.,-1.));
#636=DIRECTION('',(1.,0.,0.));
#637=DIRECTION('center_axis',(1.,0.,0.));
#638=DIRECTION('ref_axis',(0.,0.,-1.));
#639=DIRECTION('center_axis',(1.,0.,0.));
#640=DIRECTION('ref_axis',(0.,0.,-1.));
#641=DIRECTION('center_axis',(1.,0.,0.));
#642=DIRECTION('ref_axis',(0.,0.,-1.));
#643=DIRECTION('',(0.,0.,-1.));
#644=DIRECTION('',(0.,1.,0.));
#645=DIRECTION('center_axis',(1.,0.,0.));
#646=DIRECTION('ref_axis',(0.,0.,-1.));
#647=DIRECTION('',(0.,0.,-1.));
#648=DIRECTION('',(0.,1.,0.));
#649=DIRECTION('',(0.,0.,-1.));
#650=DIRECTION('',(0.,-1.,0.));
#651=DIRECTION('center_axis',(1.,0.,0.));
#652=DIRECTION('ref_axis',(0.,0.,-1.));
#653=DIRECTION('center_axis',(0.,-1.,0.));
#654=DIRECTION('ref_axis',(1.,0.,0.));
#655=DIRECTION('',(0.,0.,1.));
#656=DIRECTION('center_axis',(0.,-1.,0.));
#657=DIRECTION('ref_axis',(0.,0.,-1.));
#658=DIRECTION('',(-1.,0.,0.));
#659=DIRECTION('',(0.,0.,-1.));
#660=DIRECTION('',(1.,0.,0.));
#661=DIRECTION('center_axis',(0.,0.,1.));
#662=DIRECTION('ref_axis',(1.,0.,0.));
#663=DIRECTION('',(0.,1.,0.));
#664=DIRECTION('',(1.,0.,0.));
#665=DIRECTION('center_axis',(1.,0.,0.));
#666=DIRECTION('ref_axis',(0.,0.,-1.));
#667=DIRECTION('',(0.,-1.,0.));
#668=DIRECTION('center_axis',(1.,0.,0.));
#669=DIRECTION('ref_axis',(0.,0.,-1.));
#670=DIRECTION('',(0.,1.,0.));
#671=DIRECTION('center_axis',(1.,0.,0.));
#672=DIRECTION('ref_axis',(0.,0.,-1.));
#673=DIRECTION('',(0.,0.,1.));
#674=DIRECTION('center_axis',(0.,0.,-1.));
#675=DIRECTION('ref_axis',(-1.,0.,0.));
#676=DIRECTION('',(0.,1.,0.));
#677=DIRECTION('',(-1.,0.,0.));
#678=DIRECTION('center_axis',(-1.,0.,0.));
#679=DIRECTION('ref_axis',(0.,0.,1.));
#680=DIRECTION('center_axis',(1.,0.,0.));
#681=DIRECTION('ref_axis',(0.,0.,-1.));
#682=DIRECTION('',(0.,-1.,0.));
#683=DIRECTION('',(0.,0.,1.));
#684=DIRECTION('',(0.,1.,0.));
#685=DIRECTION('',(0.,0.,1.));
#686=DIRECTION('',(0.,1.,0.));
#687=DIRECTION('center_axis',(0.,0.,-1.));
#688=DIRECTION('ref_axis',(-1.,0.,0.));
#689=DIRECTION('',(-1.,0.,0.));
#690=DIRECTION('center_axis',(0.,0.,-1.));
#691=DIRECTION('ref_axis',(-1.,0.,0.));
#692=DIRECTION('',(0.,1.,0.));
#693=DIRECTION('',(-1.,0.,0.));
#694=DIRECTION('',(0.,1.,0.));
#695=DIRECTION('center_axis',(-1.,0.,0.));
#696=DIRECTION('ref_axis',(0.,0.,1.));
#697=DIRECTION('',(0.,0.,1.));
#698=DIRECTION('',(0.,1.,0.));
#699=DIRECTION('',(0.,0.,1.));
#700=DIRECTION('',(0.,-1.,0.));
#701=DIRECTION('center_axis',(0.,0.,1.));
#702=DIRECTION('ref_axis',(1.,0.,0.));
#703=DIRECTION('center_axis',(0.,0.,1.));
#704=DIRECTION('ref_axis',(1.,0.,0.));
#705=DIRECTION('',(1.,0.,0.));
#706=DIRECTION('',(1.,0.,0.));
#707=DIRECTION('center_axis',(0.,1.,0.));
#708=DIRECTION('ref_axis',(0.,0.,-1.));
#709=DIRECTION('center_axis',(0.,-1.,0.));
#710=DIRECTION('ref_axis',(0.,0.,-1.));
#711=DIRECTION('center_axis',(0.,-1.,0.));
#712=DIRECTION('ref_axis',(0.,0.,-1.));
#713=DIRECTION('center_axis',(0.,0.,1.));
#714=DIRECTION('ref_axis',(1.,0.,0.));
#715=DIRECTION('center_axis',(1.,0.,0.));
#716=DIRECTION('ref_axis',(0.,0.,-1.));
#717=DIRECTION('center_axis',(0.,0.,1.));
#718=DIRECTION('ref_axis',(1.,0.,0.));
#719=DIRECTION('center_axis',(1.,0.,0.));
#720=DIRECTION('ref_axis',(0.,0.,1.));
#721=DIRECTION('center_axis',(0.99904625897639,0.,0.0436643152388845));
#722=DIRECTION('ref_axis',(-0.0436643152388845,0.,0.99904625897639));
#723=DIRECTION('',(-1.,0.,0.));
#724=DIRECTION('center_axis',(0.,0.,-1.));
#725=DIRECTION('ref_axis',(1.,0.,0.));
#726=DIRECTION('center_axis',(0.,0.,-1.));
#727=DIRECTION('ref_axis',(-1.,0.,0.));
#728=DIRECTION('',(0.,0.,1.));
#729=DIRECTION('center_axis',(0.,-1.,0.));
#730=DIRECTION('ref_axis',(0.,0.,-1.));
#731=DIRECTION('center_axis',(-1.,0.,0.));
#732=DIRECTION('ref_axis',(0.,0.,1.));
#733=DIRECTION('center_axis',(0.,-1.,0.));
#734=DIRECTION('ref_axis',(0.,0.,-1.));
#735=DIRECTION('center_axis',(0.,-1.,0.));
#736=DIRECTION('ref_axis',(0.,0.,-1.));
#737=DIRECTION('center_axis',(1.,0.,0.));
#738=DIRECTION('ref_axis',(0.,0.,1.));
#739=DIRECTION('',(-1.,0.,0.));
#740=DIRECTION('center_axis',(0.,-1.,0.));
#741=DIRECTION('ref_axis',(0.,0.,1.));
#742=DIRECTION('center_axis',(-1.,0.,0.));
#743=DIRECTION('ref_axis',(0.,0.,-1.));
#744=DIRECTION('center_axis',(-1.,0.,0.));
#745=DIRECTION('ref_axis',(0.,0.,1.));
#746=DIRECTION('',(1.,0.,0.));
#747=DIRECTION('',(1.,0.,0.));
#748=DIRECTION('center_axis',(0.,0.,1.));
#749=DIRECTION('ref_axis',(-1.,0.,0.));
#750=DIRECTION('',(0.,0.,1.));
#751=DIRECTION('center_axis',(0.,0.,1.));
#752=DIRECTION('ref_axis',(1.,0.,0.));
#753=DIRECTION('',(1.,0.,0.));
#754=DIRECTION('',(1.,0.,0.));
#755=DIRECTION('center_axis',(0.,-1.,0.));
#756=DIRECTION('ref_axis',(1.,0.,0.));
#757=DIRECTION('',(0.,0.,-1.));
#758=DIRECTION('',(-1.,0.,0.));
#759=DIRECTION('',(-0.0436643152388845,0.,0.99904625897639));
#760=DIRECTION('center_axis',(0.,-1.,0.));
#761=DIRECTION('ref_axis',(1.,0.,0.));
#762=DIRECTION('',(-1.,0.,0.));
#763=DIRECTION('',(-0.0436643152388845,0.,0.99904625897639));
#764=DIRECTION('',(-1.,0.,0.));
#765=DIRECTION('',(0.,0.,-1.));
#766=DIRECTION('center_axis',(0.,0.,1.));
#767=DIRECTION('ref_axis',(1.,0.,0.));
#768=DIRECTION('',(0.,-1.,0.));
#769=DIRECTION('center_axis',(-1.,0.,0.));
#770=DIRECTION('ref_axis',(0.,0.,1.));
#771=DIRECTION('',(0.,-1.,0.));
#772=DIRECTION('center_axis',(0.,0.,1.));
#773=DIRECTION('ref_axis',(1.,0.,0.));
#774=DIRECTION('',(0.,-1.,0.));
#775=DIRECTION('center_axis',(0.99904625897639,0.,0.0436643152388845));
#776=DIRECTION('ref_axis',(0.0436643152388845,0.,-0.99904625897639));
#777=DIRECTION('center_axis',(0.,-1.,0.));
#778=DIRECTION('ref_axis',(1.,0.,0.));
#779=DIRECTION('center_axis',(-1.,0.,0.));
#780=DIRECTION('ref_axis',(0.,0.,-1.));
#781=CARTESIAN_POINT('',(0.,0.,0.));
#782=CARTESIAN_POINT('Origin',(-0.015,-0.05,0.0149694213585054));
#783=CARTESIAN_POINT('',(0.,-0.0295536154965174,0.0149694213585194));
#784=CARTESIAN_POINT('',(0.01,-0.0295536154965174,0.0149694213585194));
#785=CARTESIAN_POINT('',(-0.015,-0.0295536154822504,0.0149694213585054));
#786=CARTESIAN_POINT('',(0.01,-0.05,0.0354158058677089));
#787=CARTESIAN_POINT('Origin',(0.01,-0.05,0.0149694213585054));
#788=CARTESIAN_POINT('',(0.,-0.05,0.0354158058677089));
#789=CARTESIAN_POINT('',(-0.015,-0.05,0.035415805876255));
#790=CARTESIAN_POINT('Origin',(0.,-0.05,0.0149694213585054));
#791=CARTESIAN_POINT('Origin',(-0.015,-0.075,0.035415805876255));
#792=CARTESIAN_POINT('',(0.,-0.1,0.035415805876255));
#793=CARTESIAN_POINT('',(0.,-0.1,0.035415805876255));
#794=CARTESIAN_POINT('',(0.01,-0.1,0.035415805876255));
#795=CARTESIAN_POINT('',(0.01,-0.075,0.035415805876255));
#796=CARTESIAN_POINT('',(-0.015,-0.1,0.035415805876255));
#797=CARTESIAN_POINT('Origin',(-0.015,-0.0451753437949985,0.0149887941750694));
#798=CARTESIAN_POINT('',(0.,-0.04957702754778,2.15959072846772E-11));
#799=CARTESIAN_POINT('',(0.01,-0.04957702754778,2.15959072846772E-11));
#800=CARTESIAN_POINT('',(-0.015,-0.0495770275592804,0.));
#801=CARTESIAN_POINT('Origin',(0.01,-0.0451753437949985,0.0149887941750694));
#802=CARTESIAN_POINT('Origin',(0.,-0.0451753437949985,0.0149887941750694));
#803=CARTESIAN_POINT('Origin',(0.,-0.1,0.00503623560070991));
#804=CARTESIAN_POINT('',(0.,-0.1,0.0550362356007099));
#805=CARTESIAN_POINT('',(0.,-0.1,0.00503623560070991));
#806=CARTESIAN_POINT('',(0.,-0.003,0.0550362356007099));
#807=CARTESIAN_POINT('',(0.,-0.1,0.0550362356007099));
#808=CARTESIAN_POINT('',(0.,0.01,0.0680362356007099));
#809=CARTESIAN_POINT('Origin',(0.,-0.003,0.0680362356007099));
#810=CARTESIAN_POINT('',(0.,0.01,-0.0449637643992901));
#811=CARTESIAN_POINT('',(0.,0.01,0.00503623560070991));
#812=CARTESIAN_POINT('',(0.,-0.1,-0.0449637643992901));
#813=CARTESIAN_POINT('',(0.,-0.1,-0.0449637643992901));
#814=CARTESIAN_POINT('',(0.,-0.1,0.0306700393557548));
#815=CARTESIAN_POINT('',(0.,-0.1,0.00503623560070991));
#816=CARTESIAN_POINT('',(0.,-0.0667128115650894,0.0306700393548942));
#817=CARTESIAN_POINT('',(0.,-0.1,0.0306700393557548));
#818=CARTESIAN_POINT('Origin',(0.,-0.0351992167910308,0.0281551078019351));
#819=CARTESIAN_POINT('Origin',(-0.0282748236429163,-0.1,0.0349647050239391));
#820=CARTESIAN_POINT('',(0.01,-0.1,0.0620362356007099));
#821=CARTESIAN_POINT('',(0.01,-0.1,0.0150362356007099));
#822=CARTESIAN_POINT('',(0.007,-0.1,0.0650362356007099));
#823=CARTESIAN_POINT('Origin',(0.007,-0.1,0.0620362356007099));
#824=CARTESIAN_POINT('',(-0.1,-0.1,0.0650362356007099));
#825=CARTESIAN_POINT('',(-0.045,-0.1,0.0650362356007099));
#826=CARTESIAN_POINT('',(-0.1,-0.1,0.0550362356007099));
#827=CARTESIAN_POINT('',(-0.1,-0.1,0.0600362356007099));
#828=CARTESIAN_POINT('',(-0.05,-0.1,0.0550362356007099));
#829=CARTESIAN_POINT('Origin',(-0.05,-0.1,0.0550362356007099));
#830=CARTESIAN_POINT('',(-0.1,-0.003,0.0550362356007099));
#831=CARTESIAN_POINT('',(-0.1,-0.1,0.0550362356007099));
#832=CARTESIAN_POINT('',(-0.05,-0.003,0.0550362356007099));
#833=CARTESIAN_POINT('Origin',(-0.1,-0.1,0.0600362356007099));
#834=CARTESIAN_POINT('',(-0.1,0.00964911064067352,0.0650362356007099));
#835=CARTESIAN_POINT('',(-0.1,0.,0.0650362356007099));
#836=CARTESIAN_POINT('',(-0.1,0.01,0.0650362356007099));
#837=CARTESIAN_POINT('Origin',(-0.1,-0.003,0.0680362356007099));
#838=CARTESIAN_POINT('',(-0.1,-0.003,0.0650362356007099));
#839=CARTESIAN_POINT('',(-0.1,-0.1,0.0650362356007099));
#840=CARTESIAN_POINT('',(-0.1,0.,0.0680362356007099));
#841=CARTESIAN_POINT('Origin',(-0.1,-0.003,0.0680362356007099));
#842=CARTESIAN_POINT('',(-0.1,0.,0.0349647050239391));
#843=CARTESIAN_POINT('Origin',(-0.045,-0.1,0.0650362356007099));
#844=CARTESIAN_POINT('',(0.007,-0.003,0.0650362356007099));
#845=CARTESIAN_POINT('',(0.007,-0.1,0.0650362356007099));
#846=CARTESIAN_POINT('',(-0.045,-0.003,0.0650362356007099));
#847=CARTESIAN_POINT('Origin',(0.01,-0.1,0.0150362356007099));
#848=CARTESIAN_POINT('',(0.01,-0.0667128115650894,0.0306700393548942));
#849=CARTESIAN_POINT('Origin',(0.01,-0.0351992167910308,0.0281551078019351));
#850=CARTESIAN_POINT('',(0.01,-0.1,0.0306700393557548));
#851=CARTESIAN_POINT('',(0.01,-0.0833564057946205,0.0306700393557548));
#852=CARTESIAN_POINT('',(0.01,-0.1,-0.0319637643992901));
#853=CARTESIAN_POINT('',(0.01,-0.1,0.0150362356007099));
#854=CARTESIAN_POINT('',(0.01,-0.003,-0.0319637643992901));
#855=CARTESIAN_POINT('',(0.01,0.,-0.0319637643992901));
#856=CARTESIAN_POINT('',(0.01,-0.003,0.0620362356007099));
#857=CARTESIAN_POINT('',(0.01,-0.003,0.0150362356007099));
#858=CARTESIAN_POINT('',(0.01,-0.1,0.0620362356007099));
#859=CARTESIAN_POINT('Origin',(0.055,-0.1,-0.0349637643992901));
#860=CARTESIAN_POINT('',(0.08,-0.1,-0.0349637643992901));
#861=CARTESIAN_POINT('',(0.013,-0.1,-0.0349637643992901));
#862=CARTESIAN_POINT('',(0.055,-0.1,-0.0349637643992901));
#863=CARTESIAN_POINT('',(0.1,-0.08,-0.0349637643992901));
#864=CARTESIAN_POINT('Origin',(0.08,-0.08,-0.0349637643992901));
#865=CARTESIAN_POINT('',(0.10000000000062,-0.003,-0.0349637644106438));
#866=CARTESIAN_POINT('',(0.1,-0.1,-0.0349637643992901));
#867=CARTESIAN_POINT('',(0.013,-0.003,-0.0349637643992901));
#868=CARTESIAN_POINT('',(0.055,-0.003,-0.0349637643992901));
#869=CARTESIAN_POINT('',(0.013,-0.1,-0.0349637643992901));
#870=CARTESIAN_POINT('Origin',(0.1,-0.1,-0.0399637643992901));
#871=CARTESIAN_POINT('',(0.1,-0.08,-0.0449637643992901));
#872=CARTESIAN_POINT('',(0.1,-0.08,-0.0449637643992901));
#873=CARTESIAN_POINT('',(0.1,0.01,-0.0449637643992901));
#874=CARTESIAN_POINT('',(0.1,-0.1,-0.0449637643992901));
#875=CARTESIAN_POINT('',(0.1,0.01,-0.0349637643992901));
#876=CARTESIAN_POINT('',(0.1,0.01,-0.0399637643992901));
#877=CARTESIAN_POINT('',(0.1,0.01,-0.0349637643992901));
#878=CARTESIAN_POINT('Origin',(0.05,-0.1,-0.0449637643992901));
#879=CARTESIAN_POINT('',(0.08,-0.1,-0.0449637643992901));
#880=CARTESIAN_POINT('Origin',(0.08,-0.08,-0.0449637643992901));
#881=CARTESIAN_POINT('',(0.05,-0.1,-0.0449637643992901));
#882=CARTESIAN_POINT('',(0.05,0.01,-0.0449637643992901));
#883=CARTESIAN_POINT('Origin',(0.013,-0.1,-0.0319637643992901));
#884=CARTESIAN_POINT('Origin',(0.013,-0.1,-0.0319637643992901));
#885=CARTESIAN_POINT('Origin',(0.013,-0.003,-0.0319637643992901));
#886=CARTESIAN_POINT('Origin',(0.013,-0.003,-0.0319637643992901));
#887=CARTESIAN_POINT('',(0.013,0.,-0.0319637643992901));
#888=CARTESIAN_POINT('Origin',(0.013,-0.003,-0.0319637643992901));
#889=CARTESIAN_POINT('Origin',(0.013,-0.003,-0.0319637643992901));
#890=CARTESIAN_POINT('Origin',(0.055,-0.003,-0.0319637643992901));
#891=CARTESIAN_POINT('',(0.0998688820016694,0.,-0.0319637643992901));
#892=CARTESIAN_POINT('Origin',(0.0998688820016694,-0.003,-0.0319637643992901));
#893=CARTESIAN_POINT('',(-0.0282748236429163,0.,-0.0319637643992901));
#894=CARTESIAN_POINT('Origin',(0.013,-0.003,0.0150362356007099));
#895=CARTESIAN_POINT('',(0.013,0.,0.0620362356007099));
#896=CARTESIAN_POINT('Origin',(0.013,-0.003,0.0620362356007099));
#897=CARTESIAN_POINT('',(0.013,0.,0.0349647050239391));
#898=CARTESIAN_POINT('Origin',(0.007,-0.003,0.0620362356007099));
#899=CARTESIAN_POINT('',(0.007,0.,0.0680362356007099));
#900=CARTESIAN_POINT('Origin',(0.007,-0.003,0.0680362356007099));
#901=CARTESIAN_POINT('Origin',(0.007,-0.003,0.0620362356007099));
#902=CARTESIAN_POINT('Origin',(0.007,0.,0.0620362356007099));
#903=CARTESIAN_POINT('Origin',(-0.045,-0.003,0.0680362356007099));
#904=CARTESIAN_POINT('',(-0.0282748236429163,0.,0.0680362356007099));
#905=CARTESIAN_POINT('Origin',(0.007,-0.1,0.0620362356007099));
#906=CARTESIAN_POINT('Origin',(-0.05,-0.003,0.0680362356007099));
#907=CARTESIAN_POINT('',(-0.156549647285833,0.01,0.0680362356007099));
#908=CARTESIAN_POINT('',(-0.156549647285833,0.00964911064067352,0.0650362356007099));
#909=CARTESIAN_POINT('Origin',(-0.156549647285833,-0.003,0.0680362356007099));
#910=CARTESIAN_POINT('',(-0.0282748236429163,0.01,0.0680362356007099));
#911=CARTESIAN_POINT('',(-0.156549647285833,0.00964911064067352,0.0650362356007099));
#912=CARTESIAN_POINT('Origin',(0.08,-0.08,0.0349647050239391));
#913=CARTESIAN_POINT('',(0.08,-0.1,-0.0349637643992901));
#914=CARTESIAN_POINT('Origin',(-0.015,-0.0833564057946205,0.0306700393557548));
#915=CARTESIAN_POINT('',(-0.015,-0.1,0.0306700393557548));
#916=CARTESIAN_POINT('',(-0.015,-0.066712811589241,0.0306700393557548));
#917=CARTESIAN_POINT('Origin',(-0.0282748236429163,0.01,0.0349647050239391));
#918=CARTESIAN_POINT('',(-0.156549647285833,0.01,0.114893174447168));
#919=CARTESIAN_POINT('',(-0.156549647285833,0.01,0.0899647050239392));
#920=CARTESIAN_POINT('',(0.0934503527141674,0.01,0.114893174447168));
#921=CARTESIAN_POINT('',(-0.0315496472858326,0.01,0.114893174447168));
#922=CARTESIAN_POINT('',(0.0967251763570837,0.01,0.0399647050239392));
#923=CARTESIAN_POINT('Origin',(-0.0282748236429163,0.,0.0349647050239391));
#924=CARTESIAN_POINT('',(-0.156549647285833,0.,0.0650362356007099));
#925=CARTESIAN_POINT('',(-0.128274823642916,0.,0.0650362356007099));
#926=CARTESIAN_POINT('',(0.0934503527141674,0.,0.114893174447168));
#927=CARTESIAN_POINT('',(0.0967251763570837,0.,0.0399647050239392));
#928=CARTESIAN_POINT('',(-0.156549647285833,0.,0.114893174447168));
#929=CARTESIAN_POINT('',(-0.0315496472858326,0.,0.114893174447168));
#930=CARTESIAN_POINT('',(-0.156549647285833,0.,0.0899647050239392));
#931=CARTESIAN_POINT('Origin',(-0.128274823642916,0.01,0.0650362356007099));
#932=CARTESIAN_POINT('',(-0.156549647285833,0.01,0.0650362356007099));
#933=CARTESIAN_POINT('Origin',(-0.156549647285833,0.01,0.0899647050239392));
#934=CARTESIAN_POINT('',(-0.156549647285833,0.01,0.114893174447168));
#935=CARTESIAN_POINT('Origin',(-0.0315496472858326,0.01,0.114893174447168));
#936=CARTESIAN_POINT('',(0.0934503527141674,0.01,0.114893174447168));
#937=CARTESIAN_POINT('Origin',(0.0967251763570837,0.01,0.0399647050239392));
#938=CARTESIAN_POINT('Origin',(-0.0282748236429163,-0.1,0.0349647050239391));
#939=CARTESIAN_POINT('Origin',(-0.015,-0.0351992167910308,0.0281551078019351));
#940=UNCERTAINTY_MEASURE_WITH_UNIT(LENGTH_MEASURE(1.E-5),#944,
'DISTANCE_ACCURACY_VALUE',
'Maximum model space distance between geometric entities at asserted c
onnectivities');
#941=UNCERTAINTY_MEASURE_WITH_UNIT(LENGTH_MEASURE(1.E-5),#944,
'DISTANCE_ACCURACY_VALUE',
'Maximum model space distance between geometric entities at asserted c
onnectivities');
#942=(
GEOMETRIC_REPRESENTATION_CONTEXT(3)
GLOBAL_UNCERTAINTY_ASSIGNED_CONTEXT((#940))
GLOBAL_UNIT_ASSIGNED_CONTEXT((#944,#945,#946))
REPRESENTATION_CONTEXT('','3D')
);
#943=(
GEOMETRIC_REPRESENTATION_CONTEXT(3)
GLOBAL_UNCERTAINTY_ASSIGNED_CONTEXT((#941))
GLOBAL_UNIT_ASSIGNED_CONTEXT((#944,#945,#946))
REPRESENTATION_CONTEXT('','3D')
);
#944=(
LENGTH_UNIT()
NAMED_UNIT(*)
SI_UNIT($,.METRE.)
);
#945=(
NAMED_UNIT(*)
PLANE_ANGLE_UNIT()
SI_UNIT($,.RADIAN.)
);
#946=(
NAMED_UNIT(*)
SI_UNIT($,.STERADIAN.)
SOLID_ANGLE_UNIT()
);
#947=SHAPE_DEFINITION_REPRESENTATION(#948,#949);
#948=PRODUCT_DEFINITION_SHAPE('',$,#951);
#949=SHAPE_REPRESENTATION('',(#566),#942);
#950=PRODUCT_DEFINITION_CONTEXT('part definition',#955,'design');
#951=PRODUCT_DEFINITION('Toolpath - Standoff','Toolpath - Standoff v2',
#952,#950);
#952=PRODUCT_DEFINITION_FORMATION('',$,#957);
#953=PRODUCT_RELATED_PRODUCT_CATEGORY('Toolpath - Standoff v2',
'Toolpath - Standoff v2',(#957));
#954=APPLICATION_PROTOCOL_DEFINITION('international standard',
'automotive_design',2009,#955);
#955=APPLICATION_CONTEXT(
'Core Data for Automotive Mechanical Design Process');
#956=PRODUCT_CONTEXT('part definition',#955,'mechanical');
#957=PRODUCT('Toolpath - Standoff','Toolpath - Standoff v2',$,(#956));
#958=PRESENTATION_STYLE_ASSIGNMENT((#960));
#959=PRESENTATION_STYLE_ASSIGNMENT((#961));
#960=SURFACE_STYLE_USAGE(.BOTH.,#962);
#961=SURFACE_STYLE_USAGE(.BOTH.,#963);
#962=SURFACE_SIDE_STYLE('',(#964));
#963=SURFACE_SIDE_STYLE('',(#965));
#964=SURFACE_STYLE_FILL_AREA(#966);
#965=SURFACE_STYLE_FILL_AREA(#967);
#966=FILL_AREA_STYLE('Steel - Satin',(#968));
#967=FILL_AREA_STYLE('Aluminum - Bead Blasted',(#969));
#968=FILL_AREA_STYLE_COLOUR('Steel - Satin',#970);
#969=FILL_AREA_STYLE_COLOUR('Aluminum - Bead Blasted',#971);
#970=COLOUR_RGB('Steel - Satin',0.627450980392157,0.627450980392157,0.627450980392157);
#971=COLOUR_RGB('Aluminum - Bead Blasted',0.96078431372549,0.96078431372549,
0.964705882352941);
ENDSEC;
END-ISO-10303-21;
