ISO-10303-21;
HEADER;
/* Generated by software containing ST-Developer
 * from STEP Tools, Inc. (www.steptools.com) 
 */

FILE_DESCRIPTION(
/* description */ (''),
/* implementation_level */ '2;1');

FILE_NAME(
/* name */ 
'/Users/joakimjohansson/Desktop/Sample parts/Toolpath 2.step',
/* time_stamp */ '2019-05-13T10:14:59+02:00',
/* author */ ('joakim.j.b.johansson@gmail.com'),
/* organization */ (''),
/* preprocessor_version */ 'ST-DEVELOPER v18',
/* originating_system */ 'Autodesk Translation Framework v8.2.0.1029',
/* authorisation */ '');

FILE_SCHEMA (('AUTOMOTIVE_DESIGN { 1 0 10303 214 3 1 1 }'));
ENDSEC;

DATA;
#10=MECHANICAL_DESIGN_GEOMETRIC_PRESENTATION_REPRESENTATION('',(#13),#874);
#11=SHAPE_REPRESENTATION_RELATIONSHIP('SRR','None',#881,#12);
#12=ADVANCED_BREP_SHAPE_REPRESENTATION('',(#14),#873);
#13=STYLED_ITEM('',(#891),#14);
#14=MANIFOLD_SOLID_BREP('Body1',#528);
#15=FACE_BOUND('',#69,.T.);
#16=FACE_BOUND('',#82,.T.);
#17=PLANE('',#547);
#18=PLANE('',#549);
#19=PLANE('',#550);
#20=PLANE('',#552);
#21=PLANE('',#556);
#22=PLANE('',#559);
#23=PLANE('',#562);
#24=PLANE('',#566);
#25=PLANE('',#567);
#26=PLANE('',#568);
#27=PLANE('',#569);
#28=PLANE('',#570);
#29=PLANE('',#571);
#30=PLANE('',#572);
#31=PLANE('',#573);
#32=PLANE('',#574);
#33=PLANE('',#575);
#34=PLANE('',#576);
#35=PLANE('',#577);
#36=PLANE('',#578);
#37=PLANE('',#579);
#38=PLANE('',#580);
#39=FACE_OUTER_BOUND('',#66,.T.);
#40=FACE_OUTER_BOUND('',#67,.T.);
#41=FACE_OUTER_BOUND('',#68,.T.);
#42=FACE_OUTER_BOUND('',#70,.T.);
#43=FACE_OUTER_BOUND('',#71,.T.);
#44=FACE_OUTER_BOUND('',#72,.T.);
#45=FACE_OUTER_BOUND('',#73,.T.);
#46=FACE_OUTER_BOUND('',#74,.T.);
#47=FACE_OUTER_BOUND('',#75,.T.);
#48=FACE_OUTER_BOUND('',#76,.T.);
#49=FACE_OUTER_BOUND('',#77,.T.);
#50=FACE_OUTER_BOUND('',#78,.T.);
#51=FACE_OUTER_BOUND('',#79,.T.);
#52=FACE_OUTER_BOUND('',#80,.T.);
#53=FACE_OUTER_BOUND('',#81,.T.);
#54=FACE_OUTER_BOUND('',#83,.T.);
#55=FACE_OUTER_BOUND('',#84,.T.);
#56=FACE_OUTER_BOUND('',#85,.T.);
#57=FACE_OUTER_BOUND('',#86,.T.);
#58=FACE_OUTER_BOUND('',#87,.T.);
#59=FACE_OUTER_BOUND('',#88,.T.);
#60=FACE_OUTER_BOUND('',#89,.T.);
#61=FACE_OUTER_BOUND('',#90,.T.);
#62=FACE_OUTER_BOUND('',#91,.T.);
#63=FACE_OUTER_BOUND('',#92,.T.);
#64=FACE_OUTER_BOUND('',#93,.T.);
#65=FACE_OUTER_BOUND('',#94,.T.);
#66=EDGE_LOOP('',(#350,#351,#352,#353,#354,#355));
#67=EDGE_LOOP('',(#356,#357,#358,#359,#360));
#68=EDGE_LOOP('',(#361,#362,#363,#364));
#69=EDGE_LOOP('',(#365,#366));
#70=EDGE_LOOP('',(#367,#368,#369,#370,#371));
#71=EDGE_LOOP('',(#372,#373,#374,#375,#376));
#72=EDGE_LOOP('',(#377,#378,#379,#380));
#73=EDGE_LOOP('',(#381,#382,#383,#384,#385,#386,#387,#388));
#74=EDGE_LOOP('',(#389,#390,#391,#392));
#75=EDGE_LOOP('',(#393,#394,#395,#396,#397,#398,#399,#400));
#76=EDGE_LOOP('',(#401,#402,#403,#404));
#77=EDGE_LOOP('',(#405,#406,#407,#408,#409,#410,#411,#412));
#78=EDGE_LOOP('',(#413,#414,#415,#416));
#79=EDGE_LOOP('',(#417,#418,#419,#420,#421,#422,#423,#424));
#80=EDGE_LOOP('',(#425,#426,#427,#428,#429));
#81=EDGE_LOOP('',(#430,#431,#432,#433,#434,#435,#436,#437));
#82=EDGE_LOOP('',(#438,#439));
#83=EDGE_LOOP('',(#440,#441,#442,#443));
#84=EDGE_LOOP('',(#444,#445,#446,#447));
#85=EDGE_LOOP('',(#448,#449,#450,#451,#452,#453));
#86=EDGE_LOOP('',(#454,#455,#456,#457));
#87=EDGE_LOOP('',(#458,#459,#460,#461));
#88=EDGE_LOOP('',(#462,#463,#464,#465,#466,#467));
#89=EDGE_LOOP('',(#468,#469,#470,#471));
#90=EDGE_LOOP('',(#472,#473,#474,#475));
#91=EDGE_LOOP('',(#476,#477,#478,#479,#480,#481));
#92=EDGE_LOOP('',(#482,#483,#484,#485));
#93=EDGE_LOOP('',(#486,#487,#488,#489));
#94=EDGE_LOOP('',(#490,#491,#492,#493,#494,#495));
#95=LINE('',#729,#156);
#96=LINE('',#736,#157);
#97=LINE('',#738,#158);
#98=LINE('',#740,#159);
#99=LINE('',#742,#160);
#100=LINE('',#747,#161);
#101=LINE('',#749,#162);
#102=LINE('',#751,#163);
#103=LINE('',#752,#164);
#104=LINE('',#756,#165);
#105=LINE('',#758,#166);
#106=LINE('',#760,#167);
#107=LINE('',#762,#168);
#108=LINE('',#767,#169);
#109=LINE('',#769,#170);
#110=LINE('',#771,#171);
#111=LINE('',#773,#172);
#112=LINE('',#779,#173);
#113=LINE('',#780,#174);
#114=LINE('',#784,#175);
#115=LINE('',#785,#176);
#116=LINE('',#787,#177);
#117=LINE('',#788,#178);
#118=LINE('',#789,#179);
#119=LINE('',#793,#180);
#120=LINE('',#797,#181);
#121=LINE('',#798,#182);
#122=LINE('',#800,#183);
#123=LINE('',#801,#184);
#124=LINE('',#802,#185);
#125=LINE('',#806,#186);
#126=LINE('',#810,#187);
#127=LINE('',#811,#188);
#128=LINE('',#813,#189);
#129=LINE('',#815,#190);
#130=LINE('',#817,#191);
#131=LINE('',#818,#192);
#132=LINE('',#823,#193);
#133=LINE('',#828,#194);
#134=LINE('',#830,#195);
#135=LINE('',#831,#196);
#136=LINE('',#832,#197);
#137=LINE('',#833,#198);
#138=LINE('',#836,#199);
#139=LINE('',#837,#200);
#140=LINE('',#841,#201);
#141=LINE('',#842,#202);
#142=LINE('',#845,#203);
#143=LINE('',#846,#204);
#144=LINE('',#848,#205);
#145=LINE('',#849,#206);
#146=LINE('',#852,#207);
#147=LINE('',#853,#208);
#148=LINE('',#855,#209);
#149=LINE('',#857,#210);
#150=LINE('',#860,#211);
#151=LINE('',#861,#212);
#152=LINE('',#863,#213);
#153=LINE('',#865,#214);
#154=LINE('',#867,#215);
#155=LINE('',#869,#216);
#156=VECTOR('',#589,3.);
#157=VECTOR('',#596,1000.);
#158=VECTOR('',#597,1000.);
#159=VECTOR('',#598,1000.);
#160=VECTOR('',#599,1000.);
#161=VECTOR('',#604,1000.);
#162=VECTOR('',#605,1000.);
#163=VECTOR('',#606,1000.);
#164=VECTOR('',#607,1000.);
#165=VECTOR('',#610,1000.);
#166=VECTOR('',#611,1000.);
#167=VECTOR('',#612,1000.);
#168=VECTOR('',#613,1000.);
#169=VECTOR('',#618,1000.);
#170=VECTOR('',#619,1000.);
#171=VECTOR('',#620,1000.);
#172=VECTOR('',#621,1000.);
#173=VECTOR('',#628,1000.);
#174=VECTOR('',#629,1000.);
#175=VECTOR('',#632,1000.);
#176=VECTOR('',#633,1000.);
#177=VECTOR('',#634,1000.);
#178=VECTOR('',#635,1000.);
#179=VECTOR('',#636,1000.);
#180=VECTOR('',#641,1000.);
#181=VECTOR('',#644,1000.);
#182=VECTOR('',#645,1000.);
#183=VECTOR('',#646,1000.);
#184=VECTOR('',#647,1000.);
#185=VECTOR('',#648,1000.);
#186=VECTOR('',#653,1000.);
#187=VECTOR('',#656,1000.);
#188=VECTOR('',#657,1000.);
#189=VECTOR('',#658,1000.);
#190=VECTOR('',#659,1000.);
#191=VECTOR('',#660,1000.);
#192=VECTOR('',#661,1000.);
#193=VECTOR('',#666,1000.);
#194=VECTOR('',#671,1000.);
#195=VECTOR('',#672,1000.);
#196=VECTOR('',#673,1000.);
#197=VECTOR('',#674,1000.);
#198=VECTOR('',#675,1000.);
#199=VECTOR('',#678,1000.);
#200=VECTOR('',#679,1000.);
#201=VECTOR('',#684,1000.);
#202=VECTOR('',#685,1000.);
#203=VECTOR('',#688,1000.);
#204=VECTOR('',#689,1000.);
#205=VECTOR('',#692,1000.);
#206=VECTOR('',#693,1000.);
#207=VECTOR('',#696,1000.);
#208=VECTOR('',#697,1000.);
#209=VECTOR('',#700,1000.);
#210=VECTOR('',#703,1000.);
#211=VECTOR('',#706,1000.);
#212=VECTOR('',#707,1000.);
#213=VECTOR('',#710,1000.);
#214=VECTOR('',#713,1000.);
#215=VECTOR('',#716,1000.);
#216=VECTOR('',#719,1000.);
#217=CIRCLE('',#543,3.);
#218=CIRCLE('',#544,3.);
#219=CIRCLE('',#545,3.);
#220=CIRCLE('',#546,3.);
#221=CIRCLE('',#548,30.);
#222=CIRCLE('',#551,30.);
#223=CIRCLE('',#553,30.);
#224=CIRCLE('',#555,30.);
#225=CIRCLE('',#558,30.);
#226=CIRCLE('',#561,30.);
#227=CIRCLE('',#564,30.);
#228=CIRCLE('',#565,30.);
#229=VERTEX_POINT('',#724);
#230=VERTEX_POINT('',#725);
#231=VERTEX_POINT('',#728);
#232=VERTEX_POINT('',#730);
#233=VERTEX_POINT('',#734);
#234=VERTEX_POINT('',#735);
#235=VERTEX_POINT('',#737);
#236=VERTEX_POINT('',#739);
#237=VERTEX_POINT('',#741);
#238=VERTEX_POINT('',#745);
#239=VERTEX_POINT('',#746);
#240=VERTEX_POINT('',#748);
#241=VERTEX_POINT('',#750);
#242=VERTEX_POINT('',#754);
#243=VERTEX_POINT('',#755);
#244=VERTEX_POINT('',#757);
#245=VERTEX_POINT('',#759);
#246=VERTEX_POINT('',#761);
#247=VERTEX_POINT('',#765);
#248=VERTEX_POINT('',#766);
#249=VERTEX_POINT('',#768);
#250=VERTEX_POINT('',#770);
#251=VERTEX_POINT('',#772);
#252=VERTEX_POINT('',#776);
#253=VERTEX_POINT('',#777);
#254=VERTEX_POINT('',#782);
#255=VERTEX_POINT('',#783);
#256=VERTEX_POINT('',#786);
#257=VERTEX_POINT('',#791);
#258=VERTEX_POINT('',#795);
#259=VERTEX_POINT('',#796);
#260=VERTEX_POINT('',#799);
#261=VERTEX_POINT('',#804);
#262=VERTEX_POINT('',#808);
#263=VERTEX_POINT('',#809);
#264=VERTEX_POINT('',#812);
#265=VERTEX_POINT('',#814);
#266=VERTEX_POINT('',#816);
#267=VERTEX_POINT('',#820);
#268=VERTEX_POINT('',#822);
#269=VERTEX_POINT('',#826);
#270=VERTEX_POINT('',#827);
#271=VERTEX_POINT('',#829);
#272=VERTEX_POINT('',#835);
#273=VERTEX_POINT('',#840);
#274=VERTEX_POINT('',#844);
#275=VERTEX_POINT('',#851);
#276=VERTEX_POINT('',#859);
#277=EDGE_CURVE('',#229,#230,#217,.T.);
#278=EDGE_CURVE('',#230,#229,#218,.T.);
#279=EDGE_CURVE('',#230,#231,#95,.T.);
#280=EDGE_CURVE('',#231,#232,#219,.T.);
#281=EDGE_CURVE('',#232,#231,#220,.T.);
#282=EDGE_CURVE('',#233,#234,#96,.T.);
#283=EDGE_CURVE('',#235,#234,#97,.T.);
#284=EDGE_CURVE('',#236,#235,#98,.T.);
#285=EDGE_CURVE('',#236,#237,#99,.T.);
#286=EDGE_CURVE('',#237,#233,#221,.T.);
#287=EDGE_CURVE('',#238,#239,#100,.T.);
#288=EDGE_CURVE('',#240,#238,#101,.T.);
#289=EDGE_CURVE('',#241,#240,#102,.T.);
#290=EDGE_CURVE('',#239,#241,#103,.T.);
#291=EDGE_CURVE('',#242,#243,#104,.T.);
#292=EDGE_CURVE('',#244,#243,#105,.T.);
#293=EDGE_CURVE('',#245,#244,#106,.T.);
#294=EDGE_CURVE('',#245,#246,#107,.T.);
#295=EDGE_CURVE('',#246,#242,#222,.T.);
#296=EDGE_CURVE('',#247,#248,#108,.T.);
#297=EDGE_CURVE('',#249,#248,#109,.T.);
#298=EDGE_CURVE('',#250,#249,#110,.T.);
#299=EDGE_CURVE('',#250,#251,#111,.T.);
#300=EDGE_CURVE('',#251,#247,#223,.T.);
#301=EDGE_CURVE('',#252,#253,#224,.T.);
#302=EDGE_CURVE('',#247,#253,#112,.T.);
#303=EDGE_CURVE('',#251,#252,#113,.T.);
#304=EDGE_CURVE('',#254,#255,#114,.T.);
#305=EDGE_CURVE('',#255,#248,#115,.T.);
#306=EDGE_CURVE('',#253,#256,#116,.T.);
#307=EDGE_CURVE('',#246,#256,#117,.T.);
#308=EDGE_CURVE('',#245,#254,#118,.T.);
#309=EDGE_CURVE('',#256,#257,#225,.T.);
#310=EDGE_CURVE('',#242,#257,#119,.T.);
#311=EDGE_CURVE('',#258,#259,#120,.T.);
#312=EDGE_CURVE('',#259,#243,#121,.T.);
#313=EDGE_CURVE('',#257,#260,#122,.T.);
#314=EDGE_CURVE('',#237,#260,#123,.T.);
#315=EDGE_CURVE('',#236,#258,#124,.T.);
#316=EDGE_CURVE('',#260,#261,#226,.T.);
#317=EDGE_CURVE('',#233,#261,#125,.T.);
#318=EDGE_CURVE('',#262,#263,#126,.T.);
#319=EDGE_CURVE('',#263,#234,#127,.T.);
#320=EDGE_CURVE('',#261,#264,#128,.T.);
#321=EDGE_CURVE('',#265,#264,#129,.T.);
#322=EDGE_CURVE('',#266,#265,#130,.T.);
#323=EDGE_CURVE('',#266,#262,#131,.T.);
#324=EDGE_CURVE('',#264,#267,#227,.T.);
#325=EDGE_CURVE('',#268,#267,#132,.T.);
#326=EDGE_CURVE('',#265,#268,#228,.T.);
#327=EDGE_CURVE('',#269,#270,#133,.T.);
#328=EDGE_CURVE('',#270,#271,#134,.T.);
#329=EDGE_CURVE('',#268,#271,#135,.T.);
#330=EDGE_CURVE('',#267,#252,#136,.T.);
#331=EDGE_CURVE('',#250,#269,#137,.T.);
#332=EDGE_CURVE('',#272,#271,#138,.T.);
#333=EDGE_CURVE('',#266,#272,#139,.T.);
#334=EDGE_CURVE('',#273,#270,#140,.T.);
#335=EDGE_CURVE('',#273,#272,#141,.T.);
#336=EDGE_CURVE('',#249,#274,#142,.T.);
#337=EDGE_CURVE('',#274,#269,#143,.T.);
#338=EDGE_CURVE('',#240,#273,#144,.T.);
#339=EDGE_CURVE('',#274,#241,#145,.T.);
#340=EDGE_CURVE('',#244,#275,#146,.T.);
#341=EDGE_CURVE('',#275,#254,#147,.T.);
#342=EDGE_CURVE('',#274,#255,#148,.T.);
#343=EDGE_CURVE('',#275,#239,#149,.T.);
#344=EDGE_CURVE('',#235,#276,#150,.T.);
#345=EDGE_CURVE('',#276,#258,#151,.T.);
#346=EDGE_CURVE('',#275,#259,#152,.T.);
#347=EDGE_CURVE('',#276,#238,#153,.T.);
#348=EDGE_CURVE('',#273,#262,#154,.T.);
#349=EDGE_CURVE('',#276,#263,#155,.T.);
#350=ORIENTED_EDGE('',*,*,#277,.F.);
#351=ORIENTED_EDGE('',*,*,#278,.F.);
#352=ORIENTED_EDGE('',*,*,#279,.T.);
#353=ORIENTED_EDGE('',*,*,#280,.T.);
#354=ORIENTED_EDGE('',*,*,#281,.T.);
#355=ORIENTED_EDGE('',*,*,#279,.F.);
#356=ORIENTED_EDGE('',*,*,#282,.T.);
#357=ORIENTED_EDGE('',*,*,#283,.F.);
#358=ORIENTED_EDGE('',*,*,#284,.F.);
#359=ORIENTED_EDGE('',*,*,#285,.T.);
#360=ORIENTED_EDGE('',*,*,#286,.T.);
#361=ORIENTED_EDGE('',*,*,#287,.F.);
#362=ORIENTED_EDGE('',*,*,#288,.F.);
#363=ORIENTED_EDGE('',*,*,#289,.F.);
#364=ORIENTED_EDGE('',*,*,#290,.F.);
#365=ORIENTED_EDGE('',*,*,#281,.F.);
#366=ORIENTED_EDGE('',*,*,#280,.F.);
#367=ORIENTED_EDGE('',*,*,#291,.T.);
#368=ORIENTED_EDGE('',*,*,#292,.F.);
#369=ORIENTED_EDGE('',*,*,#293,.F.);
#370=ORIENTED_EDGE('',*,*,#294,.T.);
#371=ORIENTED_EDGE('',*,*,#295,.T.);
#372=ORIENTED_EDGE('',*,*,#296,.T.);
#373=ORIENTED_EDGE('',*,*,#297,.F.);
#374=ORIENTED_EDGE('',*,*,#298,.F.);
#375=ORIENTED_EDGE('',*,*,#299,.T.);
#376=ORIENTED_EDGE('',*,*,#300,.T.);
#377=ORIENTED_EDGE('',*,*,#301,.T.);
#378=ORIENTED_EDGE('',*,*,#302,.F.);
#379=ORIENTED_EDGE('',*,*,#300,.F.);
#380=ORIENTED_EDGE('',*,*,#303,.T.);
#381=ORIENTED_EDGE('',*,*,#304,.T.);
#382=ORIENTED_EDGE('',*,*,#305,.T.);
#383=ORIENTED_EDGE('',*,*,#296,.F.);
#384=ORIENTED_EDGE('',*,*,#302,.T.);
#385=ORIENTED_EDGE('',*,*,#306,.T.);
#386=ORIENTED_EDGE('',*,*,#307,.F.);
#387=ORIENTED_EDGE('',*,*,#294,.F.);
#388=ORIENTED_EDGE('',*,*,#308,.T.);
#389=ORIENTED_EDGE('',*,*,#309,.T.);
#390=ORIENTED_EDGE('',*,*,#310,.F.);
#391=ORIENTED_EDGE('',*,*,#295,.F.);
#392=ORIENTED_EDGE('',*,*,#307,.T.);
#393=ORIENTED_EDGE('',*,*,#311,.T.);
#394=ORIENTED_EDGE('',*,*,#312,.T.);
#395=ORIENTED_EDGE('',*,*,#291,.F.);
#396=ORIENTED_EDGE('',*,*,#310,.T.);
#397=ORIENTED_EDGE('',*,*,#313,.T.);
#398=ORIENTED_EDGE('',*,*,#314,.F.);
#399=ORIENTED_EDGE('',*,*,#285,.F.);
#400=ORIENTED_EDGE('',*,*,#315,.T.);
#401=ORIENTED_EDGE('',*,*,#316,.T.);
#402=ORIENTED_EDGE('',*,*,#317,.F.);
#403=ORIENTED_EDGE('',*,*,#286,.F.);
#404=ORIENTED_EDGE('',*,*,#314,.T.);
#405=ORIENTED_EDGE('',*,*,#318,.T.);
#406=ORIENTED_EDGE('',*,*,#319,.T.);
#407=ORIENTED_EDGE('',*,*,#282,.F.);
#408=ORIENTED_EDGE('',*,*,#317,.T.);
#409=ORIENTED_EDGE('',*,*,#320,.T.);
#410=ORIENTED_EDGE('',*,*,#321,.F.);
#411=ORIENTED_EDGE('',*,*,#322,.F.);
#412=ORIENTED_EDGE('',*,*,#323,.T.);
#413=ORIENTED_EDGE('',*,*,#324,.T.);
#414=ORIENTED_EDGE('',*,*,#325,.F.);
#415=ORIENTED_EDGE('',*,*,#326,.F.);
#416=ORIENTED_EDGE('',*,*,#321,.T.);
#417=ORIENTED_EDGE('',*,*,#327,.T.);
#418=ORIENTED_EDGE('',*,*,#328,.T.);
#419=ORIENTED_EDGE('',*,*,#329,.F.);
#420=ORIENTED_EDGE('',*,*,#325,.T.);
#421=ORIENTED_EDGE('',*,*,#330,.T.);
#422=ORIENTED_EDGE('',*,*,#303,.F.);
#423=ORIENTED_EDGE('',*,*,#299,.F.);
#424=ORIENTED_EDGE('',*,*,#331,.T.);
#425=ORIENTED_EDGE('',*,*,#332,.F.);
#426=ORIENTED_EDGE('',*,*,#333,.F.);
#427=ORIENTED_EDGE('',*,*,#322,.T.);
#428=ORIENTED_EDGE('',*,*,#326,.T.);
#429=ORIENTED_EDGE('',*,*,#329,.T.);
#430=ORIENTED_EDGE('',*,*,#301,.F.);
#431=ORIENTED_EDGE('',*,*,#330,.F.);
#432=ORIENTED_EDGE('',*,*,#324,.F.);
#433=ORIENTED_EDGE('',*,*,#320,.F.);
#434=ORIENTED_EDGE('',*,*,#316,.F.);
#435=ORIENTED_EDGE('',*,*,#313,.F.);
#436=ORIENTED_EDGE('',*,*,#309,.F.);
#437=ORIENTED_EDGE('',*,*,#306,.F.);
#438=ORIENTED_EDGE('',*,*,#277,.T.);
#439=ORIENTED_EDGE('',*,*,#278,.T.);
#440=ORIENTED_EDGE('',*,*,#334,.F.);
#441=ORIENTED_EDGE('',*,*,#335,.T.);
#442=ORIENTED_EDGE('',*,*,#332,.T.);
#443=ORIENTED_EDGE('',*,*,#328,.F.);
#444=ORIENTED_EDGE('',*,*,#298,.T.);
#445=ORIENTED_EDGE('',*,*,#336,.T.);
#446=ORIENTED_EDGE('',*,*,#337,.T.);
#447=ORIENTED_EDGE('',*,*,#331,.F.);
#448=ORIENTED_EDGE('',*,*,#289,.T.);
#449=ORIENTED_EDGE('',*,*,#338,.T.);
#450=ORIENTED_EDGE('',*,*,#334,.T.);
#451=ORIENTED_EDGE('',*,*,#327,.F.);
#452=ORIENTED_EDGE('',*,*,#337,.F.);
#453=ORIENTED_EDGE('',*,*,#339,.T.);
#454=ORIENTED_EDGE('',*,*,#293,.T.);
#455=ORIENTED_EDGE('',*,*,#340,.T.);
#456=ORIENTED_EDGE('',*,*,#341,.T.);
#457=ORIENTED_EDGE('',*,*,#308,.F.);
#458=ORIENTED_EDGE('',*,*,#342,.F.);
#459=ORIENTED_EDGE('',*,*,#336,.F.);
#460=ORIENTED_EDGE('',*,*,#297,.T.);
#461=ORIENTED_EDGE('',*,*,#305,.F.);
#462=ORIENTED_EDGE('',*,*,#341,.F.);
#463=ORIENTED_EDGE('',*,*,#343,.T.);
#464=ORIENTED_EDGE('',*,*,#290,.T.);
#465=ORIENTED_EDGE('',*,*,#339,.F.);
#466=ORIENTED_EDGE('',*,*,#342,.T.);
#467=ORIENTED_EDGE('',*,*,#304,.F.);
#468=ORIENTED_EDGE('',*,*,#284,.T.);
#469=ORIENTED_EDGE('',*,*,#344,.T.);
#470=ORIENTED_EDGE('',*,*,#345,.T.);
#471=ORIENTED_EDGE('',*,*,#315,.F.);
#472=ORIENTED_EDGE('',*,*,#346,.F.);
#473=ORIENTED_EDGE('',*,*,#340,.F.);
#474=ORIENTED_EDGE('',*,*,#292,.T.);
#475=ORIENTED_EDGE('',*,*,#312,.F.);
#476=ORIENTED_EDGE('',*,*,#345,.F.);
#477=ORIENTED_EDGE('',*,*,#347,.T.);
#478=ORIENTED_EDGE('',*,*,#287,.T.);
#479=ORIENTED_EDGE('',*,*,#343,.F.);
#480=ORIENTED_EDGE('',*,*,#346,.T.);
#481=ORIENTED_EDGE('',*,*,#311,.F.);
#482=ORIENTED_EDGE('',*,*,#333,.T.);
#483=ORIENTED_EDGE('',*,*,#335,.F.);
#484=ORIENTED_EDGE('',*,*,#348,.T.);
#485=ORIENTED_EDGE('',*,*,#323,.F.);
#486=ORIENTED_EDGE('',*,*,#349,.F.);
#487=ORIENTED_EDGE('',*,*,#344,.F.);
#488=ORIENTED_EDGE('',*,*,#283,.T.);
#489=ORIENTED_EDGE('',*,*,#319,.F.);
#490=ORIENTED_EDGE('',*,*,#288,.T.);
#491=ORIENTED_EDGE('',*,*,#347,.F.);
#492=ORIENTED_EDGE('',*,*,#349,.T.);
#493=ORIENTED_EDGE('',*,*,#318,.F.);
#494=ORIENTED_EDGE('',*,*,#348,.F.);
#495=ORIENTED_EDGE('',*,*,#338,.F.);
#496=CYLINDRICAL_SURFACE('',#542,3.);
#497=CYLINDRICAL_SURFACE('',#554,30.);
#498=CYLINDRICAL_SURFACE('',#557,30.);
#499=CYLINDRICAL_SURFACE('',#560,30.);
#500=CYLINDRICAL_SURFACE('',#563,30.);
#501=ADVANCED_FACE('',(#39),#496,.F.);
#502=ADVANCED_FACE('',(#40),#17,.F.);
#503=ADVANCED_FACE('',(#41,#15),#18,.F.);
#504=ADVANCED_FACE('',(#42),#19,.F.);
#505=ADVANCED_FACE('',(#43),#20,.F.);
#506=ADVANCED_FACE('',(#44),#497,.T.);
#507=ADVANCED_FACE('',(#45),#21,.F.);
#508=ADVANCED_FACE('',(#46),#498,.T.);
#509=ADVANCED_FACE('',(#47),#22,.F.);
#510=ADVANCED_FACE('',(#48),#499,.T.);
#511=ADVANCED_FACE('',(#49),#23,.F.);
#512=ADVANCED_FACE('',(#50),#500,.T.);
#513=ADVANCED_FACE('',(#51),#24,.F.);
#514=ADVANCED_FACE('',(#52),#25,.F.);
#515=ADVANCED_FACE('',(#53,#16),#26,.T.);
#516=ADVANCED_FACE('',(#54),#27,.F.);
#517=ADVANCED_FACE('',(#55),#28,.F.);
#518=ADVANCED_FACE('',(#56),#29,.F.);
#519=ADVANCED_FACE('',(#57),#30,.F.);
#520=ADVANCED_FACE('',(#58),#31,.F.);
#521=ADVANCED_FACE('',(#59),#32,.F.);
#522=ADVANCED_FACE('',(#60),#33,.F.);
#523=ADVANCED_FACE('',(#61),#34,.F.);
#524=ADVANCED_FACE('',(#62),#35,.F.);
#525=ADVANCED_FACE('',(#63),#36,.F.);
#526=ADVANCED_FACE('',(#64),#37,.F.);
#527=ADVANCED_FACE('',(#65),#38,.F.);
#528=CLOSED_SHELL('',(#501,#502,#503,#504,#505,#506,#507,#508,#509,#510,
#511,#512,#513,#514,#515,#516,#517,#518,#519,#520,#521,#522,#523,#524,#525,
#526,#527));
#529=DERIVED_UNIT_ELEMENT(#531,1.);
#530=DERIVED_UNIT_ELEMENT(#876,3.);
#531=(
MASS_UNIT()
NAMED_UNIT(*)
SI_UNIT(.KILO.,.GRAM.)
);
#532=DERIVED_UNIT((#529,#530));
#533=MEASURE_REPRESENTATION_ITEM('density measure',
POSITIVE_RATIO_MEASURE(7850.),#532);
#534=PROPERTY_DEFINITION_REPRESENTATION(#539,#536);
#535=PROPERTY_DEFINITION_REPRESENTATION(#540,#537);
#536=REPRESENTATION('material name',(#538),#873);
#537=REPRESENTATION('density',(#533),#873);
#538=DESCRIPTIVE_REPRESENTATION_ITEM('Steel','Steel');
#539=PROPERTY_DEFINITION('material property','material name',#883);
#540=PROPERTY_DEFINITION('material property','density of part',#883);
#541=AXIS2_PLACEMENT_3D('placement',#722,#581,#582);
#542=AXIS2_PLACEMENT_3D('',#723,#583,#584);
#543=AXIS2_PLACEMENT_3D('',#726,#585,#586);
#544=AXIS2_PLACEMENT_3D('',#727,#587,#588);
#545=AXIS2_PLACEMENT_3D('',#731,#590,#591);
#546=AXIS2_PLACEMENT_3D('',#732,#592,#593);
#547=AXIS2_PLACEMENT_3D('',#733,#594,#595);
#548=AXIS2_PLACEMENT_3D('',#743,#600,#601);
#549=AXIS2_PLACEMENT_3D('',#744,#602,#603);
#550=AXIS2_PLACEMENT_3D('',#753,#608,#609);
#551=AXIS2_PLACEMENT_3D('',#763,#614,#615);
#552=AXIS2_PLACEMENT_3D('',#764,#616,#617);
#553=AXIS2_PLACEMENT_3D('',#774,#622,#623);
#554=AXIS2_PLACEMENT_3D('',#775,#624,#625);
#555=AXIS2_PLACEMENT_3D('',#778,#626,#627);
#556=AXIS2_PLACEMENT_3D('',#781,#630,#631);
#557=AXIS2_PLACEMENT_3D('',#790,#637,#638);
#558=AXIS2_PLACEMENT_3D('',#792,#639,#640);
#559=AXIS2_PLACEMENT_3D('',#794,#642,#643);
#560=AXIS2_PLACEMENT_3D('',#803,#649,#650);
#561=AXIS2_PLACEMENT_3D('',#805,#651,#652);
#562=AXIS2_PLACEMENT_3D('',#807,#654,#655);
#563=AXIS2_PLACEMENT_3D('',#819,#662,#663);
#564=AXIS2_PLACEMENT_3D('',#821,#664,#665);
#565=AXIS2_PLACEMENT_3D('',#824,#667,#668);
#566=AXIS2_PLACEMENT_3D('',#825,#669,#670);
#567=AXIS2_PLACEMENT_3D('',#834,#676,#677);
#568=AXIS2_PLACEMENT_3D('',#838,#680,#681);
#569=AXIS2_PLACEMENT_3D('',#839,#682,#683);
#570=AXIS2_PLACEMENT_3D('',#843,#686,#687);
#571=AXIS2_PLACEMENT_3D('',#847,#690,#691);
#572=AXIS2_PLACEMENT_3D('',#850,#694,#695);
#573=AXIS2_PLACEMENT_3D('',#854,#698,#699);
#574=AXIS2_PLACEMENT_3D('',#856,#701,#702);
#575=AXIS2_PLACEMENT_3D('',#858,#704,#705);
#576=AXIS2_PLACEMENT_3D('',#862,#708,#709);
#577=AXIS2_PLACEMENT_3D('',#864,#711,#712);
#578=AXIS2_PLACEMENT_3D('',#866,#714,#715);
#579=AXIS2_PLACEMENT_3D('',#868,#717,#718);
#580=AXIS2_PLACEMENT_3D('',#870,#720,#721);
#581=DIRECTION('axis',(0.,0.,1.));
#582=DIRECTION('refdir',(1.,0.,0.));
#583=DIRECTION('center_axis',(0.,0.,1.));
#584=DIRECTION('ref_axis',(1.,0.,0.));
#585=DIRECTION('center_axis',(0.,0.,1.));
#586=DIRECTION('ref_axis',(1.,0.,0.));
#587=DIRECTION('center_axis',(0.,0.,1.));
#588=DIRECTION('ref_axis',(1.,0.,0.));
#589=DIRECTION('',(0.,0.,1.));
#590=DIRECTION('center_axis',(0.,0.,1.));
#591=DIRECTION('ref_axis',(1.,0.,0.));
#592=DIRECTION('center_axis',(0.,0.,1.));
#593=DIRECTION('ref_axis',(1.,0.,0.));
#594=DIRECTION('center_axis',(0.,0.,-1.));
#595=DIRECTION('ref_axis',(-1.,0.,0.));
#596=DIRECTION('',(1.,0.,0.));
#597=DIRECTION('',(1.04744440165294E-14,-1.,0.));
#598=DIRECTION('',(1.,0.,0.));
#599=DIRECTION('',(0.,-1.,0.));
#600=DIRECTION('center_axis',(0.,0.,1.));
#601=DIRECTION('ref_axis',(-1.,0.,0.));
#602=DIRECTION('center_axis',(0.,0.,-1.));
#603=DIRECTION('ref_axis',(-1.,0.,0.));
#604=DIRECTION('',(0.,1.,0.));
#605=DIRECTION('',(-1.,-1.04744440165294E-14,0.));
#606=DIRECTION('',(0.,-1.,0.));
#607=DIRECTION('',(1.,3.49148133884313E-15,0.));
#608=DIRECTION('center_axis',(0.,0.,-1.));
#609=DIRECTION('ref_axis',(-1.,0.,0.));
#610=DIRECTION('',(0.,-1.,0.));
#611=DIRECTION('',(-1.,0.,0.));
#612=DIRECTION('',(3.49148133884313E-15,-1.,0.));
#613=DIRECTION('',(-1.,-3.08395284618099E-16,0.));
#614=DIRECTION('center_axis',(0.,0.,1.));
#615=DIRECTION('ref_axis',(-1.,0.,0.));
#616=DIRECTION('center_axis',(0.,0.,-1.));
#617=DIRECTION('ref_axis',(-1.,0.,0.));
#618=DIRECTION('',(-1.,-3.08395284618099E-16,0.));
#619=DIRECTION('',(-3.49148133884313E-15,1.,0.));
#620=DIRECTION('',(-1.,0.,0.));
#621=DIRECTION('',(0.,1.,0.));
#622=DIRECTION('center_axis',(0.,0.,1.));
#623=DIRECTION('ref_axis',(-1.,0.,0.));
#624=DIRECTION('center_axis',(0.,0.,-1.));
#625=DIRECTION('ref_axis',(-1.,0.,0.));
#626=DIRECTION('center_axis',(0.,0.,1.));
#627=DIRECTION('ref_axis',(-1.,0.,0.));
#628=DIRECTION('',(0.,0.,-1.));
#629=DIRECTION('',(0.,0.,-1.));
#630=DIRECTION('center_axis',(3.08395284618099E-16,-1.,0.));
#631=DIRECTION('ref_axis',(1.,3.08395284618099E-16,0.));
#632=DIRECTION('',(1.,3.49148133884313E-15,0.));
#633=DIRECTION('',(0.242535625036333,7.47968431131085E-17,0.970142500145332));
#634=DIRECTION('',(-1.,-3.08395284618099E-16,0.));
#635=DIRECTION('',(0.,0.,-1.));
#636=DIRECTION('',(0.242535625036333,7.47968431131085E-17,-0.970142500145332));
#637=DIRECTION('center_axis',(0.,0.,-1.));
#638=DIRECTION('ref_axis',(-1.,0.,0.));
#639=DIRECTION('center_axis',(0.,0.,1.));
#640=DIRECTION('ref_axis',(-1.,0.,0.));
#641=DIRECTION('',(0.,0.,-1.));
#642=DIRECTION('center_axis',(1.,0.,0.));
#643=DIRECTION('ref_axis',(0.,0.,-1.));
#644=DIRECTION('',(0.,1.,0.));
#645=DIRECTION('',(0.,0.242535625036333,0.970142500145332));
#646=DIRECTION('',(0.,-1.,0.));
#647=DIRECTION('',(0.,0.,-1.));
#648=DIRECTION('',(0.,0.242535625036333,-0.970142500145332));
#649=DIRECTION('center_axis',(0.,0.,-1.));
#650=DIRECTION('ref_axis',(-1.,0.,0.));
#651=DIRECTION('center_axis',(0.,0.,1.));
#652=DIRECTION('ref_axis',(-1.,0.,0.));
#653=DIRECTION('',(0.,0.,-1.));
#654=DIRECTION('center_axis',(0.,1.,0.));
#655=DIRECTION('ref_axis',(0.,0.,1.));
#656=DIRECTION('',(-1.,-1.04744440165294E-14,0.));
#657=DIRECTION('',(-0.242535625036333,0.,0.970142500145332));
#658=DIRECTION('',(1.,0.,0.));
#659=DIRECTION('',(0.,0.,-1.));
#660=DIRECTION('',(1.,0.,0.));
#661=DIRECTION('',(-0.242535625036333,0.,-0.970142500145332));
#662=DIRECTION('center_axis',(0.,0.,-1.));
#663=DIRECTION('ref_axis',(-1.,0.,0.));
#664=DIRECTION('center_axis',(0.,0.,1.));
#665=DIRECTION('ref_axis',(1.,0.,0.));
#666=DIRECTION('',(0.,0.,-1.));
#667=DIRECTION('center_axis',(0.,0.,1.));
#668=DIRECTION('ref_axis',(1.,0.,0.));
#669=DIRECTION('center_axis',(-1.,0.,0.));
#670=DIRECTION('ref_axis',(0.,0.,1.));
#671=DIRECTION('',(0.,-1.,0.));
#672=DIRECTION('',(0.,-0.242535625036333,0.970142500145332));
#673=DIRECTION('',(0.,1.,0.));
#674=DIRECTION('',(0.,1.,0.));
#675=DIRECTION('',(0.,-0.242535625036333,-0.970142500145332));
#676=DIRECTION('center_axis',(0.,0.,-1.));
#677=DIRECTION('ref_axis',(-1.,0.,0.));
#678=DIRECTION('',(1.,0.,0.));
#679=DIRECTION('',(-1.04744440165294E-14,1.,0.));
#680=DIRECTION('center_axis',(0.,0.,-1.));
#681=DIRECTION('ref_axis',(-1.,0.,0.));
#682=DIRECTION('center_axis',(0.,-0.970142500145332,-0.242535625036333));
#683=DIRECTION('ref_axis',(0.,0.242535625036333,-0.970142500145332));
#684=DIRECTION('',(0.749402818601065,0.160586318271657,-0.642345273086627));
#685=DIRECTION('',(0.235702260395518,-0.235702260395516,0.942809041582063));
#686=DIRECTION('center_axis',(0.,0.970142500145332,-0.242535625036333));
#687=DIRECTION('ref_axis',(0.,0.242535625036333,0.970142500145332));
#688=DIRECTION('',(-0.235702260395515,-0.235702260395516,-0.942809041582064));
#689=DIRECTION('',(0.749402818601065,-0.160586318271657,-0.642345273086627));
#690=DIRECTION('center_axis',(-0.650791373455968,0.,-0.759256602365297));
#691=DIRECTION('ref_axis',(-0.759256602365297,0.,0.650791373455968));
#692=DIRECTION('',(0.604707897906954,-0.604707897906948,-0.518321055348818));
#693=DIRECTION('',(-0.604707897906951,-0.604707897906953,0.518321055348815));
#694=DIRECTION('center_axis',(-0.970142500145332,-3.38723443527605E-15,
-0.242535625036333));
#695=DIRECTION('ref_axis',(-0.242535625036333,-8.46808608819012E-16,0.970142500145332));
#696=DIRECTION('',(0.235702260395517,-0.235702260395516,-0.942809041582063));
#697=DIRECTION('',(0.160586318271654,0.749402818601066,-0.642345273086627));
#698=DIRECTION('center_axis',(0.970142500145332,3.38723443527605E-15,-0.242535625036333));
#699=DIRECTION('ref_axis',(-0.242535625036333,-8.46808608819013E-16,-0.970142500145332));
#700=DIRECTION('',(-0.160586318271659,0.749402818601064,-0.642345273086627));
#701=DIRECTION('center_axis',(2.27222593590161E-15,-0.650791373455968,-0.759256602365297));
#702=DIRECTION('ref_axis',(2.65093025855187E-15,-0.759256602365297,0.650791373455968));
#703=DIRECTION('',(0.604707897906953,-0.604707897906951,0.518321055348817));
#704=DIRECTION('center_axis',(0.,-0.970142500145332,-0.242535625036333));
#705=DIRECTION('ref_axis',(0.,-0.242535625036333,0.970142500145332));
#706=DIRECTION('',(0.235702260395514,0.235702260395516,-0.942809041582064));
#707=DIRECTION('',(-0.749402818601065,0.160586318271657,-0.642345273086627));
#708=DIRECTION('center_axis',(0.,0.970142500145332,-0.242535625036333));
#709=DIRECTION('ref_axis',(0.,-0.242535625036333,-0.970142500145332));
#710=DIRECTION('',(-0.749402818601065,-0.160586318271657,-0.642345273086627));
#711=DIRECTION('center_axis',(0.650791373455968,0.,-0.759256602365297));
#712=DIRECTION('ref_axis',(0.759256602365297,0.,0.650791373455968));
#713=DIRECTION('',(0.60470789790695,0.604707897906956,0.518321055348814));
#714=DIRECTION('center_axis',(0.970142500145332,1.01617033058281E-14,-0.242535625036333));
#715=DIRECTION('ref_axis',(0.242535625036333,2.54042582645704E-15,0.970142500145332));
#716=DIRECTION('',(-0.160586318271649,-0.749402818601067,-0.642345273086627));
#717=DIRECTION('center_axis',(-0.970142500145332,-1.01617033058281E-14,
-0.242535625036333));
#718=DIRECTION('ref_axis',(0.242535625036333,2.54042582645704E-15,-0.970142500145332));
#719=DIRECTION('',(0.160586318271665,-0.749402818601063,-0.642345273086627));
#720=DIRECTION('center_axis',(-6.81667780770482E-15,0.650791373455968,-0.759256602365297));
#721=DIRECTION('ref_axis',(-7.95279077565562E-15,0.759256602365297,0.650791373455968));
#722=CARTESIAN_POINT('',(0.,0.,0.));
#723=CARTESIAN_POINT('Origin',(75.,75.,0.));
#724=CARTESIAN_POINT('',(78.,75.,0.));
#725=CARTESIAN_POINT('',(72.,75.,0.));
#726=CARTESIAN_POINT('Origin',(75.,75.,0.));
#727=CARTESIAN_POINT('Origin',(75.,75.,0.));
#728=CARTESIAN_POINT('',(72.,75.,100.));
#729=CARTESIAN_POINT('',(72.,75.,0.));
#730=CARTESIAN_POINT('',(78.,75.,100.));
#731=CARTESIAN_POINT('Origin',(75.,75.,100.));
#732=CARTESIAN_POINT('Origin',(75.,75.,100.));
#733=CARTESIAN_POINT('Origin',(120.,120.,100.));
#734=CARTESIAN_POINT('',(30.0000000000002,0.,100.));
#735=CARTESIAN_POINT('',(57.5000000000008,-1.38777878078145E-13,100.));
#736=CARTESIAN_POINT('',(30.0000000000002,0.,100.));
#737=CARTESIAN_POINT('',(57.5000000000002,57.5,100.));
#738=CARTESIAN_POINT('',(57.5000000000001,69.9999999999999,100.));
#739=CARTESIAN_POINT('',(5.55111512312578E-14,57.5,100.));
#740=CARTESIAN_POINT('',(70.0000000000001,57.5,100.));
#741=CARTESIAN_POINT('',(0.,30.0000000000002,100.));
#742=CARTESIAN_POINT('',(0.,30.0000000000002,100.));
#743=CARTESIAN_POINT('Origin',(30.,30.,100.));
#744=CARTESIAN_POINT('Origin',(120.,120.,100.));
#745=CARTESIAN_POINT('',(70.0000000000001,70.,100.));
#746=CARTESIAN_POINT('',(70.0000000000001,79.9999999999999,100.));
#747=CARTESIAN_POINT('',(70.0000000000001,92.5,100.));
#748=CARTESIAN_POINT('',(80.,70.0000000000001,100.));
#749=CARTESIAN_POINT('',(57.5000000000001,69.9999999999999,100.));
#750=CARTESIAN_POINT('',(79.9999999999999,80.,100.));
#751=CARTESIAN_POINT('',(79.9999999999999,57.5,100.));
#752=CARTESIAN_POINT('',(92.5,80.,100.));
#753=CARTESIAN_POINT('Origin',(120.,120.,100.));
#754=CARTESIAN_POINT('',(1.04083408558608E-14,120.,100.));
#755=CARTESIAN_POINT('',(5.55111512312578E-14,92.5,100.));
#756=CARTESIAN_POINT('',(0.,30.0000000000002,100.));
#757=CARTESIAN_POINT('',(57.4999999999999,92.5,100.));
#758=CARTESIAN_POINT('',(70.0000000000001,92.5,100.));
#759=CARTESIAN_POINT('',(57.4999999999998,150.,100.));
#760=CARTESIAN_POINT('',(57.5,79.9999999999999,100.));
#761=CARTESIAN_POINT('',(30.,150.,100.));
#762=CARTESIAN_POINT('',(30.,150.,100.));
#763=CARTESIAN_POINT('Origin',(30.,120.,100.));
#764=CARTESIAN_POINT('Origin',(120.,120.,100.));
#765=CARTESIAN_POINT('',(120.,150.,100.));
#766=CARTESIAN_POINT('',(92.4999999999997,150.,100.));
#767=CARTESIAN_POINT('',(30.,150.,100.));
#768=CARTESIAN_POINT('',(92.5,92.5,100.));
#769=CARTESIAN_POINT('',(92.5,80.,100.));
#770=CARTESIAN_POINT('',(150.,92.5,100.));
#771=CARTESIAN_POINT('',(79.9999999999999,92.5,100.));
#772=CARTESIAN_POINT('',(150.,120.,100.));
#773=CARTESIAN_POINT('',(150.,30.,100.));
#774=CARTESIAN_POINT('Origin',(120.,120.,100.));
#775=CARTESIAN_POINT('Origin',(120.,120.,100.));
#776=CARTESIAN_POINT('',(150.,120.,0.));
#777=CARTESIAN_POINT('',(120.,150.,0.));
#778=CARTESIAN_POINT('Origin',(120.,120.,0.));
#779=CARTESIAN_POINT('',(120.,150.,100.));
#780=CARTESIAN_POINT('',(150.,120.,100.));
#781=CARTESIAN_POINT('Origin',(30.,150.,100.));
#782=CARTESIAN_POINT('',(72.4999999999997,150.,40.));
#783=CARTESIAN_POINT('',(77.4999999999997,150.,40.));
#784=CARTESIAN_POINT('',(72.4999999999997,150.,40.));
#785=CARTESIAN_POINT('',(88.8235294117645,150.,85.2941176470589));
#786=CARTESIAN_POINT('',(30.,150.,0.));
#787=CARTESIAN_POINT('',(30.,150.,0.));
#788=CARTESIAN_POINT('',(30.,150.,100.));
#789=CARTESIAN_POINT('',(55.8823529411762,150.,106.470588235294));
#790=CARTESIAN_POINT('Origin',(30.,120.,100.));
#791=CARTESIAN_POINT('',(1.04083408558608E-14,120.,0.));
#792=CARTESIAN_POINT('Origin',(30.,120.,0.));
#793=CARTESIAN_POINT('',(1.04083408558608E-14,120.,100.));
#794=CARTESIAN_POINT('Origin',(0.,30.0000000000002,100.));
#795=CARTESIAN_POINT('',(5.55111512312578E-14,72.5,40.));
#796=CARTESIAN_POINT('',(5.55111512312578E-14,77.5,40.));
#797=CARTESIAN_POINT('',(5.55111512312578E-14,72.5,40.));
#798=CARTESIAN_POINT('',(0.,88.8235294117648,85.2941176470589));
#799=CARTESIAN_POINT('',(0.,30.0000000000002,0.));
#800=CARTESIAN_POINT('',(0.,30.0000000000002,0.));
#801=CARTESIAN_POINT('',(0.,30.0000000000002,100.));
#802=CARTESIAN_POINT('',(0.,55.8823529411765,106.470588235294));
#803=CARTESIAN_POINT('Origin',(30.,30.,100.));
#804=CARTESIAN_POINT('',(30.0000000000002,0.,0.));
#805=CARTESIAN_POINT('Origin',(30.,30.,0.));
#806=CARTESIAN_POINT('',(30.0000000000002,0.,100.));
#807=CARTESIAN_POINT('Origin',(30.0000000000002,0.,100.));
#808=CARTESIAN_POINT('',(77.5000000000008,5.55111512312578E-14,40.));
#809=CARTESIAN_POINT('',(72.5000000000008,0.,40.));
#810=CARTESIAN_POINT('',(77.5000000000008,5.55111512312578E-14,40.));
#811=CARTESIAN_POINT('',(55.8823529411772,0.,106.470588235294));
#812=CARTESIAN_POINT('',(120.,0.,0.));
#813=CARTESIAN_POINT('',(30.0000000000002,0.,0.));
#814=CARTESIAN_POINT('',(120.,0.,100.));
#815=CARTESIAN_POINT('',(120.,0.,100.));
#816=CARTESIAN_POINT('',(92.5000000000008,2.22044604925031E-13,100.));
#817=CARTESIAN_POINT('',(30.0000000000002,0.,100.));
#818=CARTESIAN_POINT('',(88.8235294117655,0.,85.2941176470587));
#819=CARTESIAN_POINT('Origin',(120.,30.,100.));
#820=CARTESIAN_POINT('',(150.,30.,0.));
#821=CARTESIAN_POINT('Origin',(120.,30.,0.));
#822=CARTESIAN_POINT('',(150.,30.,100.));
#823=CARTESIAN_POINT('',(150.,30.,100.));
#824=CARTESIAN_POINT('Origin',(120.,30.,100.));
#825=CARTESIAN_POINT('Origin',(150.,30.,100.));
#826=CARTESIAN_POINT('',(150.,77.5,40.));
#827=CARTESIAN_POINT('',(150.,72.5,40.));
#828=CARTESIAN_POINT('',(150.,77.5,40.));
#829=CARTESIAN_POINT('',(150.,57.5,100.));
#830=CARTESIAN_POINT('',(150.,55.8823529411764,106.470588235294));
#831=CARTESIAN_POINT('',(150.,30.,100.));
#832=CARTESIAN_POINT('',(150.,30.,0.));
#833=CARTESIAN_POINT('',(150.,88.8235294117647,85.2941176470588));
#834=CARTESIAN_POINT('Origin',(120.,120.,100.));
#835=CARTESIAN_POINT('',(92.5000000000002,57.5,100.));
#836=CARTESIAN_POINT('',(79.9999999999999,57.5,100.));
#837=CARTESIAN_POINT('',(92.5000000000001,70.0000000000003,100.));
#838=CARTESIAN_POINT('Origin',(120.,120.,0.));
#839=CARTESIAN_POINT('Origin',(0.,77.6470588235294,19.4117647058824));
#840=CARTESIAN_POINT('',(90.294117647059,59.7058823529412,91.1764705882351));
#841=CARTESIAN_POINT('',(79.9999999999999,57.5,100.));
#842=CARTESIAN_POINT('',(68.3333333333333,81.6666666666667,3.33333333333319));
#843=CARTESIAN_POINT('Origin',(0.,63.5294117647059,-15.8823529411765));
#844=CARTESIAN_POINT('',(90.2941176470588,90.2941176470589,91.1764705882353));
#845=CARTESIAN_POINT('',(60.0000000000001,60.,-30.));
#846=CARTESIAN_POINT('',(79.9999999999999,92.5,100.));
#847=CARTESIAN_POINT('Origin',(83.2941176470588,0.,97.1764705882353));
#848=CARTESIAN_POINT('',(107.686567164179,42.3134328358213,76.2686567164179));
#849=CARTESIAN_POINT('',(52.8358208955223,52.8358208955223,123.283582089552));
#850=CARTESIAN_POINT('Origin',(86.4705882352944,2.79884248965082E-14,-15.8823529411765));
#851=CARTESIAN_POINT('',(59.7058823529412,90.2941176470588,91.1764705882352));
#852=CARTESIAN_POINT('',(90.0000000000001,60.,-30.));
#853=CARTESIAN_POINT('',(57.5,79.9999999999999,100.));
#854=CARTESIAN_POINT('Origin',(72.3529411764709,-2.13030763577478E-14,19.4117647058824));
#855=CARTESIAN_POINT('',(92.5,80.,100.));
#856=CARTESIAN_POINT('Origin',(150.,83.294117647059,97.1764705882353));
#857=CARTESIAN_POINT('',(97.1641791044777,52.8358208955225,123.283582089552));
#858=CARTESIAN_POINT('Origin',(150.,86.4705882352941,-15.8823529411765));
#859=CARTESIAN_POINT('',(59.7058823529413,59.7058823529412,91.1764705882354));
#860=CARTESIAN_POINT('',(89.9999999999998,90.,-29.9999999999999));
#861=CARTESIAN_POINT('',(70.0000000000001,57.5,100.));
#862=CARTESIAN_POINT('Origin',(150.,72.3529411764706,19.4117647058824));
#863=CARTESIAN_POINT('',(70.0000000000001,92.5,100.));
#864=CARTESIAN_POINT('Origin',(66.7058823529412,150.,97.1764705882353));
#865=CARTESIAN_POINT('',(97.1641791044778,97.164179104478,123.283582089552));
#866=CARTESIAN_POINT('Origin',(63.5294117647051,150.,-15.8823529411765));
#867=CARTESIAN_POINT('',(92.5000000000001,70.0000000000003,100.));
#868=CARTESIAN_POINT('Origin',(77.6470588235286,150.,19.4117647058824));
#869=CARTESIAN_POINT('',(57.5000000000001,69.9999999999999,100.));
#870=CARTESIAN_POINT('Origin',(9.53034549627212E-14,66.7058823529404,97.1764705882353));
#871=UNCERTAINTY_MEASURE_WITH_UNIT(LENGTH_MEASURE(0.01),#875,
'DISTANCE_ACCURACY_VALUE',
'Maximum model space distance between geometric entities at asserted c
onnectivities');
#872=UNCERTAINTY_MEASURE_WITH_UNIT(LENGTH_MEASURE(0.01),#875,
'DISTANCE_ACCURACY_VALUE',
'Maximum model space distance between geometric entities at asserted c
onnectivities');
#873=(
GEOMETRIC_REPRESENTATION_CONTEXT(3)
GLOBAL_UNCERTAINTY_ASSIGNED_CONTEXT((#871))
GLOBAL_UNIT_ASSIGNED_CONTEXT((#875,#877,#878))
REPRESENTATION_CONTEXT('','3D')
);
#874=(
GEOMETRIC_REPRESENTATION_CONTEXT(3)
GLOBAL_UNCERTAINTY_ASSIGNED_CONTEXT((#872))
GLOBAL_UNIT_ASSIGNED_CONTEXT((#875,#877,#878))
REPRESENTATION_CONTEXT('','3D')
);
#875=(
LENGTH_UNIT()
NAMED_UNIT(*)
SI_UNIT(.MILLI.,.METRE.)
);
#876=(
LENGTH_UNIT()
NAMED_UNIT(*)
SI_UNIT($,.METRE.)
);
#877=(
NAMED_UNIT(*)
PLANE_ANGLE_UNIT()
SI_UNIT($,.RADIAN.)
);
#878=(
NAMED_UNIT(*)
SI_UNIT($,.STERADIAN.)
SOLID_ANGLE_UNIT()
);
#879=SHAPE_DEFINITION_REPRESENTATION(#880,#881);
#880=PRODUCT_DEFINITION_SHAPE('',$,#883);
#881=SHAPE_REPRESENTATION('',(#541),#873);
#882=PRODUCT_DEFINITION_CONTEXT('part definition',#887,'design');
#883=PRODUCT_DEFINITION('MODEL-09','MODEL-09 v1',#884,#882);
#884=PRODUCT_DEFINITION_FORMATION('',$,#889);
#885=PRODUCT_RELATED_PRODUCT_CATEGORY('MODEL-09 v1','MODEL-09 v1',(#889));
#886=APPLICATION_PROTOCOL_DEFINITION('international standard',
'automotive_design',2009,#887);
#887=APPLICATION_CONTEXT(
'Core Data for Automotive Mechanical Design Process');
#888=PRODUCT_CONTEXT('part definition',#887,'mechanical');
#889=PRODUCT('MODEL-09','MODEL-09 v1',$,(#888));
#890=PRESENTATION_STYLE_ASSIGNMENT((#892));
#891=PRESENTATION_STYLE_ASSIGNMENT((#893));
#892=SURFACE_STYLE_USAGE(.BOTH.,#894);
#893=SURFACE_STYLE_USAGE(.BOTH.,#895);
#894=SURFACE_SIDE_STYLE('',(#896));
#895=SURFACE_SIDE_STYLE('',(#897));
#896=SURFACE_STYLE_FILL_AREA(#898);
#897=SURFACE_STYLE_FILL_AREA(#899);
#898=FILL_AREA_STYLE('Steel - Satin',(#900));
#899=FILL_AREA_STYLE('Aluminum - Bead Blasted',(#901));
#900=FILL_AREA_STYLE_COLOUR('Steel - Satin',#902);
#901=FILL_AREA_STYLE_COLOUR('Aluminum - Bead Blasted',#903);
#902=COLOUR_RGB('Steel - Satin',0.627450980392157,0.627450980392157,0.627450980392157);
#903=COLOUR_RGB('Aluminum - Bead Blasted',0.96078431372549,0.96078431372549,
0.964705882352941);
ENDSEC;
END-ISO-10303-21;
