ISO-10303-21;
HEADER;
/* Generated by software containing ST-Developer
 * from STEP Tools, Inc. (www.steptools.com) 
 */

FILE_DESCRIPTION(
/* description */ (''),
/* implementation_level */ '2;1');

FILE_NAME(
/* name */ 
'/Users/joakimjohansson/Desktop/Sample parts/Toolpath inside corner.st
ep',
/* time_stamp */ '2019-05-13T15:45:47+02:00',
/* author */ ('joakim.j.b.johansson@gmail.com'),
/* organization */ (''),
/* preprocessor_version */ 'ST-DEVELOPER v18',
/* originating_system */ 'Autodesk Translation Framework v8.2.0.1029',
/* authorisation */ '');

FILE_SCHEMA (('AUTOMOTIVE_DESIGN { 1 0 10303 214 3 1 1 }'));
ENDSEC;

DATA;
#10=MECHANICAL_DESIGN_GEOMETRIC_PRESENTATION_REPRESENTATION('',(#13),#255);
#11=SHAPE_REPRESENTATION_RELATIONSHIP('SRR','None',#262,#12);
#12=ADVANCED_BREP_SHAPE_REPRESENTATION('',(#14),#254);
#13=STYLED_ITEM('',(#272),#14);
#14=MANIFOLD_SOLID_BREP('Body1',#152);
#15=FACE_OUTER_BOUND('',#24,.T.);
#16=FACE_OUTER_BOUND('',#25,.T.);
#17=FACE_OUTER_BOUND('',#26,.T.);
#18=FACE_OUTER_BOUND('',#27,.T.);
#19=FACE_OUTER_BOUND('',#28,.T.);
#20=FACE_OUTER_BOUND('',#29,.T.);
#21=FACE_OUTER_BOUND('',#30,.T.);
#22=FACE_OUTER_BOUND('',#31,.T.);
#23=FACE_OUTER_BOUND('',#32,.T.);
#24=EDGE_LOOP('',(#98,#99,#100));
#25=EDGE_LOOP('',(#101,#102,#103));
#26=EDGE_LOOP('',(#104,#105,#106,#107));
#27=EDGE_LOOP('',(#108,#109,#110));
#28=EDGE_LOOP('',(#111,#112,#113,#114));
#29=EDGE_LOOP('',(#115,#116,#117,#118));
#30=EDGE_LOOP('',(#119,#120,#121,#122));
#31=EDGE_LOOP('',(#123,#124,#125,#126));
#32=EDGE_LOOP('',(#127,#128,#129,#130,#131,#132,#133));
#33=LINE('',#217,#51);
#34=LINE('',#219,#52);
#35=LINE('',#220,#53);
#36=LINE('',#223,#54);
#37=LINE('',#224,#55);
#38=LINE('',#227,#56);
#39=LINE('',#229,#57);
#40=LINE('',#230,#58);
#41=LINE('',#233,#59);
#42=LINE('',#234,#60);
#43=LINE('',#237,#61);
#44=LINE('',#239,#62);
#45=LINE('',#240,#63);
#46=LINE('',#243,#64);
#47=LINE('',#245,#65);
#48=LINE('',#246,#66);
#49=LINE('',#248,#67);
#50=LINE('',#249,#68);
#51=VECTOR('',#179,20.);
#52=VECTOR('',#180,20.);
#53=VECTOR('',#181,28.2842712474619);
#54=VECTOR('',#184,20.);
#55=VECTOR('',#185,28.2842712474619);
#56=VECTOR('',#188,160.);
#57=VECTOR('',#189,28.5777043520959);
#58=VECTOR('',#190,164.084750425155);
#59=VECTOR('',#193,28.5777043520959);
#60=VECTOR('',#194,22.5075617972986);
#61=VECTOR('',#197,59.9999999999999);
#62=VECTOR('',#198,34.6410161513775);
#63=VECTOR('',#199,84.0847504251548);
#64=VECTOR('',#202,160.);
#65=VECTOR('',#203,34.6410161513775);
#66=VECTOR('',#204,200.);
#67=VECTOR('',#207,80.);
#68=VECTOR('',#208,60.);
#69=VERTEX_POINT('',#215);
#70=VERTEX_POINT('',#216);
#71=VERTEX_POINT('',#218);
#72=VERTEX_POINT('',#222);
#73=VERTEX_POINT('',#226);
#74=VERTEX_POINT('',#228);
#75=VERTEX_POINT('',#232);
#76=VERTEX_POINT('',#236);
#77=VERTEX_POINT('',#238);
#78=VERTEX_POINT('',#242);
#79=VERTEX_POINT('',#244);
#80=EDGE_CURVE('',#69,#70,#33,.T.);
#81=EDGE_CURVE('',#71,#69,#34,.T.);
#82=EDGE_CURVE('',#70,#71,#35,.T.);
#83=EDGE_CURVE('',#72,#69,#36,.T.);
#84=EDGE_CURVE('',#71,#72,#37,.T.);
#85=EDGE_CURVE('',#71,#73,#38,.T.);
#86=EDGE_CURVE('',#73,#74,#39,.T.);
#87=EDGE_CURVE('',#74,#70,#40,.T.);
#88=EDGE_CURVE('',#75,#73,#41,.T.);
#89=EDGE_CURVE('',#74,#75,#42,.T.);
#90=EDGE_CURVE('',#73,#76,#43,.T.);
#91=EDGE_CURVE('',#76,#77,#44,.T.);
#92=EDGE_CURVE('',#77,#75,#45,.T.);
#93=EDGE_CURVE('',#76,#78,#46,.T.);
#94=EDGE_CURVE('',#78,#79,#47,.T.);
#95=EDGE_CURVE('',#79,#77,#48,.T.);
#96=EDGE_CURVE('',#72,#79,#49,.T.);
#97=EDGE_CURVE('',#78,#71,#50,.T.);
#98=ORIENTED_EDGE('',*,*,#80,.F.);
#99=ORIENTED_EDGE('',*,*,#81,.F.);
#100=ORIENTED_EDGE('',*,*,#82,.F.);
#101=ORIENTED_EDGE('',*,*,#83,.F.);
#102=ORIENTED_EDGE('',*,*,#84,.F.);
#103=ORIENTED_EDGE('',*,*,#81,.T.);
#104=ORIENTED_EDGE('',*,*,#82,.T.);
#105=ORIENTED_EDGE('',*,*,#85,.T.);
#106=ORIENTED_EDGE('',*,*,#86,.T.);
#107=ORIENTED_EDGE('',*,*,#87,.T.);
#108=ORIENTED_EDGE('',*,*,#88,.F.);
#109=ORIENTED_EDGE('',*,*,#89,.F.);
#110=ORIENTED_EDGE('',*,*,#86,.F.);
#111=ORIENTED_EDGE('',*,*,#88,.T.);
#112=ORIENTED_EDGE('',*,*,#90,.T.);
#113=ORIENTED_EDGE('',*,*,#91,.T.);
#114=ORIENTED_EDGE('',*,*,#92,.T.);
#115=ORIENTED_EDGE('',*,*,#93,.T.);
#116=ORIENTED_EDGE('',*,*,#94,.T.);
#117=ORIENTED_EDGE('',*,*,#95,.T.);
#118=ORIENTED_EDGE('',*,*,#91,.F.);
#119=ORIENTED_EDGE('',*,*,#84,.T.);
#120=ORIENTED_EDGE('',*,*,#96,.T.);
#121=ORIENTED_EDGE('',*,*,#94,.F.);
#122=ORIENTED_EDGE('',*,*,#97,.T.);
#123=ORIENTED_EDGE('',*,*,#93,.F.);
#124=ORIENTED_EDGE('',*,*,#90,.F.);
#125=ORIENTED_EDGE('',*,*,#85,.F.);
#126=ORIENTED_EDGE('',*,*,#97,.F.);
#127=ORIENTED_EDGE('',*,*,#80,.T.);
#128=ORIENTED_EDGE('',*,*,#87,.F.);
#129=ORIENTED_EDGE('',*,*,#89,.T.);
#130=ORIENTED_EDGE('',*,*,#92,.F.);
#131=ORIENTED_EDGE('',*,*,#95,.F.);
#132=ORIENTED_EDGE('',*,*,#96,.F.);
#133=ORIENTED_EDGE('',*,*,#83,.T.);
#134=PLANE('',#166);
#135=PLANE('',#167);
#136=PLANE('',#168);
#137=PLANE('',#169);
#138=PLANE('',#170);
#139=PLANE('',#171);
#140=PLANE('',#172);
#141=PLANE('',#173);
#142=PLANE('',#174);
#143=ADVANCED_FACE('',(#15),#134,.F.);
#144=ADVANCED_FACE('',(#16),#135,.F.);
#145=ADVANCED_FACE('',(#17),#136,.T.);
#146=ADVANCED_FACE('',(#18),#137,.F.);
#147=ADVANCED_FACE('',(#19),#138,.T.);
#148=ADVANCED_FACE('',(#20),#139,.T.);
#149=ADVANCED_FACE('',(#21),#140,.T.);
#150=ADVANCED_FACE('',(#22),#141,.T.);
#151=ADVANCED_FACE('',(#23),#142,.F.);
#152=CLOSED_SHELL('',(#143,#144,#145,#146,#147,#148,#149,#150,#151));
#153=DERIVED_UNIT_ELEMENT(#155,1.);
#154=DERIVED_UNIT_ELEMENT(#257,3.);
#155=(
MASS_UNIT()
NAMED_UNIT(*)
SI_UNIT(.KILO.,.GRAM.)
);
#156=DERIVED_UNIT((#153,#154));
#157=MEASURE_REPRESENTATION_ITEM('density measure',
POSITIVE_RATIO_MEASURE(7850.),#156);
#158=PROPERTY_DEFINITION_REPRESENTATION(#163,#160);
#159=PROPERTY_DEFINITION_REPRESENTATION(#164,#161);
#160=REPRESENTATION('material name',(#162),#254);
#161=REPRESENTATION('density',(#157),#254);
#162=DESCRIPTIVE_REPRESENTATION_ITEM('Steel','Steel');
#163=PROPERTY_DEFINITION('material property','material name',#264);
#164=PROPERTY_DEFINITION('material property','density of part',#264);
#165=AXIS2_PLACEMENT_3D('placement',#213,#175,#176);
#166=AXIS2_PLACEMENT_3D('',#214,#177,#178);
#167=AXIS2_PLACEMENT_3D('',#221,#182,#183);
#168=AXIS2_PLACEMENT_3D('',#225,#186,#187);
#169=AXIS2_PLACEMENT_3D('',#231,#191,#192);
#170=AXIS2_PLACEMENT_3D('',#235,#195,#196);
#171=AXIS2_PLACEMENT_3D('',#241,#200,#201);
#172=AXIS2_PLACEMENT_3D('',#247,#205,#206);
#173=AXIS2_PLACEMENT_3D('',#250,#209,#210);
#174=AXIS2_PLACEMENT_3D('',#251,#211,#212);
#175=DIRECTION('axis',(0.,0.,1.));
#176=DIRECTION('refdir',(1.,0.,0.));
#177=DIRECTION('center_axis',(-1.,0.,0.));
#178=DIRECTION('ref_axis',(0.,1.,0.));
#179=DIRECTION('',(0.,-1.,0.));
#180=DIRECTION('',(0.,0.,-1.));
#181=DIRECTION('',(0.,0.707106781186548,0.707106781186548));
#182=DIRECTION('center_axis',(0.,1.,0.));
#183=DIRECTION('ref_axis',(1.,0.,0.));
#184=DIRECTION('',(-1.,0.,0.));
#185=DIRECTION('',(0.707106781186548,0.,-0.707106781186548));
#186=DIRECTION('center_axis',(-2.51214793389404E-16,-0.707106781186548,
0.707106781186548));
#187=DIRECTION('ref_axis',(1.,7.39557098644699E-32,3.5527136788005E-16));
#188=DIRECTION('',(-1.,3.5527136788005E-16,0.));
#189=DIRECTION('',(-0.142934868904377,-0.699846277139233,-0.699846277139233));
#190=DIRECTION('',(1.,-3.5527136788005E-16,0.));
#191=DIRECTION('center_axis',(0.538367233108139,0.538367233108138,-0.648322022324535));
#192=DIRECTION('ref_axis',(0.458432898378255,0.458432898378255,0.761366242598807));
#193=DIRECTION('',(0.699846277139233,0.142934868904376,0.699846277139233));
#194=DIRECTION('',(-0.707106781186547,0.707106781186548,0.));
#195=DIRECTION('center_axis',(-0.707106781186547,5.70942712248646E-16,0.707106781186548));
#196=DIRECTION('ref_axis',(0.707106781186548,0.,0.707106781186547));
#197=DIRECTION('',(8.07434927000115E-16,1.,0.));
#198=DIRECTION('',(-0.577350269189625,0.577350269189626,-0.577350269189626));
#199=DIRECTION('',(-8.07434927000115E-16,-1.,0.));
#200=DIRECTION('center_axis',(0.,0.707106781186548,0.707106781186548));
#201=DIRECTION('ref_axis',(1.,0.,0.));
#202=DIRECTION('',(1.,0.,0.));
#203=DIRECTION('',(0.577350269189626,0.577350269189626,-0.577350269189626));
#204=DIRECTION('',(-1.,0.,0.));
#205=DIRECTION('center_axis',(0.707106781186548,2.51214793389404E-16,0.707106781186548));
#206=DIRECTION('ref_axis',(0.707106781186548,0.,-0.707106781186548));
#207=DIRECTION('',(-3.5527136788005E-16,1.,0.));
#208=DIRECTION('',(3.5527136788005E-16,-1.,0.));
#209=DIRECTION('center_axis',(0.,0.,1.));
#210=DIRECTION('ref_axis',(1.,0.,0.));
#211=DIRECTION('center_axis',(0.,0.,1.));
#212=DIRECTION('ref_axis',(1.,0.,0.));
#213=CARTESIAN_POINT('',(0.,0.,0.));
#214=CARTESIAN_POINT('Origin',(180.,-3.51084381412019,20.));
#215=CARTESIAN_POINT('',(180.,20.,0.));
#216=CARTESIAN_POINT('',(180.,7.10542735760099E-15,0.));
#217=CARTESIAN_POINT('',(180.,23.2445780929399,0.));
#218=CARTESIAN_POINT('',(180.,20.,20.));
#219=CARTESIAN_POINT('',(180.,20.,20.));
#220=CARTESIAN_POINT('',(180.,9.12228904646997,9.12228904646996));
#221=CARTESIAN_POINT('Origin',(180.,20.,20.));
#222=CARTESIAN_POINT('',(200.,20.,0.));
#223=CARTESIAN_POINT('',(140.,20.,0.));
#224=CARTESIAN_POINT('',(185.,20.,15.));
#225=CARTESIAN_POINT('Origin',(50.,10.0000000000001,10.));
#226=CARTESIAN_POINT('',(19.9999999999999,20.0000000000001,20.));
#227=CARTESIAN_POINT('',(50.,20.0000000000001,20.));
#228=CARTESIAN_POINT('',(15.915249574845,6.43929354282591E-14,0.));
#229=CARTESIAN_POINT('',(17.580477739313,8.15339000499595,8.15339000499588));
#230=CARTESIAN_POINT('',(-1.16270629488016E-13,7.105427357601E-14,0.));
#231=CARTESIAN_POINT('Origin',(7.95762478742255,7.95762478742255,0.));
#232=CARTESIAN_POINT('',(-1.0547118733939E-13,15.9152495748452,0.));
#233=CARTESIAN_POINT('',(9.40379545344722,17.8358574486721,9.40379545344732));
#234=CARTESIAN_POINT('',(20.4576247874225,-4.54237521257743,4.44089209850063E-15));
#235=CARTESIAN_POINT('Origin',(9.99999999999994,75.,10.));
#236=CARTESIAN_POINT('',(19.9999999999999,80.,20.));
#237=CARTESIAN_POINT('',(19.9999999999999,75.,20.));
#238=CARTESIAN_POINT('',(-3.5527136788005E-14,100.,0.));
#239=CARTESIAN_POINT('',(19.9999999999999,80.,20.));
#240=CARTESIAN_POINT('',(-3.5527136788005E-14,100.,0.));
#241=CARTESIAN_POINT('Origin',(150.,90.,10.));
#242=CARTESIAN_POINT('',(180.,80.,20.));
#243=CARTESIAN_POINT('',(150.,80.,20.));
#244=CARTESIAN_POINT('',(200.,100.,0.));
#245=CARTESIAN_POINT('',(180.,80.,20.));
#246=CARTESIAN_POINT('',(200.,100.,0.));
#247=CARTESIAN_POINT('Origin',(190.,25.,10.));
#248=CARTESIAN_POINT('',(200.,3.94430452610506E-30,0.));
#249=CARTESIAN_POINT('',(180.,25.,20.));
#250=CARTESIAN_POINT('Origin',(100.,50.,20.));
#251=CARTESIAN_POINT('Origin',(100.,50.,0.));
#252=UNCERTAINTY_MEASURE_WITH_UNIT(LENGTH_MEASURE(0.01),#256,
'DISTANCE_ACCURACY_VALUE',
'Maximum model space distance between geometric entities at asserted c
onnectivities');
#253=UNCERTAINTY_MEASURE_WITH_UNIT(LENGTH_MEASURE(0.01),#256,
'DISTANCE_ACCURACY_VALUE',
'Maximum model space distance between geometric entities at asserted c
onnectivities');
#254=(
GEOMETRIC_REPRESENTATION_CONTEXT(3)
GLOBAL_UNCERTAINTY_ASSIGNED_CONTEXT((#252))
GLOBAL_UNIT_ASSIGNED_CONTEXT((#256,#258,#259))
REPRESENTATION_CONTEXT('','3D')
);
#255=(
GEOMETRIC_REPRESENTATION_CONTEXT(3)
GLOBAL_UNCERTAINTY_ASSIGNED_CONTEXT((#253))
GLOBAL_UNIT_ASSIGNED_CONTEXT((#256,#258,#259))
REPRESENTATION_CONTEXT('','3D')
);
#256=(
LENGTH_UNIT()
NAMED_UNIT(*)
SI_UNIT(.MILLI.,.METRE.)
);
#257=(
LENGTH_UNIT()
NAMED_UNIT(*)
SI_UNIT($,.METRE.)
);
#258=(
NAMED_UNIT(*)
PLANE_ANGLE_UNIT()
SI_UNIT($,.RADIAN.)
);
#259=(
NAMED_UNIT(*)
SI_UNIT($,.STERADIAN.)
SOLID_ANGLE_UNIT()
);
#260=SHAPE_DEFINITION_REPRESENTATION(#261,#262);
#261=PRODUCT_DEFINITION_SHAPE('',$,#264);
#262=SHAPE_REPRESENTATION('',(#165),#254);
#263=PRODUCT_DEFINITION_CONTEXT('part definition',#268,'design');
#264=PRODUCT_DEFINITION('MODEL-06','MODEL-06 v1',#265,#263);
#265=PRODUCT_DEFINITION_FORMATION('',$,#270);
#266=PRODUCT_RELATED_PRODUCT_CATEGORY('MODEL-06 v1','MODEL-06 v1',(#270));
#267=APPLICATION_PROTOCOL_DEFINITION('international standard',
'automotive_design',2009,#268);
#268=APPLICATION_CONTEXT(
'Core Data for Automotive Mechanical Design Process');
#269=PRODUCT_CONTEXT('part definition',#268,'mechanical');
#270=PRODUCT('MODEL-06','MODEL-06 v1',$,(#269));
#271=PRESENTATION_STYLE_ASSIGNMENT((#273));
#272=PRESENTATION_STYLE_ASSIGNMENT((#274));
#273=SURFACE_STYLE_USAGE(.BOTH.,#275);
#274=SURFACE_STYLE_USAGE(.BOTH.,#276);
#275=SURFACE_SIDE_STYLE('',(#277));
#276=SURFACE_SIDE_STYLE('',(#278));
#277=SURFACE_STYLE_FILL_AREA(#279);
#278=SURFACE_STYLE_FILL_AREA(#280);
#279=FILL_AREA_STYLE('Steel - Satin',(#281));
#280=FILL_AREA_STYLE('Aluminum - Bead Blasted',(#282));
#281=FILL_AREA_STYLE_COLOUR('Steel - Satin',#283);
#282=FILL_AREA_STYLE_COLOUR('Aluminum - Bead Blasted',#284);
#283=COLOUR_RGB('Steel - Satin',0.627450980392157,0.627450980392157,0.627450980392157);
#284=COLOUR_RGB('Aluminum - Bead Blasted',0.96078431372549,0.96078431372549,
0.964705882352941);
ENDSEC;
END-ISO-10303-21;
