ISO-10303-21;
HEADER;
/* Generated by software containing ST-Developer
 * from STEP Tools, Inc. (www.steptools.com) 
 */

FILE_DESCRIPTION(
/* description */ (''),
/* implementation_level */ '2;1');

FILE_NAME(
/* name */ '/Volumes/IGEMS/Temp/JJ/Sample parts/Toolpath - Holes.step',

/* time_stamp */ '2019-05-28T10:08:49+02:00',
/* author */ (''),
/* organization */ (''),
/* preprocessor_version */ 'ST-DEVELOPER v18',
/* originating_system */ 'Autodesk Translation Framework v8.2.0.1029',
/* authorisation */ '');

FILE_SCHEMA (('AUTOMOTIVE_DESIGN { 1 0 10303 214 3 1 1 }'));
ENDSEC;

DATA;
#10=MECHANICAL_DESIGN_GEOMETRIC_PRESENTATION_REPRESENTATION('',(#17),#595);
#11=ITEM_DEFINED_TRANSFORMATION($,$,#361,#392);
#12=(
REPRESENTATION_RELATIONSHIP($,$,#606,#605)
REPRESENTATION_RELATIONSHIP_WITH_TRANSFORMATION(#11)
SHAPE_REPRESENTATION_RELATIONSHIP()
);
#13=CONTEXT_DEPENDENT_SHAPE_REPRESENTATION(#12,#604);
#14=NEXT_ASSEMBLY_USAGE_OCCURRENCE('MODEL-14:1','MODEL-14:1',
'MODEL-14:1',#608,#609,'MODEL-14:1');
#15=SHAPE_REPRESENTATION_RELATIONSHIP('SRR','None',#606,#16);
#16=ADVANCED_BREP_SHAPE_REPRESENTATION('',(#18),#594);
#17=STYLED_ITEM('',(#619),#18);
#18=MANIFOLD_SOLID_BREP('Body21',#347);
#19=CONICAL_SURFACE('',#387,9.99999999955603,0.523598775581048);
#20=CONICAL_SURFACE('',#390,9.99999999955599,0.523598775581048);
#21=CYLINDRICAL_SURFACE('',#368,8.99999999917421);
#22=CYLINDRICAL_SURFACE('',#372,10.9999999989907);
#23=CYLINDRICAL_SURFACE('',#375,29.999999996836);
#24=CYLINDRICAL_SURFACE('',#388,8.99999999917419);
#25=FACE_BOUND('',#48,.T.);
#26=FACE_BOUND('',#49,.T.);
#27=FACE_BOUND('',#63,.T.);
#28=FACE_BOUND('',#64,.T.);
#29=FACE_OUTER_BOUND('',#47,.T.);
#30=FACE_OUTER_BOUND('',#50,.T.);
#31=FACE_OUTER_BOUND('',#51,.T.);
#32=FACE_OUTER_BOUND('',#52,.T.);
#33=FACE_OUTER_BOUND('',#53,.T.);
#34=FACE_OUTER_BOUND('',#54,.T.);
#35=FACE_OUTER_BOUND('',#55,.T.);
#36=FACE_OUTER_BOUND('',#56,.T.);
#37=FACE_OUTER_BOUND('',#57,.T.);
#38=FACE_OUTER_BOUND('',#58,.T.);
#39=FACE_OUTER_BOUND('',#59,.T.);
#40=FACE_OUTER_BOUND('',#60,.T.);
#41=FACE_OUTER_BOUND('',#61,.T.);
#42=FACE_OUTER_BOUND('',#62,.T.);
#43=FACE_OUTER_BOUND('',#65,.T.);
#44=FACE_OUTER_BOUND('',#66,.T.);
#45=FACE_OUTER_BOUND('',#67,.T.);
#46=FACE_OUTER_BOUND('',#68,.T.);
#47=EDGE_LOOP('',(#225,#226,#227,#228,#229,#230,#231));
#48=EDGE_LOOP('',(#232,#233));
#49=EDGE_LOOP('',(#234,#235,#236,#237));
#50=EDGE_LOOP('',(#238,#239,#240,#241));
#51=EDGE_LOOP('',(#242,#243,#244,#245));
#52=EDGE_LOOP('',(#246,#247,#248,#249));
#53=EDGE_LOOP('',(#250,#251,#252,#253,#254,#255));
#54=EDGE_LOOP('',(#256,#257,#258,#259));
#55=EDGE_LOOP('',(#260,#261,#262,#263));
#56=EDGE_LOOP('',(#264,#265,#266,#267));
#57=EDGE_LOOP('',(#268,#269,#270,#271));
#58=EDGE_LOOP('',(#272,#273,#274,#275));
#59=EDGE_LOOP('',(#276,#277,#278,#279));
#60=EDGE_LOOP('',(#280,#281,#282,#283));
#61=EDGE_LOOP('',(#284,#285,#286,#287));
#62=EDGE_LOOP('',(#288,#289,#290,#291,#292,#293,#294));
#63=EDGE_LOOP('',(#295,#296,#297,#298));
#64=EDGE_LOOP('',(#299,#300));
#65=EDGE_LOOP('',(#301,#302,#303,#304));
#66=EDGE_LOOP('',(#305,#306,#307,#308));
#67=EDGE_LOOP('',(#309,#310,#311,#312));
#68=EDGE_LOOP('',(#313,#314,#315,#316));
#69=LINE('',#500,#103);
#70=LINE('',#502,#104);
#71=LINE('',#504,#105);
#72=LINE('',#506,#106);
#73=LINE('',#508,#107);
#74=LINE('',#509,#108);
#75=LINE('',#518,#109);
#76=LINE('',#521,#110);
#77=LINE('',#524,#111);
#78=LINE('',#527,#112);
#79=LINE('',#530,#113);
#80=LINE('',#532,#114);
#81=LINE('',#533,#115);
#82=LINE('',#536,#116);
#83=LINE('',#538,#117);
#84=LINE('',#539,#118);
#85=LINE('',#542,#119);
#86=LINE('',#550,#120);
#87=LINE('',#551,#121);
#88=LINE('',#553,#122);
#89=LINE('',#556,#123);
#90=LINE('',#557,#124);
#91=LINE('',#559,#125);
#92=LINE('',#561,#126);
#93=LINE('',#564,#127);
#94=LINE('',#565,#128);
#95=LINE('',#568,#129);
#96=LINE('',#570,#130);
#97=LINE('',#571,#131);
#98=LINE('',#574,#132);
#99=LINE('',#575,#133);
#100=LINE('',#581,#134);
#101=LINE('',#583,#135);
#102=LINE('',#587,#136);
#103=VECTOR('',#401,10.);
#104=VECTOR('',#402,10.);
#105=VECTOR('',#403,10.);
#106=VECTOR('',#404,10.);
#107=VECTOR('',#405,10.);
#108=VECTOR('',#406,10.);
#109=VECTOR('',#413,10.);
#110=VECTOR('',#416,10.);
#111=VECTOR('',#419,10.);
#112=VECTOR('',#422,10.);
#113=VECTOR('',#425,10.);
#114=VECTOR('',#426,10.);
#115=VECTOR('',#427,10.);
#116=VECTOR('',#430,10.);
#117=VECTOR('',#431,10.);
#118=VECTOR('',#432,10.);
#119=VECTOR('',#435,10.9999999989907);
#120=VECTOR('',#444,10.);
#121=VECTOR('',#445,10.);
#122=VECTOR('',#448,10.);
#123=VECTOR('',#451,10.);
#124=VECTOR('',#452,10.);
#125=VECTOR('',#455,10.);
#126=VECTOR('',#458,10.);
#127=VECTOR('',#461,10.);
#128=VECTOR('',#462,10.);
#129=VECTOR('',#465,10.);
#130=VECTOR('',#466,10.);
#131=VECTOR('',#467,10.);
#132=VECTOR('',#470,10.);
#133=VECTOR('',#471,10.);
#134=VECTOR('',#478,10.);
#135=VECTOR('',#481,10.);
#136=VECTOR('',#488,10.);
#137=CIRCLE('',#363,30.0000000088732);
#138=CIRCLE('',#364,11.000000001202);
#139=CIRCLE('',#365,11.000000001202);
#140=CIRCLE('',#366,8.99999999998338);
#141=CIRCLE('',#367,9.00000000098352);
#142=CIRCLE('',#369,8.99999999998318);
#143=CIRCLE('',#373,11.000000001202);
#144=CIRCLE('',#374,11.000000001202);
#145=CIRCLE('',#376,30.0000000077774);
#146=CIRCLE('',#385,19.0000000044178);
#147=CIRCLE('',#386,19.0000000044153);
#148=CIRCLE('',#389,8.99999999998324);
#149=VERTEX_POINT('',#496);
#150=VERTEX_POINT('',#497);
#151=VERTEX_POINT('',#499);
#152=VERTEX_POINT('',#501);
#153=VERTEX_POINT('',#503);
#154=VERTEX_POINT('',#505);
#155=VERTEX_POINT('',#507);
#156=VERTEX_POINT('',#510);
#157=VERTEX_POINT('',#511);
#158=VERTEX_POINT('',#514);
#159=VERTEX_POINT('',#515);
#160=VERTEX_POINT('',#517);
#161=VERTEX_POINT('',#519);
#162=VERTEX_POINT('',#523);
#163=VERTEX_POINT('',#525);
#164=VERTEX_POINT('',#529);
#165=VERTEX_POINT('',#531);
#166=VERTEX_POINT('',#535);
#167=VERTEX_POINT('',#537);
#168=VERTEX_POINT('',#541);
#169=VERTEX_POINT('',#543);
#170=VERTEX_POINT('',#547);
#171=VERTEX_POINT('',#548);
#172=VERTEX_POINT('',#555);
#173=VERTEX_POINT('',#563);
#174=VERTEX_POINT('',#567);
#175=VERTEX_POINT('',#569);
#176=VERTEX_POINT('',#573);
#177=VERTEX_POINT('',#577);
#178=VERTEX_POINT('',#579);
#179=EDGE_CURVE('',#149,#150,#137,.T.);
#180=EDGE_CURVE('',#149,#151,#69,.T.);
#181=EDGE_CURVE('',#151,#152,#70,.T.);
#182=EDGE_CURVE('',#152,#153,#71,.T.);
#183=EDGE_CURVE('',#153,#154,#72,.T.);
#184=EDGE_CURVE('',#154,#155,#73,.T.);
#185=EDGE_CURVE('',#155,#150,#74,.T.);
#186=EDGE_CURVE('',#156,#157,#138,.T.);
#187=EDGE_CURVE('',#157,#156,#139,.T.);
#188=EDGE_CURVE('',#158,#159,#140,.T.);
#189=EDGE_CURVE('',#158,#160,#75,.T.);
#190=EDGE_CURVE('',#161,#160,#141,.T.);
#191=EDGE_CURVE('',#161,#159,#76,.T.);
#192=EDGE_CURVE('',#160,#162,#77,.T.);
#193=EDGE_CURVE('',#162,#163,#142,.T.);
#194=EDGE_CURVE('',#163,#161,#78,.T.);
#195=EDGE_CURVE('',#164,#153,#79,.T.);
#196=EDGE_CURVE('',#152,#165,#80,.T.);
#197=EDGE_CURVE('',#165,#164,#81,.T.);
#198=EDGE_CURVE('',#154,#166,#82,.T.);
#199=EDGE_CURVE('',#166,#167,#83,.T.);
#200=EDGE_CURVE('',#167,#155,#84,.T.);
#201=EDGE_CURVE('',#157,#168,#85,.T.);
#202=EDGE_CURVE('',#168,#169,#143,.T.);
#203=EDGE_CURVE('',#169,#168,#144,.T.);
#204=EDGE_CURVE('',#170,#171,#145,.T.);
#205=EDGE_CURVE('',#171,#149,#86,.T.);
#206=EDGE_CURVE('',#150,#170,#87,.T.);
#207=EDGE_CURVE('',#164,#166,#88,.T.);
#208=EDGE_CURVE('',#151,#172,#89,.T.);
#209=EDGE_CURVE('',#172,#165,#90,.T.);
#210=EDGE_CURVE('',#167,#170,#91,.T.);
#211=EDGE_CURVE('',#171,#172,#92,.T.);
#212=EDGE_CURVE('',#173,#162,#93,.T.);
#213=EDGE_CURVE('',#158,#173,#94,.T.);
#214=EDGE_CURVE('',#173,#174,#95,.T.);
#215=EDGE_CURVE('',#174,#175,#96,.T.);
#216=EDGE_CURVE('',#175,#162,#97,.T.);
#217=EDGE_CURVE('',#163,#176,#98,.T.);
#218=EDGE_CURVE('',#176,#159,#99,.T.);
#219=EDGE_CURVE('',#175,#177,#146,.T.);
#220=EDGE_CURVE('',#178,#174,#147,.T.);
#221=EDGE_CURVE('',#178,#177,#100,.T.);
#222=EDGE_CURVE('',#177,#163,#101,.T.);
#223=EDGE_CURVE('',#176,#173,#148,.T.);
#224=EDGE_CURVE('',#176,#178,#102,.T.);
#225=ORIENTED_EDGE('',*,*,#179,.F.);
#226=ORIENTED_EDGE('',*,*,#180,.T.);
#227=ORIENTED_EDGE('',*,*,#181,.T.);
#228=ORIENTED_EDGE('',*,*,#182,.T.);
#229=ORIENTED_EDGE('',*,*,#183,.T.);
#230=ORIENTED_EDGE('',*,*,#184,.T.);
#231=ORIENTED_EDGE('',*,*,#185,.T.);
#232=ORIENTED_EDGE('',*,*,#186,.F.);
#233=ORIENTED_EDGE('',*,*,#187,.F.);
#234=ORIENTED_EDGE('',*,*,#188,.F.);
#235=ORIENTED_EDGE('',*,*,#189,.T.);
#236=ORIENTED_EDGE('',*,*,#190,.F.);
#237=ORIENTED_EDGE('',*,*,#191,.T.);
#238=ORIENTED_EDGE('',*,*,#190,.T.);
#239=ORIENTED_EDGE('',*,*,#192,.T.);
#240=ORIENTED_EDGE('',*,*,#193,.T.);
#241=ORIENTED_EDGE('',*,*,#194,.T.);
#242=ORIENTED_EDGE('',*,*,#195,.T.);
#243=ORIENTED_EDGE('',*,*,#182,.F.);
#244=ORIENTED_EDGE('',*,*,#196,.T.);
#245=ORIENTED_EDGE('',*,*,#197,.T.);
#246=ORIENTED_EDGE('',*,*,#198,.T.);
#247=ORIENTED_EDGE('',*,*,#199,.T.);
#248=ORIENTED_EDGE('',*,*,#200,.T.);
#249=ORIENTED_EDGE('',*,*,#184,.F.);
#250=ORIENTED_EDGE('',*,*,#186,.T.);
#251=ORIENTED_EDGE('',*,*,#201,.T.);
#252=ORIENTED_EDGE('',*,*,#202,.T.);
#253=ORIENTED_EDGE('',*,*,#203,.T.);
#254=ORIENTED_EDGE('',*,*,#201,.F.);
#255=ORIENTED_EDGE('',*,*,#187,.T.);
#256=ORIENTED_EDGE('',*,*,#204,.T.);
#257=ORIENTED_EDGE('',*,*,#205,.T.);
#258=ORIENTED_EDGE('',*,*,#179,.T.);
#259=ORIENTED_EDGE('',*,*,#206,.T.);
#260=ORIENTED_EDGE('',*,*,#195,.F.);
#261=ORIENTED_EDGE('',*,*,#207,.T.);
#262=ORIENTED_EDGE('',*,*,#198,.F.);
#263=ORIENTED_EDGE('',*,*,#183,.F.);
#264=ORIENTED_EDGE('',*,*,#208,.T.);
#265=ORIENTED_EDGE('',*,*,#209,.T.);
#266=ORIENTED_EDGE('',*,*,#196,.F.);
#267=ORIENTED_EDGE('',*,*,#181,.F.);
#268=ORIENTED_EDGE('',*,*,#206,.F.);
#269=ORIENTED_EDGE('',*,*,#185,.F.);
#270=ORIENTED_EDGE('',*,*,#200,.F.);
#271=ORIENTED_EDGE('',*,*,#210,.T.);
#272=ORIENTED_EDGE('',*,*,#208,.F.);
#273=ORIENTED_EDGE('',*,*,#180,.F.);
#274=ORIENTED_EDGE('',*,*,#205,.F.);
#275=ORIENTED_EDGE('',*,*,#211,.T.);
#276=ORIENTED_EDGE('',*,*,#212,.T.);
#277=ORIENTED_EDGE('',*,*,#192,.F.);
#278=ORIENTED_EDGE('',*,*,#189,.F.);
#279=ORIENTED_EDGE('',*,*,#213,.T.);
#280=ORIENTED_EDGE('',*,*,#214,.T.);
#281=ORIENTED_EDGE('',*,*,#215,.T.);
#282=ORIENTED_EDGE('',*,*,#216,.T.);
#283=ORIENTED_EDGE('',*,*,#212,.F.);
#284=ORIENTED_EDGE('',*,*,#217,.T.);
#285=ORIENTED_EDGE('',*,*,#218,.T.);
#286=ORIENTED_EDGE('',*,*,#191,.F.);
#287=ORIENTED_EDGE('',*,*,#194,.F.);
#288=ORIENTED_EDGE('',*,*,#197,.F.);
#289=ORIENTED_EDGE('',*,*,#209,.F.);
#290=ORIENTED_EDGE('',*,*,#211,.F.);
#291=ORIENTED_EDGE('',*,*,#204,.F.);
#292=ORIENTED_EDGE('',*,*,#210,.F.);
#293=ORIENTED_EDGE('',*,*,#199,.F.);
#294=ORIENTED_EDGE('',*,*,#207,.F.);
#295=ORIENTED_EDGE('',*,*,#219,.F.);
#296=ORIENTED_EDGE('',*,*,#215,.F.);
#297=ORIENTED_EDGE('',*,*,#220,.F.);
#298=ORIENTED_EDGE('',*,*,#221,.T.);
#299=ORIENTED_EDGE('',*,*,#203,.F.);
#300=ORIENTED_EDGE('',*,*,#202,.F.);
#301=ORIENTED_EDGE('',*,*,#222,.T.);
#302=ORIENTED_EDGE('',*,*,#193,.F.);
#303=ORIENTED_EDGE('',*,*,#216,.F.);
#304=ORIENTED_EDGE('',*,*,#219,.T.);
#305=ORIENTED_EDGE('',*,*,#223,.T.);
#306=ORIENTED_EDGE('',*,*,#213,.F.);
#307=ORIENTED_EDGE('',*,*,#188,.T.);
#308=ORIENTED_EDGE('',*,*,#218,.F.);
#309=ORIENTED_EDGE('',*,*,#224,.T.);
#310=ORIENTED_EDGE('',*,*,#220,.T.);
#311=ORIENTED_EDGE('',*,*,#214,.F.);
#312=ORIENTED_EDGE('',*,*,#223,.F.);
#313=ORIENTED_EDGE('',*,*,#224,.F.);
#314=ORIENTED_EDGE('',*,*,#217,.F.);
#315=ORIENTED_EDGE('',*,*,#222,.F.);
#316=ORIENTED_EDGE('',*,*,#221,.F.);
#317=PLANE('',#362);
#318=PLANE('',#370);
#319=PLANE('',#371);
#320=PLANE('',#377);
#321=PLANE('',#378);
#322=PLANE('',#379);
#323=PLANE('',#380);
#324=PLANE('',#381);
#325=PLANE('',#382);
#326=PLANE('',#383);
#327=PLANE('',#384);
#328=PLANE('',#391);
#329=ADVANCED_FACE('',(#29,#25,#26),#317,.T.);
#330=ADVANCED_FACE('',(#30),#21,.F.);
#331=ADVANCED_FACE('',(#31),#318,.T.);
#332=ADVANCED_FACE('',(#32),#319,.T.);
#333=ADVANCED_FACE('',(#33),#22,.F.);
#334=ADVANCED_FACE('',(#34),#23,.T.);
#335=ADVANCED_FACE('',(#35),#320,.T.);
#336=ADVANCED_FACE('',(#36),#321,.T.);
#337=ADVANCED_FACE('',(#37),#322,.T.);
#338=ADVANCED_FACE('',(#38),#323,.T.);
#339=ADVANCED_FACE('',(#39),#324,.T.);
#340=ADVANCED_FACE('',(#40),#325,.T.);
#341=ADVANCED_FACE('',(#41),#326,.T.);
#342=ADVANCED_FACE('',(#42,#27,#28),#327,.T.);
#343=ADVANCED_FACE('',(#43),#19,.F.);
#344=ADVANCED_FACE('',(#44),#24,.F.);
#345=ADVANCED_FACE('',(#45),#20,.F.);
#346=ADVANCED_FACE('',(#46),#328,.T.);
#347=CLOSED_SHELL('',(#329,#330,#331,#332,#333,#334,#335,#336,#337,#338,
#339,#340,#341,#342,#343,#344,#345,#346));
#348=DERIVED_UNIT_ELEMENT(#350,1.);
#349=DERIVED_UNIT_ELEMENT(#597,3.);
#350=(
MASS_UNIT()
NAMED_UNIT(*)
SI_UNIT(.KILO.,.GRAM.)
);
#351=DERIVED_UNIT((#348,#349));
#352=MEASURE_REPRESENTATION_ITEM('density measure',
POSITIVE_RATIO_MEASURE(7850.),#351);
#353=PROPERTY_DEFINITION_REPRESENTATION(#358,#355);
#354=PROPERTY_DEFINITION_REPRESENTATION(#359,#356);
#355=REPRESENTATION('material name',(#357),#594);
#356=REPRESENTATION('density',(#352),#594);
#357=DESCRIPTIVE_REPRESENTATION_ITEM('Steel','Steel');
#358=PROPERTY_DEFINITION('material property','material name',#609);
#359=PROPERTY_DEFINITION('material property','density of part',#609);
#360=AXIS2_PLACEMENT_3D('placement',#493,#393,#394);
#361=AXIS2_PLACEMENT_3D('placement',#494,#395,#396);
#362=AXIS2_PLACEMENT_3D('',#495,#397,#398);
#363=AXIS2_PLACEMENT_3D('',#498,#399,#400);
#364=AXIS2_PLACEMENT_3D('',#512,#407,#408);
#365=AXIS2_PLACEMENT_3D('',#513,#409,#410);
#366=AXIS2_PLACEMENT_3D('',#516,#411,#412);
#367=AXIS2_PLACEMENT_3D('',#520,#414,#415);
#368=AXIS2_PLACEMENT_3D('',#522,#417,#418);
#369=AXIS2_PLACEMENT_3D('',#526,#420,#421);
#370=AXIS2_PLACEMENT_3D('',#528,#423,#424);
#371=AXIS2_PLACEMENT_3D('',#534,#428,#429);
#372=AXIS2_PLACEMENT_3D('',#540,#433,#434);
#373=AXIS2_PLACEMENT_3D('',#544,#436,#437);
#374=AXIS2_PLACEMENT_3D('',#545,#438,#439);
#375=AXIS2_PLACEMENT_3D('',#546,#440,#441);
#376=AXIS2_PLACEMENT_3D('',#549,#442,#443);
#377=AXIS2_PLACEMENT_3D('',#552,#446,#447);
#378=AXIS2_PLACEMENT_3D('',#554,#449,#450);
#379=AXIS2_PLACEMENT_3D('',#558,#453,#454);
#380=AXIS2_PLACEMENT_3D('',#560,#456,#457);
#381=AXIS2_PLACEMENT_3D('',#562,#459,#460);
#382=AXIS2_PLACEMENT_3D('',#566,#463,#464);
#383=AXIS2_PLACEMENT_3D('',#572,#468,#469);
#384=AXIS2_PLACEMENT_3D('',#576,#472,#473);
#385=AXIS2_PLACEMENT_3D('',#578,#474,#475);
#386=AXIS2_PLACEMENT_3D('',#580,#476,#477);
#387=AXIS2_PLACEMENT_3D('',#582,#479,#480);
#388=AXIS2_PLACEMENT_3D('',#584,#482,#483);
#389=AXIS2_PLACEMENT_3D('',#585,#484,#485);
#390=AXIS2_PLACEMENT_3D('',#586,#486,#487);
#391=AXIS2_PLACEMENT_3D('',#588,#489,#490);
#392=AXIS2_PLACEMENT_3D('',#589,#491,#492);
#393=DIRECTION('axis',(0.,0.,1.));
#394=DIRECTION('refdir',(1.,0.,0.));
#395=DIRECTION('axis',(0.,0.,1.));
#396=DIRECTION('refdir',(1.,0.,0.));
#397=DIRECTION('center_axis',(0.,0.,-1.));
#398=DIRECTION('ref_axis',(-1.,0.,0.));
#399=DIRECTION('center_axis',(0.,0.,1.));
#400=DIRECTION('ref_axis',(0.258819047259664,-0.965925825711064,0.));
#401=DIRECTION('',(-1.,0.,0.));
#402=DIRECTION('',(-0.707106781752233,0.707106780620862,0.));
#403=DIRECTION('',(0.,1.,0.));
#404=DIRECTION('',(1.,0.,0.));
#405=DIRECTION('',(0.707106780997698,-0.707106781375398,0.));
#406=DIRECTION('',(0.,-1.,0.));
#407=DIRECTION('center_axis',(0.,0.,-1.));
#408=DIRECTION('ref_axis',(1.09275013268546E-10,-1.,0.));
#409=DIRECTION('center_axis',(0.,0.,-1.));
#410=DIRECTION('ref_axis',(1.09275013268546E-10,-1.,0.));
#411=DIRECTION('center_axis',(0.,0.,-1.));
#412=DIRECTION('ref_axis',(1.,6.32427443748642E-11,0.));
#413=DIRECTION('',(-0.707106778936548,0.707106783436547,0.));
#414=DIRECTION('center_axis',(0.,0.,-1.));
#415=DIRECTION('ref_axis',(-1.0927949901814E-10,1.,0.));
#416=DIRECTION('',(0.707106784141093,-0.707106778232002,0.));
#417=DIRECTION('center_axis',(0.,0.,-1.));
#418=DIRECTION('ref_axis',(-1.,-9.86864910868466E-16,0.));
#419=DIRECTION('',(0.,0.,1.));
#420=DIRECTION('center_axis',(0.,0.,1.));
#421=DIRECTION('ref_axis',(-0.707106781153992,-0.707106781219103,0.));
#422=DIRECTION('',(0.,0.,-1.));
#423=DIRECTION('center_axis',(-0.707106781186548,0.,0.707106781186547));
#424=DIRECTION('ref_axis',(0.707106781186547,0.,0.707106781186548));
#425=DIRECTION('',(-0.577350269097983,-0.577350269372912,-0.577350269097983));
#426=DIRECTION('',(0.678598344549144,0.281084637698898,0.678598344549145));
#427=DIRECTION('',(0.,1.,0.));
#428=DIRECTION('center_axis',(0.49999999999133,0.500000000003442,-0.707106781190244));
#429=DIRECTION('ref_axis',(-0.816496580933868,0.,-0.577350269180939));
#430=DIRECTION('',(0.281084636630957,0.678598345250841,0.678598344289804));
#431=DIRECTION('',(0.70710678129237,-0.707106781080725,1.50844811569871E-10));
#432=DIRECTION('',(2.48938569101262E-10,-0.816496581004478,-0.577350269081082));
#433=DIRECTION('center_axis',(0.,0.,-1.));
#434=DIRECTION('ref_axis',(-1.,0.,0.));
#435=DIRECTION('',(0.,0.,1.));
#436=DIRECTION('center_axis',(-9.74660175899322E-16,-9.74660175899321E-16,
1.));
#437=DIRECTION('ref_axis',(1.09273398398693E-10,1.,8.07434926911882E-16));
#438=DIRECTION('center_axis',(-9.74660175899322E-16,-9.74660175899321E-16,
1.));
#439=DIRECTION('ref_axis',(1.09273398398693E-10,1.,8.07434926911882E-16));
#440=DIRECTION('center_axis',(0.,0.,1.));
#441=DIRECTION('ref_axis',(0.707106781194881,-0.707106781178214,0.));
#442=DIRECTION('center_axis',(-2.56219399152246E-14,3.94513538972206E-15,
-1.));
#443=DIRECTION('ref_axis',(0.965925825709819,-0.258819047264308,-2.57571741646262E-14));
#444=DIRECTION('',(0.,0.,-1.));
#445=DIRECTION('',(0.,0.,1.));
#446=DIRECTION('center_axis',(0.,0.707106781186547,-0.707106781186548));
#447=DIRECTION('ref_axis',(-1.,0.,0.));
#448=DIRECTION('',(1.,0.,0.));
#449=DIRECTION('center_axis',(-0.499999999998953,-0.499999999996506,0.707106781189759));
#450=DIRECTION('ref_axis',(0.816496580929532,0.,0.577350269187072));
#451=DIRECTION('',(0.816496580929532,0.,0.577350269187072));
#452=DIRECTION('',(-0.707106781189848,0.707106781183247,-9.09797559663053E-12));
#453=DIRECTION('center_axis',(1.,0.,0.));
#454=DIRECTION('ref_axis',(0.,0.,-1.));
#455=DIRECTION('',(0.,-1.,0.));
#456=DIRECTION('center_axis',(0.,-1.,0.));
#457=DIRECTION('ref_axis',(0.,0.,-1.));
#458=DIRECTION('',(-1.,0.,0.));
#459=DIRECTION('center_axis',(-0.707106781186548,-0.707106781186547,0.));
#460=DIRECTION('ref_axis',(0.,0.,1.));
#461=DIRECTION('',(-0.707106781186547,0.707106781186548,0.));
#462=DIRECTION('',(0.,0.,1.));
#463=DIRECTION('center_axis',(-0.612372435704109,-0.612372435694638,0.499999999991234));
#464=DIRECTION('ref_axis',(0.632455532021871,0.,0.774596669251122));
#465=DIRECTION('',(0.353553390239874,0.353553390934277,0.866025403789499));
#466=DIRECTION('',(-0.70710678138883,0.707106780984265,-5.08883844295672E-10));
#467=DIRECTION('',(-0.353553390396286,-0.353553390777865,-0.8660254037895));
#468=DIRECTION('center_axis',(0.707106781186547,0.707106781186548,0.));
#469=DIRECTION('ref_axis',(0.,0.,-1.));
#470=DIRECTION('',(0.707106781186548,-0.707106781186547,0.));
#471=DIRECTION('',(0.,0.,-1.));
#472=DIRECTION('center_axis',(0.,0.,1.));
#473=DIRECTION('ref_axis',(1.,0.,0.));
#474=DIRECTION('center_axis',(2.42018139061192E-14,3.30111780748312E-14,
1.));
#475=DIRECTION('ref_axis',(0.499999998055539,0.866025404907074,-4.06692223662864E-14));
#476=DIRECTION('center_axis',(-2.42018139061163E-14,-3.30111780748272E-14,
1.));
#477=DIRECTION('ref_axis',(-0.499999998055529,-0.866025404907079,-4.06692223662916E-14));
#478=DIRECTION('',(-0.707106780595639,0.707106781777456,0.));
#479=DIRECTION('center_axis',(-4.94430549698038E-12,-3.39623357381867E-12,
1.));
#480=DIRECTION('ref_axis',(-0.707106780963571,0.707106781409524,-1.09465215277239E-12));
#481=DIRECTION('',(0.353553390576507,0.353553390576507,-0.866025403798129));
#482=DIRECTION('center_axis',(0.,0.,-1.));
#483=DIRECTION('ref_axis',(0.707106781186548,-0.707106781186547,0.));
#484=DIRECTION('center_axis',(0.,0.,1.));
#485=DIRECTION('ref_axis',(-6.32402772125883E-11,-1.,0.));
#486=DIRECTION('center_axis',(4.9446635604389E-12,3.39622575835569E-12,
1.));
#487=DIRECTION('ref_axis',(0.707106781286231,-0.707106781086864,-1.09491087093008E-12));
#488=DIRECTION('',(-0.353553390576507,-0.353553390576507,0.866025403798129));
#489=DIRECTION('center_axis',(0.612372435698672,0.612372435701489,0.499999999989502));
#490=DIRECTION('ref_axis',(0.632455532023925,0.,-0.774596669249444));
#491=DIRECTION('',(0.,0.,1.));
#492=DIRECTION('',(1.,0.,0.));
#493=CARTESIAN_POINT('',(0.,0.,0.));
#494=CARTESIAN_POINT('',(0.,0.,0.));
#495=CARTESIAN_POINT('Origin',(75.022594268,-9.693380839,0.));
#496=CARTESIAN_POINT('',(107.522594268,-9.69338083819907,0.));
#497=CARTESIAN_POINT('',(137.522594270577,20.3066191607071,0.));
#498=CARTESIAN_POINT('Origin',(107.522594268058,20.3066191710746,0.));
#499=CARTESIAN_POINT('',(27.5225942685395,-9.69338084013623,-3.61334095365907E-10));
#500=CARTESIAN_POINT('',(107.522594268,-9.693380839,0.));
#501=CARTESIAN_POINT('',(12.5225942635166,5.30661915210405,-1.46689107183932E-9));
#502=CARTESIAN_POINT('',(27.522594268,-9.693380839,0.));
#503=CARTESIAN_POINT('',(12.5225942694815,94.306619158037,1.11111120304486E-9));
#504=CARTESIAN_POINT('',(12.522594268,5.306619137,0.));
#505=CARTESIAN_POINT('',(103.824109486605,94.3066191686399,4.37057135516714E-9));
#506=CARTESIAN_POINT('',(12.522594268,94.306619161,0.));
#507=CARTESIAN_POINT('',(137.522594272589,60.6081343794591,6.34433542738103E-9));
#508=CARTESIAN_POINT('',(103.824109518,94.306619161,0.));
#509=CARTESIAN_POINT('',(137.522594268,60.608134393,0.));
#510=CARTESIAN_POINT('',(86.5225942671987,75.306619161,0.));
#511=CARTESIAN_POINT('',(108.522594265981,75.306619161,0.));
#512=CARTESIAN_POINT('Origin',(97.522594266798,75.306619162202,0.));
#513=CARTESIAN_POINT('Origin',(97.522594266798,75.306619162202,0.));
#514=CARTESIAN_POINT('',(92.7002637841303,33.7147360551303,0.));
#515=CARTESIAN_POINT('',(79.9723417496855,20.9868140206855,0.));
#516=CARTESIAN_POINT('Origin',(86.3363027670166,27.3507750374308,0.));
#517=CARTESIAN_POINT('',(77.1439146147551,49.2710852577551,0.));
#518=CARTESIAN_POINT('',(92.700263768,33.714736017,0.));
#519=CARTESIAN_POINT('',(64.4159925424061,36.5431631854061,0.));
#520=CARTESIAN_POINT('Origin',(70.7799535819835,42.9071242230165,0.));
#521=CARTESIAN_POINT('',(64.415992518,36.543163177,0.));
#522=CARTESIAN_POINT('Origin',(70.7799535801742,42.907124224,1.839745962));
#523=CARTESIAN_POINT('',(77.1439146131057,49.2710852530955,3.67949192397439));
#524=CARTESIAN_POINT('',(77.1439146113909,49.2710852543909,0.));
#525=CARTESIAN_POINT('',(64.4159925506091,36.5431631936091,3.679491924));
#526=CARTESIAN_POINT('Origin',(70.7799535809832,42.9071242245692,3.679491924));
#527=CARTESIAN_POINT('',(64.4159925506091,36.5431631936091,3.679491924));
#528=CARTESIAN_POINT('Origin',(23.022594268,5.306619161,10.5));
#529=CARTESIAN_POINT('',(33.522594268,115.306619161,21.));
#530=CARTESIAN_POINT('',(33.522594268,115.306619161,21.));
#531=CARTESIAN_POINT('',(33.5225942677118,14.0051039700118,20.9999999994912));
#532=CARTESIAN_POINT('',(12.522594268,5.306619161,1.06581410355E-14));
#533=CARTESIAN_POINT('',(33.522594268,14.0051039703,21.));
#534=CARTESIAN_POINT('Origin',(131.2395134665,60.608134351,-4.44280904150001));
#535=CARTESIAN_POINT('',(112.522594247783,115.30661917127,20.999999998049));
#536=CARTESIAN_POINT('',(103.824109463404,94.3066191447889,-7.68708208198632E-9));
#537=CARTESIAN_POINT('',(137.522594266335,90.3066191700867,21.0000000023896));
#538=CARTESIAN_POINT('',(112.522594245909,115.306619181603,20.9999999993864));
#539=CARTESIAN_POINT('',(137.522594264719,90.3066191702757,21.0000000047196));
#540=CARTESIAN_POINT('Origin',(97.5225942669907,75.306619161,10.5));
#541=CARTESIAN_POINT('',(108.522594265981,75.306619161,21.));
#542=CARTESIAN_POINT('',(108.522594265981,75.306619161,10.5));
#543=CARTESIAN_POINT('',(86.5225942671987,75.306619161,21.));
#544=CARTESIAN_POINT('Origin',(97.522594266798,75.306619159798,21.));
#545=CARTESIAN_POINT('Origin',(97.522594266798,75.306619159798,21.));
#546=CARTESIAN_POINT('Origin',(107.522594265359,20.3066191626409,10.5));
#547=CARTESIAN_POINT('',(137.522594267199,20.3066191607071,21.));
#548=CARTESIAN_POINT('',(107.522594268,-9.69338084130401,21.0000000000003));
#549=CARTESIAN_POINT('Origin',(107.522594259021,20.306619160664,21.0000000000008));
#550=CARTESIAN_POINT('',(107.522594268,-9.69338083779861,21.));
#551=CARTESIAN_POINT('',(137.522594266799,20.3066191607071,0.));
#552=CARTESIAN_POINT('Origin',(62.522594268,94.306619161,0.));
#553=CARTESIAN_POINT('',(33.522594268,115.306619161,21.));
#554=CARTESIAN_POINT('Origin',(37.3718366736041,-9.69338084181224,6.96446609288053));
#555=CARTESIAN_POINT('',(57.2210790785118,-9.69338084071859,20.9999999992309));
#556=CARTESIAN_POINT('',(27.5225942791871,-9.69338084181224,6.28444518646631E-9));
#557=CARTESIAN_POINT('',(57.2210790786041,-9.69338084181224,20.9999999987785));
#558=CARTESIAN_POINT('Origin',(137.522594268,20.306619161,10.5));
#559=CARTESIAN_POINT('',(137.522594268,90.306619161,21.));
#560=CARTESIAN_POINT('Origin',(27.522594268,-9.693380839,10.5));
#561=CARTESIAN_POINT('',(107.522594268,-9.693380839,21.));
#562=CARTESIAN_POINT('Origin',(92.700263798,33.714736069,1.839745962));
#563=CARTESIAN_POINT('',(92.7002637989931,33.7147360677953,3.67949192408192));
#564=CARTESIAN_POINT('',(92.700263798,33.714736069,3.679491924));
#565=CARTESIAN_POINT('',(92.700263798,33.714736069,0.));
#566=CARTESIAN_POINT('Origin',(95.2458482098545,33.7147360684408,6.79718337768581));
#567=CARTESIAN_POINT('',(99.7713316083813,40.7858038874085,21.0000000016995));
#568=CARTESIAN_POINT('',(92.7002638033017,33.7147360684408,3.67949193096885));
#569=CARTESIAN_POINT('',(84.2149824217236,56.342153064328,20.9999999956672));
#570=CARTESIAN_POINT('',(99.7713316062833,40.7858038853105,21.0000000023109));
#571=CARTESIAN_POINT('',(84.2149824200445,56.3421530626489,20.9999999911155));
#572=CARTESIAN_POINT('Origin',(79.972341736,20.986814007,1.839745962));
#573=CARTESIAN_POINT('',(79.972341736,20.986814007,3.679491924));
#574=CARTESIAN_POINT('',(64.41599255,36.543163193,3.679491924));
#575=CARTESIAN_POINT('',(79.972341736,20.986814007,3.679491924));
#576=CARTESIAN_POINT('Origin',(85.522594268,-9.693380839,21.));
#577=CARTESIAN_POINT('',(57.3449247432065,29.4720953862065,20.99999999922));
#578=CARTESIAN_POINT('Origin',(70.7799535772445,42.9071242202916,21.0000000000008));
#579=CARTESIAN_POINT('',(72.9012739272074,13.9157461982074,20.9999999995961));
#580=CARTESIAN_POINT('Origin',(86.3363027707541,27.3507750417064,21.0000000000008));
#581=CARTESIAN_POINT('',(72.901273972,13.915746161,21.));
#582=CARTESIAN_POINT('Origin',(70.7799535808429,42.9071242242759,5.41154273154003));
#583=CARTESIAN_POINT('',(57.3449247390637,29.4720953820637,21.));
#584=CARTESIAN_POINT('Origin',(86.3363027661742,27.350775038,1.839745962));
#585=CARTESIAN_POINT('Origin',(86.3363027675692,27.3507750379832,3.679491924));
#586=CARTESIAN_POINT('Origin',(86.3363027671571,27.3507750377241,5.41154273154002));
#587=CARTESIAN_POINT('',(79.9723417366092,20.9868140076091,3.679491924));
#588=CARTESIAN_POINT('Origin',(75.446858336807,13.9157461954408,17.8823085463142));
#589=CARTESIAN_POINT('',(0.,0.,0.));
#590=UNCERTAINTY_MEASURE_WITH_UNIT(LENGTH_MEASURE(0.01),#596,
'DISTANCE_ACCURACY_VALUE',
'Maximum model space distance between geometric entities at asserted c
onnectivities');
#591=UNCERTAINTY_MEASURE_WITH_UNIT(LENGTH_MEASURE(0.01),#596,
'DISTANCE_ACCURACY_VALUE',
'Maximum model space distance between geometric entities at asserted c
onnectivities');
#592=UNCERTAINTY_MEASURE_WITH_UNIT(LENGTH_MEASURE(0.01),#596,
'DISTANCE_ACCURACY_VALUE',
'Maximum model space distance between geometric entities at asserted c
onnectivities');
#593=(
GEOMETRIC_REPRESENTATION_CONTEXT(3)
GLOBAL_UNCERTAINTY_ASSIGNED_CONTEXT((#590))
GLOBAL_UNIT_ASSIGNED_CONTEXT((#596,#598,#599))
REPRESENTATION_CONTEXT('','3D')
);
#594=(
GEOMETRIC_REPRESENTATION_CONTEXT(3)
GLOBAL_UNCERTAINTY_ASSIGNED_CONTEXT((#591))
GLOBAL_UNIT_ASSIGNED_CONTEXT((#596,#598,#599))
REPRESENTATION_CONTEXT('','3D')
);
#595=(
GEOMETRIC_REPRESENTATION_CONTEXT(3)
GLOBAL_UNCERTAINTY_ASSIGNED_CONTEXT((#592))
GLOBAL_UNIT_ASSIGNED_CONTEXT((#596,#598,#599))
REPRESENTATION_CONTEXT('','3D')
);
#596=(
LENGTH_UNIT()
NAMED_UNIT(*)
SI_UNIT(.MILLI.,.METRE.)
);
#597=(
LENGTH_UNIT()
NAMED_UNIT(*)
SI_UNIT($,.METRE.)
);
#598=(
NAMED_UNIT(*)
PLANE_ANGLE_UNIT()
SI_UNIT($,.RADIAN.)
);
#599=(
NAMED_UNIT(*)
SI_UNIT($,.STERADIAN.)
SOLID_ANGLE_UNIT()
);
#600=SHAPE_DEFINITION_REPRESENTATION(#602,#605);
#601=SHAPE_DEFINITION_REPRESENTATION(#603,#606);
#602=PRODUCT_DEFINITION_SHAPE('',$,#608);
#603=PRODUCT_DEFINITION_SHAPE('',$,#609);
#604=PRODUCT_DEFINITION_SHAPE($,$,#14);
#605=SHAPE_REPRESENTATION('',(#360,#392),#593);
#606=SHAPE_REPRESENTATION('',(#361),#594);
#607=PRODUCT_DEFINITION_CONTEXT('part definition',#615,'design');
#608=PRODUCT_DEFINITION('MODEL-14','MODEL-14 v1',#610,#607);
#609=PRODUCT_DEFINITION('MODEL-14_1','MODEL-14',#611,#607);
#610=PRODUCT_DEFINITION_FORMATION('',$,#617);
#611=PRODUCT_DEFINITION_FORMATION('',$,#618);
#612=PRODUCT_RELATED_PRODUCT_CATEGORY('MODEL-14 v1','MODEL-14 v1',(#617));
#613=PRODUCT_RELATED_PRODUCT_CATEGORY('MODEL-14','MODEL-14',(#618));
#614=APPLICATION_PROTOCOL_DEFINITION('international standard',
'automotive_design',2009,#615);
#615=APPLICATION_CONTEXT(
'Core Data for Automotive Mechanical Design Process');
#616=PRODUCT_CONTEXT('part definition',#615,'mechanical');
#617=PRODUCT('MODEL-14','MODEL-14 v1',$,(#616));
#618=PRODUCT('MODEL-14_1','MODEL-14',$,(#616));
#619=PRESENTATION_STYLE_ASSIGNMENT((#620));
#620=SURFACE_STYLE_USAGE(.BOTH.,#621);
#621=SURFACE_SIDE_STYLE('',(#622));
#622=SURFACE_STYLE_FILL_AREA(#623);
#623=FILL_AREA_STYLE('Steel - Satin',(#624));
#624=FILL_AREA_STYLE_COLOUR('Steel - Satin',#625);
#625=COLOUR_RGB('Steel - Satin',0.627450980392157,0.627450980392157,0.627450980392157);
ENDSEC;
END-ISO-10303-21;
