ISO-10303-21;
HEADER;
/* Generated by software containing ST-Developer
 * from STEP Tools, Inc. (www.steptools.com) 
 */

FILE_DESCRIPTION(
/* description */ (''),
/* implementation_level */ '2;1');

FILE_NAME(
/* name */ '/Volumes/IGEMS/Temp/JJ/Sample parts/Toolpath - Fixed.step',

/* time_stamp */ '2019-05-28T09:55:52+02:00',
/* author */ (''),
/* organization */ (''),
/* preprocessor_version */ 'ST-DEVELOPER v18',
/* originating_system */ 'Autodesk Translation Framework v8.2.0.1029',
/* authorisation */ '');

FILE_SCHEMA (('AUTOMOTIVE_DESIGN { 1 0 10303 214 3 1 1 }'));
ENDSEC;

DATA;
#10=MECHANICAL_DESIGN_GEOMETRIC_PRESENTATION_REPRESENTATION('',(#13),#286);
#11=SHAPE_REPRESENTATION_RELATIONSHIP('SRR','None',#293,#12);
#12=ADVANCED_BREP_SHAPE_REPRESENTATION('',(#14),#285);
#13=STYLED_ITEM('',(#303),#14);
#14=MANIFOLD_SOLID_BREP('Body1',#166);
#15=PLANE('',#183);
#16=PLANE('',#187);
#17=PLANE('',#188);
#18=PLANE('',#189);
#19=PLANE('',#190);
#20=PLANE('',#191);
#21=PLANE('',#192);
#22=FACE_OUTER_BOUND('',#31,.T.);
#23=FACE_OUTER_BOUND('',#32,.T.);
#24=FACE_OUTER_BOUND('',#33,.T.);
#25=FACE_OUTER_BOUND('',#34,.T.);
#26=FACE_OUTER_BOUND('',#35,.T.);
#27=FACE_OUTER_BOUND('',#36,.T.);
#28=FACE_OUTER_BOUND('',#37,.T.);
#29=FACE_OUTER_BOUND('',#38,.T.);
#30=FACE_OUTER_BOUND('',#39,.T.);
#31=EDGE_LOOP('',(#113,#114,#115));
#32=EDGE_LOOP('',(#116,#117,#118,#119));
#33=EDGE_LOOP('',(#120,#121,#122));
#34=EDGE_LOOP('',(#123,#124,#125,#126,#127,#128,#129,#130));
#35=EDGE_LOOP('',(#131,#132,#133,#134));
#36=EDGE_LOOP('',(#135,#136,#137,#138));
#37=EDGE_LOOP('',(#139,#140,#141,#142));
#38=EDGE_LOOP('',(#143,#144,#145,#146,#147,#148,#149,#150));
#39=EDGE_LOOP('',(#151,#152,#153,#154));
#40=LINE('',#245,#57);
#41=LINE('',#248,#58);
#42=LINE('',#250,#59);
#43=LINE('',#251,#60);
#44=LINE('',#258,#61);
#45=LINE('',#260,#62);
#46=LINE('',#262,#63);
#47=LINE('',#264,#64);
#48=LINE('',#265,#65);
#49=LINE('',#269,#66);
#50=LINE('',#270,#67);
#51=LINE('',#271,#68);
#52=LINE('',#274,#69);
#53=LINE('',#275,#70);
#54=LINE('',#278,#71);
#55=LINE('',#279,#72);
#56=LINE('',#281,#73);
#57=VECTOR('',#201,12.);
#58=VECTOR('',#204,68.);
#59=VECTOR('',#205,68.);
#60=VECTOR('',#206,12.);
#61=VECTOR('',#215,10.);
#62=VECTOR('',#216,20.);
#63=VECTOR('',#217,100.);
#64=VECTOR('',#218,20.);
#65=VECTOR('',#219,10.);
#66=VECTOR('',#222,20.);
#67=VECTOR('',#223,50.);
#68=VECTOR('',#224,50.);
#69=VECTOR('',#227,100.);
#70=VECTOR('',#228,50.);
#71=VECTOR('',#231,20.);
#72=VECTOR('',#232,50.);
#73=VECTOR('',#235,100.);
#74=ELLIPSE('',#181,8.48528137423857,6.);
#75=ELLIPSE('',#182,8.48528137423857,6.);
#76=ELLIPSE('',#185,8.48528137423857,6.);
#77=ELLIPSE('',#186,8.48528137423856,6.);
#78=VERTEX_POINT('',#240);
#79=VERTEX_POINT('',#241);
#80=VERTEX_POINT('',#243);
#81=VERTEX_POINT('',#247);
#82=VERTEX_POINT('',#249);
#83=VERTEX_POINT('',#253);
#84=VERTEX_POINT('',#257);
#85=VERTEX_POINT('',#259);
#86=VERTEX_POINT('',#261);
#87=VERTEX_POINT('',#263);
#88=VERTEX_POINT('',#267);
#89=VERTEX_POINT('',#268);
#90=VERTEX_POINT('',#273);
#91=VERTEX_POINT('',#277);
#92=EDGE_CURVE('',#78,#79,#74,.T.);
#93=EDGE_CURVE('',#80,#78,#75,.T.);
#94=EDGE_CURVE('',#79,#80,#40,.T.);
#95=EDGE_CURVE('',#79,#81,#41,.T.);
#96=EDGE_CURVE('',#82,#80,#42,.T.);
#97=EDGE_CURVE('',#81,#82,#43,.T.);
#98=EDGE_CURVE('',#81,#83,#76,.T.);
#99=EDGE_CURVE('',#83,#82,#77,.T.);
#100=EDGE_CURVE('',#83,#84,#44,.T.);
#101=EDGE_CURVE('',#84,#85,#45,.T.);
#102=EDGE_CURVE('',#85,#86,#46,.T.);
#103=EDGE_CURVE('',#86,#87,#47,.T.);
#104=EDGE_CURVE('',#87,#78,#48,.T.);
#105=EDGE_CURVE('',#88,#89,#49,.T.);
#106=EDGE_CURVE('',#89,#87,#50,.T.);
#107=EDGE_CURVE('',#88,#86,#51,.T.);
#108=EDGE_CURVE('',#90,#88,#52,.T.);
#109=EDGE_CURVE('',#90,#85,#53,.T.);
#110=EDGE_CURVE('',#91,#90,#54,.T.);
#111=EDGE_CURVE('',#91,#84,#55,.T.);
#112=EDGE_CURVE('',#89,#91,#56,.T.);
#113=ORIENTED_EDGE('',*,*,#92,.F.);
#114=ORIENTED_EDGE('',*,*,#93,.F.);
#115=ORIENTED_EDGE('',*,*,#94,.F.);
#116=ORIENTED_EDGE('',*,*,#95,.F.);
#117=ORIENTED_EDGE('',*,*,#94,.T.);
#118=ORIENTED_EDGE('',*,*,#96,.F.);
#119=ORIENTED_EDGE('',*,*,#97,.F.);
#120=ORIENTED_EDGE('',*,*,#98,.F.);
#121=ORIENTED_EDGE('',*,*,#97,.T.);
#122=ORIENTED_EDGE('',*,*,#99,.F.);
#123=ORIENTED_EDGE('',*,*,#92,.T.);
#124=ORIENTED_EDGE('',*,*,#95,.T.);
#125=ORIENTED_EDGE('',*,*,#98,.T.);
#126=ORIENTED_EDGE('',*,*,#100,.T.);
#127=ORIENTED_EDGE('',*,*,#101,.T.);
#128=ORIENTED_EDGE('',*,*,#102,.T.);
#129=ORIENTED_EDGE('',*,*,#103,.T.);
#130=ORIENTED_EDGE('',*,*,#104,.T.);
#131=ORIENTED_EDGE('',*,*,#105,.T.);
#132=ORIENTED_EDGE('',*,*,#106,.T.);
#133=ORIENTED_EDGE('',*,*,#103,.F.);
#134=ORIENTED_EDGE('',*,*,#107,.F.);
#135=ORIENTED_EDGE('',*,*,#108,.T.);
#136=ORIENTED_EDGE('',*,*,#107,.T.);
#137=ORIENTED_EDGE('',*,*,#102,.F.);
#138=ORIENTED_EDGE('',*,*,#109,.F.);
#139=ORIENTED_EDGE('',*,*,#110,.T.);
#140=ORIENTED_EDGE('',*,*,#109,.T.);
#141=ORIENTED_EDGE('',*,*,#101,.F.);
#142=ORIENTED_EDGE('',*,*,#111,.F.);
#143=ORIENTED_EDGE('',*,*,#93,.T.);
#144=ORIENTED_EDGE('',*,*,#104,.F.);
#145=ORIENTED_EDGE('',*,*,#106,.F.);
#146=ORIENTED_EDGE('',*,*,#112,.T.);
#147=ORIENTED_EDGE('',*,*,#111,.T.);
#148=ORIENTED_EDGE('',*,*,#100,.F.);
#149=ORIENTED_EDGE('',*,*,#99,.T.);
#150=ORIENTED_EDGE('',*,*,#96,.T.);
#151=ORIENTED_EDGE('',*,*,#112,.F.);
#152=ORIENTED_EDGE('',*,*,#105,.F.);
#153=ORIENTED_EDGE('',*,*,#108,.F.);
#154=ORIENTED_EDGE('',*,*,#110,.F.);
#155=CYLINDRICAL_SURFACE('',#180,6.);
#156=CYLINDRICAL_SURFACE('',#184,6.);
#157=ADVANCED_FACE('',(#22),#155,.F.);
#158=ADVANCED_FACE('',(#23),#15,.F.);
#159=ADVANCED_FACE('',(#24),#156,.F.);
#160=ADVANCED_FACE('',(#25),#16,.T.);
#161=ADVANCED_FACE('',(#26),#17,.T.);
#162=ADVANCED_FACE('',(#27),#18,.T.);
#163=ADVANCED_FACE('',(#28),#19,.T.);
#164=ADVANCED_FACE('',(#29),#20,.T.);
#165=ADVANCED_FACE('',(#30),#21,.F.);
#166=CLOSED_SHELL('',(#157,#158,#159,#160,#161,#162,#163,#164,#165));
#167=DERIVED_UNIT_ELEMENT(#169,1.);
#168=DERIVED_UNIT_ELEMENT(#288,3.);
#169=(
MASS_UNIT()
NAMED_UNIT(*)
SI_UNIT(.KILO.,.GRAM.)
);
#170=DERIVED_UNIT((#167,#168));
#171=MEASURE_REPRESENTATION_ITEM('density measure',
POSITIVE_RATIO_MEASURE(7850.),#170);
#172=PROPERTY_DEFINITION_REPRESENTATION(#177,#174);
#173=PROPERTY_DEFINITION_REPRESENTATION(#178,#175);
#174=REPRESENTATION('material name',(#176),#285);
#175=REPRESENTATION('density',(#171),#285);
#176=DESCRIPTIVE_REPRESENTATION_ITEM('Steel','Steel');
#177=PROPERTY_DEFINITION('material property','material name',#295);
#178=PROPERTY_DEFINITION('material property','density of part',#295);
#179=AXIS2_PLACEMENT_3D('placement',#238,#193,#194);
#180=AXIS2_PLACEMENT_3D('',#239,#195,#196);
#181=AXIS2_PLACEMENT_3D('',#242,#197,#198);
#182=AXIS2_PLACEMENT_3D('',#244,#199,#200);
#183=AXIS2_PLACEMENT_3D('',#246,#202,#203);
#184=AXIS2_PLACEMENT_3D('',#252,#207,#208);
#185=AXIS2_PLACEMENT_3D('',#254,#209,#210);
#186=AXIS2_PLACEMENT_3D('',#255,#211,#212);
#187=AXIS2_PLACEMENT_3D('',#256,#213,#214);
#188=AXIS2_PLACEMENT_3D('',#266,#220,#221);
#189=AXIS2_PLACEMENT_3D('',#272,#225,#226);
#190=AXIS2_PLACEMENT_3D('',#276,#229,#230);
#191=AXIS2_PLACEMENT_3D('',#280,#233,#234);
#192=AXIS2_PLACEMENT_3D('',#282,#236,#237);
#193=DIRECTION('axis',(0.,0.,1.));
#194=DIRECTION('refdir',(1.,0.,0.));
#195=DIRECTION('center_axis',(-0.707106781186548,-1.57009245868378E-16,
-0.707106781186547));
#196=DIRECTION('ref_axis',(9.12035667013834E-17,-1.,1.30841038223648E-16));
#197=DIRECTION('center_axis',(0.,0.,-1.));
#198=DIRECTION('ref_axis',(-1.,-9.12035667013833E-17,0.));
#199=DIRECTION('center_axis',(1.,2.22044604925031E-16,0.));
#200=DIRECTION('ref_axis',(-2.90525466403508E-32,1.30841038223648E-16,1.));
#201=DIRECTION('',(-0.707106781186548,-1.57009245868378E-16,-0.707106781186547));
#202=DIRECTION('center_axis',(0.707106781186547,2.63947723830644E-17,-0.707106781186548));
#203=DIRECTION('ref_axis',(1.29686225002456E-16,-1.,9.23583799225754E-17));
#204=DIRECTION('',(3.73278450798813E-17,-1.,0.));
#205=DIRECTION('',(-2.22044604925031E-16,1.,-1.8471675984515E-16));
#206=DIRECTION('',(-0.707106781186548,-1.57009245868378E-16,-0.707106781186547));
#207=DIRECTION('center_axis',(-0.707106781186548,-1.57009245868378E-16,
-0.707106781186547));
#208=DIRECTION('ref_axis',(-0.707106781186547,-1.57009245868377E-16,0.707106781186548));
#209=DIRECTION('center_axis',(0.,0.,-1.));
#210=DIRECTION('ref_axis',(-1.,-2.22044604925031E-16,0.));
#211=DIRECTION('center_axis',(1.,2.22044604925031E-16,0.));
#212=DIRECTION('ref_axis',(0.,0.,1.));
#213=DIRECTION('center_axis',(0.,0.,1.));
#214=DIRECTION('ref_axis',(2.22044604925031E-16,-1.,0.));
#215=DIRECTION('',(2.22044604925031E-16,-1.,0.));
#216=DIRECTION('',(1.,2.22044604925031E-16,0.));
#217=DIRECTION('',(-2.22044604925031E-16,1.,0.));
#218=DIRECTION('',(-1.,-2.22044604925031E-16,0.));
#219=DIRECTION('',(2.22044604925031E-16,-1.,0.));
#220=DIRECTION('center_axis',(-2.22044604925031E-16,1.,0.));
#221=DIRECTION('ref_axis',(-1.,-2.22044604925031E-16,0.));
#222=DIRECTION('',(-1.,-2.22044604925031E-16,0.));
#223=DIRECTION('',(0.,0.,1.));
#224=DIRECTION('',(0.,0.,1.));
#225=DIRECTION('center_axis',(1.,2.22044604925031E-16,0.));
#226=DIRECTION('ref_axis',(-2.22044604925031E-16,1.,0.));
#227=DIRECTION('',(-2.22044604925031E-16,1.,0.));
#228=DIRECTION('',(0.,0.,1.));
#229=DIRECTION('center_axis',(2.22044604925031E-16,-1.,0.));
#230=DIRECTION('ref_axis',(1.,2.22044604925031E-16,0.));
#231=DIRECTION('',(1.,2.22044604925031E-16,0.));
#232=DIRECTION('',(0.,0.,1.));
#233=DIRECTION('center_axis',(-1.,-2.22044604925031E-16,0.));
#234=DIRECTION('ref_axis',(2.22044604925031E-16,-1.,0.));
#235=DIRECTION('',(2.22044604925031E-16,-1.,0.));
#236=DIRECTION('center_axis',(0.,0.,1.));
#237=DIRECTION('ref_axis',(2.22044604925031E-16,-1.,0.));
#238=CARTESIAN_POINT('',(0.,0.,0.));
#239=CARTESIAN_POINT('Origin',(93.9873275788457,88.7261905670166,62.3743686707646));
#240=CARTESIAN_POINT('',(81.612958908081,94.7261905670166,50.));
#241=CARTESIAN_POINT('',(90.0982402823196,88.7261905670166,50.));
#242=CARTESIAN_POINT('Origin',(81.6129589080811,88.7261905670166,50.));
#243=CARTESIAN_POINT('',(81.612958908081,88.7261905670166,41.5147186257614));
#244=CARTESIAN_POINT('Origin',(81.612958908081,88.7261905670166,50.));
#245=CARTESIAN_POINT('',(98.2299682659649,88.7261905670166,58.1317279836453));
#246=CARTESIAN_POINT('Origin',(98.2299682659649,88.7261905670166,58.1317279836453));
#247=CARTESIAN_POINT('',(90.0982402823196,20.7261905670166,50.));
#248=CARTESIAN_POINT('',(90.0982402823196,71.7261905670166,50.));
#249=CARTESIAN_POINT('',(81.6129589080811,20.7261905670166,41.5147186257614));
#250=CARTESIAN_POINT('',(81.612958908081,96.7261905670166,41.5147186257614));
#251=CARTESIAN_POINT('',(98.229968265965,20.7261905670166,58.1317279836453));
#252=CARTESIAN_POINT('Origin',(93.9873275788457,20.7261905670166,62.3743686707646));
#253=CARTESIAN_POINT('',(81.6129589080811,14.7261905670166,50.));
#254=CARTESIAN_POINT('Origin',(81.6129589080811,20.7261905670166,50.));
#255=CARTESIAN_POINT('Origin',(81.6129589080811,20.7261905670166,50.));
#256=CARTESIAN_POINT('Origin',(91.6129589080811,54.7261905670166,50.));
#257=CARTESIAN_POINT('',(81.6129589080811,4.7261905670166,50.));
#258=CARTESIAN_POINT('',(81.612958908081,104.726190567017,50.));
#259=CARTESIAN_POINT('',(101.612958908081,4.7261905670166,50.));
#260=CARTESIAN_POINT('',(81.6129589080811,4.7261905670166,50.));
#261=CARTESIAN_POINT('',(101.612958908081,104.726190567017,50.));
#262=CARTESIAN_POINT('',(101.612958908081,4.7261905670166,50.));
#263=CARTESIAN_POINT('',(81.612958908081,104.726190567017,50.));
#264=CARTESIAN_POINT('',(101.612958908081,104.726190567017,50.));
#265=CARTESIAN_POINT('',(81.612958908081,104.726190567017,50.));
#266=CARTESIAN_POINT('Origin',(101.612958908081,104.726190567017,0.));
#267=CARTESIAN_POINT('',(101.612958908081,104.726190567017,0.));
#268=CARTESIAN_POINT('',(81.612958908081,104.726190567017,0.));
#269=CARTESIAN_POINT('',(101.612958908081,104.726190567017,0.));
#270=CARTESIAN_POINT('',(81.612958908081,104.726190567017,0.));
#271=CARTESIAN_POINT('',(101.612958908081,104.726190567017,0.));
#272=CARTESIAN_POINT('Origin',(101.612958908081,4.7261905670166,0.));
#273=CARTESIAN_POINT('',(101.612958908081,4.7261905670166,0.));
#274=CARTESIAN_POINT('',(101.612958908081,4.7261905670166,0.));
#275=CARTESIAN_POINT('',(101.612958908081,4.7261905670166,0.));
#276=CARTESIAN_POINT('Origin',(81.6129589080811,4.7261905670166,0.));
#277=CARTESIAN_POINT('',(81.6129589080811,4.7261905670166,0.));
#278=CARTESIAN_POINT('',(81.6129589080811,4.7261905670166,0.));
#279=CARTESIAN_POINT('',(81.6129589080811,4.7261905670166,0.));
#280=CARTESIAN_POINT('Origin',(81.612958908081,104.726190567017,0.));
#281=CARTESIAN_POINT('',(81.612958908081,104.726190567017,0.));
#282=CARTESIAN_POINT('Origin',(91.6129589080811,54.7261905670166,0.));
#283=UNCERTAINTY_MEASURE_WITH_UNIT(LENGTH_MEASURE(0.01),#287,
'DISTANCE_ACCURACY_VALUE',
'Maximum model space distance between geometric entities at asserted c
onnectivities');
#284=UNCERTAINTY_MEASURE_WITH_UNIT(LENGTH_MEASURE(0.01),#287,
'DISTANCE_ACCURACY_VALUE',
'Maximum model space distance between geometric entities at asserted c
onnectivities');
#285=(
GEOMETRIC_REPRESENTATION_CONTEXT(3)
GLOBAL_UNCERTAINTY_ASSIGNED_CONTEXT((#283))
GLOBAL_UNIT_ASSIGNED_CONTEXT((#287,#289,#290))
REPRESENTATION_CONTEXT('','3D')
);
#286=(
GEOMETRIC_REPRESENTATION_CONTEXT(3)
GLOBAL_UNCERTAINTY_ASSIGNED_CONTEXT((#284))
GLOBAL_UNIT_ASSIGNED_CONTEXT((#287,#289,#290))
REPRESENTATION_CONTEXT('','3D')
);
#287=(
LENGTH_UNIT()
NAMED_UNIT(*)
SI_UNIT(.MILLI.,.METRE.)
);
#288=(
LENGTH_UNIT()
NAMED_UNIT(*)
SI_UNIT($,.METRE.)
);
#289=(
NAMED_UNIT(*)
PLANE_ANGLE_UNIT()
SI_UNIT($,.RADIAN.)
);
#290=(
NAMED_UNIT(*)
SI_UNIT($,.STERADIAN.)
SOLID_ANGLE_UNIT()
);
#291=SHAPE_DEFINITION_REPRESENTATION(#292,#293);
#292=PRODUCT_DEFINITION_SHAPE('',$,#295);
#293=SHAPE_REPRESENTATION('',(#179),#285);
#294=PRODUCT_DEFINITION_CONTEXT('part definition',#299,'design');
#295=PRODUCT_DEFINITION('MODEL-05','MODEL-05 v1',#296,#294);
#296=PRODUCT_DEFINITION_FORMATION('',$,#301);
#297=PRODUCT_RELATED_PRODUCT_CATEGORY('MODEL-05 v1','MODEL-05 v1',(#301));
#298=APPLICATION_PROTOCOL_DEFINITION('international standard',
'automotive_design',2009,#299);
#299=APPLICATION_CONTEXT(
'Core Data for Automotive Mechanical Design Process');
#300=PRODUCT_CONTEXT('part definition',#299,'mechanical');
#301=PRODUCT('MODEL-05','MODEL-05 v1',$,(#300));
#302=PRESENTATION_STYLE_ASSIGNMENT((#304));
#303=PRESENTATION_STYLE_ASSIGNMENT((#305));
#304=SURFACE_STYLE_USAGE(.BOTH.,#306);
#305=SURFACE_STYLE_USAGE(.BOTH.,#307);
#306=SURFACE_SIDE_STYLE('',(#308));
#307=SURFACE_SIDE_STYLE('',(#309));
#308=SURFACE_STYLE_FILL_AREA(#310);
#309=SURFACE_STYLE_FILL_AREA(#311);
#310=FILL_AREA_STYLE('Steel - Satin',(#312));
#311=FILL_AREA_STYLE('Aluminum - Bead Blasted',(#313));
#312=FILL_AREA_STYLE_COLOUR('Steel - Satin',#314);
#313=FILL_AREA_STYLE_COLOUR('Aluminum - Bead Blasted',#315);
#314=COLOUR_RGB('Steel - Satin',0.627450980392157,0.627450980392157,0.627450980392157);
#315=COLOUR_RGB('Aluminum - Bead Blasted',0.96078431372549,0.96078431372549,
0.964705882352941);
ENDSEC;
END-ISO-10303-21;
