ISO-10303-21;
HEADER;
/* Generated by software containing ST-Developer
 * from STEP Tools, Inc. (www.steptools.com) 
 */

FILE_DESCRIPTION(
/* description */ (''),
/* implementation_level */ '2;1');

FILE_NAME(
/* name */ '/Users/joakimjohansson/Desktop/Sample parts/Tube.step',
/* time_stamp */ '2019-05-15T14:17:45+02:00',
/* author */ ('joakim.j.b.johansson@gmail.com'),
/* organization */ (''),
/* preprocessor_version */ 'ST-DEVELOPER v18',
/* originating_system */ 'Autodesk Translation Framework v8.2.0.1029',
/* authorisation */ '');

FILE_SCHEMA (('AUTOMOTIVE_DESIGN { 1 0 10303 214 3 1 1 }'));
ENDSEC;

DATA;
#10=MECHANICAL_DESIGN_GEOMETRIC_PRESENTATION_REPRESENTATION('',(#13),#405);
#11=SHAPE_REPRESENTATION_RELATIONSHIP('SRR','None',#412,#12);
#12=ADVANCED_BREP_SHAPE_REPRESENTATION('',(#14),#404);
#13=STYLED_ITEM('',(#422),#14);
#14=MANIFOLD_SOLID_BREP('Body1',#233);
#15=FACE_BOUND('',#56,.T.);
#16=FACE_BOUND('',#57,.T.);
#17=FACE_BOUND('',#59,.T.);
#18=FACE_BOUND('',#60,.T.);
#19=FACE_BOUND('',#62,.T.);
#20=FACE_BOUND('',#64,.T.);
#21=CYLINDRICAL_SURFACE('',#263,45.);
#22=CYLINDRICAL_SURFACE('',#266,50.);
#23=CIRCLE('',#250,45.);
#24=CIRCLE('',#251,50.);
#25=CIRCLE('',#253,45.);
#26=CIRCLE('',#254,50.);
#27=CIRCLE('',#257,50.);
#28=CIRCLE('',#258,45.);
#29=CIRCLE('',#261,50.);
#30=CIRCLE('',#262,45.);
#31=CIRCLE('',#264,45.);
#32=CIRCLE('',#265,45.);
#33=CIRCLE('',#267,50.);
#34=CIRCLE('',#268,50.);
#35=FACE_OUTER_BOUND('',#47,.T.);
#36=FACE_OUTER_BOUND('',#48,.T.);
#37=FACE_OUTER_BOUND('',#49,.T.);
#38=FACE_OUTER_BOUND('',#50,.T.);
#39=FACE_OUTER_BOUND('',#51,.T.);
#40=FACE_OUTER_BOUND('',#52,.T.);
#41=FACE_OUTER_BOUND('',#53,.T.);
#42=FACE_OUTER_BOUND('',#54,.T.);
#43=FACE_OUTER_BOUND('',#55,.T.);
#44=FACE_OUTER_BOUND('',#58,.T.);
#45=FACE_OUTER_BOUND('',#61,.T.);
#46=FACE_OUTER_BOUND('',#63,.T.);
#47=EDGE_LOOP('',(#151,#152,#153,#154));
#48=EDGE_LOOP('',(#155,#156,#157,#158));
#49=EDGE_LOOP('',(#159,#160,#161,#162));
#50=EDGE_LOOP('',(#163,#164,#165,#166));
#51=EDGE_LOOP('',(#167,#168,#169,#170));
#52=EDGE_LOOP('',(#171,#172,#173,#174));
#53=EDGE_LOOP('',(#175,#176,#177,#178));
#54=EDGE_LOOP('',(#179,#180,#181,#182));
#55=EDGE_LOOP('',(#183,#184,#185,#186));
#56=EDGE_LOOP('',(#187,#188,#189,#190));
#57=EDGE_LOOP('',(#191,#192,#193,#194));
#58=EDGE_LOOP('',(#195,#196,#197,#198));
#59=EDGE_LOOP('',(#199,#200,#201,#202));
#60=EDGE_LOOP('',(#203,#204,#205,#206));
#61=EDGE_LOOP('',(#207));
#62=EDGE_LOOP('',(#208));
#63=EDGE_LOOP('',(#209));
#64=EDGE_LOOP('',(#210));
#65=LINE('',#343,#83);
#66=LINE('',#345,#84);
#67=LINE('',#347,#85);
#68=LINE('',#348,#86);
#69=LINE('',#352,#87);
#70=LINE('',#354,#88);
#71=LINE('',#356,#89);
#72=LINE('',#357,#90);
#73=LINE('',#366,#91);
#74=LINE('',#369,#92);
#75=LINE('',#372,#93);
#76=LINE('',#374,#94);
#77=LINE('',#375,#95);
#78=LINE('',#380,#96);
#79=LINE('',#383,#97);
#80=LINE('',#384,#98);
#81=LINE('',#392,#99);
#82=LINE('',#398,#100);
#83=VECTOR('',#275,1000.);
#84=VECTOR('',#276,10.);
#85=VECTOR('',#277,1000.);
#86=VECTOR('',#278,10.);
#87=VECTOR('',#281,1000.);
#88=VECTOR('',#282,10.);
#89=VECTOR('',#283,1000.);
#90=VECTOR('',#284,10.);
#91=VECTOR('',#295,1000.);
#92=VECTOR('',#298,1000.);
#93=VECTOR('',#301,10.);
#94=VECTOR('',#302,1000.);
#95=VECTOR('',#303,10.);
#96=VECTOR('',#308,1000.);
#97=VECTOR('',#313,10.);
#98=VECTOR('',#314,10.);
#99=VECTOR('',#325,45.);
#100=VECTOR('',#332,50.);
#101=VERTEX_POINT('',#341);
#102=VERTEX_POINT('',#342);
#103=VERTEX_POINT('',#344);
#104=VERTEX_POINT('',#346);
#105=VERTEX_POINT('',#350);
#106=VERTEX_POINT('',#351);
#107=VERTEX_POINT('',#353);
#108=VERTEX_POINT('',#355);
#109=VERTEX_POINT('',#362);
#110=VERTEX_POINT('',#363);
#111=VERTEX_POINT('',#365);
#112=VERTEX_POINT('',#367);
#113=VERTEX_POINT('',#371);
#114=VERTEX_POINT('',#373);
#115=VERTEX_POINT('',#377);
#116=VERTEX_POINT('',#379);
#117=VERTEX_POINT('',#389);
#118=VERTEX_POINT('',#391);
#119=VERTEX_POINT('',#395);
#120=VERTEX_POINT('',#397);
#121=EDGE_CURVE('',#101,#102,#65,.T.);
#122=EDGE_CURVE('',#103,#101,#66,.T.);
#123=EDGE_CURVE('',#103,#104,#67,.T.);
#124=EDGE_CURVE('',#102,#104,#68,.T.);
#125=EDGE_CURVE('',#105,#106,#69,.T.);
#126=EDGE_CURVE('',#107,#106,#70,.T.);
#127=EDGE_CURVE('',#108,#107,#71,.T.);
#128=EDGE_CURVE('',#105,#108,#72,.T.);
#129=EDGE_CURVE('',#108,#103,#23,.T.);
#130=EDGE_CURVE('',#104,#107,#24,.T.);
#131=EDGE_CURVE('',#109,#110,#25,.T.);
#132=EDGE_CURVE('',#111,#109,#73,.T.);
#133=EDGE_CURVE('',#112,#111,#26,.T.);
#134=EDGE_CURVE('',#110,#112,#74,.T.);
#135=EDGE_CURVE('',#113,#112,#75,.T.);
#136=EDGE_CURVE('',#114,#113,#76,.T.);
#137=EDGE_CURVE('',#110,#114,#77,.T.);
#138=EDGE_CURVE('',#115,#113,#27,.T.);
#139=EDGE_CURVE('',#115,#116,#78,.T.);
#140=EDGE_CURVE('',#114,#116,#28,.T.);
#141=EDGE_CURVE('',#116,#109,#79,.T.);
#142=EDGE_CURVE('',#111,#115,#80,.T.);
#143=EDGE_CURVE('',#106,#102,#29,.T.);
#144=EDGE_CURVE('',#101,#105,#30,.T.);
#145=EDGE_CURVE('',#117,#117,#31,.T.);
#146=EDGE_CURVE('',#117,#118,#81,.T.);
#147=EDGE_CURVE('',#118,#118,#32,.T.);
#148=EDGE_CURVE('',#119,#119,#33,.T.);
#149=EDGE_CURVE('',#119,#120,#82,.T.);
#150=EDGE_CURVE('',#120,#120,#34,.T.);
#151=ORIENTED_EDGE('',*,*,#121,.F.);
#152=ORIENTED_EDGE('',*,*,#122,.F.);
#153=ORIENTED_EDGE('',*,*,#123,.T.);
#154=ORIENTED_EDGE('',*,*,#124,.F.);
#155=ORIENTED_EDGE('',*,*,#125,.T.);
#156=ORIENTED_EDGE('',*,*,#126,.F.);
#157=ORIENTED_EDGE('',*,*,#127,.F.);
#158=ORIENTED_EDGE('',*,*,#128,.F.);
#159=ORIENTED_EDGE('',*,*,#123,.F.);
#160=ORIENTED_EDGE('',*,*,#129,.F.);
#161=ORIENTED_EDGE('',*,*,#127,.T.);
#162=ORIENTED_EDGE('',*,*,#130,.F.);
#163=ORIENTED_EDGE('',*,*,#131,.F.);
#164=ORIENTED_EDGE('',*,*,#132,.F.);
#165=ORIENTED_EDGE('',*,*,#133,.F.);
#166=ORIENTED_EDGE('',*,*,#134,.F.);
#167=ORIENTED_EDGE('',*,*,#134,.T.);
#168=ORIENTED_EDGE('',*,*,#135,.F.);
#169=ORIENTED_EDGE('',*,*,#136,.F.);
#170=ORIENTED_EDGE('',*,*,#137,.F.);
#171=ORIENTED_EDGE('',*,*,#136,.T.);
#172=ORIENTED_EDGE('',*,*,#138,.F.);
#173=ORIENTED_EDGE('',*,*,#139,.T.);
#174=ORIENTED_EDGE('',*,*,#140,.F.);
#175=ORIENTED_EDGE('',*,*,#132,.T.);
#176=ORIENTED_EDGE('',*,*,#141,.F.);
#177=ORIENTED_EDGE('',*,*,#139,.F.);
#178=ORIENTED_EDGE('',*,*,#142,.F.);
#179=ORIENTED_EDGE('',*,*,#121,.T.);
#180=ORIENTED_EDGE('',*,*,#143,.F.);
#181=ORIENTED_EDGE('',*,*,#125,.F.);
#182=ORIENTED_EDGE('',*,*,#144,.F.);
#183=ORIENTED_EDGE('',*,*,#145,.F.);
#184=ORIENTED_EDGE('',*,*,#146,.T.);
#185=ORIENTED_EDGE('',*,*,#147,.F.);
#186=ORIENTED_EDGE('',*,*,#146,.F.);
#187=ORIENTED_EDGE('',*,*,#122,.T.);
#188=ORIENTED_EDGE('',*,*,#144,.T.);
#189=ORIENTED_EDGE('',*,*,#128,.T.);
#190=ORIENTED_EDGE('',*,*,#129,.T.);
#191=ORIENTED_EDGE('',*,*,#131,.T.);
#192=ORIENTED_EDGE('',*,*,#137,.T.);
#193=ORIENTED_EDGE('',*,*,#140,.T.);
#194=ORIENTED_EDGE('',*,*,#141,.T.);
#195=ORIENTED_EDGE('',*,*,#148,.T.);
#196=ORIENTED_EDGE('',*,*,#149,.T.);
#197=ORIENTED_EDGE('',*,*,#150,.F.);
#198=ORIENTED_EDGE('',*,*,#149,.F.);
#199=ORIENTED_EDGE('',*,*,#124,.T.);
#200=ORIENTED_EDGE('',*,*,#130,.T.);
#201=ORIENTED_EDGE('',*,*,#126,.T.);
#202=ORIENTED_EDGE('',*,*,#143,.T.);
#203=ORIENTED_EDGE('',*,*,#133,.T.);
#204=ORIENTED_EDGE('',*,*,#142,.T.);
#205=ORIENTED_EDGE('',*,*,#138,.T.);
#206=ORIENTED_EDGE('',*,*,#135,.T.);
#207=ORIENTED_EDGE('',*,*,#150,.T.);
#208=ORIENTED_EDGE('',*,*,#145,.T.);
#209=ORIENTED_EDGE('',*,*,#148,.F.);
#210=ORIENTED_EDGE('',*,*,#147,.T.);
#211=PLANE('',#247);
#212=PLANE('',#248);
#213=PLANE('',#249);
#214=PLANE('',#252);
#215=PLANE('',#255);
#216=PLANE('',#256);
#217=PLANE('',#259);
#218=PLANE('',#260);
#219=PLANE('',#269);
#220=PLANE('',#270);
#221=ADVANCED_FACE('',(#35),#211,.T.);
#222=ADVANCED_FACE('',(#36),#212,.F.);
#223=ADVANCED_FACE('',(#37),#213,.T.);
#224=ADVANCED_FACE('',(#38),#214,.T.);
#225=ADVANCED_FACE('',(#39),#215,.T.);
#226=ADVANCED_FACE('',(#40),#216,.F.);
#227=ADVANCED_FACE('',(#41),#217,.T.);
#228=ADVANCED_FACE('',(#42),#218,.F.);
#229=ADVANCED_FACE('',(#43,#15,#16),#21,.F.);
#230=ADVANCED_FACE('',(#44,#17,#18),#22,.T.);
#231=ADVANCED_FACE('',(#45,#19),#219,.F.);
#232=ADVANCED_FACE('',(#46,#20),#220,.T.);
#233=CLOSED_SHELL('',(#221,#222,#223,#224,#225,#226,#227,#228,#229,#230,
#231,#232));
#234=DERIVED_UNIT_ELEMENT(#236,1.);
#235=DERIVED_UNIT_ELEMENT(#407,3.);
#236=(
MASS_UNIT()
NAMED_UNIT(*)
SI_UNIT(.KILO.,.GRAM.)
);
#237=DERIVED_UNIT((#234,#235));
#238=MEASURE_REPRESENTATION_ITEM('density measure',
POSITIVE_RATIO_MEASURE(7850.),#237);
#239=PROPERTY_DEFINITION_REPRESENTATION(#244,#241);
#240=PROPERTY_DEFINITION_REPRESENTATION(#245,#242);
#241=REPRESENTATION('material name',(#243),#404);
#242=REPRESENTATION('density',(#238),#404);
#243=DESCRIPTIVE_REPRESENTATION_ITEM('Steel','Steel');
#244=PROPERTY_DEFINITION('material property','material name',#414);
#245=PROPERTY_DEFINITION('material property','density of part',#414);
#246=AXIS2_PLACEMENT_3D('placement',#339,#271,#272);
#247=AXIS2_PLACEMENT_3D('',#340,#273,#274);
#248=AXIS2_PLACEMENT_3D('',#349,#279,#280);
#249=AXIS2_PLACEMENT_3D('',#358,#285,#286);
#250=AXIS2_PLACEMENT_3D('',#359,#287,#288);
#251=AXIS2_PLACEMENT_3D('',#360,#289,#290);
#252=AXIS2_PLACEMENT_3D('',#361,#291,#292);
#253=AXIS2_PLACEMENT_3D('',#364,#293,#294);
#254=AXIS2_PLACEMENT_3D('',#368,#296,#297);
#255=AXIS2_PLACEMENT_3D('',#370,#299,#300);
#256=AXIS2_PLACEMENT_3D('',#376,#304,#305);
#257=AXIS2_PLACEMENT_3D('',#378,#306,#307);
#258=AXIS2_PLACEMENT_3D('',#381,#309,#310);
#259=AXIS2_PLACEMENT_3D('',#382,#311,#312);
#260=AXIS2_PLACEMENT_3D('',#385,#315,#316);
#261=AXIS2_PLACEMENT_3D('',#386,#317,#318);
#262=AXIS2_PLACEMENT_3D('',#387,#319,#320);
#263=AXIS2_PLACEMENT_3D('',#388,#321,#322);
#264=AXIS2_PLACEMENT_3D('',#390,#323,#324);
#265=AXIS2_PLACEMENT_3D('',#393,#326,#327);
#266=AXIS2_PLACEMENT_3D('',#394,#328,#329);
#267=AXIS2_PLACEMENT_3D('',#396,#330,#331);
#268=AXIS2_PLACEMENT_3D('',#399,#333,#334);
#269=AXIS2_PLACEMENT_3D('',#400,#335,#336);
#270=AXIS2_PLACEMENT_3D('',#401,#337,#338);
#271=DIRECTION('axis',(0.,0.,1.));
#272=DIRECTION('refdir',(1.,0.,0.));
#273=DIRECTION('center_axis',(0.951536233092522,0.,0.307536659785616));
#274=DIRECTION('ref_axis',(0.307536659785616,0.,-0.951536233092522));
#275=DIRECTION('',(-0.307536659785616,0.,0.951536233092522));
#276=DIRECTION('',(0.,-1.,0.));
#277=DIRECTION('',(-0.307536659785616,0.,0.951536233092522));
#278=DIRECTION('',(0.,1.,0.));
#279=DIRECTION('center_axis',(0.783323393090114,0.,-0.621614399638386));
#280=DIRECTION('ref_axis',(-0.621614399638386,0.,-0.783323393090114));
#281=DIRECTION('',(0.621614399638386,0.,0.783323393090114));
#282=DIRECTION('',(0.,-1.,0.));
#283=DIRECTION('',(0.621614399638386,0.,0.783323393090114));
#284=DIRECTION('',(0.,1.,0.));
#285=DIRECTION('center_axis',(0.,-1.,0.));
#286=DIRECTION('ref_axis',(1.,0.,0.));
#287=DIRECTION('center_axis',(0.,-1.,0.));
#288=DIRECTION('ref_axis',(0.,0.,1.));
#289=DIRECTION('center_axis',(0.,1.,0.));
#290=DIRECTION('ref_axis',(0.,0.,1.));
#291=DIRECTION('center_axis',(0.,-1.,0.));
#292=DIRECTION('ref_axis',(1.,0.,0.));
#293=DIRECTION('center_axis',(0.,-1.,0.));
#294=DIRECTION('ref_axis',(0.,0.,1.));
#295=DIRECTION('',(0.,0.,1.));
#296=DIRECTION('center_axis',(0.,1.,0.));
#297=DIRECTION('ref_axis',(0.,0.,1.));
#298=DIRECTION('',(1.22464679914735E-16,0.,-1.));
#299=DIRECTION('center_axis',(-1.,0.,-1.22464679914735E-16));
#300=DIRECTION('ref_axis',(-1.22464679914735E-16,0.,1.));
#301=DIRECTION('',(0.,1.,0.));
#302=DIRECTION('',(1.22464679914735E-16,0.,-1.));
#303=DIRECTION('',(0.,-1.,0.));
#304=DIRECTION('center_axis',(0.,-1.,0.));
#305=DIRECTION('ref_axis',(1.,0.,0.));
#306=DIRECTION('center_axis',(0.,-1.,0.));
#307=DIRECTION('ref_axis',(0.,0.,1.));
#308=DIRECTION('',(0.,0.,1.));
#309=DIRECTION('center_axis',(0.,1.,0.));
#310=DIRECTION('ref_axis',(0.,0.,1.));
#311=DIRECTION('center_axis',(1.,0.,0.));
#312=DIRECTION('ref_axis',(0.,0.,-1.));
#313=DIRECTION('',(0.,1.,0.));
#314=DIRECTION('',(0.,-1.,0.));
#315=DIRECTION('center_axis',(0.,-1.,0.));
#316=DIRECTION('ref_axis',(1.,0.,0.));
#317=DIRECTION('center_axis',(0.,-1.,0.));
#318=DIRECTION('ref_axis',(0.,0.,1.));
#319=DIRECTION('center_axis',(0.,1.,0.));
#320=DIRECTION('ref_axis',(0.,0.,1.));
#321=DIRECTION('center_axis',(0.,-1.,0.));
#322=DIRECTION('ref_axis',(0.,0.,1.));
#323=DIRECTION('center_axis',(0.,-1.,0.));
#324=DIRECTION('ref_axis',(0.,0.,1.));
#325=DIRECTION('',(0.,-1.,0.));
#326=DIRECTION('center_axis',(0.,1.,0.));
#327=DIRECTION('ref_axis',(0.,0.,1.));
#328=DIRECTION('center_axis',(0.,-1.,0.));
#329=DIRECTION('ref_axis',(0.,0.,1.));
#330=DIRECTION('center_axis',(0.,1.,0.));
#331=DIRECTION('ref_axis',(0.,0.,1.));
#332=DIRECTION('',(0.,1.,0.));
#333=DIRECTION('center_axis',(0.,1.,0.));
#334=DIRECTION('ref_axis',(0.,0.,1.));
#335=DIRECTION('center_axis',(0.,-1.,0.));
#336=DIRECTION('ref_axis',(1.,0.,0.));
#337=DIRECTION('center_axis',(0.,-1.,0.));
#338=DIRECTION('ref_axis',(1.,0.,0.));
#339=CARTESIAN_POINT('',(0.,0.,0.));
#340=CARTESIAN_POINT('Origin',(-40.5946975611291,75.,22.1356388932554));
#341=CARTESIAN_POINT('',(-40.0634541253033,25.,20.491940941495));
#342=CARTESIAN_POINT('',(-42.1388088095081,25.,26.9132085065256));
#343=CARTESIAN_POINT('',(-40.5946975611291,25.,22.1356388932554));
#344=CARTESIAN_POINT('',(-40.0634541253033,75.,20.491940941495));
#345=CARTESIAN_POINT('',(-40.0634541253033,-100.,20.491940941495));
#346=CARTESIAN_POINT('',(-42.1388088095081,75.,26.9132085065256));
#347=CARTESIAN_POINT('',(-40.5946975611291,75.,22.1356388932554));
#348=CARTESIAN_POINT('',(-42.1388088095081,-100.,26.9132085065256));
#349=CARTESIAN_POINT('Origin',(46.7733806471978,75.,7.75219828283776));
#350=CARTESIAN_POINT('',(44.7048468172612,25.,5.14554866318571));
#351=CARTESIAN_POINT('',(48.8996974635484,25.,10.4316627616807));
#352=CARTESIAN_POINT('',(46.7733806471978,25.,7.75219828283776));
#353=CARTESIAN_POINT('',(48.8996974635484,75.,10.4316627616807));
#354=CARTESIAN_POINT('',(48.8996974635484,-100.,10.4316627616807));
#355=CARTESIAN_POINT('',(44.7048468172612,75.,5.14554866318571));
#356=CARTESIAN_POINT('',(46.7733806471978,75.,7.75219828283776));
#357=CARTESIAN_POINT('',(44.7048468172612,-100.,5.14554866318571));
#358=CARTESIAN_POINT('Origin',(3.38044432702016,75.,27.5727743315928));
#359=CARTESIAN_POINT('Origin',(0.,75.,0.));
#360=CARTESIAN_POINT('Origin',(0.,75.,0.));
#361=CARTESIAN_POINT('Origin',(3.31578962504864,-25.,2.6052612811327));
#362=CARTESIAN_POINT('',(42.1772561967373,-25.,-15.6869072705484));
#363=CARTESIAN_POINT('',(-43.3368012309074,-25.,-12.1211244970433));
#364=CARTESIAN_POINT('Origin',(0.,-25.,0.));
#365=CARTESIAN_POINT('',(42.1772561967373,-25.,-26.8529152926602));
#366=CARTESIAN_POINT('',(42.1772561967373,-25.,-33.8684222660959));
#367=CARTESIAN_POINT('',(-43.3368012309074,-25.,-24.938357184723));
#368=CARTESIAN_POINT('Origin',(0.,-25.,0.));
#369=CARTESIAN_POINT('',(-43.3368012309074,-25.,-33.513159956783));
#370=CARTESIAN_POINT('Origin',(-43.3368012309074,-25.,-33.513159956783));
#371=CARTESIAN_POINT('',(-43.3368012309074,-75.,-24.938357184723));
#372=CARTESIAN_POINT('',(-43.3368012309074,-100.,-24.938357184723));
#373=CARTESIAN_POINT('',(-43.3368012309074,-75.,-12.1211244970433));
#374=CARTESIAN_POINT('',(-43.3368012309074,-75.,-33.513159956783));
#375=CARTESIAN_POINT('',(-43.3368012309074,-100.,-12.1211244970433));
#376=CARTESIAN_POINT('Origin',(3.31578962504864,-75.,2.6052612811327));
#377=CARTESIAN_POINT('',(42.1772561967373,-75.,-26.8529152926602));
#378=CARTESIAN_POINT('Origin',(0.,-75.,0.));
#379=CARTESIAN_POINT('',(42.1772561967373,-75.,-15.6869072705484));
#380=CARTESIAN_POINT('',(42.1772561967373,-75.,-33.8684222660959));
#381=CARTESIAN_POINT('Origin',(0.,-75.,0.));
#382=CARTESIAN_POINT('Origin',(42.1772561967373,-25.,-33.8684222660959));
#383=CARTESIAN_POINT('',(42.1772561967373,-100.,-15.6869072705484));
#384=CARTESIAN_POINT('',(42.1772561967373,-100.,-26.8529152926602));
#385=CARTESIAN_POINT('Origin',(3.38044432702016,25.,27.5727743315928));
#386=CARTESIAN_POINT('Origin',(0.,25.,0.));
#387=CARTESIAN_POINT('Origin',(0.,25.,0.));
#388=CARTESIAN_POINT('Origin',(0.,-100.,0.));
#389=CARTESIAN_POINT('',(5.51091059616309E-15,100.,-45.));
#390=CARTESIAN_POINT('Origin',(0.,100.,0.));
#391=CARTESIAN_POINT('',(-5.51091059616309E-15,-100.,-45.));
#392=CARTESIAN_POINT('',(5.51091059616309E-15,-100.,-45.));
#393=CARTESIAN_POINT('Origin',(0.,-100.,0.));
#394=CARTESIAN_POINT('Origin',(0.,-100.,0.));
#395=CARTESIAN_POINT('',(-6.12323399573677E-15,-100.,-50.));
#396=CARTESIAN_POINT('Origin',(0.,-100.,0.));
#397=CARTESIAN_POINT('',(-6.12323399573677E-15,100.,-50.));
#398=CARTESIAN_POINT('',(6.12323399573677E-15,-100.,-50.));
#399=CARTESIAN_POINT('Origin',(0.,100.,0.));
#400=CARTESIAN_POINT('Origin',(0.,100.,0.));
#401=CARTESIAN_POINT('Origin',(0.,-100.,0.));
#402=UNCERTAINTY_MEASURE_WITH_UNIT(LENGTH_MEASURE(0.01),#406,
'DISTANCE_ACCURACY_VALUE',
'Maximum model space distance between geometric entities at asserted c
onnectivities');
#403=UNCERTAINTY_MEASURE_WITH_UNIT(LENGTH_MEASURE(0.01),#406,
'DISTANCE_ACCURACY_VALUE',
'Maximum model space distance between geometric entities at asserted c
onnectivities');
#404=(
GEOMETRIC_REPRESENTATION_CONTEXT(3)
GLOBAL_UNCERTAINTY_ASSIGNED_CONTEXT((#402))
GLOBAL_UNIT_ASSIGNED_CONTEXT((#406,#408,#409))
REPRESENTATION_CONTEXT('','3D')
);
#405=(
GEOMETRIC_REPRESENTATION_CONTEXT(3)
GLOBAL_UNCERTAINTY_ASSIGNED_CONTEXT((#403))
GLOBAL_UNIT_ASSIGNED_CONTEXT((#406,#408,#409))
REPRESENTATION_CONTEXT('','3D')
);
#406=(
LENGTH_UNIT()
NAMED_UNIT(*)
SI_UNIT(.MILLI.,.METRE.)
);
#407=(
LENGTH_UNIT()
NAMED_UNIT(*)
SI_UNIT($,.METRE.)
);
#408=(
NAMED_UNIT(*)
PLANE_ANGLE_UNIT()
SI_UNIT($,.RADIAN.)
);
#409=(
NAMED_UNIT(*)
SI_UNIT($,.STERADIAN.)
SOLID_ANGLE_UNIT()
);
#410=SHAPE_DEFINITION_REPRESENTATION(#411,#412);
#411=PRODUCT_DEFINITION_SHAPE('',$,#414);
#412=SHAPE_REPRESENTATION('',(#246),#404);
#413=PRODUCT_DEFINITION_CONTEXT('part definition',#418,'design');
#414=PRODUCT_DEFINITION('Tube','Tube v4',#415,#413);
#415=PRODUCT_DEFINITION_FORMATION('',$,#420);
#416=PRODUCT_RELATED_PRODUCT_CATEGORY('Tube v4','Tube v4',(#420));
#417=APPLICATION_PROTOCOL_DEFINITION('international standard',
'automotive_design',2009,#418);
#418=APPLICATION_CONTEXT(
'Core Data for Automotive Mechanical Design Process');
#419=PRODUCT_CONTEXT('part definition',#418,'mechanical');
#420=PRODUCT('Tube','Tube v4',$,(#419));
#421=PRESENTATION_STYLE_ASSIGNMENT((#423));
#422=PRESENTATION_STYLE_ASSIGNMENT((#424));
#423=SURFACE_STYLE_USAGE(.BOTH.,#425);
#424=SURFACE_STYLE_USAGE(.BOTH.,#426);
#425=SURFACE_SIDE_STYLE('',(#427));
#426=SURFACE_SIDE_STYLE('',(#428));
#427=SURFACE_STYLE_FILL_AREA(#429);
#428=SURFACE_STYLE_FILL_AREA(#430);
#429=FILL_AREA_STYLE('Steel - Satin',(#431));
#430=FILL_AREA_STYLE('Aluminum - Bead Blasted',(#432));
#431=FILL_AREA_STYLE_COLOUR('Steel - Satin',#433);
#432=FILL_AREA_STYLE_COLOUR('Aluminum - Bead Blasted',#434);
#433=COLOUR_RGB('Steel - Satin',0.627450980392157,0.627450980392157,0.627450980392157);
#434=COLOUR_RGB('Aluminum - Bead Blasted',0.96078431372549,0.96078431372549,
0.964705882352941);
ENDSEC;
END-ISO-10303-21;
