0
SECTION
2
TABLES
0
TABLE
2
LAYER
70
1
0
LAYER
2
0
70
0
62
7
6
CONTINUOUS
 0
ENDTAB
0
ENDSEC
0
SECTION
2
BLOCKS
0
ENDSEC
0
SECTION
2
ENTITIES
0
POLYLINE
8
0
62
256
66
1
10
0
20
0
30
0
70
1
0
VERTEX
8
0
10
4398.444703
20
2.00771
30
0
42
0.9999999999999999
0
VERTEX
8
0
10
4398.444703
20
0.50771
30
0
0
VERTEX
8
0
10
4437.694703
20
0.50771
30
0
0
VERTEX
8
0
10
4437.694703
20
8.860941
30
0
0
VERTEX
8
0
10
4435.699622
20
8.860941
30
0
42
-0.5928789017634762
0
VERTEX
8
0
10
4424.220849
20
29.849619
30
0
42
1.0105936278939969
0
VERTEX
8
0
10
4417.44035
20
34.094348
30
0
42
-0.23376607561535084
0
VERTEX
8
0
10
4406.191795
20
26.999353
30
0
42
1.0123232084076514
0
VERTEX
8
0
10
4407.11511
20
19.053417
30
0
42
-0.29445235926051366
0
VERTEX
8
0
10
4415.487923
20
15.062547
30
0
42
-0.5872882616696973
0
VERTEX
8
0
10
4408.206913
20
2.00771
30
0
0
SEQEND
0
CIRCLE
8
0
62
256
10
4420.852965
20
32.00771
40
2.5
0
CIRCLE
8
0
62
256
10
4418.891138
20
17.16448
40
2.5
0
CIRCLE
8
0
62
256
10
4406.604791
20
23.02073
40
2.5
0
ENDSEC
0
EOF
