0
SECTION
2
TABLES
0
TABLE
2
LAYER
70
1
0
LAYER
2
0
70
0
62
7
6
CONTINUOUS
 0
ENDTAB
0
ENDSEC
0
SECTION
2
BLOCKS
0
ENDSEC
0
SECTION
2
ENTITIES
0
POLYLINE
8
0
62
256
66
1
10
0
20
0
30
0
70
1
0
VERTEX
8
0
10
4167.492056
20
15.448273
30
0
0
VERTEX
8
0
10
4164.705484
20
18.76918
30
0
42
0.22169466264294577
0
VERTEX
8
0
10
4158.960151
20
21.448273
30
0
0
VERTEX
8
0
10
4142.273961
20
21.448273
30
0
42
0.22169466264294685
0
VERTEX
8
0
10
4136.528628
20
18.76918
30
0
0
VERTEX
8
0
10
4133.742056
20
15.448273
30
0
0
VERTEX
8
0
10
4128.117056
20
15.448273
30
0
42
0.41421356237308266
0
VERTEX
8
0
10
4120.617056
20
7.948273
30
0
0
VERTEX
8
0
10
4120.617056
20
-19.051727
30
0
42
0.4142135623730829
0
VERTEX
8
0
10
4128.117056
20
-26.551727
30
0
0
VERTEX
8
0
10
4133.742056
20
-26.551727
30
0
0
VERTEX
8
0
10
4136.528628
20
-29.872634
30
0
42
0.22169466264294513
0
VERTEX
8
0
10
4142.273961
20
-32.551727
30
0
0
VERTEX
8
0
10
4158.960151
20
-32.551727
30
0
42
0.22169466264294493
0
VERTEX
8
0
10
4164.705484
20
-29.872634
30
0
0
VERTEX
8
0
10
4167.492056
20
-26.551727
30
0
0
VERTEX
8
0
10
4179.460546
20
-26.551727
30
0
42
0.3342234703179363
0
VERTEX
8
0
10
4186.667237
20
-21.12865
30
0
42
0.14122300674951282
0
VERTEX
8
0
10
4186.667237
20
10.025196
30
0
42
0.33422347031793176
0
VERTEX
8
0
10
4179.460546
20
15.448273
30
0
0
SEQEND
0
POLYLINE
8
0
62
256
66
1
10
0
20
0
30
0
70
1
0
VERTEX
8
0
10
4162.393045
20
-7.734277
30
0
42
0.3960121918357929
0
VERTEX
8
0
10
4161.528911
20
-8.289219
30
0
42
-0.034192782167214504
0
VERTEX
8
0
10
4161.05399
20
-9.750876
30
0
42
0.396012191835669
0
VERTEX
8
0
10
4161.426902
20
-10.707759
30
0
0
VERTEX
8
0
10
4165.15549
20
-12.486204
30
0
42
0.42790801933660333
0
VERTEX
8
0
10
4166.169598
20
-12.100313
30
0
42
0.042210682562086356
0
VERTEX
8
0
10
4167.048489
20
-9.395363
30
0
42
0.4279080193366921
0
VERTEX
8
0
10
4166.45488
20
-8.487093
30
0
0
SEQEND
0
POLYLINE
8
0
62
256
66
1
10
0
20
0
30
0
70
1
0
VERTEX
8
0
10
4167.862335
20
-12.780167
30
0
0
VERTEX
8
0
10
4170.579175
20
-14.076034
30
0
42
0.4366334030799422
0
VERTEX
8
0
10
4171.601541
20
-13.669694
30
0
42
0.02748926674744243
0
VERTEX
8
0
10
4172.365482
20
-11.318524
30
0
42
0.4366334030799633
0
VERTEX
8
0
10
4171.777212
20
-10.388856
30
0
0
VERTEX
8
0
10
4168.817551
20
-9.840316
30
0
42
0.3886348324453821
0
VERTEX
8
0
10
4167.958321
20
-10.376716
30
0
42
-0.021396133366371733
0
VERTEX
8
0
10
4167.482492
20
-11.841169
30
0
42
0.3886348324454066
0
SEQEND
0
POLYLINE
8
0
62
256
66
1
10
0
20
0
30
0
70
1
0
VERTEX
8
0
10
4164.772644
20
-13.237583
30
0
0
VERTEX
8
0
10
4161.142242
20
-11.266436
30
0
42
0.39601219183566483
0
VERTEX
8
0
10
4160.148915
20
-11.527185
30
0
42
-0.034192782167210216
0
VERTEX
8
0
10
4159.245561
20
-12.770545
30
0
42
0.3960121918356641
0
VERTEX
8
0
10
4159.304529
20
-13.795831
30
0
0
VERTEX
8
0
10
4162.301057
20
-16.63943
30
0
42
0.42790801933677947
0
VERTEX
8
0
10
4163.384777
20
-16.585802
30
0
42
0.042210682562083705
0
VERTEX
8
0
10
4165.056529
20
-14.284834
30
0
42
0.4279080193367349
0
SEQEND
0
POLYLINE
8
0
62
256
66
1
10
0
20
0
30
0
70
1
0
VERTEX
8
0
10
4164.78458
20
-17.755467
30
0
0
VERTEX
8
0
10
4166.968003
20
-19.827458
30
0
42
0.4366334030799422
0
VERTEX
8
0
10
4168.065898
20
-19.756934
30
0
42
0.027489266747438127
0
VERTEX
8
0
10
4169.519
20
-17.75691
30
0
42
0.4366334030799633
0
VERTEX
8
0
10
4169.246805
20
-16.690958
30
0
0
VERTEX
8
0
10
4166.601508
20
-15.254679
30
0
42
0.3886348324453821
0
VERTEX
8
0
10
4165.618576
20
-15.499309
30
0
42
-0.021396133366371084
0
VERTEX
8
0
10
4164.713494
20
-16.745048
30
0
42
0.3886348324454066
0
SEQEND
0
POLYLINE
8
0
62
256
66
1
10
0
20
0
30
0
70
1
0
VERTEX
8
0
10
4158.86116
20
-14.239199
30
0
42
0.3960121918356375
0
VERTEX
8
0
10
4157.835875
20
-14.180232
30
0
42
-0.034192782167214504
0
VERTEX
8
0
10
4156.592514
20
-15.083586
30
0
42
0.3960121918353754
0
VERTEX
8
0
10
4156.331765
20
-16.076912
30
0
0
VERTEX
8
0
10
4158.302913
20
-19.707314
30
0
42
0.42790801933674827
0
VERTEX
8
0
10
4159.350164
20
-19.991199
30
0
42
0.042210682562086356
0
VERTEX
8
0
10
4161.651132
20
-18.319447
30
0
42
0.4279080193371375
0
VERTEX
8
0
10
4161.70476
20
-17.235728
30
0
0
SEQEND
0
POLYLINE
8
0
62
256
66
1
10
0
20
0
30
0
70
1
0
VERTEX
8
0
10
4160.320009
20
-21.536179
30
0
0
VERTEX
8
0
10
4161.756287
20
-24.181475
30
0
42
0.4366334030799422
0
VERTEX
8
0
10
4162.82224
20
-24.453671
30
0
42
0.02748926674744243
0
VERTEX
8
0
10
4164.822264
20
-23.000568
30
0
42
0.4366334030799633
0
VERTEX
8
0
10
4164.892788
20
-21.902674
30
0
0
VERTEX
8
0
10
4162.820796
20
-19.71925
30
0
42
0.3886348324453821
0
VERTEX
8
0
10
4161.810377
20
-19.648165
30
0
42
-0.021396133366372708
0
VERTEX
8
0
10
4160.564639
20
-20.553246
30
0
42
0.3886348324454066
0
SEQEND
0
POLYLINE
8
0
62
256
66
1
10
0
20
0
30
0
70
1
0
VERTEX
8
0
10
4157.551534
20
-20.090161
30
0
0
VERTEX
8
0
10
4155.773088
20
-16.361572
30
0
42
0.39601219183566483
0
VERTEX
8
0
10
4154.816206
20
-15.98866
30
0
42
-0.03419278216721389
0
VERTEX
8
0
10
4153.354548
20
-16.463582
30
0
42
0.3960121918356641
0
VERTEX
8
0
10
4152.799606
20
-17.327715
30
0
0
VERTEX
8
0
10
4153.552423
20
-21.38955
30
0
42
0.42790801933677947
0
VERTEX
8
0
10
4154.460693
20
-21.983159
30
0
42
0.04221067728434215
0
VERTEX
8
0
10
4157.165643
20
-21.104268
30
0
42
0.4279080193367349
0
SEQEND
0
POLYLINE
8
0
62
256
66
1
10
0
20
0
30
0
70
1
0
VERTEX
8
0
10
4154.905645
20
-23.752221
30
0
0
VERTEX
8
0
10
4155.454186
20
-26.711882
30
0
42
0.4366334030799422
0
VERTEX
8
0
10
4156.383854
20
-27.300153
30
0
42
0.027489263019334877
0
VERTEX
8
0
10
4158.735023
20
-26.536211
30
0
42
0.4366334030799633
0
VERTEX
8
0
10
4159.141363
20
-25.513845
30
0
0
VERTEX
8
0
10
4157.845497
20
-22.797005
30
0
42
0.3886348324453821
0
VERTEX
8
0
10
4156.906498
20
-22.417162
30
0
42
-0.021396133366373356
0
VERTEX
8
0
10
4155.442045
20
-22.892992
30
0
42
0.3886348324454066
0
SEQEND
0
POLYLINE
8
0
62
256
66
1
10
0
20
0
30
0
70
1
0
VERTEX
8
0
10
4152.180308
20
-17.425802
30
0
42
0.3960121918357025
0
VERTEX
8
0
10
4151.385495
20
-16.775449
30
0
42
-0.034192782167214504
0
VERTEX
8
0
10
4149.848617
20
-16.775449
30
0
42
0.3960121918354908
0
VERTEX
8
0
10
4149.053804
20
-17.425802
30
0
0
VERTEX
8
0
10
4148.514599
20
-21.52147
30
0
42
0.4279080193367298
0
VERTEX
8
0
10
4149.19498
20
-22.366697
30
0
42
0.042210682562086356
0
VERTEX
8
0
10
4152.039133
20
-22.366697
30
0
42
0.42790801933672457
0
VERTEX
8
0
10
4152.719513
20
-21.52147
30
0
0
SEQEND
0
POLYLINE
8
0
62
256
66
1
10
0
20
0
30
0
70
1
0
VERTEX
8
0
10
4149.071485
20
-24.186672
30
0
0
VERTEX
8
0
10
4148.678592
20
-27.170985
30
0
42
0.4366334030799422
0
VERTEX
8
0
10
4149.380973
20
-28.017747
30
0
42
0.027489263019340446
0
VERTEX
8
0
10
4151.853139
20
-28.017747
30
0
42
0.4366334030799633
0
VERTEX
8
0
10
4152.55552
20
-27.170985
30
0
0
VERTEX
8
0
10
4152.162628
20
-24.186672
30
0
42
0.3886348324453821
0
VERTEX
8
0
10
4151.386965
20
-23.535253
30
0
42
-0.021396133366373686
0
VERTEX
8
0
10
4149.847148
20
-23.535253
30
0
42
0.3886348324454066
0
SEQEND
0
POLYLINE
8
0
62
256
66
1
10
0
20
0
30
0
70
1
0
VERTEX
8
0
10
4143.388615
20
-22.797005
30
0
0
VERTEX
8
0
10
4142.092749
20
-25.513845
30
0
42
0.4366334030799422
0
VERTEX
8
0
10
4142.499089
20
-26.536211
30
0
42
0.027489266747441926
0
VERTEX
8
0
10
4144.850259
20
-27.300153
30
0
42
0.4366334030799633
0
VERTEX
8
0
10
4145.779927
20
-26.711882
30
0
0
VERTEX
8
0
10
4146.328467
20
-23.752221
30
0
42
0.3886348324453821
0
VERTEX
8
0
10
4145.792067
20
-22.892992
30
0
42
-0.021396133366373356
0
VERTEX
8
0
10
4144.327614
20
-22.417162
30
0
42
0.3886348324454066
0
SEQEND
0
POLYLINE
8
0
62
256
66
1
10
0
20
0
30
0
70
1
0
VERTEX
8
0
10
4144.902347
20
-16.076912
30
0
42
0.39601219183542824
0
VERTEX
8
0
10
4144.641598
20
-15.083586
30
0
42
-0.034192782167214504
0
VERTEX
8
0
10
4143.398238
20
-14.180232
30
0
42
0.3960121918358339
0
VERTEX
8
0
10
4142.372952
20
-14.239199
30
0
0
VERTEX
8
0
10
4139.529353
20
-17.235728
30
0
42
0.4279080193364889
0
VERTEX
8
0
10
4139.582981
20
-18.319448
30
0
42
0.042210682562086356
0
VERTEX
8
0
10
4141.883949
20
-19.991199
30
0
42
0.42790801933665035
0
VERTEX
8
0
10
4142.9312
20
-19.707314
30
0
0
SEQEND
0
POLYLINE
8
0
62
256
66
1
10
0
20
0
30
0
70
1
0
VERTEX
8
0
10
4138.413316
20
-19.71925
30
0
0
VERTEX
8
0
10
4136.341324
20
-21.902674
30
0
42
0.4366334030799422
0
VERTEX
8
0
10
4136.411848
20
-23.000568
30
0
42
0.027489266747442936
0
VERTEX
8
0
10
4138.411873
20
-24.453671
30
0
42
0.4366334030799633
0
VERTEX
8
0
10
4139.477825
20
-24.181475
30
0
0
VERTEX
8
0
10
4140.914104
20
-21.536179
30
0
42
0.3886348324453821
0
VERTEX
8
0
10
4140.669474
20
-20.553246
30
0
42
-0.021396133366374658
0
VERTEX
8
0
10
4139.423735
20
-19.648165
30
0
42
0.3886348324454066
0
SEQEND
0
POLYLINE
8
0
62
256
66
1
10
0
20
0
30
0
70
1
0
VERTEX
8
0
10
4138.933055
20
-16.63943
30
0
0
VERTEX
8
0
10
4141.929584
20
-13.795831
30
0
42
0.39601219183566483
0
VERTEX
8
0
10
4141.988551
20
-12.770545
30
0
42
-0.034192782167215725
0
VERTEX
8
0
10
4141.085197
20
-11.527185
30
0
42
0.3960121918356641
0
VERTEX
8
0
10
4140.091871
20
-11.266436
30
0
0
VERTEX
8
0
10
4136.461469
20
-13.237583
30
0
42
0.42790801933677947
0
VERTEX
8
0
10
4136.177584
20
-14.284834
30
0
42
0.04221068256208553
0
VERTEX
8
0
10
4137.849335
20
-16.585803
30
0
42
0.4279080193367349
0
SEQEND
0
POLYLINE
8
0
62
256
66
1
10
0
20
0
30
0
70
1
0
VERTEX
8
0
10
4134.632604
20
-15.254679
30
0
0
VERTEX
8
0
10
4131.987308
20
-16.690958
30
0
42
0.4366334030799422
0
VERTEX
8
0
10
4131.715112
20
-17.75691
30
0
42
0.02748926674744243
0
VERTEX
8
0
10
4133.168215
20
-19.756934
30
0
42
0.4366334030799633
0
VERTEX
8
0
10
4134.266109
20
-19.827458
30
0
0
VERTEX
8
0
10
4136.449533
20
-17.755467
30
0
42
0.3886348324453821
0
VERTEX
8
0
10
4136.520618
20
-16.745048
30
0
42
-0.021396133366374335
0
VERTEX
8
0
10
4135.615537
20
-15.499309
30
0
42
0.3886348324454066
0
SEQEND
0
POLYLINE
8
0
62
256
66
1
10
0
20
0
30
0
70
1
0
VERTEX
8
0
10
4139.807211
20
-10.707759
30
0
42
0.3960121918356687
0
VERTEX
8
0
10
4140.180123
20
-9.750876
30
0
42
-0.034192782167214504
0
VERTEX
8
0
10
4139.705201
20
-8.289219
30
0
42
0.39601219183541203
0
VERTEX
8
0
10
4138.841068
20
-7.734277
30
0
0
VERTEX
8
0
10
4134.779232
20
-8.487093
30
0
42
0.4279080193367957
0
VERTEX
8
0
10
4134.185623
20
-9.395363
30
0
42
0.042210682562086356
0
VERTEX
8
0
10
4135.064515
20
-12.100314
30
0
42
0.42790801933676614
0
VERTEX
8
0
10
4136.078622
20
-12.486204
30
0
0
SEQEND
0
POLYLINE
8
0
62
256
66
1
10
0
20
0
30
0
70
1
0
VERTEX
8
0
10
4132.416562
20
-9.840316
30
0
0
VERTEX
8
0
10
4129.456901
20
-10.388856
30
0
42
0.4366334030799422
0
VERTEX
8
0
10
4128.86863
20
-11.318524
30
0
42
0.027489266747441416
0
VERTEX
8
0
10
4129.632571
20
-13.669694
30
0
42
0.4366334030799633
0
VERTEX
8
0
10
4130.654938
20
-14.076034
30
0
0
VERTEX
8
0
10
4133.371778
20
-12.780167
30
0
42
0.3886348324453821
0
VERTEX
8
0
10
4133.751621
20
-11.841169
30
0
42
-0.021396133366371084
0
VERTEX
8
0
10
4133.275791
20
-10.376716
30
0
42
0.3886348324454066
0
SEQEND
0
POLYLINE
8
0
62
256
66
1
10
0
20
0
30
0
70
1
0
VERTEX
8
0
10
4138.74298
20
-7.114979
30
0
42
0.39601219183585484
0
VERTEX
8
0
10
4139.393334
20
-6.320166
30
0
42
-0.034192782167214504
0
VERTEX
8
0
10
4139.393334
20
-4.783288
30
0
42
0.3960121918358043
0
VERTEX
8
0
10
4138.74298
20
-3.988475
30
0
0
VERTEX
8
0
10
4134.647312
20
-3.44927
30
0
42
0.4279080193368761
0
VERTEX
8
0
10
4133.802086
20
-4.12965
30
0
42
0.042210682562086356
0
VERTEX
8
0
10
4133.802086
20
-6.973804
30
0
42
0.42790801933686484
0
VERTEX
8
0
10
4134.647312
20
-7.654184
30
0
0
SEQEND
0
POLYLINE
8
0
62
256
66
1
10
0
20
0
30
0
70
1
0
VERTEX
8
0
10
4131.98211
20
-4.006155
30
0
0
VERTEX
8
0
10
4128.997797
20
-3.613263
30
0
42
0.4366334030799422
0
VERTEX
8
0
10
4128.151035
20
-4.315644
30
0
42
0.02748926674744218
0
VERTEX
8
0
10
4128.151035
20
-6.78781
30
0
42
0.4366334030799633
0
VERTEX
8
0
10
4128.997797
20
-7.490191
30
0
0
VERTEX
8
0
10
4131.98211
20
-7.097298
30
0
42
0.3886348324453821
0
VERTEX
8
0
10
4132.633529
20
-6.321635
30
0
42
-0.021396133366372708
0
VERTEX
8
0
10
4132.633529
20
-4.781818
30
0
42
0.3886348324454066
0
SEQEND
0
POLYLINE
8
0
62
256
66
1
10
0
20
0
30
0
70
1
0
VERTEX
8
0
10
4138.841068
20
-3.369176
30
0
42
0.39601219183560227
0
VERTEX
8
0
10
4139.705201
20
-2.814235
30
0
42
-0.034192782167214504
0
VERTEX
8
0
10
4140.180123
20
-1.352577
30
0
42
0.39601219183566977
0
VERTEX
8
0
10
4139.807211
20
-0.395694
30
0
0
VERTEX
8
0
10
4136.078622
20
1.382751
30
0
42
0.4279080193368485
0
VERTEX
8
0
10
4135.064515
20
0.99686
30
0
42
0.042210682562086356
0
VERTEX
8
0
10
4134.185623
20
-1.708091
30
0
42
0.4279080193369447
0
VERTEX
8
0
10
4134.779232
20
-2.61636
30
0
0
SEQEND
0
POLYLINE
8
0
62
256
66
1
10
0
20
0
30
0
70
1
0
VERTEX
8
0
10
4133.371778
20
1.676714
30
0
0
VERTEX
8
0
10
4130.654938
20
2.972581
30
0
42
0.4366334030799422
0
VERTEX
8
0
10
4129.632571
20
2.56624
30
0
42
0.027489266747443696
0
VERTEX
8
0
10
4128.86863
20
0.215071
30
0
42
0.4366334030799633
0
VERTEX
8
0
10
4129.456901
20
-0.714597
30
0
0
VERTEX
8
0
10
4132.416562
20
-1.263138
30
0
42
0.3886348324453821
0
VERTEX
8
0
10
4133.275791
20
-0.726738
30
0
42
-0.02139613336637401
0
VERTEX
8
0
10
4133.751621
20
0.737715
30
0
42
0.3886348324454066
0
SEQEND
0
POLYLINE
8
0
62
256
66
1
10
0
20
0
30
0
70
1
0
VERTEX
8
0
10
4148.434506
20
-17.327715
30
0
42
0.3960121918355224
0
VERTEX
8
0
10
4147.879564
20
-16.463582
30
0
42
-0.03419278216721593
0
VERTEX
8
0
10
4146.417906
20
-15.98866
30
0
42
0.3960121918356641
0
VERTEX
8
0
10
4145.461024
20
-16.361572
30
0
0
VERTEX
8
0
10
4143.682579
20
-20.090161
30
0
42
0.4279080193370405
0
VERTEX
8
0
10
4144.06847
20
-21.104268
30
0
42
0.042210682562086356
0
VERTEX
8
0
10
4146.77342
20
-21.98316
30
0
42
0.4279080193364437
0
VERTEX
8
0
10
4147.681689
20
-21.38955
30
0
0
SEQEND
0
POLYLINE
8
0
62
256
66
1
10
0
20
0
30
0
70
1
0
VERTEX
8
0
10
4136.461469
20
2.13413
30
0
0
VERTEX
8
0
10
4140.091871
20
0.162983
30
0
42
0.39601219183566483
0
VERTEX
8
0
10
4141.085197
20
0.423732
30
0
42
-0.03419278216721491
0
VERTEX
8
0
10
4141.988551
20
1.667092
30
0
42
0.3960121918356641
0
VERTEX
8
0
10
4141.929584
20
2.692377
30
0
0
VERTEX
8
0
10
4138.933055
20
5.535977
30
0
42
0.42790801933677947
0
VERTEX
8
0
10
4137.849335
20
5.482349
30
0
42
0.04221068256208205
0
VERTEX
8
0
10
4136.177584
20
3.18138
30
0
42
0.4279080193367349
0
SEQEND
0
CIRCLE
8
0
62
256
10
4179.460546
20
-19.051727
40
4.5
0
CIRCLE
8
0
62
256
10
4179.460546
20
7.948273
40
4.5
0
POLYLINE
8
0
62
256
66
1
10
0
20
0
30
0
70
1
0
VERTEX
8
0
10
4136.449533
20
6.652013
30
0
0
VERTEX
8
0
10
4134.266109
20
8.724005
30
0
42
0.4366334030799422
0
VERTEX
8
0
10
4133.168215
20
8.653481
30
0
42
0.02748926674744547
0
VERTEX
8
0
10
4131.715112
20
6.653457
30
0
42
0.4366334030799633
0
VERTEX
8
0
10
4131.987308
20
5.587505
30
0
0
VERTEX
8
0
10
4134.632604
20
4.151226
30
0
42
0.3886348324453821
0
VERTEX
8
0
10
4135.615537
20
4.395856
30
0
42
-0.021396133366375632
0
VERTEX
8
0
10
4136.520618
20
5.641594
30
0
42
0.3886348324454066
0
SEQEND
0
POLYLINE
8
0
62
256
66
1
10
0
20
0
30
0
70
1
0
VERTEX
8
0
10
4142.372952
20
3.135746
30
0
42
0.39601219183563735
0
VERTEX
8
0
10
4143.398238
20
3.076778
30
0
42
-0.034192782167214504
0
VERTEX
8
0
10
4144.641598
20
3.980133
30
0
42
0.39601219183531194
0
VERTEX
8
0
10
4144.902347
20
4.973459
30
0
0
VERTEX
8
0
10
4142.9312
20
8.603861
30
0
42
0.42790801933683226
0
VERTEX
8
0
10
4141.883949
20
8.887746
30
0
42
0.042210682562086356
0
VERTEX
8
0
10
4139.58298
20
7.215994
30
0
42
0.42790801933702177
0
VERTEX
8
0
10
4139.529353
20
6.132274
30
0
0
SEQEND
0
POLYLINE
8
0
62
256
66
1
10
0
20
0
30
0
70
1
0
VERTEX
8
0
10
4140.914104
20
10.432725
30
0
0
VERTEX
8
0
10
4139.477825
20
13.078022
30
0
42
0.4366334030799422
0
VERTEX
8
0
10
4138.411873
20
13.350217
30
0
42
0.02748926674744243
0
VERTEX
8
0
10
4136.411848
20
11.897115
30
0
42
0.4366334030799633
0
VERTEX
8
0
10
4136.341324
20
10.799221
30
0
0
VERTEX
8
0
10
4138.413316
20
8.615797
30
0
42
0.3886348324453821
0
VERTEX
8
0
10
4139.423735
20
8.544711
30
0
42
-0.02139613336637206
0
VERTEX
8
0
10
4140.669474
20
9.449793
30
0
42
0.3886348324454066
0
SEQEND
0
POLYLINE
8
0
62
256
66
1
10
0
20
0
30
0
70
1
0
VERTEX
8
0
10
4143.682579
20
8.986707
30
0
0
VERTEX
8
0
10
4145.461024
20
5.258119
30
0
42
0.39601219183566483
0
VERTEX
8
0
10
4146.417906
20
4.885207
30
0
42
-0.03419278216721491
0
VERTEX
8
0
10
4147.879564
20
5.360128
30
0
42
0.3960121918356641
0
VERTEX
8
0
10
4148.434506
20
6.224262
30
0
0
VERTEX
8
0
10
4147.681689
20
10.286097
30
0
42
0.42790801933677947
0
VERTEX
8
0
10
4146.77342
20
10.879706
30
0
42
0.042210682562086356
0
VERTEX
8
0
10
4144.068469
20
10.000814
30
0
42
0.4279080193367349
0
SEQEND
0
POLYLINE
8
0
62
256
66
1
10
0
20
0
30
0
70
1
0
VERTEX
8
0
10
4146.328467
20
12.648768
30
0
0
VERTEX
8
0
10
4145.779927
20
15.608429
30
0
42
0.4366334030799422
0
VERTEX
8
0
10
4144.850259
20
16.196699
30
0
42
0.027489266747441926
0
VERTEX
8
0
10
4142.499089
20
15.432758
30
0
42
0.4366334030799633
0
VERTEX
8
0
10
4142.092749
20
14.410392
30
0
0
VERTEX
8
0
10
4143.388615
20
11.693552
30
0
42
0.3886348324453821
0
VERTEX
8
0
10
4144.327614
20
11.313709
30
0
42
-0.021396133366373356
0
VERTEX
8
0
10
4145.792067
20
11.789539
30
0
42
0.3886348324454066
0
SEQEND
0
POLYLINE
8
0
62
256
66
1
10
0
20
0
30
0
70
1
0
VERTEX
8
0
10
4149.053804
20
6.322349
30
0
42
0.3960121918355867
0
VERTEX
8
0
10
4149.848617
20
5.671996
30
0
42
-0.034192782167214504
0
VERTEX
8
0
10
4151.385495
20
5.671996
30
0
42
0.39601219183580555
0
VERTEX
8
0
10
4152.180308
20
6.322349
30
0
0
VERTEX
8
0
10
4152.719513
20
10.418017
30
0
42
0.42790801933672706
0
VERTEX
8
0
10
4152.039133
20
11.263244
30
0
42
0.042210682562086356
0
VERTEX
8
0
10
4149.194979
20
11.263244
30
0
42
0.427908019336724
0
VERTEX
8
0
10
4148.514599
20
10.418017
30
0
0
SEQEND
0
POLYLINE
8
0
62
256
66
1
10
0
20
0
30
0
70
1
0
VERTEX
8
0
10
4152.162628
20
13.083219
30
0
0
VERTEX
8
0
10
4152.55552
20
16.067532
30
0
42
0.4366334030799422
0
VERTEX
8
0
10
4151.853139
20
16.914294
30
0
42
0.02748926674744243
0
VERTEX
8
0
10
4149.380973
20
16.914294
30
0
42
0.4366334030799633
0
VERTEX
8
0
10
4148.678592
20
16.067532
30
0
0
VERTEX
8
0
10
4149.071485
20
13.083219
30
0
42
0.3886348324453821
0
VERTEX
8
0
10
4149.847148
20
12.4318
30
0
42
-0.021396133366373686
0
VERTEX
8
0
10
4151.386965
20
12.4318
30
0
42
0.3886348324454066
0
SEQEND
0
POLYLINE
8
0
62
256
66
1
10
0
20
0
30
0
70
1
0
VERTEX
8
0
10
4152.799606
20
6.224262
30
0
42
0.3960121918354427
0
VERTEX
8
0
10
4153.354548
20
5.360128
30
0
42
-0.034192782167214504
0
VERTEX
8
0
10
4154.816206
20
4.885207
30
0
42
0.39601219183556036
0
VERTEX
8
0
10
4155.773088
20
5.258119
30
0
0
VERTEX
8
0
10
4157.551534
20
8.986707
30
0
42
0.42790801933706174
0
VERTEX
8
0
10
4157.165643
20
10.000815
30
0
42
0.042210682562086356
0
VERTEX
8
0
10
4154.460692
20
10.879706
30
0
42
0.4279080193365502
0
VERTEX
8
0
10
4153.552423
20
10.286097
30
0
0
SEQEND
0
POLYLINE
8
0
62
256
66
1
10
0
20
0
30
0
70
1
0
VERTEX
8
0
10
4157.845497
20
11.693552
30
0
0
VERTEX
8
0
10
4159.141363
20
14.410392
30
0
42
0.4366334030799422
0
VERTEX
8
0
10
4158.735023
20
15.432758
30
0
42
0.027489266747441926
0
VERTEX
8
0
10
4156.383854
20
16.196699
30
0
42
0.4366334030799633
0
VERTEX
8
0
10
4155.454186
20
15.608429
30
0
0
VERTEX
8
0
10
4154.905645
20
12.648768
30
0
42
0.3886348324453821
0
VERTEX
8
0
10
4155.442045
20
11.789539
30
0
42
-0.021396133366373356
0
VERTEX
8
0
10
4156.906498
20
11.313709
30
0
42
0.3886348324454066
0
SEQEND
0
POLYLINE
8
0
62
256
66
1
10
0
20
0
30
0
70
1
0
VERTEX
8
0
10
4158.302913
20
8.603861
30
0
0
VERTEX
8
0
10
4156.331765
20
4.973459
30
0
42
0.39601219183566483
0
VERTEX
8
0
10
4156.592514
20
3.980133
30
0
42
-0.034192782167215316
0
VERTEX
8
0
10
4157.835875
20
3.076778
30
0
42
0.3960121918356641
0
VERTEX
8
0
10
4158.86116
20
3.135746
30
0
0
VERTEX
8
0
10
4161.70476
20
6.132274
30
0
42
0.42790801933677947
0
VERTEX
8
0
10
4161.651132
20
7.215995
30
0
42
0.0422106825620885
0
VERTEX
8
0
10
4159.350163
20
8.887746
30
0
42
0.4279080193367349
0
SEQEND
0
POLYLINE
8
0
62
256
66
1
10
0
20
0
30
0
70
1
0
VERTEX
8
0
10
4162.820796
20
8.615797
30
0
0
VERTEX
8
0
10
4164.892788
20
10.799221
30
0
42
0.4366334030799422
0
VERTEX
8
0
10
4164.822264
20
11.897115
30
0
42
0.027489266747442682
0
VERTEX
8
0
10
4162.82224
20
13.350217
30
0
42
0.4366334030799633
0
VERTEX
8
0
10
4161.756287
20
13.078022
30
0
0
VERTEX
8
0
10
4160.320009
20
10.432725
30
0
42
0.3886348324453821
0
VERTEX
8
0
10
4160.564639
20
9.449793
30
0
42
-0.021396133366374658
0
VERTEX
8
0
10
4161.810377
20
8.544711
30
0
42
0.3886348324454066
0
SEQEND
0
POLYLINE
8
0
62
256
66
1
10
0
20
0
30
0
70
1
0
VERTEX
8
0
10
4159.304529
20
2.692377
30
0
42
0.39601219183507824
0
VERTEX
8
0
10
4159.245561
20
1.667092
30
0
42
-0.034192782167214504
0
VERTEX
8
0
10
4160.148915
20
0.423732
30
0
42
0.3960121918356397
0
VERTEX
8
0
10
4161.142242
20
0.162983
30
0
0
VERTEX
8
0
10
4164.772644
20
2.13413
30
0
42
0.4279080193364495
0
VERTEX
8
0
10
4165.056529
20
3.181381
30
0
42
0.042210682562086356
0
VERTEX
8
0
10
4163.384777
20
5.482349
30
0
42
0.4279080193367219
0
VERTEX
8
0
10
4162.301057
20
5.535977
30
0
0
SEQEND
0
POLYLINE
8
0
62
256
66
1
10
0
20
0
30
0
70
1
0
VERTEX
8
0
10
4166.601508
20
4.151226
30
0
0
VERTEX
8
0
10
4169.246805
20
5.587505
30
0
42
0.4366334030799422
0
VERTEX
8
0
10
4169.519
20
6.653457
30
0
42
0.027489266747440656
0
VERTEX
8
0
10
4168.065898
20
8.653481
30
0
42
0.4366334030799633
0
VERTEX
8
0
10
4166.968003
20
8.724005
30
0
0
VERTEX
8
0
10
4164.78458
20
6.652013
30
0
42
0.3886348324453821
0
VERTEX
8
0
10
4164.713494
20
5.641594
30
0
42
-0.021396133366374658
0
VERTEX
8
0
10
4165.618576
20
4.395856
30
0
42
0.3886348324454066
0
SEQEND
0
POLYLINE
8
0
62
256
66
1
10
0
20
0
30
0
70
1
0
VERTEX
8
0
10
4165.15549
20
1.382751
30
0
0
VERTEX
8
0
10
4161.426902
20
-0.395694
30
0
42
0.39601219183566483
0
VERTEX
8
0
10
4161.05399
20
-1.352577
30
0
42
-0.034192782167214095
0
VERTEX
8
0
10
4161.528911
20
-2.814235
30
0
42
0.3960121918356641
0
VERTEX
8
0
10
4162.393045
20
-3.369176
30
0
0
VERTEX
8
0
10
4166.45488
20
-2.61636
30
0
42
0.42790801933677947
0
VERTEX
8
0
10
4167.048489
20
-1.70809
30
0
42
0.0422106825620852
0
VERTEX
8
0
10
4166.169597
20
0.996861
30
0
42
0.4279080193367349
0
SEQEND
0
POLYLINE
8
0
62
256
66
1
10
0
20
0
30
0
70
1
0
VERTEX
8
0
10
4168.817551
20
-1.263138
30
0
0
VERTEX
8
0
10
4171.777212
20
-0.714597
30
0
42
0.4366334030799422
0
VERTEX
8
0
10
4172.365482
20
0.215071
30
0
42
0.027489266747441926
0
VERTEX
8
0
10
4171.601541
20
2.56624
30
0
42
0.4366334030799633
0
VERTEX
8
0
10
4170.579175
20
2.972581
30
0
0
VERTEX
8
0
10
4167.862335
20
1.676714
30
0
42
0.3886348324453821
0
VERTEX
8
0
10
4167.482492
20
0.737715
30
0
42
-0.021396133366376933
0
VERTEX
8
0
10
4167.958321
20
-0.726738
30
0
42
0.3886348324454066
0
SEQEND
0
POLYLINE
8
0
62
256
66
1
10
0
20
0
30
0
70
1
0
VERTEX
8
0
10
4169.252002
20
-7.097298
30
0
0
VERTEX
8
0
10
4172.236315
20
-7.490191
30
0
42
0.4366334030799422
0
VERTEX
8
0
10
4173.083077
20
-6.78781
30
0
42
0.02748926674744218
0
VERTEX
8
0
10
4173.083077
20
-4.315644
30
0
42
0.4366334030799633
0
VERTEX
8
0
10
4172.236315
20
-3.613263
30
0
0
VERTEX
8
0
10
4169.252002
20
-4.006155
30
0
42
0.3886348324453821
0
VERTEX
8
0
10
4168.600583
20
-4.781818
30
0
42
-0.021396133366372708
0
VERTEX
8
0
10
4168.600583
20
-6.321635
30
0
42
0.3886348324454066
0
SEQEND
0
POLYLINE
8
0
62
256
66
1
10
0
20
0
30
0
70
1
0
VERTEX
8
0
10
4162.491132
20
-3.988475
30
0
42
0.3960121918355856
0
VERTEX
8
0
10
4161.840779
20
-4.783288
30
0
42
-0.034192782167214504
0
VERTEX
8
0
10
4161.840779
20
-6.320166
30
0
42
0.39601219183558495
0
VERTEX
8
0
10
4162.491132
20
-7.114979
30
0
0
VERTEX
8
0
10
4166.5868
20
-7.654184
30
0
42
0.42790801933687544
0
VERTEX
8
0
10
4167.432027
20
-6.973803
30
0
42
0.042210682562086356
0
VERTEX
8
0
10
4167.432027
20
-4.12965
30
0
42
0.42790801933686484
0
VERTEX
8
0
10
4166.5868
20
-3.44927
30
0
0
SEQEND
0
ENDSEC
0
EOF
