0
SECTION
2
TABLES
0
TABLE
2
LAYER
70
1
0
LAYER
2
0
70
0
62
7
6
CONTINUOUS
 0
ENDTAB
0
ENDSEC
0
SECTION
2
BLOCKS
0
ENDSEC
0
SECTION
2
ENTITIES
0
POLYLINE
8
0
62
256
66
1
10
0
20
0
30
0
70
1
0
VERTEX
8
0
10
4514.266904356746
20
10.201599605877306
30
0
0
VERTEX
8
0
10
4511.156535356746
20
9.653157605877308
30
0
42
-0.2242845549085484
0
VERTEX
8
0
10
4508.684642356746
20
10.328589605877307
30
0
42
0.029332976004760612
0
VERTEX
8
0
10
4507.634210356746
20
11.126058605877306
30
0
42
0.39046502308941955
0
VERTEX
8
0
10
4467.457128356746
20
4.896935605877307
30
0
42
0.34950074235286643
0
VERTEX
8
0
10
4467.457126356745
20
-1.3321863941226937
30
0
42
0.33399332947224686
0
VERTEX
8
0
10
4502.3604173567455
20
-10.380198394122694
30
0
42
-0.30289416212511105
0
VERTEX
8
0
10
4505.625191356745
20
-11.032416394122693
30
0
0
VERTEX
8
0
10
4507.105200356746
20
-12.512424394122693
30
0
42
0.9999999999999999
0
VERTEX
8
0
10
4512.839264356746
20
-8.497389394122694
30
0
0
VERTEX
8
0
10
4511.504487356746
20
-5.634951394122693
30
0
42
-0.22428454536780704
0
VERTEX
8
0
10
4511.517131356745
20
-3.0724713941226938
30
0
42
0.07050070888833745
0
VERTEX
8
0
10
4512.466412356745
20
-0.06173739412269352
30
0
42
-0.22428455084073767
0
VERTEX
8
0
10
4513.925832356745
20
2.0445756058773066
30
0
0
VERTEX
8
0
10
4516.6610453567455
20
3.6237516058773065
30
0
42
0.9999999999999999
0
SEQEND
0
POLYLINE
8
0
62
256
66
1
10
0
20
0
30
0
70
1
0
VERTEX
8
0
10
4506.241849356746
20
-5.484936394122693
30
0
42
0.5334485453910437
0
VERTEX
8
0
10
4506.241849356746
20
9.049683605877306
30
0
42
0.3904650356205176
0
VERTEX
8
0
10
4469.412856356745
20
3.3396546058773064
30
0
42
0.3495007495797949
0
VERTEX
8
0
10
4469.412856356745
20
0.22509260587730662
30
0
42
0.390465037644046
0
SEQEND
0
CIRCLE
8
0
62
256
10
4515.463975356745
20
6.912675605877306
40
2
0
CIRCLE
8
0
62
256
10
4509.972232356746
20
-10.504907394122693
40
2
0
ENDSEC
0
EOF
