0
SECTION
2
TABLES
0
TABLE
2
LAYER
70
1
0
LAYER
2
0
70
0
62
7
6
CONTINUOUS
 0
ENDTAB
0
ENDSEC
0
SECTION
2
BLOCKS
0
ENDSEC
0
SECTION
2
ENTITIES
0
CIRCLE
8
0
62
256
10
4719.954793437069
20
-366.7616513117952
40
9.374999999998181
0
POLYLINE
8
0
62
256
66
1
10
0
20
0
30
0
70
1
0
VERTEX
8
0
10
4732.658228187067
20
-361.05686181179607
30
0
0
VERTEX
8
0
10
4743.7929359370655
20
-357.4389758117966
30
0
42
0.28323689671916785
0
VERTEX
8
0
10
4745.066738187066
20
-355.94077206179685
30
0
42
-0.278405016239992
0
VERTEX
8
0
10
4748.792591187064
20
-351.47815731179753
30
0
42
0.44386569119354113
0
VERTEX
8
0
10
4749.883887687065
20
-348.9201405617979
30
0
0
VERTEX
8
0
10
4738.589424687067
20
-324.43810131180146
30
0
42
0.443865691193529
0
VERTEX
8
0
10
4735.935101187067
20
-323.60807706180174
30
0
42
-0.6142658983996062
0
VERTEX
8
0
10
4727.4829889370685
20
-318.19915131180244
30
0
42
0.44386569119292896
0
VERTEX
8
0
10
4725.617387937069
20
-316.1366513118028
30
0
0
VERTEX
8
0
10
4723.329793437069
20
-316.1366513118028
30
0
42
0.4142135623732274
0
VERTEX
8
0
10
4721.454793437069
20
-318.0116513118025
30
0
0
VERTEX
8
0
10
4721.454793437069
20
-352.91709006179724
30
0
42
0.34579132735424845
0
VERTEX
8
0
10
4722.885714687069
20
-354.738743311797
30
0
42
-0.19709649331496554
0
VERTEX
8
0
10
4730.483554437068
20
-360.25889706179606
30
0
42
0.345791327354341
0
SEQEND
0
CIRCLE
8
0
62
256
10
4689.283220937074
20
-356.7958530617967
40
2.8125
0
CIRCLE
8
0
62
256
10
4750.626365937065
20
-356.7958530617967
40
2.8124999999990905
0
CIRCLE
8
0
62
256
10
4750.626365937065
20
-376.7274495617937
40
2.8124999999990905
0
CIRCLE
8
0
62
256
10
4719.954793437069
20
-399.0116513117904
40
2.8125
0
CIRCLE
8
0
62
256
10
4700.998718937072
20
-392.85244956179133
40
2.8124999999990905
0
CIRCLE
8
0
62
256
10
4689.283220937074
20
-376.7274495617937
40
2.8125
0
CIRCLE
8
0
62
256
10
4706.829793437071
20
-318.7616513118024
40
2.8125
0
POLYLINE
8
0
62
256
66
1
10
0
20
0
30
0
70
1
0
VERTEX
8
0
10
4707.251358687072
20
-361.05686181179607
30
0
42
0.34579132735426615
0
VERTEX
8
0
10
4709.426032437072
20
-360.2588970617963
30
0
42
-0.1970964933149662
0
VERTEX
8
0
10
4717.02387218707
20
-354.738743311797
30
0
42
0.3457913273543008
0
VERTEX
8
0
10
4718.454793437069
20
-352.91709006179724
30
0
0
VERTEX
8
0
10
4718.454793437069
20
-318.0116513118025
30
0
42
0.41421356237299767
0
VERTEX
8
0
10
4716.57979343707
20
-316.1366513118028
30
0
0
VERTEX
8
0
10
4714.29219893707
20
-316.1366513118028
30
0
42
0.4438656911930974
0
VERTEX
8
0
10
4712.42659793707
20
-318.19915131180244
30
0
42
-0.6142658983996875
0
VERTEX
8
0
10
4703.974485687071
20
-323.60807706180174
30
0
42
0.44386569119328295
0
VERTEX
8
0
10
4701.320162187072
20
-324.4381013118015
30
0
0
VERTEX
8
0
10
4690.025699187074
20
-348.92014056179784
30
0
42
0.4438656911932295
0
VERTEX
8
0
10
4691.1169956870735
20
-351.47815731179753
30
0
42
-0.27840501624006275
0
VERTEX
8
0
10
4694.842848687073
20
-355.94077206179685
30
0
42
0.2832368967194134
0
VERTEX
8
0
10
4696.116650937072
20
-357.43897581179664
30
0
0
SEQEND
0
CIRCLE
8
0
62
256
10
4733.079793437068
20
-318.7616513118024
40
2.8125
0
POLYLINE
8
0
62
256
66
1
10
0
20
0
30
0
70
1
0
VERTEX
8
0
10
4706.829793437071
20
-313.13665131180323
30
0
42
0.29258336120122963
0
VERTEX
8
0
10
4701.722129937072
20
-316.40529831180277
30
0
0
VERTEX
8
0
10
4683.6582209370745
20
-355.5608865617969
30
0
0
VERTEX
8
0
10
4683.6582209370745
20
-378.55512231179347
30
0
0
VERTEX
8
0
10
4697.522277687072
20
-397.6373603117906
30
0
0
VERTEX
8
0
10
4719.954793437069
20
-404.9261265617895
30
0
0
VERTEX
8
0
10
4742.387309187066
20
-397.6373603117906
30
0
0
VERTEX
8
0
10
4756.251365937063
20
-378.55512231179347
30
0
0
VERTEX
8
0
10
4756.251365937063
20
-355.5608865617969
30
0
0
VERTEX
8
0
10
4738.187456937066
20
-316.4052983118028
30
0
42
0.2925833612013124
0
VERTEX
8
0
10
4733.079793437068
20
-313.13665131180323
30
0
0
SEQEND
0
POLYLINE
8
0
62
256
66
1
10
0
20
0
30
0
70
1
0
VERTEX
8
0
10
4729.305947937068
20
-377.0804588117937
30
0
0
VERTEX
8
0
10
4736.187575937067
20
-386.55220731179236
30
0
42
0.28323689671923363
0
VERTEX
8
0
10
4738.006078437067
20
-387.30069456179217
30
0
42
-0.13336838193546227
0
VERTEX
8
0
10
4740.938610687066
20
-387.6056520617921
30
0
42
0.31400872475446856
0
VERTEX
8
0
10
4743.021001437066
20
-387.0966593117921
30
0
42
0.047151588446787275
0
VERTEX
8
0
10
4746.422385687065
20
-382.4150558117928
30
0
42
0.3140087247545957
0
VERTEX
8
0
10
4746.262972437065
20
-380.2772978117932
30
0
42
-0.5444272034329658
0
VERTEX
8
0
10
4749.1828544370655
20
-371.29082331179455
30
0
42
0.3140087247543908
0
VERTEX
8
0
10
4750.568365437064
20
-369.65504106179475
30
0
42
0.04715158844680613
0
VERTEX
8
0
10
4750.568365437064
20
-363.86826156179563
30
0
42
0.3140087247545895
0
VERTEX
8
0
10
4749.1828544370655
20
-362.2324793117959
30
0
42
-0.13336838193537867
0
VERTEX
8
0
10
4746.631136937065
20
-360.7554960617962
30
0
42
0.2832368967191695
0
VERTEX
8
0
10
4744.719986937065
20
-360.29214531179616
30
0
0
VERTEX
8
0
10
4733.5852791870675
20
-363.91003131179565
30
0
42
0.3457913273541949
0
VERTEX
8
0
10
4732.294963437067
20
-365.8338398117953
30
0
42
-0.19709649331500217
0
VERTEX
8
0
10
4729.3928466870675
20
-374.76563631179397
30
0
42
0.3457913273544074
0
SEQEND
0
POLYLINE
8
0
62
256
66
1
10
0
20
0
30
0
70
1
0
VERTEX
8
0
10
4721.454793437069
20
-380.60621256179314
30
0
0
VERTEX
8
0
10
4721.454793437069
20
-392.31393756179136
30
0
42
0.2832368967191086
0
VERTEX
8
0
10
4722.486043437069
20
-393.9883658117911
30
0
42
-0.1333683819354882
0
VERTEX
8
0
10
4724.679262437068
20
-395.95878081179086
30
0
42
0.3140087247544985
0
VERTEX
8
0
10
4726.663130187068
20
-396.77099556179076
30
0
42
0.04715158844683597
0
VERTEX
8
0
10
4732.166684937067
20
-394.98278181179097
30
0
42
0.3140087247542716
0
VERTEX
8
0
10
4733.294259687067
20
-393.1595985617913
30
0
42
-0.1333683819354693
0
VERTEX
8
0
10
4733.910430437068
20
-390.2763578117917
30
0
42
0.28323689671910063
0
VERTEX
8
0
10
4733.760524937068
20
-388.315563061792
30
0
0
VERTEX
8
0
10
4726.878896937068
20
-378.8438145617934
30
0
42
0.34579132735406487
0
VERTEX
8
0
10
4724.650516437068
20
-378.2111408117935
30
0
42
-0.03754016111332578
0
VERTEX
8
0
10
4722.885714687069
20
-378.7845600617934
30
0
42
0.3457913273542704
0
SEQEND
0
POLYLINE
8
0
62
256
66
1
10
0
20
0
30
0
70
1
0
VERTEX
8
0
10
4713.03068993707
20
-378.8438145617934
30
0
0
VERTEX
8
0
10
4706.149061937072
20
-388.315563061792
30
0
42
0.2832368967191019
0
VERTEX
8
0
10
4705.999156437071
20
-390.2763578117918
30
0
42
-0.13336838193554962
0
VERTEX
8
0
10
4706.615327187072
20
-393.1595985617913
30
0
42
0.3140087247545933
0
VERTEX
8
0
10
4707.742901937071
20
-394.982781811791
30
0
42
0.0471515884468385
0
VERTEX
8
0
10
4713.24645668707
20
-396.7709955617907
30
0
42
0.31400872475476066
0
VERTEX
8
0
10
4715.230324437069
20
-395.95878081179075
30
0
42
-0.13336838193538125
0
VERTEX
8
0
10
4717.423543437069
20
-393.9883658117911
30
0
42
0.2832368967191954
0
VERTEX
8
0
10
4718.454793437069
20
-392.31393756179136
30
0
0
VERTEX
8
0
10
4718.454793437069
20
-380.60621256179314
30
0
42
0.3457913273543167
0
VERTEX
8
0
10
4717.02387218707
20
-378.7845600617934
30
0
42
-0.03754016111332597
0
VERTEX
8
0
10
4715.25906968707
20
-378.21114081179354
30
0
42
0.3457913273543904
0
SEQEND
0
POLYLINE
8
0
62
256
66
1
10
0
20
0
30
0
70
1
0
VERTEX
8
0
10
4706.324307687071
20
-363.91003131179565
30
0
0
VERTEX
8
0
10
4695.189599937074
20
-360.2921453117961
30
0
42
0.283236896719539
0
VERTEX
8
0
10
4693.278449937074
20
-360.7554960617962
30
0
42
-0.13336838193535858
0
VERTEX
8
0
10
4690.726731687074
20
-362.2324793117959
30
0
42
0.3140087247543146
0
VERTEX
8
0
10
4689.341221437073
20
-363.86826156179563
30
0
42
0.04715158844692506
0
VERTEX
8
0
10
4689.341221437073
20
-369.65504106179475
30
0
42
0.3140087247544408
0
VERTEX
8
0
10
4690.726731687074
20
-371.29082331179455
30
0
42
-0.5444272034329382
0
VERTEX
8
0
10
4693.646614437073
20
-380.27729781179323
30
0
42
0.3140087247543959
0
VERTEX
8
0
10
4693.487201187073
20
-382.41505581179297
30
0
42
0.04715158844677421
0
VERTEX
8
0
10
4696.888585437073
20
-387.0966593117923
30
0
42
0.3140087247545242
0
VERTEX
8
0
10
4698.970975437072
20
-387.6056520617921
30
0
42
-0.1333683819355008
0
VERTEX
8
0
10
4701.903507687071
20
-387.30069456179217
30
0
42
0.2832368967192628
0
VERTEX
8
0
10
4703.722010937072
20
-386.55220731179224
30
0
0
VERTEX
8
0
10
4710.603638937071
20
-377.0804588117937
30
0
42
0.34579132735428153
0
VERTEX
8
0
10
4710.516740187071
20
-374.76563631179414
30
0
42
-0.1970964933150064
0
VERTEX
8
0
10
4707.614623437072
20
-365.8338398117954
30
0
42
0.34579132735406226
0
SEQEND
0
CIRCLE
8
0
62
256
10
4738.9108679370665
20
-392.85244956179133
40
2.8124999999990905
0
ENDSEC
0
EOF
