0
SECTION
2
TABLES
0
TABLE
2
LAYER
70
1
0
LAYER
2
0
70
0
62
7
6
CONTINUOUS
 0
ENDTAB
0
ENDSEC
0
SECTION
2
BLOCKS
0
ENDSEC
0
SECTION
2
ENTITIES
0
POLYLINE
8
0
62
256
66
1
10
0
20
0
30
0
70
1
0
VERTEX
8
0
10
4012.01608
20
-26.292191
30
0
0
VERTEX
8
0
10
4012.01608
20
-1.292191
30
0
0
VERTEX
8
0
10
4004.51608
20
-1.292191
30
0
0
VERTEX
8
0
10
4004.51608
20
8.707809
30
0
0
VERTEX
8
0
10
4012.01608
20
8.707809
30
0
0
VERTEX
8
0
10
4012.01608
20
18.707809
30
0
42
0.414213562373098
0
VERTEX
8
0
10
4002.01608
20
28.707809
30
0
0
VERTEX
8
0
10
3972.01608
20
28.707809
30
0
42
0.414213562373086
0
VERTEX
8
0
10
3962.01608
20
18.707809
30
0
0
VERTEX
8
0
10
3962.01608
20
8.707809
30
0
0
VERTEX
8
0
10
3969.51608
20
8.707809
30
0
0
VERTEX
8
0
10
3969.51608
20
-1.292191
30
0
0
VERTEX
8
0
10
3962.01608
20
-1.292191
30
0
0
VERTEX
8
0
10
3962.01608
20
-26.292191
30
0
0
VERTEX
8
0
10
3972.01608
20
-26.292191
30
0
0
VERTEX
8
0
10
3983.26608
20
-6.80662
30
0
0
VERTEX
8
0
10
3990.76608
20
-6.80662
30
0
0
VERTEX
8
0
10
4002.01608
20
-26.292191
30
0
0
SEQEND
0
CIRCLE
8
0
62
256
10
3987.01608
20
3.707809
40
5
0
ENDSEC
0
EOF
