0
SECTION
2
TABLES
0
TABLE
2
LAYER
70
1
0
LAYER
2
0
70
0
62
7
6
CONTINUOUS
 0
ENDTAB
0
ENDSEC
0
SECTION
2
BLOCKS
0
ENDSEC
0
SECTION
2
ENTITIES
0
POLYLINE
8
0
62
256
66
1
10
0
20
0
30
0
70
1
0
VERTEX
8
0
10
125.062076
20
14.509743
30
0
42
0.41421356237309503
0
VERTEX
8
0
10
120.062076
20
9.509743
30
0
0
VERTEX
8
0
10
120.06207630658793
20
4.5097427583006606
30
0
0
VERTEX
8
0
10
110.06207569341206
20
4.50974275830066
30
0
0
VERTEX
8
0
10
110.06207569341206
20
9.5097427583006553
30
0
0
VERTEX
8
0
10
105.06207630658793
20
14.509742758300661
30
0
0
VERTEX
8
0
10
110.06207630658793
20
14.509742758300661
30
0
42
0.99999999999999989
0
VERTEX
8
0
10
110.06207630658793
20
19.509742758300661
30
0
0
VERTEX
8
0
10
105.06207630658793
20
19.509742758300661
30
0
0
VERTEX
8
0
10
105.06207630658793
20
24.509742758300661
30
0
0
VERTEX
8
0
10
110.06207630658793
20
24.509742758300661
30
0
0
VERTEX
8
0
10
110.06207630658793
20
29.509742758300661
30
0
0
VERTEX
8
0
10
105.06207630658793
20
29.509742758300661
30
0
0
VERTEX
8
0
10
105.06207630658793
20
31.509742758300661
30
0
42
-0.41421356237309503
0
VERTEX
8
0
10
108.06207630658793
20
34.509742758300661
30
0
0
VERTEX
8
0
10
110.44680474109259
20
34.509742758300661
30
0
0
VERTEX
8
0
10
110.44680474109259
20
33.509742758300661
30
0
42
0.99999999999999989
0
VERTEX
8
0
10
112.44680474109259
20
33.509742758300661
30
0
0
VERTEX
8
0
10
112.44680474109259
20
34.509742758300661
30
0
0
VERTEX
8
0
10
115.06207630658793
20
34.509742758300661
30
0
0
VERTEX
8
0
10
117.56207630658793
20
19.509742758300661
30
0
0
VERTEX
8
0
10
120.06207630658793
20
34.509742758300661
30
0
0
VERTEX
8
0
10
123.56207630658793
20
34.509742758300661
30
0
0
VERTEX
8
0
10
123.56207630658793
20
32.509742758300661
30
0
0
VERTEX
8
0
10
125.56207630658793
20
32.509742758300661
30
0
0
VERTEX
8
0
10
125.56207630658793
20
34.509742758300661
30
0
0
VERTEX
8
0
10
137.56207630658793
20
34.509742758300661
30
0
0
VERTEX
8
0
10
137.56207630658793
20
32.509742758300661
30
0
0
VERTEX
8
0
10
139.56207630658793
20
32.509742758300661
30
0
0
VERTEX
8
0
10
139.56207630658793
20
34.509742758300661
30
0
0
VERTEX
8
0
10
143.06207630658793
20
34.509742758300661
30
0
0
VERTEX
8
0
10
145.56207630658793
20
19.509742758300661
30
0
0
VERTEX
8
0
10
148.06207630658793
20
34.509742758300661
30
0
0
VERTEX
8
0
10
155.06207630658793
20
34.509742758300661
30
0
42
-0.41421356237309503
0
VERTEX
8
0
10
158.06207630658793
20
31.509742758300657
30
0
0
VERTEX
8
0
10
158.06207630658793
20
29.509742758300657
30
0
0
VERTEX
8
0
10
153.06207630658793
20
29.509742758300657
30
0
0
VERTEX
8
0
10
153.06207630658795
20
24.509742758300657
30
0
0
VERTEX
8
0
10
158.06207630658793
20
24.509742758300657
30
0
0
VERTEX
8
0
10
158.06207630658793
20
19.509742758300657
30
0
0
VERTEX
8
0
10
153.06207630658793
20
19.509742758300657
30
0
42
0.99999999999999989
0
VERTEX
8
0
10
153.06207630658793
20
14.509742758300659
30
0
0
VERTEX
8
0
10
158.06207630658793
20
14.509742758300657
30
0
0
VERTEX
8
0
10
153.06207630658793
20
9.5097427583006322
30
0
0
VERTEX
8
0
10
153.06207630658793
20
4.5097427583006588
30
0
0
VERTEX
8
0
10
143.062076
20
4.509743
30
0
0
VERTEX
8
0
10
143.062076
20
9.509743
30
0
42
0.41421356237309503
0
VERTEX
8
0
10
138.062076
20
14.509743
30
0
0
SEQEND
0
ENDSEC
0
EOF
