0
SECTION
2
TABLES
0
TABLE
2
LAYER
70
6
0
LAYER
2
0
70
0
62
7
6
CONTINUOUS
0
LAYER
2
AP_CONTOUR
70
0
62
7
6
CONTINUOUS
0
LAYER
2
AP_BEND_LINES_UP
70
0
62
1
6
CONTINUOUS
0
LAYER
2
AP_BEND_LINES_DOWN
70
0
62
3
6
CONTINUOUS
0
LAYER
2
AP_BEND_ANGLES
70
0
62
7
6
CONTINUOUS
0
LAYER
2
AP_TEXT
70
0
62
255
6
CONTINUOUS
 0
ENDTAB
0
ENDSEC
0
SECTION
2
BLOCKS
0
ENDSEC
0
SECTION
2
ENTITIES
0
LINE
8
AP_CONTOUR
 62
7
10
20.001273368439278
20
22.301565188696646
11
20.074476820618973
21
60.570152514716028
0
ARC
8
AP_CONTOUR
62
7
10
24.074469503289514
20
60.562500983163659
40
4.0000000009191217
50
89.917238721061153
51
179.89039981699469
0
LINE
8
AP_CONTOUR
 62
7
10
24.080247328524223
20
64.562496811172565
11
27.104931104074605
21
64.558127782818445
0
ARC
8
AP_CONTOUR
62
7
10
27.126597950467502
20
79.558112133971491
40
14.999999999568964
50
269.91723871430651
51
359.89039983179822
0
LINE
8
AP_CONTOUR
 62
7
10
42.126570506611728
20
79.529418894533109
11
42.134849540108796
21
83.857451350696849
0
LINE
8
AP_CONTOUR
 62
7
10
42.134849540108796
20
83.857451350696849
11
42.134839652716565
21
83.857451364978786
0
LINE
8
AP_CONTOUR
 62
7
10
42.41003411961875
20
90.49170402067557
11
42.134839652716565
21
83.857451364978786
0
LINE
8
AP_CONTOUR
 62
7
10
42.41003411961875
20
90.49170402067557
11
42.410028781449284
21
90.491704028386238
0
LINE
8
AP_CONTOUR
 62
7
10
42.410028781449284
20
90.491704028386238
11
43.098050844604977
21
104.9002576586239
0
ARC
8
AP_CONTOUR
62
7
10
26.37956091926516
20
105.5687001620863
40
16.731847500025935
50
357.71040649813256
51
9.6457423457986877
0
ARC
8
AP_CONTOUR
62
7
10
122.31104724671994
20
121.95411170124113
40
80.588926773032924
50
187.22523436747866
51
189.70253459784124
0
LINE
8
AP_CONTOUR
 62
7
10
42.362044463864329
20
111.81842857398186
11
38.127430555586827
21
144.72578318920958
0
ARC
8
AP_CONTOUR
62
7
10
34.160143413650474
20
144.21526116403217
40
4.0000000005955965
50
7.3326897033161709
51
97.33268968187005
0
LINE
8
AP_CONTOUR
 62
7
10
33.649621389958014
20
148.18254830615962
11
23.68357065210488
21
146.90008797184328
0
ARC
8
AP_CONTOUR
62
7
10
24.194092675884608
20
142.93280083073603
40
3.999999999594912
50
97.332689684974952
51
187.883201025666
0
LINE
8
AP_CONTOUR
 62
7
10
20.231893800091314
20
142.38418432950613
11
24.344984706960805
21
112.6787601885342
0
ARC
8
AP_CONTOUR
62
7
10
100.52611114627959
20
123.07777268931932
40
76.887602944525213
50
187.77304949747864
51
190.37357858486828
0
ARC
8
AP_CONTOUR
62
7
10
9.28818275041105
20
106.38539483438744
40
15.864731113873653
50
357.732649773106
51
10.340084130470521
0
LINE
8
AP_CONTOUR
 62
7
10
25.140493395246246
20
105.75774801080294
11
24.412766689449281
21
90.517700002289232
0
LINE
8
AP_CONTOUR
 62
7
10
24.412766689449281
20
90.517700002289232
11
24.412777365788219
21
90.5176999868679
0
ARC
8
AP_CONTOUR
62
7
10
15.031582912938454
20
86.73748766155785
40
9.42712940047408
50
342.37841654849967
51
2.6881509488420874
0
ARC
8
AP_CONTOUR
62
7
10
57.00310087400004
20
89.195661674044814
40
32.617126968365504
50
177.67704950652447
51
183.54367267366661
0
ARC
8
AP_CONTOUR
62
7
10
22.129652383627057
20
84.574589893142985
40
2.0092541302740616
50
179.89042428995026
51
339.88580517412288
0
LINE
8
AP_CONTOUR
 62
7
10
20.1204019277668
20
84.578432502767242
11
20.173853604281948
21
112.521379053159
0
LINE
8
AP_CONTOUR
 62
7
10
20.173853604281948
20
112.521379053159
11
20.173853603802659
21
113.48862367320993
0
LINE
8
AP_CONTOUR
 62
7
10
20.173853603802659
20
113.48862367320993
11
20.172580235317529
21
113.48862367320999
0
LINE
8
AP_CONTOUR
 62
7
10
20.172580235317529
20
113.48862367320999
11
20.172580236548793
21
125.15578395820998
0
ARC
8
AP_CONTOUR
62
7
10
10.172580236625038
20
125.15578395866753
40
9.9999999999237552
50
359.99999999689845
51
179.99999999689848
0
LINE
8
AP_CONTOUR
 62
7
10
0.17258023670128619
20
125.15578395920885
11
0.17258023560066971
21
113.48862367420888
0
LINE
8
AP_CONTOUR
 62
7
10
0.17258023560066971
20
113.48862367420888
11
0.17321691984323459
21
113.48862367420885
0
LINE
8
AP_CONTOUR
 62
7
10
0.17321691984323459
20
113.48862367420885
11
0.17321691932293259
21
112.5213790541347
0
LINE
8
AP_CONTOUR
 62
7
10
0.17321691932293259
20
112.5213790541347
11
0.1738536045650726
21
112.52137905413467
0
LINE
8
AP_CONTOUR
 62
7
10
0.1738536045650726
20
112.52137905413467
11
0.001273368722405
21
22.301565188696646
0
LINE
8
AP_CONTOUR
 62
7
10
0.001273368722405
20
22.301565188696646
11
2.36831E-10
21
22.301565188696646
0
LINE
8
AP_CONTOUR
 62
7
10
2.36831E-10
20
22.301565188696646
11
0
21
21.3343205693684
0
LINE
8
AP_CONTOUR
 62
7
10
0
20
21.3343205693684
11
0.0025467389702032
21
21.334320569368394
0
LINE
8
AP_CONTOUR
 62
7
10
0.0025467389702032
20
21.334320569368394
11
0.0025467382900236
21
9.9999999993684074
0
ARC
8
AP_CONTOUR
62
7
10
10.002546738213795
20
9.9999999996460929
40
9.999999999923773
50
180.00000000159102
51
1.590989784992534E-09
0
LINE
8
AP_CONTOUR
 62
7
10
20.002546738137571
20
9.999999999312541
11
20.002546738687062
21
21.334320569312588
0
LINE
8
AP_CONTOUR
 62
7
10
20.002546738687062
20
21.334320569312588
11
20.001273369201961
21
21.334320569312592
0
LINE
8
AP_CONTOUR
 62
7
10
20.001273369201961
20
21.334320569312592
11
20.001273368439278
21
22.301565188696646
0
LINE
8
AP_BEND_LINES_DOWN
 62
3
10
20.173853604171033
20
113.00500136319607
11
0.1732169194681924
21
113.00500136417178
0
POLYLINE
8
AP_BEND_ANGLES
62
7
66
1
10
0
20
0
30
0
0
VERTEX
8
AP_BEND_ANGLES
10
1.0346463729307232
20
115.06055691923949
30
0
0
VERTEX
8
AP_BEND_ANGLES
10
2.5902019284862785
20
115.06055691923949
30
0
0
SEQEND
0
POLYLINE
8
AP_BEND_ANGLES
62
7
66
1
10
0
20
0
30
0
0
VERTEX
8
AP_BEND_ANGLES
10
3.7568685951529455
20
116.22722358590616
30
0
0
VERTEX
8
AP_BEND_ANGLES
10
4.5346463729307231
20
117.00500136368393
30
0
0
VERTEX
8
AP_BEND_ANGLES
10
4.5346463729307231
20
113.50500136368393
30
0
0
SEQEND
0
POLYLINE
8
AP_BEND_ANGLES
62
7
66
1
10
0
20
0
30
0
0
VERTEX
8
AP_BEND_ANGLES
10
6.8679797062640562
20
117.00500136368393
30
0
42
0.268
0
VERTEX
8
AP_BEND_ANGLES
10
5.70131303959739
20
114.98277914146171
30
0
0
VERTEX
8
AP_BEND_ANGLES
10
5.70131303959739
20
114.2827791414617
30
0
42
1
0
VERTEX
8
AP_BEND_ANGLES
10
7.2568685951529455
20
114.2827791414617
30
0
0
VERTEX
8
AP_BEND_ANGLES
10
7.2568685951529455
20
114.6716680303506
30
0
42
0.414
0
VERTEX
8
AP_BEND_ANGLES
10
6.4790908173751669
20
115.44944580812837
30
0
0
VERTEX
8
AP_BEND_ANGLES
10
6.4790908173751669
20
115.44944580812837
30
0
0
VERTEX
8
AP_BEND_ANGLES
10
5.747979706264057
20
115.44944580812837
30
0
0
SEQEND
0
POLYLINE
8
AP_BEND_ANGLES
62
7
66
1
10
0
20
0
30
0
0
VERTEX
8
AP_BEND_ANGLES
10
8.42353526181961
20
117.00500136368393
30
0
0
VERTEX
8
AP_BEND_ANGLES
10
9.9790908173751678
20
117.00500136368393
30
0
0
VERTEX
8
AP_BEND_ANGLES
10
9.0068685951529446
20
113.50500136368393
30
0
0
SEQEND
0
POLYLINE
8
AP_BEND_ANGLES
62
7
66
1
10
0
20
0
30
0
0
VERTEX
8
AP_BEND_ANGLES
10
9.20131303959739
20
115.44944580812837
30
0
0
VERTEX
8
AP_BEND_ANGLES
10
9.9790908173751678
20
115.44944580812837
30
0
0
SEQEND
0
POLYLINE
8
AP_BEND_ANGLES
62
7
66
1
10
0
20
0
30
0
0
VERTEX
8
AP_BEND_ANGLES
10
11.145757484041832
20
113.50500136368393
30
0
0
VERTEX
8
AP_BEND_ANGLES
10
11.145757484041832
20
113.69944580812837
30
0
0
SEQEND
0
POLYLINE
8
AP_BEND_ANGLES
62
7
66
1
10
0
20
0
30
0
0
VERTEX
8
AP_BEND_ANGLES
10
12.3124241507085
20
117.00500136368393
30
0
0
VERTEX
8
AP_BEND_ANGLES
10
13.090201928486279
20
117.00500136368393
30
0
42
-1
0
VERTEX
8
AP_BEND_ANGLES
10
13.090201928486279
20
115.44944580812837
30
0
42
-0.414
0
VERTEX
8
AP_BEND_ANGLES
10
13.867979706264055
20
114.6716680303506
30
0
0
VERTEX
8
AP_BEND_ANGLES
10
13.867979706264055
20
114.2827791414617
30
0
42
-0.414
0
VERTEX
8
AP_BEND_ANGLES
10
13.090201928486279
20
113.50500136368393
30
0
0
VERTEX
8
AP_BEND_ANGLES
10
13.090201928486279
20
113.50500136368393
30
0
0
VERTEX
8
AP_BEND_ANGLES
10
12.3124241507085
20
113.50500136368393
30
0
0
SEQEND
0
POLYLINE
8
AP_BEND_ANGLES
62
7
66
1
10
0
20
0
30
0
0
VERTEX
8
AP_BEND_ANGLES
10
13.090201928486279
20
115.44944580812837
30
0
0
VERTEX
8
AP_BEND_ANGLES
10
12.701313039597389
20
115.44944580812837
30
0
0
SEQEND
0
POLYLINE
8
AP_BEND_ANGLES
62
7
66
1
10
0
20
0
30
0
0
VERTEX
8
AP_BEND_ANGLES
10
16.395757484041834
20
113.50500136368393
30
0
0
VERTEX
8
AP_BEND_ANGLES
10
16.395757484041834
20
115.06055691923949
30
0
0
SEQEND
0
POLYLINE
8
AP_BEND_ANGLES
62
7
66
1
10
0
20
0
30
0
0
VERTEX
8
AP_BEND_ANGLES
10
16.979090817375166
20
114.2827791414617
30
0
0
VERTEX
8
AP_BEND_ANGLES
10
15.034646372930721
20
114.2827791414617
30
0
0
VERTEX
8
AP_BEND_ANGLES
10
15.812424150708498
20
117.00500136368393
30
0
0
SEQEND
0
POLYLINE
8
AP_BEND_ANGLES
62
7
66
1
10
0
20
0
30
0
70
1
0
VERTEX
8
AP_BEND_ANGLES
10
18.729090817375166
20
117.00500136368393
30
0
42
1
0
VERTEX
8
AP_BEND_ANGLES
10
18.729090817375166
20
115.83833469701726
30
0
42
1
0
SEQEND
0
LINE
8
AP_BEND_LINES_UP
 62
1
10
24.447840153419914
20
87.200324434169474
11
42.235398839871117
21
87.174631192438525
0
POLYLINE
8
AP_BEND_ANGLES
62
7
66
1
10
0
20
0
30
0
0
VERTEX
8
AP_BEND_ANGLES
10
27.509014473060905
20
87.695903242087141
30
0
42
0.268
0
VERTEX
8
AP_BEND_ANGLES
10
28.678600918777359
20
89.716438164615539
30
0
0
VERTEX
8
AP_BEND_ANGLES
10
28.678600918777359
20
89.716438164615539
30
0
0
VERTEX
8
AP_BEND_ANGLES
10
28.679612032824323
20
90.416437434364013
30
0
42
1
0
VERTEX
8
AP_BEND_ANGLES
10
27.124058100049957
20
90.418684354468382
30
0
0
VERTEX
8
AP_BEND_ANGLES
10
27.124058100049957
20
90.418684354468382
30
0
0
VERTEX
8
AP_BEND_ANGLES
10
27.123496370023865
20
90.029795871274786
30
0
0
VERTEX
8
AP_BEND_ANGLES
10
27.123496370023865
20
90.029795871274786
30
0
42
0.414
0
VERTEX
8
AP_BEND_ANGLES
10
27.900149876358864
20
89.250895444835422
30
0
0
VERTEX
8
AP_BEND_ANGLES
10
27.900149876358864
20
89.250895444835422
30
0
0
VERTEX
8
AP_BEND_ANGLES
10
28.631260224762816
20
89.249839392386363
30
0
0
SEQEND
0
POLYLINE
8
AP_BEND_ANGLES
62
7
66
1
10
0
20
0
30
0
0
VERTEX
8
AP_BEND_ANGLES
10
29.847400942457284
20
91.192529210672916
30
0
0
VERTEX
8
AP_BEND_ANGLES
10
30.625177908844467
20
91.191405750620731
30
0
42
-1
0
VERTEX
8
AP_BEND_ANGLES
10
30.622930988740098
20
89.635851817846358
30
0
42
-0.414
0
VERTEX
8
AP_BEND_ANGLES
10
31.399584495075096
20
88.856951391407
30
0
0
VERTEX
8
AP_BEND_ANGLES
10
31.399022765049004
20
88.4680629082134
30
0
42
-0.414
0
VERTEX
8
AP_BEND_ANGLES
10
30.620122338609637
20
87.6914094018784
30
0
0
VERTEX
8
AP_BEND_ANGLES
10
30.620122338609637
20
87.6914094018784
30
0
0
VERTEX
8
AP_BEND_ANGLES
10
29.842345372222454
20
87.692532861930587
30
0
0
SEQEND
0
POLYLINE
8
AP_BEND_ANGLES
62
7
66
1
10
0
20
0
30
0
0
VERTEX
8
AP_BEND_ANGLES
10
30.622930988740098
20
89.635851817846358
30
0
0
VERTEX
8
AP_BEND_ANGLES
10
30.234042505546505
20
89.636413547872451
30
0
0
SEQEND
0
POLYLINE
8
AP_BEND_ANGLES
62
7
66
1
10
0
20
0
30
0
0
VERTEX
8
AP_BEND_ANGLES
10
32.564564754577596
20
87.688600751747941
30
0
0
VERTEX
8
AP_BEND_ANGLES
10
32.564845619590642
20
87.88304499334474
30
0
0
SEQEND
0
POLYLINE
8
AP_BEND_ANGLES
62
7
66
1
10
0
20
0
30
0
0
VERTEX
8
AP_BEND_ANGLES
10
33.735162314341018
20
90.4091349440248
30
0
0
VERTEX
8
AP_BEND_ANGLES
10
34.514062740780382
20
91.185788450359809
30
0
0
VERTEX
8
AP_BEND_ANGLES
10
34.509007170545551
20
87.68579210161748
30
0
0
SEQEND
0
POLYLINE
8
AP_BEND_ANGLES
62
7
66
1
10
0
20
0
30
0
0
VERTEX
8
AP_BEND_ANGLES
10
37.236282123135524
20
91.181856340177148
30
0
0
VERTEX
8
AP_BEND_ANGLES
10
35.680728190361158
20
91.184103260281532
30
0
0
VERTEX
8
AP_BEND_ANGLES
10
35.678481270256789
20
89.628549327507159
30
0
0
VERTEX
8
AP_BEND_ANGLES
10
36.456258236643968
20
89.627425867454974
30
0
0
VERTEX
8
AP_BEND_ANGLES
10
36.456258236643968
20
89.627425867454974
30
0
42
-0.414
0
VERTEX
8
AP_BEND_ANGLES
10
37.23291174297897
20
88.84852544101561
30
0
0
VERTEX
8
AP_BEND_ANGLES
10
37.23291174297897
20
88.84852544101561
30
0
0
VERTEX
8
AP_BEND_ANGLES
10
37.232350012952878
20
88.459636957822013
30
0
0
VERTEX
8
AP_BEND_ANGLES
10
37.232350012952878
20
88.459636957822013
30
0
42
-0.414
0
VERTEX
8
AP_BEND_ANGLES
10
36.453449586513507
20
87.682983451487019
30
0
0
VERTEX
8
AP_BEND_ANGLES
10
36.453449586513507
20
87.682983451487019
30
0
0
VERTEX
8
AP_BEND_ANGLES
10
35.675672620126328
20
87.6841069115392
30
0
0
SEQEND
0
POLYLINE
8
AP_BEND_ANGLES
62
7
66
1
10
0
20
0
30
0
70
1
0
VERTEX
8
AP_BEND_ANGLES
10
38.986280297506681
20
91.17932855505974
30
0
42
1
0
VERTEX
8
AP_BEND_ANGLES
10
38.984595107428405
20
90.012663105478964
30
0
42
1
0
SEQEND
0
LINE
8
AP_BEND_LINES_UP
 62
1
10
42.877416483566449
20
108.35230611532319
11
24.8983566050181
21
109.21082322883268
0
POLYLINE
8
AP_BEND_ANGLES
62
7
66
1
10
0
20
0
30
0
0
VERTEX
8
AP_BEND_ANGLES
10
30.998387724253636
20
109.42011068720898
30
0
42
0.268
0
VERTEX
8
AP_BEND_ANGLES
10
32.26017969444419
20
111.3843853246065
30
0
0
VERTEX
8
AP_BEND_ANGLES
10
32.26017969444419
20
111.3843853246065
30
0
0
VERTEX
8
AP_BEND_ANGLES
10
32.293567313729348
20
112.08358863329322
30
0
42
1
0
VERTEX
8
AP_BEND_ANGLES
10
30.739782183314396
20
112.15778334281579
30
0
0
VERTEX
8
AP_BEND_ANGLES
10
30.739782183314396
20
112.15778334281579
30
0
0
VERTEX
8
AP_BEND_ANGLES
10
30.721233505933753
20
111.76933706021205
30
0
0
VERTEX
8
AP_BEND_ANGLES
10
30.721233505933753
20
111.76933706021205
30
0
42
0.414
0
VERTEX
8
AP_BEND_ANGLES
10
31.461028716379943
20
110.95534714024329
30
0
0
VERTEX
8
AP_BEND_ANGLES
10
31.461028716379943
20
110.95534714024329
30
0
0
VERTEX
8
AP_BEND_ANGLES
10
32.191307727674975
20
110.92047562676768
30
0
0
SEQEND
0
POLYLINE
8
AP_BEND_ANGLES
62
7
66
1
10
0
20
0
30
0
70
1
0
VERTEX
8
AP_BEND_ANGLES
10
34.620992322814445
20
112.55644988710543
30
0
42
0.546
0
VERTEX
8
AP_BEND_ANGLES
10
33.9101356256496
20
112.590393966712
30
0
0
VERTEX
8
AP_BEND_ANGLES
10
33.9101356256496
20
112.590393966712
30
0
42
0.115
0
VERTEX
8
AP_BEND_ANGLES
10
33.531205542197029
20
111.8298242375995
30
0
0
VERTEX
8
AP_BEND_ANGLES
10
33.531205542197029
20
111.8298242375995
30
0
42
0.054
0
VERTEX
8
AP_BEND_ANGLES
10
33.412534468088957
20
111.05682689464194
30
0
0
VERTEX
8
AP_BEND_ANGLES
10
33.412534468088957
20
111.05682689464194
30
0
42
0.054
0
VERTEX
8
AP_BEND_ANGLES
10
33.457010832674456
20
110.27603910718453
30
0
0
VERTEX
8
AP_BEND_ANGLES
10
33.457010832674456
20
110.27603910718453
30
0
42
0.115
0
VERTEX
8
AP_BEND_ANGLES
10
33.761746206604464
20
109.4828237058821
30
0
0
VERTEX
8
AP_BEND_ANGLES
10
33.761746206604464
20
109.4828237058821
30
0
42
0.546
0
VERTEX
8
AP_BEND_ANGLES
10
34.4726029037693
20
109.44887962627551
30
0
0
VERTEX
8
AP_BEND_ANGLES
10
34.4726029037693
20
109.44887962627551
30
0
42
0.115
0
VERTEX
8
AP_BEND_ANGLES
10
34.847648524395844
20
110.20963484216183
30
0
0
VERTEX
8
AP_BEND_ANGLES
10
34.847648524395844
20
110.20963484216183
30
0
42
0.054
0
VERTEX
8
AP_BEND_ANGLES
10
34.966319598503908
20
110.98263218511939
30
0
0
VERTEX
8
AP_BEND_ANGLES
10
34.966319598503908
20
110.98263218511939
30
0
42
0.054
0
VERTEX
8
AP_BEND_ANGLES
10
34.921843233918409
20
111.76341997257678
30
0
0
VERTEX
8
AP_BEND_ANGLES
10
34.921843233918409
20
111.76341997257678
30
0
42
0.115
0
VERTEX
8
AP_BEND_ANGLES
10
34.620992322814445
20
112.55644988710543
30
0
0
SEQEND
0
POLYLINE
8
AP_BEND_ANGLES
62
7
66
1
10
0
20
0
30
0
70
1
0
VERTEX
8
AP_BEND_ANGLES
10
36.797796918433626
20
112.64717140862331
30
0
42
1
0
VERTEX
8
AP_BEND_ANGLES
10
36.7421508862917
20
111.48183256081209
30
0
42
1
0
SEQEND
0
LINE
8
AP_BEND_LINES_UP
 62
1
10
1.723279E-10
20
21.81794287900458
11
20.001273368439278
21
21.81794287900458
0
POLYLINE
8
AP_BEND_ANGLES
62
7
66
1
10
0
20
0
30
0
0
VERTEX
8
AP_BEND_ANGLES
10
2.2228589065280246
20
25.0401651012268
30
0
0
VERTEX
8
AP_BEND_ANGLES
10
3.0006366843058032
20
25.81794287900458
30
0
0
VERTEX
8
AP_BEND_ANGLES
10
3.0006366843058032
20
22.31794287900458
30
0
0
SEQEND
0
POLYLINE
8
AP_BEND_ANGLES
62
7
66
1
10
0
20
0
30
0
0
VERTEX
8
AP_BEND_ANGLES
10
5.3339700176391363
20
25.81794287900458
30
0
42
0.268
0
VERTEX
8
AP_BEND_ANGLES
10
4.1673033509724693
20
23.795720656782358
30
0
0
VERTEX
8
AP_BEND_ANGLES
10
4.1673033509724693
20
23.095720656782358
30
0
42
1
0
VERTEX
8
AP_BEND_ANGLES
10
5.7228589065280246
20
23.095720656782358
30
0
0
VERTEX
8
AP_BEND_ANGLES
10
5.7228589065280246
20
23.484609545671248
30
0
42
0.414
0
VERTEX
8
AP_BEND_ANGLES
10
4.945081128750247
20
24.262387323449026
30
0
0
VERTEX
8
AP_BEND_ANGLES
10
4.945081128750247
20
24.262387323449026
30
0
0
VERTEX
8
AP_BEND_ANGLES
10
4.2139700176391361
20
24.262387323449026
30
0
0
SEQEND
0
POLYLINE
8
AP_BEND_ANGLES
62
7
66
1
10
0
20
0
30
0
0
VERTEX
8
AP_BEND_ANGLES
10
6.8895255731946916
20
25.81794287900458
30
0
0
VERTEX
8
AP_BEND_ANGLES
10
8.4450811287502461
20
25.81794287900458
30
0
0
VERTEX
8
AP_BEND_ANGLES
10
7.4728589065280246
20
22.31794287900458
30
0
0
SEQEND
0
POLYLINE
8
AP_BEND_ANGLES
62
7
66
1
10
0
20
0
30
0
0
VERTEX
8
AP_BEND_ANGLES
10
7.6673033509724693
20
24.262387323449026
30
0
0
VERTEX
8
AP_BEND_ANGLES
10
8.4450811287502461
20
24.262387323449026
30
0
0
SEQEND
0
POLYLINE
8
AP_BEND_ANGLES
62
7
66
1
10
0
20
0
30
0
0
VERTEX
8
AP_BEND_ANGLES
10
9.6117477954169122
20
22.31794287900458
30
0
0
VERTEX
8
AP_BEND_ANGLES
10
9.6117477954169122
20
22.512387323449023
30
0
0
SEQEND
0
POLYLINE
8
AP_BEND_ANGLES
62
7
66
1
10
0
20
0
30
0
0
VERTEX
8
AP_BEND_ANGLES
10
10.77841446208358
20
25.81794287900458
30
0
0
VERTEX
8
AP_BEND_ANGLES
10
11.556192239861359
20
25.81794287900458
30
0
42
-1
0
VERTEX
8
AP_BEND_ANGLES
10
11.556192239861359
20
24.262387323449026
30
0
42
-0.414
0
VERTEX
8
AP_BEND_ANGLES
10
12.333970017639135
20
23.484609545671248
30
0
0
VERTEX
8
AP_BEND_ANGLES
10
12.333970017639135
20
23.095720656782358
30
0
42
-0.414
0
VERTEX
8
AP_BEND_ANGLES
10
11.556192239861359
20
22.31794287900458
30
0
0
VERTEX
8
AP_BEND_ANGLES
10
11.556192239861359
20
22.31794287900458
30
0
0
VERTEX
8
AP_BEND_ANGLES
10
10.77841446208358
20
22.31794287900458
30
0
0
SEQEND
0
POLYLINE
8
AP_BEND_ANGLES
62
7
66
1
10
0
20
0
30
0
0
VERTEX
8
AP_BEND_ANGLES
10
11.556192239861359
20
24.262387323449026
30
0
0
VERTEX
8
AP_BEND_ANGLES
10
11.167303350972469
20
24.262387323449026
30
0
0
SEQEND
0
POLYLINE
8
AP_BEND_ANGLES
62
7
66
1
10
0
20
0
30
0
0
VERTEX
8
AP_BEND_ANGLES
10
14.861747795416912
20
22.31794287900458
30
0
0
VERTEX
8
AP_BEND_ANGLES
10
14.861747795416912
20
23.873498434560133
30
0
0
SEQEND
0
POLYLINE
8
AP_BEND_ANGLES
62
7
66
1
10
0
20
0
30
0
0
VERTEX
8
AP_BEND_ANGLES
10
15.445081128750246
20
23.095720656782358
30
0
0
VERTEX
8
AP_BEND_ANGLES
10
13.500636684305801
20
23.095720656782358
30
0
0
VERTEX
8
AP_BEND_ANGLES
10
14.27841446208358
20
25.81794287900458
30
0
0
SEQEND
0
POLYLINE
8
AP_BEND_ANGLES
62
7
66
1
10
0
20
0
30
0
70
1
0
VERTEX
8
AP_BEND_ANGLES
10
17.195081128750246
20
25.81794287900458
30
0
42
1
0
VERTEX
8
AP_BEND_ANGLES
10
17.195081128750246
20
24.651276212337912
30
0
42
1
0
SEQEND
0
CIRCLE
8
AP_CONTOUR
62
7
10
10.172580236625025
20
125.15578395812618
40
4.4999999996481606
0
CIRCLE
8
AP_CONTOUR
62
7
10
10.002546738213809
20
9.9999999999237179
40
4.4999999997788356
0
CIRCLE
8
AP_CONTOUR
62
7
10
29.839209909036263
20
138.61800265415681
40
5.0000000000943823
0
ENDSEC
0
EOF
