0
SECTION
2
TABLES
0
TABLE
2
LAYER
70
6
0
LAYER
2
0
70
0
62
7
6
CONTINUOUS
0
LAYER
2
AP_CONTOUR
70
0
62
7
6
CONTINUOUS
0
LAYER
2
AP_BEND_LINES_UP
70
0
62
1
6
CONTINUOUS
0
LAYER
2
AP_BEND_LINES_DOWN
70
0
62
3
6
CONTINUOUS
0
LAYER
2
AP_BEND_ANGLES
70
0
62
7
6
CONTINUOUS
0
LAYER
2
AP_TEXT
70
0
62
255
6
CONTINUOUS
 0
ENDTAB
0
ENDSEC
0
SECTION
2
BLOCKS
0
ENDSEC
0
SECTION
2
ENTITIES
0
LINE
8
AP_CONTOUR
 62
7
10
1.8104685251335866
20
95.21999197786127
11
1.8104695915292552
21
95.21999197786127
0
ARC
8
AP_CONTOUR
62
7
10
17.574577255428625
20
85.8898078326128
40
17.575335678271411
50
164.18860954369882
51
179.46771640646176
0
ARC
8
AP_CONTOUR
62
7
10
-91.999851003101242
20
116.48223764620846
40
96.189704963309524
50
344.43937017448468
51
347.22958640458694
0
LINE
8
AP_CONTOUR
 62
7
10
0
20
86.053082132155282
11
1.6256585127E-06
21
86.0530821322009
0
LINE
8
AP_CONTOUR
 62
7
10
1.6256585127E-06
20
86.0530821322009
11
0.0001322397802426
21
29.553014306051452
0
ARC
8
AP_CONTOUR
62
7
10
15.000132239714365
20
29.553048981999812
40
14.999999999974202
50
180.00013245236613
51
1.8289054529320031E-09
0
LINE
8
AP_CONTOUR
 62
7
10
30.000132239688071
20
29.553052838835413
11
30.000133176352563
21
49.553048648888606
0
ARC
8
AP_CONTOUR
62
7
10
40.000130869384151
20
49.55304786781749
40
9.9999995842037226
50
89.999964319950635
51
179.99999552479116
0
LINE
8
AP_CONTOUR
 62
7
10
40.000137096726107
20
59.553045566835742
11
92.90154259892617
21
59.55303130901774
0
ARC
8
AP_CONTOUR
62
7
10
92.9015364338348
20
49.553032319819735
40
9.99994172021037
50
4.0711337187549689E-13
51
2.812499386499872
0
ARC
8
AP_CONTOUR
62
7
10
92.901527396485918
20
49.553031876112819
40
9.9999507684450322
50
2.8124993849577926
51
5.624996535689486
0
ARC
8
AP_CONTOUR
62
7
10
92.901518521950379
20
49.553031002585278
40
9.9999596858679229
50
5.6249965326253539
51
8.43749201116266
0
ARC
8
AP_CONTOUR
62
7
10
92.901509915388573
20
49.55302972672645
40
9.9999683864840829
50
8.4374920066127821
51
11.249985853614685
0
ARC
8
AP_CONTOUR
62
7
10
92.901501676650156
20
49.553028089009388
40
9.99997678642018
50
11.24998584761428
51
14.062478119474982
0
ARC
8
AP_CONTOUR
62
7
10
92.901493898112179
20
49.553026141920824
40
9.9999848049490314
50
14.062478112079619
51
16.874968880315148
0
ARC
8
AP_CONTOUR
62
7
10
92.901486663361482
20
49.553023948877041
40
9.99999236478084
50
16.874968871599812
51
19.687458222225384
0
ARC
8
AP_CONTOUR
62
7
10
92.901480045337749
20
49.553021582760046
40
9.9999993930626214
50
19.687458212275867
51
22.499946244971916
0
ARC
8
AP_CONTOUR
62
7
10
92.901474104884059
20
49.553019124245004
40
10.000005822159173
50
22.499946233882579
51
25.312433061007322
0
ARC
8
AP_CONTOUR
62
7
10
92.901468889801052
20
49.55301666004307
40
10.000011590120451
50
25.3124330488813
51
28.124918794412618
0
ARC
8
AP_CONTOUR
62
7
10
92.901464433855
20
49.553014280880483
40
10.00001664144351
50
28.124918781365324
51
30.937403579683831
0
ARC
8
AP_CONTOUR
62
7
10
92.901460756377
20
49.553012079508036
40
10.000020927453226
50
30.937403565851589
51
33.749887560468082
0
ARC
8
AP_CONTOUR
62
7
10
92.90145786196716
20
49.553010148577513
40
10.000024406834564
50
33.749887545966196
51
36.562370888141608
0
ARC
8
AP_CONTOUR
62
7
10
92.901455740451411
20
49.553008578422734
40
10.000027046192107
50
36.562370873133766
51
39.374853720380536
0
ARC
8
AP_CONTOUR
62
7
10
92.901454367607087
20
49.553007455239722
40
10.000028819954904
50
39.374853704988134
51
42.187336219627774
0
ARC
8
AP_CONTOUR
62
7
10
92.901453705432772
20
49.553006858762821
40
10.000029711163137
50
42.187336204007146
51
44.999818551529657
0
ARC
8
AP_CONTOUR
62
7
10
92.90145370346967
20
49.553006860673733
40
10.00002971120006
50
44.9998185358344
51
47.81230088334874
0
ARC
8
AP_CONTOUR
62
7
10
92.901454299924026
20
49.553007522814141
40
10.00002882003214
50
47.812300867730606
51
50.624783382355218
0
ARC
8
AP_CONTOUR
62
7
10
92.901455423115081
20
49.553008895650713
40
10.000027046270285
50
50.62478336696222
51
53.437266214198104
0
ARC
8
AP_CONTOUR
62
7
10
92.901456993205159
20
49.553011017054288
40
10.000024407041424
50
53.437266199179547
51
56.249749541312184
0
ARC
8
AP_CONTOUR
62
7
10
92.901458924162682
20
49.553013911461669
40
10.000020927647126
50
56.24974952682043
51
59.062233521401922
0
ARC
8
AP_CONTOUR
62
7
10
92.90146112552388
20
49.553017588870127
40
10.00001664170286
50
59.062233507563676
51
61.874718305832666
0
ARC
8
AP_CONTOUR
62
7
10
92.901463504710364
20
49.5530220447926
40
10.000011590389333
50
61.874718292786596
51
64.687204038269428
0
ARC
8
AP_CONTOUR
62
7
10
92.901465968928022
20
49.553027259825726
40
10.000005822466404
50
64.687204026137735
51
67.499690853206729
0
ARC
8
AP_CONTOUR
62
7
10
92.901468427466185
20
49.553033200231042
40
9.99999939340571
50
67.4996908421125
51
70.312178874745925
0
ARC
8
AP_CONTOUR
62
7
10
92.901470793616483
20
49.553039818219681
40
9.99999236514577
50
70.3121788647888
51
73.124668215348265
0
ARC
8
AP_CONTOUR
62
7
10
92.90147298669244
20
49.553047052912987
40
9.9999848053595688
50
73.124668206630488
51
75.937158974789654
0
ARC
8
AP_CONTOUR
62
7
10
92.901474933812011
20
49.553054831362914
40
9.99997678690859
50
75.93715896739819
51
78.749651239162816
0
ARC
8
AP_CONTOUR
62
7
10
92.901476571596163
20
49.553063070165024
40
9.9999683868969136
50
78.749651233163462
51
81.562145080092236
0
ARC
8
AP_CONTOUR
62
7
10
92.901477847500971
20
49.553071676669681
40
9.99995968633058
50
81.56214507553517
51
84.374640553986652
0
ARC
8
AP_CONTOUR
62
7
10
92.901478721079158
20
49.553080551141754
40
9.9999507689658937
50
84.374640550923345
51
87.187137701553652
0
ARC
8
AP_CONTOUR
62
7
10
92.90147916484635
20
49.553089588517636
40
9.9999417207013082
50
87.187137700020628
51
89.999636547376809
0
LINE
8
AP_CONTOUR
 62
7
10
102.90147815404518
20
49.553032413901384
11
102.90141502309169
21
29.553024368847858
0
ARC
8
AP_CONTOUR
62
7
10
114.9014150123336
20
29.553024436895779
40
11.999999989241909
50
180.00000032490485
51
226.8005385719645
0
LINE
8
AP_CONTOUR
 62
7
10
106.68693197530094
20
20.805323700353128
11
126.2452095998853
21
2.4392244446718223
0
ARC
8
AP_CONTOUR
62
7
10
132.40607188623486
20
8.999999999745004
40
8.999999999745004
50
226.80053854378838
51
349.76424092656458
0
LINE
8
AP_CONTOUR
 62
7
10
141.26283594374075
20
7.4007093991718165
11
145.51367290391963
21
30.941559318433747
0
ARC
8
AP_CONTOUR
62
7
10
150.43409738069983
20
30.053064540184035
40
5.0000000002674652
50
90.000000326502374
51
169.76424092562385
0
LINE
8
AP_CONTOUR
 62
7
10
150.43409735220712
20
35.0530645404515
11
158.0757086450071
21
35.053064583959625
0
ARC
8
AP_CONTOUR
62
7
10
158.0757086166355
20
40.05306458409737
40
5.0000000001377485
50
270.00000032511463
51
330.00000032534882
0
LINE
8
AP_CONTOUR
 62
7
10
162.405835649873
20
37.553064608616729
11
189.59792236073957
21
84.651140974540454
0
ARC
8
AP_CONTOUR
62
7
10
187.86587154704392
20
85.65114096468389
40
2.0000000003776655
50
330.00000033229895
51
60.000000332339638
0
LINE
8
AP_CONTOUR
 62
7
10
188.86587153718614
20
87.383191778380279
11
171.5453634052551
21
97.383191679804852
0
ARC
8
AP_CONTOUR
62
7
10
170.54536341511684
20
95.6511408661101
40
2.0000000003742966
50
60.000000332414452
51
150.00000033237632
0
LINE
8
AP_CONTOUR
 62
7
10
168.81331260142275
20
96.651140856249526
11
160.09643432237843
21
81.553064595585454
0
ARC
8
AP_CONTOUR
62
7
10
155.76630728935729
20
84.0530645706889
40
4.9999999997617719
50
270.000000324902
51
330.00000032785226
0
LINE
8
AP_CONTOUR
 62
7
10
155.76630731771033
20
79.05306457092712
11
152.99971832231034
21
79.05306455517912
0
ARC
8
AP_CONTOUR
62
7
10
152.99971829384481
20
84.053064555192464
40
5.0000000000133307
50
180.00013245024124
51
270.000000326191
0
LINE
8
AP_CONTOUR
 62
7
10
147.99971829384484
20
84.053052996728439
11
147.99971367025847
21
86.053082974733712
0
ARC
8
AP_CONTOUR
62
7
10
121.2665437683616
20
118.43744007927468
40
39.984966074624836
50
317.25427985078585
51
324.50341433380834
0
ARC
8
AP_CONTOUR
62
7
10
177.56809954809899
20
69.238196163154029
40
34.817588215522335
50
140.68549964916025
51
141.40907012438203
0
ARC
8
AP_CONTOUR
62
7
10
158.11157779693474
20
84.010746097675991
40
10.412239259862606
50
138.1628633037829
51
150.2811798357157
0
ARC
8
AP_CONTOUR
62
7
10
165.32483174708153
20
81.858062486754633
40
17.825765432946373
50
155.77428522107678
51
166.38864921591625
0
LINE
8
AP_CONTOUR
 62
7
10
153.82030876792925
20
95.219991977861284
11
153.82030663603359
21
95.219991977861284
0
LINE
8
AP_CONTOUR
 62
7
10
153.82030663603359
20
95.219991977861284
11
190.8030112240931
21
146.04984035689074
0
ARC
8
AP_CONTOUR
62
7
10
194.84610351190423
20
143.10817335631572
40
4.9999999990029762
50
53.961169765958914
51
143.96116978981991
0
LINE
8
AP_CONTOUR
 62
7
10
197.78777051416301
20
147.15126564290179
11
208.18988875304956
21
139.58290810874581
0
ARC
8
AP_CONTOUR
62
7
10
215.24988966080016
20
149.28632952486822
40
11.999999999845956
50
233.96116916951115
51
53.96117037692941
0
LINE
8
AP_CONTOUR
 62
7
10
222.30989036406646
20
158.98975108976904
11
211.65126275510914
21
166.74473932482766
0
ARC
8
AP_CONTOUR
62
7
10
214.59292975603617
20
170.7878316135893
40
4.9999999999786793
50
155.0470609192929
51
233.96116979296633
0
ARC
8
AP_CONTOUR
62
7
10
199.17980145200323
20
177.95968463852066
40
11.99999999831689
50
335.04706088868471
51
148.30773348444461
0
ARC
8
AP_CONTOUR
62
7
10
184.71480701443124
20
186.8907504472642
40
5.000000016697042
50
249.83137826003303
51
328.30773267961024
0
LINE
8
AP_CONTOUR
 62
7
10
182.99088611952209
20
182.19734050191892
11
182.99090865977402
21
182.19738107934745
0
ARC
8
AP_CONTOUR
62
7
10
190.61660882792506
20
202.744108834629
40
21.916188640002957
50
237.63237441657353
51
249.63812592852898
0
ARC
8
AP_CONTOUR
62
7
10
137.86931188296262
20
120.39082235274135
40
75.88157902083158
50
57.281886721110276
51
60.748673772917712
0
LINE
8
AP_CONTOUR
 62
7
10
174.94819570182719
20
186.59633881052469
11
167.97227971443994
21
190.47133836631986
0
ARC
8
AP_CONTOUR
62
7
10
170.40025050391625
20
194.84226021989394
40
5.0000000004601839
50
150.94859265744856
51
240.94859265123236
0
LINE
8
AP_CONTOUR
 62
7
10
166.02932865007875
20
197.27023100889602
11
173.3132410165147
21
210.38299656898755
0
ARC
8
AP_CONTOUR
62
7
10
168.9423191631964
20
212.81096735779369
40
4.9999999999111093
50
330.94859265652224
51
60.948592657722209
0
LINE
8
AP_CONTOUR
 62
7
10
171.370289951911
20
217.1818892111628
11
162.62844624510359
21
222.03783078883367
0
ARC
8
AP_CONTOUR
62
7
10
160.20047545627227
20
217.66690893541588
40
5.0000000000103322
50
60.948592656823941
51
150.94859265562059
0
LINE
8
AP_CONTOUR
 62
7
10
155.82955360290549
20
220.09487972433897
11
146.11767044740219
21
202.61119231050697
0
ARC
8
AP_CONTOUR
62
7
10
163.60135786036369
20
192.89930915539992
40
19.999999999314991
50
150.94859265638286
51
240.94859265869638
0
LINE
8
AP_CONTOUR
 62
7
10
153.88947470596264
20
175.41562174204631
11
165.23631254610393
21
169.112651396246
0
LINE
8
AP_CONTOUR
 62
7
10
165.23631254610393
20
169.112651396246
11
165.2363119220685
21
169.11265027283457
0
ARC
8
AP_CONTOUR
62
7
10
207.23681201418685
20
245.27026907820823
40
86.971402829278574
50
241.12351057093588
51
244.14723397597911
0
ARC
8
AP_CONTOUR
62
7
10
158.59868908049393
20
145.155239324775
40
24.33328146607143
50
53.069100646530394
51
63.878485626081861
0
LINE
8
AP_CONTOUR
 62
7
10
173.21937542045382
20
164.60630916310436
11
173.21936415101442
21
164.60628887498277
0
ARC
8
AP_CONTOUR
62
7
10
170.13106884746151
20
160.67405899399518
40
4.99999997188787
50
309.99999994354835
51
51.854612264858545
0
LINE
8
AP_CONTOUR
 62
7
10
173.34500687405028
20
156.84383679676881
11
127.72065350130842
21
118.56045871089125
0
ARC
8
AP_CONTOUR
62
7
10
108.43702521039167
20
141.54179203286725
40
30.000000021966827
50
270.000000001226
51
309.99999996559609
0
LINE
8
AP_CONTOUR
 62
7
10
108.4370252110336
20
111.54179201090039
11
89.003670503733588
21
111.5417920048606
0
ARC
8
AP_CONTOUR
62
7
10
89.003670503711419
20
141.54179200485811
40
29.999999999997502
50
179.99999999999392
51
270.00000000004235
0
LINE
8
AP_CONTOUR
 62
7
10
59.00367050371392
20
141.54179200486126
11
59.003670501962247
21
213.70209210986124
0
ARC
8
AP_CONTOUR
62
7
10
44.003670503637522
20
213.70209211224193
40
14.999999998324725
50
0
51
167.24810964299817
0
LINE
8
AP_CONTOUR
 62
7
10
29.373644927510384
20
217.01303632675342
11
1.8104685251335866
21
95.21999197786127
0
LINE
8
AP_BEND_LINES_DOWN
 62
3
10
178.88001877632883
20
184.23567845116196
11
169.30849862644149
21
167.0046777827497
0
POLYLINE
8
AP_BEND_ANGLES
62
7
66
1
10
0
20
0
30
0
0
VERTEX
8
AP_BEND_ANGLES
10
170.03121808243907
20
172.53881683522545
30
0
0
VERTEX
8
AP_BEND_ANGLES
10
170.78658677655045
20
173.89865918725607
30
0
0
SEQEND
0
POLYLINE
8
AP_BEND_ANGLES
62
7
66
1
10
0
20
0
30
0
0
VERTEX
8
AP_BEND_ANGLES
10
172.90179782269249
20
174.50313284517529
30
0
42
0.268
0
VERTEX
8
AP_BEND_ANGLES
10
171.70052928563624
20
176.5049939115431
30
0
0
VERTEX
8
AP_BEND_ANGLES
10
171.70052928563624
20
176.5049939115431
30
0
0
VERTEX
8
AP_BEND_ANGLES
10
171.08860022722246
20
176.8449098238932
30
0
42
1
0
VERTEX
8
AP_BEND_ANGLES
10
170.33323153311105
20
175.48506747186258
30
0
0
VERTEX
8
AP_BEND_ANGLES
10
170.33323153311105
20
175.48506747186258
30
0
0
VERTEX
8
AP_BEND_ANGLES
10
170.67319212111872
20
175.29622529833475
30
0
0
VERTEX
8
AP_BEND_ANGLES
10
170.67319212111872
20
175.29622529833475
30
0
42
0.414
0
VERTEX
8
AP_BEND_ANGLES
10
171.73079764418972
20
175.59846212729434
30
0
0
VERTEX
8
AP_BEND_ANGLES
10
171.73079764418972
20
175.59846212729434
30
0
0
VERTEX
8
AP_BEND_ANGLES
10
172.08582093042207
20
176.23758803274873
30
0
0
SEQEND
0
POLYLINE
8
AP_BEND_ANGLES
62
7
66
1
10
0
20
0
30
0
70
1
0
VERTEX
8
AP_BEND_ANGLES
10
171.69660501249584
20
179.14073976519032
30
0
42
0.546
0
VERTEX
8
AP_BEND_ANGLES
10
171.35102383493987
20
178.51861188913631
30
0
0
VERTEX
8
AP_BEND_ANGLES
10
171.35102383493987
20
178.51861188913631
30
0
42
0.115
0
VERTEX
8
AP_BEND_ANGLES
10
171.86476389825069
20
177.84176222463387
30
0
0
VERTEX
8
AP_BEND_ANGLES
10
171.86476389825069
20
177.84176222463387
30
0
42
0.054
0
VERTEX
8
AP_BEND_ANGLES
10
172.50502821782516
20
177.39268615409657
30
0
0
VERTEX
8
AP_BEND_ANGLES
10
172.50502821782516
20
177.39268615409657
30
0
42
0.054
0
VERTEX
8
AP_BEND_ANGLES
10
173.22460625028131
20
177.08639353052246
30
0
0
VERTEX
8
AP_BEND_ANGLES
10
173.22460625028131
20
177.08639353052246
30
0
42
0.115
0
VERTEX
8
AP_BEND_ANGLES
10
174.07070853900112
20
177.00787450091349
30
0
0
VERTEX
8
AP_BEND_ANGLES
10
174.07070853900112
20
177.00787450091349
30
0
42
0.546
0
VERTEX
8
AP_BEND_ANGLES
10
174.41628971655709
20
177.6300023769675
30
0
0
VERTEX
8
AP_BEND_ANGLES
10
174.41628971655709
20
177.6300023769675
30
0
42
0.115
0
VERTEX
8
AP_BEND_ANGLES
10
173.900661231511
20
178.30345243558986
30
0
0
VERTEX
8
AP_BEND_ANGLES
10
173.900661231511
20
178.30345243558986
30
0
42
0.054
0
VERTEX
8
AP_BEND_ANGLES
10
173.26039691193654
20
178.75252850612719
30
0
0
VERTEX
8
AP_BEND_ANGLES
10
173.26039691193654
20
178.75252850612719
30
0
42
0.054
0
VERTEX
8
AP_BEND_ANGLES
10
172.54081887948038
20
179.05882112970127
30
0
0
VERTEX
8
AP_BEND_ANGLES
10
172.54081887948038
20
179.05882112970127
30
0
42
0.115
0
VERTEX
8
AP_BEND_ANGLES
10
171.69660501249584
20
179.14073976519032
30
0
0
SEQEND
0
POLYLINE
8
AP_BEND_ANGLES
62
7
66
1
10
0
20
0
30
0
70
1
0
VERTEX
8
AP_BEND_ANGLES
10
172.58036404677742
20
181.13214093303697
30
0
42
1
0
VERTEX
8
AP_BEND_ANGLES
10
173.6002458108004
20
180.56561441245341
30
0
42
1
0
SEQEND
0
LINE
8
AP_BEND_LINES_UP
 62
1
10
150.10281955389448
20
90.636537262953468
11
0.65416673214969023
21
90.636537054658348
0
POLYLINE
8
AP_BEND_ANGLES
62
7
66
1
10
0
20
0
30
0
0
VERTEX
8
AP_BEND_ANGLES
10
72.461826476355412
20
91.136537158805908
30
0
42
0.268
0
VERTEX
8
AP_BEND_ANGLES
10
73.628493143022084
20
93.158759381028133
30
0
0
VERTEX
8
AP_BEND_ANGLES
10
73.628493143022084
20
93.158759381028133
30
0
0
VERTEX
8
AP_BEND_ANGLES
10
73.628493143022084
20
93.858759381028136
30
0
42
1
0
VERTEX
8
AP_BEND_ANGLES
10
72.072937587466527
20
93.858759381028136
30
0
0
VERTEX
8
AP_BEND_ANGLES
10
72.072937587466527
20
93.858759381028136
30
0
0
VERTEX
8
AP_BEND_ANGLES
10
72.072937587466527
20
93.469870492139236
30
0
0
VERTEX
8
AP_BEND_ANGLES
10
72.072937587466527
20
93.469870492139236
30
0
42
0.414
0
VERTEX
8
AP_BEND_ANGLES
10
72.850715365244312
20
92.692092714361465
30
0
0
VERTEX
8
AP_BEND_ANGLES
10
72.850715365244312
20
92.692092714361465
30
0
0
VERTEX
8
AP_BEND_ANGLES
10
73.581826476355417
20
92.692092714361465
30
0
0
SEQEND
0
POLYLINE
8
AP_BEND_ANGLES
62
7
66
1
10
0
20
0
30
0
70
1
0
VERTEX
8
AP_BEND_ANGLES
10
75.930715365244311
20
94.442092714361465
30
0
42
0.546
0
VERTEX
8
AP_BEND_ANGLES
10
75.219048698577637
20
94.442092714361465
30
0
0
VERTEX
8
AP_BEND_ANGLES
10
75.219048698577637
20
94.442092714361465
30
0
42
0.115
0
VERTEX
8
AP_BEND_ANGLES
10
74.876826476355419
20
93.664314936583679
30
0
0
VERTEX
8
AP_BEND_ANGLES
10
74.876826476355419
20
93.664314936583679
30
0
42
0.054
0
VERTEX
8
AP_BEND_ANGLES
10
74.795159809688755
20
92.886537158805908
30
0
0
VERTEX
8
AP_BEND_ANGLES
10
74.795159809688755
20
92.886537158805908
30
0
42
0.054
0
VERTEX
8
AP_BEND_ANGLES
10
74.876826476355419
20
92.108759381028136
30
0
0
VERTEX
8
AP_BEND_ANGLES
10
74.876826476355419
20
92.108759381028136
30
0
42
0.115
0
VERTEX
8
AP_BEND_ANGLES
10
75.219048698577637
20
91.330981603250351
30
0
0
VERTEX
8
AP_BEND_ANGLES
10
75.219048698577637
20
91.330981603250351
30
0
42
0.546
0
VERTEX
8
AP_BEND_ANGLES
10
75.930715365244311
20
91.330981603250351
30
0
0
VERTEX
8
AP_BEND_ANGLES
10
75.930715365244311
20
91.330981603250351
30
0
42
0.115
0
VERTEX
8
AP_BEND_ANGLES
10
76.269048698577635
20
92.108759381028136
30
0
0
VERTEX
8
AP_BEND_ANGLES
10
76.269048698577635
20
92.108759381028136
30
0
42
0.054
0
VERTEX
8
AP_BEND_ANGLES
10
76.350715365244312
20
92.886537158805908
30
0
0
VERTEX
8
AP_BEND_ANGLES
10
76.350715365244312
20
92.886537158805908
30
0
42
0.054
0
VERTEX
8
AP_BEND_ANGLES
10
76.269048698577635
20
93.664314936583679
30
0
0
VERTEX
8
AP_BEND_ANGLES
10
76.269048698577635
20
93.664314936583679
30
0
42
0.115
0
VERTEX
8
AP_BEND_ANGLES
10
75.930715365244311
20
94.442092714361465
30
0
0
SEQEND
0
POLYLINE
8
AP_BEND_ANGLES
62
7
66
1
10
0
20
0
30
0
70
1
0
VERTEX
8
AP_BEND_ANGLES
10
78.100715365244312
20
94.636537158805908
30
0
42
1
0
VERTEX
8
AP_BEND_ANGLES
10
78.100715365244312
20
93.469870492139236
30
0
42
1
0
SEQEND
0
CIRCLE
8
AP_CONTOUR
62
7
10
173.9781984974066
20
84.431588355536462
40
4.49999999957725
0
CIRCLE
8
AP_CONTOUR
62
7
10
158.97819864610111
20
58.450826157158673
40
4.5000000000120082
0
CIRCLE
8
AP_CONTOUR
62
7
10
44.003670503633572
20
213.70209211286121
40
4.9999999999999858
0
CIRCLE
8
AP_CONTOUR
62
7
10
162.14342652067205
20
210.86801629290636
40
4.9999999999999574
0
CIRCLE
8
AP_CONTOUR
62
7
10
199.17980145213357
20
177.95968463886129
40
4.9999999999999716
0
CIRCLE
8
AP_CONTOUR
62
7
10
215.24988955913352
20
149.2863295988613
40
4.99999999999995
0
CIRCLE
8
AP_CONTOUR
62
7
10
132.99980614048315
20
46.053031002235954
40
5.0000000000132729
0
CIRCLE
8
AP_CONTOUR
62
7
10
132.40607188623005
20
8.999999999757506
40
5.0000000000133014
0
CIRCLE
8
AP_CONTOUR
62
7
10
114.9014150231194
20
29.553024437161454
40
5.2000000000138158
0
LINE
8
AP_CONTOUR
 62
7
10
14.200132239719338
20
24.353048982429623
11
15.800132239719332
21
24.353048982429623
0
ARC
8
AP_CONTOUR
62
7
10
15.800132239719332
20
29.553048982443443
40
5.2000000000138176
50
270
51
90
0
LINE
8
AP_CONTOUR
 62
7
10
15.800132239719332
20
34.753048982457258
11
14.200132239719338
21
34.753048982457258
0
ARC
8
AP_CONTOUR
62
7
10
14.200132239719338
20
29.553048982443443
40
5.2000000000138158
50
90
51
270
0
ENDSEC
0
EOF
