0
SECTION
2
TABLES
0
TABLE
2
LAYER
70
6
0
LAYER
2
0
70
0
62
7
6
CONTINUOUS
0
LAYER
2
AP_CONTOUR
70
0
62
7
6
CONTINUOUS
0
LAYER
2
AP_BEND_LINES_UP
70
0
62
1
6
CONTINUOUS
0
LAYER
2
AP_BEND_LINES_DOWN
70
0
62
3
6
CONTINUOUS
0
LAYER
2
AP_BEND_ANGLES
70
0
62
7
6
CONTINUOUS
0
LAYER
2
AP_TEXT
70
0
62
255
6
CONTINUOUS
 0
ENDTAB
0
ENDSEC
0
SECTION
2
BLOCKS
0
ENDSEC
0
SECTION
2
ENTITIES
0
LINE
8
AP_CONTOUR
 62
7
10
44.876033251516809
20
68.935514328306624
11
44.876129321909062
21
68.935514328306624
0
LINE
8
AP_CONTOUR
 62
7
10
44.876129321909062
20
68.935514328306624
11
44.876129321768218
21
64.340076532202175
0
LINE
8
AP_CONTOUR
 62
7
10
44.876129321768218
20
64.340076532202175
11
44.877204517659962
21
26.246290022525088
0
LINE
8
AP_CONTOUR
 62
7
10
44.877204517659962
20
26.246290022525088
11
44.87698912256441
21
26.246290013558372
0
LINE
8
AP_CONTOUR
 62
7
10
44.87698912256441
20
26.246290013558372
11
44.877180452612421
21
21.650231150737277
0
LINE
8
AP_CONTOUR
 62
7
10
44.877180452612421
20
21.650231150737277
11
44.877398859909569
21
11.999728418528818
0
ARC
8
AP_CONTOUR
62
7
10
56.877398856884966
20
11.999999999349473
40
12.000000000048578
50
180.00129670290178
51
0.0012967029017671424
0
LINE
8
AP_CONTOUR
 62
7
10
68.87739885386037
20
12.000271580170121
11
68.877180436267537
21
21.651230250514637
0
LINE
8
AP_CONTOUR
 62
7
10
68.877180436267537
20
21.651230250514637
11
68.877288133315162
21
21.651230254997976
0
LINE
8
AP_CONTOUR
 62
7
10
68.877288133315162
20
21.651230254997976
11
68.87709680376733
21
26.247289117055324
0
LINE
8
AP_CONTOUR
 62
7
10
68.87709680376733
20
26.247289117055324
11
68.8772045013151
21
26.247289121538685
0
LINE
8
AP_CONTOUR
 62
7
10
68.8772045013151
20
26.247289121538685
11
68.876129333608
21
64.340076532200413
0
LINE
8
AP_CONTOUR
 62
7
10
68.876129333608
20
64.340076532200413
11
68.876225396871035
21
64.340076532200413
0
LINE
8
AP_CONTOUR
 62
7
10
68.876225396871035
20
64.340076532200413
11
68.876225396598613
21
68.935514328306624
0
LINE
8
AP_CONTOUR
 62
7
10
68.876225396598613
20
68.935514328306624
11
68.8760332558141
21
68.935514328306624
0
LINE
8
AP_CONTOUR
 62
7
10
68.8760332558141
20
68.935514328306624
11
68.875907870292878
21
73.163256516361344
0
ARC
8
AP_CONTOUR
62
7
10
78.875906742223478
20
73.163554494093447
40
9.99999887637012
50
119.99680889021445
51
180.00170728683591
0
LINE
8
AP_CONTOUR
 62
7
10
73.876389647813923
20
81.824086022245211
11
153.96597901955556
21
128.05786394934628
0
ARC
8
AP_CONTOUR
62
7
10
151.46622386905708
20
132.38812553117631
40
4.9999941179482521
50
299.99679914066928
51
302.80929960272192
0
ARC
8
AP_CONTOUR
62
7
10
151.46622331194632
20
132.38812639539228
40
4.9999951461708037
50
302.80929960236597
51
305.62179967880741
0
ARC
8
AP_CONTOUR
62
7
10
151.46622272172377
20
132.38812721924936
40
4.9999961596317579
50
305.62179967810471
51
308.43429937445006
0
ARC
8
AP_CONTOUR
62
7
10
151.46622210718854
20
132.3881279937934
40
4.9999971483542049
50
308.43429937340767
51
311.24679869895323
0
ARC
8
AP_CONTOUR
62
7
10
151.46622147785865
20
132.38812871166871
40
4.9999981030274734
50
311.24679869758432
51
314.05929766508024
0
ARC
8
AP_CONTOUR
62
7
10
151.46622084425195
20
132.38812936663857
40
4.9999990143138833
50
314.05929766341939
51
316.87179628914282
0
ARC
8
AP_CONTOUR
62
7
10
151.46622021742459
20
132.38812995402847
40
4.999999873347849
50
316.87179628716706
51
319.68429459073809
0
ARC
8
AP_CONTOUR
62
7
10
151.46621960847509
20
132.38813047100092
40
5.000000672146947
50
319.68429458847794
51
322.49679259245556
0
ARC
8
AP_CONTOUR
62
7
10
151.46621902899258
20
132.38813091598018
40
5.0000014027675883
50
322.4967925899544
51
325.30929031992338
0
ARC
8
AP_CONTOUR
62
7
10
151.46621849017154
20
132.38813128924056
40
5.0000020582455411
50
325.30929031716983
51
328.12178780131416
0
ARC
8
AP_CONTOUR
62
7
10
151.46621800282924
20
132.38813159263111
40
5.0000026323084681
50
328.12178779835875
51
330.93428506720642
0
ARC
8
AP_CONTOUR
62
7
10
151.46621757723671
20
132.3881318294938
40
5.0000031193740249
50
330.93428506405792
51
333.74678215024096
0
ARC
8
AP_CONTOUR
62
7
10
151.4662172226702
20
132.38813200468957
40
5.0000035148621915
50
333.74678214697127
51
336.5592790848184
0
ARC
8
AP_CONTOUR
62
7
10
151.466216947683
20
132.38813212424188
40
5.0000038147132129
50
336.55927908142661
51
339.37177590683615
0
ARC
8
AP_CONTOUR
62
7
10
151.46621675910805
20
132.38813219555661
40
5.000004016322233
50
339.37177590331845
51
342.18427265311249
0
ARC
8
AP_CONTOUR
62
7
10
151.46621666275382
20
132.38813222684581
40
5.0000041176289773
50
342.18427264957734
51
344.99676936137382
0
ARC
8
AP_CONTOUR
62
7
10
151.46621666289022
20
132.38813222713196
40
5.0000041175713079
50
344.9967693578019
51
347.809266069632
0
ARC
8
AP_CONTOUR
62
7
10
151.46621676191907
20
132.3881322060569
40
5.0000040163251889
50
347.80926606605931
51
350.62176281585567
0
ARC
8
AP_CONTOUR
62
7
10
151.4662169608431
20
132.38813217351276
40
5.0000038147568509
50
350.62176281235162
51
353.43425963774291
0
ARC
8
AP_CONTOUR
62
7
10
151.46621725882051
20
132.38813213951607
40
5.0000035148464317
50
353.4342596343285
51
356.24675657219285
0
ARC
8
AP_CONTOUR
62
7
10
151.46621765337815
20
132.38813211391934
40
5.0000031194594987
50
356.24675656891839
51
359.05925365506369
0
ARC
8
AP_CONTOUR
62
7
10
151.46621814042862
20
132.38813210619597
40
5.0000026323478775
50
359.0592536519207
51
1.8717509207590271
0
ARC
8
AP_CONTOUR
62
7
10
151.46621871412702
20
132.38813212520361
40
5.000002058334724
50
1.8717509177899341
51
4.6842484018986337
0
ARC
8
AP_CONTOUR
62
7
10
151.46621936740144
20
132.38813217897095
40
5.0000014028514466
50
4.68424839916632
51
7.4967461291046744
0
ARC
8
AP_CONTOUR
62
7
10
151.46622009182991
20
132.38813227452627
40
5.0000006721481016
50
7.4967461265563493
51
10.309244130550894
0
ARC
8
AP_CONTOUR
62
7
10
151.46622087751831
20
132.38813241764075
40
4.9999998735317979
50
10.309244128298975
51
13.121742431786
0
ARC
8
AP_CONTOUR
62
7
10
151.46622171419426
20
132.38813261285287
40
4.99999901438437
50
13.12174242981275
51
15.934241055517546
0
ARC
8
AP_CONTOUR
62
7
10
151.46622259038728
20
132.38813286316088
40
4.9999981031388829
50
15.934241053846373
51
18.746740021301033
0
ARC
8
AP_CONTOUR
62
7
10
151.4662234942594
20
132.38813317004943
40
4.9999971485890722
50
18.746740019970286
51
21.55923934540694
0
ARC
8
AP_CONTOUR
62
7
10
151.46622441381726
20
132.38813353346529
40
4.9999961598232607
50
21.559239344408688
51
24.371739040669357
0
ARC
8
AP_CONTOUR
62
7
10
151.466225336906
20
132.38813395171152
40
4.9999951464019592
50
24.371739040006879
51
27.184239116342631
0
ARC
8
AP_CONTOUR
62
7
10
151.46622625161396
20
132.38813442151974
40
4.9999941180973275
50
27.184239116034682
51
29.996739578027718
0
LINE
8
AP_CONTOUR
 62
7
10
155.79649043222676
20
134.88788507050651
11
145.62435720417312
21
152.50879821946532
0
LINE
8
AP_CONTOUR
 62
7
10
145.62435720417312
20
152.50879821946532
11
145.6242601609178
21
152.50874220231449
0
LINE
8
AP_CONTOUR
 62
7
10
145.6242601609178
20
152.50874220231449
11
143.33254895378366
21
156.47886764548659
0
LINE
8
AP_CONTOUR
 62
7
10
143.33254895378366
20
156.47886764548659
11
138.74958697575511
21
164.41760050072571
0
LINE
8
AP_CONTOUR
 62
7
10
138.74958697575511
20
164.41760050072571
11
138.74958574414887
21
164.41759978973033
0
LINE
8
AP_CONTOUR
 62
7
10
138.74958574414887
20
164.41759978973033
11
136.45803121806387
21
168.38709523005883
0
LINE
8
AP_CONTOUR
 62
7
10
136.45803121806387
20
168.38709523005883
11
136.45802998654432
21
168.38709451911353
0
LINE
8
AP_CONTOUR
 62
7
10
136.45802998654432
20
168.38709451911353
11
130.61532931207475
21
178.50797968960654
0
ARC
8
AP_CONTOUR
62
7
10
121.95485477810477
20
173.50836161772696
40
10.000000000910367
50
29.997473213050803
51
110.06790829905805
0
LINE
8
AP_CONTOUR
 62
7
10
118.52351829250998
20
182.90122752440493
11
6.5686635131463049
21
142.00265813577977
0
ARC
8
AP_CONTOUR
62
7
10
9.9999999990487538
20
132.60979223119614
40
9.99999999904875
50
110.06790830483129
51
250.41793735632203
0
LINE
8
AP_CONTOUR
 62
7
10
6.6484337271020735
20
123.1881679813269
11
25.147238010518613
21
116.60756501324453
0
ARC
8
AP_CONTOUR
62
7
10
21.79567173123263
20
107.18594075747538
40
10.000000007067227
50
29.997473213324049
51
70.417937328032693
0
LINE
8
AP_CONTOUR
 62
7
10
30.456146270510892
20
112.18555883247446
11
32.617814311963812
21
108.44105860544904
0
LINE
8
AP_CONTOUR
 62
7
10
32.617814311963812
20
108.44105860544904
11
32.617816775002879
21
108.44106002733966
0
LINE
8
AP_CONTOUR
 62
7
10
32.617816775002879
20
108.44106002733966
11
34.909371301408029
21
104.47156458665674
0
LINE
8
AP_CONTOUR
 62
7
10
34.909371301408029
20
104.47156458665674
11
39.489988782905044
21
96.536892932826859
0
LINE
8
AP_CONTOUR
 62
7
10
39.489988782905044
20
96.536892932826859
11
39.489892046843806
21
96.536837093000429
0
LINE
8
AP_CONTOUR
 62
7
10
39.489892046843806
20
96.536837093000429
11
41.7816032539595
21
92.566711649860366
0
LINE
8
AP_CONTOUR
 62
7
10
41.7816032539595
20
92.566711649860366
11
41.781797340470078
21
92.566823684162017
0
LINE
8
AP_CONTOUR
 62
7
10
41.781797340470078
20
92.566823684162017
11
43.53610363359239
21
89.527886239919823
0
ARC
8
AP_CONTOUR
62
7
10
34.87557567683502
20
84.528367358099274
40
9.9999966769722644
50
0.0016825747751047534
51
29.996827989872159
0
LINE
8
AP_CONTOUR
 62
7
10
44.875572349495336
20
84.528661022699026
11
44.876033251516809
21
68.935514328306624
0
LINE
8
AP_BEND_LINES_DOWN
 62
3
10
68.876225396870979
20
66.637795430253533
11
44.876129321768218
21
66.637795430253533
0
POLYLINE
8
AP_BEND_ANGLES
62
7
66
1
10
0
20
0
30
0
0
VERTEX
8
AP_BEND_ANGLES
10
47.737288470430713
20
68.69335098580909
30
0
0
VERTEX
8
AP_BEND_ANGLES
10
49.292844025986263
20
68.69335098580909
30
0
0
SEQEND
0
POLYLINE
8
AP_BEND_ANGLES
62
7
66
1
10
0
20
0
30
0
0
VERTEX
8
AP_BEND_ANGLES
10
50.459510692652934
20
69.860017652475761
30
0
0
VERTEX
8
AP_BEND_ANGLES
10
51.237288470430713
20
70.637795430253533
30
0
0
VERTEX
8
AP_BEND_ANGLES
10
51.237288470430713
20
67.137795430253533
30
0
0
SEQEND
0
POLYLINE
8
AP_BEND_ANGLES
62
7
66
1
10
0
20
0
30
0
0
VERTEX
8
AP_BEND_ANGLES
10
52.403955137097377
20
70.637795430253533
30
0
0
VERTEX
8
AP_BEND_ANGLES
10
53.181732914875155
20
70.637795430253533
30
0
42
-1
0
VERTEX
8
AP_BEND_ANGLES
10
53.181732914875155
20
69.082239874697976
30
0
42
-0.414
0
VERTEX
8
AP_BEND_ANGLES
10
53.959510692652934
20
68.3044620969202
30
0
0
VERTEX
8
AP_BEND_ANGLES
10
53.959510692652934
20
67.9155732080313
30
0
42
-0.414
0
VERTEX
8
AP_BEND_ANGLES
10
53.181732914875155
20
67.137795430253533
30
0
0
VERTEX
8
AP_BEND_ANGLES
10
53.181732914875155
20
67.137795430253533
30
0
0
VERTEX
8
AP_BEND_ANGLES
10
52.403955137097377
20
67.137795430253533
30
0
0
SEQEND
0
POLYLINE
8
AP_BEND_ANGLES
62
7
66
1
10
0
20
0
30
0
0
VERTEX
8
AP_BEND_ANGLES
10
53.181732914875155
20
69.082239874697976
30
0
0
VERTEX
8
AP_BEND_ANGLES
10
52.792844025986263
20
69.082239874697976
30
0
0
SEQEND
0
POLYLINE
8
AP_BEND_ANGLES
62
7
66
1
10
0
20
0
30
0
0
VERTEX
8
AP_BEND_ANGLES
10
56.487288470430705
20
67.137795430253533
30
0
0
VERTEX
8
AP_BEND_ANGLES
10
56.487288470430705
20
68.69335098580909
30
0
0
SEQEND
0
POLYLINE
8
AP_BEND_ANGLES
62
7
66
1
10
0
20
0
30
0
0
VERTEX
8
AP_BEND_ANGLES
10
57.070621803764041
20
67.9155732080313
30
0
0
VERTEX
8
AP_BEND_ANGLES
10
55.1261773593196
20
67.9155732080313
30
0
0
VERTEX
8
AP_BEND_ANGLES
10
55.903955137097377
20
70.637795430253533
30
0
0
SEQEND
0
POLYLINE
8
AP_BEND_ANGLES
62
7
66
1
10
0
20
0
30
0
0
VERTEX
8
AP_BEND_ANGLES
10
58.237288470430705
20
67.137795430253533
30
0
0
VERTEX
8
AP_BEND_ANGLES
10
58.237288470430705
20
67.332239874697976
30
0
0
SEQEND
0
POLYLINE
8
AP_BEND_ANGLES
62
7
66
1
10
0
20
0
30
0
70
1
0
VERTEX
8
AP_BEND_ANGLES
10
59.403955137097377
20
68.3044620969202
30
0
0
VERTEX
8
AP_BEND_ANGLES
10
59.403955137097377
20
67.9155732080313
30
0
42
1
0
VERTEX
8
AP_BEND_ANGLES
10
60.959510692652934
20
67.9155732080313
30
0
0
VERTEX
8
AP_BEND_ANGLES
10
60.959510692652934
20
68.3044620969202
30
0
42
1
0
SEQEND
0
POLYLINE
8
AP_BEND_ANGLES
62
7
66
1
10
0
20
0
30
0
70
1
0
VERTEX
8
AP_BEND_ANGLES
10
59.5011773593196
20
69.957239874697976
30
0
0
VERTEX
8
AP_BEND_ANGLES
10
59.5011773593196
20
69.762795430253533
30
0
42
1
0
VERTEX
8
AP_BEND_ANGLES
10
60.862288470430705
20
69.762795430253533
30
0
0
VERTEX
8
AP_BEND_ANGLES
10
60.862288470430705
20
69.957239874697976
30
0
42
1
0
SEQEND
0
POLYLINE
8
AP_BEND_ANGLES
62
7
66
1
10
0
20
0
30
0
70
1
0
VERTEX
8
AP_BEND_ANGLES
10
62.1261773593196
20
68.3044620969202
30
0
0
VERTEX
8
AP_BEND_ANGLES
10
62.1261773593196
20
67.9155732080313
30
0
42
1
0
VERTEX
8
AP_BEND_ANGLES
10
63.681732914875155
20
67.9155732080313
30
0
0
VERTEX
8
AP_BEND_ANGLES
10
63.681732914875155
20
68.3044620969202
30
0
42
1
0
SEQEND
0
POLYLINE
8
AP_BEND_ANGLES
62
7
66
1
10
0
20
0
30
0
70
1
0
VERTEX
8
AP_BEND_ANGLES
10
62.22339958154182
20
69.957239874697976
30
0
0
VERTEX
8
AP_BEND_ANGLES
10
62.22339958154182
20
69.762795430253533
30
0
42
1
0
VERTEX
8
AP_BEND_ANGLES
10
63.584510692652934
20
69.762795430253533
30
0
0
VERTEX
8
AP_BEND_ANGLES
10
63.584510692652934
20
69.957239874697976
30
0
42
1
0
SEQEND
0
POLYLINE
8
AP_BEND_ANGLES
62
7
66
1
10
0
20
0
30
0
70
1
0
VERTEX
8
AP_BEND_ANGLES
10
65.431732914875155
20
70.637795430253533
30
0
42
1
0
VERTEX
8
AP_BEND_ANGLES
10
65.431732914875155
20
69.471128763586862
30
0
42
1
0
SEQEND
0
LINE
8
AP_BEND_LINES_UP
 62
1
10
44.8770847875202
20
23.948260582147824
11
68.877192468723152
21
23.949259685644776
0
POLYLINE
8
AP_BEND_ANGLES
62
7
66
1
10
0
20
0
30
0
0
VERTEX
8
AP_BEND_ANGLES
10
49.099226718789808
20
27.17065857123881
30
0
0
VERTEX
8
AP_BEND_ANGLES
10
49.876972117684879
20
27.948468726551418
30
0
0
VERTEX
8
AP_BEND_ANGLES
10
49.877117819624331
20
24.448468729584143
30
0
0
SEQEND
0
POLYLINE
8
AP_BEND_ANGLES
62
7
66
1
10
0
20
0
30
0
0
VERTEX
8
AP_BEND_ANGLES
10
51.04363878334064
20
27.948517293864573
30
0
0
VERTEX
8
AP_BEND_ANGLES
10
51.821416560444476
20
27.948549672073341
30
0
42
-1
0
VERTEX
8
AP_BEND_ANGLES
10
51.821481316862013
20
26.392994117865662
30
0
42
-0.414
0
VERTEX
8
AP_BEND_ANGLES
10
52.59929147217462
20
25.615248718970591
30
0
0
VERTEX
8
AP_BEND_ANGLES
10
52.599307661279006
20
25.226359830418669
30
0
42
-0.414
0
VERTEX
8
AP_BEND_ANGLES
10
51.821562262383935
20
24.448549675106062
30
0
0
VERTEX
8
AP_BEND_ANGLES
10
51.821562262383935
20
24.448549675106062
30
0
0
VERTEX
8
AP_BEND_ANGLES
10
51.043784485280092
20
24.448517296897293
30
0
0
SEQEND
0
POLYLINE
8
AP_BEND_ANGLES
62
7
66
1
10
0
20
0
30
0
0
VERTEX
8
AP_BEND_ANGLES
10
51.821481316862013
20
26.392994117865662
30
0
0
VERTEX
8
AP_BEND_ANGLES
10
51.432592428310095
20
26.392977928761276
30
0
0
SEQEND
0
POLYLINE
8
AP_BEND_ANGLES
62
7
66
1
10
0
20
0
30
0
0
VERTEX
8
AP_BEND_ANGLES
10
55.127117815075252
20
24.448687282493324
30
0
0
VERTEX
8
AP_BEND_ANGLES
10
55.127053058657715
20
26.004242836701003
30
0
0
SEQEND
0
POLYLINE
8
AP_BEND_ANGLES
62
7
66
1
10
0
20
0
30
0
0
VERTEX
8
AP_BEND_ANGLES
10
55.710418769694364
20
25.226489343253743
30
0
0
VERTEX
8
AP_BEND_ANGLES
10
53.765974326934767
20
25.22640839773182
30
0
0
VERTEX
8
AP_BEND_ANGLES
10
54.543638780307916
20
27.948662995804028
30
0
0
SEQEND
0
POLYLINE
8
AP_BEND_ANGLES
62
7
66
1
10
0
20
0
30
0
0
VERTEX
8
AP_BEND_ANGLES
10
56.87711781355889
20
24.448760133463054
30
0
0
VERTEX
8
AP_BEND_ANGLES
10
56.8771097190067
20
24.643204577739013
30
0
0
SEQEND
0
POLYLINE
8
AP_BEND_ANGLES
62
7
66
1
10
0
20
0
30
0
70
1
0
VERTEX
8
AP_BEND_ANGLES
10
58.0437359119015
20
25.615475366431966
30
0
0
VERTEX
8
AP_BEND_ANGLES
10
58.043752101005879
20
25.226586477880044
30
0
42
1
0
VERTEX
8
AP_BEND_ANGLES
10
59.599307655213558
20
25.226651234297581
30
0
0
VERTEX
8
AP_BEND_ANGLES
10
59.599291466109179
20
25.615540122849502
30
0
42
1
0
SEQEND
0
POLYLINE
8
AP_BEND_ANGLES
62
7
66
1
10
0
20
0
30
0
70
1
0
VERTEX
8
AP_BEND_ANGLES
10
58.140889330345843
20
27.268257190053721
30
0
0
VERTEX
8
AP_BEND_ANGLES
10
58.140897424898036
20
27.073812745777762
30
0
42
1
0
VERTEX
8
AP_BEND_ANGLES
10
59.502008534829756
20
27.073869407643105
30
0
0
VERTEX
8
AP_BEND_ANGLES
10
59.502000440277563
20
27.268313851919064
30
0
42
1
0
SEQEND
0
POLYLINE
8
AP_BEND_ANGLES
62
7
66
1
10
0
20
0
30
0
70
1
0
VERTEX
8
AP_BEND_ANGLES
10
60.765958131764933
20
25.615588690162653
30
0
0
VERTEX
8
AP_BEND_ANGLES
10
60.765974320869319
20
25.226699801610732
30
0
42
1
0
VERTEX
8
AP_BEND_ANGLES
10
62.321529875077
20
25.226764558028268
30
0
0
VERTEX
8
AP_BEND_ANGLES
10
62.321513685972612
20
25.61565344658019
30
0
42
1
0
SEQEND
0
POLYLINE
8
AP_BEND_ANGLES
62
7
66
1
10
0
20
0
30
0
70
1
0
VERTEX
8
AP_BEND_ANGLES
10
60.863111550209283
20
27.268370513784408
30
0
0
VERTEX
8
AP_BEND_ANGLES
10
60.863119644761476
20
27.073926069508449
30
0
42
1
0
VERTEX
8
AP_BEND_ANGLES
10
62.224230754693195
20
27.073982731373793
30
0
0
VERTEX
8
AP_BEND_ANGLES
10
62.224222660141
20
27.268427175649752
30
0
42
1
0
SEQEND
0
POLYLINE
8
AP_BEND_ANGLES
62
7
66
1
10
0
20
0
30
0
70
1
0
VERTEX
8
AP_BEND_ANGLES
10
64.071416549829948
20
27.949059628861434
30
0
42
1
0
VERTEX
8
AP_BEND_ANGLES
10
64.0714651171431
20
26.782392963205677
30
0
42
1
0
SEQEND
0
LINE
8
AP_BEND_LINES_DOWN
 62
3
10
40.635747650390272
20
94.551774371445191
11
144.47840455734865
21
154.49380492389935
0
POLYLINE
8
AP_BEND_ANGLES
62
7
66
1
10
0
20
0
30
0
0
VERTEX
8
AP_BEND_ANGLES
10
83.614555617407888
20
121.7342548864317
30
0
0
VERTEX
8
AP_BEND_ANGLES
10
84.961771155911251
20
122.51192022527279
30
0
0
SEQEND
0
POLYLINE
8
AP_BEND_ANGLES
62
7
66
1
10
0
20
0
30
0
0
VERTEX
8
AP_BEND_ANGLES
10
85.388933805657956
20
124.10558088328114
30
0
0
VERTEX
8
AP_BEND_ANGLES
10
85.6737089054891
20
125.16802132195338
30
0
0
VERTEX
8
AP_BEND_ANGLES
10
87.423455917881554
20
122.1367863603208
30
0
0
SEQEND
0
POLYLINE
8
AP_BEND_ANGLES
62
7
66
1
10
0
20
0
30
0
0
VERTEX
8
AP_BEND_ANGLES
10
86.6841205593666
20
125.7512703260842
30
0
0
VERTEX
8
AP_BEND_ANGLES
10
87.3577283286183
20
126.14010299550475
30
0
42
-1
0
VERTEX
8
AP_BEND_ANGLES
10
88.1353936674594
20
124.79288745700139
30
0
42
-0.414
0
VERTEX
8
AP_BEND_ANGLES
10
89.197834106131623
20
124.50811235717025
30
0
0
VERTEX
8
AP_BEND_ANGLES
10
89.392250440841892
20
124.1713084725444
30
0
42
-0.414
0
VERTEX
8
AP_BEND_ANGLES
10
89.107475341010769
20
123.10886803387217
30
0
0
VERTEX
8
AP_BEND_ANGLES
10
89.107475341010769
20
123.10886803387217
30
0
0
VERTEX
8
AP_BEND_ANGLES
10
88.43386757175908
20
122.72003536445162
30
0
0
SEQEND
0
POLYLINE
8
AP_BEND_ANGLES
62
7
66
1
10
0
20
0
30
0
0
VERTEX
8
AP_BEND_ANGLES
10
88.1353936674594
20
124.79288745700139
30
0
0
VERTEX
8
AP_BEND_ANGLES
10
87.798589782833545
20
124.5984711222911
30
0
0
SEQEND
0
POLYLINE
8
AP_BEND_ANGLES
62
7
66
1
10
0
20
0
30
0
0
VERTEX
8
AP_BEND_ANGLES
10
91.970308360330421
20
124.76140687890951
30
0
0
VERTEX
8
AP_BEND_ANGLES
10
91.192643021489317
20
126.10862241741287
30
0
0
SEQEND
0
POLYLINE
8
AP_BEND_ANGLES
62
7
66
1
10
0
20
0
30
0
0
VERTEX
8
AP_BEND_ANGLES
10
92.086681517848632
20
125.7266391502266
30
0
0
VERTEX
8
AP_BEND_ANGLES
10
90.402662094719417
20
124.75455747667523
30
0
0
VERTEX
8
AP_BEND_ANGLES
10
89.715355520999182
20
127.50101733847667
30
0
0
SEQEND
0
POLYLINE
8
AP_BEND_ANGLES
62
7
66
1
10
0
20
0
30
0
0
VERTEX
8
AP_BEND_ANGLES
10
93.4859258411467
20
125.63628038510574
30
0
0
VERTEX
8
AP_BEND_ANGLES
10
93.388717673791561
20
125.80468232741866
30
0
0
SEQEND
0
POLYLINE
8
AP_BEND_ANGLES
62
7
66
1
10
0
20
0
30
0
0
VERTEX
8
AP_BEND_ANGLES
10
94.833141379650073
20
126.41394572394684
30
0
42
0.268
0
VERTEX
8
AP_BEND_ANGLES
10
94.832588093034161
20
128.74857492813203
30
0
0
VERTEX
8
AP_BEND_ANGLES
10
94.832588093034161
20
128.74857492813203
30
0
0
VERTEX
8
AP_BEND_ANGLES
10
94.482638690555675
20
129.35482192045856
30
0
42
1
0
VERTEX
8
AP_BEND_ANGLES
10
93.1354231520523
20
128.57715658161746
30
0
0
VERTEX
8
AP_BEND_ANGLES
10
93.1354231520523
20
128.57715658161746
30
0
0
VERTEX
8
AP_BEND_ANGLES
10
93.32983948676258
20
128.24035269699161
30
0
0
VERTEX
8
AP_BEND_ANGLES
10
93.32983948676258
20
128.24035269699161
30
0
42
0.414
0
VERTEX
8
AP_BEND_ANGLES
10
94.3922799254348
20
127.95557759716049
30
0
0
VERTEX
8
AP_BEND_ANGLES
10
94.3922799254348
20
127.95557759716049
30
0
0
VERTEX
8
AP_BEND_ANGLES
10
95.025471228531387
20
128.32108030641581
30
0
0
SEQEND
0
POLYLINE
8
AP_BEND_ANGLES
62
7
66
1
10
0
20
0
30
0
0
VERTEX
8
AP_BEND_ANGLES
10
97.190768572030962
20
127.77486006691876
30
0
42
0.268
0
VERTEX
8
AP_BEND_ANGLES
10
97.19021528541505
20
130.10948927110397
30
0
0
VERTEX
8
AP_BEND_ANGLES
10
97.19021528541505
20
130.10948927110397
30
0
0
VERTEX
8
AP_BEND_ANGLES
10
96.840265882936563
20
130.71573626343047
30
0
42
1
0
VERTEX
8
AP_BEND_ANGLES
10
95.493050344433186
20
129.93807092458937
30
0
0
VERTEX
8
AP_BEND_ANGLES
10
95.493050344433186
20
129.93807092458937
30
0
0
VERTEX
8
AP_BEND_ANGLES
10
95.687466679143469
20
129.60126703996355
30
0
0
VERTEX
8
AP_BEND_ANGLES
10
95.687466679143469
20
129.60126703996355
30
0
42
0.414
0
VERTEX
8
AP_BEND_ANGLES
10
96.7499071178157
20
129.31649194013241
30
0
0
VERTEX
8
AP_BEND_ANGLES
10
96.7499071178157
20
129.31649194013241
30
0
0
VERTEX
8
AP_BEND_ANGLES
10
97.383098420912276
20
129.68199464938772
30
0
0
SEQEND
0
POLYLINE
8
AP_BEND_ANGLES
62
7
66
1
10
0
20
0
30
0
70
1
0
VERTEX
8
AP_BEND_ANGLES
10
97.9670506943323
20
132.2642175388784
30
0
42
1
0
VERTEX
8
AP_BEND_ANGLES
10
98.550299698463121
20
131.25380588500087
30
0
42
1
0
SEQEND
0
LINE
8
AP_BEND_LINES_UP
 62
1
10
33.763594038192622
20
106.45631230699078
11
137.60380848102022
21
166.40234751011445
0
POLYLINE
8
AP_BEND_ANGLES
62
7
66
1
10
0
20
0
30
0
0
VERTEX
8
AP_BEND_ANGLES
10
80.3679548279424
20
137.08120308615949
30
0
0
VERTEX
8
AP_BEND_ANGLES
10
80.652688375397432
20
138.14365466160353
30
0
0
VERTEX
8
AP_BEND_ANGLES
10
82.402553938372733
20
135.11248813508061
30
0
0
SEQEND
0
POLYLINE
8
AP_BEND_ANGLES
62
7
66
1
10
0
20
0
30
0
0
VERTEX
8
AP_BEND_ANGLES
10
81.663077217571754
20
138.72694318259531
30
0
0
VERTEX
8
AP_BEND_ANGLES
10
82.336669779021292
20
139.11580219658981
30
0
42
-1
0
VERTEX
8
AP_BEND_ANGLES
10
83.114387807010317
20
137.76861707369073
30
0
42
-0.414
0
VERTEX
8
AP_BEND_ANGLES
10
84.176839382454361
20
137.4838835262357
30
0
0
VERTEX
8
AP_BEND_ANGLES
10
84.371268889451613
20
137.14708724551093
30
0
42
-0.414
0
VERTEX
8
AP_BEND_ANGLES
10
84.0865353419966
20
136.08463567006689
30
0
0
VERTEX
8
AP_BEND_ANGLES
10
84.0865353419966
20
136.08463567006689
30
0
0
VERTEX
8
AP_BEND_ANGLES
10
83.412942780547041
20
135.69577665607235
30
0
0
SEQEND
0
POLYLINE
8
AP_BEND_ANGLES
62
7
66
1
10
0
20
0
30
0
0
VERTEX
8
AP_BEND_ANGLES
10
83.114387807010317
20
137.76861707369073
30
0
0
VERTEX
8
AP_BEND_ANGLES
10
82.777591526285534
20
137.57418756669347
30
0
0
SEQEND
0
POLYLINE
8
AP_BEND_ANGLES
62
7
66
1
10
0
20
0
30
0
0
VERTEX
8
AP_BEND_ANGLES
10
85.36783630554423
20
140.86566775956513
30
0
0
VERTEX
8
AP_BEND_ANGLES
10
84.020651182645139
20
140.08794973157609
30
0
0
VERTEX
8
AP_BEND_ANGLES
10
84.798369210634164
20
138.740764608677
30
0
0
VERTEX
8
AP_BEND_ANGLES
10
85.4719617720837
20
139.12962362267152
30
0
0
VERTEX
8
AP_BEND_ANGLES
10
85.4719617720837
20
139.12962362267152
30
0
42
-0.414
0
VERTEX
8
AP_BEND_ANGLES
10
86.53441334752776
20
138.84489007521648
30
0
0
VERTEX
8
AP_BEND_ANGLES
10
86.53441334752776
20
138.84489007521648
30
0
0
VERTEX
8
AP_BEND_ANGLES
10
86.728842854525013
20
138.50809379449171
30
0
0
VERTEX
8
AP_BEND_ANGLES
10
86.728842854525013
20
138.50809379449171
30
0
42
-0.414
0
VERTEX
8
AP_BEND_ANGLES
10
86.444109307069979
20
137.44564221904767
30
0
0
VERTEX
8
AP_BEND_ANGLES
10
86.444109307069979
20
137.44564221904767
30
0
0
VERTEX
8
AP_BEND_ANGLES
10
85.770516745620441
20
137.05678320505317
30
0
0
SEQEND
0
POLYLINE
8
AP_BEND_ANGLES
62
7
66
1
10
0
20
0
30
0
70
1
0
VERTEX
8
AP_BEND_ANGLES
10
86.883419568805692
20
141.74060054105277
30
0
42
1
0
VERTEX
8
AP_BEND_ANGLES
10
87.466708089797464
20
140.73021169887846
30
0
42
1
0
SEQEND
0
CIRCLE
8
AP_CONTOUR
62
7
10
9.9999999986805364
20
132.60979223116698
40
5.0000000000133085
0
CIRCLE
8
AP_CONTOUR
62
7
10
109.07964475065066
20
116.00204813385361
40
4.9999999999236522
0
CIRCLE
8
AP_CONTOUR
62
7
10
65.776979390567234
20
91.0044648345984
40
4.9999999999236238
0
CIRCLE
8
AP_CONTOUR
62
7
10
56.877398856919406
20
11.999999999807429
40
5.0000000000132747
0
CIRCLE
8
AP_CONTOUR
62
7
10
35.435590684548885
20
123.56155749280413
40
5.2000000000138176
0
LINE
8
AP_CONTOUR
 62
7
10
123.86181759756374
20
168.60494517528207
11
125.2474936233729
21
169.40488389262092
0
ARC
8
AP_CONTOUR
62
7
10
122.64769279201471
20
173.9083309765127
40
5.2000000000138611
50
299.99746601470969
51
119.99746601470956
0
LINE
8
AP_CONTOUR
 62
7
10
120.04789196065653
20
178.41177806040449
11
118.66221593484737
21
177.61183934306564
0
ARC
8
AP_CONTOUR
62
7
10
121.26201676620556
20
173.10839225917385
40
5.2000000000138611
50
119.9974660147097
51
299.99746601470957
0
ENDSEC
0
EOF
