0
SECTION
2
TABLES
0
TABLE
2
LAYER
70
6
0
LAYER
2
0
70
0
62
7
6
CONTINUOUS
0
LAYER
2
AP_CONTOUR
70
0
62
7
6
CONTINUOUS
0
LAYER
2
AP_BEND_LINES_UP
70
0
62
1
6
CONTINUOUS
0
LAYER
2
AP_BEND_LINES_DOWN
70
0
62
3
6
CONTINUOUS
0
LAYER
2
AP_BEND_ANGLES
70
0
62
7
6
CONTINUOUS
0
LAYER
2
AP_TEXT
70
0
62
255
6
CONTINUOUS
 0
ENDTAB
0
ENDSEC
0
SECTION
2
BLOCKS
0
ENDSEC
0
SECTION
2
ENTITIES
0
LINE
8
AP_CONTOUR
 62
7
10
51.397039904986066
20
65.964886218263914
11
51.397045185197108
21
65.964886218263914
0
LINE
8
AP_CONTOUR
 62
7
10
51.397045185197108
20
65.964886218263914
11
46.07662480119712
21
117.97159821133688
0
LINE
8
AP_CONTOUR
 62
7
10
46.07662480119712
20
117.97159821133688
11
45.818578005197431
21
121.53651254189764
0
LINE
8
AP_CONTOUR
 62
7
10
45.818578005197431
20
121.53651254189764
11
45.818580719032475
21
121.53651254188225
0
LINE
8
AP_CONTOUR
 62
7
10
45.818580719032475
20
121.53651254188225
11
45.818580698067478
21
132.74466653518226
0
ARC
8
AP_CONTOUR
62
7
10
33.818580696369267
20
132.74466651408329
40
12.000000001698215
50
359.99999999999983
51
37.04444502896802
0
LINE
8
AP_CONTOUR
 62
7
10
43.396601913195468
20
139.97387875407071
11
21.578021213712269
21
168.88143076282663
0
ARC
8
AP_CONTOUR
62
7
10
11.99999999958481
20
161.65221852277171
40
11.999999999584814
50
37.044445036987966
51
217.04444503698795
0
LINE
8
AP_CONTOUR
 62
7
10
2.4219787854573642
20
154.42300628271676
11
20.809422881846679
21
130.06138515515397
0
ARC
8
AP_CONTOUR
62
7
10
16.818580704561153
20
127.04921338839164
40
5.0000000036481351
50
0
51
37.044445004984226
0
LINE
8
AP_CONTOUR
 62
7
10
21.818580708209289
20
127.0492133971527
11
21.818580719032475
21
121.53651249915271
0
LINE
8
AP_CONTOUR
 62
7
10
21.818580719032475
20
121.53651249915271
11
21.818579361197415
21
121.53651249915271
0
ARC
8
AP_CONTOUR
62
7
10
8.7084439538799163
20
121.60540543444701
40
13.110316420084361
50
351.85144337828996
51
359.69891706113066
0
ARC
8
AP_CONTOUR
62
7
10
2071.3206156160049
20
-188.8264088960041
40
2072.7320300530955
50
171.4383869128317
51
171.48801762552844
0
LINE
8
AP_CONTOUR
 62
7
10
21.419873813370721
20
117.9715982113369
11
21.419872215197138
21
117.9715982113369
0
LINE
8
AP_CONTOUR
 62
7
10
21.419872215197138
20
117.9715982113369
11
13.199349922197094
21
65.964886218263914
0
ARC
8
AP_CONTOUR
62
7
10
28.898826800378963
20
63.588499749849589
40
15.878311840237609
50
171.39263657381727
51
177.84141766469872
0
ARC
8
AP_CONTOUR
62
7
10
64.77715439148426
20
62.372372180778342
40
51.777165245228176
50
177.99203387802402
51
179.96945847616576
0
LINE
8
AP_CONTOUR
 62
7
10
12.99999650230156
20
62.3999720051451
11
12.999996769247943
21
31.99999972819505
0
ARC
8
AP_CONTOUR
62
7
10
24.999996770498015
20
31.999999833149023
40
12.000000001250076
50
180.00000050111828
51
223.53119977634376
0
LINE
8
AP_CONTOUR
 62
7
10
16.300003637247148
20
23.735006214797593
11
35.300003811334967
21
3.7350063805810692
0
ARC
8
AP_CONTOUR
62
7
10
43.999996941346723
20
11.999999998833641
40
11.999999998833646
50
223.53119978665347
51
5.0000004976264076
0
LINE
8
AP_CONTOUR
 62
7
10
55.954333308202145
20
13.045869015529917
11
51.63640833641081
21
62.399972341728052
0
LINE
8
AP_CONTOUR
 62
7
10
51.63640833641081
20
62.399972341728052
11
51.636413146301507
21
62.399972341728088
0
LINE
8
AP_CONTOUR
 62
7
10
51.636413146301507
20
62.399972341728088
11
51.397039904986066
21
65.964886218263914
0
LINE
8
AP_BEND_LINES_DOWN
 62
3
10
13.031721760144318
20
64.182429111411324
11
51.52309578367371
21
64.182429277475023
0
POLYLINE
8
AP_BEND_ANGLES
62
7
66
1
10
0
20
0
30
0
0
VERTEX
8
AP_BEND_ANGLES
10
26.444075436418519
20
66.237984749998731
30
0
0
VERTEX
8
AP_BEND_ANGLES
10
27.999630991974072
20
66.237984749998731
30
0
0
SEQEND
0
POLYLINE
8
AP_BEND_ANGLES
62
7
66
1
10
0
20
0
30
0
0
VERTEX
8
AP_BEND_ANGLES
10
29.16629765864074
20
67.4046514166654
30
0
0
VERTEX
8
AP_BEND_ANGLES
10
29.944075436418519
20
68.182429194443174
30
0
0
VERTEX
8
AP_BEND_ANGLES
10
29.944075436418519
20
64.682429194443174
30
0
0
SEQEND
0
POLYLINE
8
AP_BEND_ANGLES
62
7
66
1
10
0
20
0
30
0
0
VERTEX
8
AP_BEND_ANGLES
10
32.471853214196294
20
64.682429194443174
30
0
0
VERTEX
8
AP_BEND_ANGLES
10
32.471853214196294
20
66.237984749998731
30
0
0
SEQEND
0
POLYLINE
8
AP_BEND_ANGLES
62
7
66
1
10
0
20
0
30
0
0
VERTEX
8
AP_BEND_ANGLES
10
33.05518654752963
20
65.460206972220945
30
0
0
VERTEX
8
AP_BEND_ANGLES
10
31.110742103085183
20
65.460206972220945
30
0
0
VERTEX
8
AP_BEND_ANGLES
10
31.888519880862962
20
68.182429194443174
30
0
0
SEQEND
0
POLYLINE
8
AP_BEND_ANGLES
62
7
66
1
10
0
20
0
30
0
0
VERTEX
8
AP_BEND_ANGLES
10
35.777408769751851
20
68.182429194443174
30
0
0
VERTEX
8
AP_BEND_ANGLES
10
34.221853214196294
20
68.182429194443174
30
0
0
VERTEX
8
AP_BEND_ANGLES
10
34.221853214196294
20
66.626873638887616
30
0
0
VERTEX
8
AP_BEND_ANGLES
10
34.999630991974072
20
66.626873638887616
30
0
0
VERTEX
8
AP_BEND_ANGLES
10
34.999630991974072
20
66.626873638887616
30
0
42
-0.414
0
VERTEX
8
AP_BEND_ANGLES
10
35.777408769751851
20
65.849095861109845
30
0
0
VERTEX
8
AP_BEND_ANGLES
10
35.777408769751851
20
65.849095861109845
30
0
0
VERTEX
8
AP_BEND_ANGLES
10
35.777408769751851
20
65.460206972220945
30
0
0
VERTEX
8
AP_BEND_ANGLES
10
35.777408769751851
20
65.460206972220945
30
0
42
-0.414
0
VERTEX
8
AP_BEND_ANGLES
10
34.999630991974072
20
64.682429194443174
30
0
0
VERTEX
8
AP_BEND_ANGLES
10
34.999630991974072
20
64.682429194443174
30
0
0
VERTEX
8
AP_BEND_ANGLES
10
34.221853214196294
20
64.682429194443174
30
0
0
SEQEND
0
POLYLINE
8
AP_BEND_ANGLES
62
7
66
1
10
0
20
0
30
0
70
1
0
VERTEX
8
AP_BEND_ANGLES
10
37.527408769751851
20
68.182429194443174
30
0
42
1
0
VERTEX
8
AP_BEND_ANGLES
10
37.527408769751851
20
67.0157625277765
30
0
42
1
0
SEQEND
0
LINE
8
AP_BEND_LINES_UP
 62
1
10
45.90361471868416
20
119.75405537661726
11
21.68717110604895
21
119.75405537661726
0
POLYLINE
8
AP_BEND_ANGLES
62
7
66
1
10
0
20
0
30
0
0
VERTEX
8
AP_BEND_ANGLES
10
29.32317069014433
20
122.97627759883949
30
0
0
VERTEX
8
AP_BEND_ANGLES
10
30.100948467922109
20
123.75405537661726
30
0
0
VERTEX
8
AP_BEND_ANGLES
10
30.100948467922109
20
120.25405537661726
30
0
0
SEQEND
0
POLYLINE
8
AP_BEND_ANGLES
62
7
66
1
10
0
20
0
30
0
0
VERTEX
8
AP_BEND_ANGLES
10
32.628726245699887
20
120.25405537661726
30
0
0
VERTEX
8
AP_BEND_ANGLES
10
32.628726245699887
20
121.80961093217282
30
0
0
SEQEND
0
POLYLINE
8
AP_BEND_ANGLES
62
7
66
1
10
0
20
0
30
0
0
VERTEX
8
AP_BEND_ANGLES
10
33.212059579033216
20
121.03183315439503
30
0
0
VERTEX
8
AP_BEND_ANGLES
10
31.267615134588773
20
121.03183315439503
30
0
0
VERTEX
8
AP_BEND_ANGLES
10
32.045392912366552
20
123.75405537661726
30
0
0
SEQEND
0
POLYLINE
8
AP_BEND_ANGLES
62
7
66
1
10
0
20
0
30
0
0
VERTEX
8
AP_BEND_ANGLES
10
35.934281801255437
20
123.75405537661726
30
0
0
VERTEX
8
AP_BEND_ANGLES
10
34.378726245699887
20
123.75405537661726
30
0
0
VERTEX
8
AP_BEND_ANGLES
10
34.378726245699887
20
122.1984998210617
30
0
0
VERTEX
8
AP_BEND_ANGLES
10
35.156504023477666
20
122.1984998210617
30
0
0
VERTEX
8
AP_BEND_ANGLES
10
35.156504023477666
20
122.1984998210617
30
0
42
-0.414
0
VERTEX
8
AP_BEND_ANGLES
10
35.934281801255437
20
121.42072204328393
30
0
0
VERTEX
8
AP_BEND_ANGLES
10
35.934281801255437
20
121.42072204328393
30
0
0
VERTEX
8
AP_BEND_ANGLES
10
35.934281801255437
20
121.03183315439503
30
0
0
VERTEX
8
AP_BEND_ANGLES
10
35.934281801255437
20
121.03183315439503
30
0
42
-0.414
0
VERTEX
8
AP_BEND_ANGLES
10
35.156504023477666
20
120.25405537661726
30
0
0
VERTEX
8
AP_BEND_ANGLES
10
35.156504023477666
20
120.25405537661726
30
0
0
VERTEX
8
AP_BEND_ANGLES
10
34.378726245699887
20
120.25405537661726
30
0
0
SEQEND
0
POLYLINE
8
AP_BEND_ANGLES
62
7
66
1
10
0
20
0
30
0
70
1
0
VERTEX
8
AP_BEND_ANGLES
10
37.684281801255437
20
123.75405537661726
30
0
42
1
0
VERTEX
8
AP_BEND_ANGLES
10
37.684281801255437
20
122.58738870995059
30
0
42
1
0
SEQEND
0
CIRCLE
8
AP_CONTOUR
62
7
10
33.81858069907031
20
132.74466651411746
40
5.0000000000000249
0
CIRCLE
8
AP_CONTOUR
62
7
10
42.2500141831493
20
77.860545312139593
40
5.0000000001391527
0
CIRCLE
8
AP_CONTOUR
62
7
10
24.999996767241626
20
31.999999833083663
40
4.9999999999999645
0
CIRCLE
8
AP_CONTOUR
62
7
10
11.999999999584805
20
161.65221852277171
40
7.0000000000000213
0
CIRCLE
8
AP_CONTOUR
62
7
10
43.999985717472526
20
11.999999998602959
40
7.0000000000000329
0
CIRCLE
8
0
62
256
10
32.382763861317017
20
98.151994446453273
40
5.21459883686
0
ENDSEC
0
EOF
